<svg width="48" height="49" viewBox="0 0 48 49" fill="none" xmlns="http://www.w3.org/2000/svg">
<path d="M10.5 6.5C9.78104 6.5 9.12538 6.91113 8.81222 7.55832L3.18722 19.1833C2.8708 19.8373 2.9606 20.6151 3.41768 21.1797L22.5427 44.8047C22.8987 45.2445 23.4342 45.5 24 45.5C24.5658 45.5 25.1014 45.2445 25.4574 44.8047L44.5824 21.1797C45.0394 20.6151 45.1292 19.8373 44.8128 19.1833L39.1878 7.55832C38.8747 6.91113 38.219 6.5 37.5 6.5H10.5ZM8.04669 17.75L11.6757 10.25H17.2075L14.8637 17.75H8.04669ZM8.50167 21.5H14.6486L18.9514 34.4085L8.50167 21.5ZM18.6014 21.5H29.3987L24.0001 37.6958L18.6014 21.5ZM33.3515 21.5H39.4984L29.0487 34.4084L33.3515 21.5ZM39.9533 17.75H33.1364L30.7926 10.25H36.3243L39.9533 17.75ZM29.2076 17.75H18.7926L21.1363 10.25H26.8638L29.2076 17.75Z" fill="#019935"/>
</svg>
