<svg width="450" height="360" viewBox="0 0 450 360" fill="none" xmlns="http://www.w3.org/2000/svg">
<path d="M408.076 200.658C405.889 181.033 400.682 161.788 393.669 145.215C377.711 107.502 348.717 74.7118 312.766 54.9331C275.326 34.3349 230.912 16.966 187.412 24.3657C146.665 31.2974 106.294 57.6101 79.2736 96.3945C49.5614 139.043 39.206 200.472 45.7876 251.443C48.3823 271.537 55.8131 291.614 70.1504 305.93C97.2843 333.025 143.302 337.704 179.608 337.865C207.722 337.99 237.243 340.43 265.169 336.564C285.976 333.683 301.607 340.373 322.345 336.836C357.737 330.8 385.777 304.054 399.643 271.829C408.811 250.524 410.822 225.291 408.076 200.658Z" fill="#E6F5EB"/>
<path d="M387.307 337.794C387.307 338.047 386.831 338.253 386.243 338.253H100.824C100.236 338.253 99.7595 338.047 99.7595 337.794V336.206C99.7595 335.952 100.236 335.747 100.824 335.747H386.243C386.831 335.747 387.307 335.952 387.307 336.206V337.794Z" fill="#019935"/>
<path d="M307.995 358.703C307.995 359.001 307.87 359.243 307.716 359.243H232.814C232.66 359.243 232.535 359.002 232.535 358.703V356.833C232.535 356.534 232.66 356.292 232.814 356.292H307.716C307.87 356.292 307.995 356.534 307.995 356.833L307.995 358.703Z" fill="#019935"/>
<path d="M276.883 350.91C276.883 351.174 276.613 351.388 276.28 351.388H114.522C114.189 351.388 113.918 351.174 113.918 350.91V349.255C113.918 348.991 114.189 348.777 114.522 348.777H276.28C276.613 348.777 276.883 348.991 276.883 349.255V350.91Z" fill="#019935"/>
<path d="M212.557 49.9768C198.196 50.1408 185.651 58.4998 184.209 49.5437C182.767 40.5877 193.093 31.4764 207.272 29.1937C226.915 26.0312 249.769 38.423 244.743 48.7546C237.916 62.7857 225.853 49.8251 212.557 49.9768Z" fill="#B0DFC0"/>
<path d="M30.6108 223.628C31.3965 237.969 40.2908 250.139 31.4056 251.968C22.5205 253.796 12.9705 243.875 10.076 229.808C6.06594 210.32 17.4564 186.951 27.996 191.526C42.3094 197.738 29.8834 210.351 30.6108 223.628Z" fill="#8AD0A2"/>
<path d="M286.595 13.5975C288.19 16.8668 287.183 20.6389 284.347 22.0229C281.511 23.4069 277.918 21.8785 276.323 18.6092C274.728 15.34 275.734 11.5677 278.571 10.184C281.407 8.79989 285 10.3284 286.595 13.5975Z" fill="#8AD0A2"/>
<path d="M315.806 16.8268C321.844 20.8853 323.846 28.4788 320.279 33.7871C316.71 39.096 308.923 40.1096 302.885 36.0512C296.847 31.9926 294.844 24.3992 298.413 19.0906C301.981 13.782 309.768 12.7685 315.806 16.8268Z" fill="#8AD0A2"/>
<path d="M335.128 39.8792C340.424 40.7483 344.303 43.9774 343.793 47.0915C343.282 50.206 338.574 52.0264 333.278 51.1575C327.982 50.2883 324.103 47.0593 324.614 43.945C325.125 40.8306 329.832 39.0103 335.128 39.8792Z" fill="#8AD0A2"/>
<path d="M109.96 46.4509C79.8332 68.5467 59.1432 95.395 56.6208 91.9559C54.0984 88.5168 70.6988 56.0926 100.825 33.9968C130.952 11.9011 163.196 8.50099 165.718 11.9401C168.241 15.3792 140.086 24.3552 109.96 46.4509Z" fill="#8AD0A2"/>
<path d="M272.629 84.7873C269.525 84.7043 256.888 77.1474 253.343 75.1861L224.513 95.6663C222.028 98.2351 219.046 100.536 216.779 101.708C195.609 112.656 165.092 124.628 178.681 135.783C192.838 147.405 191.866 150.521 203.866 154.542C213.458 157.757 215.71 160.916 232.38 166.833C250.764 173.359 268.703 153.939 278.826 142.575L363.982 110.555L344.177 57.8839C344.177 57.8839 291.732 85.2981 272.629 84.7873Z" fill="#019935"/>
<path d="M270.389 162.618C273.717 158.465 261.291 152.676 257.627 150.668C253.799 148.57 243.561 141.923 243.561 141.923C243.561 141.923 250.571 145.121 258.756 148.924C268.476 153.44 279.878 158.308 283.497 152.65C285.96 148.798 274.38 142.625 263.722 135.869C255.232 130.486 253.619 130.289 255.365 129.665C255.365 129.665 284.98 147.816 289.134 145.312C298.185 139.855 284.932 131.916 269.805 122.316C259.203 115.589 248.145 107.895 239.975 103.602C237.717 102.416 234.749 100.095 232.281 97.5102C232.281 97.5102 221.422 79.3579 211.759 79.435C207.707 79.4673 187.342 86.2553 184.237 86.3182C165.131 86.7047 112.866 58.9495 112.866 58.9495L92.7183 111.49L177.664 144.065C191.501 152.892 187.684 151.834 205.49 159.804C210.885 162.219 224.687 165.905 226.915 166.575C245.853 172.271 246.341 173.148 251.748 171.491C253.904 170.83 258.592 168.001 249.254 163.308C240.649 158.984 232.523 151.573 232.523 151.573C232.523 151.573 245.628 159.349 250.583 161.144C255.245 162.832 265.917 168.197 270.389 162.618Z" fill="#55BB78"/>
<path d="M216.641 96.9688C224.686 105.561 221.266 117.943 217.031 119.536C212.796 121.128 206.268 114.188 202.45 104.034C198.632 93.8808 198.97 84.359 203.205 82.7667C204.57 82.2535 237.833 72.2824 243.737 72.5973C248.559 72.8546 270.478 77.3104 246.337 93.0551C240.96 96.5614 232.229 97.8879 232.229 97.8879C232.229 97.8879 229.611 95.3318 228.421 93.4794C223.788 92.6851 217.754 96.0827 216.641 96.9688Z" fill="#019935"/>
<path d="M187.836 136.659C195.634 131.575 202.769 128.702 205.159 132.369C207.956 136.659 202.042 141.404 194.244 146.487C186.446 151.571 179.617 154.911 176.921 150.777C174.124 146.487 180.039 141.742 187.836 136.659Z" fill="#019935"/>
<path d="M197.848 147.045C205.374 139.429 212.641 134.407 216.065 137.791C220.074 141.751 214.556 148.501 207.03 156.118C199.505 163.734 196.156 165.508 192.294 161.692C188.286 157.732 190.323 154.661 197.848 147.045Z" fill="#019935"/>
<path d="M208.915 159.025C214.048 152.444 219.384 148.026 222.835 150.717C226.873 153.867 223.299 159.66 218.166 166.241C213.033 172.822 210.146 174.109 206.254 171.074C202.216 167.924 203.782 165.607 208.915 159.025Z" fill="#019935"/>
<path d="M222.003 166.447C226.538 161.858 231.273 159.185 234.386 162.261C238.029 165.861 234.436 168.988 229.902 173.577C225.367 178.166 223.133 181.222 219.623 177.754C215.979 174.154 217.469 171.036 222.003 166.447Z" fill="#019935"/>
<path d="M210.461 113.332C208.265 109.976 206.028 109.306 205.342 109.609C204.656 109.913 205.782 111.075 207.977 114.431C210.173 117.787 212.509 120.651 213.195 120.348C213.88 120.044 212.656 116.688 210.461 113.332Z" fill="#8AD0A2"/>
<path d="M202.884 138.996C200.762 140.824 197.926 141.01 196.548 139.412C195.17 137.813 195.773 135.034 197.895 133.206C200.016 131.378 202.853 131.192 204.231 132.791C205.609 134.389 205.006 137.168 202.884 138.996Z" fill="#8AD0A2"/>
<path d="M215.145 144.764C213.246 146.823 210.449 147.332 208.897 145.901C207.346 144.471 207.627 141.642 209.525 139.583C211.424 137.523 214.221 137.014 215.772 138.445C217.324 139.876 217.043 142.705 215.145 144.764Z" fill="#8AD0A2"/>
<path d="M221.724 157.766C219.826 159.825 217.028 160.334 215.477 158.903C213.925 157.473 214.206 154.644 216.105 152.585C218.003 150.526 220.8 150.016 222.352 151.447C223.904 152.878 223.622 155.707 221.724 157.766Z" fill="#8AD0A2"/>
<path d="M233.409 167.701C231.785 169.462 229.393 169.898 228.066 168.674C226.738 167.451 226.979 165.031 228.603 163.269C230.226 161.508 232.619 161.073 233.946 162.296C235.273 163.52 235.033 165.94 233.409 167.701Z" fill="#8AD0A2"/>
<path d="M153.986 148.914L108.717 123.224L125.727 65.8494L173.083 79.8891L153.986 148.914Z" fill="#B0DFC0"/>
<path d="M147.026 67.2416L128.717 113.795L128.717 113.795L121.483 132.188L79.5054 116.79L98.3937 62.5922L98.3946 62.5897L101.479 53.7385L147.026 67.2416Z" fill="#55BB78"/>
<path d="M138.183 124.995L134.138 131.557L146.014 138.877L150.059 132.315L138.183 124.995Z" fill="#55BB78"/>
<path d="M97.2095 118.544C100.706 117.423 102.639 113.667 101.518 110.17C100.398 106.673 96.6411 104.74 93.144 105.861C89.6473 106.982 87.7144 110.738 88.8353 114.235C89.9561 117.732 93.7126 119.665 97.2095 118.544Z" fill="#8AD0A2"/>
<path d="M115.58 126.811C119.076 125.69 121.009 121.933 119.889 118.436C118.768 114.94 115.011 113.007 111.514 114.128C108.017 115.248 106.084 119.005 107.205 122.502C108.326 125.998 112.083 127.931 115.58 126.811Z" fill="#8AD0A2"/>
<path d="M316.048 144.537L360.742 117.859L342.476 60.8716L295.44 75.9482L316.048 144.537Z" fill="#B0DFC0"/>
<path d="M321.213 62.7314L340.54 108.871L340.541 108.872L348.177 127.101L389.806 110.785L369.731 57.0148L369.731 57.0123L366.452 48.231L321.213 62.7314Z" fill="#55BB78"/>
<path d="M331.329 120.278L319.616 127.856L323.803 134.328L335.516 126.75L331.329 120.278Z" fill="#55BB78"/>
<path d="M376.435 113.033C379.931 111.912 381.864 108.156 380.744 104.659C379.623 101.162 375.866 99.2292 372.369 100.35C368.872 101.471 366.94 105.227 368.06 108.724C369.181 112.221 372.938 114.154 376.435 113.033Z" fill="#8AD0A2"/>
<path d="M358.065 121.3C361.561 120.179 363.495 116.422 362.374 112.925C361.253 109.429 357.496 107.496 353.999 108.617C350.503 109.737 348.57 113.494 349.691 116.991C350.811 120.487 354.568 122.42 358.065 121.3Z" fill="#8AD0A2"/>
<path d="M407.78 154.858C407.666 153.653 406.7 152.753 405.399 152.753C405.399 152.753 405.115 152.763 404.636 152.771H404.633C404.194 152.778 403.591 152.783 402.894 152.779H402.856C400.185 152.759 396.158 152.586 394.594 151.766C393.127 150.996 393.91 145.999 394.018 145.35C395.859 144.418 397.442 142.954 398.502 141.183C398.612 141 398.716 140.813 398.814 140.623C399.306 139.675 399.65 138.651 399.81 137.583C400.52 132.84 397.345 128.967 392.657 128.727H392.652C392.501 128.719 392.348 128.715 392.193 128.715C392.011 128.715 391.83 128.72 391.649 128.731C391.032 128.767 390.425 128.864 389.83 129.016C385.863 130.028 382.536 133.479 381.921 137.581C381.92 137.581 381.92 137.583 381.92 137.583C381.89 137.786 381.867 137.988 381.851 138.187C381.597 141.277 383.006 143.933 385.384 145.351C385.306 145.975 384.68 150.576 383.146 151.663C382.836 151.883 382.131 152.059 381.217 152.2C377.89 152.71 371.786 152.753 371.786 152.753C371.408 152.753 371.036 152.829 370.686 152.966C369.831 153.302 369.111 154.003 368.773 154.858C368.746 154.928 368.72 154.999 368.697 155.072C368.653 155.213 368.62 155.357 368.598 155.505L367.875 160.327C367.704 161.466 368.265 162.449 369.203 162.866C369.511 163.003 369.861 163.079 370.239 163.079H403.851C405.378 163.079 406.813 161.841 407.039 160.327L407.761 155.505C407.783 155.357 407.794 155.213 407.792 155.072C407.79 155 407.787 154.928 407.78 154.858ZM390.244 141.726C390.061 141.726 389.881 141.714 389.707 141.69C387.76 141.428 386.481 139.74 386.787 137.7C387.092 135.658 388.878 133.971 390.904 133.709C391.085 133.685 391.267 133.673 391.45 133.673C391.552 133.673 391.653 133.677 391.751 133.685C391.804 133.688 391.857 133.693 391.909 133.7C393.9 133.928 395.218 135.631 394.908 137.7C394.598 139.768 392.77 141.472 390.71 141.699C390.657 141.706 390.604 141.711 390.551 141.714C390.449 141.722 390.346 141.726 390.244 141.726Z" fill="#15878A"/>
<path d="M310.305 325.106C308.217 325.106 306.763 323.413 307.073 321.343L331.453 158.621C331.763 156.551 333.725 154.858 335.812 154.858H446.727C448.814 154.858 450.268 156.551 449.958 158.621L425.579 321.343C425.269 323.413 423.307 325.106 421.22 325.106L310.305 325.106Z" fill="#8AD0A2"/>
<path d="M306.235 325.106C304.147 325.106 302.693 323.413 303.003 321.343L327.383 158.621C327.693 156.551 329.655 154.858 331.742 154.858H442.657C444.744 154.858 446.198 156.551 445.889 158.621L421.508 321.343C421.198 323.413 419.237 325.106 417.15 325.106L306.235 325.106Z" fill="#EEF5F0"/>
<path d="M406.703 154.858C406.598 153.753 405.777 152.904 404.636 152.771H404.633C404.532 152.759 404.428 152.753 404.321 152.753C404.321 152.753 403.763 152.772 402.894 152.779H402.856C400.345 152.796 395.311 152.706 393.517 151.765C392.05 150.996 392.832 145.999 392.941 145.35C394.848 144.385 396.478 142.848 397.537 140.991C397.642 140.807 397.742 140.619 397.836 140.429C398.275 139.535 398.584 138.578 398.733 137.583C399.439 132.863 396.299 129.004 391.649 128.731C391.626 128.729 391.603 128.728 391.579 128.727H391.575C391.424 128.719 391.27 128.715 391.116 128.715C386.234 128.715 381.684 132.594 380.87 137.413C380.86 137.47 380.851 137.526 380.843 137.583C380.82 137.729 380.803 137.874 380.788 138.018C380.469 141.18 381.885 143.907 384.307 145.351C384.229 145.975 383.603 150.576 382.069 151.663C380.632 152.683 370.708 152.753 370.708 152.753C369.407 152.753 368.171 153.654 367.696 154.858C367.668 154.928 367.643 154.999 367.62 155.072C367.576 155.213 367.542 155.357 367.52 155.505L366.798 160.327C366.571 161.841 367.635 163.079 369.161 163.079H402.774C404.301 163.079 405.735 161.841 405.962 160.327L406.684 155.505C406.707 155.357 406.717 155.213 406.715 155.072C406.713 155 406.709 154.928 406.703 154.858ZM390.904 133.709C392.854 133.969 394.137 135.656 393.83 137.7C393.525 139.744 391.736 141.431 389.707 141.69C389.682 141.694 389.658 141.697 389.633 141.7C389.479 141.717 389.323 141.726 389.167 141.726C386.924 141.726 385.376 139.923 385.709 137.7C386.042 135.476 388.13 133.673 390.373 133.673C390.529 133.673 390.682 133.682 390.832 133.7C390.856 133.702 390.88 133.706 390.904 133.709Z" fill="#222221"/>
<path d="M406.497 155.072C406.495 155 406.49 154.928 406.482 154.858C406.356 153.77 405.477 152.966 404.296 152.966C404.289 152.967 403.474 152.994 402.3 152.994C399.713 152.994 395.114 152.859 393.393 151.957C391.844 151.145 392.565 146.308 392.725 145.347L392.746 145.223L392.864 145.163C394.754 144.207 396.311 142.709 397.325 140.949C397.431 140.764 397.531 140.577 397.625 140.387C398.066 139.497 398.372 138.552 398.517 137.583C399.208 132.972 396.141 129.176 391.532 128.94C391.385 128.932 391.235 128.929 391.085 128.929C390.663 128.929 390.244 128.958 389.83 129.016C385.558 129.608 381.791 133.153 381.08 137.447C381.072 137.492 381.065 137.538 381.058 137.583C381.035 137.74 381.015 137.896 381.001 138.051C380.718 141.019 382.009 143.715 384.439 145.165L384.539 145.224L384.523 145.346C384.412 146.23 383.778 150.696 382.179 151.83C381.983 151.97 381.649 152.092 381.217 152.2C378.445 152.887 371.608 152.96 370.686 152.966H370.677C369.491 152.966 368.369 153.771 367.917 154.858C367.888 154.928 367.862 154.999 367.838 155.072C367.793 155.212 367.758 155.357 367.736 155.505L367.014 160.327C366.804 161.727 367.782 162.866 369.193 162.866H402.806C404.217 162.866 405.537 161.727 405.747 160.327L406.469 155.505C406.491 155.357 406.5 155.212 406.497 155.072ZM390.406 133.46C390.57 133.46 390.732 133.469 390.888 133.487C391.192 133.522 391.481 133.589 391.751 133.685C393.367 134.256 394.323 135.851 394.046 137.7C393.77 139.547 392.336 141.141 390.551 141.714C390.252 141.81 389.942 141.878 389.626 141.912C389.464 141.93 389.298 141.939 389.135 141.939C386.777 141.939 385.143 140.038 385.494 137.7C385.844 135.362 388.047 133.46 390.406 133.46Z" fill="#BFE2E2"/>
<path d="M410.643 187.626C410.572 188.094 410.067 188.473 409.516 188.473H343.107C342.555 188.473 342.166 188.094 342.236 187.626L342.265 187.434C342.336 186.966 342.84 186.586 343.392 186.586H409.801C410.352 186.586 410.742 186.966 410.671 187.434L410.643 187.626Z" fill="#34AD5D"/>
<path d="M420.17 191.439C420.1 191.907 419.529 192.287 418.897 192.287H342.705C342.072 192.287 341.617 191.907 341.687 191.439L341.716 191.247C341.787 190.779 342.357 190.4 342.99 190.4H419.182C419.814 190.4 420.27 190.779 420.199 191.247L420.17 191.439Z" fill="#34AD5D"/>
<path d="M417.886 202.449C417.815 202.917 417.245 203.297 416.613 203.297H340.42C339.788 203.297 339.333 202.917 339.403 202.449L339.432 202.258C339.503 201.789 340.073 201.41 340.706 201.41H416.898C417.53 201.41 417.985 201.789 417.915 202.258L417.886 202.449Z" fill="#34AD5D"/>
<path d="M412.728 206.263C412.658 206.731 412.118 207.11 411.522 207.11H339.805C339.209 207.11 338.784 206.731 338.855 206.263L338.883 206.071C338.954 205.603 339.494 205.224 340.09 205.224H411.807C412.402 205.224 412.828 205.603 412.757 206.071L412.728 206.263Z" fill="#34AD5D"/>
<path d="M406.712 210.076C406.641 210.544 406.137 210.923 405.585 210.923H339.176C338.625 210.923 338.235 210.544 338.306 210.076L338.335 209.884C338.405 209.417 338.91 209.037 339.461 209.037H405.87C406.422 209.037 406.811 209.417 406.741 209.884L406.712 210.076Z" fill="#34AD5D"/>
<path d="M416.24 213.89C416.169 214.358 415.599 214.737 414.966 214.737H338.774C338.142 214.737 337.686 214.358 337.757 213.89L337.786 213.698C337.857 213.23 338.427 212.851 339.059 212.851H415.251C415.884 212.851 416.339 213.23 416.268 213.698L416.24 213.89Z" fill="#34AD5D"/>
<path d="M413.955 224.9C413.884 225.368 413.314 225.747 412.682 225.747H336.49C335.857 225.747 335.402 225.368 335.473 224.9L335.501 224.708C335.572 224.24 336.142 223.861 336.775 223.861H412.967C413.599 223.861 414.055 224.24 413.984 224.708L413.955 224.9Z" fill="#34AD5D"/>
<path d="M408.798 228.713C408.727 229.181 408.187 229.561 407.592 229.561H335.874C335.279 229.561 334.853 229.181 334.924 228.713L334.953 228.522C335.023 228.053 335.563 227.674 336.159 227.674H407.876C408.472 227.674 408.897 228.053 408.827 228.522L408.798 228.713Z" fill="#34AD5D"/>
<path d="M402.781 232.527C402.71 232.995 402.206 233.374 401.655 233.374H335.246C334.694 233.374 334.305 232.995 334.375 232.527L334.404 232.335C334.475 231.867 334.979 231.487 335.53 231.487H401.94C402.491 231.487 402.881 231.867 402.81 232.335L402.781 232.527Z" fill="#34AD5D"/>
<path d="M412.309 236.34C412.238 236.808 411.668 237.188 411.036 237.188H334.844C334.211 237.188 333.756 236.808 333.826 236.34L333.855 236.149C333.926 235.68 334.496 235.301 335.128 235.301H411.32C411.953 235.301 412.408 235.68 412.338 236.149L412.309 236.34Z" fill="#34AD5D"/>
<path d="M410.025 247.35C409.954 247.818 409.384 248.198 408.751 248.198H332.559C331.927 248.198 331.471 247.818 331.542 247.35L331.571 247.158C331.642 246.69 332.212 246.311 332.844 246.311H409.036C409.669 246.311 410.124 246.69 410.054 247.158L410.025 247.35Z" fill="#34AD5D"/>
<path d="M404.867 251.164C404.796 251.632 404.256 252.011 403.661 252.011H331.944C331.348 252.011 330.923 251.632 330.993 251.164L331.022 250.972C331.093 250.504 331.633 250.125 332.228 250.125H403.946C404.541 250.125 404.967 250.504 404.896 250.972L404.867 251.164Z" fill="#34AD5D"/>
<path d="M398.85 254.977C398.78 255.445 398.275 255.825 397.724 255.825H331.315C330.763 255.825 330.374 255.445 330.444 254.977L330.473 254.785C330.544 254.318 331.048 253.938 331.599 253.938H398.009C398.56 253.938 398.95 254.318 398.879 254.785L398.85 254.977Z" fill="#34AD5D"/>
<path d="M408.378 258.791C408.308 259.259 407.737 259.638 407.105 259.638H330.913C330.28 259.638 329.825 259.259 329.896 258.791L329.924 258.599C329.995 258.131 330.565 257.751 331.198 257.751H407.39C408.022 257.751 408.478 258.131 408.407 258.599L408.378 258.791Z" fill="#34AD5D"/>
<path d="M406.094 269.801C406.023 270.269 405.453 270.648 404.821 270.648H328.629C327.996 270.648 327.541 270.269 327.611 269.801L327.64 269.609C327.711 269.141 328.281 268.762 328.914 268.762H405.106C405.738 268.762 406.194 269.141 406.123 269.609L406.094 269.801Z" fill="#34AD5D"/>
<path d="M400.936 273.614C400.866 274.082 400.326 274.462 399.73 274.462H328.013C327.417 274.462 326.992 274.082 327.062 273.614L327.091 273.423C327.162 272.955 327.702 272.575 328.298 272.575H400.015C400.61 272.575 401.036 272.954 400.965 273.423L400.936 273.614Z" fill="#34AD5D"/>
<path d="M394.919 277.428C394.849 277.896 394.345 278.275 393.794 278.275H327.384C326.833 278.275 326.443 277.896 326.514 277.428L326.543 277.236C326.613 276.768 327.117 276.388 327.669 276.388H394.079C394.63 276.388 395.019 276.768 394.948 277.236L394.919 277.428Z" fill="#34AD5D"/>
<path d="M404.447 281.241C404.377 281.709 403.807 282.089 403.174 282.089H326.982C326.35 282.089 325.894 281.709 325.965 281.241L325.994 281.049C326.065 280.581 326.634 280.202 327.267 280.202H403.459C404.092 280.202 404.547 280.581 404.476 281.049L404.447 281.241Z" fill="#34AD5D"/>
<path d="M403.337 298.217C403.266 298.684 403.013 299.064 402.771 299.064H373.628C373.386 299.064 373.247 298.685 373.318 298.217L373.347 298.025C373.417 297.556 373.671 297.177 373.912 297.177H403.056C403.298 297.177 403.436 297.556 403.366 298.025L403.337 298.217Z" fill="#34AD5D"/>
<path d="M346.483 180.787C344.668 180.787 343.203 180.198 342.244 179.084C341.26 177.94 340.894 176.312 341.186 174.377C341.472 172.484 342.336 170.86 343.685 169.682C345.034 168.503 346.741 167.88 348.62 167.88C350.321 167.88 351.216 168.284 351.522 168.458L351.884 168.664L350.969 170.716L350.536 170.489C350.229 170.328 349.554 170.058 348.482 170.058C345.895 170.058 344.102 171.705 343.686 174.462C343.484 175.799 343.703 176.884 344.319 177.6C344.887 178.26 345.808 178.609 346.983 178.609C347.817 178.609 348.708 178.44 349.31 178.167L349.887 177.905L350.122 180.053L349.823 180.192C349.206 180.479 348.004 180.787 346.483 180.787Z" fill="#55BB78"/>
<path d="M355.584 180.804C354.058 180.804 352.787 180.264 351.908 179.243C350.901 178.072 350.51 176.344 350.806 174.377C351.384 170.552 354.165 167.88 357.569 167.88C359.111 167.88 360.387 168.416 361.259 169.429C362.26 170.592 362.647 172.319 362.349 174.29C362.048 176.287 361.212 177.958 359.932 179.123C358.741 180.207 357.197 180.804 355.584 180.804ZM357.315 170.024C355.02 170.024 353.655 172.262 353.32 174.48C353.11 175.875 353.363 177.11 354.016 177.869C354.468 178.394 355.087 178.661 355.855 178.661C358.15 178.661 359.514 176.431 359.847 174.222C360.057 172.834 359.795 171.556 359.148 170.803C358.702 170.286 358.086 170.024 357.315 170.024Z" fill="#55BB78"/>
<path d="M369.846 180.614L366.93 174.452C366.553 173.656 366.235 172.942 365.969 172.287C365.863 173.169 365.731 174.117 365.559 175.256L364.75 180.614H362.41L364.304 168.07H366.623L369.577 174.212C369.895 174.875 370.178 175.513 370.429 176.137C370.53 175.229 370.657 174.317 370.807 173.325L371.601 168.07H373.941L372.047 180.614L369.846 180.614Z" fill="#55BB78"/>
<path d="M375.936 180.614L377.499 170.265H373.971L374.302 168.07H383.819L383.487 170.265H379.942L378.379 180.614H375.936Z" fill="#55BB78"/>
<path d="M388.523 180.614L388.404 180.335C388.253 179.982 388.144 179.163 388.013 177.412C387.916 175.893 387.462 175.617 386.48 175.578H385.473L384.713 180.614H382.286L384.146 168.297L384.463 168.234C385.251 168.078 386.372 167.984 387.463 167.984C389.196 167.984 390.29 168.32 391.008 169.075C391.616 169.696 391.866 170.619 391.708 171.668C391.512 172.967 390.724 174.044 389.548 174.671C390.049 175.158 390.342 175.913 390.42 176.929C390.538 178.367 390.649 179.592 390.803 179.989L391.045 180.614H388.523ZM386.781 173.521C388.13 173.521 389.11 172.807 389.276 171.704C389.349 171.224 389.275 170.851 389.057 170.595C388.766 170.253 388.189 170.067 387.389 170.058C386.923 170.058 386.552 170.088 386.296 170.125L385.784 173.521H386.781Z" fill="#55BB78"/>
<path d="M399.011 180.614L398.324 176.957H394.881L393.124 180.614H390.55L396.697 168.07H399.17L401.547 180.614H399.011ZM398.019 174.866L397.491 172.064C397.459 171.896 397.431 171.732 397.405 171.57C397.316 171.772 397.227 171.967 397.139 172.157L395.815 174.866L398.019 174.866Z" fill="#55BB78"/>
<path d="M407.454 180.787C405.64 180.787 404.174 180.198 403.216 179.084C402.231 177.94 401.866 176.312 402.158 174.377C402.444 172.484 403.308 170.861 404.657 169.682C406.006 168.503 407.712 167.88 409.591 167.88C411.292 167.88 412.187 168.284 412.493 168.458L412.856 168.664L411.94 170.716L411.507 170.489C411.2 170.328 410.525 170.058 409.453 170.058C406.866 170.058 405.073 171.705 404.657 174.462C404.455 175.799 404.674 176.884 405.291 177.6C405.858 178.26 406.779 178.609 407.954 178.609C408.788 178.609 409.68 178.44 410.281 178.167L410.858 177.905L411.093 180.053L410.795 180.192C410.178 180.479 408.976 180.787 407.454 180.787Z" fill="#55BB78"/>
<path d="M414.57 180.614L416.133 170.265H412.605L412.937 168.07H422.452L422.121 170.265H418.576L417.013 180.614H414.57Z" fill="#55BB78"/>
<path d="M348.014 299.725C346.847 307.451 339.652 313.714 331.944 313.714C324.235 313.714 318.932 307.451 320.099 299.725C321.266 291.999 328.46 285.736 336.169 285.736C343.877 285.736 349.18 291.999 348.014 299.725Z" fill="#00C0C4"/>
<path d="M332.05 313.014C324.739 313.014 319.692 307.052 320.798 299.725C321.904 292.397 328.752 286.436 336.063 286.436C343.374 286.436 348.421 292.397 347.315 299.725C346.208 307.052 339.36 313.014 332.05 313.014Z" fill="#F6F6F6"/>
<path d="M332.156 312.313C325.23 312.313 320.449 306.666 321.497 299.725C322.545 292.784 329.032 287.137 335.958 287.137C342.883 287.137 347.664 292.784 346.616 299.725C345.568 306.666 339.081 312.313 332.156 312.313Z" fill="#00C0C4"/>
<path d="M332.261 311.613C325.721 311.613 321.206 306.28 322.196 299.725C323.186 293.17 329.312 287.837 335.852 287.837C342.392 287.837 346.907 293.17 345.917 299.725C344.927 306.28 338.801 311.613 332.261 311.613Z" fill="#F6F6F6"/>
<path d="M332.78 308.18C328.128 308.18 324.916 304.387 325.62 299.725C326.324 295.062 330.682 291.269 335.333 291.269C339.985 291.269 343.197 295.062 342.493 299.725C341.789 304.387 337.432 308.18 332.78 308.18Z" fill="#00C0C4"/>
<path d="M375.845 297.399C375.728 297.399 375.611 297.389 375.494 297.367C374.872 297.251 374.233 296.724 373.865 296.023C373.516 295.358 373.45 294.636 373.679 293.991C374.26 292.354 375.435 291.145 376.672 290.91C377.535 290.746 378.266 291.111 378.676 291.912C378.734 292.025 378.681 292.177 378.557 292.252C378.433 292.327 378.286 292.296 378.228 292.184C377.901 291.546 377.356 291.265 376.693 291.391C375.844 291.552 374.726 292.449 374.144 294.089C373.961 294.604 374.021 295.194 374.312 295.749C374.625 296.345 375.151 296.791 375.653 296.884C376.982 297.131 378.389 295.401 378.964 294.252C379.022 294.135 379.154 294.067 379.27 294.093C379.387 294.119 379.452 294.231 379.423 294.354C379.25 295.075 379.412 295.811 379.846 296.33C380.092 296.002 380.211 295.526 380.295 295.191L380.314 295.112C380.343 294.999 380.444 294.909 380.559 294.894C380.674 294.88 380.772 294.944 380.796 295.051C380.843 295.263 380.922 295.392 381.03 295.434C381.258 295.522 381.706 295.292 382.14 295.069C382.694 294.785 383.323 294.462 383.836 294.622C383.985 294.668 384.114 294.753 384.223 294.874C384.259 294.808 384.297 294.742 384.334 294.677C384.452 294.471 384.574 294.258 384.627 294.091C384.66 293.99 384.75 293.91 384.854 293.891C384.957 293.873 385.052 293.918 385.091 294.007C385.279 294.428 385.393 294.47 385.414 294.474C385.452 294.482 385.564 294.404 385.653 294.341C385.872 294.189 386.203 293.959 386.644 294.031C387.524 294.175 387.88 294.975 388.224 295.749C388.329 295.986 388.43 296.214 388.543 296.416C390.037 294.915 391.373 293.794 393.253 293.794C393.264 293.794 393.275 293.794 393.286 293.795C393.671 293.797 394.058 293.812 394.432 293.826C395.824 293.877 397.14 293.926 398.206 293.393C398.52 293.237 398.828 293.088 399.126 292.943C400.409 292.321 401.621 291.734 402.903 290.742C403.018 290.653 403.171 290.664 403.244 290.766C403.318 290.867 403.284 291.022 403.169 291.112C401.838 292.141 400.598 292.742 399.287 293.378C398.99 293.522 398.684 293.67 398.373 293.825C397.18 294.421 395.801 294.37 394.34 294.316C393.969 294.302 393.586 294.288 393.209 294.285C393.199 294.285 393.189 294.285 393.179 294.285C391.411 294.285 390.182 295.396 388.641 296.964C388.587 297.019 388.513 297.052 388.441 297.052C388.37 297.049 388.305 297.021 388.267 296.966C388.069 296.683 387.915 296.336 387.765 296C387.451 295.292 387.154 294.623 386.494 294.515C386.257 294.477 386.089 294.593 385.894 294.729C385.709 294.858 385.498 295.004 385.251 294.956C385.108 294.928 384.984 294.84 384.864 294.677C384.829 294.74 384.793 294.804 384.756 294.867C384.637 295.076 384.514 295.291 384.472 295.443C384.442 295.549 384.349 295.634 384.241 295.653C384.133 295.672 384.036 295.621 384 295.526C383.909 295.284 383.787 295.142 383.625 295.092C383.301 294.99 382.799 295.248 382.313 295.498C381.774 295.775 381.218 296.061 380.792 295.894C380.729 295.87 380.671 295.836 380.619 295.794C380.493 296.174 380.3 296.58 379.963 296.864C379.86 296.95 379.72 296.956 379.636 296.877C379.203 296.468 378.94 295.904 378.876 295.292C378.14 296.35 377.018 297.399 375.845 297.399Z" fill="#019935"/>
<path d="M420.337 264.427C420.323 265.104 420.307 265.776 420.291 266.446C420.241 268.484 420.182 270.49 420.115 272.456C419.325 295.433 417.381 312.92 415.487 312.88C413.59 312.839 412.389 295.239 412.58 272.204C412.596 270.297 412.621 268.352 412.656 266.377C412.669 265.677 412.683 264.973 412.698 264.265C413.267 237.461 415.439 215.768 417.548 215.813C419.657 215.858 420.906 237.623 420.337 264.427Z" fill="#55BB78"/>
<path d="M422.779 236.895C423.51 247.352 423.435 255.792 422.635 255.931C421.538 256.122 421.242 254.728 421.223 252.296C421.221 251.911 422.447 251.415 422.456 250.98C422.528 247.467 421.695 242.484 421.311 236.998C420.903 231.16 420.286 225.957 419.961 222.49C419.896 221.792 419.348 223.328 418.806 220.686C418.143 217.455 419.721 218.083 419.988 218.064C420.798 218.007 422.048 226.438 422.779 236.895Z" fill="#34AD5D"/>
<path d="M420.291 266.446C420.241 268.484 420.182 270.49 420.115 272.456C419.04 272.578 417.872 272.633 416.65 272.608C415.19 272.577 413.809 272.433 412.58 272.204C412.596 270.297 412.621 268.352 412.656 266.377C413.906 266.195 415.308 266.108 416.788 266.14C418.028 266.166 419.21 266.273 420.291 266.446Z" fill="#B0DFC0"/>
<path d="M413.359 321.384C414.79 324.09 415.092 330.94 415.133 328.988C415.155 327.95 415.261 322.948 415.348 318.852L415.494 318.855C415.407 322.952 415.301 327.953 415.279 328.991C415.238 330.943 415.829 324.112 417.374 321.469C418.515 319.519 417.013 315.953 416.148 314.219L416.516 311.223L414.539 311.241L414.776 314.406C413.826 316.167 412.345 319.467 413.359 321.384Z" fill="#004016"/>
<path d="M413.383 263.929C412.903 286.54 413.892 304.899 414.3 304.908C414.708 304.917 414.381 286.572 414.861 263.961C415.342 241.35 416.447 223.035 416.039 223.027C415.631 223.018 413.863 241.318 413.383 263.929Z" fill="white"/>
<path d="M279.229 335.271L278.846 301.124L325.356 301.856L327.789 335.336L279.229 335.271Z" fill="#033D3B"/>
<path d="M115.808 336.853V303.51L166.094 302.359L165.405 335.336L115.808 336.853Z" fill="#033D3B"/>
<path d="M180.903 307.594C180.903 307.594 198.769 283.384 207.983 281.875C224.282 279.206 258.455 279.687 265.172 291.023C271.889 302.359 272.118 311.468 272.118 311.468C272.118 311.468 182.992 311.581 182.096 312.936C181.202 314.291 180.903 307.594 180.903 307.594Z" fill="black"/>
<path d="M182.062 312.25C181.84 311.411 181.635 309.495 181.549 307.791C182.335 306.74 186.468 301.271 191.467 295.719C198.717 287.666 204.463 283.096 208.085 282.503C213.271 281.653 220.09 281.166 226.792 281.166C232.948 281.166 241.983 281.563 250.066 283.453C253.695 284.302 256.754 285.373 259.158 286.636C261.736 287.991 263.576 289.576 264.625 291.347C268.043 297.116 269.726 302.283 270.535 305.601C271.138 308.073 271.359 309.915 271.439 310.833C267.532 310.84 247.412 310.882 227.437 311.058C214.432 311.173 204.032 311.321 196.525 311.499C192.063 311.605 188.585 311.723 186.188 311.849C183.638 311.983 182.56 312.106 182.062 312.25Z" fill="white"/>
<path d="M285.631 277.234C279.666 279.621 282.847 294.375 282.847 294.375L305.915 289.372L309.892 281.609V280.018C309.892 280.018 291.597 274.847 285.631 277.234Z" fill="black"/>
<path d="M283.347 293.616C283.125 292.406 282.673 289.605 282.638 286.674C282.597 283.243 283.124 278.922 285.868 277.824C286.836 277.437 288.255 277.24 290.086 277.24C296.791 277.24 306.975 279.887 309.256 280.503V281.456L305.486 288.815L283.347 293.616Z" fill="#55BB78"/>
<path d="M270.66 286.848C270.66 298.948 268.051 308.757 264.834 308.757C261.617 308.757 259.009 298.948 259.009 286.848C259.009 274.748 261.617 269.309 264.834 269.309C268.051 269.309 270.66 274.748 270.66 286.848Z" fill="black"/>
<path d="M264.835 308.121C263.904 308.121 262.495 306.559 261.33 302.176C260.244 298.09 259.645 292.647 259.645 286.848C259.645 281.258 260.222 276.732 261.312 273.76C261.951 272.02 263.081 269.945 264.834 269.945C266.588 269.945 267.718 272.02 268.356 273.76C269.447 276.732 270.024 281.258 270.024 286.848C270.024 292.646 269.425 298.09 268.339 302.176C267.173 306.559 265.765 308.121 264.835 308.121Z" fill="#55BB78"/>
<path d="M361.594 330.527C353.358 331.221 340.598 334.956 329.683 335.311C329.044 335.331 328.414 335.34 327.789 335.336C327.697 326.063 322.838 316.941 315.419 312.137C312.037 309.948 308.123 308.655 303.884 308.655C290.408 308.655 279.458 321.85 279.23 335.271C278.642 335.27 278.056 335.27 277.467 335.269C276.214 335.266 274.957 335.265 273.696 335.262C263.877 335.249 253.797 335.241 243.607 335.24C220.269 335.237 196.353 335.266 173.659 335.318C172.797 335.32 171.939 335.321 171.082 335.324C170.646 335.324 170.211 335.325 169.809 335.327C169.529 335.327 169.251 335.327 168.972 335.327C168.799 335.327 168.643 335.328 168.509 335.328C167.471 335.331 166.438 335.332 165.406 335.336C165.455 334.818 165.321 322.522 158.558 313.98C156.569 311.466 154.004 309.277 150.7 307.81C147.961 306.592 144.714 305.869 140.864 305.869C129.841 305.869 120.508 313.101 117.351 323.08C117.299 323.244 117.249 323.409 117.2 323.574C116.554 325.779 116.226 327.232 116.007 330.527C115.949 331.397 115.718 336.004 115.808 336.853C114.678 336.931 113.594 337.004 112.55 337.072C111.483 337.142 110.459 337.204 109.47 337.263C101.035 337.755 95.3346 337.818 89.521 337.162C84.3676 336.581 79.1228 335.436 71.8039 333.531C71.5265 333.459 71.2471 333.386 70.9656 333.313C68.4183 332.644 67.7581 330.84 68.5953 327.92C69.0785 326.235 70.0599 324.177 71.4668 321.752C71.6865 321.373 71.9181 320.984 72.1588 320.584C73.4842 318.396 76.7961 316.814 80.3656 314.921C80.5287 314.833 80.6927 314.746 80.8588 314.657C81.3599 314.389 81.865 314.112 82.368 313.827C82.3879 313.816 82.4088 313.805 82.4287 313.793C85.3201 312.152 88.1598 310.198 90.0558 307.46C91.2937 305.674 94.5966 303.965 99.2162 302.359C121.33 294.674 173.596 289.372 173.596 289.372C173.697 289.285 173.8 289.198 173.907 289.105C180.013 283.854 194.741 271.476 204.818 265.388C204.949 265.308 205.17 265.209 205.459 265.095C207.99 264.102 215.741 262.041 214.043 263.315C206.542 268.94 197.237 279.798 191.963 286.288H191.962C191.962 286.288 191.959 286.292 191.954 286.298C191.186 287.242 190.503 288.095 189.924 288.824C189.924 288.824 190.07 288.817 190.35 288.806C194.892 288.624 234.837 287.039 262.564 286.779C266.459 286.743 272.131 287.259 277.947 287.06C285.461 286.804 293.216 285.353 297.7 279.974C303.346 273.198 329.359 281.177 343.151 287.096C344.388 287.626 345.524 288.139 346.54 288.624C347.9 289.272 349.237 290.053 350.551 290.925C350.829 291.11 351.106 291.298 351.383 291.492C354.903 293.948 358.24 297.015 361.352 299.924C362.051 300.578 362.74 301.227 363.417 301.856C363.435 301.872 363.451 301.889 363.47 301.906C367.423 305.745 374.037 329.481 361.594 330.527Z" fill="#34AD5D"/>
<path d="M98.6746 337.007C95.3641 337.008 92.478 336.856 89.5922 336.53C84.8443 335.995 79.9018 334.982 71.9639 332.915C71.8212 332.879 71.6794 332.842 71.5372 332.805C71.4001 332.769 71.2625 332.733 71.1245 332.697C70.1756 332.448 69.5482 332.037 69.2094 331.442C68.7848 330.696 68.7838 329.57 69.2064 328.096C69.6565 326.526 70.5757 324.555 72.0167 322.072C72.2074 321.742 72.4191 321.385 72.7036 320.912C73.8088 319.087 76.5106 317.667 79.6389 316.023C79.977 315.845 80.3191 315.665 80.6635 315.483C80.8082 315.405 81.1581 315.219 81.1581 315.219C81.7147 314.921 82.2128 314.646 82.6817 314.381L82.6762 314.384L82.6898 314.376C82.7097 314.365 82.7296 314.354 82.7491 314.343C85.2936 312.898 88.4811 310.851 90.5786 307.822C91.6614 306.26 94.6378 304.624 99.4249 302.96C108.428 299.831 124.114 296.599 144.785 293.614C160.422 291.356 173.53 290.018 173.661 290.005L173.86 289.985L174.012 289.854L174.133 289.75C174.195 289.697 174.259 289.642 174.324 289.586C180.236 284.502 195.079 272.015 205.147 265.932C205.202 265.899 205.344 265.824 205.691 265.688C207.249 265.076 210.426 264.174 212.428 263.764C205.111 269.637 196.442 279.782 191.66 285.652H191.636L191.457 285.9C190.784 286.728 190.101 287.579 189.426 288.429L188.555 289.526L189.955 289.459C189.957 289.459 190.1 289.452 190.375 289.442C197.723 289.148 235.734 287.667 262.57 287.415C262.699 287.414 262.831 287.413 262.964 287.413C264.421 287.413 266.14 287.482 267.961 287.555C270.141 287.643 272.612 287.742 275.13 287.742C276.132 287.742 277.061 287.727 277.969 287.696C287.886 287.357 294.311 285.033 298.188 280.381C299.495 278.813 302.177 278.017 306.158 278.017C310.787 278.017 317.172 279.13 324.622 281.234C330.679 282.945 337.341 285.295 342.9 287.681C344.109 288.199 345.241 288.709 346.266 289.198C347.54 289.806 348.826 290.544 350.199 291.455C350.503 291.657 350.771 291.839 351.018 292.013C354.445 294.404 357.656 297.339 360.917 300.389C361.182 300.637 361.446 300.884 361.707 301.129C362.137 301.532 362.563 301.931 362.984 302.322L362.995 302.333L363.028 302.363C364.213 303.516 366.018 307.226 367.175 312.089C367.75 314.504 368.088 316.914 368.153 319.059C368.228 321.499 367.962 323.586 367.363 325.262C366.349 328.096 364.39 329.654 361.541 329.894C358.07 330.186 353.793 331.015 349.264 331.893C343.034 333.101 335.972 334.47 329.662 334.675C329.224 334.689 328.811 334.697 328.411 334.7C328.11 325.426 323.193 316.414 315.764 311.603C312.143 309.259 308.035 308.019 303.884 308.019C290.848 308.019 279.181 320.385 278.612 334.635C278.518 334.634 277.756 334.634 277.468 334.633C276.822 334.632 276.175 334.631 275.526 334.63C274.917 334.629 274.307 334.628 273.697 334.626C263.396 334.613 253.272 334.605 243.607 334.604L240.299 334.604C218.728 334.604 196.307 334.63 173.658 334.682L172.802 334.684C172.227 334.685 171.653 334.686 171.08 334.688C170.645 334.688 170.209 334.689 169.806 334.691C169.668 334.691 169.11 334.692 168.972 334.692C168.879 334.692 168.791 334.692 168.709 334.693C168.638 334.693 166.446 334.698 166.041 334.699C166.011 333.479 165.84 330.82 165.159 327.539C164.358 323.678 162.649 318.124 159.056 313.586C156.824 310.763 154.099 308.624 150.958 307.229C147.98 305.905 144.584 305.233 140.864 305.233C129.778 305.233 120.085 312.329 116.745 322.889C116.692 323.056 116.641 323.223 116.591 323.391C115.91 325.716 115.59 327.213 115.372 330.485C115.333 331.078 115.147 334.631 115.152 336.261C114.334 336.317 113.478 336.375 112.508 336.438C111.572 336.5 110.595 336.56 109.433 336.629C104.941 336.891 101.623 337.007 98.6746 337.007Z" fill="#8AD0A2"/>
<path d="M173.186 335.317C175.95 326.734 176.196 320.163 176.413 314.501C176.612 309.299 176.784 304.807 178.995 300.276C180.518 297.155 183.819 294.269 186.472 291.95C187.879 290.72 189.116 289.639 189.731 288.828C189.806 288.73 278.446 287.009 278.454 287.042C280.092 294.001 276.584 302.734 268.025 312.999C260.805 321.66 251.294 329.808 244.411 335.24C244.296 335.331 210.739 335.234 189.733 335.227C180.155 335.223 173.186 335.317 173.186 335.317Z" fill="black"/>
<path d="M276.506 298.836C271.056 312.08 254.707 326.53 243.607 335.239C220.27 335.237 196.352 335.266 173.66 335.317C179.045 318.596 174.957 309.684 179.442 300.494C179.713 299.939 180.044 299.391 180.419 298.851C183.364 294.609 189.07 290.884 190.351 288.805C194.892 288.624 234.838 287.039 262.564 286.779C266.46 286.742 272.131 287.259 277.948 287.06C278.84 290.73 278.198 294.726 276.506 298.836Z" fill="black"/>
<path d="M174.527 334.679C177.093 326.364 177.333 320.096 177.545 314.544C177.748 309.262 177.907 305.089 180.014 300.773C180.257 300.274 180.569 299.749 180.941 299.213C182.571 296.866 185.148 294.613 187.218 292.803C188.768 291.447 190.024 290.349 190.697 289.428C198.766 289.106 236.085 287.663 262.57 287.415C262.702 287.414 262.837 287.413 262.973 287.413C264.431 287.413 266.15 287.482 267.97 287.555C270.149 287.643 272.619 287.742 275.135 287.742C275.942 287.742 276.702 287.732 277.441 287.712C278.086 290.913 277.574 294.571 275.918 298.594C273.526 304.408 268.748 311.037 261.719 318.295C256.611 323.569 250.445 329.055 243.388 334.603L240.459 334.603C219.501 334.603 197.322 334.629 174.527 334.679Z" fill="#8AD0A2"/>
<path d="M271.022 295.967C269.63 299.149 267.46 299.745 263.067 299.745C258.674 299.745 255.113 301.235 255.113 299.149C255.113 297.062 259.89 295.219 264.26 294.774C270.331 294.155 271.858 294.055 271.022 295.967Z" fill="black"/>
<path d="M205.46 265.095V267.279L185.209 288.238L173.597 289.373C179.705 284.121 194.741 271.476 204.818 265.387C204.95 265.308 205.17 265.209 205.46 265.095Z" fill="black"/>
<path d="M175.543 288.543C182.221 282.851 195.55 271.8 204.824 266.128V267.022L184.914 287.628L175.543 288.543Z" fill="white"/>
<path d="M362.291 300.804C359.762 302.062 356.93 303.29 353.809 304.48C348.308 306.578 341.9 308.565 334.761 310.386C328.166 312.068 322.147 313.298 318.006 314.074L317.51 313.66C321.649 312.891 327.839 311.638 334.643 309.904C342.94 307.787 353.438 304.611 361.899 300.437L362.291 300.804Z" fill="black"/>
<path d="M92.9952 314.074C87.1637 317.877 84.0039 315.904 82.4289 313.793C85.3192 312.151 88.1599 310.199 90.0561 307.46C91.2929 305.674 94.597 303.964 99.2164 302.359C99.5247 305.534 98.7769 310.303 92.9952 314.074Z" fill="black"/>
<path d="M87.0707 315.591C85.6355 315.591 84.4036 315.046 83.3999 313.967C85.8204 312.547 88.6591 310.595 90.579 307.823C91.5999 306.348 94.3082 304.808 98.6348 303.24C98.7186 306.28 97.638 310.287 92.648 313.541C90.5617 314.901 88.6853 315.591 87.0707 315.591Z" fill="#BEE0E1"/>
<path d="M367.504 310.797C358.597 310.152 351.383 307.256 351.383 307.256L363.416 301.856H363.417C363.435 301.872 363.452 301.889 363.47 301.906C363.471 301.907 363.472 301.909 363.474 301.91C364.79 303.192 366.401 306.678 367.504 310.797Z" fill="black"/>
<path d="M366.646 310.089C360.647 309.545 355.493 308.009 353.08 307.192L363.268 302.62C364.384 303.912 365.679 306.78 366.646 310.089Z" fill="#BEE0E1"/>
<path opacity="0.1" d="M291.656 307.458C288.802 309.232 286.715 310.81 284.907 312.451C279.35 317.491 277.32 326.878 277.467 335.268C276.215 335.266 274.957 335.264 273.695 335.262C263.877 335.249 253.797 335.241 243.607 335.239C220.269 335.237 196.352 335.266 173.659 335.317C173.076 335.319 172.078 335.321 171.081 335.323C170.646 335.323 170.21 335.324 169.809 335.326C169.645 335.326 169.482 335.326 169.319 335.327C169.198 335.327 169.081 335.327 168.971 335.327C168.798 335.327 168.643 335.328 168.509 335.328C168.509 335.328 169.172 309.293 152.468 303.701C146.137 301.581 161.653 299.938 180.419 298.851C197.706 297.849 217.749 297.318 226.004 297.318C246.925 297.318 241.357 296.144 274.705 298.7C275.187 298.736 275.794 298.782 276.506 298.836C282.277 299.274 294.833 300.29 301.145 302.11C304.39 303.045 297.675 303.717 291.656 307.458Z" fill="black"/>
<path opacity="0.1" d="M116.376 314.34C113.073 319.214 111.857 328.713 112.55 337.072C111.483 337.142 110.458 337.205 109.471 337.263C101.035 337.756 95.3348 337.818 89.5203 337.162C84.1153 336.462 78.5613 335.283 71.8041 333.531C71.5267 333.46 71.2473 333.386 70.966 333.313C68.4186 332.644 67.7584 330.84 68.5956 327.92C69.0787 326.234 70.0602 324.177 71.467 321.752C71.6868 321.372 71.9185 320.984 72.1591 320.585C73.4835 318.396 76.7964 316.814 80.365 314.92C80.5289 314.833 80.6931 314.745 80.8581 314.657C81.3603 314.389 81.8643 314.112 82.3684 313.827C87.6651 319.782 91.1689 320.604 95.2971 320.604C99.2752 320.604 101.588 318.426 105.524 316.187C113.966 311.385 117.666 308.413 122.229 307.067C124.532 306.387 118.924 310.579 116.376 314.34Z" fill="black"/>
<path opacity="0.1" d="M361.594 330.527C353.357 331.221 340.598 334.956 329.683 335.311C329.661 332.772 329.463 328.482 328.536 324.062C327.142 317.411 324.786 312.716 321.429 309.933C317.5 306.674 313.276 305.148 309.891 303.701C303.83 301.108 326.336 303.894 336.41 300.917C342.243 299.194 344.363 297.55 346.949 295.151C348.137 294.049 349.394 292.507 350.55 290.925C350.829 291.11 351.106 291.298 351.383 291.492C354.902 293.948 358.24 297.015 361.351 299.924C362.051 300.578 362.738 301.226 363.416 301.856H363.416C363.434 301.872 363.451 301.889 363.469 301.906C363.47 301.907 363.472 301.909 363.473 301.91C364.79 303.192 366.4 306.678 367.504 310.797C369.714 319.045 369.89 329.83 361.594 330.527Z" fill="black"/>
<path d="M140.795 308.695C128.72 308.695 118.932 318.483 118.932 330.558C118.932 342.633 128.72 352.421 140.795 352.421C152.87 352.421 162.658 342.633 162.658 330.558C162.658 318.483 152.869 308.695 140.795 308.695ZM153.831 330.558C153.831 332.322 153.488 334.028 152.81 335.63C152.382 336.642 151.833 337.588 151.17 338.456C151.17 338.456 149.299 334.03 149.651 332.545C149.996 331.087 153.587 328.025 153.587 328.025C153.75 328.852 153.831 329.698 153.831 330.558ZM140.795 343.594C139.259 343.594 137.766 343.334 136.348 342.819C136.348 342.819 139.994 339.659 141.521 339.534C143.05 339.408 147.167 341.936 147.167 341.936C146.747 342.172 146.313 342.384 145.867 342.573C144.265 343.251 142.558 343.594 140.795 343.594ZM127.765 330.16C127.765 330.16 131.788 332.586 132.363 333.962C132.95 335.365 131.828 340.021 131.828 340.021C131.743 339.941 131.659 339.859 131.577 339.776C130.376 338.576 129.435 337.181 128.779 335.63C128.102 334.028 127.758 332.322 127.758 330.558C127.759 330.425 127.76 330.292 127.765 330.16ZM136.987 318.084C136.987 318.084 135.943 322.576 134.832 323.531C133.711 324.495 129.066 324.857 129.066 324.857C129.699 323.556 130.541 322.375 131.576 321.34C132.777 320.14 134.172 319.199 135.723 318.543C136.138 318.367 136.559 318.214 136.987 318.084ZM142.504 317.631C143.662 317.781 144.788 318.086 145.866 318.542C147.418 319.198 148.813 320.14 150.013 321.34C150.539 321.866 151.015 322.429 151.439 323.026C151.439 323.026 146.784 323.426 145.516 322.655C144.265 321.894 142.504 317.631 142.504 317.631Z" fill="black"/>
<path d="M140.795 351.785C135.125 351.785 129.794 349.577 125.785 345.568C121.776 341.559 119.568 336.228 119.568 330.558C119.568 324.888 121.776 319.557 125.785 315.548C129.794 311.539 135.125 309.331 140.795 309.331C146.465 309.331 151.796 311.539 155.805 315.548C159.814 319.557 162.022 324.888 162.022 330.558C162.022 336.228 159.814 341.558 155.805 345.568C151.796 349.577 146.465 351.785 140.795 351.785ZM141.637 338.893C141.58 338.893 141.523 338.895 141.47 338.9C139.819 339.035 136.567 341.788 135.932 342.338L135.114 343.047L136.131 343.416C137.617 343.956 139.186 344.23 140.795 344.23C142.644 344.23 144.434 343.87 146.114 343.159C146.58 342.962 147.039 342.737 147.478 342.491L148.423 341.961L147.5 341.394C147.083 341.138 143.376 338.893 141.637 338.893ZM127.129 330.138C127.125 330.266 127.123 330.403 127.123 330.558C127.123 332.408 127.483 334.197 128.194 335.877C128.882 337.505 129.869 338.968 131.127 340.226C131.217 340.316 131.306 340.402 131.391 340.483L132.189 341.239L132.447 340.17C132.642 339.359 133.585 335.235 132.951 333.717C132.327 332.224 128.795 330.038 128.093 329.615L127.166 329.056L127.129 330.138ZM153.175 327.541C152.549 328.075 149.406 330.818 149.032 332.399C148.652 334.005 150.258 337.932 150.584 338.704L151.011 339.712L151.676 338.842C152.37 337.933 152.949 336.935 153.396 335.877C154.107 334.197 154.467 332.407 154.467 330.558C154.467 329.658 154.381 328.764 154.211 327.902L154.001 326.836L153.175 327.541ZM136.802 317.475C136.356 317.611 135.91 317.773 135.476 317.957C133.85 318.644 132.387 319.631 131.127 320.89C130.043 321.974 129.157 323.215 128.494 324.579L128.009 325.577L129.115 325.491C129.926 325.428 134.029 325.06 135.247 324.013C136.454 322.975 137.425 319.012 137.607 318.228L137.856 317.155L136.802 317.475ZM141.916 317.874C142.224 318.618 143.826 322.371 145.186 323.198C145.814 323.58 147.021 323.766 148.879 323.766C150.243 323.766 151.443 323.664 151.494 323.659L152.602 323.564L151.957 322.657C151.514 322.033 151.011 321.438 150.463 320.89C149.204 319.631 147.741 318.644 146.114 317.957C144.986 317.479 143.799 317.158 142.585 317.001L141.497 316.86L141.916 317.874Z" fill="#026060"/>
<path d="M155.423 325.917C155.281 325.468 155.118 325.025 154.933 324.589C154.732 324.114 154.509 323.652 154.263 323.203C153.565 321.925 152.687 320.754 151.643 319.711C150.232 318.3 148.59 317.192 146.765 316.42C144.957 315.655 143.038 315.252 141.057 315.22C140.97 315.218 140.883 315.217 140.795 315.217C139.856 315.217 138.93 315.3 138.023 315.465C136.927 315.664 135.858 315.983 134.826 316.42C133 317.192 131.358 318.3 129.948 319.711C128.537 321.121 127.43 322.763 126.657 324.589C126.531 324.886 126.415 325.188 126.309 325.491C125.98 326.428 125.746 327.392 125.607 328.376C125.506 329.094 125.454 329.821 125.454 330.558C125.454 332.632 125.859 334.64 126.657 336.528C127.43 338.354 128.537 339.995 129.948 341.406C130.463 341.92 131.007 342.394 131.581 342.826C132.337 343.397 133.144 343.893 133.994 344.315C134.267 344.45 134.544 344.577 134.826 344.696C136.713 345.494 138.721 345.899 140.795 345.899C142.869 345.899 144.877 345.494 146.764 344.696C147.819 344.25 148.812 343.692 149.735 343.028C150.41 342.544 151.047 342.002 151.643 341.406C151.72 341.329 151.795 341.252 151.869 341.174C153.173 339.816 154.203 338.254 154.933 336.528C155.732 334.641 156.136 332.632 156.136 330.558C156.136 328.964 155.897 327.408 155.423 325.917ZM145.867 318.543C147.418 319.199 148.813 320.14 150.013 321.34C150.539 321.866 151.015 322.429 151.439 323.026C151.439 323.026 151.439 323.026 151.438 323.026C151.345 323.039 146.641 323.679 145.386 322.916C144.135 322.155 142.504 317.632 142.504 317.632C143.663 317.782 144.788 318.087 145.867 318.543ZM131.577 321.34C132.777 320.14 134.172 319.199 135.724 318.542C136.138 318.367 136.56 318.214 136.987 318.084C136.987 318.084 136.03 322.793 134.919 323.748C133.797 324.712 129.066 324.857 129.066 324.857C129.699 323.556 130.541 322.375 131.577 321.34ZM131.829 340.021C131.744 339.941 131.66 339.859 131.577 339.776C130.377 338.576 129.436 337.181 128.78 335.63C128.102 334.028 127.759 332.322 127.759 330.558C127.759 330.425 127.76 330.292 127.765 330.16C127.765 330.16 132.093 332.586 132.668 333.962C133.25 335.356 131.847 339.961 131.829 340.021C131.829 340.021 131.829 340.021 131.829 340.021ZM145.867 342.574C144.265 343.251 142.559 343.594 140.795 343.594C139.259 343.594 137.766 343.334 136.348 342.819C136.348 342.819 139.995 339.311 141.522 339.186C143.05 339.061 147.167 341.936 147.167 341.936C146.747 342.172 146.314 342.384 145.867 342.574ZM152.811 335.63C152.382 336.642 151.833 337.588 151.17 338.456C151.17 338.456 151.154 338.425 151.127 338.366C150.821 337.73 149.025 333.905 149.347 332.546C149.692 331.087 153.587 328.025 153.587 328.025C153.75 328.852 153.832 329.698 153.832 330.558C153.832 332.322 153.488 334.028 152.811 335.63Z" fill="black"/>
<path d="M140.795 345.263C138.807 345.263 136.882 344.875 135.073 344.111C134.806 343.997 134.537 343.874 134.275 343.745C133.462 343.342 132.684 342.862 131.963 342.318C131.416 341.907 130.889 341.448 130.397 340.956C129.044 339.603 127.983 338.03 127.242 336.28C126.478 334.471 126.09 332.546 126.09 330.558C126.09 329.856 126.139 329.152 126.237 328.466C126.369 327.526 126.595 326.596 126.909 325.701C127.01 325.41 127.123 325.119 127.242 324.836C127.983 323.086 129.044 321.513 130.397 320.16C131.75 318.807 133.323 317.746 135.073 317.006C136.058 316.589 137.088 316.281 138.137 316.091C139.004 315.933 139.899 315.853 140.795 315.853C140.878 315.853 140.961 315.854 141.043 315.856C142.945 315.886 144.785 316.273 146.517 317.006C148.266 317.746 149.84 318.807 151.193 320.16C152.191 321.159 153.036 322.285 153.705 323.508C153.938 323.933 154.154 324.38 154.347 324.836C154.523 325.252 154.681 325.68 154.817 326.109C155.27 327.536 155.5 329.033 155.5 330.558C155.5 332.547 155.112 334.472 154.347 336.28C153.647 337.935 152.659 339.434 151.41 340.734C151.345 340.802 151.277 340.872 151.193 340.956C150.623 341.526 150.008 342.049 149.363 342.512C148.48 343.148 147.522 343.685 146.516 344.111C144.707 344.875 142.782 345.263 140.795 345.263ZM141.622 338.546C141.57 338.546 141.519 338.548 141.47 338.552C139.802 338.689 136.544 341.748 135.907 342.36L135.172 343.068L136.131 343.416C137.617 343.957 139.186 344.231 140.795 344.231C142.645 344.231 144.434 343.87 146.114 343.159C146.58 342.962 147.039 342.737 147.478 342.491L148.362 341.995L147.531 341.415C147.111 341.121 143.373 338.546 141.622 338.546ZM127.129 330.139C127.125 330.271 127.122 330.412 127.122 330.558C127.122 332.408 127.483 334.197 128.194 335.877C128.882 337.506 129.869 338.969 131.127 340.226C131.213 340.312 131.301 340.398 131.391 340.483L131.858 340.925L132.395 340.345L132.438 340.203C132.786 339.051 133.869 335.188 133.255 333.717C132.627 332.214 128.83 330.028 128.075 329.605L127.163 329.093L127.129 330.139ZM153.194 327.525C152.514 328.059 149.105 330.805 148.727 332.399C148.378 333.876 149.888 337.256 150.553 338.641C150.583 338.704 150.601 338.739 150.601 338.739L151.056 339.652L151.675 338.842C152.369 337.933 152.948 336.936 153.396 335.877C154.107 334.197 154.467 332.407 154.467 330.558C154.467 329.658 154.381 328.764 154.211 327.902L154.01 326.883L153.194 327.525ZM136.802 317.475C136.354 317.612 135.908 317.774 135.476 317.957C133.849 318.645 132.386 319.632 131.127 320.89C130.043 321.975 129.157 323.216 128.494 324.579L128.034 325.525L129.085 325.492C129.913 325.467 134.104 325.287 135.334 324.23C136.548 323.186 137.443 319.033 137.61 318.21L137.823 317.164L136.802 317.475ZM141.905 317.847C142.19 318.638 143.682 322.624 145.055 323.459C145.579 323.777 146.452 323.926 147.804 323.926C149.404 323.926 151.138 323.707 151.48 323.662H151.714L151.903 323.46L152.259 323.081L151.957 322.657C151.513 322.032 151.01 321.438 150.462 320.89C149.204 319.632 147.741 318.645 146.114 317.957C144.985 317.479 143.798 317.158 142.585 317.001L141.552 316.867L141.905 317.847Z" fill="#BEE0E1"/>
<path d="M144.382 330.558C144.382 332.539 142.776 334.145 140.795 334.145C138.814 334.145 137.208 332.539 137.208 330.558C137.208 328.577 138.814 326.971 140.795 326.971C142.776 326.971 144.382 328.577 144.382 330.558Z" fill="white"/>
<path d="M140.795 332.884C139.512 332.884 138.469 331.84 138.469 330.558C138.469 329.275 139.513 328.232 140.795 328.232C142.078 328.232 143.121 329.275 143.121 330.558C143.121 331.841 142.078 332.884 140.795 332.884Z" fill="#033D3B"/>
<path d="M141.465 325.502C141.465 326.15 140.939 326.676 140.291 326.676C139.643 326.676 139.117 326.15 139.117 325.502C139.117 324.853 139.643 324.328 140.291 324.328C140.939 324.328 141.465 324.853 141.465 325.502Z" fill="#2C2B2C"/>
<path d="M146.704 328.232C146.704 328.88 146.179 329.406 145.53 329.406C144.882 329.406 144.357 328.88 144.357 328.232C144.357 327.583 144.882 327.058 145.53 327.058C146.179 327.058 146.704 327.583 146.704 328.232Z" fill="#2C2B2C"/>
<path d="M145.226 334.589C145.226 335.237 144.7 335.763 144.052 335.763C143.404 335.763 142.878 335.237 142.878 334.589C142.878 333.94 143.404 333.415 144.052 333.415C144.7 333.415 145.226 333.94 145.226 334.589Z" fill="#2C2B2C"/>
<path d="M138.991 334.893C138.991 335.541 138.465 336.067 137.817 336.067C137.168 336.067 136.643 335.541 136.643 334.893C136.643 334.245 137.168 333.719 137.817 333.719C138.465 333.719 138.991 334.245 138.991 334.893Z" fill="#2C2B2C"/>
<path d="M136.904 329.406C136.904 330.054 136.378 330.58 135.73 330.58C135.082 330.58 134.556 330.054 134.556 329.406C134.556 328.757 135.082 328.232 135.73 328.232C136.378 328.232 136.904 328.757 136.904 329.406Z" fill="#2C2B2C"/>
<path opacity="0.3" d="M147.167 341.936C147.167 341.936 143.05 339.061 141.522 339.186C139.995 339.311 136.348 342.819 136.348 342.819C136.348 342.819 140.03 334.35 143.291 337.415C146.552 340.48 147.167 341.936 147.167 341.936Z" fill="black"/>
<path opacity="0.5" d="M151.127 338.366L151.117 338.405C151.117 338.405 144.135 332.361 148.034 330.164C151.934 327.968 153.587 328.025 153.587 328.025C153.587 328.025 149.692 331.087 149.347 332.546C149.025 333.905 150.821 337.73 151.127 338.366Z" fill="black"/>
<path opacity="0.5" d="M151.438 323.026C151.322 323.096 143.625 327.672 142.788 323.31C141.944 318.914 142.504 317.632 142.504 317.632C142.504 317.632 144.135 322.155 145.386 322.916C146.641 323.679 151.345 323.039 151.438 323.026Z" fill="black"/>
<path opacity="0.2" d="M134.636 326.203C130.19 325.685 129.066 324.857 129.066 324.857C129.066 324.857 133.798 324.712 134.919 323.748C136.03 322.793 136.987 318.084 136.987 318.084C136.987 318.084 139.08 326.722 134.636 326.203Z" fill="black"/>
<path opacity="0.2" d="M134.956 335.013C133.092 339.043 131.848 340.006 131.829 340.021C131.847 339.961 133.251 335.356 132.668 333.962C132.093 332.586 127.765 330.16 127.765 330.16C127.765 330.16 136.837 330.952 134.956 335.013Z" fill="black"/>
<path d="M303.492 306.162C291.418 306.162 281.629 315.95 281.629 328.025C281.629 340.099 291.418 349.888 303.492 349.888C315.567 349.888 325.356 340.099 325.356 328.025C325.356 315.95 315.567 306.162 303.492 306.162ZM316.529 328.025C316.529 329.789 316.185 331.495 315.508 333.096C315.08 334.109 314.53 335.054 313.867 335.923C313.867 335.923 311.997 331.497 312.348 330.012C312.693 328.554 316.285 325.492 316.285 325.492C316.448 326.319 316.529 327.165 316.529 328.025ZM303.492 341.061C301.956 341.061 300.463 340.801 299.046 340.286C299.046 340.286 302.692 337.126 304.219 337C305.748 336.875 309.865 339.403 309.865 339.403C309.445 339.638 309.011 339.851 308.564 340.04C306.963 340.718 305.256 341.061 303.492 341.061ZM290.462 327.626C290.462 327.626 294.486 330.052 295.061 331.429C295.647 332.832 294.526 337.488 294.526 337.488C294.441 337.408 294.357 337.326 294.274 337.243C293.074 336.043 292.133 334.648 291.477 333.096C290.799 331.495 290.456 329.789 290.456 328.025C290.456 327.892 290.458 327.759 290.462 327.626ZM299.685 315.551C299.685 315.551 298.64 320.043 297.53 320.997C296.408 321.962 291.763 322.323 291.763 322.323C292.396 321.023 293.239 319.842 294.274 318.807C295.475 317.607 296.869 316.665 298.421 316.009C298.835 315.834 299.257 315.681 299.685 315.551ZM305.201 315.098C306.36 315.248 307.486 315.553 308.564 316.009C310.115 316.665 311.51 317.607 312.71 318.807C313.236 319.333 313.712 319.896 314.136 320.493C314.136 320.493 309.481 320.893 308.214 320.122C306.963 319.361 305.201 315.098 305.201 315.098Z" fill="black"/>
<path d="M323.237 319.684C322.157 317.132 320.613 314.841 318.644 312.873C316.676 310.905 314.385 309.36 311.833 308.281C309.191 307.163 306.385 306.597 303.492 306.597C300.599 306.597 297.793 307.163 295.151 308.281C292.6 309.36 290.308 310.905 288.34 312.873C286.372 314.841 284.827 317.132 283.748 319.684C282.631 322.326 282.064 325.132 282.064 328.025C282.064 330.918 282.631 333.724 283.748 336.366C284.827 338.917 286.372 341.209 288.34 343.177C290.308 345.145 292.6 346.69 295.151 347.769C297.793 348.886 300.599 349.453 303.492 349.453C306.385 349.453 309.191 348.887 311.833 347.769C314.385 346.69 316.676 345.145 318.644 343.177C320.613 341.209 322.157 338.917 323.237 336.366C324.354 333.724 324.92 330.918 324.92 328.025C324.92 325.132 324.354 322.326 323.237 319.684ZM316.529 328.025C316.529 329.789 316.185 331.495 315.508 333.096C315.08 334.109 314.53 335.054 313.867 335.923C313.867 335.923 311.997 331.497 312.348 330.012C312.693 328.554 316.285 325.492 316.285 325.492C316.447 326.319 316.529 327.165 316.529 328.025ZM303.492 341.061C301.956 341.061 300.463 340.801 299.046 340.286C299.046 340.286 302.692 337.126 304.219 337C305.748 336.875 309.865 339.403 309.865 339.403C309.445 339.638 309.011 339.851 308.564 340.04C306.963 340.718 305.256 341.061 303.492 341.061ZM291.477 333.096C290.799 331.495 290.456 329.789 290.456 328.025C290.456 327.892 290.457 327.759 290.462 327.626C290.462 327.626 294.485 330.052 295.061 331.429C295.647 332.832 294.526 337.488 294.526 337.488C294.441 337.408 294.357 337.326 294.274 337.243C293.074 336.043 292.133 334.648 291.477 333.096ZM308.564 316.009C310.115 316.665 311.51 317.607 312.71 318.807C313.236 319.333 313.712 319.896 314.136 320.493C314.136 320.493 309.481 320.893 308.214 320.122C306.963 319.361 305.201 315.098 305.201 315.098C306.36 315.248 307.485 315.553 308.564 316.009ZM299.685 315.551C299.685 315.551 298.64 320.043 297.53 320.997C296.408 321.962 291.763 322.323 291.763 322.323C292.396 321.023 293.239 319.842 294.274 318.807C295.475 317.607 296.869 316.665 298.421 316.009C298.835 315.834 299.257 315.681 299.685 315.551Z" fill="#026060"/>
<path d="M318.12 323.383C317.978 322.935 317.815 322.492 317.63 322.055C317.429 321.581 317.206 321.118 316.96 320.67C316.262 319.392 315.384 318.221 314.34 317.177C312.929 315.766 311.287 314.659 309.462 313.887C307.654 313.122 305.735 312.719 303.754 312.686C303.667 312.685 303.58 312.684 303.492 312.684C302.553 312.684 301.627 312.767 300.72 312.932C299.624 313.131 298.555 313.45 297.523 313.887C295.697 314.659 294.055 315.766 292.645 317.177C291.234 318.588 290.126 320.229 289.354 322.055C289.228 322.353 289.112 322.654 289.006 322.958C288.677 323.895 288.443 324.859 288.304 325.843C288.202 326.56 288.151 327.288 288.151 328.025C288.151 330.099 288.556 332.107 289.354 333.994C290.126 335.82 291.234 337.461 292.645 338.872C293.16 339.387 293.704 339.861 294.278 340.293C295.034 340.863 295.84 341.36 296.69 341.781C296.964 341.916 297.241 342.044 297.523 342.163C299.41 342.961 301.418 343.366 303.492 343.366C305.566 343.366 307.574 342.961 309.461 342.163C310.516 341.717 311.509 341.159 312.432 340.495C313.107 340.01 313.744 339.468 314.34 338.872C314.416 338.796 314.492 338.719 314.566 338.641C315.87 337.283 316.899 335.721 317.63 333.994C318.428 332.107 318.833 330.099 318.833 328.025C318.833 326.43 318.594 324.875 318.12 323.383ZM308.564 316.009C310.115 316.666 311.51 317.607 312.71 318.807C313.236 319.333 313.712 319.896 314.136 320.493C314.136 320.493 314.136 320.493 314.135 320.493C314.042 320.506 309.338 321.146 308.083 320.383C306.832 319.622 305.201 315.099 305.201 315.099C306.36 315.248 307.485 315.553 308.564 316.009ZM294.274 318.807C295.474 317.607 296.869 316.666 298.42 316.009C298.835 315.834 299.257 315.681 299.684 315.551C299.684 315.551 298.727 320.26 297.616 321.215C296.495 322.179 291.763 322.324 291.763 322.324C292.396 321.023 293.238 319.842 294.274 318.807ZM294.526 337.488C294.441 337.408 294.357 337.326 294.274 337.243C293.074 336.043 292.133 334.648 291.477 333.096C290.799 331.495 290.456 329.789 290.456 328.025C290.456 327.892 290.457 327.759 290.462 327.627C290.462 327.627 294.79 330.053 295.365 331.429C295.948 332.823 294.544 337.428 294.526 337.488C294.526 337.488 294.526 337.488 294.526 337.488ZM308.564 340.041C306.962 340.718 305.256 341.061 303.492 341.061C301.956 341.061 300.463 340.801 299.045 340.286C299.045 340.286 302.692 336.778 304.219 336.653C305.747 336.528 309.864 339.403 309.864 339.403C309.444 339.639 309.011 339.851 308.564 340.041ZM315.508 333.096C315.079 334.109 314.53 335.055 313.867 335.923C313.867 335.923 313.852 335.891 313.824 335.833C313.518 335.197 311.722 331.372 312.044 330.012C312.389 328.554 316.284 325.492 316.284 325.492C316.447 326.319 316.529 327.165 316.529 328.025C316.529 329.789 316.185 331.495 315.508 333.096Z" fill="black"/>
<path d="M303.492 342.73C301.504 342.73 299.579 342.342 297.77 341.577C297.503 341.464 297.234 341.341 296.973 341.212C296.16 340.809 295.382 340.329 294.661 339.785C294.114 339.374 293.587 338.915 293.094 338.423C291.741 337.07 290.68 335.497 289.94 333.747C289.175 331.938 288.787 330.013 288.787 328.025C288.787 327.323 288.837 326.619 288.934 325.933C289.066 324.993 289.292 324.063 289.606 323.169C289.707 322.878 289.819 322.588 289.94 322.303C290.68 320.553 291.742 318.98 293.094 317.627C294.447 316.275 296.02 315.213 297.77 314.473C298.756 314.056 299.787 313.748 300.834 313.558C301.701 313.4 302.596 313.32 303.492 313.32C303.575 313.32 303.659 313.321 303.742 313.323C305.642 313.353 307.483 313.74 309.214 314.473C310.964 315.213 312.538 316.275 313.89 317.627C314.889 318.626 315.734 319.752 316.402 320.975C316.636 321.401 316.852 321.848 317.044 322.303C317.221 322.72 317.379 323.148 317.514 323.576C317.967 325.003 318.197 326.5 318.197 328.025C318.197 330.014 317.809 331.939 317.044 333.747C316.344 335.402 315.356 336.901 314.107 338.201C314.034 338.278 313.963 338.351 313.89 338.423C313.321 338.993 312.705 339.516 312.061 339.979C311.177 340.615 310.219 341.152 309.214 341.578C307.405 342.342 305.48 342.73 303.492 342.73ZM304.32 336.013C304.268 336.013 304.216 336.015 304.167 336.019C302.499 336.155 299.241 339.215 298.605 339.827L297.869 340.535L298.828 340.883C300.314 341.423 301.883 341.697 303.492 341.697C305.342 341.697 307.132 341.337 308.811 340.626C309.278 340.429 309.737 340.204 310.175 339.958L311.059 339.462L310.228 338.882C309.808 338.588 306.07 336.013 304.32 336.013ZM289.826 327.606C289.822 327.74 289.82 327.877 289.82 328.025C289.82 329.874 290.18 331.664 290.891 333.344C291.58 334.973 292.567 336.436 293.825 337.693C293.909 337.777 293.998 337.864 294.089 337.95L294.541 338.378L295.089 337.822L295.135 337.67C295.483 336.518 296.567 332.656 295.952 331.184C295.324 329.681 291.527 327.495 290.773 327.072L289.859 326.56L289.826 327.606ZM315.891 324.992C315.212 325.526 311.802 328.272 311.425 329.866C311.075 331.342 312.585 334.723 313.251 336.108C313.28 336.171 313.298 336.206 313.298 336.206L313.753 337.119L314.373 336.309C315.066 335.401 315.645 334.403 316.093 333.344C316.804 331.664 317.165 329.875 317.165 328.025C317.165 327.125 317.078 326.231 316.908 325.369L316.708 324.35L315.891 324.992ZM299.499 314.942C299.051 315.079 298.605 315.241 298.173 315.424C296.546 316.112 295.083 317.099 293.824 318.357C292.74 319.442 291.854 320.683 291.191 322.046L290.731 322.992L291.783 322.959C292.61 322.934 296.801 322.754 298.031 321.697C299.245 320.653 300.141 316.499 300.308 315.677L300.52 314.631L299.499 314.942ZM304.603 315.314C304.888 316.105 306.38 320.09 307.753 320.926C308.276 321.244 309.149 321.392 310.502 321.392C312.106 321.392 313.834 321.175 314.178 321.129H314.397L314.584 320.945L314.968 320.565L314.655 320.124C314.21 319.499 313.707 318.904 313.16 318.357C311.902 317.099 310.439 316.112 308.812 315.424C307.683 314.947 306.496 314.625 305.283 314.468L304.249 314.334L304.603 315.314Z" fill="#BEE0E1"/>
<path d="M307.079 328.025C307.079 330.006 305.473 331.612 303.492 331.612C301.511 331.612 299.905 330.006 299.905 328.025C299.905 326.044 301.511 324.438 303.492 324.438C305.473 324.438 307.079 326.044 307.079 328.025Z" fill="#E1E3E1"/>
<path d="M303.492 330.351C302.21 330.351 301.166 329.307 301.166 328.025C301.166 326.742 302.21 325.699 303.492 325.699C304.775 325.699 305.818 326.742 305.818 328.025C305.818 329.307 304.775 330.351 303.492 330.351Z" fill="#033D3B"/>
<path d="M304.162 322.968C304.162 323.617 303.636 324.142 302.988 324.142C302.34 324.142 301.814 323.617 301.814 322.968C301.814 322.32 302.34 321.795 302.988 321.795C303.637 321.795 304.162 322.32 304.162 322.968Z" fill="#2C2B2C"/>
<path d="M309.401 325.699C309.401 326.347 308.876 326.873 308.228 326.873C307.579 326.873 307.054 326.347 307.054 325.699C307.054 325.05 307.579 324.525 308.228 324.525C308.876 324.525 309.401 325.05 309.401 325.699Z" fill="#2C2B2C"/>
<path d="M307.923 332.056C307.923 332.704 307.398 333.229 306.749 333.229C306.101 333.229 305.575 332.704 305.575 332.056C305.575 331.407 306.101 330.881 306.749 330.881C307.398 330.881 307.923 331.407 307.923 332.056Z" fill="#2C2B2C"/>
<path d="M301.688 332.36C301.688 333.008 301.162 333.534 300.514 333.534C299.866 333.534 299.34 333.008 299.34 332.36C299.34 331.712 299.866 331.186 300.514 331.186C301.162 331.186 301.688 331.712 301.688 332.36Z" fill="#2C2B2C"/>
<path d="M299.601 326.873C299.601 327.521 299.075 328.047 298.427 328.047C297.779 328.047 297.253 327.521 297.253 326.873C297.253 326.224 297.779 325.699 298.427 325.699C299.075 325.699 299.601 326.224 299.601 326.873Z" fill="#2C2B2C"/>
<path opacity="0.3" d="M309.864 339.403C309.864 339.403 305.748 336.528 304.219 336.653C302.692 336.778 299.046 340.286 299.046 340.286C299.046 340.286 302.727 331.816 305.989 334.881C309.249 337.947 309.864 339.403 309.864 339.403Z" fill="black"/>
<path opacity="0.5" d="M313.824 335.833L313.814 335.872C313.814 335.872 306.832 329.828 310.731 327.631C314.631 325.435 316.284 325.492 316.284 325.492C316.284 325.492 312.389 328.554 312.044 330.013C311.722 331.372 313.518 335.197 313.824 335.833Z" fill="black"/>
<path opacity="0.5" d="M314.135 320.493C314.019 320.563 306.322 325.139 305.485 320.777C304.641 316.381 305.201 315.098 305.201 315.098C305.201 315.098 306.832 319.621 308.083 320.383C309.338 321.146 314.042 320.506 314.135 320.493Z" fill="black"/>
<path opacity="0.2" d="M297.333 323.67C292.887 323.151 291.763 322.324 291.763 322.324C291.763 322.324 296.495 322.179 297.617 321.215C298.727 320.26 299.685 315.551 299.685 315.551C299.685 315.551 301.778 324.189 297.333 323.67Z" fill="black"/>
<path opacity="0.2" d="M297.653 332.48C295.789 336.51 294.545 337.473 294.526 337.488C294.544 337.428 295.948 332.823 295.365 331.429C294.79 330.052 290.462 327.627 290.462 327.627C290.462 327.627 299.534 328.419 297.653 332.48Z" fill="black"/>
<path d="M188.449 254.485C187.846 254.774 187.138 254.759 186.554 254.443C186.487 254.408 186.424 254.369 186.365 254.329L180.805 250.565L167.406 222.674C164.94 222.779 162.508 222.192 160.346 220.967C157.995 219.635 156.135 217.638 154.966 215.19C153.468 212.052 153.292 208.487 154.47 205.15C155.648 201.817 158.02 199.153 161.15 197.649C161.201 197.625 161.252 197.601 161.303 197.577C164.459 196.111 168.003 195.949 171.282 197.123C174.564 198.297 177.203 200.674 178.713 203.816C179.884 206.255 180.276 208.951 179.844 211.613C179.436 214.128 178.328 216.444 176.633 218.327L176.551 222.006L179.584 223.86L180.067 229.853C180.141 230.78 180.675 231.595 181.495 232.035L184.155 233.46L184.339 238.185C184.376 239.119 184.863 239.986 185.641 240.502L187.661 241.846L190.133 247.249L189.63 252.769C189.568 253.518 189.127 254.159 188.449 254.485C188.449 254.485 188.449 254.485 188.449 254.485ZM163.514 202.516C161.966 203.26 161.312 205.124 162.056 206.673C162.8 208.221 164.664 208.875 166.212 208.131C167.76 207.388 168.415 205.523 167.671 203.975C166.927 202.427 165.063 201.772 163.514 202.516Z" fill="black"/>
<path d="M161.584 198.181C155.344 201.079 152.602 208.695 155.567 214.903C157.859 219.704 162.812 222.369 167.812 221.983L181.328 250.114L186.742 253.78C186.783 253.808 186.825 253.833 186.868 253.856C187.757 254.339 188.883 253.752 188.967 252.711L189.455 247.365L187.135 242.295L185.273 241.057C184.315 240.421 183.72 239.362 183.675 238.211L183.506 233.867L181.181 232.622C180.166 232.077 179.496 231.054 179.404 229.906L178.948 224.252L175.877 222.374L175.974 218.062C179.393 214.407 180.411 208.889 178.113 204.105C175.148 197.933 167.775 195.304 161.584 198.181ZM166.501 208.731C164.619 209.635 162.36 208.843 161.456 206.961C160.552 205.079 161.344 202.82 163.226 201.916C165.108 201.012 167.367 201.804 168.271 203.687C169.175 205.569 168.383 207.827 166.501 208.731Z" fill="white"/>
<path d="M186.559 254.445C186.49 254.409 186.425 254.37 186.365 254.329L180.805 250.565L167.11 222.058C167.11 222.058 168.951 221.565 169.536 221.341C170.053 221.142 171.604 220.547 171.604 220.547L187.985 254.644L186.559 254.445Z" fill="black"/>
<path d="M171.278 221.404L186.868 253.856C186.825 253.833 186.782 253.808 186.742 253.78L181.327 250.114L168.014 222.403C168.014 222.403 169.292 222.141 169.689 221.993C170.086 221.846 171.278 221.404 171.278 221.404Z" fill="#7EBCBB"/>
<path d="M162.688 262.03C162.019 262.03 161.387 261.709 160.998 261.172C160.953 261.111 160.912 261.049 160.876 260.987L157.495 255.187V224.244C155.227 223.271 153.289 221.689 151.871 219.648C150.328 217.43 149.517 214.824 149.523 212.111C149.531 208.634 150.917 205.344 153.424 202.847C155.929 200.352 159.221 198.978 162.694 198.978C162.75 198.978 162.806 198.979 162.862 198.979C166.342 199.024 169.606 200.414 172.054 202.892C174.504 205.372 175.853 208.657 175.853 212.143C175.853 214.849 175.038 217.448 173.497 219.661C172.04 221.751 170.038 223.358 167.695 224.322L166.028 227.602L167.959 230.587L165.799 236.198C165.465 237.066 165.593 238.032 166.142 238.783L167.922 241.22L166.042 245.559C165.67 246.417 165.734 247.408 166.212 248.211L167.451 250.296L167.339 256.237L164.495 260.995C164.115 261.643 163.44 262.03 162.688 262.03C162.688 262.03 162.688 262.03 162.688 262.03ZM162.717 204.389C160.999 204.389 159.602 205.786 159.602 207.504C159.602 209.221 160.999 210.619 162.717 210.619C164.434 210.619 165.832 209.221 165.832 207.504C165.832 205.786 164.434 204.389 162.717 204.389Z" fill="black"/>
<path d="M162.853 199.645C155.974 199.556 150.205 205.233 150.189 212.113C150.176 217.433 153.486 221.98 158.161 223.797V255.007L161.454 260.655C161.478 260.698 161.505 260.739 161.535 260.778C162.126 261.599 163.396 261.558 163.923 260.655L166.677 256.047L166.782 250.473L165.64 248.551C165.051 247.562 164.973 246.35 165.431 245.294L167.16 241.305L165.604 239.176C164.924 238.245 164.764 237.033 165.177 235.959L167.215 230.664L165.26 227.642L167.215 223.797C171.88 221.983 175.187 217.45 175.187 212.143C175.187 205.296 169.68 199.733 162.853 199.645ZM162.717 211.284C160.629 211.284 158.936 209.592 158.936 207.504C158.936 205.416 160.629 203.723 162.717 203.723C164.805 203.723 166.497 205.416 166.497 207.504C166.497 209.592 164.805 211.284 162.717 211.284Z" fill="white"/>
<path d="M161 261.176C160.954 261.114 160.912 261.05 160.876 260.987L157.495 255.186V223.561C157.495 223.561 159.368 223.913 159.992 223.964C160.544 224.01 162.2 224.145 162.2 224.145V261.972L161 261.176Z" fill="black"/>
<path d="M161.535 224.776V260.778C161.505 260.739 161.478 260.698 161.453 260.656L158.161 255.007V224.263C158.161 224.263 159.426 224.58 159.848 224.619C160.269 224.659 161.535 224.776 161.535 224.776Z" fill="#7EBCBB"/>
<path d="M163.985 204.66L164.265 204.836C164.275 204.827 164.285 204.819 164.296 204.81C164.111 204.706 163.985 204.66 163.985 204.66Z" fill="black"/>
<path d="M165.702 206.614C165.671 206.484 165.632 206.361 165.586 206.245C165.57 206.259 165.553 206.273 165.537 206.287L165.702 206.614Z" fill="black"/>
<path d="M164.843 205.2L165.209 205.637L165.537 206.287C165.553 206.274 165.57 206.259 165.586 206.246C165.406 205.788 165.122 205.446 164.843 205.2Z" fill="black"/>
<path d="M164.265 204.836L164.843 205.199C164.645 205.024 164.45 204.897 164.295 204.81C164.285 204.819 164.275 204.827 164.265 204.836Z" fill="black"/>
<path d="M156.915 209.416C160.192 209.416 163.199 208.24 165.537 206.287L165.209 205.637L164.843 205.199L164.265 204.836C162.268 206.49 159.706 207.486 156.915 207.486C153.581 207.486 150.573 206.064 148.465 203.795L147.064 205.122C149.524 207.762 153.03 209.416 156.915 209.416Z" fill="black"/>
<path d="M156.915 208.751C155.11 208.751 153.365 208.381 151.726 207.651C150.344 207.036 149.098 206.192 148.013 205.14L148.448 204.728C150.715 206.912 153.764 208.152 156.915 208.152C159.585 208.152 162.191 207.267 164.31 205.65L164.4 205.707L164.649 206.005L164.699 206.105C162.472 207.815 159.728 208.751 156.915 208.751Z" fill="#BFE2E2"/>
<path d="M147.423 196.404L133.785 191.271L123.021 192.5C120.963 192.735 119.148 193.956 118.152 195.771L103.653 222.23C103.038 223.351 102.674 224.593 102.589 225.867L101.229 245.87L96.4619 260.803C96.0325 262.145 96.1008 263.598 96.6541 264.894L99.49 271.544C100.169 273.138 102.346 273.341 103.308 271.901L108.452 264.196C107.782 263.976 107.131 263.663 106.516 263.252C102.857 260.81 101.867 255.846 104.31 252.187C106.753 248.528 111.717 247.54 115.375 249.983C115.991 250.394 116.53 250.875 116.99 251.41L138.153 219.714C137.483 219.494 136.832 219.181 136.216 218.771C132.558 216.328 131.569 211.364 134.012 207.706C136.454 204.047 141.418 203.058 145.076 205.5C145.691 205.912 146.23 206.393 146.691 206.928L149.469 202.767C150.995 200.483 149.994 197.371 147.423 196.404ZM140.791 199.601C140.897 197.848 142.404 196.512 144.158 196.617C145.911 196.722 147.248 198.23 147.142 199.983C147.037 201.737 145.53 203.073 143.777 202.968C142.023 202.863 140.686 201.355 140.791 199.601Z" fill="#55BB78"/>
<path d="M112.326 263.559C116.163 262.795 118.654 259.064 117.89 255.227C117.125 251.39 113.395 248.9 109.558 249.664C105.721 250.429 103.23 254.159 103.995 257.996C104.759 261.833 108.489 264.324 112.326 263.559Z" fill="#55BB78"/>
<path d="M115.993 257.27C116.257 254.481 114.21 252.005 111.42 251.741C108.631 251.476 106.155 253.524 105.891 256.313C105.627 259.103 107.674 261.578 110.463 261.843C113.253 262.107 115.729 260.06 115.993 257.27Z" fill="#8AD0A2"/>
<path d="M141.719 219.471C145.556 218.706 148.046 214.976 147.282 211.139C146.517 207.302 142.787 204.811 138.95 205.576C135.113 206.34 132.622 210.071 133.387 213.908C134.151 217.745 137.882 220.235 141.719 219.471Z" fill="#55BB78"/>
<path d="M145.385 213.182C145.649 210.392 143.602 207.917 140.813 207.652C138.023 207.388 135.547 209.435 135.283 212.225C135.019 215.015 137.066 217.49 139.856 217.754C142.645 218.019 145.121 215.972 145.385 213.182Z" fill="#8AD0A2"/>
<path d="M102.664 242.569C102.827 241.746 103.336 226.222 104.263 224.778C105.19 223.333 118.13 197.265 120.154 195.779C122.178 194.293 132.819 193.158 132.819 193.158C132.819 193.158 127.832 202.024 120.725 213.872C114.643 224.013 102.664 242.569 102.664 242.569Z" fill="#B0DFC0"/>
<path d="M156.916 182.478C149.489 182.478 143.446 188.521 143.446 195.947C143.446 198.042 144.426 200.963 145.283 202.733C145.939 202.52 146.536 202.063 146.826 201.469C146.23 200.078 145.377 197.553 145.377 195.947C145.377 189.585 150.553 184.409 156.916 184.409C163.278 184.409 168.454 189.585 168.454 195.947C168.454 196.119 168.449 196.289 168.442 196.459C168.862 196.529 169.679 196.673 170.354 196.839C170.374 196.544 170.385 196.247 170.385 195.947C170.385 188.521 164.342 182.478 156.916 182.478Z" fill="black"/>
<path d="M145.611 201.844C144.946 200.274 144.112 197.673 144.112 195.947C144.112 188.888 149.856 183.144 156.915 183.144C163.975 183.144 169.719 188.888 169.719 195.947C169.719 195.97 169.719 195.994 169.719 196.017C169.51 195.974 169.306 195.936 169.12 195.902C169.095 189.193 163.63 183.743 156.915 183.743C150.186 183.743 144.711 189.218 144.711 195.947C144.711 197.472 145.51 199.965 146.082 201.411C145.959 201.573 145.797 201.721 145.611 201.844Z" fill="#BFE2E2"/>
</svg>
