<svg width="450" height="284" viewBox="0 0 450 284" fill="none" xmlns="http://www.w3.org/2000/svg">
<path d="M432.563 148.64C423.667 131.813 422.949 117.377 427.549 99.0033C432.63 78.7115 437.537 52.798 425.378 34.3423C414.663 18.0782 397.824 6.54769 379.781 2.30259C356.877 -3.08595 337.696 5.63573 319.331 20.1154C294.122 39.9906 248.242 10.7821 217.18 1.98888C190.044 -5.69412 172.282 14.1267 143.682 9.16692C123.959 5.74644 94.554 11.1942 88.209 35.1359C86.5452 41.4141 86.6104 48.2571 83.9155 54.1067C77.6798 67.6431 61.8814 66.3535 50.0527 67.5758C37.26 68.8979 23.8567 75.4626 13.9525 84.1687C7.3684 89.9562 2.04937 97.808 0.44523 106.79C-1.43877 117.338 2.7194 129.252 11.7228 134.524C25.0369 142.319 39.4587 139.682 43.1347 158.903C47.0536 179.395 45.2333 199.973 51.4779 220.359C67.4097 272.368 118.819 291.163 166.208 281.264C203.393 273.497 239.288 279.619 277.113 274.155C292.637 271.913 308.999 266.745 323.244 274.155C336.864 281.241 344.216 269.209 359.162 273.29C368.317 275.789 377.96 274.619 387.309 273.167C403.947 270.584 421.623 266.517 433.271 253.479C441.657 244.093 445.767 231.218 448.276 218.483C453.846 190.214 445.21 172.563 432.563 148.64Z" fill="#E6F5EB"/>
<path d="M230.634 62.1822C230.457 62.1822 230.289 62.0768 230.218 61.9025C230.124 61.6725 230.234 61.4098 230.464 61.3157C231.026 61.0855 231.6 60.8684 232.168 60.6697C232.403 60.5887 232.659 60.7115 232.741 60.9459C232.823 61.1804 232.699 61.4371 232.465 61.5189C231.911 61.7125 231.352 61.9243 230.804 62.1484C230.749 62.1711 230.691 62.1822 230.634 62.1822Z" fill="#8AD0A2"/>
<path d="M277.429 104.26C277.387 104.26 277.345 104.254 277.303 104.242C277.064 104.173 276.927 103.923 276.996 103.685C277.328 102.538 277.603 101.361 277.814 100.183C277.857 99.9391 278.088 99.7752 278.336 99.8197C278.581 99.8634 278.744 100.097 278.7 100.342C278.484 101.55 278.201 102.759 277.86 103.935C277.803 104.132 277.624 104.26 277.429 104.26ZM278.8 94.8226C278.799 94.8226 278.798 94.8226 278.797 94.8226C278.549 94.8208 278.349 94.6178 278.351 94.3695L278.352 94.0999C278.352 93.7056 278.345 93.3097 278.331 92.9124C278.307 92.1995 278.261 91.4809 278.194 90.776C278.17 90.5287 278.352 90.3091 278.599 90.2855C278.845 90.2614 279.066 90.4432 279.09 90.6909C279.158 91.4136 279.206 92.1509 279.231 92.882C279.244 93.2896 279.251 93.6954 279.251 94.0999L279.25 94.376C279.249 94.6233 279.047 94.8226 278.8 94.8226ZM277.587 85.3661C277.388 85.3661 277.207 85.2341 277.153 85.0336C276.841 83.8809 276.464 82.7319 276.032 81.6184C275.943 81.3867 276.058 81.1261 276.289 81.0363C276.522 80.9474 276.782 81.062 276.871 81.2934C277.314 82.4365 277.701 83.6158 278.021 84.7986C278.086 85.0385 277.944 85.2853 277.705 85.3503C277.665 85.3608 277.626 85.3661 277.587 85.3661ZM273.856 76.596C273.703 76.596 273.554 76.5181 273.47 76.3775C272.857 75.3538 272.182 74.3502 271.464 73.3943C271.315 73.1957 271.356 72.9137 271.554 72.7645C271.753 72.615 272.035 72.6556 272.184 72.8543C272.92 73.8347 273.612 74.8646 274.242 75.9147C274.369 76.128 274.3 76.4041 274.087 76.5321C274.015 76.5753 273.935 76.596 273.856 76.596ZM267.888 69.1615C267.777 69.1615 267.666 69.1207 267.579 69.0383C266.712 68.2168 265.791 67.4315 264.844 66.7045C264.647 66.5532 264.61 66.2709 264.761 66.0736C264.913 65.8764 265.195 65.8395 265.392 65.9906C266.364 66.7367 267.308 67.542 268.198 68.3849C268.378 68.5557 268.386 68.8405 268.215 69.0209C268.126 69.1146 268.007 69.1615 267.888 69.1615ZM260.139 63.6057C260.068 63.6057 259.996 63.5891 259.929 63.5536C258.872 62.9962 257.774 62.4885 256.666 62.0448C256.435 61.9526 256.323 61.6907 256.415 61.4601C256.508 61.2294 256.769 61.1167 257 61.2097C258.138 61.6649 259.264 62.1857 260.349 62.7581C260.569 62.874 260.653 63.146 260.537 63.366C260.456 63.5184 260.3 63.6057 260.139 63.6057ZM251.174 60.3548C251.143 60.3548 251.111 60.3517 251.079 60.3449C249.912 60.0962 248.718 59.9064 247.53 59.7813C247.283 59.7551 247.104 59.5336 247.13 59.2866C247.155 59.0395 247.372 58.8628 247.624 58.8864C248.843 59.0151 250.069 59.2097 251.267 59.465C251.51 59.5168 251.665 59.7555 251.613 59.9989C251.568 60.21 251.382 60.3548 251.174 60.3548ZM238.046 60.0739C237.83 60.0739 237.639 59.9183 237.602 59.6983C237.561 59.4533 237.727 59.2214 237.972 59.1804C239.177 58.9784 240.41 58.837 241.636 58.7603C241.885 58.7449 242.098 58.9331 242.114 59.1812C242.129 59.4293 241.941 59.6427 241.693 59.6583C240.497 59.7331 239.295 59.8709 238.12 60.0677C238.095 60.072 238.07 60.0739 238.046 60.0739Z" fill="#8AD0A2"/>
<path d="M274.463 111.399C274.389 111.399 274.314 111.381 274.245 111.343C274.028 111.223 273.949 110.949 274.069 110.732C274.354 110.218 274.629 109.688 274.888 109.157C274.997 108.933 275.265 108.84 275.489 108.949C275.713 109.058 275.806 109.327 275.697 109.551C275.431 110.096 275.149 110.64 274.857 111.168C274.775 111.316 274.621 111.399 274.463 111.399Z" fill="#8AD0A2"/>
<path d="M252.584 128.367C252.383 128.367 252.201 128.232 252.148 128.028C252.087 127.788 252.231 127.543 252.472 127.481C253.042 127.335 253.616 127.171 254.18 126.995C254.417 126.922 254.67 127.053 254.744 127.29C254.818 127.527 254.686 127.78 254.448 127.854C253.87 128.035 253.28 128.202 252.696 128.352C252.658 128.362 252.621 128.367 252.584 128.367Z" fill="#8AD0A2"/>
<path d="M243.844 129.465C243.648 129.465 243.452 129.463 243.257 129.46C243.008 129.455 242.81 129.251 242.815 129.002C242.819 128.754 243.014 128.554 243.272 128.56C243.855 128.57 244.44 128.565 245.03 128.545C245.623 128.525 246.221 128.489 246.808 128.439C247.054 128.418 247.273 128.602 247.294 128.85C247.315 129.097 247.131 129.315 246.884 129.336C246.282 129.387 245.668 129.423 245.06 129.444C244.653 129.458 244.247 129.465 243.844 129.465ZM237.477 128.883C237.45 128.883 237.422 128.88 237.394 128.875C236.208 128.656 235.02 128.372 233.864 128.032C233.625 127.961 233.489 127.711 233.559 127.473C233.63 127.234 233.881 127.098 234.118 127.168C235.244 127.5 236.402 127.777 237.558 127.991C237.802 128.036 237.964 128.27 237.918 128.515C237.879 128.731 237.689 128.883 237.477 128.883ZM228.565 125.944C228.499 125.944 228.432 125.93 228.368 125.899C227.286 125.37 226.217 124.779 225.193 124.141C224.982 124.01 224.917 123.733 225.048 123.522C225.18 123.311 225.458 123.247 225.668 123.377C226.667 123.999 227.708 124.575 228.763 125.09C228.986 125.199 229.079 125.468 228.97 125.692C228.892 125.851 228.732 125.944 228.565 125.944ZM220.762 120.735C220.657 120.735 220.55 120.698 220.465 120.623C219.56 119.825 218.686 118.972 217.869 118.087C217.7 117.905 217.712 117.62 217.894 117.451C218.076 117.283 218.361 117.294 218.53 117.477C219.327 118.339 220.178 119.17 221.06 119.948C221.246 120.112 221.264 120.397 221.1 120.583C221.011 120.684 220.887 120.735 220.762 120.735ZM214.619 113.648C214.472 113.648 214.328 113.576 214.242 113.444C213.581 112.435 212.965 111.381 212.412 110.311C212.298 110.091 212.384 109.819 212.605 109.705C212.826 109.59 213.097 109.677 213.211 109.898C213.75 110.941 214.35 111.968 214.995 112.952C215.131 113.159 215.072 113.438 214.865 113.574C214.789 113.624 214.703 113.648 214.619 113.648ZM210.582 105.182C210.392 105.182 210.215 105.06 210.154 104.868C209.788 103.721 209.476 102.541 209.229 101.359C209.178 101.116 209.334 100.878 209.578 100.827C209.82 100.777 210.059 100.932 210.11 101.175C210.351 102.326 210.654 103.477 211.011 104.595C211.087 104.831 210.956 105.084 210.719 105.16C210.674 105.174 210.628 105.182 210.582 105.182ZM208.956 95.9437C208.716 95.9437 208.516 95.7536 208.507 95.5113L208.498 95.2724C208.484 94.8658 208.478 94.4603 208.478 94.0564C208.478 93.3337 208.5 92.6021 208.544 91.8823C208.559 91.6342 208.775 91.4417 209.02 91.4605C209.268 91.4757 209.457 91.6889 209.442 91.9368C209.399 92.6386 209.377 93.3519 209.377 94.0564C209.377 94.4503 209.384 94.8458 209.398 95.2423L209.406 95.476C209.416 95.7243 209.222 95.9334 208.974 95.9431C208.968 95.9437 208.962 95.9437 208.956 95.9437ZM209.831 86.6008C209.797 86.6008 209.763 86.5971 209.729 86.5891C209.486 86.5329 209.336 86.291 209.392 86.049C209.665 84.8746 210.002 83.7011 210.395 82.5603C210.476 82.3255 210.731 82.2003 210.967 82.2815C211.202 82.3622 211.327 82.6181 211.246 82.8533C210.863 83.9645 210.534 85.1084 210.269 86.2524C210.22 86.4605 210.035 86.6008 209.831 86.6008Z" fill="#8AD0A2"/>
<path d="M213.179 77.812C213.106 77.812 213.033 77.7944 212.964 77.7571C212.746 77.638 212.666 77.3647 212.785 77.1467C213.073 76.619 213.38 76.0888 213.698 75.5711C213.828 75.3589 214.106 75.2935 214.317 75.4232C214.529 75.5532 214.595 75.8304 214.465 76.042C214.155 76.5468 213.855 77.0635 213.574 77.5777C213.493 77.7271 213.338 77.812 213.179 77.812Z" fill="#8AD0A2"/>
<path d="M222.939 77.2707C222.813 77.3974 222.781 77.5904 222.859 77.7511L225.103 82.3349C223.85 84.3624 222.912 86.6044 222.357 88.9936L217.539 90.6654C217.369 90.724 217.256 90.8835 217.257 91.0623L217.268 97.184C217.268 97.363 217.382 97.5219 217.551 97.5799L222.376 99.2335C222.94 101.621 223.887 103.859 225.148 105.882L222.921 110.474C222.843 110.635 222.876 110.828 223.002 110.954L227.339 115.274C227.466 115.401 227.659 115.433 227.82 115.354L232.404 113.11C234.431 114.363 236.673 115.301 239.062 115.856L240.734 120.675C240.793 120.844 240.952 120.957 241.131 120.957L247.253 120.945C247.432 120.944 247.591 120.831 247.649 120.662L249.302 115.837C251.689 115.273 253.928 114.326 255.95 113.065L260.543 115.292C260.704 115.37 260.897 115.337 261.023 115.211L265.343 110.874C265.47 110.747 265.502 110.554 265.423 110.393L263.179 105.81C264.432 103.782 265.37 101.54 265.925 99.1509L270.744 97.4791C270.913 97.4204 271.026 97.2611 271.026 97.0821L271.014 90.9602C271.014 90.7814 270.9 90.6223 270.731 90.5643L265.906 88.9108C265.342 86.5236 264.395 84.2851 263.135 82.2623L265.361 77.6701C265.439 77.5092 265.406 77.3162 265.28 77.1901L260.943 72.8698C260.816 72.7435 260.623 72.7115 260.462 72.7902L255.879 75.0341C253.851 73.7814 251.609 72.8429 249.22 72.2881L247.548 67.4696C247.49 67.3006 247.33 67.1875 247.151 67.1879L241.03 67.1993C240.851 67.1998 240.692 67.3135 240.634 67.4827L238.98 72.3076C236.593 72.8716 234.355 73.8185 232.332 75.079L227.739 72.8526C227.578 72.7745 227.386 72.8071 227.259 72.9338L222.939 77.2707Z" fill="#8AD0A2"/>
<path d="M244.142 99.9586C241.514 99.9586 239.114 98.1839 238.437 95.5237C237.637 92.3788 239.545 89.1687 242.69 88.3684C244.214 87.9809 245.797 88.2095 247.148 89.0126C248.5 89.8159 249.457 91.0973 249.845 92.6209C250.645 95.7656 248.738 98.9757 245.592 99.7762C245.108 99.8996 244.621 99.9586 244.142 99.9586ZM244.15 89.0846C243.737 89.0846 243.322 89.1361 242.911 89.2406C240.247 89.9184 238.631 92.6375 239.309 95.3021C239.987 97.9662 242.705 99.5814 245.37 98.9044C248.035 98.2264 249.651 95.5073 248.973 92.8432C248.644 91.5523 247.833 90.4669 246.688 89.7864C245.907 89.3222 245.035 89.0846 244.15 89.0846Z" fill="#019935"/>
<path d="M244.24 109.378C240.185 109.378 236.371 107.802 233.498 104.94C230.617 102.07 229.027 98.2506 229.019 94.1851C229.019 94.1764 229.019 94.168 229.019 94.1596C229.019 93.1566 229.117 92.1551 229.31 91.1785C229.325 91.1062 229.34 91.0342 229.355 90.9622C229.407 90.7191 229.644 90.5634 229.889 90.6163C230.1 90.6615 230.245 90.8478 230.245 91.0555C230.245 91.0867 230.242 91.1185 230.235 91.1504C230.025 92.1333 229.919 93.1458 229.919 94.1596C229.919 94.1678 229.919 94.1756 229.919 94.1836C229.926 98.0092 231.423 101.603 234.133 104.303C236.837 106.996 240.425 108.478 244.24 108.478C244.249 108.478 244.259 108.478 244.268 108.478C252.155 108.463 258.562 102.042 258.562 94.1584C258.562 94.149 258.562 94.1393 258.562 94.1297C258.547 86.2421 252.125 79.8352 244.241 79.8352C244.232 79.8352 244.223 79.8352 244.214 79.8352C241.617 79.8399 239.076 80.5466 236.864 81.8785C236.651 82.0074 236.375 81.9379 236.247 81.7253C236.203 81.6523 236.182 81.5722 236.182 81.493C236.182 81.3405 236.26 81.192 236.4 81.1078C238.751 79.6919 241.453 78.9406 244.212 78.9353C244.221 78.9353 244.232 78.9353 244.241 78.9353C252.622 78.9353 259.446 85.7443 259.462 94.1279C259.462 94.1381 259.462 94.1484 259.462 94.1586C259.461 102.537 252.652 109.362 244.27 109.378C244.259 109.378 244.249 109.378 244.24 109.378Z" fill="#019935"/>
<path d="M378.793 44.61L380.25 47.0705C379.641 48.2587 379.216 49.5526 379.012 50.9115L376.395 52.0593C376.303 52.0995 376.247 52.1936 376.255 52.2934L376.534 55.7121C376.542 55.8119 376.612 55.8958 376.709 55.9206L379.478 56.6298C379.899 57.938 380.527 59.1461 381.321 60.22L380.281 62.8837C380.245 62.9772 380.271 63.0832 380.348 63.1482L382.962 65.3687C383.038 65.4334 383.148 65.4429 383.234 65.3918L385.694 63.9351C386.883 64.5447 388.176 64.9693 389.535 65.1731L390.683 67.7902C390.723 67.8821 390.817 67.9381 390.917 67.9301L394.336 67.6516C394.436 67.6436 394.52 67.5729 394.544 67.4757L395.254 64.7074C396.562 64.2865 397.77 63.6583 398.844 62.8645L401.508 63.9041C401.601 63.9404 401.707 63.9138 401.772 63.8373L403.992 61.2232C404.057 61.1469 404.067 61.0377 404.016 60.9513L402.559 58.4908C403.168 57.3029 403.593 56.0087 403.797 54.6498L406.414 53.5021C406.506 53.4619 406.562 53.3678 406.554 53.2679L406.275 49.8493C406.267 49.7494 406.197 49.6656 406.099 49.6408L403.331 48.9314C402.91 47.6231 402.282 46.4151 401.488 45.3411L402.528 42.6774C402.564 42.5841 402.537 42.4777 402.461 42.4129L399.847 40.1925C399.771 40.1277 399.661 40.1183 399.575 40.1693L397.115 41.626C395.926 41.0163 394.633 40.5919 393.274 40.3881L392.126 37.7711C392.086 37.6793 391.992 37.6231 391.892 37.6313L388.473 37.9095C388.373 37.9177 388.289 37.9882 388.265 38.0854L387.555 40.8537C386.247 41.2746 385.039 41.9028 383.965 42.6967L381.301 41.657C381.208 41.6205 381.102 41.6474 381.037 41.7238L378.817 44.3379C378.752 44.4146 378.742 44.5239 378.793 44.61Z" fill="#8AD0A2"/>
<path d="M391.407 56.2767C389.952 56.2767 388.591 55.3608 388.096 53.9088H388.096C387.474 52.0845 388.453 50.0943 390.277 49.4724C392.101 48.8498 394.091 49.8288 394.713 51.6531C395.335 53.4777 394.357 55.4677 392.533 56.0895C392.16 56.2162 391.78 56.2767 391.407 56.2767ZM388.947 53.6183C389.409 54.9729 390.888 55.6989 392.242 55.2376C393.597 54.7759 394.323 53.2979 393.862 51.9432C393.4 50.5882 391.92 49.862 390.567 50.3239C389.212 50.7856 388.486 52.2637 388.947 53.6183Z" fill="#019935"/>
<path d="M379.801 38.9654C379.671 38.9654 379.541 38.9088 379.452 38.7993C379.295 38.6066 379.324 38.3233 379.517 38.1664C379.993 37.7793 380.493 37.4123 381.002 37.0751C381.209 36.9377 381.488 36.9945 381.626 37.202C381.763 37.4091 381.706 37.6883 381.499 37.8255C381.014 38.1463 380.538 38.4959 380.085 38.8645C380.001 38.9324 379.901 38.9654 379.801 38.9654Z" fill="#8AD0A2"/>
<path d="M409.454 49.698C409.244 49.698 409.056 49.5495 409.013 49.3351C408.858 48.5482 408.647 47.7609 408.386 46.9949C408.286 46.7001 408.178 46.4093 408.064 46.1227C407.972 45.8918 408.085 45.6302 408.316 45.5384C408.546 45.4453 408.808 45.5589 408.9 45.7897C409.02 46.0899 409.132 46.3948 409.238 46.7042C409.512 47.5085 409.734 48.3347 409.896 49.161C409.944 49.4048 409.785 49.6414 409.542 49.6894C409.512 49.6953 409.483 49.698 409.454 49.698ZM405.663 41.6104C405.533 41.6104 405.404 41.5541 405.315 41.4448C404.611 40.582 403.82 39.78 402.966 39.0613C402.775 38.9014 402.751 38.6177 402.911 38.4274C403.07 38.2371 403.354 38.2129 403.545 38.3724C404.442 39.1272 405.273 39.9696 406.012 40.8762C406.169 41.0688 406.14 41.3521 405.947 41.5092C405.864 41.5772 405.763 41.6104 405.663 41.6104ZM398.505 36.2695C398.447 36.2695 398.388 36.258 398.332 36.2344C397.301 35.803 396.226 35.4662 395.136 35.2337C394.893 35.1818 394.738 34.9427 394.79 34.6998C394.842 34.4566 395.082 34.3008 395.324 34.3535C396.469 34.5977 397.598 34.9514 398.679 35.4045C398.908 35.5004 399.017 35.7641 398.92 35.9931C398.848 36.1657 398.681 36.2695 398.505 36.2695ZM386.303 35.5675C386.108 35.5675 385.928 35.4393 385.871 35.2425C385.802 35.0038 385.94 34.7543 386.178 34.6852C387.308 34.358 388.47 34.1358 389.632 34.0248C389.882 34.0004 390.099 34.1825 390.123 34.43C390.146 34.6772 389.965 34.897 389.718 34.9208C388.611 35.0264 387.504 35.238 386.429 35.5494C386.387 35.5615 386.345 35.5675 386.303 35.5675Z" fill="#8AD0A2"/>
<path d="M409.398 57.0509C409.367 57.0509 409.335 57.0478 409.303 57.041C409.061 56.9892 408.906 56.7501 408.957 56.5074C409.079 55.9372 409.174 55.3545 409.239 54.7757C409.267 54.5288 409.491 54.3492 409.736 54.379C409.983 54.4066 410.161 54.6293 410.133 54.8764C410.065 55.4843 409.965 56.0963 409.838 56.6949C409.792 56.9061 409.606 57.0509 409.398 57.0509Z" fill="#8AD0A2"/>
<path d="M400.234 69.3661C400.074 69.3661 399.92 69.2812 399.838 69.1317C399.719 68.9136 399.8 68.6403 400.018 68.5212C400.53 68.2417 401.034 67.934 401.515 67.6063C401.721 67.4669 402.001 67.5198 402.14 67.725C402.28 67.9305 402.227 68.2103 402.022 68.3502C401.516 68.6944 400.987 69.0177 400.449 69.3111C400.381 69.3484 400.307 69.3661 400.234 69.3661Z" fill="#8AD0A2"/>
<path d="M391.739 71.6209C391.494 71.6209 391.294 71.4247 391.289 71.1791C391.285 70.9306 391.482 70.7258 391.731 70.7211C392.826 70.7012 393.927 70.579 395.002 70.3573C395.244 70.3071 395.484 70.464 395.534 70.7073C395.584 70.9507 395.427 71.1885 395.184 71.2388C394.054 71.4715 392.897 71.6002 391.747 71.6209C391.744 71.6209 391.742 71.6209 391.739 71.6209ZM386.316 70.9015C386.275 70.9015 386.232 70.8955 386.191 70.8834C385.085 70.564 384.002 70.1402 382.971 69.6242C382.749 69.513 382.659 69.2426 382.771 69.0206C382.882 68.7985 383.153 68.7081 383.374 68.8198C384.356 69.3115 385.388 69.715 386.441 70.0195C386.679 70.0883 386.817 70.3377 386.748 70.5765C386.691 70.7731 386.511 70.9015 386.316 70.9015ZM378.699 66.5243C378.587 66.5243 378.475 66.4831 378.388 66.3999C377.555 65.6046 376.792 64.7277 376.119 63.794C375.974 63.5922 376.02 63.3112 376.221 63.166C376.423 63.0202 376.704 63.0666 376.849 63.2681C377.489 64.1573 378.216 64.992 379.009 65.7493C379.189 65.9209 379.195 66.2055 379.024 66.3853C378.936 66.4778 378.817 66.5243 378.699 66.5243ZM373.987 59.1138C373.799 59.1138 373.624 58.9955 373.561 58.8077C373.191 57.7127 372.921 56.5815 372.757 55.4459C372.722 55.2001 372.892 54.9719 373.138 54.9364C373.383 54.9019 373.612 55.0713 373.648 55.3175C373.804 56.3988 374.061 57.4765 374.414 58.5199C374.493 58.7554 374.367 59.0107 374.131 59.0898C374.083 59.106 374.035 59.1138 373.987 59.1138Z" fill="#8AD0A2"/>
<path d="M373.246 50.3436C373.223 50.3436 373.199 50.3417 373.175 50.3378C372.929 50.2985 372.762 50.0678 372.802 49.8224C372.899 49.2169 373.026 48.6105 373.181 48.0196C373.244 47.7795 373.49 47.6354 373.73 47.6987C373.971 47.7617 374.115 48.0075 374.052 48.2482C373.904 48.8106 373.782 49.3883 373.69 49.9649C373.655 50.1859 373.463 50.3436 373.246 50.3436Z" fill="#8AD0A2"/>
<path d="M391.458 61.5498C386.964 61.5498 383.138 58.0875 382.767 53.5314C382.747 53.2942 382.738 53.0561 382.738 52.8181C382.738 52.4689 382.758 52.12 382.8 51.7751C382.804 51.7415 382.808 51.7079 382.812 51.6744C382.845 51.428 383.073 51.2562 383.317 51.2873C383.544 51.3173 383.708 51.5106 383.708 51.7327C383.708 51.7523 383.707 51.7722 383.704 51.7921C383.66 52.1298 383.637 52.472 383.637 52.815C383.637 53.0295 383.646 53.2443 383.663 53.4584C383.676 53.6201 383.694 53.7807 383.717 53.9402C383.718 53.941 383.718 53.9423 383.718 53.9431C383.989 55.8345 384.929 57.5407 386.397 58.7883C387.991 60.1417 390.018 60.7922 392.099 60.6239C396.185 60.2913 399.29 56.8596 399.291 52.8298C399.291 52.6174 399.283 52.4033 399.265 52.188C398.915 47.887 395.132 44.6723 390.829 45.0227C389.415 45.1377 388.061 45.6329 386.914 46.454C386.711 46.599 386.43 46.552 386.286 46.3501C386.229 46.2707 386.202 46.1793 386.202 46.0887C386.202 45.9486 386.267 45.8104 386.39 45.7225C387.67 44.8062 389.18 44.2543 390.756 44.1259C395.552 43.7317 399.771 47.3194 400.162 52.115C400.181 52.3549 400.191 52.5938 400.191 52.8304C400.19 57.3238 396.728 61.1498 392.172 61.5205C391.933 61.5402 391.694 61.5498 391.458 61.5498Z" fill="#019935"/>
<path d="M110.361 230.047C110.332 230.047 110.302 230.045 110.272 230.041C109.903 229.993 109.642 229.654 109.691 229.284C115.777 182.975 105.838 142.711 96.429 117.088C86.2281 89.3084 74.4333 72.2681 74.3152 72.0992C74.1017 71.7937 74.1764 71.3729 74.4819 71.1597C74.7873 70.9467 75.2079 71.0205 75.4213 71.3262C75.5402 71.4962 87.4181 88.6492 97.6799 116.58C107.15 142.354 117.153 182.86 111.029 229.46C110.984 229.8 110.694 230.047 110.361 230.047Z" fill="#55BB78"/>
<path d="M91.5387 237.177C91.3316 237.177 91.127 237.082 90.9947 236.903C90.7179 236.527 63.2655 198.838 59.9392 159.141C59.908 158.77 60.1838 158.443 60.5551 158.412C60.929 158.379 61.253 158.657 61.284 159.028C64.5781 198.339 91.807 235.729 92.0816 236.102C92.3026 236.403 92.2382 236.825 91.9381 237.046C91.8177 237.134 91.6777 237.177 91.5387 237.177Z" fill="#55BB78"/>
<path d="M316.996 97.6428C333.564 97.6428 346.996 84.2112 346.996 67.6425C346.996 51.0739 333.564 37.6423 316.996 37.6423C300.427 37.6423 286.995 51.0739 286.995 67.6425C286.995 84.2112 300.427 97.6428 316.996 97.6428Z" fill="#8AD0A2"/>
<path d="M346.941 66.0341H316.996H286.995C286.995 66.0341 284.607 82.6856 311.382 128.294C312.55 130.284 314.685 131.473 316.992 131.475C319.299 131.476 321.438 130.306 322.606 128.316C349.378 82.7037 346.941 66.0341 346.941 66.0341Z" fill="#8AD0A2"/>
<path d="M316.982 132.448V132.617H316.992C314.38 132.617 311.943 131.18 310.631 128.945C294.98 102.285 289.245 85.4283 287.191 75.9958C286.605 73.826 286.269 71.6989 286.162 69.5182C285.981 67.2873 286.12 66.3474 286.136 66.2482L286.215 65.7682C287.424 49.6531 300.836 37.1115 316.996 37.1115C333.368 37.1115 346.901 49.8308 347.816 66.0741C347.839 66.2867 347.883 66.826 347.866 67.7279L347.867 67.8386C347.867 70.7853 347.451 73.7038 346.63 76.5135C344.505 85.9378 338.735 102.628 323.351 128.839C322.03 131.088 319.682 132.448 316.982 132.448ZM287.814 67.3838C287.807 67.8337 287.821 68.476 287.9 69.4434L287.902 69.4403C288.001 71.5061 288.321 73.4955 288.878 75.5546L288.888 75.5891C290.912 84.8936 296.587 101.539 312.133 128.021C313.134 129.725 314.989 130.783 316.986 130.784L316.982 131.653V130.782C318.782 130.782 320.839 129.714 321.848 127.995C337.134 101.952 342.84 85.4021 344.933 76.1039L344.949 76.0502C345.728 73.3914 345.95 70.6286 345.95 67.8386L345.775 67.716V67.7062C345.775 66.8377 345.922 66.3681 345.908 66.2449L345.991 66.1945C345.139 50.8623 332.408 38.8522 316.952 38.8522C301.526 38.8522 288.774 51.0317 287.895 66.4983L287.87 67.3841H287.814V67.3838Z" fill="#55BB78"/>
<path d="M317.092 84.8686C326.66 84.8686 334.415 77.1129 334.415 67.5458C334.415 57.9787 326.66 50.223 317.092 50.223C307.525 50.223 299.77 57.9787 299.77 67.5458C299.77 77.1129 307.525 84.8686 317.092 84.8686Z" fill="#E6F5EB"/>
<path d="M317.092 85.8363C307.007 85.8363 298.802 77.6311 298.802 67.5458C298.802 57.4603 307.007 49.2552 317.092 49.2552C327.178 49.2552 335.383 57.4603 335.383 67.5458C335.383 77.6311 327.178 85.8363 317.092 85.8363ZM317.092 51.1907C308.074 51.1907 300.737 58.5276 300.737 67.5458C300.737 76.5639 308.074 83.9008 317.092 83.9008C326.11 83.9008 333.447 76.5639 333.447 67.5458C333.447 58.5276 326.11 51.1907 317.092 51.1907Z" fill="#E6F5EB"/>
<path d="M300.66 49.5102C300.579 49.5102 300.497 49.4759 300.44 49.4089C300.335 49.2873 300.349 49.104 300.471 48.9997C305.337 44.8204 311.555 42.5187 317.978 42.5187C318.138 42.5187 318.268 42.6487 318.268 42.8091C318.268 42.9694 318.138 43.0994 317.978 43.0994C311.693 43.0994 305.61 45.3514 300.849 49.4403C300.795 49.487 300.727 49.5102 300.66 49.5102Z" fill="#E6F5EB"/>
<path d="M291.384 69.6931C291.224 69.6931 291.094 69.5631 291.094 69.4027C291.094 64.3863 292.484 59.4927 295.116 55.2511C295.2 55.1148 295.379 55.0729 295.515 55.1574C295.652 55.2421 295.694 55.4209 295.609 55.5572C293.035 59.707 291.674 64.4946 291.674 69.4027C291.674 69.5631 291.544 69.6931 291.384 69.6931Z" fill="#E6F5EB"/>
<path d="M109.838 231.591C191.549 231.591 273.259 231.591 354.97 231.591C355.442 231.591 355.858 231.193 355.988 230.738C356.118 230.284 355.932 229.756 355.531 229.506C349.715 225.874 343.899 222.289 338.083 218.658C337.916 218.553 337.721 218.544 337.524 218.544C267.444 218.544 197.364 218.544 127.284 218.544C127.085 218.544 126.893 218.531 126.724 218.636C120.908 222.268 115.092 225.865 109.276 229.497C108.876 229.747 108.691 230.302 108.821 230.756C108.951 231.209 109.366 231.591 109.838 231.591Z" fill="#55BB78"/>
<path d="M70.6458 256.335C178.485 256.335 286.324 256.335 394.162 256.335C394.635 256.335 395.05 255.8 395.181 255.347C395.311 254.892 395.125 254.296 394.724 254.046C388.908 250.414 383.093 246.931 377.277 243.3C377.109 243.195 376.915 243.288 376.717 243.288C280.509 243.288 184.3 243.288 88.0918 243.288C87.8931 243.288 87.7006 243.139 87.5321 243.244C81.7163 246.876 75.9004 250.405 70.0846 254.037C69.6842 254.287 69.4986 254.944 69.6288 255.398C69.7586 255.851 70.1736 256.335 70.6458 256.335Z" fill="#34AD5D"/>
<path d="M433.917 278.407C428.101 274.776 422.285 271.259 416.469 267.627C416.301 267.522 416.107 267.582 415.909 267.582C293.572 267.582 171.236 267.582 48.8987 267.582C48.7 267.582 48.5075 267.522 48.339 267.627C42.5232 271.259 36.7073 274.833 30.8913 278.464C30.4909 278.714 30.3056 279.304 30.4357 279.758C30.5659 280.212 30.9809 280.628 31.4531 280.628C165.42 280.628 299.388 280.628 433.355 280.628C433.828 280.628 434.243 280.184 434.374 279.73C434.504 279.276 434.317 278.658 433.917 278.407Z" fill="#019935"/>
<path d="M157.346 93.57C157.31 93.57 157.274 93.5596 157.242 93.538C157.158 93.4808 157.137 93.3658 157.194 93.282C157.366 93.0294 157.532 92.7741 157.692 92.5158C157.745 92.4286 157.859 92.403 157.945 92.4557C158.032 92.5094 158.059 92.6232 158.005 92.7095C157.843 92.9728 157.674 93.2325 157.499 93.4892C157.463 93.5419 157.405 93.57 157.346 93.57Z" fill="#8AD0A2"/>
<path d="M140.412 102.522C139.842 102.522 139.266 102.498 138.698 102.452C138.597 102.443 138.521 102.354 138.53 102.253C138.538 102.151 138.626 102.076 138.729 102.084C139.287 102.13 139.852 102.153 140.41 102.153L140.514 102.153C140.616 102.153 140.698 102.235 140.698 102.337C140.698 102.439 140.616 102.522 140.514 102.522L140.412 102.522ZM142.314 102.434C142.22 102.434 142.139 102.362 142.13 102.266C142.121 102.165 142.195 102.075 142.297 102.066C142.887 102.011 143.482 101.929 144.066 101.822C144.166 101.807 144.262 101.871 144.28 101.971C144.299 102.071 144.232 102.167 144.132 102.185C143.538 102.294 142.932 102.377 142.331 102.433C142.325 102.433 142.319 102.434 142.314 102.434ZM136.926 102.226C136.916 102.226 136.905 102.225 136.895 102.223C136.299 102.121 135.701 101.991 135.118 101.838C135.02 101.812 134.961 101.711 134.987 101.613C135.013 101.514 135.113 101.455 135.212 101.481C135.784 101.632 136.372 101.759 136.957 101.859C137.058 101.877 137.125 101.972 137.108 102.073C137.092 102.162 137.014 102.226 136.926 102.226ZM145.855 101.787C145.775 101.787 145.7 101.733 145.678 101.652C145.65 101.554 145.708 101.452 145.807 101.425C146.377 101.267 146.949 101.082 147.505 100.875C147.601 100.839 147.707 100.888 147.742 100.983C147.778 101.079 147.729 101.185 147.634 101.22C147.068 101.432 146.486 101.62 145.905 101.781C145.888 101.785 145.872 101.787 145.855 101.787ZM133.445 101.31C133.424 101.31 133.403 101.307 133.382 101.3C132.814 101.096 132.248 100.864 131.701 100.611C131.608 100.568 131.568 100.459 131.61 100.366C131.653 100.274 131.763 100.233 131.855 100.276C132.393 100.525 132.949 100.752 133.507 100.952C133.603 100.987 133.653 101.093 133.618 101.188C133.591 101.264 133.52 101.31 133.445 101.31ZM149.228 100.527C149.159 100.527 149.093 100.489 149.062 100.422C149.018 100.331 149.056 100.22 149.148 100.176C149.683 99.9203 150.214 99.6376 150.724 99.3354C150.812 99.2841 150.925 99.313 150.976 99.4002C151.028 99.4881 150.999 99.6011 150.912 99.653C150.392 99.9601 149.853 100.248 149.308 100.509C149.282 100.521 149.255 100.527 149.228 100.527ZM130.178 99.8012C130.146 99.8012 130.115 99.7932 130.086 99.7766C129.563 99.4766 129.047 99.1488 128.552 98.8035C128.468 98.7451 128.448 98.6303 128.506 98.5466C128.564 98.463 128.679 98.4425 128.763 98.5009C129.249 98.8404 129.756 99.1617 130.27 99.4568C130.358 99.5074 130.388 99.62 130.338 99.7085C130.304 99.768 130.242 99.8012 130.178 99.8012ZM152.328 98.6938C152.27 98.6938 152.214 98.6672 152.178 98.6168C152.118 98.5339 152.137 98.4187 152.22 98.3597C152.45 98.195 152.677 98.025 152.902 97.8497C153.149 97.6574 153.39 97.46 153.626 97.2585C153.703 97.1922 153.819 97.2015 153.886 97.2786C153.952 97.3561 153.943 97.4723 153.866 97.5385C153.626 97.7437 153.38 97.9447 153.128 98.1407C152.9 98.3191 152.669 98.4919 152.435 98.6594C152.402 98.6828 152.365 98.6938 152.328 98.6938ZM127.228 97.7417C127.186 97.7417 127.144 97.7278 127.109 97.6984C126.649 97.312 126.198 96.8988 125.77 96.4705C125.698 96.3986 125.698 96.2817 125.77 96.2097C125.842 96.1378 125.958 96.1378 126.03 96.2097C126.451 96.6305 126.894 97.0364 127.346 97.4159C127.424 97.4811 127.435 97.5974 127.369 97.6757C127.333 97.7194 127.281 97.7417 127.228 97.7417ZM155.062 96.3524C155.016 96.3524 154.969 96.3348 154.933 96.3C154.86 96.2286 154.859 96.1119 154.931 96.0392C155.347 95.6141 155.748 95.1672 156.123 94.7102C156.188 94.6316 156.304 94.6202 156.383 94.6845C156.462 94.7493 156.473 94.8654 156.408 94.9443C156.027 95.4097 155.618 95.8645 155.194 96.2971C155.158 96.3342 155.11 96.3524 155.062 96.3524ZM124.684 95.1951C124.631 95.1951 124.579 95.1727 124.542 95.1292C124.386 94.942 124.232 94.7518 124.08 94.5576C123.859 94.2737 123.642 93.9807 123.436 93.6871C123.378 93.6036 123.398 93.4886 123.481 93.4304C123.564 93.3717 123.679 93.3922 123.738 93.4753C123.94 93.7638 124.153 94.0516 124.37 94.3307C124.52 94.5211 124.671 94.7085 124.825 94.8922C124.89 94.9703 124.88 95.0868 124.802 95.1518C124.768 95.1809 124.726 95.1951 124.684 95.1951ZM122.618 92.2459C122.555 92.2459 122.493 92.2129 122.458 92.1537C122.156 91.6302 121.874 91.0879 121.619 90.5409C121.576 90.4487 121.616 90.339 121.709 90.2959C121.801 90.2523 121.911 90.293 121.954 90.3853C122.204 90.9223 122.481 91.4554 122.778 91.9694C122.829 92.0575 122.799 92.1703 122.71 92.2211C122.681 92.2379 122.649 92.2459 122.618 92.2459ZM121.099 88.9811C121.024 88.9811 120.953 88.9343 120.926 88.8593C120.721 88.2914 120.538 87.7072 120.384 87.1237C120.358 87.0251 120.417 86.9242 120.515 86.8982C120.613 86.8713 120.715 86.931 120.741 87.0294C120.892 87.6029 121.071 88.1761 121.273 88.734C121.308 88.8298 121.258 88.9354 121.162 88.9702C121.141 88.9776 121.12 88.9811 121.099 88.9811Z" fill="#8AD0A2"/>
<path d="M120.175 85.4778C120.087 85.4778 120.009 85.4144 119.994 85.3244C119.941 85.0187 119.896 84.7118 119.858 84.4047C119.845 84.3038 119.917 84.2115 120.018 84.199C120.12 84.1851 120.211 84.2581 120.224 84.3594C120.261 84.6608 120.306 84.9619 120.357 85.2627C120.374 85.3628 120.307 85.4583 120.207 85.4755C120.196 85.4772 120.186 85.4778 120.175 85.4778Z" fill="#8AD0A2"/>
<path d="M123.917 69.7852C123.879 69.7852 123.841 69.7733 123.807 69.7489C123.726 69.688 123.709 69.5728 123.769 69.491C123.954 69.2425 124.144 68.9979 124.341 68.757C124.405 68.6789 124.521 68.6666 124.6 68.7307C124.679 68.7951 124.691 68.9112 124.627 68.9905C124.434 69.2271 124.247 69.4674 124.066 69.7108C124.029 69.7596 123.974 69.7852 123.917 69.7852Z" fill="#8AD0A2"/>
<path d="M160.428 77.5744C160.343 77.5744 160.267 77.5157 160.248 77.4296C160.112 76.815 159.945 76.1986 159.753 75.5981C159.721 75.5014 159.775 75.3972 159.872 75.3662C159.969 75.3345 160.073 75.3882 160.104 75.4851C160.3 76.0967 160.47 76.7241 160.608 77.3505C160.63 77.4499 160.567 77.5484 160.468 77.5703C160.454 77.573 160.441 77.5744 160.428 77.5744ZM159.256 73.9329C159.185 73.9329 159.117 73.8911 159.087 73.8211C158.838 73.2419 158.559 72.6679 158.258 72.1147C158.209 72.0253 158.242 71.9134 158.331 71.8644C158.421 71.8162 158.533 71.8486 158.582 71.9382C158.889 72.5014 159.173 73.0859 159.426 73.6756C159.466 73.7693 159.422 73.8775 159.329 73.9179C159.305 73.9282 159.281 73.9329 159.256 73.9329ZM157.426 70.5747C157.367 70.5747 157.309 70.5462 157.273 70.4933C157.006 70.0954 156.719 69.7003 156.421 69.3189C156.329 69.2013 156.236 69.0844 156.142 68.9692C156.078 68.8902 156.089 68.774 156.168 68.7094C156.247 68.6452 156.363 68.6569 156.428 68.7356C156.523 68.8531 156.618 68.9718 156.712 69.0918C157.015 69.4801 157.307 69.8824 157.579 70.2871C157.636 70.3718 157.614 70.4862 157.529 70.5432C157.498 70.5645 157.462 70.5747 157.426 70.5747ZM125.762 67.632C125.716 67.632 125.669 67.6143 125.633 67.5791C125.56 67.5075 125.56 67.3909 125.631 67.3185C126.08 66.8625 126.557 66.4213 127.049 66.0067C127.127 65.9411 127.243 65.951 127.309 66.0287C127.374 66.1064 127.364 66.2228 127.286 66.2884C126.803 66.6958 126.334 67.1295 125.894 67.577C125.858 67.6137 125.81 67.632 125.762 67.632ZM155.008 67.6104C154.96 67.6104 154.913 67.5922 154.877 67.5553C154.435 67.1059 153.966 66.6722 153.485 66.2659C153.407 66.2005 153.397 66.084 153.463 66.0063C153.528 65.9282 153.644 65.9184 153.722 65.9844C154.213 66.3975 154.689 66.8393 155.139 67.2968C155.211 67.3695 155.21 67.4862 155.137 67.5576C155.101 67.5928 155.055 67.6104 155.008 67.6104ZM128.688 65.1665C128.629 65.1665 128.572 65.1392 128.536 65.0876C128.478 65.0041 128.499 64.8891 128.582 64.8309C129.108 64.4639 129.659 64.1174 130.217 63.8012C130.306 63.7504 130.418 63.7818 130.468 63.8707C130.519 63.9593 130.487 64.0717 130.399 64.1217C129.85 64.4329 129.31 64.7729 128.793 65.1333C128.761 65.1557 128.724 65.1665 128.688 65.1665ZM152.084 65.1462C152.048 65.1462 152.011 65.1356 151.98 65.1134C151.462 64.7548 150.921 64.4161 150.372 64.1071C150.284 64.0575 150.252 63.9448 150.302 63.8562C150.352 63.7672 150.464 63.735 150.553 63.7859C151.112 64.1004 151.663 64.445 152.189 64.8102C152.273 64.8682 152.294 64.983 152.236 65.0669C152.2 65.1185 152.143 65.1462 152.084 65.1462ZM132.017 63.2813C131.946 63.2813 131.879 63.2409 131.848 63.1724C131.807 63.0795 131.848 62.9703 131.941 62.9286C132.526 62.666 133.132 62.4284 133.74 62.2217C133.837 62.1903 133.941 62.2408 133.974 62.3369C134.006 62.4335 133.955 62.5383 133.858 62.5711C133.261 62.7738 132.667 63.0072 132.092 63.2651C132.067 63.2764 132.042 63.2813 132.017 63.2813ZM148.752 63.2717C148.727 63.2717 148.702 63.2665 148.677 63.2559C148.102 62.9998 147.507 62.7679 146.91 62.5666C146.814 62.5342 146.762 62.4294 146.794 62.3328C146.827 62.2363 146.931 62.1844 147.028 62.2172C147.636 62.4222 148.241 62.6584 148.827 62.9188C148.92 62.9602 148.962 63.0693 148.921 63.1622C148.89 63.2309 148.823 63.2717 148.752 63.2717ZM135.639 62.0513C135.555 62.0513 135.48 61.9943 135.459 61.9094C135.436 61.8104 135.497 61.711 135.596 61.6876C136.218 61.54 136.857 61.4192 137.495 61.3292C137.596 61.3159 137.689 61.3854 137.703 61.4859C137.717 61.5867 137.647 61.68 137.546 61.6944C136.92 61.7827 136.293 61.9012 135.682 62.0462C135.667 62.0499 135.653 62.0513 135.639 62.0513ZM145.129 62.0493C145.115 62.0493 145.101 62.0478 145.086 62.0444C144.471 61.8992 143.843 61.7813 143.222 61.6942C143.121 61.68 143.051 61.5869 143.065 61.4859C143.079 61.385 143.171 61.3149 143.273 61.3288C143.906 61.4174 144.544 61.5373 145.171 61.6854C145.27 61.7087 145.332 61.8078 145.308 61.9072C145.288 61.9919 145.213 62.0493 145.129 62.0493ZM141.341 61.5183C141.339 61.5183 141.336 61.5183 141.333 61.5178C140.702 61.4891 140.069 61.4887 139.435 61.5174C139.337 61.525 139.248 61.444 139.243 61.3421C139.238 61.2402 139.317 61.1541 139.418 61.1494C140.062 61.1191 140.708 61.1195 141.35 61.1496C141.451 61.1543 141.53 61.2404 141.525 61.3423C141.521 61.4412 141.439 61.5183 141.341 61.5183Z" fill="#8AD0A2"/>
<path d="M160.847 80.3977C160.751 80.3977 160.671 80.3243 160.663 80.2277C160.639 79.9245 160.609 79.6216 160.572 79.3194C160.559 79.2181 160.631 79.1261 160.733 79.1138C160.831 79.0984 160.925 79.1732 160.938 79.2739C160.976 79.5818 161.007 79.8906 161.031 80.1988C161.039 80.3003 160.963 80.3892 160.861 80.3968C160.856 80.3976 160.851 80.3977 160.847 80.3977Z" fill="#8AD0A2"/>
<path d="M136.26 88.7373C137.028 88.0937 139.946 83.2005 144.615 88.7361C145.12 88.9995 146.426 88.2612 146.26 87.7439C140.797 79.7751 133.992 87.2541 134.66 88.074C135.327 88.8941 135.365 89.4858 136.26 88.7373Z" fill="#8AD0A2"/>
<path d="M149.555 85.4192C150.574 85.2996 151.532 84.6044 151.246 83.7131C150.964 82.835 141.239 71.4746 130.408 84.281C130.275 84.4381 130.21 84.6419 130.228 84.8469C130.246 85.0519 130.345 85.2414 130.503 85.373C130.996 85.7837 131.416 86.0597 131.961 85.9924C141.873 74.7538 148.536 85.5385 149.555 85.4192Z" fill="#8AD0A2"/>
<path d="M154.617 82.0251C155.341 82.1701 156.821 81.626 156.439 80.4368C139.322 61.8127 124.078 81.333 124.637 82.1203C125.196 82.9076 126.33 82.9371 126.786 82.6714C140.415 65.1899 153.894 81.8802 154.617 82.0251Z" fill="#8AD0A2"/>
<path d="M140.643 93.8288C141.886 93.6758 142.769 92.5442 142.616 91.3014C142.463 90.0585 141.332 89.175 140.089 89.328C138.846 89.4811 137.963 90.6126 138.116 91.8555C138.269 93.0984 139.4 93.9818 140.643 93.8288Z" fill="#8AD0A2"/>
<path d="M40.6647 103.504C47.2816 103.504 52.6457 98.14 52.6457 91.5231C52.6457 84.9062 47.2816 79.5421 40.6647 79.5421C34.0478 79.5421 28.6837 84.9062 28.6837 91.5231C28.6837 98.14 34.0478 103.504 40.6647 103.504Z" fill="#018B30"/>
<path d="M40.6648 103.106C47.0617 103.106 52.2474 97.92 52.2474 91.5231C52.2474 85.1261 47.0617 79.9404 40.6648 79.9404C34.2679 79.9404 29.0822 85.1261 29.0822 91.5231C29.0822 97.92 34.2679 103.106 40.6648 103.106Z" fill="#34AD5D"/>
<path opacity="0.66" d="M31.1135 87.1615C31.0455 87.1615 30.9764 87.1461 30.9112 87.1131C30.6893 87.0012 30.6004 86.7307 30.7123 86.5087C32.6199 82.729 36.4334 80.381 40.6646 80.381C41.3405 80.381 42.0165 80.4419 42.674 80.5617C42.9184 80.6062 43.0806 80.8403 43.0361 81.0849C42.9918 81.3295 42.7583 81.4909 42.5129 81.447C41.9083 81.3367 41.2864 81.2809 40.6646 81.2809C36.775 81.2809 33.2692 83.4396 31.5154 86.9144C31.4365 87.0713 31.278 87.1615 31.1135 87.1615Z" fill="white"/>
<path opacity="0.66" d="M44.6721 100.834C49.6743 98.7624 52.0497 93.0275 49.9777 88.0253C47.9056 83.0231 42.1708 80.6477 37.1686 82.7197C32.1663 84.7917 29.7909 90.5266 31.863 95.5288C33.935 100.531 39.6698 102.906 44.6721 100.834Z" fill="white"/>
<path d="M39.9552 99.0634V97.9969C38.8434 97.9524 37.7436 97.6899 36.9627 97.3479C36.6836 97.2259 36.5415 96.9129 36.6217 96.6191L36.8927 95.6255C36.9922 95.261 37.3885 95.0725 37.7368 95.2185C38.5116 95.5435 39.4683 95.8004 40.5 95.8004C41.5709 95.8004 42.3694 95.4373 42.3694 94.693C42.3694 94.0216 41.7523 93.6222 40.264 93.223C38.1401 92.6424 36.6156 91.7167 36.6156 89.847C36.6156 88.1588 37.8498 86.8702 39.9917 86.5253V85.4586C39.9917 85.1154 40.27 84.8372 40.6132 84.8372H41.2399C41.5832 84.8372 41.8614 85.1154 41.8614 85.4586V86.4163C42.8902 86.4575 43.6392 86.6334 44.2334 86.8421C44.5378 86.9491 44.7043 87.2772 44.6198 87.5886L44.3707 88.5074C44.2746 88.8616 43.8959 89.0558 43.5527 88.9258C43.0054 88.7189 42.2319 88.5035 41.2262 88.5035C39.9557 88.5035 39.5928 89.0298 39.5928 89.5017C39.5928 90.0826 40.3551 90.4818 42.0068 90.9902C44.3664 91.6982 45.3465 92.6782 45.3465 94.4388C45.3465 96.0542 44.1485 97.5064 41.8251 97.8693V99.063C41.8251 99.4062 41.5469 99.6844 41.2037 99.6844H40.5769C40.2335 99.6848 39.9552 99.4066 39.9552 99.0634Z" fill="#55BB78"/>
<path d="M76.4694 91.1936C87.9884 91.1936 97.3264 81.8556 97.3264 70.3365C97.3264 58.8175 87.9884 49.4795 76.4694 49.4795C64.9503 49.4795 55.6123 58.8175 55.6123 70.3365C55.6123 81.8556 64.9503 91.1936 76.4694 91.1936Z" fill="#34AD5D"/>
<path d="M76.4695 90.4999C87.6054 90.4999 96.6329 81.4725 96.6329 70.3365C96.6329 59.2005 87.6054 50.173 76.4695 50.173C65.3335 50.173 56.306 59.2005 56.306 70.3365C56.306 81.4725 65.3335 90.4999 76.4695 90.4999Z" fill="#34AD5D"/>
<path opacity="0.66" d="M59.8427 62.4106C59.7746 62.4106 59.7053 62.3952 59.6403 62.3622C59.4185 62.2502 59.3295 61.9798 59.4414 61.7578C62.7057 55.2908 69.2307 51.2733 76.4696 51.2733C77.6241 51.2733 78.7813 51.3774 79.9081 51.5826C80.1527 51.6271 80.3147 51.8615 80.2702 52.1059C80.2259 52.3501 79.9924 52.511 79.747 52.4679C78.673 52.2721 77.5706 52.1731 76.4698 52.1731C69.5721 52.1731 63.3552 56.001 60.2447 62.1633C60.1656 62.3201 60.0071 62.4106 59.8427 62.4106Z" fill="white"/>
<path opacity="0.66" d="M76.9089 87.8418C86.3341 87.8418 93.9748 80.2011 93.9748 70.7759C93.9748 61.3507 86.3341 53.71 76.9089 53.71C67.4837 53.71 59.843 61.3507 59.843 70.7759C59.843 80.2011 67.4837 87.8418 76.9089 87.8418Z" fill="white"/>
<path d="M75.2341 83.4629V81.6061C73.2987 81.5286 71.3841 81.0718 70.0244 80.4766C69.5389 80.264 69.2914 79.7193 69.4308 79.2079L69.9026 77.4785C70.0756 76.8441 70.7655 76.5159 71.372 76.7701C72.7209 77.3356 74.3863 77.783 76.1822 77.783C78.0465 77.783 79.4368 77.1509 79.4368 75.8555C79.4368 74.6864 78.3624 73.9914 75.7715 73.2963C72.0744 72.2849 69.4202 70.6734 69.4202 67.4188C69.4202 64.4802 71.5688 62.2367 75.2973 61.6364V59.7795C75.2973 59.182 75.7817 58.6978 76.3792 58.6978H77.4702C78.0676 58.6978 78.5519 59.182 78.5519 59.7795V61.4466C80.3428 61.5183 81.6466 61.8244 82.6811 62.1881C83.2113 62.3743 83.5008 62.9453 83.3538 63.4876L82.92 65.087C82.7527 65.7038 82.0935 66.0416 81.4957 65.8157C80.5431 65.4555 79.1963 65.0803 77.4458 65.0803C75.2339 65.0803 74.602 65.9965 74.602 66.8181C74.602 67.8291 75.9292 68.5243 78.8045 69.4092C82.9122 70.6414 84.6184 72.3477 84.6184 75.4126C84.6184 78.2248 82.5331 80.7526 78.4885 81.3847V83.4624C78.4885 84.0599 78.0043 84.5444 77.4066 84.5444H76.3156C75.7184 84.5448 75.2341 84.0603 75.2341 83.4629Z" fill="#55BB78"/>
<path d="M72.3438 132.335C81.7426 132.335 89.3617 124.716 89.3617 115.318C89.3617 105.919 81.7426 98.2997 72.3438 98.2997C62.9451 98.2997 55.3259 105.919 55.3259 115.318C55.3259 124.716 62.9451 132.335 72.3438 132.335Z" fill="#34AD5D"/>
<path d="M72.3438 131.77C81.43 131.77 88.7958 124.404 88.7958 115.318C88.7958 106.231 81.43 98.8655 72.3438 98.8655C63.2575 98.8655 55.8917 106.231 55.8917 115.318C55.8917 124.404 63.2575 131.77 72.3438 131.77Z" fill="#34AD5D"/>
<path opacity="0.66" d="M58.7773 108.84C58.7234 108.84 58.6685 108.828 58.6168 108.802C58.4409 108.713 58.3704 108.499 58.4591 108.323C61.1208 103.05 66.4411 99.774 72.3438 99.774C73.2857 99.774 74.229 99.8589 75.1476 100.026C75.3415 100.061 75.4699 100.247 75.4346 100.441C75.3993 100.635 75.2146 100.762 75.0196 100.728C74.1431 100.569 73.2429 100.488 72.3436 100.488C66.7117 100.488 61.6356 103.613 59.0957 108.644C59.0332 108.769 58.9077 108.84 58.7773 108.84Z" fill="white"/>
<path opacity="0.66" d="M86.5826 116.827C87.2171 109.163 81.5183 102.435 73.8541 101.801C66.1899 101.166 59.4624 106.865 58.828 114.529C58.1935 122.194 63.8923 128.921 71.5565 129.555C79.2208 130.19 85.9482 124.491 86.5826 116.827Z" fill="white"/>
<path d="M71.336 126.028V124.513C69.7566 124.45 68.1947 124.077 67.0851 123.591C66.689 123.418 66.4871 122.973 66.6008 122.556L66.9857 121.145C67.1269 120.627 67.69 120.36 68.1847 120.567C69.2853 121.028 70.6442 121.394 72.1095 121.394C73.6306 121.394 74.765 120.878 74.765 119.821C74.765 118.867 73.8886 118.3 71.7743 117.733C68.7579 116.908 66.5922 115.593 66.5922 112.937C66.5922 110.539 68.3456 108.709 71.3876 108.219V106.704C71.3876 106.216 71.7829 105.821 72.2703 105.821H73.1603C73.6479 105.821 74.0429 106.216 74.0429 106.704V108.064C75.5044 108.123 76.5681 108.373 77.4124 108.669C77.8448 108.821 78.0812 109.287 77.9612 109.73L77.6071 111.035C77.4708 111.538 76.9328 111.814 76.445 111.629C75.6678 111.335 74.5688 111.029 73.1406 111.029C71.3358 111.029 70.8203 111.777 70.8203 112.447C70.8203 113.272 71.9031 113.84 74.2492 114.561C77.6008 115.567 78.9929 116.959 78.9929 119.46C78.9929 121.754 77.2914 123.817 73.9913 124.333V126.028C73.9913 126.516 73.5962 126.911 73.1086 126.911H72.2184C71.731 126.911 71.336 126.515 71.336 126.028Z" fill="#55BB78"/>
<path d="M115.89 38.4854L114.443 39.5551C114.243 39.7025 114.201 39.9838 114.348 40.1831C114.496 40.3826 114.777 40.4244 114.977 40.2772L116.424 39.21C116.624 39.0628 116.667 38.7815 116.52 38.5812C116.373 38.3809 116.091 38.3378 115.891 38.485L115.89 38.4854Z" fill="#8AD0A2"/>
<path d="M111.914 41.4344L110.473 42.5133C110.275 42.6613 110.235 42.9416 110.383 43.1392C110.531 43.3368 110.812 43.3766 111.009 43.2286L112.45 42.1524C112.648 42.0048 112.689 41.7243 112.542 41.5256C112.394 41.327 112.114 41.2858 111.915 41.4334L111.914 41.4344Z" fill="#8AD0A2"/>
<path d="M107.957 44.4113L106.526 45.5011C106.33 45.6501 106.292 45.9292 106.441 46.125C106.59 46.3206 106.871 46.3577 107.066 46.2086L108.496 45.122C108.693 44.9737 108.732 44.6941 108.583 44.4975C108.435 44.301 108.155 44.2619 107.959 44.4103L107.957 44.4113Z" fill="#8AD0A2"/>
<path d="M104.028 47.4209L102.606 48.5256C102.413 48.6757 102.378 48.9541 102.528 49.1473C102.679 49.3406 102.958 49.3749 103.151 49.2246L104.571 48.1232C104.766 47.9735 104.802 47.6949 104.652 47.5007C104.503 47.3063 104.224 47.27 104.03 47.4197L104.028 47.4209Z" fill="#8AD0A2"/>
<path d="M100.128 50.4732L98.7186 51.5945C98.528 51.7462 98.4964 52.0238 98.6481 52.2145C98.7998 52.4052 99.0787 52.4359 99.2693 52.2842L100.677 51.1662C100.869 51.0153 100.902 50.7375 100.751 50.5456C100.6 50.3537 100.322 50.3207 100.13 50.4716L100.128 50.4732Z" fill="#8AD0A2"/>
<path d="M96.2637 53.5734L94.8684 54.7136C94.6806 54.8669 94.6528 55.1437 94.8063 55.3315C94.9599 55.5193 95.2379 55.546 95.4257 55.3924L96.8183 54.2563C97.0073 54.1036 97.0368 53.8268 96.8841 53.6378C96.7313 53.4487 96.4545 53.4192 96.2655 53.5718L96.2637 53.5734Z" fill="#8AD0A2"/>
<path d="M92.4416 56.7264L91.0632 57.887C90.8784 58.0426 90.8549 58.3182 91.0105 58.5029C91.1661 58.6877 91.4419 58.7112 91.6264 58.5556L91.628 58.5544L93.0035 57.398L93.0054 57.3962C93.1905 57.2406 93.2143 56.9644 93.0587 56.7793C92.9031 56.5941 92.6269 56.5701 92.4418 56.726L92.4416 56.7264Z" fill="#8AD0A2"/>
<path d="M88.6672 59.9377L87.3079 61.1213C87.1266 61.279 87.1076 61.5541 87.2654 61.7354C87.4231 61.9166 87.698 61.9355 87.8793 61.7778L87.8811 61.7762L89.2372 60.5975L89.2392 60.5958C89.4209 60.4379 89.4402 60.1624 89.2823 59.9807C89.1244 59.7991 88.8491 59.7798 88.6672 59.9377Z" fill="#8AD0A2"/>
<path d="M84.9476 63.2134L83.61 64.4218C83.4325 64.5822 83.4185 64.8561 83.5789 65.0337C83.7392 65.2112 84.0131 65.2249 84.1907 65.0646L84.1927 65.0628L85.5268 63.8597L85.5291 63.8576C85.707 63.6973 85.7212 63.423 85.5606 63.2448C85.4001 63.0668 85.1258 63.0529 84.9478 63.2132L84.9476 63.2134Z" fill="#8AD0A2"/>
<path d="M81.2899 66.5593L79.9767 67.7941C79.8033 67.9573 79.7949 68.2302 79.9579 68.4037C80.1211 68.5771 80.394 68.5855 80.5674 68.4223L80.5695 68.4203L81.879 67.1907L81.8815 67.1885C82.0553 67.0251 82.0639 66.7518 81.9007 66.5779C81.7375 66.4041 81.464 66.3956 81.2902 66.5588L81.2899 66.5593Z" fill="#8AD0A2"/>
<path d="M77.7016 69.9805L76.4157 71.2447C76.2466 71.4108 76.2443 71.6825 76.4106 71.8516C76.5769 72.0206 76.8485 72.0228 77.0175 71.8567L77.0199 71.8545L78.3018 70.5964L78.3044 70.594C78.4738 70.4277 78.4764 70.1556 78.3102 69.9859C78.1439 69.8165 77.8716 69.8139 77.7023 69.9801L77.7016 69.9805Z" fill="#8AD0A2"/>
<path d="M74.1919 73.4836L72.9367 74.7788C72.7725 74.9484 72.7768 75.2188 72.9463 75.383C73.1157 75.5473 73.3863 75.5429 73.5503 75.3736L73.5528 75.3709L74.8035 74.0823L74.8061 74.0797C74.9708 73.9101 74.9667 73.6391 74.7971 73.4744C74.6276 73.31 74.3567 73.3139 74.1919 73.4834V73.4836Z" fill="#8AD0A2"/>
<path d="M70.7698 77.0741L69.5494 78.4027C69.3906 78.5755 69.402 78.8447 69.5749 79.0034C69.7477 79.1623 70.0167 79.1508 70.1756 78.978L70.1783 78.9749L71.3939 77.6539L71.3968 77.6509C71.5561 77.4778 71.5448 77.2082 71.3717 77.0489C71.1987 76.8896 70.9293 76.9009 70.77 77.0739L70.7698 77.0741Z" fill="#8AD0A2"/>
<path d="M67.4474 80.7582L66.2663 82.1219C66.1133 82.2988 66.1324 82.5658 66.3091 82.7189C66.4858 82.8719 66.753 82.8528 66.9062 82.6761L66.909 82.6728L68.0853 81.317L68.0883 81.3135C68.2417 81.1365 68.2226 80.8688 68.0459 80.7154C67.869 80.562 67.6012 80.5809 67.4478 80.7578L67.4474 80.7582Z" fill="#8AD0A2"/>
<path d="M64.2366 84.541L63.0993 85.9425C62.9527 86.1232 62.9803 86.3885 63.161 86.5351C63.3416 86.6815 63.6069 86.6542 63.7535 86.4734L63.7566 86.4697L64.8885 85.0771L64.8918 85.0732C65.0388 84.8924 65.0114 84.6267 64.8305 84.4797C64.6497 84.3327 64.384 84.3601 64.237 84.541H64.2366Z" fill="#8AD0A2"/>
<path d="M61.1511 88.4289L60.0636 89.8699C59.9242 90.0546 59.9609 90.3174 60.1456 90.4571C60.3303 90.5965 60.5934 90.56 60.7328 90.3751L60.7359 90.3708L61.8178 88.9399L61.8211 88.9354C61.9609 88.7504 61.9244 88.487 61.7395 88.3471C61.5546 88.2073 61.2911 88.2438 61.1513 88.4287L61.1511 88.4289Z" fill="#8AD0A2"/>
<path d="M58.2079 92.427L57.1762 93.9089C57.0445 94.0979 57.0911 94.3579 57.2801 94.4898C57.4693 94.6214 57.7293 94.5748 57.8609 94.3856L57.8642 94.3807L58.8902 92.9098L58.8937 92.9047C59.0257 92.7152 58.9792 92.4549 58.7899 92.3228C58.6007 92.1908 58.3401 92.2373 58.2081 92.4266L58.2079 92.427Z" fill="#8AD0A2"/>
<path d="M55.4243 96.5392L54.4556 98.0636C54.3326 98.2572 54.3898 98.5136 54.5833 98.6367C54.7769 98.7597 55.0334 98.7025 55.1566 98.5091L55.1599 98.5036L56.1229 96.9913L56.1264 96.9856C56.2498 96.7918 56.1926 96.5347 55.9988 96.4113C55.8051 96.2879 55.548 96.3449 55.4246 96.5386L55.4243 96.5392Z" fill="#8AD0A2"/>
<path d="M52.8203 100.769L51.9223 102.337C51.8089 102.535 51.8774 102.787 52.0754 102.901C52.2735 103.014 52.5259 102.946 52.6395 102.747L52.6429 102.741L53.5352 101.187L53.5389 101.181C53.6527 100.982 53.5842 100.73 53.386 100.616C53.1877 100.502 52.9347 100.57 52.8209 100.769L52.8203 100.769Z" fill="#8AD0A2"/>
<path d="M50.4179 105.118L49.599 106.729C49.4961 106.931 49.5769 107.179 49.7793 107.282C49.9816 107.384 50.2293 107.304 50.3322 107.101L50.3357 107.095L51.1489 105.499L51.1523 105.492C51.2557 105.289 51.1749 105.041 50.9723 104.938C50.7695 104.834 50.5215 104.915 50.4183 105.118L50.4179 105.118Z" fill="#8AD0A2"/>
<path d="M48.2416 109.584L47.5109 111.237C47.4195 111.444 47.513 111.685 47.7198 111.777C47.9265 111.868 48.1682 111.774 48.2595 111.568L48.2627 111.561L48.9879 109.924L48.9912 109.916C49.0829 109.709 48.9896 109.467 48.7825 109.375C48.5754 109.284 48.3333 109.377 48.2416 109.584Z" fill="#8AD0A2"/>
<path d="M46.3157 114.165L45.6826 115.857C45.6037 116.068 45.7107 116.302 45.9212 116.381C46.132 116.46 46.3666 116.353 46.4453 116.142L46.4484 116.134L47.0766 114.459L47.0797 114.451C47.1588 114.24 47.052 114.005 46.841 113.926C46.63 113.846 46.3949 113.953 46.3157 114.164V114.165Z" fill="#8AD0A2"/>
<path d="M44.6648 118.854L44.1381 120.583C44.0729 120.797 44.1934 121.023 44.4077 121.088C44.6217 121.153 44.8483 121.033 44.9135 120.819L44.9161 120.81L45.4385 119.1L45.4412 119.091C45.5068 118.876 45.3861 118.649 45.1716 118.584C44.9571 118.519 44.7302 118.639 44.6648 118.854V118.854Z" fill="#8AD0A2"/>
<path d="M43.3145 123.639L42.9021 125.401C42.8515 125.618 42.986 125.835 43.2029 125.885C43.4198 125.936 43.6366 125.802 43.6874 125.585L43.6897 125.575L44.0987 123.833L44.1009 123.824C44.152 123.607 44.0173 123.389 43.8 123.338C43.5828 123.287 43.3653 123.422 43.3145 123.639V123.639Z" fill="#8AD0A2"/>
<path d="M42.2869 128.507L41.9968 130.294C41.9613 130.512 42.1098 130.719 42.3286 130.754C42.5473 130.79 42.7534 130.641 42.7888 130.422L42.7905 130.413L43.0787 128.647L43.0804 128.637C43.1161 128.418 42.9674 128.211 42.7484 128.175C42.5293 128.14 42.3228 128.288 42.2869 128.507Z" fill="#8AD0A2"/>
<path d="M41.5998 133.436L41.4374 135.238C41.4176 135.458 41.5795 135.652 41.7991 135.672C42.0187 135.692 42.2129 135.529 42.2325 135.31L42.2334 135.3L42.3953 133.518L42.3964 133.508C42.4165 133.288 42.2543 133.093 42.0343 133.074C41.8143 133.053 41.6197 133.216 41.5998 133.436Z" fill="#8AD0A2"/>
<path d="M41.2672 138.401L41.2352 140.211C41.2313 140.43 41.406 140.611 41.6253 140.615C41.8447 140.619 42.0258 140.444 42.0294 140.225L42.0297 140.215L42.0627 138.426L42.0629 138.416C42.067 138.196 41.8921 138.014 41.6723 138.01C41.4525 138.006 41.2713 138.181 41.2672 138.401Z" fill="#8AD0A2"/>
<path d="M41.2934 143.377L41.3918 145.183C41.4037 145.401 41.5901 145.568 41.808 145.556C42.026 145.544 42.1931 145.358 42.1812 145.14L42.1806 145.13L42.0848 143.345L42.0842 143.335C42.0725 143.116 41.8859 142.949 41.6676 142.961C41.4492 142.972 41.2817 143.159 41.2934 143.377Z" fill="#8AD0A2"/>
<path d="M41.6764 148.335L41.9026 150.13C41.9296 150.345 42.1265 150.498 42.342 150.471C42.5574 150.444 42.7102 150.247 42.6829 150.032L42.6817 150.022L42.4594 148.247L42.4582 148.237C42.4311 148.021 42.2343 147.868 42.0184 147.895C41.8025 147.922 41.6494 148.119 41.6764 148.335V148.335Z" fill="#8AD0A2"/>
<path d="M42.4075 153.255L42.7566 155.03C42.7982 155.242 43.0039 155.38 43.2159 155.339C43.4279 155.297 43.5661 155.091 43.5242 154.879L43.5224 154.87L43.1784 153.114L43.1765 153.104C43.1349 152.892 42.929 152.753 42.7164 152.795C42.504 152.836 42.3654 153.042 42.407 153.255L42.4075 153.255Z" fill="#8AD0A2"/>
<path d="M43.4709 158.116L43.9398 159.863C43.9956 160.071 44.209 160.194 44.4167 160.138C44.6244 160.082 44.7474 159.869 44.6916 159.661L44.6892 159.652L44.2268 157.924L44.2242 157.914C44.1684 157.706 43.9548 157.582 43.7467 157.638C43.5386 157.694 43.4151 157.908 43.4707 158.116L43.4709 158.116Z" fill="#8AD0A2"/>
<path d="M44.8701 162.89L45.4628 164.599C45.5329 164.802 45.7536 164.909 45.9555 164.838C46.1577 164.768 46.2647 164.548 46.1946 164.346L46.1913 164.337L45.6063 162.645L45.6031 162.636C45.5329 162.433 45.3121 162.326 45.1096 162.396C44.9074 162.466 44.8 162.687 44.8701 162.89Z" fill="#8AD0A2"/>
<path d="M46.6051 167.552L47.3162 169.215C47.3998 169.411 47.6264 169.501 47.822 169.418C48.0176 169.334 48.1084 169.108 48.0248 168.912L48.0211 168.904L47.319 167.258L47.3152 167.249C47.2315 167.053 47.0047 166.962 46.8087 167.045C46.6127 167.129 46.5215 167.356 46.6051 167.552Z" fill="#8AD0A2"/>
<path d="M48.6597 172.08L49.4821 173.69C49.5785 173.879 49.8093 173.954 49.9977 173.857C50.1862 173.761 50.261 173.53 50.1646 173.342L50.1605 173.334L49.3478 171.739L49.3435 171.731C49.2473 171.542 49.0159 171.467 48.827 171.563C48.638 171.66 48.563 171.891 48.6593 172.08L48.6597 172.08Z" fill="#8AD0A2"/>
<path d="M51.0135 176.459L51.9392 178.011C52.047 178.193 52.2811 178.252 52.4618 178.144C52.6426 178.036 52.7019 177.802 52.594 177.621L52.5897 177.614L51.6743 176.076L51.6697 176.068C51.5619 175.887 51.3273 175.827 51.1461 175.935C50.9649 176.043 50.9054 176.278 51.0132 176.459L51.0135 176.459Z" fill="#8AD0A2"/>
<path d="M53.644 180.675L54.6646 182.167C54.7829 182.34 55.0189 182.384 55.1917 182.266C55.3646 182.147 55.4088 181.912 55.2905 181.739L55.286 181.732L54.2763 180.254L54.2716 180.247C54.1533 180.073 53.9167 180.029 53.7434 180.147C53.5702 180.266 53.5257 180.502 53.644 180.675Z" fill="#8AD0A2"/>
<path d="M56.5276 184.722L57.6343 186.15C57.7618 186.315 57.9989 186.345 58.1637 186.218C58.3283 186.09 58.3585 185.853 58.2309 185.688L58.2262 185.682L57.1304 184.266L57.1256 184.259C56.9979 184.094 56.7605 184.064 56.5952 184.192C56.43 184.319 56.3998 184.557 56.5276 184.722Z" fill="#8AD0A2"/>
<path d="M59.6407 188.594L60.8251 189.959C60.961 190.115 61.198 190.132 61.3545 189.996C61.5109 189.86 61.5277 189.623 61.3918 189.467L61.3873 189.461L60.2137 188.107L60.2088 188.102C60.0728 187.945 59.8352 187.928 59.6784 188.064C59.5213 188.2 59.5045 188.438 59.6404 188.594L59.6407 188.594Z" fill="#8AD0A2"/>
<path d="M62.9603 192.29L64.2144 193.59C64.3575 193.739 64.5939 193.743 64.7422 193.6C64.8906 193.456 64.8949 193.22 64.7518 193.072L64.7473 193.067L63.5038 191.776L63.4989 191.771C63.3556 191.622 63.1188 191.618 62.9701 191.761C62.8213 191.904 62.8168 192.141 62.9601 192.29L62.9603 192.29Z" fill="#8AD0A2"/>
<path d="M66.4648 195.81L67.7795 197.045C67.9289 197.185 68.1639 197.178 68.3043 197.028C68.4448 196.879 68.4374 196.644 68.2879 196.504L68.2834 196.499L66.979 195.272L66.9743 195.267C66.8246 195.127 66.5893 195.134 66.4484 195.283C66.3076 195.433 66.3147 195.668 66.4644 195.809L66.4648 195.81Z" fill="#8AD0A2"/>
<path d="M70.1331 199.154L71.5047 200.328C71.6597 200.461 71.8928 200.443 72.0255 200.288C72.1581 200.133 72.1401 199.899 71.9851 199.767L71.9808 199.763L70.6192 198.596L70.6147 198.592C70.4595 198.459 70.226 198.477 70.0929 198.632C69.9598 198.787 69.9779 199.021 70.1331 199.154Z" fill="#8AD0A2"/>
<path d="M73.9496 202.329L75.3708 203.442C75.5305 203.567 75.7614 203.539 75.8865 203.379C76.0115 203.219 75.9834 202.989 75.8237 202.864L75.8196 202.86L74.4082 201.753L74.4037 201.75C74.2438 201.624 74.0125 201.652 73.887 201.812C73.7616 201.972 73.7896 202.203 73.9496 202.329Z" fill="#8AD0A2"/>
<path d="M77.8977 205.337L79.3631 206.391C79.5269 206.509 79.7553 206.471 79.873 206.308C79.9907 206.144 79.9533 205.916 79.7895 205.798L79.7854 205.795L78.3295 204.746L78.3252 204.743C78.1612 204.625 77.9324 204.662 77.8143 204.826C77.6962 204.99 77.7333 205.219 77.8973 205.337L77.8977 205.337Z" fill="#8AD0A2"/>
<path d="M81.9628 208.184L83.4677 209.179C83.635 209.29 83.8605 209.244 83.9712 209.077C84.0819 208.909 84.036 208.684 83.8687 208.573L83.8648 208.57L82.3691 207.579L82.365 207.576C82.1975 207.465 81.9716 207.511 81.8604 207.679C81.7493 207.846 81.7952 208.072 81.9628 208.183V208.184Z" fill="#8AD0A2"/>
<path d="M86.133 210.872L87.6734 211.812C87.8438 211.916 88.066 211.862 88.17 211.692C88.2739 211.521 88.22 211.299 88.0496 211.195L88.0459 211.193L86.5144 210.257L86.5103 210.254C86.3397 210.15 86.1168 210.204 86.0127 210.374C85.9083 210.545 85.9622 210.768 86.1328 210.872H86.133Z" fill="#8AD0A2"/>
<path d="M90.3974 213.408L91.9696 214.293C92.1426 214.39 92.3616 214.329 92.459 214.156C92.5563 213.983 92.4951 213.764 92.322 213.667L92.3183 213.665L90.7548 212.783L90.7509 212.781C90.5776 212.683 90.3581 212.744 90.2605 212.917C90.1629 213.09 90.2242 213.31 90.3974 213.408Z" fill="#8AD0A2"/>
<path d="M94.7466 215.794L96.3475 216.625C96.5226 216.716 96.7383 216.648 96.8293 216.473C96.9201 216.298 96.8521 216.082 96.6768 215.991L96.6733 215.989L95.0808 215.16L95.0769 215.158C94.9016 215.067 94.6853 215.135 94.5941 215.311C94.5029 215.486 94.5709 215.702 94.7464 215.794L94.7466 215.794Z" fill="#8AD0A2"/>
<path d="M99.1721 218.034L100.799 218.813C100.976 218.898 101.188 218.823 101.273 218.647C101.357 218.469 101.283 218.257 101.106 218.173L101.102 218.171L99.4835 217.394L99.4798 217.392C99.3025 217.307 99.0898 217.382 99.0048 217.559C98.9197 217.736 98.9943 217.949 99.1717 218.034H99.1721V218.034Z" fill="#8AD0A2"/>
<path d="M103.667 220.132L105.317 220.859C105.496 220.938 105.704 220.857 105.783 220.679C105.862 220.5 105.781 220.291 105.602 220.213L105.599 220.211L103.956 219.485L103.953 219.484C103.774 219.405 103.565 219.486 103.486 219.665C103.407 219.843 103.488 220.052 103.666 220.132L103.667 220.132Z" fill="#8AD0A2"/>
<path d="M108.224 222.088L109.896 222.765C110.075 222.838 110.28 222.751 110.353 222.572C110.426 222.392 110.339 222.187 110.159 222.114L110.156 222.113L108.492 221.437L108.489 221.436C108.308 221.363 108.103 221.45 108.03 221.63C107.957 221.81 108.044 222.015 108.224 222.088Z" fill="#8AD0A2"/>
<path d="M112.839 223.906L114.53 224.532C114.711 224.599 114.912 224.507 114.979 224.326C115.046 224.145 114.954 223.944 114.772 223.877L114.769 223.876L113.086 223.251L113.082 223.249C112.901 223.182 112.699 223.274 112.632 223.456C112.565 223.637 112.657 223.838 112.838 223.906H112.839Z" fill="#8AD0A2"/>
<path d="M117.505 225.585L119.214 226.161C119.396 226.222 119.593 226.125 119.654 225.943C119.715 225.761 119.618 225.564 119.436 225.502L119.433 225.501L117.731 224.926L117.728 224.925C117.546 224.864 117.348 224.961 117.287 225.143C117.225 225.326 117.323 225.523 117.505 225.585Z" fill="#8AD0A2"/>
<path d="M122.219 227.125L123.944 227.651C124.127 227.706 124.32 227.603 124.375 227.421C124.431 227.238 124.328 227.045 124.145 226.99L124.142 226.989L122.424 226.464L122.421 226.463C122.238 226.407 122.045 226.51 121.989 226.693C121.933 226.876 122.036 227.069 122.219 227.125L122.219 227.125Z" fill="#8AD0A2"/>
<path d="M126.977 228.525L128.717 228.999C128.9 229.049 129.088 228.941 129.138 228.758C129.188 228.575 129.08 228.387 128.897 228.337L128.894 228.336L127.161 227.862L127.158 227.862C126.974 227.811 126.785 227.919 126.735 228.103C126.685 228.286 126.793 228.475 126.976 228.525L126.977 228.525Z" fill="#8AD0A2"/>
<path d="M131.774 229.783L133.528 230.204C133.711 230.248 133.895 230.136 133.939 229.952C133.984 229.769 133.871 229.585 133.687 229.54L133.684 229.54L131.938 229.119L131.934 229.118C131.751 229.074 131.566 229.186 131.522 229.37C131.477 229.554 131.59 229.739 131.774 229.783L131.774 229.783Z" fill="#8AD0A2"/>
<path d="M136.608 230.894L138.374 231.261C138.557 231.299 138.737 231.181 138.775 230.997C138.813 230.814 138.695 230.634 138.512 230.596L138.508 230.595L136.75 230.229L136.746 230.228C136.562 230.19 136.382 230.308 136.344 230.492C136.306 230.676 136.423 230.856 136.607 230.894H136.608Z" fill="#8AD0A2"/>
<path d="M141.474 231.853L143.251 232.163C143.434 232.195 143.609 232.072 143.641 231.888C143.673 231.705 143.55 231.53 143.366 231.498L143.363 231.497L141.594 231.188L141.59 231.187C141.406 231.155 141.231 231.278 141.199 231.462C141.166 231.646 141.289 231.821 141.473 231.853H141.474Z" fill="#8AD0A2"/>
<path d="M146.367 232.654L148.151 232.913C148.334 232.939 148.504 232.812 148.531 232.629C148.558 232.446 148.431 232.276 148.247 232.249L148.245 232.249L146.467 231.989L146.464 231.989C146.281 231.962 146.11 232.089 146.083 232.273C146.056 232.457 146.184 232.627 146.367 232.654H146.367Z" fill="#8AD0A2"/>
<path d="M151.277 233.331L153.066 233.55C153.249 233.572 153.415 233.442 153.437 233.259C153.46 233.077 153.33 232.91 153.147 232.888L153.145 232.888L151.361 232.668L151.359 232.668C151.175 232.645 151.009 232.775 150.986 232.959C150.964 233.142 151.094 233.309 151.277 233.331L151.277 233.331Z" fill="#8AD0A2"/>
<path d="M156.201 233.897L157.995 234.074C158.177 234.093 158.339 233.959 158.357 233.777C158.375 233.595 158.242 233.433 158.06 233.415L158.057 233.414L156.27 233.236L156.267 233.236C156.084 233.217 155.921 233.351 155.903 233.533C155.885 233.716 156.018 233.878 156.201 233.897H156.201Z" fill="#8AD0A2"/>
<path d="M161.137 234.348L162.935 234.483C163.116 234.496 163.274 234.36 163.288 234.179C163.301 233.998 163.165 233.84 162.984 233.826L162.981 233.826L161.19 233.69L161.187 233.69C161.005 233.676 160.846 233.812 160.833 233.994C160.819 234.176 160.955 234.334 161.137 234.348H161.137Z" fill="#8AD0A2"/>
<path d="M166.083 234.681L167.883 234.772C168.063 234.781 168.217 234.642 168.226 234.461C168.235 234.281 168.096 234.127 167.916 234.118H167.913L166.119 234.026L166.116 234.025C165.935 234.016 165.781 234.155 165.771 234.336C165.762 234.517 165.901 234.671 166.082 234.681L166.083 234.681Z" fill="#8AD0A2"/>
<path d="M171.037 234.891L172.837 234.937C173.017 234.942 173.166 234.8 173.171 234.62C173.175 234.441 173.034 234.291 172.854 234.286H172.851L171.057 234.239H171.054C170.874 234.235 170.724 234.377 170.719 234.557C170.714 234.737 170.857 234.887 171.037 234.891Z" fill="#8AD0A2"/>
<path d="M175.991 234.977L177.794 234.976C177.973 234.976 178.117 234.831 178.117 234.653C178.117 234.474 177.972 234.329 177.794 234.329H177.791L175.994 234.329H175.991C175.812 234.329 175.667 234.474 175.667 234.653C175.667 234.832 175.812 234.977 175.991 234.977H175.991Z" fill="#8AD0A2"/>
<path d="M180.948 234.933L182.75 234.885C182.928 234.88 183.068 234.732 183.063 234.555C183.058 234.378 182.911 234.238 182.733 234.242L182.73 234.242L180.935 234.289H180.932C180.754 234.294 180.613 234.442 180.618 234.619C180.622 234.797 180.77 234.937 180.948 234.933V234.933Z" fill="#8AD0A2"/>
<path d="M185.902 234.758L187.702 234.661C187.878 234.652 188.013 234.501 188.004 234.325C187.995 234.149 187.844 234.014 187.668 234.023L187.665 234.024L185.871 234.119H185.868C185.692 234.128 185.556 234.279 185.565 234.455C185.575 234.632 185.725 234.768 185.902 234.758H185.902Z" fill="#8AD0A2"/>
<path d="M190.85 234.449L192.646 234.302C192.821 234.288 192.951 234.135 192.937 233.96C192.923 233.785 192.769 233.655 192.595 233.67L192.592 233.67L190.801 233.814L190.798 233.815C190.623 233.829 190.492 233.982 190.507 234.157C190.521 234.332 190.674 234.463 190.849 234.449H190.85Z" fill="#8AD0A2"/>
<path d="M195.787 234.002L197.578 233.805C197.751 233.786 197.876 233.631 197.857 233.458C197.838 233.284 197.683 233.159 197.509 233.178L197.506 233.179L195.721 233.373L195.718 233.373C195.544 233.392 195.419 233.549 195.438 233.722C195.456 233.896 195.613 234.021 195.786 234.002H195.787Z" fill="#8AD0A2"/>
<path d="M200.709 233.417L202.494 233.169C202.665 233.145 202.785 232.987 202.761 232.815C202.738 232.644 202.579 232.524 202.408 232.548L202.405 232.548L200.626 232.794L200.622 232.794C200.45 232.818 200.33 232.977 200.354 233.148C200.378 233.32 200.536 233.44 200.708 233.417L200.709 233.417Z" fill="#8AD0A2"/>
<path d="M205.612 232.691L207.39 232.392C207.559 232.363 207.674 232.203 207.645 232.033C207.617 231.863 207.456 231.749 207.286 231.777L207.283 231.778L205.512 232.075L205.509 232.075C205.339 232.104 205.224 232.264 205.252 232.434C205.281 232.604 205.442 232.719 205.612 232.691Z" fill="#8AD0A2"/>
<path d="M210.493 231.822L212.261 231.472C212.428 231.438 212.537 231.275 212.504 231.108C212.471 230.94 212.308 230.831 212.14 230.865L212.137 230.865L210.375 231.213L210.372 231.214C210.204 231.247 210.095 231.41 210.128 231.578C210.161 231.747 210.324 231.856 210.492 231.823L210.493 231.822Z" fill="#8AD0A2"/>
<path d="M215.345 230.812L217.102 230.409C217.268 230.371 217.371 230.206 217.333 230.041C217.295 229.875 217.13 229.772 216.965 229.81L216.962 229.81L215.211 230.21L215.208 230.211C215.042 230.249 214.938 230.414 214.976 230.58C215.014 230.746 215.179 230.85 215.345 230.812H215.345Z" fill="#8AD0A2"/>
<path d="M220.166 229.658L221.911 229.203C222.074 229.161 222.172 228.994 222.129 228.831C222.087 228.668 221.92 228.57 221.756 228.612L221.753 228.613L220.015 229.065L220.012 229.066C219.848 229.108 219.75 229.275 219.792 229.439C219.835 229.602 220.002 229.701 220.166 229.658H220.166Z" fill="#8AD0A2"/>
<path d="M224.951 228.362L226.681 227.855C226.842 227.808 226.934 227.639 226.887 227.479C226.84 227.318 226.671 227.226 226.51 227.272L226.507 227.273L224.783 227.777L224.78 227.778C224.619 227.825 224.526 227.994 224.573 228.155C224.621 228.316 224.789 228.409 224.951 228.362H224.951Z" fill="#8AD0A2"/>
<path d="M229.695 226.923L231.409 226.365C231.567 226.314 231.654 226.143 231.603 225.985C231.551 225.827 231.381 225.741 231.223 225.792L231.22 225.793L229.511 226.347L229.508 226.348C229.349 226.4 229.263 226.57 229.314 226.729C229.365 226.888 229.536 226.975 229.695 226.923L229.695 226.923Z" fill="#8AD0A2"/>
<path d="M234.394 225.344L236.091 224.735C236.247 224.679 236.328 224.508 236.272 224.352C236.216 224.196 236.044 224.115 235.889 224.171L235.886 224.172L234.195 224.777L234.191 224.779C234.035 224.834 233.954 225.006 234.01 225.162C234.066 225.318 234.238 225.4 234.394 225.344H234.394Z" fill="#8AD0A2"/>
<path d="M239.044 223.625L240.722 222.967C240.875 222.906 240.95 222.734 240.89 222.581C240.83 222.428 240.658 222.353 240.505 222.413L240.502 222.414L238.83 223.069L238.827 223.07C238.673 223.13 238.598 223.303 238.658 223.457C238.718 223.61 238.891 223.686 239.044 223.625Z" fill="#8AD0A2"/>
<path d="M243.645 221.786L245.308 221.099C245.459 221.037 245.531 220.864 245.468 220.713C245.406 220.563 245.233 220.491 245.081 220.554L243.42 221.237C243.269 221.299 243.196 221.472 243.257 221.623C243.319 221.775 243.491 221.848 243.643 221.786L243.645 221.786Z" fill="#8AD0A2"/>
<path d="M248.212 219.879L249.867 219.172C250.016 219.108 250.085 218.936 250.021 218.787C249.958 218.638 249.784 218.569 249.635 218.633L247.982 219.338C247.832 219.401 247.762 219.573 247.825 219.723C247.888 219.873 248.06 219.943 248.21 219.88L248.212 219.879Z" fill="#8AD0A2"/>
<path d="M252.758 217.92L254.406 217.197C254.554 217.132 254.621 216.961 254.556 216.813C254.492 216.666 254.319 216.599 254.172 216.663L252.524 217.384C252.376 217.448 252.308 217.621 252.372 217.768C252.436 217.916 252.609 217.985 252.757 217.92L252.758 217.92Z" fill="#8AD0A2"/>
<path d="M257.288 215.922L258.932 215.188C259.078 215.122 259.144 214.951 259.078 214.805C259.013 214.659 258.842 214.594 258.696 214.659L257.052 215.391C256.905 215.456 256.839 215.628 256.904 215.774C256.969 215.921 257.14 215.987 257.287 215.922L257.288 215.922Z" fill="#8AD0A2"/>
<path d="M261.807 213.897L263.448 213.156C263.593 213.091 263.658 212.921 263.592 212.776C263.527 212.631 263.357 212.567 263.212 212.632L261.57 213.371C261.425 213.436 261.36 213.607 261.425 213.752C261.49 213.897 261.661 213.962 261.806 213.897H261.807Z" fill="#8AD0A2"/>
<path d="M266.318 211.859L267.959 211.117C268.103 211.052 268.166 210.883 268.101 210.739C268.036 210.595 267.867 210.531 267.724 210.597L266.082 211.337C265.938 211.402 265.874 211.572 265.939 211.716C266.004 211.86 266.174 211.924 266.318 211.859L266.318 211.859Z" fill="#8AD0A2"/>
<path d="M270.829 209.821L272.471 209.082C272.614 209.018 272.678 208.85 272.614 208.707C272.549 208.564 272.382 208.501 272.239 208.565L270.596 209.303C270.453 209.367 270.389 209.535 270.453 209.678C270.517 209.822 270.685 209.885 270.828 209.821L270.829 209.821Z" fill="#8AD0A2"/>
<path d="M275.346 207.794L276.991 207.063C277.133 207 277.198 206.834 277.135 206.692C277.072 206.55 276.906 206.485 276.763 206.548L275.117 207.279C274.974 207.342 274.91 207.509 274.973 207.651C275.036 207.793 275.203 207.858 275.346 207.795L275.346 207.794Z" fill="#8AD0A2"/>
<path d="M279.874 205.793L281.523 205.074C281.665 205.013 281.73 204.849 281.669 204.707C281.608 204.565 281.442 204.5 281.301 204.562L279.649 205.28C279.507 205.341 279.442 205.506 279.504 205.648C279.566 205.79 279.731 205.855 279.873 205.794L279.874 205.793Z" fill="#8AD0A2"/>
<path d="M284.415 203.831L286.071 203.129C286.212 203.07 286.279 202.908 286.219 202.766C286.16 202.625 285.997 202.558 285.855 202.618L284.197 203.319C284.055 203.379 283.989 203.542 284.049 203.683C284.108 203.825 284.272 203.891 284.413 203.831L284.415 203.831Z" fill="#8AD0A2"/>
<path d="M288.975 201.92L290.639 201.241C290.78 201.184 290.849 201.023 290.792 200.882C290.735 200.741 290.574 200.673 290.432 200.73L288.765 201.409C288.624 201.467 288.556 201.628 288.613 201.769C288.671 201.911 288.832 201.978 288.973 201.921L288.975 201.92Z" fill="#8AD0A2"/>
<path d="M293.559 200.075L295.233 199.422C295.374 199.368 295.445 199.21 295.391 199.069C295.337 198.928 295.177 198.857 295.036 198.912L293.359 199.564C293.217 199.619 293.148 199.778 293.202 199.919C293.257 200.06 293.416 200.13 293.558 200.075L293.559 200.075Z" fill="#8AD0A2"/>
<path d="M298.175 198.306L299.86 197.685C300.001 197.634 300.074 197.479 300.023 197.338C299.972 197.197 299.815 197.124 299.674 197.175L297.985 197.796C297.844 197.848 297.771 198.004 297.823 198.145C297.875 198.286 298.032 198.359 298.173 198.307L298.175 198.306Z" fill="#8AD0A2"/>
<path d="M302.822 196.629L304.52 196.045L304.522 196.044C304.663 195.996 304.738 195.842 304.69 195.701C304.641 195.56 304.488 195.486 304.347 195.534L302.644 196.119C302.503 196.167 302.428 196.321 302.477 196.462C302.525 196.603 302.679 196.678 302.82 196.63L302.822 196.629Z" fill="#8AD0A2"/>
<path d="M307.504 195.057L309.216 194.514L309.219 194.514C309.36 194.469 309.437 194.319 309.393 194.178C309.348 194.037 309.198 193.959 309.057 194.004L307.34 194.547C307.199 194.591 307.12 194.742 307.165 194.883C307.21 195.024 307.36 195.103 307.502 195.058L307.504 195.057Z" fill="#8AD0A2"/>
<path d="M312.226 193.604L313.953 193.112L313.957 193.111C314.098 193.071 314.18 192.924 314.139 192.783C314.099 192.641 313.953 192.56 313.811 192.6L312.076 193.093C311.935 193.133 311.853 193.28 311.893 193.422C311.933 193.563 312.08 193.645 312.222 193.605L312.222 193.605L312.226 193.604Z" fill="#8AD0A2"/>
<path d="M316.992 192.315L318.738 191.897L318.742 191.897C318.884 191.863 318.971 191.72 318.937 191.579C318.904 191.437 318.761 191.35 318.62 191.384L316.866 191.802C316.723 191.836 316.636 191.979 316.67 192.121C316.704 192.263 316.846 192.351 316.988 192.316L316.988 192.316L316.992 192.315Z" fill="#8AD0A2"/>
<path d="M321.809 191.232L323.572 190.89L323.576 190.889C323.717 190.862 323.81 190.724 323.783 190.583C323.755 190.441 323.618 190.348 323.476 190.376L321.705 190.718C321.563 190.745 321.47 190.883 321.497 191.025C321.525 191.167 321.662 191.26 321.805 191.233L321.809 191.232Z" fill="#8AD0A2"/>
<path d="M326.669 190.36L328.445 190.096L328.449 190.095C328.591 190.075 328.689 189.942 328.668 189.801C328.647 189.659 328.515 189.561 328.373 189.582L326.588 189.845C326.446 189.867 326.348 189.999 326.369 190.141C326.39 190.283 326.522 190.381 326.664 190.36L326.669 190.36Z" fill="#8AD0A2"/>
<path d="M123.939 28.6941L124.822 35.1842L128.838 31.7957L123.939 28.6941Z" fill="#34AD5D"/>
<path d="M152.616 20.9968L137.182 38.7561C136.887 39.096 136.465 39.3012 136.015 39.3242C135.566 39.3472 135.126 39.1862 134.797 38.878L117.55 22.71C117.353 22.5248 117.287 22.2384 117.385 21.9858C117.482 21.7332 117.723 21.5651 117.994 21.5608L152.616 20.9968Z" fill="#8AD0A2"/>
<path d="M123.941 28.6947L152.616 20.9968L126.716 31.3125L126.885 33.1227L123.941 28.6947Z" fill="#34AD5D"/>
<path d="M128.374 32.8523L124.822 35.1842L126.716 31.3125L128.374 32.8523Z" fill="#34AD5D"/>
<path d="M262.996 232.791C262.996 226.911 258.229 222.144 252.349 222.144H247.55C241.67 222.144 236.903 226.911 236.903 232.791V261.434C236.903 267.314 241.67 272.081 247.55 272.081H252.349C258.229 272.081 262.996 267.314 262.996 261.434V232.791Z" fill="#018B30"/>
<path d="M409.209 232.791C409.209 226.911 404.442 222.144 398.561 222.144H393.763C387.882 222.144 383.115 226.911 383.115 232.791V261.434C383.115 267.314 387.882 272.081 393.763 272.081H398.561C404.442 272.081 409.209 267.314 409.209 261.434V232.791Z" fill="#018B30"/>
<path d="M250.608 179.614C250.289 179.543 249.949 179.26 249.949 178.933V176.745C249.949 174.637 248.874 172.708 246.992 171.759C244.563 170.535 241.763 170.492 239.298 171.643L234.68 173.761C232.519 174.771 231.054 176.94 231.054 179.324V180.993C231.054 184.064 233.436 186.662 236.479 187.076L255.179 189.615L257.457 181.123L250.608 179.614Z" fill="#55BB78"/>
<path d="M395.812 179.614C396.131 179.543 396.161 179.26 396.161 178.933V176.745C396.161 174.637 397.546 172.708 399.429 171.759C401.857 170.535 404.812 170.492 407.276 171.643L411.663 173.761C413.823 174.771 415.056 176.94 415.056 179.324V180.993C415.056 184.064 412.984 186.662 409.942 187.076L391.395 189.615L389.041 181.123L395.812 179.614Z" fill="#55BB78"/>
<path d="M409.63 198.388C406.931 189.277 392.985 180.976 392.985 180.976C392.985 180.976 381.288 145.214 368.691 145.214C358.576 145.214 334.287 145.214 325.108 145.214C325.108 145.214 323.761 145.214 321.509 145.214C312.319 145.214 287.987 145.214 277.87 145.214C265.273 145.214 253.576 180.976 253.576 180.976C253.576 180.976 239.63 189.339 236.93 198.45C234.957 205.111 239.236 230.793 241.679 244.013C242.541 248.673 246.939 252.286 252.075 252.286H321.508H325.108H394.486C399.622 252.286 404.02 248.642 404.881 243.981C407.325 230.761 411.604 205.049 409.63 198.388Z" fill="#34AD5D"/>
<path d="M407.879 236.908C407.094 236.01 405.897 235.64 404.63 235.64H241.932C240.673 235.64 239.482 236.003 238.697 236.892C237.911 237.781 237.616 238.866 237.895 239.975L240.558 250.64C240.986 252.342 242.661 253.636 244.594 253.636H401.834C403.75 253.636 405.416 252.323 405.86 250.64L408.656 240.077C408.95 238.964 408.664 237.806 407.879 236.908Z" fill="#8AD0A2"/>
<path d="M279.339 220.245C279.339 220.245 275.29 208.098 270.191 207.048C265.092 205.998 243.498 201.499 243.048 205.249C242.598 208.998 238.249 221.894 251.146 223.094C264.043 224.294 281.416 225.281 279.339 220.245Z" fill="#8AD0A2"/>
<path d="M367.222 220.245C367.222 220.245 371.271 208.098 376.37 207.048C381.468 205.998 403.063 201.499 403.513 205.249C403.963 208.998 408.312 221.894 395.415 223.094C382.518 224.294 365.145 225.281 367.222 220.245Z" fill="#8AD0A2"/>
<path d="M364.314 210.007C363.895 209.362 363.178 209.097 362.409 209.097H284.152C283.355 209.097 282.617 209.39 282.206 210.073C281.795 210.756 281.772 211.542 282.146 212.246L286.548 220.642C288.182 223.723 291.384 225.743 294.872 225.743H352.372C356.09 225.743 359.461 223.431 360.976 220.034L364.483 212.169C364.797 211.466 364.733 210.653 364.314 210.007Z" fill="#B0DFC0"/>
<path d="M385.624 183.887C385.115 184.661 384.252 185.253 383.32 185.253H263.238C262.297 185.253 261.42 184.647 260.916 183.851C260.412 183.055 260.349 181.994 260.754 181.139C263.48 175.394 268.596 164.727 271.461 158.775C271.592 158.506 271.736 158.358 271.898 158.111C273.283 155.911 275.717 154.661 278.358 154.661H369.167C371.835 154.661 374.278 155.922 375.659 158.14C375.852 158.455 376.028 158.721 376.176 159.063L385.84 181.251C386.213 182.101 386.132 183.109 385.624 183.887Z" fill="#8AD0A2"/>
<path d="M375.659 158.14C369.297 159.395 350.605 162.46 322.411 162.46C293.982 162.46 277.301 159.363 271.898 158.126C273.283 155.926 275.717 154.661 278.358 154.661H369.167C371.835 154.661 374.278 155.922 375.659 158.14Z" fill="#8AD0A2"/>
<path d="M277.404 203.721C277.292 203.721 277.181 203.68 277.094 203.598L261.53 188.869C261.349 188.698 261.341 188.413 261.512 188.233C261.683 188.052 261.968 188.045 262.148 188.215L277.713 202.944C277.893 203.115 277.901 203.399 277.73 203.58C277.642 203.674 277.523 203.721 277.404 203.721Z" fill="#8AD0A2"/>
<path d="M368.011 203.721C367.892 203.721 367.773 203.674 367.684 203.58C367.514 203.399 367.522 203.115 367.702 202.944L383.267 188.215C383.447 188.045 383.732 188.052 383.903 188.233C384.074 188.413 384.066 188.698 383.885 188.869L368.32 203.598C368.234 203.68 368.122 203.721 368.011 203.721Z" fill="#8AD0A2"/>
<path d="M100.744 270.169C100.745 270.081 100.739 269.991 100.717 269.9C99.3759 264.585 92.7219 261.275 92.7219 261.275L90.0852 261.482C88.5693 266.166 88.764 269.039 89.0074 270.319C89.0142 270.355 89.025 270.389 89.0347 270.423C91.2098 270.618 95.6866 270.745 100.744 270.169Z" fill="#55BB78"/>
<path d="M89.0345 270.423C89.152 270.851 89.4676 271.184 89.8713 271.268C92.9653 271.919 97.8829 271.395 99.9476 271.125C100.403 271.066 100.736 270.645 100.744 270.169C95.6865 270.745 91.2097 270.618 89.0345 270.423Z" fill="#55BB78"/>
<path d="M89.025 257.554L90.1418 262.93C90.2236 263.324 90.5262 263.619 90.893 263.653C91.3418 263.696 91.9807 263.72 92.6231 263.626C93.1992 263.541 93.6004 262.956 93.4981 262.328L92.7219 257.555H89.025V257.554Z" fill="#019935"/>
<path d="M112.163 270.355C109.251 270.274 107.745 269.931 106.966 269.613C106.964 269.902 106.966 270.197 106.975 270.502C106.985 270.828 107.227 271.089 107.524 271.087L123.513 270.984C124.023 270.981 124.321 270.389 124.1 269.921C122.004 270.094 116.665 270.481 112.163 270.355Z" fill="#34AD5D"/>
<path d="M124.1 269.921C124.081 269.88 124.064 269.838 124.037 269.8C122.625 267.827 119.029 263.898 111.922 262.194L108.513 262.087C108.513 262.087 106.995 264.725 106.966 269.613C107.745 269.931 109.251 270.274 112.163 270.355C116.665 270.481 122.004 270.094 124.1 269.921Z" fill="#34AD5D"/>
<path d="M107.729 257.079C107.783 257.33 108.492 261.155 108.767 262.638C108.832 262.991 109.107 263.249 109.433 263.268C110.017 263.3 110.958 263.304 111.768 263.084C112.205 262.966 112.498 262.52 112.467 262.026L112.086 255.976L107.729 257.079Z" fill="#8AD0A2"/>
<path d="M105.145 186.45C105.145 186.45 109.835 218.675 113.22 257.023C113.283 257.738 112.713 258.359 112.012 258.507C110.978 258.725 109.458 258.983 108.2 258.948C107.528 258.929 106.967 258.431 106.854 257.769C105.701 251.007 97.474 214.72 95.3147 206.733C95.3147 206.733 92.8345 240.658 93.6273 258.259C93.647 258.696 93.3265 259.076 92.8915 259.126C92.2313 259.202 91.1752 259.261 89.8312 259.118C89.3211 259.064 88.9094 258.678 88.8366 258.17C88.0153 252.448 83.2886 218.386 83.4895 193.85C83.5008 192.466 85.1129 181.098 85.1129 181.098L105.145 186.45Z" fill="#55BB78"/>
<path d="M145.345 155.64C145.345 155.64 144.032 152.184 142.498 152.5C140.965 152.817 139.287 153.995 139.287 153.995L136.824 157.326C136.824 157.326 143.739 160.051 146.172 158.489C146.172 158.489 153.235 159.71 162.156 158.246C160.864 155.52 160.095 152.791 159.643 150.672C155.125 153.229 150.258 155.14 145.345 155.64Z" fill="#8AD0A2"/>
<path d="M182.762 130.572C182.762 130.572 172.649 143.31 159.643 150.672C160.095 152.791 160.864 155.52 162.156 158.246C168.902 157.139 176.711 154.497 183.331 148.626L182.762 130.572Z" fill="#55BB78"/>
<path d="M106.963 132.257L107.591 149.12C109.374 149.733 111.072 150.211 112.689 150.567C113.7 147.311 115.927 143.315 117.751 140.344C111.051 137.976 106.963 132.257 106.963 132.257Z" fill="#B0DFC0"/>
<path d="M140.411 131.97C131.221 141.892 123.782 142.476 117.75 140.344C115.927 143.315 113.7 147.311 112.689 150.567C137.231 155.978 143.01 133.416 143.01 133.416L140.411 131.97Z" fill="#B0DFC0"/>
<path d="M84.408 188.307C83.9258 188.136 83.5897 187.698 83.5372 187.189C82.9135 181.139 79.8939 143.623 98.9576 128.191C98.9576 128.191 100.051 125.331 109.037 132.362C118.023 139.393 113.212 146.763 111.061 156.928C108.457 169.228 103.889 179.283 105.91 186.852C106.05 187.375 105.775 187.923 105.268 188.11C98.2871 190.683 91.3336 190.768 84.408 188.307Z" fill="#B0DFC0"/>
<path d="M106.393 116.951C106.388 117.485 98.7753 128.297 98.7753 128.297C98.7753 128.297 100.142 130.988 106.665 133.173L112.295 121.596L106.393 116.951Z" fill="#8AD0A2"/>
<path d="M103.4 154.073C103.4 154.073 117.842 166.169 133.438 160.891C134.405 160.563 135.462 160.635 136.366 161.111L140.849 163.48C142.731 164.473 145.062 163.821 146.154 161.994C146.776 160.952 147.308 159.762 147.414 158.622L138.641 155.071L139.288 153.995C139.288 153.995 135.004 153.632 133.883 156.702C133.883 156.702 125.724 160.095 111.966 144.961C111.966 144.961 105.722 150.27 103.4 154.073Z" fill="#B0DFC0"/>
<path d="M102.622 153.948C102.575 153.948 102.526 153.934 102.484 153.906C96.403 149.797 93.5423 143.165 93.514 143.099C93.4609 142.972 93.5195 142.828 93.645 142.775C93.7711 142.721 93.9156 142.78 93.9691 142.905C93.9968 142.971 96.8043 149.471 102.761 153.496C102.874 153.572 102.904 153.726 102.827 153.839C102.78 153.91 102.702 153.948 102.622 153.948Z" fill="#019935"/>
<path d="M111.68 144.756C111.599 144.756 111.52 144.716 111.472 144.643C111.454 144.614 109.596 141.722 106.058 135.386C104.97 133.438 103.539 132.204 101.807 131.719C98.9386 130.918 96.1738 132.456 96.1466 132.471C96.0276 132.537 95.8771 132.497 95.8095 132.379C95.7422 132.26 95.7834 132.109 95.9022 132.041C96.0215 131.974 98.865 130.383 101.936 131.242C103.801 131.763 105.334 133.076 106.489 135.145C110.019 141.465 111.869 144.347 111.888 144.375C111.962 144.489 111.928 144.643 111.814 144.716C111.773 144.744 111.726 144.756 111.68 144.756Z" fill="#8AD0A2"/>
<path d="M112.387 110.755C112.387 110.755 115.096 116.977 115.277 120.243C115.459 123.509 116.163 125.628 112.387 126.285C108.611 126.943 105.43 125.062 103.706 121.809C103.706 121.809 101.006 116.796 101.612 114.743C102.218 112.691 112.387 110.755 112.387 110.755Z" fill="#8AD0A2"/>
<path d="M104.997 119.47L105.212 119.375C105.485 119.254 105.602 118.929 105.465 118.663C104.932 117.634 103.894 115.277 105.235 114.727C106.963 114.018 113.809 112.622 115.286 110.193C116.706 107.858 115.448 104.845 113.558 103.988C113.431 103.93 113.282 103.976 113.217 104.099L113.06 104.397C112.952 104.601 112.65 104.57 112.586 104.348C112.525 104.135 112.242 104.094 112.124 104.282C111.67 105.009 110.444 106.187 107.167 106.792C102.508 107.652 99.4282 109.537 99.3515 112.756C99.3466 112.96 99.1291 113.074 98.9544 112.968C98.6105 112.758 98.06 112.66 97.3244 113.278C96.045 114.354 96.5685 117.144 99.373 119.44C99.5063 119.549 99.5053 119.757 99.3609 119.851C98.8525 120.182 98.0945 120.969 100.058 122.019C102.09 123.105 103.607 123.016 104.191 122.92C104.336 122.896 104.43 122.755 104.398 122.611L103.775 119.782C103.74 119.622 103.861 119.47 104.025 119.47H104.997Z" fill="#55BB78"/>
<path d="M105.114 120.067C105.114 120.067 104.081 116.092 102.299 117.207C100.517 118.321 103.224 121.66 104.656 121.809L105.114 120.067Z" fill="#8AD0A2"/>
<path d="M136.366 161.111C136.366 161.111 140.036 164.701 140.744 164.179C140.996 163.993 141.632 163.317 142.249 162.565C142.684 162.035 142.729 161.285 142.356 160.709L141.49 159.373C140.665 158.1 138.899 157.834 137.755 158.829C137.178 159.331 136.655 160.059 136.366 161.111Z" fill="#8AD0A2"/>
<path d="M195.375 187.031C193.397 177.636 191.419 172.197 184.797 154.39C182.713 148.786 180.82 143.117 181.735 137.208L182.762 130.572C182.762 130.572 195.632 126.217 209.898 130.389C209.898 130.389 229.362 138.844 216.142 180.603C210.183 187.27 203.209 189.17 195.375 187.031Z" fill="#34AD5D"/>
<path d="M184.953 122.103L188.29 130.12C188.501 130.627 188.957 130.988 189.497 131.08C191.421 131.41 196.075 131.926 199.131 129.916C199.495 129.677 199.588 129.182 199.339 128.824L193.173 119.972L184.953 122.103Z" fill="#8AD0A2"/>
<path d="M188.404 109.837C188.264 109.968 182.489 121.309 182.489 121.309L189.034 124.469L196.105 114.534C196.105 114.534 190.75 107.628 188.404 109.837Z" fill="#8AD0A2"/>
<path d="M193.13 115.726L189.866 121.167C189.816 121.25 189.757 121.325 189.687 121.39C189.298 121.752 187.969 122.804 186.941 121.372C186.065 120.151 185.243 119.041 184.362 118.583C183.848 118.316 183.215 118.529 182.953 119.047C182.416 120.113 181.374 122.286 180.719 124.346C180.555 124.863 180.822 125.417 181.324 125.621C182.649 126.158 185.269 127.129 187.593 127.45C187.975 127.502 188.353 127.341 188.58 127.03C189.58 125.66 192.399 121.831 193.361 120.873C194.255 119.983 195.904 120.318 196.647 120.532C196.93 120.613 197.23 120.574 197.481 120.423C198.236 119.968 199.552 118.837 198.348 116.922C198.048 116.446 198.201 115.812 198.671 115.503C199.513 114.949 200.426 113.909 199.556 112.226C198.675 110.522 197.101 110.368 196.029 110.499C195.555 110.557 195.074 110.309 194.892 109.867C194.811 109.67 194.651 109.503 194.353 109.442C193.792 109.328 193.423 108.815 193.533 108.252C193.722 107.288 193.58 106.035 192.04 105.189C189.216 103.636 186.742 106.166 186.113 108.302C185.484 110.437 188.642 111.947 190.628 112.199C192.087 112.384 192.887 113.976 193.209 114.809C193.326 115.111 193.297 115.448 193.13 115.726Z" fill="#55BB78"/>
<path d="M192.135 122.872C192.135 122.872 193.39 119.197 194.998 119.332C196.605 119.467 197.871 121.068 195.878 122.868C193.4 125.108 192.135 122.872 192.135 122.872Z" fill="#8AD0A2"/>
<path d="M194.108 269.826C197.216 270.095 202.611 270.531 206.864 270.718C209.421 270.831 210.892 270.581 211.74 270.241C211.739 270.337 211.736 270.427 211.732 270.511C211.712 270.959 211.348 271.317 210.896 271.342C202.86 271.79 196.469 271.497 194.194 271.359C193.723 271.33 193.443 270.819 193.683 270.417C193.804 270.217 193.95 270.02 194.108 269.826Z" fill="#34AD5D"/>
<path d="M206.864 270.718C202.611 270.531 197.216 270.095 194.108 269.826C197.164 266.077 206.864 263.55 206.864 263.55H209.604C211.488 266.266 211.761 268.852 211.74 270.241C210.892 270.58 209.42 270.831 206.864 270.718Z" fill="#55BB78"/>
<path d="M210.065 259.077L209.808 264.15C209.781 264.7 209.369 265.161 208.819 265.24C208.272 265.318 207.539 265.328 206.761 265.07C206.283 264.91 205.928 264.507 205.84 264.016L204.954 259.077H210.065Z" fill="#019935"/>
<path d="M245.648 270.68C246.996 270.492 247.606 269.792 247.862 269.043C247.863 269.05 247.865 269.057 247.867 269.064C248.065 269.853 247.605 270.672 246.686 271.061C245.575 271.532 244.361 271.612 243.418 271.573C242.406 271.531 241.477 271.112 240.967 270.442L240.959 270.432C241.975 270.935 243.4 270.994 245.648 270.68Z" fill="#34AD5D"/>
<path d="M239.293 259.044H241.552C244.993 258.974 247.154 266.233 247.862 269.043C247.606 269.792 246.996 270.492 245.648 270.68C243.4 270.994 241.975 270.935 240.959 270.432C239.1 267.986 238.178 264.403 237.735 262.311C237.231 259.933 239.293 259.044 239.293 259.044Z" fill="#34AD5D"/>
<path d="M241.262 254.336L242.516 259.325C242.67 259.937 242.377 260.57 241.812 260.86C241.11 261.221 240.122 261.599 239.214 261.489C238.787 261.438 238.432 261.137 238.291 260.735L236.449 255.485L241.262 254.336Z" fill="#8AD0A2"/>
<path d="M242.758 255.778C241.197 257.163 236.12 257.345 236.12 257.345C217.833 213.453 210.208 201.37 210.208 201.37C212.849 217.937 210.777 260.462 210.777 260.462C207.76 261.793 203.869 260.462 203.869 260.462C203.624 233.339 199.805 204.195 194.88 185.547C207.24 185.269 213.958 182.575 216.104 180.878C226.407 197.488 242.758 255.778 242.758 255.778Z" fill="#55BB78"/>
<path d="M139.633 130.035C139.633 130.035 138.829 128.581 138.916 127.412C139.002 126.242 138.273 124.525 139.049 124.652C139.824 124.779 139.984 124.676 140.195 126.079C140.405 127.482 142.298 132.658 139.633 130.035Z" fill="#019935"/>
<path d="M145.493 121.354C145.484 121.135 145.378 120.93 145.204 120.797C145.029 120.663 144.804 120.614 144.59 120.663L139.241 121.88C139.034 121.927 138.895 122.123 138.918 122.334L140.473 136.236C140.48 136.296 140.51 136.351 140.558 136.388C140.605 136.426 140.666 136.443 140.725 136.436L145.394 135.87C145.776 135.824 146.059 135.491 146.044 135.106L145.493 121.354Z" fill="#34AD5D"/>
<path d="M143.988 122.156C143.981 122.031 143.919 121.916 143.819 121.842C143.718 121.768 143.59 121.743 143.469 121.773L139.95 122.653C139.746 122.704 139.612 122.897 139.636 123.106L140.971 134.945C140.978 135.007 141.01 135.063 141.06 135.1C141.11 135.138 141.174 135.153 141.235 135.142L144.48 134.564C144.593 134.544 144.673 134.443 144.666 134.329L143.988 122.156Z" fill="#019935"/>
<path d="M141.966 121.837C141.975 121.879 141.917 121.927 141.838 121.943L140.661 122.187C140.581 122.204 140.51 122.183 140.501 122.141L140.493 122.1C140.484 122.059 140.542 122.011 140.621 121.995L141.798 121.751C141.878 121.734 141.95 121.755 141.958 121.797L141.966 121.837Z" fill="#019935"/>
<path d="M147.35 124.886C146.486 124.568 144.795 121.641 144.471 122.604C144.147 123.567 144.608 124.886 144.471 125.295C144.335 125.705 143.399 127.979 143.82 129.026C144.124 129.781 144.625 132.104 144.88 133.339C144.965 133.749 145.326 134.043 145.745 134.044C146.164 134.044 146.525 133.75 146.61 133.34C146.644 133.176 148.215 125.205 147.35 124.886Z" fill="#8AD0A2"/>
<path d="M203.939 174.239C203.523 174.327 203.191 174.584 203.031 174.942L200.811 179.896C200.517 180.553 200.87 181.364 201.61 181.728L212.866 187.266C213.253 187.457 213.693 187.495 214.075 187.371C214.458 187.247 214.747 186.974 214.872 186.618L216.18 182.893C216.383 182.315 216.115 181.64 215.53 181.257L205.185 174.489C204.81 174.243 204.354 174.152 203.939 174.239Z" fill="#34AD5D"/>
<path d="M223.064 164.129C225.471 145.949 211.461 131.97 211.461 131.97L203.125 141.687C209.454 149.576 212.462 156.804 213.836 162.481C215.659 161.951 220.047 161.112 223.064 164.129Z" fill="#34AD5D"/>
<path d="M213.836 162.998C213.603 162.998 213.392 162.839 213.335 162.603C211.641 155.604 208.07 148.676 202.723 142.011C202.544 141.788 202.58 141.463 202.802 141.284C203.024 141.107 203.35 141.142 203.528 141.364C208.971 148.149 212.608 155.213 214.338 162.36C214.405 162.637 214.235 162.916 213.958 162.983C213.917 162.993 213.876 162.998 213.836 162.998Z" fill="#55BB78"/>
<path d="M213.836 163.156C215.114 168.433 214.979 172.37 214.785 174.25C214.712 174.958 214.142 175.512 213.431 175.562C212.624 175.618 211.526 175.692 210.544 175.749C209.464 175.811 208.266 175.129 207.465 174.559C207.056 174.268 206.527 174.721 206.756 175.168C207.354 176.338 208.871 177.379 209.917 177.991C210.297 178.214 210.226 178.783 209.802 178.903L206.932 179.717C206.607 179.809 206.363 180.077 206.302 180.409C206.241 180.741 206.375 181.079 206.646 181.28C213.252 186.177 217.53 179.348 217.53 179.348C220.774 174.335 222.451 169.434 223.064 164.804C220.047 161.787 215.659 162.626 213.836 163.156Z" fill="#8AD0A2"/>
</svg>
