<svg width="206" height="132" viewBox="0 0 206 132" fill="none" xmlns="http://www.w3.org/2000/svg">
<path d="M102.87 20.8895C102.78 20.8895 102.695 20.8363 102.66 20.7484C102.612 20.6323 102.668 20.4998 102.784 20.4523C103.067 20.3361 103.357 20.2266 103.643 20.1263C103.762 20.0855 103.891 20.1474 103.932 20.2657C103.974 20.384 103.911 20.5135 103.793 20.5548C103.514 20.6525 103.232 20.7593 102.955 20.8724C102.927 20.8839 102.898 20.8895 102.87 20.8895Z" fill="#8AD0A2"/>
<path d="M126.479 42.1193C126.458 42.1193 126.437 42.1163 126.416 42.1102C126.295 42.0753 126.226 41.9494 126.261 41.829C126.429 41.2507 126.568 40.6565 126.674 40.0626C126.696 39.9393 126.812 39.8566 126.937 39.8791C127.061 39.9011 127.143 40.019 127.121 40.1424C127.012 40.752 126.869 41.362 126.697 41.9555C126.668 42.0547 126.578 42.1193 126.479 42.1193ZM127.171 37.3578C127.171 37.3578 127.17 37.3578 127.17 37.3578C127.044 37.3568 126.944 37.2544 126.944 37.1292L126.945 36.9931C126.945 36.7942 126.942 36.5944 126.935 36.394C126.923 36.0343 126.899 35.6717 126.865 35.316C126.854 35.1913 126.945 35.0805 127.07 35.0686C127.194 35.0564 127.305 35.1482 127.317 35.2731C127.352 35.6378 127.376 36.0098 127.389 36.3787C127.395 36.5843 127.399 36.789 127.399 36.9931L127.398 37.1325C127.398 37.2572 127.296 37.3578 127.171 37.3578ZM126.559 32.5865C126.459 32.5865 126.367 32.5199 126.34 32.4187C126.183 31.8371 125.993 31.2574 125.775 30.6956C125.73 30.5787 125.788 30.4472 125.905 30.4019C126.022 30.357 126.153 30.4149 126.198 30.5316C126.422 31.1084 126.617 31.7034 126.778 32.3002C126.811 32.4212 126.74 32.5457 126.619 32.5785C126.599 32.5838 126.579 32.5865 126.559 32.5865ZM124.677 28.1616C124.6 28.1616 124.525 28.1223 124.482 28.0513C124.173 27.5348 123.832 27.0284 123.47 26.5462C123.395 26.4459 123.415 26.3037 123.515 26.2284C123.616 26.153 123.758 26.1734 123.833 26.2737C124.204 26.7684 124.554 27.288 124.871 27.8178C124.936 27.9254 124.901 28.0648 124.793 28.1293C124.757 28.1511 124.717 28.1616 124.677 28.1616ZM121.666 24.4105C121.61 24.4105 121.554 24.3899 121.51 24.3483C121.072 23.9338 120.608 23.5376 120.13 23.1708C120.03 23.0945 120.012 22.952 120.088 22.8525C120.164 22.753 120.307 22.7344 120.406 22.8106C120.896 23.187 121.373 23.5934 121.822 24.0186C121.913 24.1048 121.917 24.2485 121.831 24.3395C121.786 24.3868 121.726 24.4105 121.666 24.4105ZM117.756 21.6073C117.72 21.6073 117.684 21.5989 117.65 21.581C117.117 21.2998 116.563 21.0436 116.003 20.8198C115.887 20.7732 115.83 20.6411 115.877 20.5247C115.924 20.4084 116.055 20.3515 116.172 20.3984C116.746 20.6281 117.315 20.8908 117.862 21.1797C117.973 21.2381 118.015 21.3754 117.957 21.4864C117.916 21.5632 117.837 21.6073 117.756 21.6073ZM113.232 19.9671C113.217 19.9671 113.201 19.9655 113.185 19.9621C112.596 19.8366 111.993 19.7408 111.394 19.6777C111.269 19.6645 111.179 19.5528 111.192 19.4281C111.205 19.3034 111.314 19.2143 111.442 19.2262C112.057 19.2911 112.675 19.3893 113.279 19.5181C113.402 19.5443 113.48 19.6647 113.454 19.7875C113.431 19.894 113.337 19.9671 113.232 19.9671ZM106.609 19.8253C106.5 19.8253 106.404 19.7468 106.385 19.6358C106.364 19.5122 106.448 19.3952 106.571 19.3745C107.179 19.2726 107.801 19.2012 108.42 19.1626C108.546 19.1548 108.653 19.2498 108.661 19.3749C108.669 19.5001 108.574 19.6078 108.449 19.6156C107.845 19.6534 107.239 19.7229 106.646 19.8222C106.634 19.8244 106.621 19.8253 106.609 19.8253Z" fill="#8AD0A2"/>
<path d="M124.983 45.7217C124.946 45.7217 124.908 45.7126 124.873 45.6934C124.763 45.6328 124.724 45.4947 124.784 45.3849C124.928 45.1254 125.067 44.858 125.197 44.5901C125.252 44.4774 125.388 44.4303 125.501 44.4856C125.613 44.5404 125.66 44.6763 125.605 44.7891C125.471 45.0639 125.329 45.3384 125.182 45.6047C125.14 45.6795 125.063 45.7217 124.983 45.7217Z" fill="#8AD0A2"/>
<path d="M113.945 54.2828C113.844 54.2828 113.751 54.2148 113.725 54.1123C113.694 53.9908 113.767 53.8671 113.888 53.836C114.176 53.7623 114.466 53.6798 114.75 53.5908C114.869 53.5539 114.997 53.6201 115.034 53.7398C115.072 53.8593 115.005 53.9867 114.886 54.0241C114.593 54.1154 114.296 54.2 114.001 54.2757C113.982 54.2807 113.963 54.2828 113.945 54.2828Z" fill="#8AD0A2"/>
<path d="M109.534 54.8368C109.435 54.8368 109.337 54.836 109.238 54.8343C109.113 54.8322 109.013 54.7288 109.015 54.6034C109.017 54.4781 109.116 54.3771 109.246 54.3803C109.54 54.3854 109.835 54.3827 110.133 54.3725C110.432 54.3625 110.734 54.3446 111.03 54.3195C111.154 54.3089 111.265 54.4015 111.275 54.5265C111.286 54.6514 111.193 54.7612 111.068 54.7718C110.765 54.7976 110.455 54.8158 110.148 54.8263C109.943 54.8334 109.738 54.8368 109.534 54.8368ZM106.322 54.5432C106.308 54.5432 106.294 54.542 106.28 54.5395C105.682 54.4288 105.082 54.2854 104.499 54.1137C104.379 54.0782 104.31 53.952 104.345 53.8317C104.381 53.7115 104.508 53.6427 104.627 53.6782C105.196 53.8456 105.78 53.9852 106.363 54.093C106.486 54.1159 106.568 54.2342 106.545 54.3574C106.525 54.4669 106.429 54.5432 106.322 54.5432ZM101.826 53.0605C101.792 53.0605 101.758 53.0532 101.726 53.0376C101.18 52.771 100.641 52.4726 100.124 52.1509C100.018 52.0846 99.9851 51.9447 100.051 51.8383C100.118 51.7318 100.258 51.6996 100.364 51.7655C100.868 52.0791 101.393 52.3698 101.925 52.6296C102.038 52.6845 102.085 52.8205 102.03 52.9332C101.99 53.0137 101.91 53.0605 101.826 53.0605ZM97.8886 50.4325C97.8354 50.4325 97.7818 50.4137 97.7385 50.3757C97.282 49.9731 96.8413 49.5426 96.4289 49.0964C96.3438 49.0043 96.3495 48.8607 96.4415 48.7756C96.5334 48.6904 96.677 48.696 96.7623 48.7882C97.1643 49.2232 97.5938 49.6428 98.0389 50.0352C98.133 50.1181 98.1419 50.2616 98.059 50.3557C98.0141 50.4066 97.9516 50.4325 97.8886 50.4325ZM94.789 46.8563C94.7149 46.8563 94.6425 46.8202 94.5988 46.7537C94.2653 46.2445 93.9547 45.7126 93.6756 45.173C93.618 45.0616 93.6616 44.9247 93.7729 44.8671C93.8843 44.8091 94.0212 44.8532 94.0788 44.9645C94.3508 45.4905 94.6536 46.0088 94.9786 46.5051C95.0473 46.61 95.0179 46.7506 94.9131 46.8194C94.8747 46.8443 94.8317 46.8563 94.789 46.8563ZM92.7524 42.5848C92.6563 42.5848 92.5671 42.5233 92.5363 42.4267C92.3515 41.8481 92.1944 41.2523 92.0697 40.6563C92.044 40.5336 92.1227 40.4133 92.2454 40.3876C92.3678 40.3627 92.4884 40.4407 92.5141 40.5634C92.6355 41.1441 92.7885 41.7246 92.9687 42.2886C93.0069 42.408 92.941 42.5358 92.8215 42.5739C92.7986 42.5812 92.7754 42.5848 92.7524 42.5848ZM91.9319 37.9238C91.8105 37.9238 91.71 37.8279 91.7052 37.7056L91.7008 37.5851C91.6937 37.38 91.6904 37.1754 91.6904 36.9716C91.6904 36.6069 91.7016 36.2378 91.7238 35.8746C91.7315 35.7495 91.8404 35.6523 91.9641 35.6619C92.0893 35.6695 92.1846 35.7771 92.1769 35.9022C92.1554 36.2563 92.1445 36.6161 92.1445 36.9716C92.1445 37.1703 92.1478 37.3699 92.1546 37.5699L92.1588 37.6879C92.1638 37.8131 92.0661 37.9186 91.941 37.9235C91.9379 37.9238 91.9349 37.9238 91.9319 37.9238ZM92.3732 33.2099C92.3561 33.2099 92.3389 33.208 92.3217 33.204C92.1995 33.1756 92.1235 33.0535 92.1519 32.9315C92.2895 32.3389 92.4597 31.7468 92.6579 31.1712C92.6985 31.0528 92.8272 30.9896 92.9464 31.0305C93.0648 31.0713 93.1279 31.2004 93.0872 31.3191C92.8941 31.8797 92.7282 32.4569 92.5941 33.0341C92.5696 33.1391 92.4763 33.2099 92.3732 33.2099Z" fill="#8AD0A2"/>
<path d="M94.0628 28.7755C94.026 28.7755 93.9888 28.7666 93.9543 28.7478C93.8442 28.6877 93.8036 28.5498 93.8637 28.4398C94.0091 28.1735 94.1641 27.906 94.3247 27.6448C94.3903 27.5378 94.5301 27.5048 94.6369 27.5702C94.7438 27.6358 94.7771 27.7757 94.7115 27.8824C94.555 28.1371 94.4038 28.3978 94.2622 28.6572C94.221 28.7327 94.1431 28.7755 94.0628 28.7755Z" fill="#8AD0A2"/>
<path d="M98.987 28.5018C98.9234 28.5658 98.9073 28.6631 98.9469 28.7442L100.079 31.057C99.4471 32.08 98.9736 33.2111 98.6936 34.4166L96.2624 35.2601C96.177 35.2897 96.12 35.3702 96.1201 35.4604L96.1259 38.5491C96.1261 38.6394 96.1835 38.7196 96.2689 38.7489L98.7033 39.5831C98.9879 40.7876 99.4656 41.9169 100.102 42.9375L98.9781 45.2545C98.9388 45.3357 98.9553 45.4329 99.0192 45.4967L101.207 47.6766C101.271 47.7403 101.369 47.7565 101.45 47.7167L103.763 46.5846C104.786 47.2167 105.917 47.6902 107.122 47.9701L107.966 50.4013C107.995 50.4865 108.076 50.5436 108.166 50.5435L111.255 50.5376C111.345 50.5374 111.425 50.48 111.454 50.3947L112.289 47.9603C113.493 47.6758 114.622 47.1981 115.643 46.5621L117.96 47.6855C118.041 47.7248 118.139 47.7084 118.202 47.6444L120.382 45.4562C120.446 45.3923 120.462 45.2949 120.422 45.2138L119.29 42.9011C119.922 41.8781 120.396 40.7469 120.676 39.5415L123.107 38.698C123.192 38.6684 123.249 38.588 123.249 38.4977L123.243 35.4089C123.243 35.3187 123.186 35.2384 123.1 35.2091L120.666 34.3748C120.382 33.1704 119.904 32.041 119.268 31.0204L120.391 28.7034C120.431 28.6222 120.414 28.5248 120.35 28.4612L118.162 26.2814C118.098 26.2176 118.001 26.2015 117.92 26.2412L115.607 27.3733C114.584 26.7413 113.453 26.2678 112.247 25.9879L111.404 23.5567C111.374 23.4714 111.294 23.4143 111.203 23.4146L108.115 23.4203C108.024 23.4206 107.944 23.478 107.915 23.5633L107.081 25.9977C105.876 26.2823 104.747 26.76 103.726 27.396L101.409 26.2727C101.328 26.2333 101.231 26.2497 101.167 26.3136L98.987 28.5018Z" fill="#8AD0A2"/>
<path d="M109.685 39.949C108.359 39.949 107.148 39.0536 106.807 37.7114C106.403 36.1246 107.366 34.5049 108.953 34.1012C109.721 33.9057 110.52 34.021 111.202 34.4262C111.884 34.8315 112.367 35.4781 112.563 36.2468C112.967 37.8334 112.004 39.4531 110.417 39.857C110.172 39.9192 109.927 39.949 109.685 39.949ZM109.689 34.4625C109.481 34.4625 109.271 34.4885 109.064 34.5413C107.72 34.8832 106.905 36.2552 107.247 37.5995C107.589 38.9437 108.96 39.7587 110.305 39.4171C111.649 39.075 112.465 37.7031 112.123 36.3589C111.957 35.7076 111.548 35.16 110.97 34.8166C110.576 34.5824 110.136 34.4625 109.689 34.4625Z" fill="#019935"/>
<path d="M109.734 44.7014C107.688 44.7014 105.764 43.9067 104.314 42.4622C102.861 41.0145 102.059 39.0873 102.055 37.036C102.055 37.0317 102.055 37.0275 102.055 37.0232C102.055 36.5172 102.104 36.0118 102.202 35.5191C102.209 35.4826 102.216 35.4463 102.224 35.41C102.25 35.2873 102.37 35.2088 102.494 35.2355C102.6 35.2582 102.673 35.3522 102.673 35.457C102.673 35.4728 102.672 35.4888 102.668 35.5049C102.562 36.0009 102.509 36.5117 102.509 37.0232C102.509 37.0274 102.509 37.0313 102.509 37.0353C102.512 38.9655 103.267 40.7786 104.635 42.1409C105.999 43.4998 107.81 44.2476 109.734 44.2476C109.739 44.2476 109.744 44.2476 109.748 44.2476C113.728 44.24 116.96 41.0003 116.961 37.0226C116.961 37.0178 116.961 37.013 116.961 37.0081C116.953 33.0284 113.713 29.7958 109.735 29.7958C109.73 29.7958 109.726 29.7958 109.721 29.7958C108.411 29.7982 107.129 30.1548 106.013 30.8268C105.905 30.8918 105.766 30.8568 105.701 30.7495C105.679 30.7127 105.669 30.6722 105.669 30.6323C105.669 30.5553 105.708 30.4804 105.779 30.4379C106.965 29.7235 108.328 29.3445 109.72 29.3418C109.725 29.3418 109.73 29.3418 109.735 29.3418C113.963 29.3418 117.407 32.7773 117.415 37.0072C117.415 37.0124 117.415 37.0175 117.415 37.0227C117.414 41.2503 113.979 44.6936 109.749 44.7016C109.744 44.7014 109.739 44.7014 109.734 44.7014Z" fill="#019935"/>
<path d="M177.624 12.023L178.359 13.2644C178.051 13.8639 177.837 14.5168 177.734 15.2024L176.414 15.7815C176.367 15.8018 176.339 15.8493 176.343 15.8996L176.484 17.6245C176.488 17.6749 176.523 17.7172 176.572 17.7297L177.969 18.0875C178.181 18.7476 178.498 19.3571 178.899 19.899L178.374 21.243C178.356 21.2901 178.369 21.3436 178.408 21.3764L179.727 22.4967C179.766 22.5294 179.821 22.5342 179.864 22.5084L181.106 21.7734C181.705 22.081 182.358 22.2952 183.044 22.3981L183.623 23.7185C183.643 23.7649 183.69 23.7931 183.741 23.7891L185.466 23.6486C185.516 23.6446 185.558 23.6089 185.571 23.5599L185.929 22.1631C186.589 21.9507 187.198 21.6338 187.74 21.2332L189.084 21.7578C189.131 21.7761 189.185 21.7627 189.218 21.7241L190.338 20.4052C190.371 20.3667 190.375 20.3115 190.35 20.268L189.615 19.0265C189.922 18.4272 190.136 17.7742 190.239 17.0886L191.56 16.5095C191.606 16.4892 191.634 16.4417 191.63 16.3913L191.49 14.6665C191.486 14.6161 191.45 14.5738 191.401 14.5612L190.004 14.2033C189.792 13.5432 189.475 12.9337 189.074 12.3919L189.599 11.0479C189.617 11.0008 189.604 10.9471 189.565 10.9144L188.246 9.79412C188.208 9.76143 188.153 9.75667 188.109 9.78243L186.868 10.5174C186.268 10.2098 185.615 9.99563 184.93 9.89281L184.351 8.57242C184.33 8.52607 184.283 8.49773 184.233 8.50186L182.508 8.64224C182.457 8.64638 182.415 8.68196 182.402 8.731L182.045 10.1277C181.385 10.3401 180.775 10.6571 180.233 11.0576L178.889 10.533C178.842 10.5146 178.789 10.5282 178.756 10.5668L177.635 11.8857C177.603 11.9244 177.598 11.9795 177.624 12.023Z" fill="#8AD0A2"/>
<path d="M183.988 17.9095C183.254 17.9095 182.567 17.4474 182.317 16.7148H182.317C182.003 15.7944 182.497 14.7902 183.417 14.4765C184.338 14.1623 185.342 14.6562 185.656 15.5767C185.97 16.4973 185.476 17.5013 184.556 17.8151C184.368 17.879 184.176 17.9095 183.988 17.9095ZM182.747 16.5682C182.98 17.2517 183.726 17.618 184.409 17.3853C185.093 17.1523 185.459 16.4066 185.226 15.7231C184.993 15.0394 184.247 14.673 183.564 14.9061C182.88 15.139 182.514 15.8848 182.747 16.5682Z" fill="#019935"/>
<path d="M178.131 9.17518C178.065 9.17518 178 9.14663 177.955 9.09139C177.876 8.99415 177.891 8.85119 177.988 8.77205C178.228 8.57674 178.48 8.39157 178.737 8.2214C178.842 8.15209 178.983 8.18075 179.052 8.28544C179.121 8.38992 179.092 8.53081 178.988 8.60002C178.743 8.76191 178.503 8.93829 178.274 9.12429C178.232 9.15853 178.182 9.17518 178.131 9.17518Z" fill="#8AD0A2"/>
<path d="M193.092 14.5901C192.986 14.5901 192.891 14.5152 192.87 14.407C192.792 14.01 192.685 13.6128 192.554 13.2263C192.503 13.0775 192.448 12.9308 192.391 12.7862C192.344 12.6697 192.401 12.5377 192.518 12.4914C192.634 12.4444 192.766 12.5018 192.813 12.6182C192.873 12.7697 192.93 12.9235 192.983 13.0796C193.121 13.4854 193.233 13.9023 193.315 14.3192C193.34 14.4422 193.259 14.5616 193.136 14.5858C193.121 14.5888 193.107 14.5901 193.092 14.5901ZM191.18 10.5096C191.114 10.5096 191.049 10.4811 191.004 10.426C190.649 9.99069 190.25 9.586 189.818 9.22342C189.722 9.14274 189.71 8.99956 189.791 8.90357C189.871 8.80757 190.015 8.79536 190.111 8.87584C190.564 9.25663 190.982 9.68169 191.355 10.1391C191.435 10.2363 191.42 10.3792 191.323 10.4585C191.281 10.4928 191.23 10.5096 191.18 10.5096ZM187.568 7.81479C187.539 7.81479 187.509 7.809 187.48 7.7971C186.961 7.57945 186.418 7.40949 185.868 7.29218C185.745 7.26601 185.667 7.14539 185.693 7.0228C185.719 6.90012 185.841 6.8215 185.963 6.84808C186.541 6.97129 187.11 7.14973 187.656 7.37835C187.771 7.42676 187.826 7.5598 187.777 7.67535C187.741 7.76245 187.657 7.81479 187.568 7.81479ZM181.411 7.46059C181.313 7.46059 181.222 7.39594 181.194 7.29663C181.159 7.17622 181.228 7.05032 181.348 7.01546C181.918 6.85036 182.505 6.73822 183.091 6.68226C183.217 6.66995 183.327 6.76181 183.339 6.88667C183.351 7.01142 183.259 7.12232 183.134 7.13432C182.576 7.18759 182.018 7.29435 181.475 7.45149C181.454 7.45759 181.432 7.46059 181.411 7.46059Z" fill="#8AD0A2"/>
<path d="M193.064 18.2999C193.048 18.2999 193.033 18.2984 193.017 18.295C192.894 18.2688 192.816 18.1482 192.842 18.0257C192.903 17.738 192.951 17.444 192.984 17.152C192.998 17.0274 193.111 16.9368 193.235 16.9518C193.36 16.9658 193.449 17.0781 193.435 17.2028C193.401 17.5095 193.35 17.8183 193.286 18.1204C193.263 18.2269 193.169 18.2999 193.064 18.2999Z" fill="#8AD0A2"/>
<path d="M188.441 24.5136C188.361 24.5136 188.283 24.4707 188.242 24.3953C188.182 24.2853 188.222 24.1474 188.332 24.0873C188.591 23.9463 188.845 23.791 189.088 23.6257C189.192 23.5553 189.333 23.582 189.403 23.6856C189.474 23.7892 189.447 23.9304 189.343 24.001C189.088 24.1747 188.821 24.3378 188.55 24.4858C188.515 24.5047 188.478 24.5136 188.441 24.5136Z" fill="#8AD0A2"/>
<path d="M184.155 25.6514C184.031 25.6514 183.93 25.5524 183.928 25.4284C183.926 25.3031 184.025 25.1997 184.151 25.1973C184.703 25.1873 185.258 25.1257 185.801 25.0138C185.923 24.9885 186.044 25.0676 186.07 25.1904C186.095 25.3132 186.016 25.4332 185.893 25.4585C185.323 25.576 184.739 25.6409 184.159 25.6514C184.158 25.6514 184.156 25.6514 184.155 25.6514ZM181.419 25.2884C181.398 25.2884 181.376 25.2854 181.355 25.2793C180.798 25.1181 180.251 24.9043 179.731 24.6439C179.619 24.5878 179.574 24.4514 179.63 24.3394C179.686 24.2273 179.823 24.1817 179.934 24.2381C180.43 24.4861 180.95 24.6897 181.481 24.8433C181.602 24.8781 181.671 25.0039 181.636 25.1244C181.608 25.2236 181.517 25.2884 181.419 25.2884ZM177.575 23.0799C177.519 23.0799 177.462 23.0591 177.419 23.0171C176.998 22.6158 176.613 22.1734 176.274 21.7023C176.201 21.6005 176.224 21.4587 176.325 21.3854C176.427 21.3119 176.569 21.3353 176.642 21.437C176.965 21.8856 177.332 22.3067 177.732 22.6889C177.823 22.7754 177.826 22.919 177.739 23.0098C177.695 23.0564 177.635 23.0799 177.575 23.0799ZM175.198 19.3409C175.103 19.3409 175.015 19.2812 174.983 19.1865C174.797 18.634 174.66 18.0633 174.578 17.4903C174.56 17.3662 174.646 17.2511 174.77 17.2332C174.893 17.2158 175.009 17.3013 175.027 17.4255C175.106 17.9711 175.236 18.5148 175.413 19.0412C175.453 19.1601 175.39 19.2889 175.271 19.3288C175.247 19.337 175.222 19.3409 175.198 19.3409Z" fill="#8AD0A2"/>
<path d="M174.825 14.9157C174.813 14.9157 174.801 14.9148 174.789 14.9128C174.665 14.893 174.581 14.7766 174.601 14.6528C174.649 14.3473 174.714 14.0413 174.792 13.7432C174.824 13.622 174.948 13.5493 175.069 13.5813C175.191 13.613 175.263 13.7371 175.231 13.8585C175.157 14.1423 175.095 14.4338 175.049 14.7247C175.031 14.8362 174.934 14.9157 174.825 14.9157Z" fill="#8AD0A2"/>
<path d="M184.013 20.5698C181.746 20.5698 179.815 18.8229 179.628 16.5241C179.618 16.4044 179.613 16.2843 179.613 16.1642C179.613 15.9881 179.624 15.812 179.645 15.638C179.646 15.621 179.649 15.6041 179.651 15.5872C179.667 15.4629 179.782 15.3762 179.906 15.3919C180.02 15.407 180.103 15.5046 180.103 15.6166C180.103 15.6265 180.102 15.6366 180.101 15.6466C180.078 15.817 180.067 15.9896 180.067 16.1627C180.067 16.2709 180.072 16.3793 180.08 16.4873C180.087 16.5689 180.096 16.6499 180.108 16.7304C180.108 16.7308 180.108 16.7314 180.108 16.7318C180.244 17.6861 180.719 18.547 181.46 19.1765C182.264 19.8593 183.286 20.1876 184.337 20.1027C186.398 19.9349 187.965 18.2034 187.965 16.1701C187.965 16.063 187.961 15.955 187.952 15.8463C187.775 13.6762 185.867 12.0543 183.696 12.2311C182.982 12.2891 182.299 12.539 181.72 12.9533C181.618 13.0264 181.476 13.0027 181.404 12.9008C181.375 12.8608 181.361 12.8146 181.361 12.7689C181.361 12.6983 181.394 12.6285 181.456 12.5842C182.102 12.1219 182.863 11.8434 183.659 11.7786C186.079 11.5797 188.207 13.3899 188.404 15.8095C188.414 15.9305 188.419 16.0511 188.419 16.1704C188.419 18.4376 186.672 20.368 184.373 20.555C184.253 20.565 184.132 20.5698 184.013 20.5698Z" fill="#019935"/>
<path d="M42.1857 105.585C42.1709 105.585 42.156 105.584 42.1409 105.582C41.9545 105.558 41.8232 105.387 41.8477 105.201C44.9183 81.8354 39.9038 61.5198 35.1564 48.5917C30.0096 34.5757 24.0585 25.978 23.9989 25.8928C23.8912 25.7386 23.9289 25.5264 24.083 25.4188C24.2371 25.3113 24.4493 25.3486 24.557 25.5028C24.617 25.5885 30.61 34.2431 35.7876 48.3354C40.5657 61.34 45.6126 81.7773 42.5228 105.289C42.5003 105.461 42.3539 105.585 42.1857 105.585Z" fill="#55BB78"/>
<path d="M32.6889 109.183C32.5844 109.183 32.4811 109.135 32.4144 109.045C32.2748 108.855 18.4237 89.839 16.7454 69.81C16.7296 69.6226 16.8688 69.4579 17.0561 69.4423C17.2448 69.4255 17.4082 69.5658 17.4239 69.753C19.0859 89.587 32.8243 108.452 32.9628 108.641C33.0743 108.792 33.0418 109.005 32.8904 109.117C32.8296 109.161 32.759 109.183 32.6889 109.183Z" fill="#55BB78"/>
<path d="M146.442 38.7806C154.802 38.7806 161.579 32.0037 161.579 23.6439C161.579 15.2842 154.802 8.50732 146.442 8.50732C138.083 8.50732 131.306 15.2842 131.306 23.6439C131.306 32.0037 138.083 38.7806 146.442 38.7806Z" fill="#8AD0A2"/>
<path d="M161.552 22.8325H146.443H131.306C131.306 22.8325 130.101 31.234 143.61 54.2459C144.2 55.25 145.277 55.8499 146.441 55.8505C147.605 55.851 148.684 55.2611 149.273 54.257C162.781 31.2431 161.552 22.8325 161.552 22.8325Z" fill="#8AD0A2"/>
<path d="M146.437 56.3418V56.4269H146.441C145.124 56.4269 143.894 55.702 143.232 54.5743C135.335 41.1231 132.442 32.618 131.405 27.8588C131.11 26.764 130.94 25.6908 130.886 24.5905C130.795 23.4649 130.865 22.9907 130.873 22.9406L130.913 22.6985C131.523 14.5676 138.29 8.23975 146.443 8.23975C154.704 8.23975 161.532 14.6573 161.994 22.8528C162.005 22.9601 162.028 23.2322 162.019 23.6872L162.02 23.7431C162.02 25.2298 161.81 26.7024 161.395 28.12C160.323 32.875 157.412 41.2962 149.65 54.5206C148.983 55.6557 147.799 56.3418 146.437 56.3418ZM131.72 23.5136C131.716 23.7406 131.723 24.0647 131.763 24.5528L131.764 24.5512C131.814 25.5935 131.975 26.5973 132.257 27.6362L132.262 27.6536C133.283 32.3482 136.146 40.7468 143.99 54.1079C144.495 54.968 145.431 55.5016 146.438 55.5021L146.437 55.9405V55.5011C147.344 55.5011 148.382 54.9622 148.892 54.0948C156.604 40.9551 159.483 32.6047 160.539 27.9133L160.547 27.8862C160.94 26.5447 161.052 25.1508 161.052 23.7431L160.964 23.6812V23.6763C160.964 23.2381 161.038 23.0012 161.031 22.939L161.073 22.9135C160.643 15.1777 154.22 9.11801 146.421 9.11801C138.638 9.11801 132.204 15.2631 131.76 23.0668L131.748 23.5137H131.72V23.5136Z" fill="#55BB78"/>
<path d="M146.492 32.3354C151.319 32.3354 155.232 28.4223 155.232 23.5952C155.232 18.7681 151.319 14.855 146.492 14.855C141.665 14.855 137.752 18.7681 137.752 23.5952C137.752 28.4223 141.665 32.3354 146.492 32.3354Z" fill="#E6F5EB"/>
<path d="M146.492 32.8236C141.404 32.8236 137.264 28.6837 137.264 23.5952C137.264 18.5065 141.403 14.3667 146.492 14.3667C151.581 14.3667 155.721 18.5065 155.721 23.5952C155.721 28.6837 151.581 32.8236 146.492 32.8236ZM146.492 15.3432C141.942 15.3432 138.24 19.0451 138.24 23.5952C138.24 28.1453 141.942 31.8471 146.492 31.8471C151.042 31.8471 154.744 28.1453 154.744 23.5952C154.744 19.0451 151.042 15.3432 146.492 15.3432Z" fill="#E6F5EB"/>
<path d="M138.201 14.4953C138.16 14.4953 138.119 14.478 138.09 14.4442C138.037 14.3829 138.044 14.2904 138.106 14.2377C140.561 12.1291 143.698 10.9678 146.939 10.9678C147.02 10.9678 147.085 11.0334 147.085 11.1143C147.085 11.1951 147.02 11.2607 146.939 11.2607C143.768 11.2607 140.699 12.397 138.297 14.46C138.269 14.4836 138.235 14.4953 138.201 14.4953Z" fill="#E6F5EB"/>
<path d="M133.521 24.6787C133.44 24.6787 133.374 24.6131 133.374 24.5322C133.374 22.0012 134.076 19.5322 135.403 17.392C135.446 17.3233 135.536 17.3022 135.605 17.3448C135.674 17.3875 135.695 17.4777 135.652 17.5465C134.353 19.6403 133.667 22.0558 133.667 24.5322C133.667 24.6131 133.601 24.6787 133.521 24.6787Z" fill="#E6F5EB"/>
<path d="M41.9219 106.364C83.1488 106.364 124.376 106.364 165.603 106.364C165.841 106.364 166.051 106.163 166.116 105.934C166.182 105.705 166.088 105.438 165.886 105.312C162.952 103.48 160.017 101.671 157.083 99.8387C156.998 99.7859 156.9 99.7815 156.8 99.7815C121.442 99.7815 86.0828 99.7815 50.724 99.7815C50.6237 99.7815 50.5266 99.7747 50.4415 99.8279C47.5072 101.66 44.5728 103.475 41.6383 105.307C41.4363 105.434 41.3428 105.714 41.4085 105.943C41.4744 106.172 41.6838 106.364 41.9219 106.364Z" fill="#55BB78"/>
<path d="M22.1472 118.848C76.5572 118.848 130.967 118.848 185.377 118.848C185.616 118.848 185.825 118.579 185.891 118.35C185.957 118.121 185.863 117.82 185.661 117.693C182.726 115.861 179.792 114.104 176.858 112.272C176.773 112.219 176.675 112.266 176.575 112.266C128.033 112.266 79.4914 112.266 30.9495 112.266C30.8493 112.266 30.7522 112.19 30.6671 112.244C27.7328 114.076 24.7984 115.857 21.864 117.689C21.662 117.815 21.5684 118.146 21.6341 118.375C21.6995 118.604 21.9089 118.848 22.1472 118.848Z" fill="#34AD5D"/>
<path d="M205.436 129.985C202.501 128.153 199.567 126.378 196.633 124.546C196.548 124.493 196.45 124.523 196.35 124.523C134.625 124.523 72.9002 124.523 11.1751 124.523C11.0749 124.523 10.9778 124.493 10.8927 124.546C7.95836 126.378 5.02399 128.182 2.08952 130.014C1.88749 130.14 1.79397 130.438 1.85966 130.667C1.92535 130.896 2.13473 131.106 2.37297 131.106C69.9661 131.106 137.559 131.106 205.152 131.106C205.391 131.106 205.6 130.881 205.666 130.652C205.732 130.423 205.638 130.111 205.436 129.985Z" fill="#019935"/>
<path d="M65.8918 36.7259C65.8737 36.7259 65.8555 36.7206 65.8394 36.7098C65.797 36.6809 65.7861 36.6229 65.815 36.5805C65.9018 36.4531 65.9855 36.3243 66.0661 36.194C66.0932 36.15 66.1508 36.1371 66.194 36.1637C66.2377 36.1908 66.2513 36.2482 66.2244 36.2917C66.1423 36.4245 66.0572 36.5556 65.9687 36.6851C65.9507 36.7117 65.9215 36.7259 65.8918 36.7259Z" fill="#8AD0A2"/>
<path d="M57.3484 41.2422C57.0608 41.2422 56.7703 41.2302 56.4838 41.2067C56.4326 41.2024 56.3945 41.1576 56.3987 41.1063C56.403 41.0551 56.4473 41.0174 56.4991 41.0213C56.7806 41.0444 57.066 41.0563 57.3475 41.0563L57.3999 41.056C57.4514 41.056 57.4929 41.0976 57.4929 41.149C57.4929 41.2005 57.4514 41.2421 57.3999 41.2421L57.3484 41.2422ZM58.3079 41.1976C58.2604 41.1976 58.2199 41.1615 58.2153 41.113C58.2105 41.062 58.2482 41.0165 58.2993 41.0119C58.5971 40.9843 58.8974 40.943 59.1919 40.8892C59.2426 40.8816 59.291 40.9136 59.3001 40.9641C59.3094 41.0146 59.2758 41.0631 59.2254 41.0724C58.9256 41.1271 58.6197 41.169 58.3166 41.1973C58.3137 41.1974 58.3108 41.1976 58.3079 41.1976ZM55.5896 41.0927C55.5844 41.0927 55.5791 41.0923 55.5738 41.0913C55.2731 41.0397 54.9714 40.9743 54.6774 40.8971C54.6278 40.884 54.5981 40.8331 54.6111 40.7835C54.6242 40.7337 54.675 40.7037 54.7247 40.7172C55.0135 40.793 55.3098 40.857 55.6052 40.9078C55.6559 40.9166 55.69 40.9647 55.6812 41.0154C55.6734 41.0607 55.6341 41.0927 55.5896 41.0927ZM60.0948 40.8714C60.0541 40.8714 60.0166 40.8443 60.0052 40.803C59.9915 40.7536 60.0205 40.7024 60.0702 40.6886C60.3582 40.6092 60.6466 40.5157 60.9273 40.411C60.9754 40.393 61.0291 40.4176 61.0469 40.4657C61.0649 40.5139 61.0404 40.5675 60.9923 40.5855C60.7066 40.6921 60.413 40.7872 60.1197 40.8682C60.1114 40.8703 60.1031 40.8714 60.0948 40.8714ZM53.8331 40.6309C53.8227 40.6309 53.812 40.6291 53.8017 40.6254C53.515 40.5226 53.2294 40.4055 52.9531 40.2779C52.9064 40.2563 52.886 40.2011 52.9076 40.1544C52.9291 40.1079 52.9844 40.0875 53.0311 40.109C53.3025 40.2344 53.583 40.3492 53.8646 40.4503C53.9129 40.4677 53.9381 40.521 53.9207 40.5693C53.9071 40.6073 53.8713 40.6309 53.8331 40.6309ZM61.7966 40.2357C61.7619 40.2357 61.7286 40.2163 61.7125 40.1829C61.6904 40.1365 61.7099 40.081 61.7564 40.0587C62.0263 39.9295 62.2938 39.7869 62.5513 39.6344C62.5956 39.6085 62.6526 39.6231 62.6787 39.6671C62.7049 39.7114 62.6903 39.7684 62.646 39.7946C62.3839 39.9496 62.1116 40.095 61.8368 40.2265C61.8237 40.2328 61.8102 40.2357 61.7966 40.2357ZM52.1847 39.8694C52.169 39.8694 52.1531 39.8654 52.1384 39.857C51.8743 39.7057 51.614 39.5402 51.3642 39.366C51.3221 39.3366 51.3118 39.2786 51.3413 39.2364C51.3708 39.1942 51.4286 39.1839 51.4708 39.2134C51.7161 39.3847 51.9718 39.5468 52.231 39.6956C52.2756 39.7212 52.291 39.778 52.2655 39.8227C52.2483 39.8527 52.217 39.8694 52.1847 39.8694ZM63.3604 39.3107C63.3315 39.3107 63.3029 39.2972 63.2847 39.2718C63.2547 39.23 63.2643 39.1719 63.3061 39.1421C63.422 39.059 63.5367 38.9733 63.6502 38.8848C63.7748 38.7878 63.8966 38.6882 64.0154 38.5865C64.0544 38.5531 64.113 38.5577 64.1466 38.5966C64.18 38.6357 64.1755 38.6944 64.1364 38.7278C64.0153 38.8313 63.8914 38.9327 63.7645 39.0316C63.6493 39.1216 63.5325 39.2088 63.4144 39.2933C63.3981 39.3051 63.3792 39.3107 63.3604 39.3107ZM50.6963 38.8303C50.6752 38.8303 50.654 38.8233 50.6366 38.8085C50.4041 38.6135 50.1767 38.405 49.9606 38.1889C49.9243 38.1526 49.9243 38.0936 49.9606 38.0573C49.9969 38.021 50.0559 38.021 50.0922 38.0573C50.3044 38.2696 50.5278 38.4744 50.7562 38.6659C50.7955 38.6988 50.8007 38.7575 50.7677 38.797C50.7494 38.819 50.723 38.8303 50.6963 38.8303ZM64.7402 38.1293C64.7167 38.1293 64.6932 38.1204 64.675 38.1029C64.6383 38.0669 64.6378 38.008 64.6738 37.9713C64.8839 37.7568 65.0863 37.5313 65.2754 37.3007C65.308 37.2611 65.3666 37.2553 65.4065 37.2878C65.4462 37.3205 65.4519 37.379 65.4193 37.4189C65.2267 37.6537 65.0205 37.8831 64.8066 38.1014C64.7884 38.1201 64.7643 38.1293 64.7402 38.1293ZM49.4128 37.5454C49.3862 37.5454 49.3599 37.5341 49.3415 37.5122C49.2624 37.4177 49.1846 37.3217 49.1082 37.2238C48.9964 37.0805 48.887 36.9327 48.783 36.7845C48.7537 36.7424 48.7638 36.6844 48.8058 36.655C48.848 36.6254 48.9059 36.6358 48.9354 36.6777C49.0374 36.8232 49.1448 36.9685 49.2547 37.1092C49.3299 37.2053 49.4062 37.2999 49.484 37.3926C49.517 37.432 49.5118 37.4908 49.4725 37.5236C49.4551 37.5382 49.4339 37.5454 49.4128 37.5454ZM48.3706 36.0574C48.3384 36.0574 48.3072 36.0408 48.2899 36.0109C48.1374 35.7468 47.995 35.4731 47.8666 35.1971C47.8449 35.1506 47.8651 35.0953 47.9117 35.0735C47.9585 35.0515 48.0137 35.0721 48.0353 35.1186C48.1615 35.3896 48.3014 35.6585 48.4512 35.9179C48.4769 35.9623 48.4616 36.0192 48.4171 36.0449C48.4024 36.0534 48.3863 36.0574 48.3706 36.0574ZM47.6043 34.4101C47.5662 34.4101 47.5305 34.3865 47.5168 34.3487C47.4132 34.0621 47.3212 33.7674 47.2433 33.473C47.2302 33.4232 47.2599 33.3723 47.3096 33.3592C47.3589 33.3457 47.4102 33.3758 47.4233 33.4254C47.4998 33.7148 47.5901 34.004 47.6919 34.2855C47.7094 34.3338 47.6843 34.3871 47.636 34.4046C47.6255 34.4084 47.6148 34.4101 47.6043 34.4101Z" fill="#8AD0A2"/>
<path d="M47.1373 32.6426C47.0928 32.6426 47.0535 32.6107 47.0458 32.5653C47.0193 32.411 46.9966 32.2562 46.9773 32.1012C46.9709 32.0503 47.0071 32.0038 47.0581 31.9974C47.1095 31.9904 47.1556 32.0272 47.1619 32.0783C47.1809 32.2304 47.2033 32.3824 47.2292 32.5341C47.2379 32.5846 47.2038 32.6328 47.1533 32.6415C47.1479 32.6423 47.1426 32.6426 47.1373 32.6426Z" fill="#8AD0A2"/>
<path d="M49.0256 24.7252C49.0063 24.7252 48.9869 24.7192 48.9701 24.7069C48.9289 24.6761 48.9204 24.618 48.951 24.5767C49.044 24.4514 49.1402 24.3279 49.2392 24.2064C49.2718 24.167 49.3303 24.1608 49.3702 24.1932C49.4099 24.2256 49.416 24.2842 49.3835 24.3242C49.2861 24.4436 49.1918 24.5648 49.1004 24.6876C49.0822 24.7123 49.054 24.7252 49.0256 24.7252Z" fill="#8AD0A2"/>
<path d="M67.4467 28.655C67.4039 28.655 67.3655 28.6255 67.3559 28.582C67.2876 28.2719 67.2034 27.9609 67.106 27.6579C67.0903 27.6091 67.1172 27.5565 67.1662 27.5409C67.2152 27.5249 67.2675 27.552 67.2832 27.6009C67.3824 27.9095 67.4681 28.2261 67.5377 28.5421C67.5488 28.5923 67.5171 28.6419 67.4669 28.653C67.46 28.6543 67.4533 28.655 67.4467 28.655ZM66.8557 26.8177C66.8196 26.8177 66.7852 26.7966 66.7701 26.7614C66.6447 26.4691 66.5041 26.1795 66.3519 25.9004C66.3273 25.8553 66.3439 25.7988 66.389 25.7741C66.434 25.7498 66.4905 25.7661 66.5152 25.8113C66.6702 26.0955 66.8135 26.3904 66.9411 26.6879C66.9614 26.7352 66.9395 26.7898 66.8923 26.8102C66.8804 26.8154 66.868 26.8177 66.8557 26.8177ZM65.9323 25.1234C65.9024 25.1234 65.873 25.109 65.855 25.0823C65.72 24.8815 65.5754 24.6822 65.4252 24.4898C65.3788 24.4304 65.3318 24.3714 65.2843 24.3133C65.2518 24.2735 65.2577 24.2148 65.2976 24.1822C65.3372 24.1498 65.3958 24.1557 65.4284 24.1955C65.4767 24.2547 65.5244 24.3146 65.5718 24.3752C65.7246 24.5711 65.8719 24.774 66.0095 24.9782C66.0381 25.021 66.0269 25.0787 65.9842 25.1075C65.9683 25.1182 65.9503 25.1234 65.9323 25.1234ZM49.9562 23.6386C49.9327 23.6386 49.9091 23.6297 49.891 23.6119C49.8544 23.5758 49.854 23.517 49.8899 23.4804C50.1165 23.2504 50.3572 23.0278 50.6054 22.8186C50.6447 22.7855 50.7032 22.7905 50.7364 22.8297C50.7695 22.8689 50.7645 22.9276 50.7253 22.9607C50.4814 23.1663 50.2449 23.3851 50.0225 23.6109C50.0043 23.6294 49.9803 23.6386 49.9562 23.6386ZM64.7122 23.6277C64.6881 23.6277 64.6641 23.6185 64.6459 23.5999C64.4228 23.3732 64.1867 23.1544 63.9437 22.9493C63.9044 22.9163 63.8994 22.8576 63.9325 22.8184C63.9656 22.779 64.0241 22.774 64.0635 22.8073C64.311 23.0158 64.5514 23.2387 64.7785 23.4695C64.8146 23.5062 64.814 23.5651 64.7773 23.6011C64.7593 23.6189 64.7356 23.6277 64.7122 23.6277ZM51.4323 22.3947C51.4028 22.3947 51.374 22.3809 51.3559 22.3548C51.3265 22.3127 51.3369 22.2547 51.379 22.2253C51.6446 22.0402 51.9222 21.8653 52.2039 21.7058C52.2488 21.6802 52.3054 21.696 52.3307 21.7409C52.3561 21.7856 52.3404 21.8423 52.2957 21.8675C52.019 22.0245 51.7463 22.196 51.4853 22.3779C51.4691 22.3892 51.4506 22.3947 51.4323 22.3947ZM63.237 22.3844C63.2187 22.3844 63.2002 22.379 63.1842 22.3679C62.9231 22.1869 62.6503 22.0161 62.3732 21.8602C62.3284 21.8351 62.3125 21.7782 62.3378 21.7335C62.363 21.6886 62.4196 21.6724 62.4645 21.6981C62.7466 21.8567 63.0243 22.0306 63.2901 22.2149C63.3324 22.2442 63.3428 22.3021 63.3137 22.3444C63.2956 22.3705 63.2665 22.3844 63.237 22.3844ZM53.112 21.4435C53.0764 21.4435 53.0425 21.4231 53.027 21.3885C53.0059 21.3417 53.0269 21.2865 53.0739 21.2655C53.3691 21.133 53.6744 21.0131 53.9813 20.9089C54.0304 20.893 54.0828 20.9185 54.0994 20.967C54.1158 21.0157 54.0899 21.0686 54.0411 21.0851C53.7399 21.1874 53.44 21.3052 53.15 21.4353C53.1375 21.441 53.1247 21.4435 53.112 21.4435ZM61.5558 21.4386C61.5432 21.4386 61.5303 21.436 61.518 21.4306C61.2278 21.3014 60.9278 21.1844 60.6264 21.0829C60.5777 21.0665 60.5515 21.0137 60.568 20.9649C60.5842 20.9162 60.637 20.89 60.6858 20.9066C60.9926 21.01 61.2981 21.1292 61.5937 21.2606C61.6406 21.2815 61.6617 21.3365 61.6409 21.3834C61.6255 21.418 61.5915 21.4386 61.5558 21.4386ZM54.9394 20.8229C54.8973 20.8229 54.8591 20.7941 54.8489 20.7513C54.837 20.7013 54.868 20.6512 54.9179 20.6394C55.2319 20.5649 55.5541 20.504 55.8759 20.4586C55.927 20.4518 55.9738 20.4869 55.981 20.5376C55.9882 20.5885 55.9527 20.6356 55.9018 20.6428C55.5858 20.6874 55.2693 20.7472 54.9611 20.8203C54.9536 20.8222 54.9464 20.8229 54.9394 20.8229ZM59.7277 20.8219C59.7207 20.8219 59.7134 20.8211 59.7063 20.8194C59.3955 20.7461 59.079 20.6867 58.7654 20.6427C58.7145 20.6356 58.6791 20.5886 58.6862 20.5376C58.6933 20.4867 58.7398 20.4513 58.7913 20.4584C59.1105 20.503 59.4328 20.5636 59.749 20.6382C59.799 20.65 59.83 20.7 59.8182 20.7502C59.8082 20.7929 59.7699 20.8219 59.7277 20.8219ZM57.8167 20.5539C57.8153 20.5539 57.8138 20.5539 57.8124 20.5537C57.4939 20.5392 57.1745 20.539 56.855 20.5535C56.8052 20.5574 56.7602 20.5165 56.7577 20.4651C56.7554 20.4137 56.7951 20.3702 56.8464 20.3678C57.1713 20.3525 57.4969 20.3527 57.8209 20.3679C57.8722 20.3703 57.9119 20.4138 57.9095 20.4652C57.9072 20.515 57.8661 20.5539 57.8167 20.5539Z" fill="#8AD0A2"/>
<path d="M67.6579 30.0795C67.6097 30.0795 67.569 30.0424 67.5652 29.9937C67.5533 29.8407 67.538 29.6879 67.5193 29.5354C67.513 29.4843 67.5492 29.4379 67.6003 29.4317C67.6499 29.4239 67.6976 29.4617 67.7039 29.5125C67.7231 29.6678 67.7387 29.8236 67.7508 29.9791C67.7548 30.0303 67.7164 30.0752 67.6652 30.079C67.6626 30.0795 67.6603 30.0795 67.6579 30.0795Z" fill="#8AD0A2"/>
<path d="M55.2531 34.2874C55.641 33.9626 57.1133 31.4938 59.4689 34.2867C59.7238 34.4197 60.3827 34.0472 60.2988 33.7862C57.5423 29.7655 54.1091 33.539 54.4458 33.9527C54.7825 34.3665 54.8019 34.6651 55.2531 34.2874Z" fill="#8AD0A2"/>
<path d="M61.9611 32.6132C62.4752 32.5529 62.9586 32.2021 62.814 31.7524C62.6716 31.3094 57.7651 25.5775 52.3001 32.039C52.2331 32.1182 52.2004 32.221 52.2095 32.3245C52.2185 32.4279 52.2685 32.5235 52.3482 32.5899C52.597 32.7971 52.809 32.9364 53.084 32.9024C58.0849 27.232 61.447 32.6734 61.9611 32.6132Z" fill="#8AD0A2"/>
<path d="M64.5151 30.9007C64.8802 30.9738 65.6268 30.6993 65.434 30.0993C56.7975 20.7025 49.1062 30.5515 49.3884 30.9487C49.6705 31.3459 50.2425 31.3608 50.4728 31.2268C57.3492 22.4065 64.1499 30.8276 64.5151 30.9007Z" fill="#8AD0A2"/>
<path d="M57.4648 36.8562C58.0919 36.779 58.5377 36.208 58.4605 35.5809C58.3833 34.9539 57.8123 34.5081 57.1852 34.5853C56.5582 34.6625 56.1124 35.2335 56.1896 35.8605C56.2668 36.4876 56.8377 36.9334 57.4648 36.8562Z" fill="#8AD0A2"/>
<path d="M7.02157 41.738C10.3601 41.738 13.0666 39.0315 13.0666 35.693C13.0666 32.3544 10.3601 29.6479 7.02157 29.6479C3.683 29.6479 0.976562 32.3544 0.976562 35.693C0.976562 39.0315 3.683 41.738 7.02157 41.738Z" fill="#018B30"/>
<path d="M7.02174 41.5371C10.2493 41.5371 12.8658 38.9207 12.8658 35.6931C12.8658 32.4656 10.2493 29.8491 7.02174 29.8491C3.79419 29.8491 1.17773 32.4656 1.17773 35.6931C1.17773 38.9207 3.79419 41.5371 7.02174 41.5371Z" fill="#34AD5D"/>
<path opacity="0.66" d="M2.20243 33.4924C2.16809 33.4924 2.13323 33.4846 2.10033 33.468C1.9884 33.4115 1.94351 33.275 1.99999 33.163C2.96245 31.256 4.88656 30.0713 7.02139 30.0713C7.36245 30.0713 7.70351 30.102 8.03527 30.1624C8.15857 30.1849 8.2404 30.303 8.21796 30.4264C8.19561 30.5498 8.07779 30.6312 7.95396 30.6091C7.6489 30.5535 7.33514 30.5253 7.02139 30.5253C5.0589 30.5253 3.29007 31.6145 2.40519 33.3677C2.36536 33.4469 2.2854 33.4924 2.20243 33.4924Z" fill="white"/>
<path opacity="0.66" d="M9.04328 40.3914C11.5672 39.3459 12.7657 36.4524 11.7202 33.9285C10.6748 31.4046 7.78126 30.2061 5.25739 31.2516C2.73351 32.297 1.535 35.1905 2.58045 37.7144C3.62589 40.2383 6.5194 41.4368 9.04328 40.3914Z" fill="white"/>
<path d="M6.66385 39.4977V38.9595C6.10286 38.9371 5.54797 38.8047 5.15394 38.6321C5.01315 38.5706 4.94146 38.4126 4.98191 38.2644L5.11867 37.7631C5.16884 37.5791 5.3688 37.4841 5.54456 37.5577C5.93548 37.7217 6.41817 37.8513 6.93871 37.8513C7.47901 37.8513 7.88193 37.6681 7.88193 37.2926C7.88193 36.9538 7.57056 36.7523 6.81964 36.5509C5.74804 36.2579 4.97881 35.7909 4.97881 34.8475C4.97881 33.9958 5.60156 33.3456 6.68226 33.1716V32.6334C6.68226 32.4602 6.82264 32.3198 6.99581 32.3198H7.31205C7.48521 32.3198 7.62559 32.4602 7.62559 32.6334V33.1166C8.14469 33.1374 8.52258 33.2261 8.82237 33.3314C8.97598 33.3854 9.05998 33.5509 9.01736 33.7081L8.89168 34.1716C8.84316 34.3504 8.65209 34.4483 8.47892 34.3828C8.20282 34.2784 7.81252 34.1697 7.30512 34.1697C6.66406 34.1697 6.48096 34.4352 6.48096 34.6733C6.48096 34.9664 6.86557 35.1678 7.69894 35.4244C8.8895 35.7816 9.38398 36.276 9.38398 37.1643C9.38398 37.9794 8.77954 38.7121 7.60728 38.8952V39.4975C7.60728 39.6706 7.4669 39.811 7.29374 39.811H6.9775C6.80423 39.8112 6.66385 39.6708 6.66385 39.4977Z" fill="#55BB78"/>
<path d="M25.0859 35.5268C30.8978 35.5268 35.6093 30.8153 35.6093 25.0034C35.6093 19.1915 30.8978 14.48 25.0859 14.48C19.274 14.48 14.5625 19.1915 14.5625 25.0034C14.5625 30.8153 19.274 35.5268 25.0859 35.5268Z" fill="#34AD5D"/>
<path d="M25.0856 35.177C30.7042 35.177 35.259 30.6222 35.259 25.0035C35.259 19.3849 30.7042 14.8301 25.0856 14.8301C19.4669 14.8301 14.9121 19.3849 14.9121 25.0035C14.9121 30.6222 19.4669 35.177 25.0856 35.177Z" fill="#34AD5D"/>
<path opacity="0.66" d="M16.6966 21.0041C16.6622 21.0041 16.6273 20.9963 16.5945 20.9797C16.4825 20.9232 16.4376 20.7867 16.4941 20.6747C18.1411 17.4118 21.4333 15.3848 25.0857 15.3848C25.6682 15.3848 26.252 15.4373 26.8206 15.5409C26.944 15.5633 27.0257 15.6816 27.0033 15.8049C26.9809 15.9281 26.8631 16.0093 26.7393 15.9875C26.1974 15.8888 25.6412 15.8388 25.0858 15.8388C21.6055 15.8388 18.4688 17.7701 16.8994 20.8793C16.8595 20.9585 16.7795 21.0041 16.6966 21.0041Z" fill="white"/>
<path opacity="0.66" d="M25.3078 33.8354C30.0633 33.8354 33.9184 29.9803 33.9184 25.2248C33.9184 20.4693 30.0633 16.6143 25.3078 16.6143C20.5524 16.6143 16.6973 20.4693 16.6973 25.2248C16.6973 29.9803 20.5524 33.8354 25.3078 33.8354Z" fill="white"/>
<path d="M24.4622 31.6261V30.6893C23.4856 30.6502 22.5197 30.4197 21.8336 30.1194C21.5886 30.0121 21.4638 29.7372 21.5341 29.4792L21.7722 28.6067C21.8595 28.2866 22.2076 28.121 22.5136 28.2493C23.1941 28.5346 24.0344 28.7603 24.9405 28.7603C25.8812 28.7603 26.5826 28.4414 26.5826 27.7878C26.5826 27.1979 26.0406 26.8473 24.7333 26.4966C22.868 25.9863 21.5287 25.1732 21.5287 23.5311C21.5287 22.0484 22.6129 20.9165 24.494 20.6136V19.6766C24.494 19.3752 24.7385 19.1309 25.0399 19.1309H25.5904C25.8918 19.1309 26.1362 19.3752 26.1362 19.6766V20.5178C27.0398 20.554 27.6976 20.7084 28.2196 20.8919C28.4871 20.9859 28.6331 21.274 28.559 21.5476L28.3401 22.3546C28.2557 22.6657 27.9231 22.8362 27.6214 22.7222C27.1408 22.5405 26.4613 22.3512 25.5781 22.3512C24.4621 22.3512 24.1433 22.8135 24.1433 23.228C24.1433 23.7381 24.8129 24.0888 26.2636 24.5353C28.3362 25.157 29.197 26.0179 29.197 27.5643C29.197 28.9832 28.1449 30.2586 26.1042 30.5775V31.6259C26.1042 31.9273 25.8598 32.1717 25.5583 32.1717H25.0079C24.7065 32.172 24.4622 31.9275 24.4622 31.6261Z" fill="#55BB78"/>
<path d="M23.0043 56.2851C27.7465 56.2851 31.5907 52.4408 31.5907 47.6987C31.5907 42.9566 27.7465 39.1123 23.0043 39.1123C18.2622 39.1123 14.418 42.9566 14.418 47.6987C14.418 52.4408 18.2622 56.2851 23.0043 56.2851Z" fill="#34AD5D"/>
<path d="M23.004 55.9997C27.5884 55.9997 31.3049 52.2833 31.3049 47.6988C31.3049 43.1144 27.5884 39.3979 23.004 39.3979C18.4195 39.3979 14.7031 43.1144 14.7031 47.6988C14.7031 52.2833 18.4195 55.9997 23.004 55.9997Z" fill="#34AD5D"/>
<path opacity="0.66" d="M16.1594 44.4307C16.1322 44.4307 16.1045 44.4245 16.0784 44.4114C15.9896 44.3667 15.9541 44.2584 15.9988 44.1697C17.3418 41.5092 20.0261 39.8564 23.0044 39.8564C23.4796 39.8564 23.9555 39.8993 24.419 39.9836C24.5168 40.0014 24.5816 40.0951 24.5638 40.193C24.546 40.2907 24.4528 40.3552 24.3544 40.3378C23.9122 40.2573 23.458 40.2164 23.0043 40.2164C20.1627 40.2164 17.6015 41.7934 16.32 44.332C16.2885 44.3947 16.2252 44.4307 16.1594 44.4307Z" fill="white"/>
<path opacity="0.66" d="M30.1877 48.4602C30.5078 44.5932 27.6325 41.1989 23.7655 40.8788C19.8985 40.5587 16.5042 43.434 16.1841 47.3009C15.864 51.1679 18.7393 54.5622 22.6063 54.8824C26.4733 55.2025 29.8676 52.3272 30.1877 48.4602Z" fill="white"/>
<path d="M22.4958 53.1025V52.3381C21.699 52.3063 20.9109 52.1182 20.3511 51.8731C20.1512 51.7856 20.0493 51.5613 20.1067 51.3507L20.3009 50.6388C20.3722 50.3776 20.6562 50.2425 20.9058 50.3472C21.4611 50.58 22.1468 50.7642 22.8861 50.7642C23.6536 50.7642 24.226 50.504 24.226 49.9707C24.226 49.4894 23.7837 49.2032 22.717 48.9171C21.1951 48.5008 20.1024 47.8374 20.1024 46.4976C20.1024 45.2877 20.987 44.3642 22.5219 44.117V43.3526C22.5219 43.1066 22.7213 42.9072 22.9672 42.9072H23.4163C23.6623 42.9072 23.8616 43.1066 23.8616 43.3526V44.0389C24.599 44.0684 25.1357 44.1945 25.5617 44.3442C25.7798 44.4209 25.8991 44.656 25.8386 44.8792L25.6599 45.5377C25.5911 45.7916 25.3197 45.9307 25.0736 45.8377C24.6814 45.6893 24.127 45.535 23.4064 45.535C22.4957 45.535 22.2356 45.9121 22.2356 46.2504C22.2356 46.6667 22.7819 46.9528 23.9657 47.3171C25.6567 47.8244 26.3591 48.5268 26.3591 49.7886C26.3591 50.9463 25.5006 51.9869 23.8356 52.2472V53.1026C23.8356 53.3486 23.6362 53.5479 23.3902 53.5479H22.941C22.6952 53.5478 22.4958 53.3484 22.4958 53.1025Z" fill="#55BB78"/>
<path d="M44.9756 8.93251L44.2453 9.47219C44.1446 9.54657 44.1233 9.6885 44.1977 9.78905C44.2721 9.8897 44.4141 9.9108 44.5149 9.83653L45.245 9.29809C45.3461 9.22381 45.3678 9.08188 45.2935 8.98082C45.2193 8.87975 45.0772 8.85803 44.9761 8.9323L44.9756 8.93251Z" fill="#8AD0A2"/>
<path d="M42.97 10.4202L42.2428 10.9645C42.143 11.0392 42.1227 11.1806 42.1974 11.2803C42.272 11.3801 42.4138 11.4001 42.5135 11.3254L43.2402 10.7824C43.3403 10.708 43.3612 10.5665 43.2868 10.4662C43.2124 10.366 43.0708 10.3452 42.9706 10.4197L42.97 10.4202Z" fill="#8AD0A2"/>
<path d="M40.9728 11.9224L40.2507 12.4722C40.152 12.5474 40.1329 12.6882 40.2081 12.787C40.2832 12.8857 40.4246 12.9044 40.5233 12.8292L41.2447 12.281C41.3439 12.2062 41.3636 12.0651 41.2887 11.9659C41.2139 11.8668 41.0728 11.847 40.9736 11.9219L40.9728 11.9224Z" fill="#8AD0A2"/>
<path d="M38.9904 13.4407L38.273 13.9981C38.1754 14.0738 38.1578 14.2143 38.2335 14.3117C38.3094 14.4093 38.4504 14.4266 38.5478 14.3507L39.2643 13.795C39.3624 13.7195 39.3807 13.5789 39.3053 13.481C39.2298 13.3829 39.0892 13.3646 38.9912 13.4401L38.9904 13.4407Z" fill="#8AD0A2"/>
<path d="M37.0228 14.9807L36.3116 15.5465C36.2153 15.623 36.1994 15.7631 36.276 15.8593C36.3525 15.9555 36.4932 15.971 36.5894 15.8945L37.2996 15.3304C37.3963 15.2542 37.413 15.1141 37.3369 15.0172C37.2608 14.9204 37.1206 14.9038 37.0238 14.9799L37.0228 14.9807Z" fill="#8AD0A2"/>
<path d="M35.0734 16.5452L34.3695 17.1204C34.2747 17.1978 34.2606 17.3375 34.3381 17.4322C34.4156 17.527 34.5559 17.5404 34.6506 17.463L35.3532 16.8898C35.4486 16.8127 35.4635 16.673 35.3864 16.5777C35.3094 16.4823 35.1697 16.4674 35.0744 16.5444L35.0734 16.5452Z" fill="#8AD0A2"/>
<path d="M33.1451 18.1361L32.4496 18.7217C32.3564 18.8002 32.3445 18.9392 32.423 19.0324C32.5015 19.1257 32.6407 19.1375 32.7338 19.059L32.7346 19.0584L33.4286 18.475L33.4295 18.474C33.5229 18.3955 33.5349 18.2562 33.4564 18.1628C33.3779 18.0694 33.2386 18.0573 33.1452 18.1359L33.1451 18.1361Z" fill="#8AD0A2"/>
<path d="M31.2407 19.7561L30.5549 20.3533C30.4634 20.4328 30.4538 20.5716 30.5335 20.6631C30.613 20.7545 30.7517 20.7641 30.8432 20.6845L30.8441 20.6837L31.5283 20.089L31.5294 20.0881C31.621 20.0085 31.6307 19.8694 31.5511 19.7778C31.4714 19.6861 31.3325 19.6764 31.2407 19.7561Z" fill="#8AD0A2"/>
<path d="M29.3641 21.409L28.6893 22.0187C28.5997 22.0996 28.5926 22.2378 28.6735 22.3274C28.7544 22.417 28.8926 22.4239 28.9822 22.343L28.9833 22.3421L29.6564 21.735L29.6575 21.734C29.7473 21.6531 29.7544 21.5147 29.6735 21.4248C29.5925 21.335 29.454 21.328 29.3643 21.4089L29.3641 21.409Z" fill="#8AD0A2"/>
<path d="M27.5182 23.0974L26.8556 23.7204C26.7681 23.8028 26.7639 23.9405 26.8461 24.028C26.9285 24.1155 27.0661 24.1197 27.1537 24.0374L27.1547 24.0363L27.8154 23.416L27.8166 23.4148C27.9044 23.3324 27.9087 23.1945 27.8264 23.1068C27.744 23.0191 27.606 23.0148 27.5183 23.0972L27.5182 23.0974Z" fill="#8AD0A2"/>
<path d="M25.7077 24.8235L25.0589 25.4614C24.9736 25.5451 24.9724 25.6822 25.0563 25.7676C25.1402 25.8528 25.2773 25.8539 25.3625 25.7701L25.3638 25.769L26.0105 25.1343L26.0119 25.133C26.0973 25.0491 26.0986 24.9118 26.0148 24.8262C25.9309 24.7407 25.7935 24.7394 25.708 24.8233L25.7077 24.8235Z" fill="#8AD0A2"/>
<path d="M23.9372 26.591L23.3039 27.2445C23.2211 27.33 23.2232 27.4665 23.3088 27.5493C23.3942 27.6322 23.5308 27.63 23.6135 27.5446L23.6148 27.5432L24.2458 26.8931L24.2471 26.8917C24.3302 26.8062 24.3281 26.6694 24.2426 26.5863C24.157 26.5034 24.0204 26.5053 23.9372 26.5909V26.591Z" fill="#8AD0A2"/>
<path d="M22.2103 28.4025L21.5946 29.0728C21.5145 29.16 21.5203 29.2959 21.6075 29.3759C21.6947 29.4561 21.8304 29.4503 21.9106 29.3631L21.9119 29.3615L22.5252 28.695L22.5267 28.6935C22.6071 28.6062 22.6014 28.4701 22.5141 28.3898C22.4268 28.3094 22.2908 28.3151 22.2104 28.4024L22.2103 28.4025Z" fill="#8AD0A2"/>
<path d="M20.5338 30.2614L19.9379 30.9495C19.8607 31.0387 19.8703 31.1734 19.9595 31.2507C20.0487 31.3279 20.1834 31.3183 20.2607 31.2291L20.2622 31.2274L20.8556 30.5433L20.8572 30.5416C20.9346 30.4523 20.9249 30.3172 20.8358 30.2398C20.7465 30.1624 20.6114 30.172 20.534 30.2612L20.5338 30.2614Z" fill="#8AD0A2"/>
<path d="M18.9143 32.1699L18.3405 32.8771C18.2665 32.9682 18.2805 33.1021 18.3716 33.1761C18.4627 33.2499 18.5966 33.2362 18.6706 33.1449L18.6721 33.1431L19.2432 32.4404L19.2449 32.4385C19.3191 32.3472 19.3052 32.2132 19.214 32.139C19.1227 32.0648 18.9887 32.0787 18.9145 32.1699H18.9143Z" fill="#8AD0A2"/>
<path d="M17.357 34.1315L16.8083 34.8585C16.738 34.9517 16.7565 35.0844 16.8497 35.1548C16.9429 35.2252 17.0756 35.2067 17.146 35.1134L17.1475 35.1113L17.6934 34.3893L17.6951 34.387C17.7656 34.2937 17.7472 34.1608 17.6539 34.0902C17.5606 34.0197 17.4276 34.0381 17.3571 34.1314L17.357 34.1315Z" fill="#8AD0A2"/>
<path d="M15.8728 36.1486L15.3522 36.8963C15.2858 36.9917 15.3093 37.1228 15.4047 37.1893C15.5001 37.2558 15.6313 37.2323 15.6977 37.1368L15.6994 37.1343L16.217 36.3922L16.2188 36.3896C16.2854 36.294 16.2619 36.1626 16.1664 36.096C16.071 36.0294 15.9395 36.0529 15.8729 36.1484L15.8728 36.1486Z" fill="#8AD0A2"/>
<path d="M14.4678 38.2234L13.979 38.9925C13.9169 39.0902 13.9458 39.2196 14.0435 39.2817C14.1411 39.3437 14.2705 39.3149 14.3327 39.2173L14.3343 39.2145L14.8202 38.4515L14.822 38.4486C14.8843 38.3509 14.8554 38.2211 14.7576 38.1589C14.6599 38.0966 14.5302 38.1254 14.4679 38.2231L14.4678 38.2234Z" fill="#8AD0A2"/>
<path d="M13.1536 40.3575L12.7005 41.1484C12.6433 41.2484 12.6778 41.3758 12.7777 41.433C12.8777 41.4902 13.005 41.4557 13.0623 41.3557L13.0641 41.3526L13.5143 40.5684L13.5161 40.5653C13.5735 40.4652 13.539 40.3376 13.439 40.2802C13.3389 40.2228 13.2113 40.2572 13.1539 40.3574L13.1536 40.3575Z" fill="#8AD0A2"/>
<path d="M11.9416 42.5521L11.5284 43.3648C11.4765 43.4669 11.5173 43.5918 11.6194 43.6438C11.7215 43.6957 11.8464 43.655 11.8984 43.5528L11.9001 43.5495L12.3104 42.7442L12.3121 42.7406C12.3643 42.6383 12.3235 42.5132 12.2213 42.4611C12.119 42.4091 11.9938 42.4497 11.9418 42.552L11.9416 42.5521Z" fill="#8AD0A2"/>
<path d="M10.8434 44.8054L10.4747 45.6392C10.4286 45.7435 10.4758 45.8655 10.5801 45.9115C10.6844 45.9576 10.8064 45.9104 10.8524 45.8061L10.8541 45.8025L11.22 44.9767L11.2216 44.9728C11.2679 44.8685 11.2208 44.7462 11.1163 44.6999C11.0118 44.6536 10.8897 44.7009 10.8434 44.8054Z" fill="#8AD0A2"/>
<path d="M9.87161 47.1162L9.55217 47.9701C9.51234 48.0764 9.56634 48.1947 9.67258 48.2346C9.77893 48.2744 9.89727 48.2204 9.93699 48.1141L9.93854 48.1099L10.2555 47.2649L10.2571 47.2606C10.297 47.1542 10.2431 47.0355 10.1366 46.9956C10.0302 46.9557 9.91155 47.0096 9.87161 47.116V47.1162Z" fill="#8AD0A2"/>
<path d="M9.03933 49.4827L8.77358 50.3548C8.74068 50.4628 8.80151 50.577 8.90961 50.6099C9.01761 50.6428 9.13191 50.5819 9.16481 50.4738L9.16616 50.4694L9.42974 49.6067L9.43108 49.6022C9.46419 49.4939 9.40325 49.3794 9.29505 49.3464C9.18684 49.3134 9.07233 49.3742 9.03933 49.4824V49.4827Z" fill="#8AD0A2"/>
<path d="M8.35795 51.8967L8.14991 52.7856C8.12436 52.895 8.19222 53.0044 8.30167 53.03C8.41112 53.0555 8.52046 52.9877 8.54612 52.8782L8.54725 52.8736L8.75363 51.9946L8.75477 51.9897C8.78053 51.8803 8.71256 51.7705 8.60291 51.7447C8.49336 51.7189 8.3836 51.7869 8.35795 51.8965V51.8967Z" fill="#8AD0A2"/>
<path d="M7.83945 54.3529L7.69307 55.2542C7.67518 55.3645 7.75007 55.4685 7.86045 55.4864C7.97083 55.5043 8.07479 55.4294 8.09269 55.3191L8.09351 55.3142L8.23896 54.4232L8.23979 54.4181C8.25779 54.3077 8.18279 54.2034 8.07231 54.1853C7.96172 54.1673 7.85755 54.2423 7.83945 54.3529Z" fill="#8AD0A2"/>
<path d="M7.49292 56.8399L7.41099 57.7493C7.40096 57.8601 7.48268 57.958 7.59347 57.9681C7.70426 57.978 7.80222 57.8962 7.81215 57.7855L7.81257 57.7804L7.89429 56.8815L7.89481 56.8763C7.90495 56.7654 7.82312 56.6671 7.71212 56.6571C7.60112 56.647 7.50295 56.7289 7.49292 56.8399Z" fill="#8AD0A2"/>
<path d="M7.32476 59.345L7.30863 60.2581C7.30666 60.3688 7.3948 60.46 7.50548 60.4621C7.61617 60.464 7.70752 60.3759 7.70938 60.2652L7.70948 60.2601L7.72613 59.3577L7.72624 59.3525C7.72831 59.2415 7.64007 59.15 7.52917 59.148C7.41828 59.1459 7.32683 59.2342 7.32476 59.345Z" fill="#8AD0A2"/>
<path d="M7.33818 61.8556L7.38783 62.7666C7.39383 62.8766 7.48787 62.9608 7.59783 62.9548C7.70779 62.9488 7.7921 62.8549 7.7861 62.7449L7.78579 62.7399L7.73748 61.8393L7.73717 61.8341C7.73128 61.7239 7.63714 61.6394 7.52697 61.6453C7.4168 61.6512 7.33228 61.7452 7.33818 61.8556Z" fill="#8AD0A2"/>
<path d="M7.53184 64.357L7.64594 65.2623C7.65959 65.371 7.7589 65.4481 7.86763 65.4345C7.97635 65.4207 8.05341 65.3215 8.03966 65.2128L8.03904 65.2079L7.9269 64.3124L7.92628 64.3074C7.91262 64.1985 7.81332 64.1212 7.70439 64.1349C7.59546 64.1485 7.51818 64.2478 7.53184 64.3568V64.357Z" fill="#8AD0A2"/>
<path d="M7.90042 66.8395L8.07659 67.7352C8.09759 67.8421 8.20134 67.9117 8.30831 67.8907C8.41527 67.8696 8.48499 67.7658 8.46389 67.6588L8.46296 67.6543L8.28938 66.768L8.28845 66.7633C8.26745 66.6561 8.16358 66.5862 8.05631 66.6073C7.94914 66.6282 7.87921 66.7321 7.90021 66.8393L7.90042 66.8395Z" fill="#8AD0A2"/>
<path d="M8.43651 69.2917L8.67309 70.1732C8.70123 70.278 8.80891 70.3402 8.9137 70.312C9.0185 70.284 9.08056 70.1762 9.05243 70.0715L9.05119 70.0666L8.81791 69.1949L8.81657 69.1899C8.78843 69.0849 8.68064 69.0226 8.57564 69.0507C8.47065 69.0787 8.40837 69.1866 8.4364 69.2916L8.43651 69.2917Z" fill="#8AD0A2"/>
<path d="M9.14266 71.7008L9.44173 72.5634C9.47711 72.6654 9.58841 72.7194 9.69031 72.684C9.79231 72.6486 9.84631 72.5374 9.81093 72.4354L9.80927 72.4308L9.51414 71.5775L9.51248 71.5728C9.47711 71.4706 9.36569 71.4164 9.26349 71.4517C9.16149 71.4871 9.10728 71.5986 9.14266 71.7008Z" fill="#8AD0A2"/>
<path d="M10.0186 74.053L10.3773 74.8921C10.4196 74.9909 10.5339 75.0366 10.6325 74.9944C10.7312 74.9523 10.7771 74.838 10.7349 74.7393L10.733 74.735L10.3788 73.9046L10.3768 73.9C10.3346 73.8011 10.2202 73.7552 10.1213 73.7974C10.0224 73.8395 9.97639 73.9541 10.0186 74.053Z" fill="#8AD0A2"/>
<path d="M11.0546 76.3377L11.4695 77.1501C11.5181 77.2452 11.6346 77.2829 11.7297 77.2344C11.8248 77.1857 11.8625 77.0693 11.8139 76.9741L11.8118 76.9701L11.4018 76.1657L11.3996 76.1614C11.3511 76.0661 11.2343 76.0282 11.139 76.0769C11.0436 76.1254 11.0058 76.2422 11.0544 76.3375L11.0546 76.3377Z" fill="#8AD0A2"/>
<path d="M12.2421 78.5468L12.7091 79.3301C12.7636 79.4214 12.8817 79.4512 12.9728 79.3968C13.0641 79.3424 13.094 79.2243 13.0395 79.133L13.0374 79.1294L12.5755 78.3533L12.5732 78.3496C12.5188 78.2581 12.4005 78.2281 12.309 78.2826C12.2176 78.337 12.1876 78.4552 12.242 78.5467L12.2421 78.5468Z" fill="#8AD0A2"/>
<path d="M13.5695 80.6744L14.0845 81.427C14.1442 81.5142 14.2633 81.5366 14.3505 81.4769C14.4377 81.4171 14.46 81.2981 14.4003 81.2109L14.398 81.2075L13.8886 80.4615L13.8862 80.4581C13.8265 80.3707 13.7071 80.3482 13.6197 80.408C13.5323 80.4678 13.5099 80.5869 13.5695 80.6744Z" fill="#8AD0A2"/>
<path d="M15.0243 82.7162L15.5827 83.4368C15.647 83.5199 15.7666 83.5351 15.8498 83.4708C15.9329 83.4064 15.9481 83.2867 15.8837 83.2037L15.8813 83.2007L15.3284 82.4859L15.326 82.4827C15.2616 82.3994 15.1418 82.3841 15.0584 82.4486C14.975 82.5129 14.9598 82.6329 15.0243 82.7162Z" fill="#8AD0A2"/>
<path d="M16.5953 84.67L17.1929 85.3585C17.2615 85.4374 17.3811 85.4458 17.46 85.3773C17.5389 85.3087 17.5474 85.1891 17.4788 85.1102L17.4765 85.1074L16.8844 84.4242L16.8819 84.4214C16.8133 84.3422 16.6935 84.3337 16.6143 84.4023C16.5351 84.471 16.5266 84.5909 16.5952 84.6699L16.5953 84.67Z" fill="#8AD0A2"/>
<path d="M18.2697 86.5346L18.9025 87.1906C18.9747 87.2655 19.0939 87.2676 19.1687 87.1954C19.2436 87.1231 19.2458 87.0039 19.1736 86.9291L19.1713 86.9267L18.5439 86.2752L18.5414 86.2727C18.4691 86.1976 18.3496 86.1953 18.2746 86.2676C18.1995 86.3398 18.1973 86.4594 18.2696 86.5345L18.2697 86.5346Z" fill="#8AD0A2"/>
<path d="M20.0388 88.3104L20.7021 88.9335C20.7775 89.0045 20.8961 89.0006 20.9669 88.9253C21.0378 88.8498 21.0341 88.7314 20.9586 88.6605L20.9564 88.6582L20.2982 88.039L20.2959 88.0368C20.2203 87.9658 20.1016 87.9695 20.0305 88.0449C19.9594 88.1204 19.9631 88.2392 20.0386 88.3102L20.0388 88.3104Z" fill="#8AD0A2"/>
<path d="M21.8895 89.9975L22.5815 90.5898C22.6597 90.6568 22.7773 90.6476 22.8443 90.5694C22.9112 90.4913 22.9021 90.3736 22.8239 90.3068L22.8217 90.3049L22.1347 89.7159L22.1324 89.714C22.0541 89.6468 21.9363 89.6558 21.8692 89.7341C21.802 89.8124 21.8111 89.9303 21.8895 89.9975Z" fill="#8AD0A2"/>
<path d="M23.8143 91.5995L24.5314 92.1611C24.612 92.2242 24.7285 92.2099 24.7916 92.1294C24.8547 92.0489 24.8405 91.9324 24.7599 91.8693L24.7578 91.8676L24.0457 91.309L24.0434 91.3072C23.9627 91.2438 23.8461 91.258 23.7827 91.3387C23.7194 91.4194 23.7336 91.5362 23.8143 91.5995Z" fill="#8AD0A2"/>
<path d="M25.8064 93.1173L26.5458 93.6489C26.6284 93.7083 26.7437 93.6896 26.803 93.6069C26.8624 93.5243 26.8436 93.4091 26.7609 93.3496L26.7589 93.3481L26.0243 92.8191L26.0221 92.8175C25.9394 92.7579 25.8239 92.7768 25.7643 92.8594C25.7047 92.9422 25.7235 93.0577 25.8062 93.1172L25.8064 93.1173Z" fill="#8AD0A2"/>
<path d="M27.8576 94.5538L28.6169 95.0561C28.7013 95.112 28.8151 95.0888 28.871 95.0044C28.9268 94.9199 28.9037 94.8062 28.8192 94.7503L28.8173 94.749L28.0626 94.2488L28.0606 94.2473C27.9761 94.1914 27.8621 94.2145 27.806 94.299C27.7499 94.3835 27.7731 94.4975 27.8576 94.5535V94.5538Z" fill="#8AD0A2"/>
<path d="M29.9616 95.9103L30.7388 96.3844C30.8248 96.4369 30.9369 96.4097 30.9893 96.3237C31.0418 96.2379 31.0146 96.1255 30.9286 96.0732L30.9267 96.072L30.154 95.5999L30.1519 95.5986C30.0659 95.546 29.9534 95.5732 29.9009 95.6592C29.8482 95.7453 29.8754 95.8578 29.9615 95.9103H29.9616Z" fill="#8AD0A2"/>
<path d="M32.114 97.1896L32.9073 97.6361C32.9946 97.6853 33.105 97.6543 33.1542 97.5671C33.2033 97.4798 33.1724 97.3692 33.0851 97.3202L33.0832 97.3192L32.2943 96.8742L32.2924 96.8731C32.205 96.8238 32.0942 96.8547 32.0449 96.9421C31.9957 97.0294 32.0266 97.1403 32.114 97.1896Z" fill="#8AD0A2"/>
<path d="M34.3083 98.3935L35.116 98.8128C35.2044 98.8588 35.3132 98.8243 35.3591 98.7359C35.405 98.6475 35.3706 98.5387 35.2822 98.4928L35.2804 98.4918L34.477 98.0737L34.475 98.0727C34.3865 98.0266 34.2774 98.061 34.2314 98.1495C34.1853 98.238 34.2197 98.3471 34.3082 98.3932L34.3083 98.3935Z" fill="#8AD0A2"/>
<path d="M36.5406 99.524L37.3614 99.917C37.4506 99.9599 37.5577 99.922 37.6005 99.8328C37.6433 99.7435 37.6056 99.6365 37.5162 99.5937L37.5145 99.5927L36.6978 99.2008L36.6959 99.1999C36.6064 99.1569 36.4991 99.1947 36.4562 99.2841C36.4133 99.3735 36.4509 99.4808 36.5404 99.5238H36.5406V99.524Z" fill="#8AD0A2"/>
<path d="M38.8088 100.582L39.6414 100.949C39.7315 100.989 39.8368 100.948 39.8765 100.858C39.9162 100.768 39.8753 100.663 39.7852 100.623L39.7836 100.622L38.955 100.256L38.9531 100.255C38.8629 100.215 38.7574 100.256 38.7175 100.346C38.6775 100.436 38.7184 100.542 38.8086 100.582L38.8088 100.582Z" fill="#8AD0A2"/>
<path d="M41.108 101.569L41.9514 101.911C42.0422 101.948 42.1456 101.904 42.1823 101.813C42.2191 101.722 42.1753 101.619 42.0846 101.582L42.0829 101.582L41.2435 101.241L41.2416 101.24C41.1507 101.203 41.0471 101.247 41.0102 101.338C40.9733 101.429 41.0171 101.532 41.108 101.569Z" fill="#8AD0A2"/>
<path d="M43.4365 102.486L44.2898 102.802C44.3811 102.836 44.4825 102.79 44.5163 102.698C44.5502 102.607 44.5036 102.506 44.4123 102.472L44.4106 102.471L43.5612 102.156L43.5594 102.155C43.468 102.121 43.3663 102.168 43.3324 102.259C43.2984 102.351 43.345 102.452 43.4364 102.486H43.4365Z" fill="#8AD0A2"/>
<path d="M45.7904 103.333L46.6526 103.624C46.7443 103.655 46.8438 103.606 46.8747 103.514C46.9056 103.422 46.8563 103.323 46.7646 103.292L46.763 103.291L45.9046 103.001L45.9028 103.001C45.8109 102.969 45.7112 103.019 45.6802 103.111C45.6492 103.202 45.6984 103.302 45.7904 103.333Z" fill="#8AD0A2"/>
<path d="M48.1688 104.111L49.0392 104.376C49.1313 104.404 49.2287 104.352 49.2567 104.26C49.2847 104.168 49.2328 104.07 49.1407 104.042L49.1391 104.042L48.2724 103.777L48.2706 103.777C48.1785 103.749 48.0808 103.8 48.0526 103.893C48.0244 103.985 48.0764 104.082 48.1685 104.111L48.1688 104.111Z" fill="#8AD0A2"/>
<path d="M50.5694 104.817L51.4474 105.056C51.5397 105.081 51.6349 105.027 51.6601 104.935C51.6852 104.842 51.6308 104.747 51.5384 104.722L51.5368 104.722L50.6626 104.483L50.6608 104.482C50.5683 104.457 50.4728 104.511 50.4476 104.604C50.4223 104.696 50.4768 104.792 50.5693 104.817L50.5694 104.817Z" fill="#8AD0A2"/>
<path d="M52.9897 105.452L53.8745 105.664C53.967 105.687 54.06 105.63 54.0822 105.537C54.1045 105.445 54.0475 105.352 53.955 105.329L53.9532 105.329L53.0724 105.117L53.0705 105.116C52.9778 105.094 52.8846 105.151 52.8623 105.243C52.8399 105.336 52.8969 105.429 52.9896 105.452L52.9897 105.452Z" fill="#8AD0A2"/>
<path d="M55.4288 106.012L56.3198 106.197C56.4123 106.216 56.503 106.157 56.5222 106.064C56.5414 105.972 56.482 105.881 56.3894 105.862L56.3876 105.861L55.5007 105.676L55.4987 105.676C55.4059 105.657 55.315 105.716 55.2956 105.809C55.2763 105.902 55.3358 105.993 55.4286 106.012H55.4288Z" fill="#8AD0A2"/>
<path d="M57.8845 106.496L58.781 106.652C58.8736 106.668 58.9618 106.606 58.978 106.514C58.9941 106.421 58.9322 106.333 58.8395 106.317L58.8376 106.316L57.9453 106.16L57.9432 106.16C57.8504 106.143 57.762 106.206 57.7457 106.298C57.7295 106.391 57.7916 106.48 57.8844 106.496H57.8845Z" fill="#8AD0A2"/>
<path d="M60.3533 106.9L61.2532 107.03C61.3456 107.044 61.4315 106.98 61.4449 106.887C61.4584 106.795 61.3942 106.709 61.3018 106.695L61.3005 106.695L60.4034 106.564L60.4021 106.564C60.3094 106.551 60.2233 106.615 60.2098 106.708C60.1963 106.8 60.2605 106.886 60.3531 106.9H60.3533Z" fill="#8AD0A2"/>
<path d="M62.8307 107.242L63.7333 107.352C63.8255 107.363 63.9094 107.298 63.9207 107.205C63.932 107.113 63.8664 107.029 63.7741 107.018L63.7729 107.018L62.8731 106.907L62.8718 106.907C62.7794 106.896 62.6953 106.961 62.6839 107.054C62.6725 107.146 62.7382 107.23 62.8306 107.242L62.8307 107.242Z" fill="#8AD0A2"/>
<path d="M65.3152 107.527L66.2202 107.617C66.312 107.626 66.394 107.559 66.4031 107.467C66.4122 107.375 66.345 107.293 66.2532 107.284L66.2518 107.284L65.3498 107.194L65.3483 107.194C65.2563 107.185 65.1741 107.252 65.1649 107.344C65.1557 107.436 65.2229 107.518 65.315 107.527H65.3152Z" fill="#8AD0A2"/>
<path d="M67.8055 107.755L68.7124 107.823C68.8039 107.83 68.8837 107.761 68.8905 107.67C68.8974 107.578 68.8288 107.498 68.7372 107.492L68.7359 107.491L67.832 107.423L67.8305 107.423C67.7387 107.416 67.6588 107.485 67.6518 107.576C67.6449 107.668 67.7136 107.748 67.8054 107.755H67.8055Z" fill="#8AD0A2"/>
<path d="M70.3008 107.923L71.2091 107.969C71.3002 107.973 71.3778 107.903 71.3823 107.812C71.387 107.721 71.3169 107.643 71.2257 107.639H71.2244L70.3191 107.592L70.3176 107.592C70.2262 107.587 70.1484 107.657 70.1438 107.749C70.1391 107.84 70.2094 107.918 70.3007 107.923L70.3008 107.923Z" fill="#8AD0A2"/>
<path d="M72.8 108.029L73.7085 108.052C73.7991 108.055 73.8745 107.983 73.8768 107.892C73.8791 107.802 73.8075 107.726 73.7168 107.724H73.7154L72.8101 107.7H72.8085C72.7177 107.698 72.6421 107.77 72.6397 107.86C72.6373 107.951 72.7091 108.027 72.8 108.029Z" fill="#8AD0A2"/>
<path d="M75.2994 108.072L76.2089 108.072C76.299 108.072 76.3721 107.999 76.372 107.909C76.372 107.818 76.2989 107.745 76.2088 107.745H76.2073L75.301 107.745H75.2994C75.2091 107.745 75.1358 107.818 75.1357 107.909C75.1357 107.999 75.2089 108.072 75.2992 108.072H75.2994Z" fill="#8AD0A2"/>
<path d="M77.8006 108.05L78.7098 108.026C78.7993 108.023 78.8699 107.948 78.8675 107.859C78.8652 107.77 78.7907 107.699 78.7011 107.701L78.6997 107.701L77.7937 107.725H77.7921C77.7024 107.727 77.6316 107.802 77.6338 107.891C77.6361 107.981 77.7108 108.052 77.8006 108.05V108.05Z" fill="#8AD0A2"/>
<path d="M80.3002 107.962L81.2083 107.913C81.2972 107.908 81.3654 107.832 81.3606 107.743C81.3558 107.654 81.2799 107.586 81.191 107.591L81.1896 107.591L80.2846 107.639H80.2829C80.1938 107.644 80.1255 107.72 80.1301 107.809C80.1349 107.898 80.2109 107.967 80.3 107.962H80.3002Z" fill="#8AD0A2"/>
<path d="M82.7967 107.806L83.7032 107.732C83.7914 107.725 83.8571 107.647 83.8498 107.559C83.8427 107.471 83.7653 107.405 83.6772 107.413L83.6756 107.413L82.7723 107.486L82.7707 107.486C82.6823 107.493 82.6164 107.57 82.6236 107.659C82.6307 107.747 82.7081 107.813 82.7965 107.806H82.7967Z" fill="#8AD0A2"/>
<path d="M85.2874 107.58L86.1914 107.481C86.2788 107.471 86.3418 107.393 86.3322 107.305C86.3226 107.218 86.244 107.155 86.1566 107.165L86.1552 107.165L85.2543 107.263L85.2526 107.263C85.165 107.273 85.1018 107.351 85.1113 107.439C85.1208 107.526 85.1997 107.59 85.2872 107.58H85.2874Z" fill="#8AD0A2"/>
<path d="M87.7712 107.285L88.672 107.16C88.7585 107.148 88.8189 107.068 88.8069 106.982C88.7949 106.895 88.715 106.835 88.6286 106.847L88.627 106.847L87.7293 106.971L87.7277 106.971C87.641 106.983 87.5803 107.063 87.5923 107.15C87.6043 107.236 87.6843 107.297 87.771 107.285L87.7712 107.285Z" fill="#8AD0A2"/>
<path d="M90.2451 106.919L91.142 106.768C91.2276 106.753 91.2853 106.672 91.2709 106.587C91.2565 106.501 91.1754 106.443 91.0899 106.458L91.0883 106.458L90.1947 106.608L90.193 106.608C90.1073 106.622 90.0493 106.703 90.0637 106.789C90.0781 106.875 90.1594 106.933 90.2451 106.919Z" fill="#8AD0A2"/>
<path d="M92.7075 106.48L93.5997 106.303C93.6843 106.287 93.7392 106.204 93.7223 106.12C93.7056 106.035 93.6234 105.98 93.5388 105.997L93.5374 105.997L92.6484 106.173L92.6467 106.173C92.562 106.19 92.5067 106.273 92.5235 106.357C92.5403 106.442 92.6226 106.497 92.7073 106.481L92.7075 106.48Z" fill="#8AD0A2"/>
<path d="M95.1562 105.971L96.0426 105.767C96.1261 105.748 96.1783 105.665 96.1592 105.581C96.1401 105.498 96.0568 105.446 95.9733 105.465L95.9718 105.465L95.0883 105.667L95.0867 105.667C95.003 105.686 94.9506 105.77 94.9698 105.854C94.9889 105.937 95.0723 105.99 95.156 105.971H95.1562Z" fill="#8AD0A2"/>
<path d="M97.5881 105.389L98.4682 105.159C98.5506 105.138 98.5999 105.054 98.5785 104.971C98.557 104.889 98.4729 104.84 98.3904 104.861L98.3889 104.861L97.5119 105.089L97.5102 105.09C97.4276 105.111 97.3781 105.196 97.3995 105.278C97.421 105.361 97.5053 105.41 97.5879 105.389H97.5881Z" fill="#8AD0A2"/>
<path d="M100.002 104.734L100.875 104.479C100.956 104.455 101.003 104.37 100.979 104.289C100.955 104.208 100.87 104.161 100.789 104.185L100.788 104.185L99.9178 104.439L99.9161 104.44C99.8348 104.464 99.7881 104.549 99.8119 104.63C99.8357 104.712 99.9208 104.758 100.002 104.734H100.002Z" fill="#8AD0A2"/>
<path d="M102.396 104.009L103.261 103.727C103.341 103.701 103.384 103.615 103.358 103.536C103.332 103.456 103.247 103.412 103.167 103.438L103.165 103.439L102.303 103.718L102.302 103.719C102.222 103.745 102.178 103.831 102.204 103.911C102.23 103.991 102.316 104.035 102.396 104.009L102.396 104.009Z" fill="#8AD0A2"/>
<path d="M104.767 103.212L105.623 102.905C105.702 102.877 105.743 102.79 105.714 102.711C105.686 102.633 105.6 102.592 105.521 102.62L105.52 102.621L104.666 102.926L104.665 102.927C104.586 102.955 104.545 103.042 104.573 103.12C104.602 103.199 104.688 103.24 104.767 103.212H104.767Z" fill="#8AD0A2"/>
<path d="M107.113 102.345L107.959 102.013C108.036 101.982 108.074 101.895 108.044 101.818C108.014 101.741 107.927 101.703 107.849 101.733L107.848 101.734L107.004 102.064L107.003 102.065C106.925 102.095 106.887 102.182 106.918 102.26C106.948 102.337 107.035 102.375 107.113 102.345Z" fill="#8AD0A2"/>
<path d="M109.434 101.417L110.273 101.07C110.35 101.039 110.386 100.952 110.354 100.876C110.323 100.8 110.235 100.764 110.159 100.795L109.321 101.14C109.244 101.171 109.208 101.258 109.239 101.335C109.27 101.411 109.357 101.448 109.433 101.417L109.434 101.417Z" fill="#8AD0A2"/>
<path d="M111.738 100.455L112.573 100.098C112.648 100.066 112.683 99.9789 112.651 99.9038C112.619 99.8285 112.532 99.7938 112.456 99.8259L111.622 100.182C111.547 100.213 111.511 100.3 111.543 100.376C111.575 100.452 111.662 100.487 111.737 100.455L111.738 100.455Z" fill="#8AD0A2"/>
<path d="M114.032 99.4663L114.864 99.1016C114.938 99.0689 114.972 98.9822 114.939 98.9079C114.907 98.8334 114.82 98.7997 114.745 98.8322L113.914 99.196C113.839 99.2283 113.805 99.3152 113.837 99.3898C113.87 99.4645 113.957 99.4989 114.031 99.4664L114.032 99.4663Z" fill="#8AD0A2"/>
<path d="M116.317 98.4578L117.147 98.0875C117.221 98.0546 117.254 97.9682 117.221 97.8946C117.188 97.821 117.102 97.7879 117.028 97.8208L116.199 98.1902C116.125 98.223 116.091 98.3095 116.124 98.3834C116.157 98.4573 116.243 98.4906 116.317 98.458L116.317 98.4578Z" fill="#8AD0A2"/>
<path d="M118.598 97.4362L119.426 97.0625C119.499 97.0296 119.532 96.9437 119.499 96.8706C119.466 96.7976 119.38 96.7651 119.307 96.798L118.479 97.1708C118.405 97.2036 118.372 97.2898 118.405 97.363C118.438 97.4363 118.524 97.469 118.598 97.4362H118.598Z" fill="#8AD0A2"/>
<path d="M120.874 96.4081L121.702 96.0336C121.774 96.0009 121.807 95.9156 121.774 95.8431C121.741 95.7706 121.656 95.7383 121.583 95.7712L120.755 96.1449C120.682 96.1777 120.65 96.2633 120.683 96.336C120.716 96.4087 120.801 96.441 120.874 96.4082L120.874 96.4081Z" fill="#8AD0A2"/>
<path d="M123.151 95.3798L123.979 95.0069C124.051 94.9746 124.083 94.89 124.051 94.8179C124.019 94.7458 123.934 94.7136 123.862 94.746L123.033 95.1183C122.961 95.1508 122.928 95.2357 122.961 95.3079C122.993 95.3802 123.078 95.4124 123.15 95.38L123.151 95.3798Z" fill="#8AD0A2"/>
<path d="M125.43 94.3572L126.26 93.9882C126.332 93.9565 126.364 93.8727 126.332 93.8009C126.301 93.7292 126.217 93.6967 126.145 93.7286L125.314 94.097C125.242 94.129 125.21 94.2131 125.242 94.2849C125.274 94.3568 125.358 94.3893 125.43 94.3574L125.43 94.3572Z" fill="#8AD0A2"/>
<path d="M127.714 93.3474L128.546 92.9847C128.618 92.9538 128.651 92.8708 128.62 92.7993C128.589 92.7279 128.505 92.6951 128.434 92.726L127.601 93.0883C127.529 93.1194 127.496 93.2027 127.527 93.2744C127.559 93.346 127.642 93.3788 127.713 93.3476L127.714 93.3474Z" fill="#8AD0A2"/>
<path d="M130.004 92.3573L130.84 92.0034C130.911 91.9736 130.945 91.8916 130.915 91.8202C130.885 91.7488 130.803 91.7154 130.731 91.7453L129.894 92.099C129.823 92.1292 129.79 92.2116 129.82 92.2829C129.85 92.3544 129.932 92.3878 130.004 92.3576L130.004 92.3573Z" fill="#8AD0A2"/>
<path d="M132.306 91.3933L133.146 91.0505C133.217 91.022 133.251 90.9408 133.223 90.8697C133.194 90.7985 133.113 90.7642 133.041 90.7928L132.2 91.1354C132.129 91.1645 132.095 91.2458 132.124 91.3171C132.153 91.3885 132.234 91.4227 132.305 91.3936L132.306 91.3933Z" fill="#8AD0A2"/>
<path d="M134.619 90.4622L135.464 90.1329C135.535 90.1057 135.571 90.0259 135.543 89.9547C135.516 89.8835 135.436 89.8481 135.364 89.8754L134.518 90.2046C134.447 90.2323 134.411 90.3124 134.439 90.3837C134.467 90.4548 134.547 90.4902 134.618 90.4625L134.619 90.4622Z" fill="#8AD0A2"/>
<path d="M136.947 89.5696L137.798 89.2564C137.869 89.2307 137.906 89.1523 137.88 89.0811C137.855 89.0099 137.775 88.9733 137.704 88.9989L136.852 89.3122C136.781 89.3383 136.744 89.4173 136.77 89.4885C136.796 89.5597 136.875 89.5962 136.946 89.57L136.947 89.5696Z" fill="#8AD0A2"/>
<path d="M139.292 88.7239L140.149 88.4291L140.15 88.4288C140.221 88.4043 140.259 88.3269 140.234 88.2559C140.21 88.1848 140.133 88.147 140.062 88.1715L139.202 88.4664C139.131 88.4908 139.093 88.5684 139.118 88.6396C139.142 88.7109 139.22 88.7488 139.291 88.7243L139.292 88.7239Z" fill="#8AD0A2"/>
<path d="M141.655 87.9306L142.519 87.6566L142.52 87.6563C142.591 87.6337 142.63 87.5578 142.608 87.4868C142.585 87.4158 142.51 87.3764 142.439 87.3989L141.572 87.6729C141.501 87.6955 141.461 87.7714 141.484 87.8427C141.506 87.9139 141.582 87.9535 141.654 87.9309L141.655 87.9306Z" fill="#8AD0A2"/>
<path d="M144.037 87.1971L144.909 86.949L144.911 86.9484C144.982 86.9282 145.023 86.8541 145.003 86.7829C144.982 86.7116 144.909 86.6704 144.837 86.6908L143.962 86.9393C143.891 86.9595 143.849 87.0339 143.869 87.1053C143.89 87.1766 143.964 87.2179 144.035 87.1979L144.035 87.1977L144.037 87.1971Z" fill="#8AD0A2"/>
<path d="M146.442 86.5474L147.323 86.3364L147.325 86.336C147.396 86.319 147.44 86.2472 147.423 86.1758C147.406 86.1043 147.334 86.0603 147.263 86.0774L146.378 86.2885C146.306 86.3056 146.262 86.3775 146.279 86.4492C146.296 86.5208 146.368 86.5651 146.44 86.5479L146.44 86.5478L146.442 86.5474Z" fill="#8AD0A2"/>
<path d="M148.872 86.0008L149.761 85.8284L149.763 85.828C149.834 85.8141 149.881 85.7448 149.867 85.6732C149.853 85.6017 149.784 85.555 149.713 85.5688L148.819 85.7414C148.747 85.7553 148.701 85.8248 148.714 85.8965C148.728 85.9682 148.798 86.0152 148.869 86.0014L148.872 86.0008Z" fill="#8AD0A2"/>
<path d="M151.325 85.5608L152.221 85.4278L152.223 85.4275C152.295 85.4169 152.344 85.3503 152.333 85.2787C152.323 85.2072 152.256 85.1578 152.185 85.1684L151.284 85.3014C151.212 85.312 151.163 85.3788 151.173 85.4504C151.184 85.5222 151.251 85.5718 151.322 85.5611L151.325 85.5608Z" fill="#8AD0A2"/>
<path d="M49.0361 3.99268L49.4819 7.26728L51.508 5.55761L49.0361 3.99268Z" fill="#34AD5D"/>
<path d="M63.5056 0.108887L55.7182 9.06932C55.5691 9.24084 55.3567 9.34439 55.1296 9.35598C54.9026 9.36756 54.6806 9.28636 54.5148 9.13088L45.813 0.973287C45.7134 0.879874 45.6804 0.73536 45.7295 0.607914C45.7786 0.480467 45.9002 0.395641 46.0368 0.393469L63.5056 0.108887Z" fill="#8AD0A2"/>
<path d="M49.0371 3.99289L63.5052 0.108887L50.4374 5.3137L50.5223 6.22703L49.0371 3.99289Z" fill="#34AD5D"/>
<path d="M51.2742 6.09036L49.4824 7.26696L50.4381 5.31348L51.2742 6.09036Z" fill="#34AD5D"/>
<path d="M119.199 106.97C119.199 104.003 116.793 101.598 113.827 101.598H111.405C108.438 101.598 106.033 104.003 106.033 106.97V121.421C106.033 124.388 108.438 126.793 111.405 126.793H113.827C116.793 126.793 119.199 124.388 119.199 121.421V106.97Z" fill="#018B30"/>
<path d="M192.97 106.97C192.97 104.003 190.565 101.598 187.598 101.598H185.177C182.21 101.598 179.805 104.003 179.805 106.97V121.421C179.805 124.388 182.21 126.793 185.177 126.793H187.598C190.565 126.793 192.97 124.388 192.97 121.421V106.97Z" fill="#018B30"/>
<path d="M112.948 80.1394C112.787 80.1037 112.616 79.961 112.616 79.7961V78.6921C112.616 77.6284 112.073 76.6553 111.123 76.1764C109.898 75.5587 108.485 75.5372 107.242 76.118L104.911 77.1866C103.821 77.6958 103.082 78.7902 103.082 79.9934V80.8351C103.082 82.3845 104.284 83.6957 105.819 83.9047L115.254 85.1855L116.403 80.901L112.948 80.1394Z" fill="#55BB78"/>
<path d="M186.21 80.1394C186.371 80.1037 186.387 79.961 186.387 79.7961V78.6921C186.387 77.6284 187.085 76.6553 188.035 76.1764C189.261 75.5587 190.751 75.5372 191.995 76.118L194.208 77.1866C195.298 77.6958 195.92 78.7902 195.92 79.9934V80.8351C195.92 82.3845 194.875 83.6957 193.339 83.9047L183.982 85.1855L182.794 80.901L186.21 80.1394Z" fill="#55BB78"/>
<path d="M193.183 89.6118C191.821 85.0148 184.784 80.8267 184.784 80.8267C184.784 80.8267 178.882 62.7827 172.527 62.7827C167.423 62.7827 155.168 62.7827 150.537 62.7827C150.537 62.7827 149.857 62.7827 148.721 62.7827C144.084 62.7827 131.807 62.7827 126.703 62.7827C120.347 62.7827 114.445 80.8267 114.445 80.8267C114.445 80.8267 107.409 85.0463 106.047 89.6432C105.051 93.004 107.21 105.962 108.443 112.632C108.878 114.983 111.097 116.806 113.688 116.806H148.721H150.537H185.541C188.133 116.806 190.352 114.967 190.786 112.616C192.02 105.946 194.178 92.9725 193.183 89.6118Z" fill="#34AD5D"/>
<path d="M192.298 109.047C191.902 108.594 191.298 108.407 190.659 108.407H108.57C107.935 108.407 107.334 108.59 106.938 109.039C106.541 109.487 106.393 110.035 106.533 110.594L107.877 115.975C108.093 116.834 108.938 117.487 109.913 117.487H189.249C190.215 117.487 191.056 116.825 191.28 115.976L192.69 110.646C192.839 110.084 192.694 109.5 192.298 109.047Z" fill="#8AD0A2"/>
<path d="M127.444 100.64C127.444 100.64 125.401 94.511 122.828 93.9813C120.256 93.4517 109.36 91.1818 109.133 93.0734C108.906 94.9649 106.712 101.472 113.219 102.077C119.726 102.683 128.492 103.181 127.444 100.64Z" fill="#8AD0A2"/>
<path d="M171.785 100.64C171.785 100.64 173.828 94.511 176.4 93.9813C178.973 93.4517 189.869 91.1818 190.095 93.0734C190.322 94.9649 192.517 101.472 186.01 102.077C179.503 102.683 170.737 103.181 171.785 100.64Z" fill="#8AD0A2"/>
<path d="M170.318 95.4743C170.107 95.1487 169.745 95.0151 169.357 95.0151H129.873C129.471 95.0151 129.098 95.163 128.891 95.5075C128.683 95.8521 128.672 96.2486 128.86 96.6039L131.082 100.84C131.906 102.395 133.522 103.414 135.281 103.414H164.293C166.169 103.414 167.87 102.247 168.634 100.533L170.404 96.5652C170.562 96.2105 170.53 95.8 170.318 95.4743Z" fill="#B0DFC0"/>
<path d="M181.07 82.2951C180.814 82.6855 180.378 82.9845 179.908 82.9845H119.32C118.846 82.9845 118.403 82.6787 118.149 82.2769C117.895 81.8751 117.863 81.3398 118.067 80.9085C119.443 78.0098 122.024 72.6281 123.47 69.6251C123.536 69.4889 123.608 69.4146 123.69 69.2897C124.389 68.1797 125.617 67.5493 126.949 67.5493H172.767C174.113 67.5493 175.346 68.1855 176.042 69.3046C176.14 69.4635 176.229 69.5978 176.304 69.7702L181.179 80.9651C181.368 81.3941 181.327 81.9024 181.07 82.2951Z" fill="#8AD0A2"/>
<path d="M176.042 69.3045C172.832 69.9378 163.401 71.4839 149.176 71.4839C134.832 71.4839 126.416 69.9218 123.689 69.2976C124.389 68.1876 125.617 67.5493 126.949 67.5493H172.767C174.113 67.5493 175.345 68.1855 176.042 69.3045Z" fill="#8AD0A2"/>
<path d="M126.467 92.3024C126.411 92.3024 126.355 92.2818 126.311 92.2404L118.458 84.8089C118.367 84.7226 118.363 84.579 118.449 84.4879C118.535 84.3968 118.679 84.3931 118.77 84.479L126.623 91.9105C126.714 91.9967 126.718 92.1403 126.632 92.2315C126.587 92.2786 126.527 92.3024 126.467 92.3024Z" fill="#8AD0A2"/>
<path d="M172.183 92.3024C172.123 92.3024 172.063 92.2786 172.018 92.2315C171.932 92.1403 171.936 91.9967 172.027 91.9105L179.88 84.479C179.971 84.3931 180.115 84.3968 180.201 84.4879C180.287 84.579 180.283 84.7226 180.192 84.8089L172.339 92.2404C172.295 92.2818 172.239 92.3024 172.183 92.3024Z" fill="#8AD0A2"/>
<path d="M37.3337 125.828C37.3344 125.783 37.3314 125.738 37.3199 125.692C36.6435 123.011 33.2863 121.34 33.2863 121.34L31.9559 121.445C31.191 123.808 31.2893 125.258 31.4121 125.903C31.4155 125.922 31.421 125.939 31.4259 125.956C32.5233 126.054 34.7821 126.118 37.3337 125.828Z" fill="#55BB78"/>
<path d="M31.4258 125.956C31.4851 126.172 31.6443 126.34 31.8479 126.383C33.4091 126.711 35.8902 126.447 36.9319 126.311C37.1618 126.281 37.3298 126.068 37.3336 125.828C34.782 126.119 32.5232 126.055 31.4258 125.956Z" fill="#55BB78"/>
<path d="M31.4219 119.463L31.9854 122.176C32.0266 122.375 32.1793 122.523 32.3644 122.541C32.5908 122.562 32.9132 122.575 33.2373 122.527C33.5279 122.484 33.7304 122.189 33.6788 121.872L33.2871 119.464H31.4219V119.463Z" fill="#019935"/>
<path d="M43.096 125.922C41.6268 125.881 40.8668 125.708 40.474 125.547C40.473 125.693 40.4739 125.842 40.4786 125.996C40.4837 126.161 40.6056 126.292 40.7554 126.291L48.8226 126.239C49.0801 126.237 49.2305 125.939 49.1189 125.703C48.0613 125.79 45.3673 125.986 43.096 125.922Z" fill="#34AD5D"/>
<path d="M49.1188 125.703C49.109 125.682 49.1007 125.661 49.0868 125.642C48.3744 124.646 46.5598 122.664 42.9741 121.804L41.254 121.75C41.254 121.75 40.4881 123.081 40.4736 125.547C40.8665 125.708 41.6264 125.881 43.0957 125.922C45.3671 125.986 48.061 125.79 49.1188 125.703Z" fill="#34AD5D"/>
<path d="M40.8584 119.223C40.8856 119.35 41.2434 121.28 41.382 122.028C41.415 122.206 41.5536 122.336 41.7183 122.346C42.0129 122.362 42.4879 122.364 42.8964 122.253C43.1167 122.193 43.2649 121.969 43.2492 121.719L43.0567 118.667L40.8584 119.223Z" fill="#8AD0A2"/>
<path d="M39.5546 83.5876C39.5546 83.5876 41.9208 99.847 43.6284 119.196C43.6603 119.556 43.373 119.87 43.0191 119.944C42.4974 120.054 41.7307 120.184 41.0958 120.167C40.7569 120.157 40.4737 119.906 40.4167 119.572C39.835 116.16 35.684 97.8513 34.5945 93.8218C34.5945 93.8218 33.3431 110.938 33.7432 119.819C33.7531 120.04 33.5914 120.231 33.3719 120.256C33.0388 120.295 32.5059 120.324 31.8278 120.252C31.5705 120.225 31.3628 120.03 31.326 119.774C30.9116 116.887 28.5268 99.7012 28.6281 87.3214C28.6338 86.6232 29.4472 80.8872 29.4472 80.8872L39.5546 83.5876Z" fill="#55BB78"/>
<path d="M59.8373 68.0429C59.8373 68.0429 59.1749 66.2992 58.4012 66.459C57.6275 66.6187 56.7811 67.213 56.7811 67.213L55.5381 68.894C55.5381 68.894 59.0273 70.2686 60.2545 69.4808C60.2545 69.4808 63.8186 70.0967 68.3192 69.3581C67.6677 67.9826 67.2794 66.6055 67.0514 65.5366C64.7718 66.8269 62.3165 67.7907 59.8373 68.0429Z" fill="#8AD0A2"/>
<path d="M78.7166 55.395C78.7166 55.395 73.6139 61.8221 67.0518 65.5365C67.2798 66.6054 67.6681 67.9825 68.3196 69.358C71.7237 68.7994 75.6635 67.4664 79.0036 64.5042L78.7166 55.395Z" fill="#55BB78"/>
<path d="M40.4717 56.2446L40.7884 64.7529C41.6882 65.0625 42.545 65.3033 43.3606 65.4832C43.8709 63.8405 44.9945 61.8242 45.9145 60.3251C42.5342 59.1302 40.4717 56.2446 40.4717 56.2446Z" fill="#B0DFC0"/>
<path d="M57.3478 56.1001C52.7109 61.1065 48.9577 61.4012 45.9142 60.3253C44.9942 61.8244 43.8707 63.8407 43.3604 65.4834C55.7431 68.2134 58.6591 56.8297 58.6591 56.8297L57.3478 56.1001Z" fill="#B0DFC0"/>
<path d="M29.0911 84.5247C28.8478 84.4382 28.6782 84.2176 28.6517 83.9608C28.3371 80.9081 26.8135 61.9796 36.4321 54.1933C36.4321 54.1933 36.9836 52.7501 41.5176 56.2976C46.0516 59.8451 43.6241 63.5636 42.5386 68.6924C41.225 74.8985 38.9204 79.9716 39.9401 83.7907C40.0105 84.0543 39.872 84.331 39.6159 84.4253C36.0938 85.7234 32.5854 85.7664 29.0911 84.5247Z" fill="#B0DFC0"/>
<path d="M40.1836 48.522C40.1806 48.7913 36.3398 54.2466 36.3398 54.2466C36.3398 54.2466 37.0292 55.6043 40.3204 56.7067L43.1613 50.8657L40.1836 48.522Z" fill="#8AD0A2"/>
<path d="M38.6738 67.2521C38.6738 67.2521 45.9607 73.3549 53.8294 70.692C54.3174 70.5268 54.851 70.5627 55.3067 70.8033L57.5689 71.9981C58.5184 72.4995 59.6943 72.1703 60.2452 71.2487C60.5595 70.723 60.8276 70.1225 60.881 69.5472L56.4546 67.7553L56.781 67.2125C56.781 67.2125 54.6198 67.0294 54.0542 68.5783C54.0542 68.5783 49.9377 70.2906 42.9957 62.6548C42.9957 62.6548 39.8454 65.3333 38.6738 67.2521Z" fill="#B0DFC0"/>
<path d="M38.2813 67.189C38.2573 67.189 38.2329 67.1822 38.2116 67.1676C35.1433 65.0947 33.6999 61.7487 33.6857 61.715C33.6589 61.6513 33.6885 61.5783 33.7518 61.5515C33.8154 61.5245 33.8883 61.554 33.9153 61.6175C33.9293 61.6504 35.3458 64.9303 38.3511 66.9609C38.4082 66.9994 38.4232 67.0769 38.3846 67.1342C38.3607 67.1697 38.3213 67.189 38.2813 67.189Z" fill="#019935"/>
<path d="M42.851 62.5512C42.8101 62.5512 42.7699 62.5309 42.746 62.4939C42.7367 62.4795 41.7994 61.0205 40.0141 57.8236C39.4651 56.8405 38.7436 56.2181 37.8696 55.9734C36.4222 55.569 35.0273 56.345 35.0135 56.3527C34.9535 56.3858 34.8776 56.3659 34.8434 56.306C34.8095 56.2461 34.8303 56.1701 34.8902 56.1359C34.9504 56.1018 36.3851 55.299 37.9344 55.7327C38.8758 55.9953 39.6488 56.6578 40.2318 57.7017C42.0126 60.8905 42.9464 62.3445 42.9556 62.3589C42.9929 62.4166 42.9762 62.4939 42.9184 62.5311C42.8976 62.5449 42.8742 62.5512 42.851 62.5512Z" fill="#8AD0A2"/>
<path d="M43.2077 45.396C43.2077 45.396 44.5743 48.5354 44.6661 50.1831C44.7578 51.8308 45.1128 52.9 43.2077 53.2318C41.3025 53.5636 39.6975 52.6145 38.8279 50.9731C38.8279 50.9731 37.4657 48.444 37.7712 47.4082C38.0768 46.3726 43.2077 45.396 43.2077 45.396Z" fill="#8AD0A2"/>
<path d="M39.479 49.7932L39.5874 49.7454C39.7255 49.6845 39.7845 49.5202 39.7151 49.3862C39.4465 48.8671 38.9227 47.6775 39.5993 47.4C40.4712 47.0424 43.9252 46.338 44.6704 45.1125C45.3867 43.9346 44.752 42.4141 43.7984 41.9817C43.7345 41.9527 43.6593 41.9757 43.6266 42.0376L43.5471 42.188C43.4927 42.291 43.3406 42.2753 43.3082 42.1635C43.2772 42.0561 43.1344 42.0353 43.0751 42.1301C42.846 42.4968 42.2275 43.0912 40.5737 43.3964C38.2233 43.8302 36.6694 44.7813 36.6307 46.4055C36.6282 46.5087 36.5184 46.5661 36.4303 46.5124C36.2568 46.4067 35.9791 46.357 35.6079 46.6691C34.9624 47.2119 35.2265 48.6198 36.6415 49.778C36.7088 49.833 36.7083 49.938 36.6354 49.9853C36.3789 50.1523 35.9964 50.5496 36.9874 51.0794C38.0123 51.6272 38.7776 51.5823 39.0723 51.5337C39.1457 51.5216 39.1928 51.4506 39.1769 51.378L38.8624 49.9506C38.8446 49.8698 38.9061 49.7932 38.9888 49.7932H39.479Z" fill="#55BB78"/>
<path d="M39.5381 50.0943C39.5381 50.0943 39.0167 48.0889 38.1177 48.6512C37.2186 49.2135 38.5842 50.8982 39.3071 50.9732L39.5381 50.0943Z" fill="#8AD0A2"/>
<path d="M55.3066 70.8033C55.3066 70.8033 57.1583 72.6146 57.5156 72.3509C57.6428 72.2571 57.9638 71.9163 58.2748 71.5369C58.4943 71.269 58.5171 70.8908 58.3288 70.6001L57.8921 69.9262C57.4759 69.2841 56.5848 69.1494 56.0077 69.6518C55.7166 69.9052 55.4524 70.2721 55.3066 70.8033Z" fill="#8AD0A2"/>
<path d="M85.0795 83.8808C84.0816 79.1408 83.0837 76.3966 79.7423 67.412C78.6908 64.5847 77.7358 61.724 78.1974 58.7429L78.7157 55.3947C78.7157 55.3947 85.2092 53.1974 92.4072 55.3022C92.4072 55.3022 102.228 59.5683 95.5573 80.6376C92.5508 84.0013 89.0322 84.9601 85.0795 83.8808Z" fill="#34AD5D"/>
<path d="M79.8213 51.1219L81.5051 55.1671C81.6114 55.4226 81.8414 55.6046 82.1141 55.6514C83.0848 55.818 85.4328 56.0779 86.9748 55.064C87.1585 54.9432 87.2053 54.6935 87.0796 54.513L83.9688 50.0469L79.8213 51.1219Z" fill="#8AD0A2"/>
<path d="M81.5616 44.9323C81.4908 44.9988 78.5771 50.7207 78.5771 50.7207L81.8796 52.315L85.4469 47.3021C85.4469 47.3021 82.7454 43.8179 81.5616 44.9323Z" fill="#8AD0A2"/>
<path d="M83.9466 47.9037L82.2995 50.6494C82.2745 50.6911 82.2448 50.7288 82.2092 50.7619C82.0131 50.9443 81.3423 51.4752 80.8236 50.7524C80.3816 50.1364 79.9669 49.5765 79.5225 49.3455C79.2629 49.2106 78.9436 49.3183 78.8118 49.5794C78.5404 50.1173 78.0147 51.2136 77.6845 52.2533C77.6018 52.5139 77.7363 52.7936 77.9896 52.8964C78.6584 53.1673 79.98 53.6572 81.1528 53.8191C81.3454 53.8457 81.5362 53.7644 81.6508 53.6074C82.1554 52.9161 83.5775 50.9844 84.0629 50.5009C84.5139 50.0516 85.3461 50.221 85.7211 50.3287C85.8634 50.3697 86.0151 50.3499 86.1419 50.2736C86.5224 50.0443 87.1864 49.4737 86.579 48.5074C86.4279 48.2672 86.505 47.9472 86.742 47.7913C87.1669 47.5118 87.6278 46.9873 87.1886 46.1379C86.744 45.278 85.9501 45.2008 85.4093 45.2669C85.17 45.2962 84.9271 45.1707 84.8354 44.9477C84.7945 44.8486 84.7138 44.7641 84.5636 44.7336C84.2802 44.6761 84.0942 44.417 84.1498 44.1331C84.2452 43.6465 84.1734 43.0144 83.3964 42.5873C81.9716 41.8039 80.7234 43.0804 80.406 44.158C80.0886 45.2356 81.6818 45.9972 82.684 46.1243C83.4201 46.2178 83.8238 47.0211 83.9861 47.4411C84.045 47.5935 84.0306 47.7636 83.9466 47.9037Z" fill="#55BB78"/>
<path d="M83.4443 51.5094C83.4443 51.5094 84.0779 49.6554 84.8891 49.7235C85.7001 49.7916 86.3384 50.5996 85.3333 51.5079C84.0829 52.6376 83.4443 51.5094 83.4443 51.5094Z" fill="#8AD0A2"/>
<path d="M84.4401 125.655C86.0085 125.791 88.7304 126.011 90.8763 126.105C92.1661 126.162 92.9088 126.036 93.3364 125.865C93.3357 125.913 93.3344 125.958 93.3325 126.001C93.3224 126.227 93.1388 126.407 92.9107 126.42C88.856 126.646 85.6314 126.498 84.4835 126.428C84.246 126.414 84.1046 126.156 84.226 125.954C84.2867 125.852 84.3603 125.753 84.4401 125.655Z" fill="#34AD5D"/>
<path d="M90.8766 126.105C88.7308 126.011 86.0088 125.791 84.4404 125.655C85.9824 123.763 90.8766 122.488 90.8766 122.488H92.2588C93.2095 123.859 93.3472 125.163 93.3367 125.865C92.909 126.036 92.1663 126.162 90.8766 126.105Z" fill="#55BB78"/>
<path d="M92.4908 120.232L92.3615 122.792C92.3475 123.069 92.14 123.302 91.8624 123.341C91.5862 123.381 91.2164 123.386 90.8241 123.255C90.5827 123.175 90.4036 122.972 90.3591 122.724L89.9121 120.232H92.4908Z" fill="#019935"/>
<path d="M110.446 126.086C111.126 125.991 111.434 125.638 111.563 125.26C111.564 125.264 111.564 125.267 111.565 125.27C111.665 125.669 111.433 126.082 110.97 126.278C110.409 126.516 109.796 126.556 109.32 126.536C108.81 126.515 108.341 126.304 108.084 125.966L108.08 125.961C108.592 126.215 109.312 126.244 110.446 126.086Z" fill="#34AD5D"/>
<path d="M107.239 120.215H108.379C110.115 120.18 111.206 123.842 111.562 125.26C111.433 125.638 111.126 125.991 110.446 126.086C109.311 126.244 108.592 126.214 108.08 125.961C107.142 124.726 106.677 122.919 106.453 121.863C106.199 120.663 107.239 120.215 107.239 120.215Z" fill="#34AD5D"/>
<path d="M108.232 117.839L108.865 120.357C108.943 120.666 108.795 120.985 108.509 121.131C108.155 121.313 107.657 121.504 107.199 121.449C106.983 121.423 106.804 121.271 106.733 121.068L105.804 118.419L108.232 117.839Z" fill="#8AD0A2"/>
<path d="M108.987 118.567C108.199 119.266 105.638 119.358 105.638 119.358C96.4107 97.2122 92.5638 91.1156 92.5638 91.1156C93.8961 99.4745 92.851 120.93 92.851 120.93C91.3284 121.602 89.3653 120.93 89.3653 120.93C89.2417 107.246 87.315 92.5412 84.8301 83.1325C91.0665 82.9923 94.4557 81.6328 95.5387 80.7764C100.737 89.1572 108.987 118.567 108.987 118.567Z" fill="#55BB78"/>
<path d="M56.9553 55.1234C56.9553 55.1234 56.5499 54.39 56.5935 53.8001C56.637 53.21 56.2694 52.3435 56.6606 52.4077C57.0518 52.4718 57.1326 52.4195 57.2389 53.1274C57.3451 53.8354 58.3002 56.4468 56.9553 55.1234Z" fill="#019935"/>
<path d="M59.9112 50.7438C59.9068 50.633 59.8533 50.5299 59.7653 50.4626C59.6773 50.3952 59.5639 50.3704 59.4558 50.395L56.7571 51.0089C56.6523 51.0327 56.5822 51.1315 56.5941 51.2382L57.3787 58.2525C57.3821 58.2827 57.3975 58.3105 57.4213 58.3293C57.4452 58.3481 57.4757 58.3567 57.5059 58.3531L59.8614 58.0677C60.0544 58.0443 60.197 57.8767 60.1893 57.6824L59.9112 50.7438Z" fill="#34AD5D"/>
<path d="M59.1526 51.1482C59.1491 51.0853 59.1177 51.0273 59.0671 50.9899C59.0164 50.9526 58.9516 50.9397 58.8906 50.9551L57.115 51.3989C57.0123 51.4246 56.9445 51.5223 56.9564 51.6275L57.6301 57.6007C57.6336 57.632 57.6499 57.6605 57.6752 57.6793C57.7004 57.6981 57.7324 57.7057 57.7634 57.7002L59.4008 57.4088C59.4576 57.3986 59.4979 57.3477 59.4947 57.2901L59.1526 51.1482Z" fill="#019935"/>
<path d="M58.1328 50.9875C58.1372 51.0086 58.1081 51.0325 58.0678 51.0408L57.4741 51.1639C57.4339 51.1723 57.3977 51.1619 57.3933 51.1408L57.3891 51.1202C57.3848 51.0991 57.4138 51.0752 57.4541 51.0668L58.0478 50.9438C58.0881 50.9354 58.1243 50.9459 58.1286 50.967L58.1328 50.9875Z" fill="#019935"/>
<path d="M60.8484 52.5259C60.4124 52.3653 59.5592 50.8888 59.3958 51.3745C59.2324 51.8602 59.4648 52.5259 59.3958 52.7324C59.3268 52.939 58.8548 54.0866 59.0672 54.6145C59.2205 54.9955 59.4733 56.1678 59.6022 56.7909C59.6451 56.9977 59.8271 57.1462 60.0384 57.1463C60.2496 57.1464 60.4319 56.9982 60.4749 56.7914C60.4922 56.7086 61.2845 52.6866 60.8484 52.5259Z" fill="#8AD0A2"/>
<path d="M89.4009 77.427C89.1913 77.4711 89.0237 77.6007 88.9428 77.7813L87.8227 80.2812C87.6743 80.6124 87.8528 81.0218 88.2258 81.2053L93.9054 83.9996C94.1007 84.0957 94.3224 84.1149 94.5153 84.0525C94.7082 83.9902 94.8543 83.8521 94.9174 83.6724L95.5773 81.7933C95.6797 81.5015 95.5444 81.1611 95.2492 80.9679L90.0299 77.5528C89.8407 77.429 89.6105 77.3829 89.4009 77.427Z" fill="#34AD5D"/>
<path d="M99.0505 72.3261C100.265 63.1533 93.1959 56.1001 93.1959 56.1001L88.9902 61.0032C92.1833 64.9832 93.7012 68.6303 94.3946 71.4948C95.314 71.2271 97.528 70.804 99.0505 72.3261Z" fill="#34AD5D"/>
<path d="M94.3939 71.7553C94.2765 71.7553 94.1699 71.6754 94.141 71.5562C93.2864 68.025 91.4848 64.5292 88.7868 61.1662C88.6968 61.0541 88.7147 60.89 88.8269 60.7999C88.9389 60.7101 89.1031 60.7279 89.1931 60.84C91.9394 64.2633 93.7745 67.8275 94.6475 71.4334C94.6813 71.5732 94.5953 71.7139 94.4556 71.7477C94.4348 71.753 94.4142 71.7553 94.3939 71.7553Z" fill="#55BB78"/>
<path d="M94.3947 71.8351C95.039 74.4975 94.9714 76.4838 94.8733 77.4322C94.8363 77.7898 94.549 78.069 94.1904 78.0941C93.783 78.1226 93.2287 78.16 92.7333 78.1885C92.1888 78.2199 91.5843 77.8758 91.1802 77.5881C90.9738 77.4412 90.7069 77.67 90.8221 77.8955C91.1238 78.4856 91.8894 79.0109 92.4171 79.3199C92.609 79.4324 92.5731 79.7193 92.3591 79.78L90.9109 80.1904C90.747 80.2369 90.6238 80.3725 90.5932 80.54C90.5626 80.7076 90.6302 80.8776 90.7669 80.9791C94.1 83.4502 96.2584 80.0043 96.2584 80.0043C97.8952 77.4752 98.7414 75.0022 99.0506 72.6664C97.5282 71.1442 95.3142 71.5672 94.3947 71.8351Z" fill="#8AD0A2"/>
</svg>
