<svg width="206" height="165" viewBox="0 0 206 165" fill="none" xmlns="http://www.w3.org/2000/svg">
<path d="M176.944 154.277C176.944 154.392 176.727 154.486 176.459 154.486H46.4352C46.1674 154.486 45.9502 154.392 45.9502 154.277V153.553C45.9502 153.438 46.1674 153.344 46.4352 153.344H176.459C176.727 153.344 176.944 153.438 176.944 153.553V154.277Z" fill="white"/>
<path d="M140.813 163.802C140.813 163.938 140.756 164.048 140.686 164.048H106.564C106.494 164.048 106.437 163.938 106.437 163.802V162.95C106.437 162.814 106.494 162.704 106.564 162.704H140.686C140.756 162.704 140.813 162.814 140.813 162.95L140.813 163.802Z" fill="white"/>
<path d="M126.64 160.252C126.64 160.372 126.517 160.47 126.365 160.47H52.6753C52.5235 160.47 52.4004 160.372 52.4004 160.252V159.498C52.4004 159.378 52.5235 159.28 52.6753 159.28H126.365C126.517 159.28 126.64 159.378 126.64 159.498V160.252Z" fill="white"/>
<path d="M97.3353 23.1602C90.7931 23.2349 85.0785 27.0429 84.4216 22.9628C83.7646 18.8829 88.4687 14.7322 94.928 13.6923C103.876 12.2516 114.288 17.8968 111.998 22.6034C108.888 28.9953 103.393 23.0911 97.3353 23.1602Z" fill="#B0DFC0"/>
<path d="M124.702 39.0184C123.287 38.9806 117.531 35.5381 115.916 34.6446L102.782 43.9744C101.65 45.1447 100.291 46.1929 99.2591 46.7269C89.6147 51.7144 75.7126 57.1683 81.9031 62.2499C88.3526 67.5442 87.9098 68.9637 93.3761 70.7957C97.7459 72.2601 98.7719 73.6991 106.366 76.3947C114.741 79.3676 122.913 70.5207 127.525 65.344L166.318 50.7569L157.296 26.7625C157.296 26.7625 133.404 39.2511 124.702 39.0184Z" fill="#019935"/>
<path d="M123.681 74.4745C125.197 72.5828 119.536 69.9453 117.867 69.0306C116.124 68.075 111.459 65.0468 111.459 65.0468C111.459 65.0468 114.653 66.5037 118.382 68.2361C122.81 70.2933 128.004 72.5109 129.652 69.9336C130.775 68.1789 125.499 65.3666 120.644 62.2887C116.776 59.8368 116.041 59.7469 116.837 59.4628C116.837 59.4628 130.328 67.7316 132.22 66.5908C136.344 64.105 130.306 60.4879 123.415 56.1149C118.585 53.0501 113.548 49.5451 109.826 47.5897C108.797 47.0491 107.445 45.992 106.321 44.8144C106.321 44.8144 101.374 36.545 96.9716 36.5801C95.1257 36.5948 85.8485 39.6871 84.434 39.7158C75.7303 39.8919 51.9208 27.2478 51.9208 27.2478L42.7422 51.1831L81.4396 66.0225C87.7433 70.0439 86.0043 69.562 94.1159 73.1926C96.5736 74.2927 102.861 75.972 103.876 76.2774C112.504 78.8722 112.726 79.2717 115.189 78.5167C116.171 78.2157 118.307 76.9266 114.053 74.7888C110.133 72.819 106.431 69.4428 106.431 69.4428C106.431 69.4428 112.401 72.9855 114.658 73.8031C116.782 74.572 121.644 77.0159 123.681 74.4745Z" fill="#55BB78"/>
<path d="M99.1963 44.5678C102.861 48.4822 101.303 54.1227 99.3739 54.8482C97.4447 55.5736 94.4708 52.412 92.7315 47.7865C90.9923 43.1611 91.1462 38.8234 93.0755 38.098C93.697 37.8642 108.85 33.3218 111.54 33.4652C113.737 33.5825 123.722 35.6123 112.724 42.7849C110.275 44.3822 106.297 44.9865 106.297 44.9865C106.297 44.9865 105.105 43.8221 104.563 42.9782C102.452 42.6163 99.7032 44.1642 99.1963 44.5678Z" fill="#019935"/>
<path d="M86.0738 62.6485C89.626 60.3327 92.8763 59.024 93.9652 60.6941C95.2394 62.6485 92.545 64.8102 88.9928 67.126C85.4404 69.4417 82.3292 70.9636 81.1014 69.0803C79.8272 67.1259 82.5216 64.9643 86.0738 62.6485Z" fill="#019935"/>
<path d="M90.6352 67.3802C94.0635 63.9107 97.3739 61.6229 98.934 63.1645C100.76 64.9686 98.2463 68.0436 94.8181 71.5133C91.3897 74.9827 89.8643 75.7912 88.1049 74.0527C86.2791 72.2487 87.2069 70.8498 90.6352 67.3802Z" fill="#019935"/>
<path d="M95.6763 72.838C98.0148 69.84 100.446 67.827 102.018 69.0531C103.857 70.4881 102.229 73.1272 99.8909 76.1253C97.5525 79.1233 96.2373 79.7096 94.4645 78.3269C92.6249 76.892 93.338 75.8361 95.6763 72.838Z" fill="#019935"/>
<path d="M101.639 76.2188C103.705 74.1283 105.862 72.9106 107.28 74.312C108.94 75.9518 107.303 77.3764 105.237 79.4669C103.171 81.5574 102.154 82.9498 100.555 81.3697C98.8948 79.7299 99.5735 78.3093 101.639 76.2188Z" fill="#019935"/>
<path d="M96.3801 52.022C95.3799 50.4931 94.3605 50.188 94.0481 50.3262C93.7357 50.4645 94.2488 50.9938 95.2488 52.5228C96.249 54.0518 97.313 55.3565 97.6255 55.2182C97.9379 55.08 97.3802 53.551 96.3801 52.022Z" fill="#8AD0A2"/>
<path d="M92.9295 63.7136C91.9629 64.5465 90.6706 64.6312 90.0429 63.9029C89.4153 63.1745 89.6899 61.9088 90.6565 61.076C91.623 60.243 92.9154 60.1584 93.5431 60.8867C94.1707 61.6151 93.896 62.8808 92.9295 63.7136Z" fill="#8AD0A2"/>
<path d="M98.5145 66.3408C97.6496 67.2788 96.3754 67.5108 95.6685 66.859C94.9616 66.2074 95.0896 64.9185 95.9545 63.9805C96.8194 63.0425 98.0937 62.8105 98.8004 63.4622C99.5074 64.114 99.3793 65.4028 98.5145 66.3408Z" fill="#8AD0A2"/>
<path d="M101.512 72.2641C100.647 73.2021 99.3725 73.4341 98.6657 72.7823C97.9587 72.1307 98.0867 70.8419 98.9516 69.9039C99.8166 68.9658 101.091 68.7338 101.798 69.3856C102.504 70.0373 102.376 71.3261 101.512 72.2641Z" fill="#8AD0A2"/>
<path d="M106.835 76.7903C106.095 77.5926 105.005 77.7911 104.4 77.2336C103.796 76.6762 103.905 75.5738 104.645 74.7714C105.385 73.9691 106.475 73.7707 107.079 74.3281C107.684 74.8856 107.574 75.988 106.835 76.7903Z" fill="#8AD0A2"/>
<path d="M70.6529 68.2313L50.0303 56.5283L57.7793 30.3909L79.3527 36.7867L70.6529 68.2313Z" fill="#B0DFC0"/>
<path d="M67.4819 31.0252L59.1412 52.2328L59.1411 52.233L55.8456 60.6119L36.7227 53.5973L45.3273 28.9071L45.3277 28.906L46.7329 24.8738L67.4819 31.0252Z" fill="#55BB78"/>
<path d="M63.4538 57.3351L61.6113 60.3245L67.0215 63.659L68.864 60.6697L63.4538 57.3351Z" fill="#55BB78"/>
<path d="M44.7871 54.3963C46.38 53.8857 47.2607 52.1743 46.7501 50.5813C46.2395 48.9884 44.5282 48.1078 42.9351 48.6185C41.3421 49.1291 40.4616 50.8404 40.9722 52.4334C41.4828 54.0263 43.1941 54.9069 44.7871 54.3963Z" fill="#8AD0A2"/>
<path d="M53.1563 58.1622C54.7492 57.6516 55.6298 55.9402 55.1193 54.3472C54.6086 52.7543 52.8973 51.8737 51.3042 52.3843C49.7113 52.8949 48.8307 54.6062 49.3414 56.1993C49.8519 57.7921 51.5632 58.6727 53.1563 58.1622Z" fill="#8AD0A2"/>
<path d="M144.482 66.2376L164.843 54.0843L156.522 28.1235L135.094 34.9918L144.482 66.2376Z" fill="#B0DFC0"/>
<path d="M146.835 28.9707L155.64 49.99L155.64 49.9902L159.118 58.2949L178.083 50.8617L168.938 26.3665L168.937 26.3654L167.444 22.365L146.835 28.9707Z" fill="#55BB78"/>
<path d="M151.444 55.1868L146.108 58.6389L148.016 61.5872L153.352 58.1351L151.444 55.1868Z" fill="#55BB78"/>
<path d="M171.991 51.886C173.584 51.3754 174.465 49.6641 173.954 48.0711C173.444 46.4782 171.732 45.5976 170.139 46.1082C168.546 46.6188 167.666 48.3301 168.176 49.9231C168.687 51.516 170.398 52.3966 171.991 51.886Z" fill="#8AD0A2"/>
<path d="M163.623 55.6519C165.216 55.1413 166.097 53.4299 165.586 51.837C165.075 50.244 163.364 49.3635 161.771 49.8741C160.178 50.3847 159.298 52.096 159.808 53.689C160.319 55.2819 162.03 56.1625 163.623 55.6519Z" fill="#8AD0A2"/>
<path d="M186.271 70.9391C186.219 70.3905 185.779 69.9803 185.186 69.9803C185.186 69.9803 185.057 69.9849 184.838 69.9883H184.837C184.637 69.9915 184.362 69.9941 184.045 69.9921H184.028C182.811 69.9832 180.976 69.9042 180.264 69.5305C179.596 69.1801 179.952 66.9037 180.001 66.6079C180.84 66.1834 181.561 65.5162 182.044 64.7094C182.094 64.6261 182.142 64.541 182.186 64.4545C182.411 64.0227 182.567 63.5562 182.64 63.0696C182.964 60.9088 181.517 59.1443 179.381 59.035H179.379C179.31 59.0316 179.241 59.0295 179.17 59.0295C179.087 59.0295 179.005 59.0321 178.922 59.037C178.641 59.0534 178.365 59.0973 178.094 59.1667C176.286 59.6277 174.771 61.1999 174.49 63.0685C174.49 63.0688 174.49 63.0693 174.49 63.0696C174.476 63.1622 174.466 63.2539 174.459 63.3447C174.343 64.7525 174.985 65.9623 176.068 66.6084C176.033 66.8924 175.748 68.9883 175.049 69.4838C174.908 69.5842 174.587 69.6641 174.17 69.7282C172.654 69.9607 169.874 69.9802 169.874 69.9802C169.701 69.9802 169.532 70.0147 169.372 70.0774C168.983 70.2303 168.655 70.5499 168.501 70.9391C168.488 70.971 168.477 71.0035 168.467 71.0366C168.446 71.1009 168.431 71.1667 168.421 71.234L168.092 73.4308C168.014 73.9497 168.269 74.3975 168.697 74.5872C168.837 74.6498 168.997 74.6843 169.169 74.6843H184.481C185.177 74.6843 185.83 74.1203 185.933 73.4308L186.262 71.234C186.272 71.1667 186.277 71.1009 186.276 71.0366C186.276 71.0038 186.274 70.9713 186.271 70.9391ZM178.282 64.9569C178.199 64.9569 178.117 64.9514 178.038 64.9405C177.151 64.821 176.568 64.0524 176.707 63.1228C176.847 62.1924 177.66 61.4241 178.583 61.3048C178.665 61.2939 178.748 61.2884 178.832 61.2884C178.878 61.2884 178.924 61.2901 178.969 61.2936C178.993 61.2953 179.017 61.2976 179.041 61.3005C179.948 61.4043 180.548 62.1803 180.407 63.1228C180.266 64.065 179.433 64.841 178.495 64.9448C178.471 64.9477 178.446 64.95 178.422 64.9514C178.376 64.9551 178.329 64.9569 178.282 64.9569Z" fill="#15878A"/>
<path d="M141.866 148.497C140.915 148.497 140.253 147.725 140.394 146.782L151.5 72.6533C151.642 71.7106 152.535 70.9392 153.486 70.9392H204.014C204.965 70.9392 205.627 71.7106 205.486 72.6533L194.38 146.782C194.238 147.725 193.345 148.497 192.394 148.497L141.866 148.497Z" fill="#8AD0A2"/>
<path d="M140.012 148.497C139.061 148.497 138.398 147.725 138.539 146.782L149.646 72.6533C149.787 71.7106 150.681 70.9392 151.632 70.9392H202.159C203.11 70.9392 203.773 71.7106 203.632 72.6533L192.525 146.782C192.384 147.725 191.49 148.497 190.539 148.497L140.012 148.497Z" fill="#EEF5F0"/>
<path d="M185.781 70.9392C185.733 70.4359 185.359 70.049 184.839 69.9883H184.838C184.792 69.9832 184.744 69.9803 184.696 69.9803C184.696 69.9803 184.441 69.9889 184.045 69.9921H184.028C182.884 69.9999 180.591 69.959 179.774 69.5305C179.106 69.1801 179.462 66.9037 179.511 66.6079C180.38 66.1681 181.123 65.468 181.605 64.622C181.653 64.5381 181.699 64.4527 181.741 64.3659C181.941 63.959 182.082 63.5229 182.15 63.0696C182.472 60.9194 181.041 59.1615 178.923 59.037C178.912 59.0362 178.902 59.0356 178.891 59.035H178.889C178.82 59.0315 178.75 59.0295 178.68 59.0295C176.456 59.0295 174.383 60.7966 174.012 62.9923C174.008 63.0182 174.004 63.0438 174 63.0696C173.99 63.136 173.982 63.2022 173.975 63.2677C173.83 64.7083 174.475 65.9505 175.578 66.6085C175.543 66.8925 175.257 68.9884 174.559 69.4839C173.904 69.9484 169.383 69.9803 169.383 69.9803C168.79 69.9803 168.228 70.3907 168.011 70.9391C167.998 70.971 167.987 71.0035 167.976 71.0366C167.956 71.101 167.941 71.1668 167.931 71.2341L167.602 73.4309C167.499 74.1204 167.983 74.6843 168.679 74.6843H183.991C184.687 74.6843 185.34 74.1204 185.443 73.4309L185.772 71.2341C185.783 71.1668 185.787 71.101 185.786 71.0366C185.786 71.0038 185.784 70.9713 185.781 70.9392ZM178.584 61.3049C179.472 61.423 180.056 62.1919 179.917 63.1229C179.777 64.0539 178.962 64.8225 178.038 64.9406C178.027 64.9423 178.016 64.9438 178.005 64.9449C177.934 64.953 177.863 64.957 177.792 64.957C176.77 64.957 176.065 64.1355 176.217 63.1229C176.369 62.1097 177.32 61.2886 178.342 61.2886C178.413 61.2886 178.483 61.2926 178.551 61.3006C178.562 61.3017 178.572 61.3032 178.584 61.3049Z" fill="#222221"/>
<path d="M185.686 71.0368C185.685 71.004 185.683 70.9715 185.679 70.9393C185.622 70.444 185.222 70.0776 184.684 70.0776C184.68 70.0778 184.309 70.0902 183.774 70.0902C182.596 70.0902 180.501 70.029 179.717 69.618C179.011 69.2481 179.34 67.0443 179.413 66.6066L179.422 66.5503L179.476 66.523C180.337 66.0873 181.046 65.4049 181.508 64.6029C181.556 64.519 181.602 64.4337 181.645 64.3471C181.846 63.9419 181.985 63.5113 182.051 63.0698C182.366 60.9693 180.969 59.2399 178.869 59.1323C178.802 59.1289 178.733 59.1272 178.665 59.1272C178.473 59.1272 178.282 59.1407 178.094 59.1669C176.147 59.4368 174.431 61.0518 174.108 63.0078C174.104 63.0285 174.101 63.0491 174.097 63.0698C174.087 63.1411 174.078 63.2124 174.071 63.2831C173.943 64.6352 174.531 65.8631 175.638 66.5236L175.683 66.5506L175.676 66.6064C175.625 67.009 175.337 69.0434 174.608 69.5602C174.519 69.6238 174.366 69.6792 174.17 69.7284C172.907 70.0417 169.792 70.0747 169.372 70.0776H169.368C168.828 70.0776 168.317 70.444 168.111 70.9393C168.098 70.9712 168.086 71.0037 168.075 71.0368C168.054 71.1009 168.039 71.167 168.028 71.2343L167.699 73.4311C167.604 74.0686 168.049 74.5874 168.692 74.5874H184.005C184.648 74.5874 185.249 74.0686 185.345 73.4311L185.674 71.2343C185.684 71.167 185.688 71.1008 185.686 71.0368ZM178.356 61.1915C178.43 61.1915 178.505 61.1958 178.576 61.2039C178.714 61.2197 178.846 61.2501 178.969 61.2939C179.705 61.5543 180.14 62.2806 180.014 63.1231C179.888 63.9647 179.235 64.6907 178.422 64.9517C178.286 64.9953 178.145 65.0261 178.001 65.042C177.927 65.0499 177.851 65.0543 177.777 65.0543C176.703 65.0543 175.958 64.188 176.118 63.1231C176.278 62.0578 177.281 61.1915 178.356 61.1915Z" fill="#BFE2E2"/>
<path d="M187.575 85.8666C187.542 86.0799 187.313 86.2527 187.062 86.2527H156.808C156.557 86.2527 156.38 86.0799 156.412 85.8666L156.425 85.7794C156.457 85.5661 156.687 85.3933 156.938 85.3933H187.191C187.443 85.3933 187.62 85.5661 187.588 85.7794L187.575 85.8666Z" fill="#34AD5D"/>
<path d="M191.915 87.6039C191.883 87.8171 191.623 87.99 191.335 87.99H156.625C156.337 87.99 156.129 87.8172 156.161 87.6039L156.175 87.5166C156.207 87.3034 156.467 87.1306 156.755 87.1306H191.464C191.752 87.1306 191.96 87.3034 191.928 87.5166L191.915 87.6039Z" fill="#34AD5D"/>
<path d="M190.875 92.6195C190.843 92.8327 190.583 93.0055 190.295 93.0055H155.585C155.297 93.0055 155.089 92.8326 155.121 92.6195L155.135 92.5322C155.167 92.3188 155.427 92.146 155.715 92.146H190.424C190.713 92.146 190.92 92.3188 190.888 92.5322L190.875 92.6195Z" fill="#34AD5D"/>
<path d="M188.525 94.3569C188.493 94.57 188.247 94.743 187.976 94.743H155.304C155.033 94.743 154.839 94.57 154.872 94.3569L154.885 94.2695C154.917 94.0564 155.163 93.8835 155.434 93.8835H188.106C188.377 93.8835 188.571 94.0564 188.539 94.2695L188.525 94.3569Z" fill="#34AD5D"/>
<path d="M185.784 96.0942C185.751 96.3073 185.522 96.4801 185.27 96.4801H155.017C154.766 96.4801 154.589 96.3073 154.621 96.0942L154.634 96.0068C154.666 95.7937 154.896 95.6208 155.147 95.6208H185.4C185.652 95.6208 185.829 95.7937 185.797 96.0068L185.784 96.0942Z" fill="#34AD5D"/>
<path d="M190.125 97.8313C190.092 98.0444 189.833 98.2172 189.545 98.2172H154.835C154.547 98.2172 154.339 98.0444 154.371 97.8313L154.385 97.7438C154.417 97.5307 154.677 97.3579 154.965 97.3579H189.674C189.962 97.3579 190.17 97.5307 190.138 97.7438L190.125 97.8313Z" fill="#34AD5D"/>
<path d="M189.084 102.847C189.051 103.06 188.792 103.233 188.504 103.233H153.794C153.506 103.233 153.298 103.06 153.33 102.847L153.344 102.759C153.376 102.546 153.636 102.374 153.924 102.374H188.633C188.922 102.374 189.129 102.546 189.097 102.759L189.084 102.847Z" fill="#34AD5D"/>
<path d="M186.734 104.584C186.702 104.797 186.456 104.97 186.185 104.97H153.514C153.242 104.97 153.048 104.797 153.081 104.584L153.094 104.497C153.126 104.284 153.372 104.111 153.643 104.111H186.315C186.586 104.111 186.78 104.284 186.748 104.497L186.734 104.584Z" fill="#34AD5D"/>
<path d="M183.994 106.322C183.961 106.535 183.732 106.708 183.481 106.708H153.227C152.976 106.708 152.799 106.535 152.831 106.322L152.844 106.234C152.876 106.021 153.106 105.848 153.357 105.848H183.61C183.861 105.848 184.039 106.021 184.007 106.234L183.994 106.322Z" fill="#34AD5D"/>
<path d="M188.334 108.059C188.302 108.272 188.042 108.445 187.754 108.445H153.044C152.756 108.445 152.548 108.272 152.58 108.059L152.594 107.972C152.626 107.758 152.886 107.585 153.174 107.585H187.883C188.172 107.585 188.379 107.758 188.347 107.972L188.334 108.059Z" fill="#34AD5D"/>
<path d="M187.293 113.074C187.26 113.288 187.001 113.46 186.713 113.46H152.003C151.715 113.46 151.507 113.288 151.539 113.074L151.553 112.987C151.585 112.774 151.844 112.601 152.133 112.601H186.842C187.13 112.601 187.338 112.774 187.306 112.987L187.293 113.074Z" fill="#34AD5D"/>
<path d="M184.943 114.812C184.911 115.025 184.665 115.198 184.394 115.198H151.723C151.451 115.198 151.257 115.025 151.29 114.812L151.303 114.724C151.335 114.511 151.581 114.338 151.852 114.338H184.524C184.795 114.338 184.989 114.511 184.956 114.724L184.943 114.812Z" fill="#34AD5D"/>
<path d="M182.203 116.549C182.17 116.762 181.941 116.935 181.689 116.935H151.436C151.185 116.935 151.008 116.762 151.04 116.549L151.053 116.462C151.085 116.248 151.315 116.075 151.566 116.075H181.819C182.07 116.075 182.248 116.248 182.216 116.462L182.203 116.549Z" fill="#34AD5D"/>
<path d="M186.543 118.286C186.51 118.499 186.251 118.672 185.963 118.672H151.253C150.965 118.672 150.757 118.499 150.789 118.286L150.803 118.199C150.835 117.986 151.095 117.813 151.383 117.813H186.092C186.38 117.813 186.588 117.986 186.556 118.199L186.543 118.286Z" fill="#34AD5D"/>
<path d="M185.503 123.302C185.47 123.515 185.211 123.688 184.923 123.688H150.213C149.925 123.688 149.717 123.515 149.749 123.302L149.763 123.215C149.795 123.001 150.055 122.829 150.343 122.829H185.052C185.341 122.829 185.548 123.001 185.516 123.215L185.503 123.302Z" fill="#34AD5D"/>
<path d="M183.153 125.039C183.121 125.253 182.875 125.425 182.604 125.425H149.932C149.661 125.425 149.467 125.253 149.5 125.039L149.513 124.952C149.545 124.739 149.791 124.566 150.062 124.566H182.734C183.005 124.566 183.199 124.739 183.166 124.952L183.153 125.039Z" fill="#34AD5D"/>
<path d="M180.411 126.776C180.379 126.99 180.15 127.162 179.899 127.162H149.645C149.394 127.162 149.217 126.99 149.249 126.776L149.262 126.689C149.294 126.476 149.524 126.303 149.775 126.303H180.028C180.279 126.303 180.457 126.476 180.425 126.689L180.411 126.776Z" fill="#34AD5D"/>
<path d="M184.752 128.514C184.72 128.727 184.461 128.9 184.173 128.9H149.463C149.175 128.9 148.967 128.727 148.999 128.514L149.013 128.426C149.045 128.213 149.304 128.04 149.593 128.04H184.302C184.59 128.04 184.798 128.213 184.766 128.426L184.752 128.514Z" fill="#34AD5D"/>
<path d="M184.246 136.247C184.214 136.46 184.099 136.633 183.988 136.633H170.712C170.602 136.633 170.539 136.46 170.571 136.247L170.584 136.16C170.616 135.946 170.732 135.773 170.842 135.773H184.118C184.229 135.773 184.292 135.946 184.259 136.16L184.246 136.247Z" fill="#34AD5D"/>
<path d="M158.346 82.7511C157.519 82.7511 156.852 82.4829 156.415 81.9755C155.967 81.4544 155.8 80.7129 155.933 79.8312C156.063 78.9688 156.457 78.2292 157.072 77.6923C157.686 77.1554 158.464 76.8716 159.32 76.8716C160.095 76.8716 160.502 77.0556 160.642 77.1347L160.807 77.2285L160.39 78.1633L160.192 78.0598C160.053 77.9866 159.745 77.8637 159.257 77.8637C158.078 77.8637 157.261 78.6138 157.072 79.8701C156.98 80.4789 157.08 80.9732 157.36 81.2996C157.619 81.6002 158.039 81.7591 158.574 81.7591C158.954 81.7591 159.36 81.6819 159.634 81.5577L159.897 81.4385L160.004 82.4167L159.868 82.48C159.586 82.6111 159.039 82.7511 158.346 82.7511Z" fill="#55BB78"/>
<path d="M162.492 82.7589C161.797 82.7589 161.218 82.513 160.818 82.0477C160.359 81.5142 160.18 80.727 160.316 79.8312C160.579 78.0886 161.846 76.8716 163.396 76.8716C164.099 76.8716 164.68 77.1156 165.077 77.5773C165.533 78.107 165.71 78.8934 165.574 79.7916C165.437 80.7013 165.056 81.4627 164.473 81.9933C163.93 82.487 163.227 82.7589 162.492 82.7589ZM163.281 77.848C162.235 77.848 161.613 78.8675 161.461 79.878C161.365 80.5133 161.48 81.076 161.778 81.4218C161.984 81.6612 162.266 81.7826 162.615 81.7826C163.661 81.7826 164.282 80.767 164.434 79.7605C164.53 79.1283 164.41 78.5461 164.115 78.2032C163.913 77.9675 163.632 77.848 163.281 77.848Z" fill="#55BB78"/>
<path d="M168.989 82.6725L167.661 79.8654C167.489 79.5028 167.344 79.1775 167.223 78.8787C167.174 79.2806 167.115 79.7127 167.036 80.2314L166.668 82.6724H165.602L166.465 76.958H167.521L168.867 79.756C169.012 80.0577 169.14 80.3488 169.255 80.6328C169.3 80.2193 169.359 79.8038 169.427 79.3518L169.788 76.958H170.854L169.992 82.6724L168.989 82.6725Z" fill="#55BB78"/>
<path d="M171.763 82.6727L172.475 77.9582H170.868L171.019 76.9583H175.354L175.203 77.9582H173.588L172.876 82.6727H171.763Z" fill="#55BB78"/>
<path d="M177.497 82.6725L177.443 82.5454C177.374 82.3847 177.325 82.0113 177.265 81.2137C177.221 80.5215 177.014 80.3958 176.567 80.378H176.108L175.762 82.6725H174.656L175.504 77.0615L175.648 77.0328C176.007 76.9613 176.518 76.9187 177.014 76.9187C177.804 76.9187 178.302 77.072 178.629 77.4159C178.906 77.6987 179.02 78.119 178.948 78.5971C178.859 79.1887 178.5 79.6795 177.964 79.9651C178.193 80.1869 178.326 80.531 178.361 80.9935C178.416 81.6487 178.466 82.2066 178.536 82.3879L178.646 82.6725H177.497ZM176.704 79.441C177.319 79.441 177.765 79.1161 177.841 78.6133C177.874 78.3948 177.84 78.2248 177.741 78.108C177.608 77.9523 177.345 77.8678 176.981 77.8637C176.769 77.8637 176.599 77.8774 176.483 77.8941L176.249 79.441H176.704Z" fill="#55BB78"/>
<path d="M182.276 82.6727L181.963 81.0068H180.395L179.594 82.6727H178.422L181.222 76.9583H182.349L183.431 82.6727H182.276ZM181.824 80.0541L181.584 78.7777C181.569 78.7011 181.556 78.6262 181.545 78.5526C181.504 78.6447 181.464 78.7333 181.423 78.8197L180.82 80.054L181.824 80.0541Z" fill="#55BB78"/>
<path d="M186.122 82.7511C185.296 82.7511 184.628 82.4829 184.192 81.9755C183.743 81.4543 183.576 80.7128 183.71 79.8312C183.84 78.9688 184.234 78.2292 184.848 77.6923C185.463 77.1554 186.24 76.8716 187.096 76.8716C187.871 76.8716 188.279 77.0555 188.418 77.1346L188.583 77.2284L188.166 78.1632L187.969 78.0598C187.829 77.9866 187.521 77.8637 187.033 77.8637C185.855 77.8637 185.038 78.6137 184.848 79.8701C184.756 80.4788 184.856 80.9731 185.137 81.2995C185.395 81.6001 185.815 81.7591 186.35 81.7591C186.73 81.7591 187.136 81.6819 187.41 81.5577L187.673 81.4384L187.78 82.4167L187.644 82.48C187.363 82.611 186.816 82.7511 186.122 82.7511Z" fill="#55BB78"/>
<path d="M189.364 82.6727L190.076 77.9582H188.469L188.62 76.9583H192.955L192.804 77.9582H191.189L190.477 82.6727H189.364Z" fill="#55BB78"/>
<path d="M159.044 136.934C158.512 140.454 155.235 143.307 151.723 143.307C148.212 143.307 145.796 140.454 146.327 136.934C146.859 133.414 150.136 130.561 153.648 130.561C157.16 130.561 159.575 133.414 159.044 136.934Z" fill="#00C0C4"/>
<path d="M151.771 142.988C148.441 142.988 146.141 140.272 146.645 136.934C147.15 133.596 150.269 130.88 153.6 130.88C156.93 130.88 159.23 133.596 158.725 136.934C158.221 140.272 155.102 142.988 151.771 142.988Z" fill="#F6F6F6"/>
<path d="M151.82 142.669C148.665 142.669 146.487 140.096 146.964 136.934C147.442 133.772 150.397 131.199 153.552 131.199C156.707 131.199 158.885 133.772 158.407 136.934C157.93 140.096 154.975 142.669 151.82 142.669Z" fill="#00C0C4"/>
<path d="M151.868 142.35C148.889 142.35 146.832 139.92 147.283 136.934C147.734 133.948 150.524 131.519 153.504 131.519C156.483 131.519 158.54 133.948 158.089 136.934C157.638 139.92 154.847 142.35 151.868 142.35Z" fill="#F6F6F6"/>
<path d="M152.105 140.786C149.985 140.786 148.522 139.058 148.843 136.934C149.164 134.81 151.149 133.082 153.268 133.082C155.387 133.082 156.85 134.81 156.529 136.934C156.209 139.058 154.224 140.786 152.105 140.786Z" fill="#00C0C4"/>
<path d="M171.723 135.875C171.669 135.875 171.616 135.87 171.562 135.86C171.279 135.807 170.988 135.567 170.821 135.248C170.662 134.945 170.632 134.616 170.736 134.322C171.001 133.576 171.536 133.025 172.099 132.918C172.492 132.844 172.825 133.01 173.012 133.375C173.039 133.426 173.014 133.496 172.958 133.53C172.902 133.564 172.835 133.55 172.808 133.499C172.659 133.208 172.411 133.08 172.109 133.137C171.722 133.211 171.213 133.62 170.947 134.367C170.864 134.601 170.891 134.87 171.024 135.123C171.167 135.395 171.407 135.598 171.635 135.64C172.24 135.752 172.881 134.964 173.143 134.441C173.17 134.388 173.23 134.357 173.283 134.368C173.336 134.38 173.366 134.431 173.352 134.487C173.274 134.816 173.347 135.151 173.545 135.388C173.657 135.238 173.712 135.021 173.75 134.869L173.759 134.833C173.771 134.781 173.818 134.74 173.87 134.733C173.922 134.727 173.967 134.756 173.978 134.805C173.999 134.901 174.035 134.96 174.085 134.979C174.188 135.02 174.393 134.915 174.59 134.813C174.843 134.684 175.129 134.536 175.363 134.609C175.431 134.63 175.49 134.669 175.539 134.724C175.556 134.694 175.573 134.664 175.59 134.634C175.644 134.541 175.699 134.444 175.723 134.368C175.738 134.322 175.779 134.285 175.827 134.277C175.874 134.268 175.917 134.289 175.935 134.329C176.02 134.521 176.072 134.54 176.082 134.542C176.099 134.546 176.15 134.51 176.191 134.482C176.291 134.412 176.441 134.307 176.642 134.34C177.043 134.406 177.205 134.77 177.362 135.123C177.41 135.231 177.456 135.335 177.507 135.427C178.188 134.743 178.796 134.233 179.653 134.233C179.658 134.233 179.663 134.233 179.668 134.233C179.843 134.234 180.019 134.24 180.19 134.247C180.824 134.27 181.423 134.292 181.909 134.05C182.052 133.979 182.192 133.91 182.328 133.845C182.913 133.561 183.465 133.294 184.049 132.842C184.101 132.801 184.171 132.806 184.204 132.853C184.238 132.899 184.223 132.97 184.17 133.01C183.564 133.479 182.999 133.753 182.401 134.043C182.266 134.108 182.127 134.176 181.985 134.246C181.442 134.518 180.813 134.495 180.148 134.47C179.979 134.464 179.804 134.457 179.633 134.456C179.628 134.456 179.624 134.456 179.619 134.456C178.814 134.456 178.254 134.962 177.552 135.676C177.527 135.702 177.494 135.716 177.461 135.716C177.428 135.715 177.399 135.702 177.381 135.677C177.291 135.548 177.221 135.39 177.153 135.237C177.01 134.915 176.874 134.61 176.574 134.561C176.466 134.543 176.389 134.596 176.301 134.658C176.216 134.717 176.12 134.783 176.007 134.762C175.942 134.749 175.886 134.709 175.831 134.634C175.815 134.663 175.799 134.692 175.782 134.721C175.728 134.816 175.672 134.914 175.652 134.983C175.639 135.032 175.597 135.07 175.547 135.079C175.498 135.088 175.454 135.064 175.438 135.021C175.396 134.911 175.34 134.846 175.267 134.823C175.119 134.777 174.89 134.895 174.669 135.009C174.424 135.135 174.17 135.265 173.976 135.189C173.947 135.178 173.921 135.163 173.898 135.143C173.84 135.316 173.752 135.502 173.598 135.631C173.552 135.67 173.488 135.673 173.449 135.637C173.252 135.451 173.132 135.194 173.103 134.915C172.768 135.397 172.257 135.874 171.723 135.875Z" fill="#019935"/>
<path d="M191.991 120.854C191.984 121.162 191.977 121.469 191.97 121.774C191.947 122.702 191.92 123.616 191.89 124.512C191.53 134.979 190.644 142.945 189.781 142.927C188.917 142.909 188.37 134.89 188.457 124.397C188.465 123.528 188.476 122.642 188.492 121.743C188.498 121.424 188.504 121.103 188.511 120.78C188.77 108.57 189.759 98.6873 190.721 98.7078C191.681 98.7282 192.25 108.644 191.991 120.854Z" fill="#55BB78"/>
<path d="M193.103 108.312C193.436 113.075 193.402 116.92 193.037 116.984C192.538 117.071 192.403 116.436 192.394 115.328C192.393 115.153 192.952 114.926 192.956 114.728C192.989 113.128 192.609 110.858 192.435 108.358C192.249 105.699 191.967 103.329 191.819 101.749C191.79 101.431 191.54 102.131 191.293 100.928C190.991 99.456 191.71 99.7416 191.832 99.7332C192.201 99.7073 192.77 103.548 193.103 108.312Z" fill="#34AD5D"/>
<path d="M191.97 121.774C191.947 122.703 191.92 123.616 191.889 124.512C191.4 124.568 190.868 124.593 190.311 124.581C189.646 124.567 189.017 124.501 188.457 124.397C188.464 123.528 188.476 122.642 188.492 121.743C189.061 121.66 189.7 121.62 190.374 121.634C190.939 121.647 191.477 121.695 191.97 121.774Z" fill="#B0DFC0"/>
<path d="M188.812 146.801C189.464 148.034 189.602 151.155 189.621 150.265C189.631 149.792 189.679 147.514 189.719 145.648L189.785 145.649C189.746 147.515 189.697 149.794 189.687 150.267C189.668 151.156 189.938 148.044 190.642 146.84C191.161 145.951 190.477 144.327 190.083 143.537L190.251 142.172L189.35 142.18L189.458 143.622C189.025 144.425 188.351 145.928 188.812 146.801Z" fill="#004016"/>
<path d="M188.823 120.628C188.605 130.928 189.055 139.292 189.241 139.296C189.427 139.3 189.278 130.942 189.497 120.642C189.716 110.341 190.219 101.998 190.033 101.994C189.847 101.99 189.042 110.327 188.823 120.628Z" fill="white"/>
<path d="M127.71 153.127L127.535 137.571L148.723 137.905L149.832 153.157L127.71 153.127Z" fill="#033D3B"/>
<path d="M53.2617 153.848V138.658L76.1697 138.134L75.8558 153.157L53.2617 153.848Z" fill="#033D3B"/>
<path d="M82.916 140.519C82.916 140.519 91.0548 129.49 95.2522 128.803C102.677 127.587 118.245 127.806 121.305 132.97C124.365 138.134 124.469 142.284 124.469 142.284C124.469 142.284 83.8674 142.336 83.4596 142.953C83.052 143.57 82.916 140.519 82.916 140.519Z" fill="black"/>
<path d="M83.4445 142.64C83.3435 142.258 83.2501 141.385 83.2109 140.609C83.569 140.13 85.4518 137.638 87.7289 135.109C91.0317 131.441 93.6496 129.359 95.2997 129.089C97.6622 128.702 100.768 128.48 103.822 128.48C106.626 128.48 110.742 128.66 114.424 129.522C116.077 129.908 117.471 130.396 118.566 130.971C119.741 131.589 120.579 132.311 121.057 133.118C122.614 135.746 123.38 138.099 123.749 139.611C124.024 140.737 124.124 141.576 124.161 141.994C122.381 141.998 113.215 142.017 104.115 142.097C98.191 142.149 93.453 142.217 90.0331 142.298C88.0007 142.346 86.4164 142.4 85.3242 142.457C84.1624 142.519 83.6716 142.574 83.4445 142.64Z" fill="white"/>
<path d="M130.626 126.688C127.908 127.776 129.358 134.497 129.358 134.497L139.866 132.218L141.678 128.681V127.957C141.678 127.957 133.344 125.601 130.626 126.688Z" fill="black"/>
<path d="M129.586 134.151C129.485 133.6 129.279 132.324 129.263 130.989C129.244 129.426 129.484 127.457 130.734 126.957C131.175 126.781 131.822 126.691 132.655 126.691C135.71 126.691 140.349 127.897 141.389 128.178V128.611L139.671 131.964L129.586 134.151Z" fill="#55BB78"/>
<path d="M123.805 131.068C123.805 136.58 122.617 141.049 121.152 141.049C119.686 141.049 118.498 136.58 118.498 131.068C118.498 125.556 119.686 123.078 121.152 123.078C122.617 123.078 123.805 125.556 123.805 131.068Z" fill="black"/>
<path d="M121.151 140.759C120.727 140.759 120.085 140.048 119.555 138.051C119.06 136.19 118.787 133.71 118.787 131.068C118.787 128.522 119.05 126.46 119.547 125.106C119.838 124.313 120.352 123.368 121.151 123.368C121.95 123.368 122.465 124.313 122.756 125.106C123.252 126.46 123.515 128.522 123.515 131.068C123.515 133.71 123.243 136.19 122.748 138.051C122.217 140.048 121.575 140.759 121.151 140.759Z" fill="#55BB78"/>
<path d="M165.231 150.966C161.479 151.282 155.666 152.984 150.694 153.145C150.403 153.155 150.116 153.159 149.831 153.157C149.789 148.933 147.576 144.777 144.196 142.589C142.655 141.591 140.872 141.002 138.941 141.002C132.802 141.002 127.813 147.013 127.71 153.127C127.442 153.127 127.175 153.127 126.907 153.126C126.336 153.125 125.763 153.125 125.189 153.123C120.716 153.117 116.124 153.114 111.481 153.113C100.85 153.112 89.9544 153.125 79.6163 153.149C79.2236 153.15 78.8327 153.15 78.4423 153.151C78.2439 153.151 78.0455 153.152 77.8625 153.153C77.7347 153.153 77.6079 153.153 77.4811 153.153C77.4023 153.153 77.3312 153.154 77.27 153.154C76.7971 153.155 76.3265 153.155 75.8564 153.157C75.879 152.921 75.8179 147.32 72.7369 143.428C71.831 142.283 70.6624 141.286 69.1572 140.617C67.9094 140.062 66.43 139.733 64.6762 139.733C59.6547 139.733 55.4029 143.028 53.9648 147.574C53.9412 147.648 53.9186 147.724 53.8959 147.799C53.6015 148.803 53.4525 149.465 53.3524 150.966C53.3261 151.363 53.221 153.461 53.2618 153.848C52.7473 153.884 52.2531 153.917 51.7775 153.948C51.2915 153.98 50.8249 154.008 50.3747 154.035C46.5319 154.259 43.9351 154.288 41.2867 153.989C38.9391 153.724 36.5498 153.202 33.2156 152.335C33.0892 152.302 32.9619 152.268 32.8337 152.235C31.6733 151.931 31.3725 151.109 31.7539 149.779C31.974 149.011 32.4211 148.074 33.062 146.969C33.1621 146.796 33.2676 146.619 33.3773 146.437C33.9811 145.44 35.4898 144.719 37.1159 143.857C37.1902 143.817 37.2649 143.777 37.3406 143.737C37.5689 143.614 37.799 143.489 38.0282 143.358C38.0372 143.354 38.0467 143.349 38.0558 143.343C39.373 142.595 40.6666 141.705 41.5304 140.458C42.0943 139.644 43.599 138.866 45.7034 138.134C55.7775 134.633 79.5877 132.218 79.5877 132.218C79.6335 132.178 79.6806 132.139 79.729 132.096C82.511 129.704 89.2201 124.065 93.8108 121.292C93.8706 121.255 93.9712 121.21 94.1029 121.159C95.2557 120.706 98.7869 119.767 98.0133 120.347C94.5961 122.91 90.3575 127.856 87.9546 130.813H87.9541C87.9541 130.813 87.9528 130.815 87.9505 130.817C87.6008 131.248 87.2896 131.636 87.026 131.968C87.026 131.968 87.0922 131.965 87.2199 131.96C89.2889 131.877 107.486 131.155 120.117 131.036C121.892 131.02 124.475 131.255 127.125 131.165C130.548 131.048 134.081 130.387 136.124 127.936C138.696 124.85 150.546 128.484 156.829 131.181C157.393 131.422 157.91 131.656 158.373 131.877C158.993 132.172 159.602 132.528 160.2 132.925C160.327 133.01 160.453 133.095 160.579 133.184C162.183 134.302 163.703 135.7 165.121 137.025C165.439 137.323 165.753 137.618 166.061 137.905C166.07 137.912 166.077 137.92 166.085 137.928C167.886 139.676 170.899 150.49 165.231 150.966Z" fill="#34AD5D"/>
<path d="M45.4562 153.918C43.948 153.918 42.6333 153.849 41.3186 153.701C39.1557 153.457 36.9041 152.995 33.2879 152.054C33.2229 152.037 33.1583 152.021 33.0936 152.004C33.0311 151.987 32.9684 151.971 32.9055 151.955C32.4732 151.841 32.1875 151.654 32.0331 151.383C31.8397 151.043 31.8392 150.53 32.0318 149.858C32.2368 149.143 32.6556 148.246 33.312 147.114C33.3989 146.964 33.4953 146.801 33.6249 146.586C34.1284 145.755 35.3592 145.108 36.7843 144.359C36.9384 144.278 37.0942 144.196 37.2511 144.113C37.317 144.077 37.4764 143.992 37.4764 143.992C37.73 143.856 37.9569 143.732 38.1705 143.61L38.168 143.612L38.1742 143.609C38.1832 143.604 38.1923 143.599 38.2012 143.593C39.3603 142.935 40.8124 142.003 41.768 140.623C42.2612 139.911 43.6172 139.166 45.7979 138.408C49.8995 136.982 57.045 135.51 66.4619 134.15C73.5855 133.121 79.5569 132.512 79.6164 132.506L79.7072 132.497L79.7763 132.437L79.8314 132.39C79.86 132.366 79.889 132.341 79.9185 132.315C82.6117 129.999 89.3735 124.311 93.96 121.54C93.9851 121.525 94.0501 121.49 94.208 121.428C94.9179 121.15 96.3651 120.739 97.2772 120.552C93.9437 123.228 89.9946 127.849 87.8163 130.523H87.8053L87.7239 130.636C87.4173 131.013 87.106 131.401 86.7986 131.788L86.4016 132.288L87.0393 132.258C87.0401 132.258 87.1054 132.254 87.2307 132.249C90.5781 132.115 107.894 131.441 120.119 131.326C120.178 131.326 120.238 131.325 120.299 131.325C120.963 131.325 121.746 131.357 122.575 131.39C123.569 131.43 124.694 131.475 125.841 131.475C126.298 131.475 126.721 131.468 127.135 131.454C131.653 131.3 134.579 130.241 136.346 128.122C136.941 127.407 138.163 127.045 139.976 127.045C142.085 127.045 144.994 127.552 148.388 128.511C151.147 129.29 154.182 130.36 156.715 131.447C157.265 131.683 157.781 131.916 158.248 132.139C158.828 132.415 159.414 132.752 160.039 133.167C160.178 133.259 160.3 133.342 160.412 133.421C161.974 134.51 163.437 135.847 164.922 137.237C165.043 137.349 165.163 137.462 165.282 137.574C165.478 137.757 165.672 137.939 165.864 138.117L165.869 138.122L165.884 138.136C166.424 138.661 167.246 140.351 167.773 142.566C168.035 143.667 168.189 144.765 168.219 145.742C168.253 146.854 168.131 147.804 167.858 148.567C167.397 149.859 166.504 150.568 165.206 150.678C163.625 150.811 161.677 151.189 159.613 151.589C156.775 152.139 153.558 152.762 150.684 152.856C150.484 152.862 150.296 152.866 150.114 152.867C149.976 148.643 147.737 144.537 144.353 142.345C142.703 141.277 140.831 140.713 138.94 140.713C133.002 140.713 127.687 146.346 127.428 152.837C127.385 152.837 127.038 152.837 126.906 152.837C126.612 152.836 126.317 152.836 126.022 152.835C125.744 152.835 125.467 152.834 125.189 152.834C120.496 152.827 115.884 152.824 111.481 152.824L109.974 152.824C100.147 152.824 89.933 152.835 79.615 152.859L79.2252 152.86C78.9632 152.86 78.7018 152.861 78.4406 152.862C78.2427 152.862 78.0438 152.862 77.8604 152.863C77.7977 152.863 77.5436 152.863 77.4805 152.863C77.4382 152.863 77.3981 152.864 77.3606 152.864C77.3282 152.864 76.3299 152.866 76.1452 152.867C76.1316 152.311 76.0537 151.1 75.7435 149.605C75.3787 147.846 74.6002 145.316 72.9634 143.249C71.9465 141.963 70.7052 140.988 69.2742 140.353C67.9176 139.749 66.3704 139.444 64.6756 139.444C59.6255 139.444 55.21 142.676 53.688 147.486C53.664 147.563 53.641 147.639 53.618 147.715C53.3077 148.774 53.1622 149.457 53.0628 150.947C53.0448 151.217 52.9602 152.836 52.9627 153.578C52.5898 153.604 52.2 153.63 51.7579 153.659C51.3316 153.687 50.8864 153.715 50.357 153.746C48.3108 153.865 46.7992 153.918 45.4562 153.918Z" fill="#8AD0A2"/>
<path d="M79.4004 153.148C80.6597 149.238 80.7716 146.245 80.8704 143.665C80.9611 141.296 81.0394 139.249 82.0468 137.185C82.7408 135.764 84.2445 134.449 85.4529 133.392C86.0941 132.832 86.6573 132.339 86.9376 131.97C86.9716 131.925 127.352 131.141 127.356 131.156C128.102 134.327 126.504 138.305 122.605 142.981C119.315 146.927 114.983 150.638 111.847 153.113C111.795 153.155 96.508 153.11 86.9384 153.107C82.5751 153.106 79.4004 153.148 79.4004 153.148Z" fill="black"/>
<path d="M126.469 136.529C123.986 142.562 116.538 149.145 111.481 153.113C100.85 153.112 89.9539 153.125 79.6162 153.148C82.0694 145.531 80.2073 141.471 82.2506 137.285C82.3738 137.032 82.5246 136.782 82.6954 136.536C84.037 134.604 86.6365 132.907 87.2199 131.96C89.289 131.877 107.486 131.155 120.117 131.036C121.892 131.02 124.476 131.255 127.125 131.165C127.532 132.837 127.239 134.657 126.469 136.529Z" fill="black"/>
<path d="M80.0117 152.858C81.1805 149.07 81.2898 146.214 81.3866 143.685C81.4787 141.279 81.5515 139.378 82.5111 137.412C82.622 137.184 82.7641 136.945 82.9335 136.701C83.676 135.632 84.8499 134.605 85.793 133.781C86.4993 133.163 87.0714 132.663 87.3778 132.243C91.0535 132.097 108.055 131.439 120.12 131.326C120.18 131.326 120.242 131.325 120.304 131.325C120.968 131.325 121.751 131.357 122.58 131.39C123.573 131.43 124.698 131.475 125.844 131.475C126.212 131.475 126.558 131.471 126.895 131.462C127.188 132.92 126.955 134.586 126.201 136.419C125.111 139.068 122.934 142.087 119.732 145.394C117.405 147.797 114.596 150.296 111.381 152.823L110.047 152.823C100.5 152.823 90.3959 152.835 80.0117 152.858Z" fill="#8AD0A2"/>
<path d="M123.97 135.222C123.336 136.672 122.348 136.943 120.346 136.943C118.345 136.943 116.723 137.622 116.723 136.672C116.723 135.721 118.899 134.882 120.89 134.679C123.655 134.397 124.351 134.351 123.97 135.222Z" fill="black"/>
<path d="M94.1032 121.158V122.153L84.8779 131.701L79.5879 132.218C82.3704 129.826 89.2204 124.065 93.811 121.292C93.8708 121.255 93.9713 121.21 94.1032 121.158Z" fill="black"/>
<path d="M80.4746 131.84C83.5167 129.247 89.5888 124.213 93.8135 121.629V122.036L84.7436 131.423L80.4746 131.84Z" fill="white"/>
<path d="M165.548 137.426C164.397 137.999 163.107 138.558 161.685 139.1C159.179 140.056 156.259 140.961 153.007 141.791C150.003 142.557 147.261 143.117 145.374 143.471L145.148 143.282C147.034 142.932 149.854 142.361 152.953 141.571C156.733 140.607 161.516 139.16 165.37 137.259L165.548 137.426Z" fill="black"/>
<path d="M42.8692 143.471C40.2126 145.203 38.7731 144.305 38.0557 143.343C39.3723 142.595 40.6665 141.706 41.5303 140.458C42.0937 139.644 43.5989 138.865 45.7033 138.134C45.8437 139.58 45.5031 141.753 42.8692 143.471Z" fill="black"/>
<path d="M40.1703 144.162C39.5165 144.162 38.9553 143.914 38.498 143.422C39.6007 142.776 40.8939 141.886 41.7685 140.623C42.2336 139.951 43.4674 139.25 45.4384 138.536C45.4766 139.921 44.9843 141.746 42.711 143.228C41.7606 143.848 40.9058 144.162 40.1703 144.162Z" fill="#BEE0E1"/>
<path d="M167.923 141.978C163.866 141.684 160.579 140.365 160.579 140.365L166.061 137.905H166.061C166.069 137.912 166.077 137.92 166.085 137.928C166.086 137.928 166.086 137.929 166.087 137.929C166.687 138.514 167.42 140.102 167.923 141.978Z" fill="black"/>
<path d="M167.533 141.655C164.8 141.408 162.452 140.708 161.353 140.336L165.994 138.253C166.502 138.841 167.092 140.148 167.533 141.655Z" fill="#BEE0E1"/>
<path opacity="0.1" d="M133.371 140.457C132.071 141.265 131.12 141.984 130.296 142.732C127.765 145.028 126.84 149.304 126.907 153.126C126.336 153.125 125.763 153.124 125.189 153.124C120.716 153.117 116.124 153.114 111.482 153.113C100.85 153.112 89.9545 153.125 79.6168 153.148C79.3509 153.149 78.8961 153.15 78.4423 153.151C78.2439 153.151 78.0455 153.152 77.8625 153.153C77.7881 153.153 77.7138 153.153 77.6394 153.153C77.5842 153.153 77.531 153.153 77.4811 153.153C77.4023 153.153 77.3316 153.153 77.2705 153.153C77.2705 153.153 77.5726 141.293 69.963 138.745C67.0786 137.78 74.1474 137.032 82.6959 136.536C90.5714 136.079 99.7019 135.838 103.463 135.838C112.993 135.838 110.457 135.303 125.649 136.467C125.868 136.484 126.145 136.505 126.469 136.529C129.098 136.729 134.818 137.192 137.694 138.021C139.172 138.447 136.113 138.753 133.371 140.457Z" fill="black"/>
<path opacity="0.1" d="M53.5205 143.592C52.0156 145.813 51.4618 150.14 51.7775 153.948C51.2915 153.98 50.8245 154.009 50.3747 154.035C46.5319 154.26 43.9351 154.288 41.2862 153.989C38.824 153.67 36.2938 153.133 33.2156 152.335C33.0892 152.302 32.9619 152.269 32.8337 152.235C31.6733 151.931 31.3725 151.109 31.7539 149.779C31.974 149.011 32.4211 148.074 33.062 146.969C33.1621 146.796 33.2677 146.619 33.3773 146.437C33.9806 145.44 35.4898 144.719 37.1155 143.857C37.1902 143.817 37.265 143.777 37.3402 143.737C37.5689 143.614 37.7985 143.488 38.0282 143.358C40.4411 146.072 42.0373 146.446 43.9179 146.446C45.7302 146.446 46.7837 145.454 48.577 144.434C52.4225 142.246 54.108 140.892 56.187 140.279C57.236 139.969 54.6813 141.879 53.5205 143.592Z" fill="black"/>
<path opacity="0.1" d="M165.231 150.966C161.479 151.283 155.666 152.984 150.694 153.145C150.684 151.989 150.593 150.035 150.171 148.021C149.536 144.991 148.463 142.852 146.934 141.584C145.144 140.1 143.219 139.405 141.678 138.746C138.916 137.564 149.169 138.834 153.758 137.477C156.416 136.692 157.381 135.943 158.56 134.85C159.101 134.349 159.673 133.646 160.2 132.925C160.327 133.01 160.453 133.095 160.579 133.184C162.183 134.302 163.703 135.7 165.12 137.025C165.439 137.323 165.752 137.618 166.061 137.905H166.061C166.069 137.912 166.077 137.92 166.085 137.928C166.086 137.928 166.087 137.929 166.087 137.93C166.687 138.514 167.421 140.102 167.923 141.978C168.93 145.736 169.01 150.649 165.231 150.966Z" fill="black"/>
<path d="M64.6453 141.021C59.1447 141.021 54.6855 145.48 54.6855 150.98C54.6855 156.481 59.1447 160.94 64.6453 160.94C70.146 160.94 74.6051 156.481 74.6051 150.98C74.6051 145.48 70.146 141.021 64.6453 141.021ZM70.5841 150.98C70.5841 151.784 70.4276 152.561 70.119 153.291C69.9239 153.752 69.6738 154.183 69.3718 154.578C69.3718 154.578 68.5195 152.562 68.6796 151.886C68.8368 151.222 70.4729 149.826 70.4729 149.826C70.5472 150.203 70.5841 150.589 70.5841 150.98ZM64.6453 156.919C63.9455 156.919 63.2655 156.801 62.6196 156.566C62.6196 156.566 64.2807 155.126 64.9763 155.069C65.6728 155.012 67.5482 156.164 67.5482 156.164C67.3569 156.271 67.1594 156.368 66.9558 156.454C66.2262 156.763 65.4487 156.919 64.6453 156.919ZM58.7093 150.799C58.7093 150.799 60.5422 151.904 60.8044 152.531C61.0715 153.17 60.5606 155.291 60.5606 155.291C60.5219 155.255 60.4836 155.217 60.446 155.18C59.8991 154.633 59.4705 153.998 59.1716 153.291C58.8629 152.561 58.7065 151.784 58.7065 150.98C58.7066 150.92 58.7073 150.859 58.7093 150.799ZM62.9108 145.298C62.9108 145.298 62.435 147.344 61.9291 147.779C61.4181 148.218 59.3021 148.383 59.3021 148.383C59.5903 147.791 59.9742 147.253 60.4459 146.781C60.9928 146.234 61.6282 145.806 62.3349 145.507C62.5237 145.427 62.7158 145.357 62.9108 145.298ZM65.4238 145.092C65.9517 145.16 66.4644 145.299 66.9558 145.507C67.6625 145.806 68.2979 146.234 68.8446 146.781C69.0841 147.021 69.301 147.277 69.4943 147.549C69.4943 147.549 67.3736 147.731 66.7963 147.38C66.2263 147.033 65.4238 145.092 65.4238 145.092Z" fill="black"/>
<path d="M64.6447 160.65C62.0617 160.65 59.6334 159.644 57.8069 157.818C55.9805 155.992 54.9746 153.563 54.9746 150.98C54.9746 148.397 55.9805 145.969 57.8069 144.142C59.6334 142.316 62.0617 141.31 64.6447 141.31C67.2277 141.31 69.6561 142.316 71.4825 144.142C73.309 145.969 74.3148 148.397 74.3148 150.98C74.3148 153.563 73.309 155.992 71.4825 157.818C69.6561 159.644 67.2277 160.65 64.6447 160.65ZM65.0282 154.777C65.0021 154.777 64.9765 154.778 64.9521 154.78C64.2001 154.842 62.7186 156.096 62.4292 156.347L62.0567 156.67L62.52 156.838C63.197 157.084 63.9118 157.209 64.6447 157.209C65.4872 157.209 66.3025 157.045 67.068 156.721C67.28 156.631 67.489 156.529 67.6893 156.416L68.1197 156.175L67.6992 155.917C67.5093 155.8 65.8206 154.777 65.0282 154.777ZM58.4192 150.789C58.4172 150.847 58.4163 150.91 58.4163 150.98C58.4163 151.823 58.5804 152.638 58.9042 153.404C59.2178 154.145 59.6674 154.811 60.2406 155.385C60.2815 155.425 60.3218 155.465 60.3607 155.501L60.7243 155.846L60.8417 155.359C60.9307 154.989 61.3601 153.111 61.0711 152.419C60.7868 151.739 59.178 150.743 58.8583 150.551L58.4358 150.296L58.4192 150.789ZM70.2843 149.606C69.9991 149.849 68.5675 151.099 68.3971 151.819C68.224 152.55 68.9559 154.34 69.1043 154.691L69.2986 155.151L69.6014 154.754C69.9176 154.34 70.1813 153.886 70.3853 153.404C70.709 152.638 70.8732 151.823 70.8732 150.98C70.8732 150.57 70.834 150.163 70.7565 149.77L70.6608 149.285L70.2843 149.606ZM62.8258 145.02C62.6226 145.082 62.4193 145.156 62.2215 145.24C61.4808 145.553 60.8143 146.002 60.2405 146.576C59.7466 147.07 59.3431 147.635 59.041 148.256L58.8198 148.711L59.324 148.672C59.6931 148.643 61.5626 148.475 62.1173 147.999C62.6672 147.526 63.1093 145.72 63.1924 145.363L63.306 144.874L62.8258 145.02ZM65.1554 145.202C65.2955 145.541 66.0256 147.251 66.6451 147.627C66.9309 147.801 67.4811 147.886 68.3272 147.886C68.9487 147.886 69.4955 147.839 69.5185 147.837L70.0234 147.794L69.7298 147.381C69.5276 147.097 69.2985 146.826 69.0489 146.576C68.4753 146.003 67.8089 145.553 67.068 145.24C66.5539 145.022 66.0131 144.876 65.4604 144.804L64.9644 144.74L65.1554 145.202Z" fill="#026060"/>
<path d="M71.3088 148.866C71.244 148.662 71.1695 148.46 71.0853 148.261C70.9939 148.045 70.8923 147.834 70.7802 147.63C70.462 147.047 70.0621 146.514 69.5866 146.039C68.9437 145.396 68.196 144.892 67.3643 144.54C66.5408 144.191 65.6668 144.008 64.7643 143.993C64.7245 143.992 64.6847 143.992 64.6448 143.992C64.217 143.992 63.7953 144.03 63.3821 144.105C62.8828 144.196 62.3959 144.341 61.9254 144.54C61.0937 144.892 60.3459 145.396 59.7032 146.039C59.0604 146.681 58.5561 147.429 58.2041 148.261C58.1467 148.397 58.0938 148.534 58.0455 148.672C57.8959 149.099 57.7891 149.538 57.726 149.986C57.6796 150.313 57.6562 150.645 57.6562 150.98C57.6562 151.925 57.8406 152.84 58.2041 153.7C58.5561 154.532 59.0605 155.279 59.7032 155.922C59.9378 156.157 60.1859 156.372 60.4472 156.569C60.7918 156.829 61.1591 157.055 61.5463 157.247C61.6708 157.309 61.7972 157.367 61.9255 157.421C62.7852 157.785 63.7001 157.969 64.6449 157.969C65.5898 157.969 66.5045 157.785 67.3642 157.421C67.8447 157.218 68.2971 156.964 68.7174 156.661C69.0249 156.44 69.3151 156.194 69.5866 155.922C69.6215 155.887 69.656 155.852 69.6896 155.817C70.2837 155.198 70.7527 154.487 71.0855 153.7C71.4492 152.84 71.6336 151.925 71.6336 150.98C71.6334 150.254 71.5245 149.545 71.3088 148.866ZM66.9552 145.507C67.6619 145.806 68.2974 146.234 68.8441 146.781C69.0836 147.021 69.3004 147.277 69.4938 147.549C69.4938 147.549 69.4936 147.549 69.4932 147.549C69.4509 147.555 67.308 147.847 66.7363 147.499C66.1664 147.152 65.4232 145.092 65.4232 145.092C65.9512 145.16 66.4639 145.299 66.9552 145.507ZM60.4453 146.781C60.9922 146.234 61.6276 145.806 62.3344 145.507C62.5232 145.427 62.7153 145.357 62.9102 145.298C62.9102 145.298 62.474 147.443 61.9681 147.878C61.457 148.317 59.3016 148.383 59.3016 148.383C59.5898 147.79 59.9737 147.253 60.4453 146.781ZM60.5601 155.291C60.5214 155.255 60.4831 155.218 60.4455 155.18C59.8986 154.633 59.47 153.998 59.1711 153.291C58.8625 152.561 58.7059 151.784 58.7059 150.98C58.7059 150.92 58.7068 150.859 58.7087 150.799C58.7087 150.799 60.6804 151.904 60.9425 152.531C61.2078 153.166 60.5683 155.264 60.5602 155.291C60.5601 155.291 60.5601 155.291 60.5601 155.291ZM66.9552 156.454C66.2256 156.763 65.4482 156.919 64.6448 156.919C63.945 156.919 63.265 156.801 62.6191 156.566C62.6191 156.566 64.2804 154.968 64.9758 154.911C65.6722 154.854 67.5476 156.164 67.5476 156.164C67.3563 156.271 67.1588 156.368 66.9552 156.454ZM70.1186 153.291C69.9234 153.752 69.6733 154.183 69.3712 154.578C69.3712 154.578 69.3641 154.564 69.3514 154.537C69.2123 154.248 68.3938 152.505 68.5405 151.886C68.6977 151.221 70.4723 149.826 70.4723 149.826C70.5467 150.203 70.5837 150.589 70.5837 150.98C70.5836 151.784 70.4271 152.561 70.1186 153.291Z" fill="black"/>
<path d="M64.6452 157.679C63.7396 157.679 62.8626 157.503 62.0386 157.154C61.9168 157.103 61.7945 157.047 61.6751 156.987C61.3046 156.804 60.9502 156.585 60.622 156.338C60.3727 156.15 60.1327 155.941 59.9083 155.717C59.292 155.101 58.8085 154.384 58.4713 153.587C58.1229 152.763 57.9463 151.886 57.9463 150.98C57.9463 150.66 57.9688 150.34 58.0132 150.027C58.0735 149.599 58.1764 149.175 58.3192 148.768C58.3657 148.635 58.4168 148.502 58.4713 148.374C58.8087 147.576 59.2922 146.86 59.9084 146.243C60.5247 145.627 61.2415 145.144 62.0386 144.807C62.4872 144.617 62.9568 144.476 63.4343 144.39C63.8296 144.318 64.237 144.281 64.6452 144.281C64.6829 144.281 64.7207 144.282 64.7585 144.282C65.6247 144.296 66.4631 144.473 67.2518 144.807C68.0489 145.144 68.7656 145.627 69.3821 146.243C69.837 146.698 70.2219 147.211 70.5263 147.769C70.6326 147.962 70.731 148.166 70.8189 148.374C70.899 148.563 70.971 148.758 71.0331 148.953C71.2394 149.604 71.3441 150.286 71.3441 150.98C71.3441 151.886 71.1674 152.763 70.8189 153.587C70.5 154.341 70.0499 155.024 69.4809 155.616C69.4516 155.647 69.4206 155.679 69.3821 155.717C69.1226 155.977 68.8422 156.215 68.5487 156.426C68.1464 156.715 67.71 156.96 67.2516 157.154C66.4276 157.503 65.5507 157.679 64.6452 157.679ZM65.0222 154.619C64.9985 154.619 64.9751 154.62 64.9526 154.622C64.1928 154.684 62.7085 156.078 62.4187 156.357L62.0837 156.679L62.5206 156.838C63.1975 157.084 63.9123 157.209 64.6452 157.209C65.4879 157.209 66.3033 157.045 67.0685 156.721C67.2809 156.631 67.4899 156.529 67.6899 156.416L68.0924 156.19L67.714 155.926C67.5224 155.792 65.8197 154.619 65.0222 154.619ZM58.4196 150.79C58.4177 150.85 58.4167 150.914 58.4167 150.98C58.4167 151.823 58.5809 152.638 58.9047 153.404C59.2184 154.145 59.668 154.812 60.2412 155.385C60.28 155.424 60.3205 155.463 60.3613 155.502L60.5739 155.703L60.8188 155.439L60.8383 155.374C60.9966 154.849 61.4903 153.09 61.2103 152.419C60.9241 151.735 59.1946 150.739 58.8508 150.546L58.435 150.313L58.4196 150.79ZM70.2937 149.599C69.9841 149.842 68.4308 151.093 68.259 151.819C68.0997 152.492 68.7876 154.032 69.0907 154.663C69.1043 154.691 69.1123 154.707 69.1123 154.707L69.3198 155.123L69.6018 154.754C69.9179 154.34 70.1817 153.886 70.3858 153.404C70.7096 152.638 70.8738 151.823 70.8738 150.98C70.8738 150.57 70.8345 150.163 70.7569 149.77L70.6654 149.306L70.2937 149.599ZM62.8261 145.02C62.6223 145.083 62.419 145.156 62.222 145.24C61.4809 145.553 60.8144 146.003 60.2408 146.576C59.747 147.07 59.3434 147.635 59.0414 148.256L58.8319 148.687L59.3108 148.673C59.6878 148.661 61.597 148.579 62.1574 148.098C62.7105 147.622 63.1184 145.73 63.1945 145.355L63.2915 144.879L62.8261 145.02ZM65.1511 145.19C65.281 145.55 65.9607 147.366 66.5862 147.746C66.8245 147.891 67.2224 147.959 67.8385 147.959C68.567 147.959 69.3573 147.859 69.5129 147.839H69.6193L69.7058 147.747L69.8676 147.574L69.7304 147.381C69.5279 147.096 69.2988 146.826 69.0494 146.576C68.4762 146.003 67.8097 145.553 67.0685 145.24C66.5542 145.022 66.0134 144.876 65.4608 144.804L64.9901 144.743L65.1511 145.19Z" fill="#BEE0E1"/>
<path d="M66.2799 150.98C66.2799 151.883 65.5483 152.614 64.6458 152.614C63.7433 152.614 63.0117 151.883 63.0117 150.98C63.0117 150.078 63.7433 149.346 64.6458 149.346C65.5483 149.346 66.2799 150.078 66.2799 150.98Z" fill="white"/>
<path d="M64.6456 152.04C64.0613 152.04 63.5859 151.564 63.5859 150.98C63.5859 150.396 64.0613 149.92 64.6456 149.92C65.2299 149.92 65.7052 150.396 65.7052 150.98C65.7052 151.564 65.2299 152.04 64.6456 152.04Z" fill="#033D3B"/>
<path d="M64.9505 148.677C64.9505 148.972 64.7109 149.212 64.4157 149.212C64.1203 149.212 63.8809 148.972 63.8809 148.677C63.8809 148.382 64.1203 148.142 64.4157 148.142C64.711 148.142 64.9505 148.382 64.9505 148.677Z" fill="#2C2B2C"/>
<path d="M67.3371 149.921C67.3371 150.216 67.0977 150.456 66.8023 150.456C66.5069 150.456 66.2676 150.216 66.2676 149.921C66.2676 149.625 66.5069 149.386 66.8023 149.386C67.0976 149.386 67.3371 149.625 67.3371 149.921Z" fill="#2C2B2C"/>
<path d="M66.6633 152.817C66.6633 153.112 66.4239 153.351 66.1285 153.351C65.8332 153.351 65.5938 153.112 65.5938 152.817C65.5938 152.521 65.8332 152.282 66.1285 152.282C66.4239 152.282 66.6633 152.521 66.6633 152.817Z" fill="#2C2B2C"/>
<path d="M63.8235 152.955C63.8235 153.251 63.5841 153.49 63.2887 153.49C62.9934 153.49 62.7539 153.251 62.7539 152.955C62.7539 152.66 62.9934 152.42 63.2887 152.42C63.5841 152.42 63.8235 152.66 63.8235 152.955Z" fill="#2C2B2C"/>
<path d="M62.8724 150.455C62.8724 150.751 62.6329 150.99 62.3375 150.99C62.0422 150.99 61.8027 150.751 61.8027 150.455C61.8027 150.16 62.0422 149.92 62.3375 149.92C62.6329 149.92 62.8724 150.16 62.8724 150.455Z" fill="#2C2B2C"/>
<path opacity="0.3" d="M67.5477 156.164C67.5477 156.164 65.6723 154.854 64.9758 154.911C64.2804 154.968 62.6191 156.566 62.6191 156.566C62.6191 156.566 64.2964 152.708 65.782 154.104C67.2674 155.5 67.5477 156.164 67.5477 156.164Z" fill="black"/>
<path opacity="0.5" d="M69.3523 154.537L69.3482 154.555C69.3482 154.555 66.1672 151.802 67.9436 150.801C69.7199 149.8 70.4733 149.826 70.4733 149.826C70.4733 149.826 68.6987 151.221 68.5414 151.886C68.3948 152.505 69.2132 154.248 69.3523 154.537Z" fill="black"/>
<path opacity="0.5" d="M69.4937 147.549C69.4408 147.581 65.9346 149.666 65.5531 147.678C65.1688 145.676 65.4237 145.092 65.4237 145.092C65.4237 145.092 66.1669 147.152 66.7368 147.499C67.3085 147.847 69.4514 147.555 69.4937 147.549Z" fill="black"/>
<path opacity="0.2" d="M61.839 148.997C59.8138 148.76 59.3018 148.383 59.3018 148.383C59.3018 148.383 61.4572 148.317 61.9683 147.878C62.4742 147.443 62.9104 145.298 62.9104 145.298C62.9104 145.298 63.8639 149.233 61.839 148.997Z" fill="black"/>
<path opacity="0.2" d="M61.9852 153.01C61.1357 154.846 60.5691 155.285 60.5604 155.291C60.5685 155.264 61.2081 153.166 60.9428 152.531C60.6807 151.904 58.709 150.799 58.709 150.799C58.709 150.799 62.8417 151.16 61.9852 153.01Z" fill="black"/>
<path d="M138.762 139.867C133.262 139.867 128.803 144.326 128.803 149.826C128.803 155.327 133.262 159.786 138.762 159.786C144.263 159.786 148.722 155.327 148.722 149.826C148.722 144.326 144.263 139.867 138.762 139.867ZM144.701 149.826C144.701 150.63 144.545 151.407 144.236 152.137C144.041 152.598 143.791 153.029 143.489 153.424C143.489 153.424 142.637 151.408 142.797 150.732C142.954 150.068 144.59 148.673 144.59 148.673C144.664 149.049 144.701 149.435 144.701 149.826ZM138.762 155.765C138.063 155.765 137.383 155.647 136.737 155.412C136.737 155.412 138.398 153.973 139.093 153.915C139.79 153.858 141.665 155.01 141.665 155.01C141.474 155.117 141.277 155.214 141.073 155.3C140.343 155.609 139.566 155.765 138.762 155.765ZM132.827 149.645C132.827 149.645 134.659 150.75 134.922 151.377C135.189 152.016 134.678 154.138 134.678 154.138C134.639 154.101 134.601 154.064 134.563 154.026C134.016 153.479 133.588 152.844 133.289 152.137C132.98 151.407 132.824 150.63 132.824 149.826C132.824 149.766 132.824 149.705 132.827 149.645ZM137.028 144.144C137.028 144.144 136.552 146.19 136.046 146.625C135.535 147.064 133.419 147.229 133.419 147.229C133.707 146.637 134.091 146.099 134.563 145.627C135.11 145.081 135.745 144.652 136.452 144.353C136.641 144.273 136.833 144.203 137.028 144.144ZM139.541 143.938C140.069 144.006 140.582 144.145 141.073 144.353C141.78 144.652 142.415 145.081 142.962 145.627C143.201 145.867 143.418 146.123 143.612 146.395C143.612 146.395 141.491 146.578 140.914 146.226C140.344 145.88 139.541 143.938 139.541 143.938Z" fill="black"/>
<path d="M147.757 146.027C147.266 144.864 146.562 143.82 145.665 142.924C144.769 142.027 143.725 141.324 142.562 140.832C141.359 140.323 140.08 140.065 138.763 140.065C137.445 140.065 136.166 140.323 134.963 140.832C133.801 141.324 132.757 142.027 131.86 142.924C130.963 143.82 130.26 144.864 129.768 146.027C129.259 147.23 129.001 148.509 129.001 149.826C129.001 151.144 129.259 152.423 129.768 153.626C130.26 154.789 130.963 155.833 131.86 156.729C132.757 157.626 133.801 158.33 134.963 158.821C136.166 159.33 137.445 159.588 138.763 159.588C140.08 159.588 141.359 159.33 142.562 158.821C143.725 158.33 144.769 157.626 145.665 156.729C146.562 155.833 147.266 154.789 147.757 153.626C148.266 152.423 148.524 151.144 148.524 149.826C148.524 148.509 148.266 147.23 147.757 146.027ZM144.702 149.826C144.702 150.63 144.545 151.407 144.236 152.137C144.041 152.598 143.791 153.029 143.489 153.424C143.489 153.424 142.637 151.408 142.797 150.732C142.954 150.068 144.59 148.673 144.59 148.673C144.665 149.049 144.702 149.435 144.702 149.826ZM138.763 155.765C138.063 155.765 137.383 155.647 136.737 155.412C136.737 155.412 138.398 153.972 139.094 153.915C139.79 153.858 141.666 155.01 141.666 155.01C141.474 155.117 141.277 155.214 141.073 155.3C140.344 155.609 139.566 155.765 138.763 155.765ZM133.289 152.137C132.98 151.407 132.824 150.63 132.824 149.826C132.824 149.766 132.825 149.705 132.827 149.645C132.827 149.645 134.66 150.75 134.922 151.377C135.189 152.016 134.678 154.137 134.678 154.137C134.639 154.101 134.601 154.064 134.563 154.026C134.017 153.479 133.588 152.844 133.289 152.137ZM141.073 144.353C141.78 144.652 142.415 145.08 142.962 145.627C143.202 145.867 143.418 146.123 143.612 146.395C143.612 146.395 141.491 146.577 140.914 146.226C140.344 145.879 139.541 143.938 139.541 143.938C140.069 144.006 140.582 144.145 141.073 144.353ZM137.028 144.144C137.028 144.144 136.552 146.19 136.046 146.625C135.535 147.064 133.42 147.229 133.42 147.229C133.708 146.637 134.092 146.099 134.563 145.627C135.11 145.08 135.746 144.652 136.452 144.353C136.641 144.273 136.833 144.203 137.028 144.144Z" fill="#026060"/>
<path d="M145.426 147.712C145.361 147.508 145.287 147.306 145.203 147.107C145.111 146.891 145.009 146.68 144.897 146.476C144.579 145.894 144.179 145.36 143.704 144.885C143.061 144.242 142.313 143.738 141.482 143.386C140.658 143.038 139.784 142.854 138.882 142.839C138.842 142.838 138.802 142.838 138.762 142.838C138.334 142.838 137.913 142.876 137.499 142.951C137 143.042 136.513 143.187 136.043 143.386C135.211 143.738 134.463 144.242 133.82 144.885C133.178 145.528 132.673 146.275 132.321 147.107C132.264 147.243 132.211 147.38 132.163 147.518C132.013 147.945 131.906 148.384 131.843 148.833C131.797 149.159 131.773 149.491 131.773 149.827C131.773 150.771 131.958 151.686 132.321 152.546C132.673 153.378 133.178 154.125 133.82 154.768C134.055 155.003 134.303 155.219 134.564 155.415C134.909 155.675 135.276 155.902 135.664 156.093C135.788 156.155 135.914 156.213 136.043 156.267C136.902 156.631 137.817 156.815 138.762 156.815C139.707 156.815 140.622 156.631 141.481 156.267C141.962 156.064 142.414 155.81 142.835 155.507C143.142 155.287 143.432 155.04 143.704 154.768C143.739 154.733 143.773 154.698 143.807 154.663C144.401 154.044 144.87 153.333 145.203 152.546C145.566 151.686 145.751 150.771 145.751 149.827C145.751 149.1 145.642 148.392 145.426 147.712ZM141.072 144.353C141.779 144.652 142.415 145.081 142.961 145.627C143.201 145.867 143.418 146.123 143.611 146.395C143.611 146.395 143.611 146.396 143.61 146.396C143.568 146.401 141.425 146.693 140.854 146.345C140.284 145.998 139.54 143.938 139.54 143.938C140.068 144.006 140.581 144.145 141.072 144.353ZM134.562 145.627C135.109 145.081 135.745 144.652 136.452 144.353C136.64 144.273 136.833 144.203 137.027 144.144C137.027 144.144 136.591 146.289 136.085 146.724C135.574 147.163 133.419 147.229 133.419 147.229C133.707 146.637 134.091 146.099 134.562 145.627ZM134.677 154.138C134.639 154.101 134.6 154.064 134.563 154.026C134.016 153.479 133.587 152.844 133.288 152.137C132.98 151.408 132.823 150.63 132.823 149.827C132.823 149.766 132.824 149.705 132.826 149.645C132.826 149.645 134.798 150.75 135.06 151.377C135.325 152.013 134.686 154.11 134.677 154.138C134.677 154.138 134.677 154.138 134.677 154.138ZM141.072 155.3C140.343 155.609 139.565 155.765 138.762 155.765C138.062 155.765 137.382 155.647 136.736 155.412C136.736 155.412 138.398 153.814 139.093 153.757C139.789 153.7 141.665 155.01 141.665 155.01C141.474 155.117 141.276 155.214 141.072 155.3ZM144.236 152.137C144.041 152.598 143.79 153.029 143.488 153.425C143.488 153.425 143.481 153.41 143.469 153.383C143.33 153.094 142.511 151.351 142.658 150.732C142.815 150.068 144.59 148.673 144.59 148.673C144.664 149.049 144.701 149.435 144.701 149.827C144.701 150.63 144.544 151.408 144.236 152.137Z" fill="black"/>
<path d="M138.762 156.526C137.857 156.526 136.98 156.349 136.156 156C136.034 155.949 135.912 155.893 135.792 155.834C135.422 155.65 135.068 155.432 134.739 155.184C134.49 154.996 134.25 154.788 134.026 154.563C133.409 153.947 132.926 153.23 132.588 152.433C132.24 151.609 132.063 150.732 132.063 149.827C132.063 149.507 132.086 149.186 132.13 148.873C132.191 148.445 132.294 148.022 132.436 147.614C132.483 147.482 132.534 147.35 132.588 147.22C132.926 146.423 133.409 145.706 134.026 145.09C134.642 144.474 135.359 143.99 136.156 143.653C136.605 143.463 137.074 143.323 137.551 143.236C137.947 143.164 138.354 143.128 138.762 143.128C138.8 143.128 138.838 143.128 138.876 143.129C139.742 143.143 140.58 143.319 141.369 143.653C142.166 143.99 142.883 144.474 143.499 145.09C143.954 145.545 144.339 146.058 144.644 146.615C144.75 146.809 144.848 147.012 144.936 147.22C145.016 147.41 145.088 147.605 145.15 147.8C145.357 148.45 145.461 149.132 145.461 149.827C145.461 150.733 145.285 151.61 144.936 152.433C144.617 153.187 144.167 153.87 143.598 154.462C143.565 154.497 143.532 154.53 143.499 154.563C143.24 154.823 142.959 155.061 142.666 155.272C142.263 155.562 141.827 155.807 141.369 156.001C140.545 156.349 139.668 156.526 138.762 156.526ZM139.139 153.465C139.116 153.465 139.092 153.466 139.07 153.468C138.31 153.53 136.826 154.924 136.536 155.203L136.201 155.525L136.638 155.684C137.315 155.93 138.029 156.055 138.762 156.055C139.605 156.055 140.42 155.891 141.186 155.567C141.398 155.477 141.607 155.375 141.807 155.263L142.21 155.037L141.831 154.772C141.64 154.639 139.937 153.465 139.139 153.465ZM132.537 149.636C132.535 149.697 132.534 149.759 132.534 149.827C132.534 150.669 132.698 151.484 133.022 152.25C133.336 152.992 133.785 153.658 134.358 154.231C134.397 154.269 134.437 154.309 134.479 154.348L134.685 154.543L134.934 154.29L134.955 154.22C135.114 153.696 135.607 151.936 135.327 151.266C135.041 150.581 133.312 149.585 132.968 149.392L132.552 149.159L132.537 149.636ZM144.411 148.445C144.101 148.688 142.548 149.939 142.376 150.665C142.217 151.338 142.905 152.878 143.208 153.509C143.221 153.537 143.229 153.553 143.229 153.553L143.437 153.97L143.719 153.6C144.035 153.187 144.299 152.732 144.503 152.25C144.827 151.484 144.991 150.669 144.991 149.827C144.991 149.417 144.952 149.009 144.874 148.617L144.783 148.152L144.411 148.445ZM136.943 143.867C136.739 143.929 136.536 144.003 136.339 144.086C135.598 144.399 134.932 144.849 134.358 145.422C133.864 145.916 133.461 146.482 133.159 147.103L132.949 147.534L133.428 147.519C133.805 147.507 135.714 147.425 136.275 146.944C136.828 146.468 137.236 144.576 137.312 144.202L137.409 143.725L136.943 143.867ZM139.268 144.036C139.398 144.396 140.078 146.212 140.703 146.593C140.942 146.738 141.34 146.805 141.956 146.805C142.687 146.805 143.474 146.706 143.63 146.685H143.73L143.815 146.601L143.99 146.428L143.848 146.227C143.645 145.942 143.416 145.671 143.167 145.422C142.593 144.849 141.927 144.4 141.186 144.086C140.672 143.869 140.131 143.722 139.578 143.651L139.107 143.59L139.268 144.036Z" fill="#BEE0E1"/>
<path d="M140.396 149.826C140.396 150.729 139.665 151.461 138.762 151.461C137.86 151.461 137.128 150.729 137.128 149.826C137.128 148.924 137.86 148.192 138.762 148.192C139.665 148.192 140.396 148.924 140.396 149.826Z" fill="#E1E3E1"/>
<path d="M138.763 150.886C138.178 150.886 137.703 150.411 137.703 149.826C137.703 149.242 138.178 148.767 138.763 148.767C139.347 148.767 139.822 149.242 139.822 149.826C139.822 150.411 139.347 150.886 138.763 150.886Z" fill="#033D3B"/>
<path d="M139.068 147.523C139.068 147.818 138.828 148.058 138.533 148.058C138.238 148.058 137.998 147.818 137.998 147.523C137.998 147.228 138.238 146.988 138.533 146.988C138.828 146.988 139.068 147.228 139.068 147.523Z" fill="#2C2B2C"/>
<path d="M141.454 148.767C141.454 149.062 141.215 149.302 140.92 149.302C140.624 149.302 140.385 149.062 140.385 148.767C140.385 148.472 140.624 148.232 140.92 148.232C141.215 148.232 141.454 148.472 141.454 148.767Z" fill="#2C2B2C"/>
<path d="M140.782 151.663C140.782 151.958 140.542 152.197 140.247 152.197C139.951 152.197 139.712 151.958 139.712 151.663C139.712 151.367 139.951 151.128 140.247 151.128C140.542 151.128 140.782 151.367 140.782 151.663Z" fill="#2C2B2C"/>
<path d="M137.941 151.801C137.941 152.097 137.701 152.336 137.406 152.336C137.111 152.336 136.871 152.097 136.871 151.801C136.871 151.506 137.111 151.267 137.406 151.267C137.701 151.267 137.941 151.506 137.941 151.801Z" fill="#2C2B2C"/>
<path d="M136.99 149.302C136.99 149.597 136.75 149.836 136.455 149.836C136.159 149.836 135.92 149.597 135.92 149.302C135.92 149.006 136.159 148.767 136.455 148.767C136.75 148.767 136.99 149.006 136.99 149.302Z" fill="#2C2B2C"/>
<path opacity="0.3" d="M141.665 155.01C141.665 155.01 139.789 153.7 139.093 153.757C138.398 153.814 136.736 155.412 136.736 155.412C136.736 155.412 138.414 151.554 139.899 152.95C141.385 154.346 141.665 155.01 141.665 155.01Z" fill="black"/>
<path opacity="0.5" d="M143.469 153.384L143.464 153.401C143.464 153.401 140.283 150.648 142.06 149.647C143.836 148.647 144.59 148.673 144.59 148.673C144.59 148.673 142.815 150.068 142.658 150.732C142.511 151.351 143.329 153.094 143.469 153.384Z" fill="black"/>
<path opacity="0.5" d="M143.611 146.396C143.558 146.427 140.052 148.512 139.67 146.525C139.286 144.522 139.541 143.938 139.541 143.938C139.541 143.938 140.284 145.998 140.854 146.345C141.426 146.693 143.569 146.401 143.611 146.396Z" fill="black"/>
<path opacity="0.2" d="M135.956 147.843C133.931 147.606 133.419 147.229 133.419 147.229C133.419 147.229 135.574 147.163 136.086 146.724C136.591 146.289 137.028 144.144 137.028 144.144C137.028 144.144 137.981 148.079 135.956 147.843Z" fill="black"/>
<path opacity="0.2" d="M136.102 151.856C135.253 153.692 134.686 154.131 134.678 154.137C134.686 154.11 135.325 152.012 135.06 151.377C134.798 150.75 132.826 149.645 132.826 149.645C132.826 149.645 136.959 150.006 136.102 151.856Z" fill="black"/>
<path d="M86.3523 116.325C86.0776 116.457 85.755 116.45 85.489 116.306C85.4586 116.29 85.4295 116.272 85.4026 116.254L82.8701 114.539L76.7658 101.833C75.6425 101.881 74.5348 101.614 73.5496 101.056C72.4787 100.449 71.6312 99.5388 71.0989 98.4238C70.4163 96.9944 70.3362 95.37 70.8731 93.85C71.4095 92.3315 72.4902 91.118 73.9161 90.4329C73.9391 90.4219 73.9624 90.4109 73.9856 90.4001C75.4233 89.7321 77.0378 89.6587 78.5317 90.1932C80.0269 90.7283 81.2291 91.8112 81.9168 93.2426C82.4506 94.3537 82.6288 95.5818 82.4322 96.7943C82.2465 97.9401 81.7416 98.9951 80.9696 99.8529L80.9319 101.529L82.3136 102.374L82.5336 105.104C82.5676 105.526 82.8109 105.897 83.1844 106.098L84.3963 106.747L84.48 108.899C84.4967 109.325 84.7184 109.72 85.073 109.955L85.9933 110.567L87.1193 113.028L86.8902 115.543C86.862 115.884 86.6609 116.176 86.3522 116.325C86.3523 116.325 86.3523 116.325 86.3523 116.325ZM74.9932 92.6502C74.2879 92.989 73.9898 93.8384 74.3286 94.5437C74.6674 95.2489 75.5169 95.5471 76.2221 95.2082C76.9273 94.8694 77.2254 94.02 76.8866 93.3147C76.5478 92.6095 75.6984 92.3114 74.9932 92.6502Z" fill="black"/>
<path d="M74.1134 90.6752C71.271 91.9956 70.0219 95.4649 71.3725 98.2932C72.4167 100.48 74.673 101.694 76.951 101.518L83.1079 114.334L85.5744 116.004C85.593 116.017 85.6123 116.028 85.632 116.038C86.0367 116.258 86.5499 115.991 86.5883 115.517L86.8101 113.081L85.7536 110.772L84.9055 110.208C84.4686 109.918 84.1977 109.435 84.1772 108.911L84.1001 106.932L83.0413 106.365C82.5786 106.117 82.2736 105.651 82.2315 105.128L82.0239 102.552L80.6249 101.697L80.6691 99.7322C82.2267 98.0673 82.6905 95.5533 81.6435 93.3741C80.2927 90.5623 76.9339 89.3648 74.1134 90.6752ZM76.3534 95.4816C75.496 95.8935 74.4671 95.5324 74.0552 94.675C73.6433 93.8176 74.0044 92.7888 74.8618 92.3769C75.7192 91.965 76.748 92.3261 77.1599 93.1835C77.5718 94.0409 77.2108 95.0697 76.3534 95.4816Z" fill="white"/>
<path d="M85.4909 116.307C85.4597 116.29 85.4299 116.272 85.4024 116.254L82.8699 114.539L76.6309 101.552C76.6309 101.552 77.4696 101.328 77.736 101.226C77.9716 101.135 78.6783 100.864 78.6783 100.864L86.1407 116.397L85.4909 116.307Z" fill="black"/>
<path d="M78.5297 101.255L85.6321 116.038C85.6124 116.028 85.593 116.016 85.5745 116.004L83.108 114.334L77.043 101.709C77.043 101.709 77.6251 101.59 77.806 101.523C77.9869 101.456 78.5297 101.255 78.5297 101.255Z" fill="#7EBCBB"/>
<path d="M74.6172 119.762C74.3125 119.762 74.0249 119.616 73.8474 119.371C73.8269 119.343 73.8083 119.315 73.7921 119.287L72.2518 116.645V102.548C71.2185 102.105 70.3357 101.385 69.6895 100.455C68.987 99.4442 68.6172 98.2569 68.6201 97.0214C68.6239 95.4374 69.2551 93.9385 70.3973 92.8008C71.5383 91.6644 73.038 91.0386 74.62 91.0386C74.6455 91.0386 74.6712 91.0387 74.6968 91.0391C76.282 91.0596 77.7691 91.6925 78.8842 92.8213C80.0003 93.9511 80.6149 95.4478 80.6149 97.0358C80.6149 98.2685 80.2437 99.4527 79.5415 100.46C78.8779 101.413 77.966 102.145 76.8986 102.584L76.1389 104.078L77.0185 105.438L76.0347 107.994C75.8824 108.389 75.9408 108.83 76.1908 109.172L77.002 110.282L76.1453 112.259C75.976 112.649 76.005 113.101 76.2227 113.467L76.7872 114.417L76.7363 117.123L75.4408 119.291C75.2676 119.586 74.9599 119.762 74.6174 119.762C74.6173 119.762 74.6172 119.762 74.6172 119.762ZM74.6306 93.5035C73.8482 93.5035 73.2116 94.1401 73.2116 94.9224C73.2116 95.7049 73.8482 96.3414 74.6306 96.3414C75.413 96.3414 76.0495 95.7049 76.0495 94.9224C76.0495 94.1401 75.413 93.5035 74.6306 93.5035Z" fill="black"/>
<path d="M74.6933 91.3423C71.5595 91.3016 68.9313 93.8878 68.9238 97.0221C68.918 99.4455 70.426 101.517 72.5555 102.345V116.563L74.0556 119.136C74.0668 119.155 74.0792 119.174 74.0925 119.192C74.362 119.566 74.9404 119.547 75.1803 119.136L76.435 117.037L76.4828 114.497L75.9625 113.622C75.6943 113.171 75.6591 112.619 75.8675 112.138L76.6551 110.321L75.9463 109.351C75.6366 108.927 75.5635 108.375 75.752 107.885L76.6804 105.473L75.7898 104.097L76.6804 102.345C78.8054 101.519 80.3121 99.4534 80.3121 97.0358C80.3121 93.9164 77.8031 91.3826 74.6933 91.3423ZM74.6311 96.6447C73.6798 96.6447 72.9088 95.8737 72.9088 94.9225C72.9088 93.9713 73.6798 93.2003 74.6311 93.2003C75.5823 93.2003 76.3533 93.9713 76.3533 94.9225C76.3533 95.8737 75.5823 96.6447 74.6311 96.6447Z" fill="white"/>
<path d="M73.8489 119.373C73.8279 119.345 73.8088 119.316 73.7922 119.287L72.252 116.645V102.237C72.252 102.237 73.1052 102.398 73.3896 102.421C73.6411 102.442 74.3955 102.504 74.3955 102.504V119.736L73.8489 119.373Z" fill="black"/>
<path d="M74.0917 102.791V119.192C74.0784 119.174 74.066 119.155 74.0548 119.136L72.5547 116.563V102.557C72.5547 102.557 73.1311 102.702 73.3232 102.72C73.5153 102.737 74.0917 102.791 74.0917 102.791Z" fill="#7EBCBB"/>
<path d="M75.208 93.627L75.3356 93.7072C75.3403 93.7032 75.3449 93.6993 75.3496 93.6953C75.2655 93.648 75.208 93.627 75.208 93.627Z" fill="black"/>
<path d="M75.9901 94.5173C75.9762 94.4579 75.9583 94.402 75.9376 94.3494C75.9301 94.3557 75.9226 94.3621 75.915 94.3684L75.9901 94.5173Z" fill="black"/>
<path d="M75.5996 93.8728L75.7661 94.0721L75.9156 94.3684C75.9231 94.3621 75.9306 94.3557 75.9381 94.3493C75.8559 94.141 75.7267 93.9853 75.5996 93.8728Z" fill="black"/>
<path d="M75.3359 93.7072L75.5994 93.8727C75.5092 93.7929 75.4203 93.7349 75.3499 93.6953C75.3453 93.6992 75.3407 93.7033 75.3359 93.7072Z" fill="black"/>
<path d="M71.9879 95.794C73.4807 95.794 74.8504 95.2579 75.9154 94.3684L75.766 94.0722L75.5995 93.8729L75.336 93.7073C74.4261 94.461 73.259 94.9145 71.9879 94.9145C70.469 94.9145 69.0988 94.2667 68.1383 93.2332L67.5 93.8375C68.6209 95.0404 70.218 95.794 71.9879 95.794Z" fill="black"/>
<path d="M71.9871 95.4907C71.1648 95.4907 70.3695 95.3221 69.6231 94.9898C68.9936 94.7094 68.4258 94.3251 67.9316 93.8457L68.1298 93.658C69.1626 94.6528 70.5516 95.2177 71.9871 95.2177C73.2031 95.2177 74.3906 94.8146 75.3557 94.0783L75.3967 94.1041L75.5101 94.2399L75.5331 94.2855C74.5183 95.0643 73.2683 95.4907 71.9871 95.4907Z" fill="#BFE2E2"/>
<path d="M67.6628 89.8656L61.4501 87.5273L56.5464 88.0871C55.609 88.1943 54.7821 88.7504 54.3283 89.5774L47.7232 101.631C47.4431 102.142 47.2775 102.707 47.2384 103.288L46.619 112.4L44.4474 119.203C44.2517 119.814 44.2829 120.476 44.5349 121.067L45.8268 124.096C46.1362 124.822 47.1279 124.915 47.5659 124.259L49.9095 120.749C49.6041 120.649 49.3075 120.506 49.0274 120.319C47.3605 119.206 46.9099 116.945 48.0227 115.278C49.1356 113.611 51.3969 113.161 53.0634 114.274C53.3439 114.461 53.5893 114.68 53.799 114.924L63.4401 100.485C63.1347 100.384 62.8381 100.242 62.5576 100.055C60.8911 98.9421 60.4405 96.6808 61.5533 95.0143C62.6662 93.3474 64.9275 92.8968 66.594 94.0096C66.874 94.197 67.1195 94.4163 67.3296 94.6599L68.5949 92.7645C69.29 91.7239 68.8344 90.3065 67.6628 89.8656ZM64.6419 91.3223C64.6899 90.5237 65.3766 89.9148 66.1756 89.9628C66.9742 90.0108 67.5831 90.6975 67.5351 91.4961C67.4871 92.2951 66.8004 92.904 66.0018 92.8561C65.2028 92.8081 64.5939 92.1213 64.6419 91.3223Z" fill="#55BB78"/>
<path d="M51.6742 120.459C53.4222 120.11 54.5569 118.411 54.2086 116.663C53.8603 114.915 52.161 113.78 50.413 114.129C48.6651 114.477 47.5304 116.176 47.8787 117.924C48.2269 119.672 49.9263 120.807 51.6742 120.459Z" fill="#55BB78"/>
<path d="M53.3444 117.594C53.4648 116.323 52.5322 115.195 51.2613 115.075C49.9905 114.954 48.8628 115.887 48.7424 117.158C48.622 118.429 49.5546 119.556 50.8254 119.677C52.0962 119.797 53.224 118.864 53.3444 117.594Z" fill="#8AD0A2"/>
<path d="M65.0639 100.374C66.8119 100.026 67.9465 98.3263 67.5983 96.5783C67.25 94.8304 65.5506 93.6957 63.8027 94.044C62.0547 94.3922 60.92 96.0916 61.2683 97.8395C61.6166 99.5875 63.3159 100.722 65.0639 100.374Z" fill="#55BB78"/>
<path d="M66.734 97.5089C66.8544 96.2381 65.9218 95.1104 64.651 94.99C63.3802 94.8696 62.2524 95.8022 62.132 97.073C62.0116 98.3438 62.9443 99.4716 64.2151 99.592C65.4859 99.7124 66.6137 98.7798 66.734 97.5089Z" fill="#8AD0A2"/>
<path d="M47.2725 110.896C47.3466 110.521 47.5789 103.45 48.0011 102.792C48.4233 102.133 54.3183 90.258 55.2404 89.581C56.1624 88.9041 61.0096 88.3872 61.0096 88.3872C61.0096 88.3872 58.7377 92.4259 55.5003 97.8235C52.7295 102.443 47.2725 110.896 47.2725 110.896Z" fill="#B0DFC0"/>
<path d="M71.9875 83.522C68.6042 83.522 65.8516 86.2745 65.8516 89.6579C65.8516 90.6123 66.2978 91.9426 66.6883 92.7489C66.9871 92.6522 67.259 92.444 67.391 92.1731C67.1197 91.5397 66.731 90.3893 66.731 89.6578C66.731 86.7594 69.0891 84.4013 71.9875 84.4013C74.8859 84.4013 77.244 86.7594 77.244 89.6578C77.244 89.736 77.2417 89.8137 77.2383 89.891C77.4299 89.9229 77.8018 89.9883 78.1095 90.064C78.1184 89.9297 78.1234 89.7943 78.1234 89.6578C78.1234 86.2745 75.3708 83.522 71.9875 83.522Z" fill="black"/>
<path d="M66.838 92.344C66.5354 91.6288 66.1553 90.4438 66.1553 89.6579C66.1553 86.4417 68.7718 83.8252 71.9879 83.8252C75.2041 83.8252 77.8206 86.4417 77.8206 89.6579C77.8206 89.6683 77.8206 89.6789 77.8205 89.6894C77.7254 89.6701 77.6324 89.6525 77.5477 89.6371C77.5364 86.5809 75.0467 84.0981 71.9879 84.0981C68.9223 84.0981 66.4282 86.5922 66.4282 89.6579C66.4282 90.3522 66.7922 91.4882 67.0527 92.1468C66.9967 92.2207 66.9231 92.288 66.838 92.344Z" fill="#BFE2E2"/>
</svg>
