<svg width="716" height="165" viewBox="0 0 716 165" fill="none" xmlns="http://www.w3.org/2000/svg">
<g clip-path="url(#clip0_319_3789)">
<path d="M121.438 5.45127C117.048 0.983034 111.92 -1.51918 105.497 0.994205C102.828 1.23996 100.515 2.14478 98.9402 4.44592C91.2772 11.718 91.2213 20.6098 98.795 28.0159C100.091 30.0936 102.135 30.8979 104.391 31.3782C106.715 33.1767 109.463 32.5846 111.909 32.2383C118.343 31.3447 122.778 27.5355 124.845 21.4252C126.833 15.5607 125.906 9.96419 121.449 5.4401L121.438 5.45127Z" fill="#019935"/>
<path d="M40.3943 7.07004C36.4734 1.40655 29.6146 -1.0063 22.9235 0.937386C21.7505 1.12729 20.4101 0.881533 19.7063 2.222C18.2988 2.53478 17.0924 3.14916 16.3105 4.42261C9.19479 11.6276 8.78148 19.2795 15.0929 26.9202C16.1429 28.6069 17.3046 30.1596 19.5276 30.3049C20.0191 31.2432 20.9351 31.299 21.8176 31.4554C29.3577 33.7007 36.1606 31.5113 40.3943 25.468C44.0247 20.296 44.0135 12.3314 40.3943 7.07004Z" fill="#019935"/>
<path d="M658.305 84.818C649.703 82.394 644.487 76.8646 641.984 68.2856C640.365 62.7114 639.292 56.8692 636.019 50.96C634.076 57.5283 632.378 63.27 630.669 69.0228C628.256 77.1215 622.983 82.3493 614.896 84.7398C609.176 86.4378 603.457 88.1469 596.073 90.3475C603.312 92.6039 609.02 94.4694 614.773 96.1562C623.106 98.6025 628.423 103.942 630.803 112.298C632.322 117.615 633.953 122.887 635.852 129.243C639.594 123.658 640.499 118.252 641.862 113.202C644.33 104.054 649.804 98.569 658.796 95.9439C664.337 94.3242 670.09 93.1513 675.898 90.1017C669.52 88.1804 663.935 86.4042 658.316 84.818H658.305Z" fill="#019935"/>
<path d="M693.427 114.844C693.025 114.163 692.622 113.47 692.22 112.789C691.941 107.84 689.673 103.473 687.83 98.3342C686.065 114.476 677.631 123.893 660.998 125.322C665.657 127.78 669.823 129.143 674.191 129.869C674.191 129.846 674.18 129.835 674.169 129.824C684.669 133.89 684.3 144.737 688.78 153.349C689.651 136.37 699.247 128.07 715.477 126.194C707.412 122.463 698.61 122.284 693.427 114.844ZM674.157 129.802C674.157 129.802 674.146 129.802 674.135 129.802C673.901 129.523 673.699 129.266 673.498 129.009C673.778 129.199 674.023 129.444 674.157 129.802Z" fill="#019935"/>
<path d="M688.287 68.1403C689.338 60.3656 693.694 56.4447 701.189 55.0931C693.471 53.7302 689.326 49.3961 688.131 41.7107C687.059 49.787 682.065 53.4622 674.872 55.3165C682.836 56.1766 686.601 60.8906 688.299 68.1403H688.287Z" fill="#019935"/>
<path d="M589.06 142.748C588.893 142.379 588.692 142.066 588.491 141.798C589.396 139.944 589.384 138.101 588.491 136.246C566.943 136.179 545.395 136.124 523.847 136.057H514.34C538.536 117.558 561.525 100.009 584.458 82.4042C586.502 80.8403 589.474 79.6674 588.535 76.1487C588.938 75.6348 589.105 75.0093 589.083 74.3055C589.061 68.9325 589.027 63.5483 589.083 58.164C589.161 50.1324 588.815 49.5962 580.984 49.585C542.781 49.518 504.588 49.5403 466.385 49.585C463.816 49.585 461.146 49.384 458.923 51.1489C458.901 51.3388 458.89 51.5399 458.878 51.7298C457.706 52.3665 458.376 53.774 457.94 54.7235C458.007 61.0125 458.387 67.3239 458.029 73.5906C457.761 78.3046 459.392 79.4664 463.939 79.4217C483.912 79.2429 503.885 79.4328 523.858 79.4887C524.975 79.4887 526.081 79.4887 527.198 79.4887C528.382 80.36 529.678 80.8068 531.085 80.8292C507.806 98.6909 484.537 116.553 461.258 134.414C460.979 134.437 460.699 134.459 460.409 134.47C459.571 134.705 458.979 135.129 459.046 136.112C459.046 136.112 459.046 136.112 459.046 136.124C458.253 135.978 457.784 136.269 457.873 137.297C457.873 138.056 457.873 138.827 457.873 139.586C457.929 144.58 457.773 149.595 458.119 154.566C458.342 157.705 456.622 161.146 459.258 164.005C502.343 164.05 545.417 164.106 588.502 164.151C589.764 157.046 588.759 149.886 589.072 142.748H589.06Z" fill="#019935"/>
<path d="M135.758 52.1422C132.786 49.6177 126.207 51.2598 121.225 51.2598C81.4576 51.2933 41.7014 51.3715 1.93413 51.4385C-0.836173 59.4478 1.4538 67.7029 0.761222 75.8239C0.660686 77.0191 0.403763 78.4937 2.07935 79.0634C14.6686 79.0969 27.269 79.3762 39.8471 79.041C44.6505 78.9182 45.5776 80.4932 45.533 84.9614C45.3095 109.805 45.4659 134.648 45.3766 159.48C45.3654 162.765 45.7117 165.055 49.8001 163.971C63.8862 163.982 77.9724 164.005 92.0696 164.016C93.7117 163.357 93.2872 161.882 93.2761 160.665C93.2537 135.006 93.1867 109.347 93.142 83.6768C93.2984 82.9954 92.8963 82.7273 92.3266 82.5821C91.5446 79.1639 93.6782 79.1081 96.1246 79.1192C107.921 79.1639 119.728 79.1863 131.524 79.0857C133.211 79.0745 135.222 80.0687 136.607 78.1586C136.718 74.4499 137.042 70.7301 136.875 67.0326C136.64 61.9053 139.232 55.0913 135.758 52.1311V52.1422Z" fill="#019935"/>
<path d="M290.616 136.615C290.337 135.789 290.024 135.722 289.689 136.414C289.667 136.224 289.655 136.046 289.644 135.856C287.343 134.247 284.684 134.593 282.126 134.593C262.544 134.571 242.962 134.627 223.369 134.549C217.102 134.526 210.813 135.029 204.558 134.191C201.039 130.885 201.408 126.807 202.782 122.887C204.301 118.575 208.345 120.005 211.45 119.993C228.854 119.882 246.269 119.971 263.673 119.915C266.208 119.915 268.923 120.418 271.056 118.362C271.056 118.273 271.056 118.184 271.056 118.083C271.067 118.083 271.112 118.083 271.112 118.083L271.593 118.039C271.637 117.033 271.693 116.028 271.738 115.011C271.648 109.169 271.559 103.316 271.47 97.4735C270.174 94.9824 267.85 96.0883 266.007 96.0771C246.515 95.9878 227.033 95.9319 207.54 96.0995C203.642 96.133 202.212 94.9266 202.502 91.028C202.793 87.1407 202.592 83.2309 202.603 79.3212C228.619 79.3324 254.636 79.3436 280.652 79.3548C281.601 78.7515 283.21 79.8463 283.735 78.1483C283.757 77.1877 283.791 76.227 283.813 75.2663C284.159 74.9982 284.483 74.6854 284.774 74.2833C286.717 68.6645 285.746 62.867 285.701 57.1588C285.656 51.0373 284.517 50.2219 278.407 50.233C239.622 50.2554 200.838 50.2777 162.043 50.2218C153.609 50.2107 152.849 50.7245 152.838 59.1918C152.782 91.5195 152.793 123.858 152.838 156.186C152.838 158.923 152.447 161.827 154.648 164.095C198.526 164.117 242.404 164.14 286.282 164.14C287.377 164.14 288.482 163.927 289.577 163.827C291.275 162.363 290.359 160.42 290.404 158.711C290.594 152.343 290.616 145.965 290.694 139.587C290.661 138.592 290.627 137.598 290.583 136.604L290.616 136.615ZM201.62 90.3913C201.977 95.7644 203.229 96.8479 208.858 97.0825C206.624 97.2389 204.547 97.116 203.139 95.8425C201.665 94.5021 201.475 92.536 201.62 90.3913Z" fill="#019935"/>
<path d="M444.817 136.458C444.817 136.302 444.805 136.146 444.794 136C442.538 134.269 439.879 134.526 437.31 134.515C429.334 134.448 421.358 134.492 413.382 134.492C397.431 134.492 381.479 134.537 365.528 134.448C363.227 134.437 360.501 135.084 358.959 132.549C355.429 126.707 359.116 120.183 365.963 120.161C383.032 120.116 400.101 120.172 417.158 120.127C420.085 120.127 423.134 120.552 425.793 118.731C425.827 118.541 425.838 118.34 425.86 118.15C427.1 117.491 426.664 116.117 426.921 115.044C426.921 110.208 426.921 105.371 426.921 100.523C426.709 99.5843 426.966 98.4561 426.296 97.6965C426.296 97.6853 426.296 97.663 426.296 97.6518C426.117 97.3279 425.894 97.0598 425.625 96.8475C425.19 94.7363 423.793 95.2725 422.352 95.9762H361.004C360.523 95.6188 360.043 95.3842 359.551 95.2501C359.451 95.1161 359.35 94.982 359.261 94.8257C357.574 90.0223 357.496 85.2301 359.339 80.4603C359.417 80.3262 359.507 80.2145 359.596 80.1028C360.065 79.9799 360.534 79.7454 361.004 79.3991C363.037 79.3209 365.058 79.1868 367.092 79.1868C388.561 79.1757 410.02 79.2204 431.49 79.1533C440.035 79.131 438.874 80.4938 438.997 71.3898C439.086 65.1007 439.142 58.8005 439.209 52.5115C438.058 50.6907 436.372 51.3162 434.774 51.4726C434.707 51.305 434.651 51.1263 434.573 50.9588C432.283 49.864 429.826 50.3109 427.446 50.3109C402.782 50.2774 378.117 50.3555 353.452 50.2662C339.925 50.2103 326.397 50.6348 312.858 50.0204C310.055 49.8864 306.86 50.2997 308.692 54.7121C309.273 54.8461 309.664 55.1254 309.518 55.8068C308.211 56.9685 308.58 58.5436 308.58 59.9734C308.569 93.1836 308.558 126.394 308.602 159.604C308.602 161.145 307.887 163.022 309.831 164.083C354.715 164.083 399.598 164.083 444.493 164.083C446.581 162.832 445.688 160.766 445.721 159.057C445.855 152.209 445.844 145.361 445.889 138.503C445.721 137.71 445.665 136.838 444.828 136.481L444.817 136.458Z" fill="#019935"/>
</g>
<defs>
<clipPath id="clip0_319_3789">
<rect width="714.951" height="164.241" fill="white" transform="translate(0.524292)"/>
</clipPath>
</defs>
</svg>
