<svg width="1440" height="408" viewBox="0 0 1440 408" fill="none" xmlns="http://www.w3.org/2000/svg">
<g clip-path="url(#clip0_599_2077)">
<mask id="mask0_599_2077" style="mask-type:alpha" maskUnits="userSpaceOnUse" x="0" y="0" width="1441" height="408">
<rect x="0.345703" width="1440" height="407.249" fill="#D9D9D9"/>
</mask>
<g mask="url(#mask0_599_2077)">
<mask id="mask1_599_2077" style="mask-type:luminance" maskUnits="userSpaceOnUse" x="-202" y="-104" width="1738" height="662">
<path d="M1535.38 -103.242H-201.207V557.096H1535.38V-103.242Z" fill="white"/>
<path d="M-200.707 556.596V-102.742H1534.88V556.596H-200.707Z" stroke="white"/>
</mask>
<g mask="url(#mask1_599_2077)">
<path d="M-138.851 170.441C-94.4641 146.194 -47.5067 123.465 1.65034 102.413C23.5082 93.063 46.3849 83.8578 72.7116 79.6845C139.999 69.0002 208.536 93.3667 260.032 120.282C307.475 145.071 349.709 173.083 385.576 203.551C421.118 233.741 451.103 266.785 497.991 291.415C544.902 316.046 615.407 330.719 673.294 315.465C707.724 306.392 732.639 287.955 746.3 267.775C759.961 247.595 763.504 225.659 764.314 204.026C765.24 179.264 763.318 153.127 784.065 131.363C805.552 108.845 851.329 94.6478 896.156 96.6288C959.924 99.4418 1006.95 130.042 1053.38 155.122C1112.37 186.989 1184.27 213.641 1264.89 219.372C1345.52 225.104 1435.1 205.69 1473 164.71" stroke="url(#paint0_linear_599_2077)" stroke-opacity="0.5" stroke-miterlimit="10"/>
<path d="M-133.596 180.637C-89.9957 156.772 -43.7098 134.519 4.82206 114.035C26.4021 104.923 48.9777 96.008 74.8413 91.8874C126.8 83.62 179.569 96.1004 224.628 114.299C236.9 119.252 248.616 124.627 259.568 130.134C306.711 153.801 348.875 180.69 384.927 210.048C420.631 239.13 450.755 271.209 497.319 295.074C523.437 308.452 556.016 319.163 589.96 324.023C619.528 328.249 650.278 327.958 678.202 320.88C683.18 319.612 687.996 318.159 692.604 316.521C721.015 306.458 741.622 289.87 754.056 271.975C758.062 266.23 761.28 260.34 763.92 254.384C770.797 238.826 773.807 222.648 775.636 206.747C778.6 181.509 780.105 155.504 802.519 133.977C824.77 112.596 868.764 98.755 912.549 100.551C974.858 103.113 1021.24 132.168 1066.94 155.755C1070.56 157.618 1074.19 159.453 1077.9 161.263C1133.77 188.693 1199.94 210.59 1272.97 214.79C1350.84 219.267 1436.67 199.628 1472.56 159.44" stroke="url(#paint1_linear_599_2077)" stroke-opacity="0.5" stroke-miterlimit="10"/>
<path d="M-128.339 190.833C-85.5266 167.364 -39.9122 145.586 7.99449 125.644C29.2735 116.782 51.5713 108.132 76.9718 104.077C128.004 95.942 179.894 107.643 224.42 124.918C236.576 129.619 248.176 134.73 259.082 139.973C305.924 162.504 348.019 188.284 384.232 216.533C420.099 244.518 450.408 275.594 496.601 298.719C523.808 312.335 557.197 323.429 592.091 328.711C622.4 333.294 654.214 333.307 683.065 326.255C688.228 325 693.206 323.534 697.999 321.87C727.498 311.675 748.638 294.572 761.767 276.148C765.981 270.245 769.431 264.196 772.302 258.095C779.827 242.154 783.81 225.619 786.89 209.441C791.891 183.741 796.753 157.882 820.88 136.553C843.803 116.294 886.084 102.81 928.85 104.434C989.7 106.758 1035.43 134.255 1080.42 156.35C1083.96 158.093 1087.55 159.81 1091.19 161.514C1146.11 187.148 1210.52 207.169 1280.96 210.207C1356.05 213.443 1438.16 193.553 1472.03 154.184" stroke="url(#paint2_linear_599_2077)" stroke-opacity="0.5" stroke-miterlimit="10"/>
<path d="M-123.084 201.041C-81.0583 177.956 -36.1154 156.653 11.143 137.266C32.1442 128.655 54.1178 120.269 79.0784 116.28C129.208 108.277 180.194 119.199 224.211 135.536C236.251 139.986 247.759 144.833 258.595 149.812C305.136 171.22 347.185 195.877 383.56 223.017C419.589 249.906 450.106 279.965 495.929 302.364C524.224 316.204 558.423 327.694 594.243 333.4C625.317 338.339 658.15 338.669 687.95 331.643C693.298 330.388 698.462 328.909 703.417 327.232C734.004 316.891 755.7 299.273 769.523 280.322C773.946 274.26 777.604 268.052 780.753 261.806C788.927 245.482 793.905 228.577 798.235 212.135C805.274 185.959 813.424 160.285 839.357 139.128C862.813 119.991 903.518 106.864 945.266 108.33C1004.68 110.403 1049.74 136.355 1094.01 156.957C1097.51 158.582 1101.03 160.18 1104.59 161.764C1158.57 185.603 1221.24 203.749 1289.06 205.611C1361.38 207.605 1439.78 187.478 1471.61 148.914" stroke="url(#paint3_linear_599_2077)" stroke-opacity="0.5" stroke-miterlimit="10"/>
<path d="M-117.805 211.237C-76.5896 188.548 -32.295 167.708 14.3382 148.875C35.0615 140.502 56.7341 132.393 81.2316 128.47C130.435 120.599 180.518 130.742 224.049 146.154C235.95 150.354 247.365 154.937 258.155 159.651C304.395 179.937 346.374 203.485 382.912 229.502C419.102 255.282 449.875 284.323 495.258 306.022C524.664 320.074 559.65 331.973 596.42 338.114C628.234 343.397 662.109 344.044 692.858 337.045C698.369 335.79 703.718 334.311 708.858 332.607C740.534 322.134 762.785 304.001 777.28 284.521C781.911 278.288 785.801 271.922 789.181 265.53C798.003 248.824 803.954 231.562 809.557 214.842C818.634 188.191 829.979 162.715 857.788 141.717C881.683 123.676 920.93 110.945 961.636 112.226C1019.59 114.048 1064 138.455 1107.56 157.552C1110.98 159.057 1114.46 160.536 1117.98 162.002C1171.02 184.044 1231.92 200.315 1297.15 201.002C1366.68 201.741 1441.35 181.377 1471.17 143.632" stroke="url(#paint4_linear_599_2077)" stroke-opacity="0.5" stroke-miterlimit="10"/>
<path d="M-112.548 221.446C-72.1207 199.14 -28.4975 178.775 17.5105 160.497C37.9559 152.374 59.3044 144.53 83.362 140.673C131.639 132.921 180.843 142.298 223.84 156.785C235.626 160.721 246.949 165.053 257.669 169.504C303.631 188.667 345.517 211.092 382.241 236C418.593 260.683 449.643 288.668 494.563 309.68C525.081 323.957 560.855 336.265 598.573 342.816C631.152 348.455 666.069 349.419 697.744 342.446C703.44 341.192 708.951 339.712 714.276 337.982C747.063 327.377 769.824 308.716 785.013 288.708C789.853 282.316 793.974 275.792 797.586 269.254C807.057 252.165 813.933 234.52 820.833 217.55C831.855 190.423 846.419 165.145 876.196 144.305C900.416 127.334 938.296 115.012 977.983 116.122C1034.48 117.707 1078.24 140.568 1121.08 158.159C1124.46 159.546 1127.86 160.906 1131.31 162.253C1183.41 182.512 1242.55 196.894 1305.18 196.406C1371.96 195.904 1442.88 175.301 1470.69 138.349" stroke="url(#paint5_linear_599_2077)" stroke-opacity="0.5" stroke-miterlimit="10"/>
<path d="M-107.293 231.641C-67.6521 209.718 -24.7004 189.842 20.6824 172.119C40.8269 164.247 61.8975 156.68 85.5151 152.876C132.866 145.256 181.19 153.867 223.678 167.417C235.325 171.102 246.555 175.156 257.229 179.356C302.89 197.396 344.707 218.699 381.592 242.497C418.107 266.085 449.458 293.013 493.891 313.339C525.544 327.813 562.082 340.544 600.75 347.531C634.092 353.527 670.028 354.795 702.653 347.848C708.534 346.606 714.23 345.101 719.718 343.358C753.593 332.62 776.909 313.444 792.77 292.894C797.818 286.344 802.171 279.661 806.038 272.979C816.156 255.506 824.029 237.505 832.179 220.27C845.238 192.668 862.859 167.602 894.65 146.907C919.101 130.993 955.708 119.093 994.376 120.031C1049.41 121.365 1092.53 142.681 1134.65 158.78C1137.96 160.048 1141.32 161.302 1144.7 162.517C1195.84 180.98 1253.22 193.474 1313.26 191.823C1377.26 190.08 1444.45 169.226 1470.25 133.093" stroke="url(#paint6_linear_599_2077)" stroke-opacity="0.5" stroke-miterlimit="10"/>
<path d="M-102.036 241.837C-63.1831 220.31 -20.9029 200.896 23.8316 183.727C43.6982 176.094 64.4446 168.804 87.6223 165.066C134.047 157.578 181.468 165.409 223.47 178.022C235.001 181.456 246.138 185.246 256.743 189.182C302.103 206.099 343.85 226.279 380.897 248.982C417.574 271.46 449.25 297.319 493.174 316.983C525.961 331.669 563.263 344.81 602.88 352.219C636.963 358.572 673.964 360.156 707.515 353.236C713.559 351.995 719.44 350.489 725.113 348.719C760.076 337.837 783.925 318.146 800.481 297.081C805.737 290.372 810.298 283.518 814.42 276.69C825.186 258.834 834.032 240.463 843.455 222.965C858.552 194.887 879.137 170.019 913.058 149.482C937.648 134.585 973.098 123.148 1010.72 123.927C1064.3 125.023 1106.79 144.78 1148.17 159.387C1151.43 160.536 1154.72 161.672 1158.03 162.768C1208.23 179.435 1263.85 190.053 1321.3 187.227C1382.52 184.229 1446.01 163.151 1469.76 127.823" stroke="url(#paint7_linear_599_2077)" stroke-opacity="0.5" stroke-miterlimit="10"/>
<path d="M-96.7563 252.046C-58.6903 230.902 -17.0816 211.963 27.0277 195.349C46.6165 187.967 67.0619 180.941 89.7765 177.269C135.275 169.913 181.769 177.005 223.285 188.654C234.678 191.85 245.722 195.363 256.258 199.034C301.316 214.816 342.994 233.887 380.227 255.48C417.066 276.862 449.088 301.624 492.48 320.655C526.424 335.539 564.467 349.103 605.034 356.947C639.882 363.643 677.901 365.545 712.425 358.664C718.653 357.423 724.72 355.917 730.555 354.121C766.606 343.107 791.011 322.9 808.238 301.294C813.703 294.427 818.496 287.414 822.872 280.441C834.287 262.215 844.128 243.462 854.802 225.699C871.936 197.145 895.415 172.449 931.513 152.11C956.173 138.217 990.511 127.268 1027.12 127.863C1079.26 128.708 1121.08 146.92 1161.74 160.034C1164.93 161.065 1168.18 162.082 1171.44 163.059C1220.69 177.93 1274.55 186.673 1329.4 182.671C1387.87 178.432 1447.6 157.103 1469.35 122.58" stroke="url(#paint8_linear_599_2077)" stroke-opacity="0.5" stroke-miterlimit="10"/>
<path d="M-91.5001 262.242C-54.2445 241.494 -13.2841 223.018 30.2001 206.958C49.5109 199.826 69.6322 193.065 91.9069 189.459C136.479 182.235 182.094 188.561 223.1 199.272C234.377 202.217 245.329 205.466 255.795 208.873C300.552 223.533 342.161 241.481 379.556 261.964C416.556 282.25 448.927 305.916 491.786 324.3C526.911 339.369 565.672 353.382 607.165 361.636C642.776 368.688 681.815 370.907 717.287 364.039C723.701 362.798 729.93 361.279 735.973 359.47C773.136 348.323 798.074 327.589 815.972 305.467C821.645 298.441 826.669 291.27 831.277 284.152C843.341 265.543 854.177 246.433 866.078 228.393C885.25 199.364 911.531 174.813 949.921 154.686C974.581 141.756 1007.9 131.323 1043.47 131.746C1094.15 132.353 1135.32 149.007 1175.24 160.629C1178.39 161.54 1181.56 162.438 1184.75 163.297C1233.05 176.371 1285.15 183.239 1337.41 178.075C1393.1 172.594 1449.11 151.027 1468.81 117.311" stroke="url(#paint9_linear_599_2077)" stroke-opacity="0.5" stroke-miterlimit="10"/>
<path d="M-86.2443 272.437C-49.7759 252.072 -9.48702 234.085 33.372 218.567C52.3819 211.686 72.2253 205.188 94.0369 201.649C137.683 194.557 182.418 200.104 222.915 209.877C234.052 212.571 244.912 215.556 255.331 218.699C299.788 232.236 341.327 249.061 378.907 268.436C416.07 287.612 448.834 310.169 491.137 327.932C527.443 343.173 566.922 357.634 609.364 366.324C645.717 373.733 685.82 376.256 722.219 369.428C728.818 368.2 735.232 366.668 741.437 364.832C779.689 353.553 805.159 332.304 823.752 309.641C829.633 302.456 834.866 295.126 839.728 287.85C852.44 268.858 864.249 249.378 877.424 231.074C898.657 201.583 927.646 177.137 968.375 157.248C992.942 145.256 1025.31 135.364 1059.86 135.628C1109.09 135.985 1149.61 151.093 1188.81 161.21C1191.91 162.002 1195.01 162.781 1198.14 163.521C1245.49 174.8 1295.83 179.792 1345.49 173.453C1398.4 166.717 1450.68 144.913 1468.37 112.015" stroke="url(#paint10_linear_599_2077)" stroke-opacity="0.5" stroke-miterlimit="10"/>
<path d="M-80.988 282.646C-45.3069 262.664 -5.68951 245.152 36.5443 230.202C55.2764 223.559 74.7956 217.352 96.1672 213.865C138.91 206.905 182.719 211.673 222.73 220.522C233.751 222.965 244.518 225.672 254.868 228.565C299.024 240.979 340.517 256.682 378.236 274.947C415.561 293.027 448.718 314.448 490.442 331.604C527.93 347.016 568.126 361.926 611.518 371.039C648.634 378.805 689.757 381.644 727.105 374.829C733.866 373.601 740.465 372.069 746.856 370.207C786.195 358.783 812.221 337.018 831.486 313.827C837.575 306.484 843.04 298.983 848.157 291.574C861.517 272.2 874.321 252.35 888.747 233.794C912.017 203.828 943.646 179.449 986.829 159.85C1011.28 148.756 1042.72 139.458 1076.25 139.538C1124.02 139.643 1163.89 153.22 1202.37 161.831C1205.41 162.504 1208.46 163.165 1211.52 163.799C1257.92 173.281 1306.5 176.398 1353.57 168.883C1403.73 160.906 1452.28 138.864 1467.93 106.772" stroke="url(#paint11_linear_599_2077)" stroke-opacity="0.5" stroke-miterlimit="10"/>
<path d="M-75.7096 292.842C-40.8157 273.256 -1.84666 256.206 39.7157 241.811C58.1699 235.419 77.3881 229.476 98.2967 226.055C140.114 219.214 183.042 223.216 222.521 231.14C233.426 233.319 244.078 235.775 254.381 238.403C298.259 249.695 339.659 264.275 377.563 281.431C415.051 298.415 448.625 318.7 489.747 335.248C528.438 350.819 569.329 366.192 613.67 375.74C651.551 383.863 693.715 387.006 731.99 380.231C738.936 379.003 745.697 377.457 752.273 375.595C792.701 364.039 819.259 341.759 839.241 318.04C845.563 310.525 851.235 302.879 856.584 295.324C870.593 275.567 884.462 255.374 900.045 236.528C925.469 206.113 959.552 181.707 1005.24 162.464C1029.5 152.242 1060.11 143.552 1092.6 143.46C1138.93 143.328 1178.13 155.346 1215.9 162.464C1218.88 163.019 1221.87 163.561 1224.88 164.076C1270.36 171.762 1317.15 172.99 1361.63 164.313C1409 155.095 1453.83 132.802 1467.47 101.515" stroke="url(#paint12_linear_599_2077)" stroke-opacity="0.5" stroke-miterlimit="10"/>
<path d="M-70.4532 303.05C-36.3698 283.848 1.95094 267.286 42.8881 253.433C61.0644 247.291 79.9585 241.612 100.427 238.258C141.318 231.549 183.367 234.785 222.336 241.758C233.126 243.686 243.684 245.878 253.918 248.242C297.495 258.412 338.826 271.882 376.892 287.915C414.541 303.79 448.532 322.94 489.053 338.907C528.971 354.623 570.533 370.484 615.824 380.442C654.445 388.908 697.652 392.381 736.876 385.632C744.007 384.417 750.953 382.859 757.691 380.97C799.231 369.282 826.321 346.487 846.975 322.227C853.505 314.553 859.409 306.748 865.013 299.049C879.669 278.908 894.512 258.345 911.368 239.235C938.829 208.358 975.39 183.886 1023.69 165.053C1047.75 155.676 1077.52 147.62 1108.99 147.356C1153.87 146.973 1192.42 157.446 1229.46 163.072C1232.38 163.521 1235.32 163.93 1238.26 164.326C1282.79 170.23 1327.83 169.57 1369.71 159.717C1414.31 149.244 1455.41 126.727 1467.03 96.2456" stroke="url(#paint13_linear_599_2077)" stroke-opacity="0.5" stroke-miterlimit="10"/>
<path d="M-65.197 313.246C-31.9008 294.426 5.74844 278.34 46.0605 265.041C63.9358 259.138 82.552 253.736 102.557 250.448C142.522 243.871 183.691 246.314 222.151 252.376C232.802 254.053 243.268 255.981 253.456 258.081C296.731 267.115 337.993 279.476 376.244 294.4C414.055 309.178 448.463 327.166 488.381 342.552C529.527 358.413 571.761 374.75 618 385.13C657.386 393.953 701.611 397.73 741.784 391.007C749.078 389.792 756.21 388.234 763.133 386.319C805.76 374.499 833.384 351.176 854.732 326.4C861.47 318.568 867.583 310.591 873.441 302.747C888.746 282.223 904.584 261.304 922.691 241.916C952.19 210.563 991.182 185.946 1042.12 167.628C1065.95 159.057 1094.91 151.674 1125.36 151.252C1168.78 150.631 1206.68 159.546 1243.01 163.679C1245.88 164.009 1248.75 164.3 1251.62 164.577C1295.2 168.685 1338.48 166.149 1377.75 155.121C1419.56 143.407 1456.94 120.638 1466.54 90.9761" stroke="url(#paint14_linear_599_2077)" stroke-opacity="0.5" stroke-miterlimit="10"/>
<path d="M-59.9407 323.442C-27.4317 305.018 9.54607 289.394 49.2329 276.65C66.8304 270.997 85.1456 265.86 104.688 262.638C143.727 256.193 184.015 257.857 221.943 262.994C232.478 264.42 242.851 266.071 252.97 267.92C295.944 275.831 337.136 287.07 375.55 300.884C413.523 314.567 448.371 331.392 487.664 346.197C530.06 362.177 572.942 379.016 620.108 389.832C660.258 399.011 705.525 403.105 746.624 396.409C754.103 395.194 761.42 393.636 768.505 391.694C812.221 379.729 840.4 355.904 862.42 330.586C869.366 322.596 875.711 314.461 881.8 306.471C897.754 285.578 914.564 264.275 933.921 244.624C965.457 212.808 1006.79 187.953 1060.46 170.217C1084.05 162.425 1112.23 155.755 1141.64 155.148C1183.6 154.276 1220.85 161.645 1256.46 164.287C1259.27 164.498 1262.09 164.67 1264.89 164.828C1307.52 167.139 1349.06 162.728 1385.71 150.539C1424.77 137.583 1458.42 114.577 1465.99 85.7197" stroke="url(#paint15_linear_599_2077)" stroke-opacity="0.5" stroke-miterlimit="10"/>
<path d="M-54.6844 333.65C-22.9627 315.61 13.3435 300.462 52.4052 288.285C69.7248 282.884 87.7159 278.023 106.818 274.854C144.931 268.541 184.34 269.426 221.757 273.626C232.177 274.801 242.434 276.188 252.483 277.773C295.157 284.561 336.28 294.677 374.878 307.395C413.014 319.968 448.324 335.631 486.969 349.868C530.616 365.954 574.146 383.308 622.261 394.547C663.152 404.082 709.461 408.48 751.51 401.811C759.174 400.595 766.653 399.024 773.923 397.069C818.727 384.972 847.462 360.619 870.154 334.773C877.308 326.624 883.884 318.33 890.229 310.195C906.83 288.919 924.636 267.26 945.244 247.344C978.818 215.054 1022.46 189.868 1078.91 172.818C1102.25 165.766 1129.65 159.836 1158.03 159.057C1198.53 157.934 1235.16 163.772 1270.03 164.907C1272.79 165 1275.54 165.066 1278.3 165.092C1319.98 165.607 1359.76 159.321 1393.82 145.956C1430.1 131.745 1460.02 108.501 1465.57 80.4502" stroke="url(#paint16_linear_599_2077)" stroke-opacity="0.5" stroke-miterlimit="10"/>
<path d="M-49.4065 343.846C-18.4952 326.202 17.1628 311.529 55.5761 299.894C72.6179 294.73 90.3079 290.147 108.947 287.044C146.133 280.863 184.663 280.969 221.571 284.244C231.852 285.155 242.04 286.291 252.019 287.612C294.392 293.277 335.445 302.271 374.206 313.88C412.503 325.357 448.254 339.831 486.273 353.527C531.193 369.705 575.349 387.6 624.413 399.262C666.068 409.154 713.419 413.868 756.394 407.225C764.22 406.024 771.908 404.439 779.34 402.458C825.256 390.228 854.5 365.36 877.886 338.986C885.249 330.679 892.033 322.213 898.632 313.933C915.883 292.274 934.684 270.245 956.542 250.065C992.154 217.299 1038.05 191.665 1097.32 175.42C1120.43 169.094 1147.03 163.917 1174.38 162.966C1213.44 161.606 1249.4 165.885 1283.55 165.515C1286.24 165.489 1288.95 165.436 1291.63 165.343C1332.36 164.062 1370.38 155.901 1401.85 141.36C1435.35 125.908 1461.54 102.426 1465.08 75.1809" stroke="url(#paint17_linear_599_2077)" stroke-opacity="0.5" stroke-miterlimit="10"/>
<path d="M-44.1497 354.055C-14.0256 336.794 20.9609 322.596 58.749 311.516C75.4898 306.603 92.8788 302.284 111.078 299.247C147.338 293.185 184.988 292.472 221.386 294.875C231.551 295.523 241.623 296.407 251.557 297.464C293.652 302.007 334.635 309.878 373.558 320.378C411.994 330.758 448.231 344.031 485.626 357.185C531.842 373.442 576.6 391.879 626.614 403.963C669.01 414.199 717.403 419.23 761.327 412.627C769.338 411.425 777.188 409.84 784.806 407.833C831.809 395.458 861.609 370.075 885.667 343.173C893.238 334.707 900.254 326.083 907.108 317.657C925.006 295.615 944.78 273.23 967.888 252.772C1005.56 219.544 1053.65 193.342 1115.8 178.009C1138.68 172.369 1164.47 167.998 1190.8 166.875C1228.4 165.264 1263.71 167.998 1297.15 166.136C1299.79 165.991 1302.42 165.819 1305.04 165.608C1344.82 162.53 1381.08 152.48 1409.95 136.777C1440.7 120.071 1463.14 96.3513 1464.67 69.9246" stroke="url(#paint18_linear_599_2077)" stroke-opacity="0.5" stroke-miterlimit="10"/>
<path d="M-38.8939 364.251C-9.55714 347.372 24.7579 333.651 61.9209 323.125C78.3838 318.463 95.4718 314.408 113.208 311.437C148.565 305.507 185.311 304.015 221.178 305.48C231.227 305.877 241.183 306.497 251.07 307.29C292.864 310.697 333.778 317.459 372.863 326.849C411.462 336.133 448.162 348.204 484.908 360.817C532.421 377.127 577.781 396.132 628.744 408.652C671.904 419.244 721.315 424.592 766.189 418.002C774.386 416.8 782.397 415.202 790.2 413.182C838.292 400.675 868.625 374.776 893.377 347.346C901.157 338.722 908.404 329.939 915.489 321.368C934.036 298.943 954.806 276.188 979.164 255.466C1018.87 221.763 1069.17 194.861 1134.18 180.584C1156.85 175.605 1181.81 172.052 1207.12 170.758C1243.26 168.909 1277.93 170.085 1310.62 166.73C1313.19 166.466 1315.78 166.175 1318.36 165.845C1357.21 160.972 1391.69 149.046 1417.97 132.168C1445.94 114.22 1464.67 90.263 1464.16 64.6418" stroke="url(#paint19_linear_599_2077)" stroke-opacity="0.5" stroke-miterlimit="10"/>
<path d="M-33.6377 374.446C-5.08817 357.964 28.5554 344.705 65.0932 334.747C81.2782 330.336 98.0421 326.545 115.339 323.64C149.769 317.842 185.612 315.57 220.993 316.112C230.903 316.257 240.79 316.601 250.607 317.142C292.1 319.427 332.945 325.066 372.215 333.347C410.975 341.522 448.138 352.391 484.236 364.475C533.069 380.825 579.008 400.411 630.92 413.353C674.844 424.302 725.298 429.954 771.121 423.404C779.48 422.202 787.7 420.604 795.665 418.557C844.845 405.918 875.733 379.491 901.18 351.532C909.168 342.75 916.647 333.809 923.964 325.079C943.159 302.271 964.924 279.146 990.533 258.161C1032.28 223.995 1084.77 196.26 1152.68 183.173C1175.19 178.841 1199.29 176.12 1223.56 174.654C1258.25 172.554 1292.26 172.185 1324.24 167.338C1326.76 166.955 1329.28 166.545 1331.78 166.109C1369.69 159.44 1402.41 145.639 1426.09 127.585C1451.29 108.396 1466.29 84.1878 1463.77 59.3723" stroke="url(#paint20_linear_599_2077)" stroke-opacity="0.5" stroke-miterlimit="10"/>
<path d="M-28.3577 384.655C36.1277 347.254 128.862 327.774 220.808 326.73C312.755 325.7 403.706 342.09 483.543 368.134C533.718 384.497 580.213 404.703 633.051 418.068C685.89 431.434 748.268 437.35 801.06 423.932C867.143 407.146 900.648 365.888 932.347 328.817C984.514 267.841 1056.85 204.766 1171.07 185.774C1227.96 176.318 1290.13 178.96 1345.1 166.374C1421.35 148.928 1472.08 100.71 1463.23 54.1294" stroke="url(#paint21_linear_599_2077)" stroke-opacity="0.5" stroke-miterlimit="10"/>
</g>
</g>
</g>
<defs>
<linearGradient id="paint0_linear_599_2077" x1="667.077" y1="77.1125" x2="667.077" y2="321.678" gradientUnits="userSpaceOnUse">
<stop stop-color="#6B6B6B"/>
<stop offset="1" stop-color="white"/>
</linearGradient>
<linearGradient id="paint1_linear_599_2077" x1="669.484" y1="89.2827" x2="669.484" y2="326.789" gradientUnits="userSpaceOnUse">
<stop stop-color="#6B6B6B"/>
<stop offset="1" stop-color="white"/>
</linearGradient>
<linearGradient id="paint2_linear_599_2077" x1="671.846" y1="101.436" x2="671.846" y2="331.895" gradientUnits="userSpaceOnUse">
<stop stop-color="#6B6B6B"/>
<stop offset="1" stop-color="white"/>
</linearGradient>
<linearGradient id="paint3_linear_599_2077" x1="674.266" y1="108.218" x2="674.266" y2="337.024" gradientUnits="userSpaceOnUse">
<stop stop-color="#6B6B6B"/>
<stop offset="1" stop-color="white"/>
</linearGradient>
<linearGradient id="paint4_linear_599_2077" x1="676.685" y1="112.137" x2="676.685" y2="342.187" gradientUnits="userSpaceOnUse">
<stop stop-color="#6B6B6B"/>
<stop offset="1" stop-color="white"/>
</linearGradient>
<linearGradient id="paint5_linear_599_2077" x1="679.07" y1="116.052" x2="679.07" y2="347.363" gradientUnits="userSpaceOnUse">
<stop stop-color="#6B6B6B"/>
<stop offset="1" stop-color="white"/>
</linearGradient>
<linearGradient id="paint6_linear_599_2077" x1="681.478" y1="119.979" x2="681.478" y2="352.561" gradientUnits="userSpaceOnUse">
<stop stop-color="#6B6B6B"/>
<stop offset="1" stop-color="white"/>
</linearGradient>
<linearGradient id="paint7_linear_599_2077" x1="683.863" y1="123.889" x2="683.863" y2="357.752" gradientUnits="userSpaceOnUse">
<stop stop-color="#6B6B6B"/>
<stop offset="1" stop-color="white"/>
</linearGradient>
<linearGradient id="paint8_linear_599_2077" x1="686.295" y1="122.58" x2="686.295" y2="362.986" gradientUnits="userSpaceOnUse">
<stop stop-color="#6B6B6B"/>
<stop offset="1" stop-color="white"/>
</linearGradient>
<linearGradient id="paint9_linear_599_2077" x1="688.657" y1="117.311" x2="688.657" y2="368.199" gradientUnits="userSpaceOnUse">
<stop stop-color="#6B6B6B"/>
<stop offset="1" stop-color="white"/>
</linearGradient>
<linearGradient id="paint10_linear_599_2077" x1="691.065" y1="112.015" x2="691.065" y2="373.419" gradientUnits="userSpaceOnUse">
<stop stop-color="#6B6B6B"/>
<stop offset="1" stop-color="white"/>
</linearGradient>
<linearGradient id="paint11_linear_599_2077" x1="693.473" y1="106.772" x2="693.473" y2="378.678" gradientUnits="userSpaceOnUse">
<stop stop-color="#6B6B6B"/>
<stop offset="1" stop-color="white"/>
</linearGradient>
<linearGradient id="paint12_linear_599_2077" x1="695.88" y1="101.515" x2="695.88" y2="383.929" gradientUnits="userSpaceOnUse">
<stop stop-color="#6B6B6B"/>
<stop offset="1" stop-color="white"/>
</linearGradient>
<linearGradient id="paint13_linear_599_2077" x1="698.289" y1="96.2456" x2="698.289" y2="389.191" gradientUnits="userSpaceOnUse">
<stop stop-color="#6B6B6B"/>
<stop offset="1" stop-color="white"/>
</linearGradient>
<linearGradient id="paint14_linear_599_2077" x1="700.674" y1="90.9761" x2="700.674" y2="394.441" gradientUnits="userSpaceOnUse">
<stop stop-color="#6B6B6B"/>
<stop offset="1" stop-color="white"/>
</linearGradient>
<linearGradient id="paint15_linear_599_2077" x1="703.024" y1="85.7197" x2="703.024" y2="399.721" gradientUnits="userSpaceOnUse">
<stop stop-color="#6B6B6B"/>
<stop offset="1" stop-color="white"/>
</linearGradient>
<linearGradient id="paint16_linear_599_2077" x1="705.444" y1="80.4502" x2="705.444" y2="405.011" gradientUnits="userSpaceOnUse">
<stop stop-color="#6B6B6B"/>
<stop offset="1" stop-color="white"/>
</linearGradient>
<linearGradient id="paint17_linear_599_2077" x1="707.839" y1="75.1809" x2="707.839" y2="410.316" gradientUnits="userSpaceOnUse">
<stop stop-color="#6B6B6B"/>
<stop offset="1" stop-color="white"/>
</linearGradient>
<linearGradient id="paint18_linear_599_2077" x1="710.26" y1="69.9246" x2="710.26" y2="415.605" gradientUnits="userSpaceOnUse">
<stop stop-color="#6B6B6B"/>
<stop offset="1" stop-color="white"/>
</linearGradient>
<linearGradient id="paint19_linear_599_2077" x1="712.638" y1="64.6418" x2="712.638" y2="420.891" gradientUnits="userSpaceOnUse">
<stop stop-color="#6B6B6B"/>
<stop offset="1" stop-color="white"/>
</linearGradient>
<linearGradient id="paint20_linear_599_2077" x1="715.201" y1="59.3723" x2="715.201" y2="426.192" gradientUnits="userSpaceOnUse">
<stop stop-color="#6B6B6B"/>
<stop offset="1" stop-color="white"/>
</linearGradient>
<linearGradient id="paint21_linear_599_2077" x1="717.938" y1="54.1294" x2="717.938" y2="431.515" gradientUnits="userSpaceOnUse">
<stop stop-color="#6B6B6B"/>
<stop offset="1" stop-color="white"/>
</linearGradient>
<clipPath id="clip0_599_2077">
<rect width="1440" height="407.249" fill="white" transform="translate(0.345703)"/>
</clipPath>
</defs>
</svg>
