<svg width="191" height="150" viewBox="0 0 191 150" fill="none" xmlns="http://www.w3.org/2000/svg">
<g id="Group 7">
<g id="phone">
<path id="Vector" d="M10.3494 49.0224C-3.10203 78.9811 9.61475 117.281 36.7749 134.956C52.8791 145.437 72.791 147.188 91.4539 145.28C101.198 144.284 110.792 142.033 120.579 141.418C138.234 140.309 145.004 144.084 155.515 142.986C165.798 141.913 178.856 135.809 184.957 124.886C192.986 110.511 188.172 89.2125 177.937 77.7914C173.067 72.3573 165.974 68.049 159.353 56.4278C157.385 52.9737 155.836 49.9372 155.031 47.5839C151.947 38.5596 153.883 32.5848 147.378 23.296C134.114 4.35884 106.746 1.57537 100.27 0.954277C64.6822 -2.459 25.4785 15.3275 10.3494 49.0224Z" fill="#B0DFC0"/>
<g id="Group">
<g id="Group_2">
<path id="Vector_2" d="M189.736 92.3552C189.582 92.3552 189.442 92.2496 189.404 92.0927C188.183 86.9596 186.151 82.3808 183.364 78.4834C180.977 75.1463 178.828 73.3617 176.34 71.2953C174.001 69.3533 171.35 67.1522 168.019 63.2111C166.034 60.8625 162.712 56.9318 160.171 51.5905C158.683 48.4637 157.691 45.3268 157.139 42.0005C156.657 39.1032 156.572 36.4426 156.497 34.0952C156.43 32.0272 156.368 30.0738 156.047 28.2937C155.218 23.6884 152.462 19.2885 147.856 15.216C141.88 9.93294 132.636 5.03656 120.38 0.662865C120.202 0.599484 120.11 0.404176 120.173 0.226699C120.236 0.0491243 120.432 -0.0433908 120.609 0.0199417C127.081 2.32948 132.768 4.80418 137.512 7.37528C141.807 9.7026 145.439 12.1685 148.308 14.7046C150.854 16.9556 152.866 19.3212 154.286 21.7356C155.504 23.805 156.323 25.9708 156.719 28.1727C157.048 30.0021 157.112 31.9797 157.179 34.0734C157.334 38.9182 157.51 44.4094 160.787 51.2972C163.291 56.5588 166.577 60.4472 168.541 62.7705C171.832 66.6656 174.459 68.8462 176.776 70.7702C179.301 72.8668 181.481 74.6775 183.919 78.0864C186.758 82.056 188.826 86.7153 190.068 91.9348C190.112 92.1182 189.999 92.3022 189.815 92.3458C189.789 92.3521 189.762 92.3552 189.736 92.3552Z" fill="#B0DFC0"/>
</g>
</g>
<g id="Group_3">
<g id="Group_4">
<path id="Vector_3" d="M0.930781 66.6169C0.918553 66.6169 0.906276 66.6163 0.893853 66.615C0.706389 66.5948 0.570808 66.4265 0.590977 66.239C1.79795 55.0209 5.36922 44.7315 11.2057 35.6567C15.8737 28.3987 21.9919 21.8988 29.3904 16.3377C35.9696 11.3925 42.3652 8.12018 46.5719 6.24588C51.1343 4.2131 54.1874 3.33716 54.2177 3.32854C54.3988 3.27695 54.5877 3.38223 54.6393 3.56355C54.6908 3.74488 54.5856 3.93361 54.4043 3.9852C54.3743 3.99373 51.3541 4.86104 46.8283 6.87901C42.6536 8.7404 36.3073 11.9896 29.7809 16.8983C18.2679 25.5573 3.9759 41.1591 1.26971 66.3121C1.2509 66.4871 1.1029 66.6169 0.930781 66.6169Z" fill="#B0DFC0"/>
</g>
</g>
<g id="Group_5">
<g id="Group_6">
<path id="Vector_4" d="M77.4465 150C72.9588 150 68.6644 149.784 64.5741 149.351C53.4425 148.174 43.7889 145.398 35.8814 141.1C32.7699 139.409 29.9243 137.475 27.4238 135.353C25.4212 133.653 23.6339 131.828 22.1116 129.93C19.5103 126.685 18.5945 124.376 18.5567 124.279C18.4882 124.104 18.5751 123.906 18.7507 123.837C18.9263 123.769 19.1241 123.856 19.1927 124.031C19.2017 124.054 20.123 126.368 22.6774 129.544C25.0351 132.475 29.3064 136.76 36.2653 140.532C44.4977 144.993 57.6282 149.288 77.646 149.288C87.5717 149.288 99.1876 148.233 112.746 145.619C112.931 145.583 113.11 145.704 113.145 145.889C113.181 146.075 113.06 146.254 112.875 146.289C100.063 148.76 88.2006 150 77.4465 150Z" fill="#B0DFC0"/>
</g>
</g>
</g>
<g id="decor">
<g id="Group_7">
<path id="Vector_5" d="M63.6453 142.523C63.5311 142.523 63.429 142.443 63.4063 142.326C63.3806 142.194 63.4669 142.066 63.599 142.04C63.6155 142.037 63.6319 142.034 63.6483 142.03C65.057 141.726 66.1955 140.436 66.4815 138.821C66.5049 138.688 66.6314 138.6 66.764 138.623C66.8966 138.647 66.9851 138.773 66.9616 138.906C66.6415 140.714 65.3513 142.161 63.7513 142.507C63.7317 142.511 63.7119 142.515 63.6922 142.519C63.6765 142.522 63.6608 142.523 63.6453 142.523ZM59.8259 140.189C59.7197 140.189 59.622 140.119 59.5915 140.012C59.5193 139.758 59.4827 139.499 59.4827 139.242C59.4827 139.141 59.4883 139.039 59.4995 138.939C59.6427 137.646 60.612 136.533 62.0923 135.963C62.2179 135.914 62.359 135.977 62.4075 136.102C62.456 136.228 62.3934 136.369 62.2677 136.418C60.9605 136.922 60.1069 137.884 59.9841 138.993C59.975 139.075 59.9704 139.159 59.9704 139.242C59.9704 139.454 60.0007 139.668 60.0605 139.878C60.0974 140.008 60.0223 140.143 59.8928 140.18C59.8704 140.186 59.8479 140.189 59.8259 140.189ZM81.1667 139.756C81.1645 139.756 81.1622 139.756 81.16 139.756C79.5303 139.712 77.8871 139.562 76.2761 139.311C76.1431 139.291 76.052 139.166 76.0728 139.033C76.0935 138.9 76.2183 138.809 76.3513 138.83C77.9418 139.077 79.5641 139.225 81.1731 139.268C81.3077 139.272 81.4139 139.384 81.4103 139.518C81.4067 139.651 81.2983 139.756 81.1667 139.756ZM86.0357 139.573C85.9122 139.573 85.8063 139.479 85.7934 139.354C85.7797 139.22 85.8771 139.1 86.0111 139.086C86.6774 139.018 87.3497 138.93 88.0094 138.826C89.0897 138.655 89.976 138.434 90.719 138.151C90.8446 138.103 90.9857 138.166 91.0337 138.292C91.0817 138.418 91.0186 138.558 90.8928 138.606C90.1178 138.902 89.1996 139.132 88.0855 139.308C87.4172 139.413 86.7359 139.502 86.0609 139.571C86.0524 139.572 86.044 139.573 86.0357 139.573ZM97.6713 138.558C97.5432 138.558 97.4358 138.458 97.4281 138.329C97.4201 138.194 97.5226 138.079 97.6571 138.071L102.525 137.782C102.659 137.774 102.775 137.877 102.783 138.011C102.791 138.145 102.688 138.261 102.554 138.269L97.6859 138.557C97.681 138.558 97.6761 138.558 97.6713 138.558ZM92.82 138.381C92.7998 138.381 92.7792 138.378 92.7587 138.373C92.665 138.348 92.5716 138.322 92.4809 138.295C90.7667 137.777 89.4598 136.568 89.0702 135.14C89.0348 135.01 89.1113 134.876 89.2412 134.841C89.3711 134.805 89.5052 134.882 89.5406 135.012C89.9539 136.526 91.4034 137.46 92.622 137.828C92.7065 137.854 92.7937 137.878 92.881 137.901C93.0114 137.935 93.0896 138.068 93.0558 138.198C93.0274 138.308 92.9284 138.381 92.82 138.381ZM71.5572 138.256C71.5347 138.256 71.5117 138.253 71.489 138.247C70.6797 138.011 69.8703 137.745 69.0831 137.457C68.8481 137.371 68.609 137.281 68.3778 137.194C67.8857 137.009 67.3767 136.817 66.8733 136.651C66.7454 136.609 66.676 136.471 66.7182 136.343C66.7604 136.215 66.8982 136.146 67.0261 136.188C67.5391 136.357 68.0528 136.551 68.5497 136.738C68.7798 136.824 69.0178 136.914 69.2508 136.999C70.0277 137.284 70.8267 137.546 71.6254 137.779C71.7546 137.816 71.8289 137.952 71.7913 138.081C71.7602 138.187 71.6629 138.256 71.5572 138.256ZM107.406 137.981C107.278 137.981 107.171 137.881 107.163 137.751C107.155 137.617 107.258 137.501 107.392 137.493L112.26 137.205C112.394 137.197 112.51 137.299 112.518 137.434C112.526 137.568 112.423 137.683 112.289 137.691L107.421 137.98C107.416 137.98 107.411 137.981 107.406 137.981ZM117.142 137.403C117.014 137.403 116.906 137.303 116.899 137.174C116.891 137.039 116.993 136.924 117.128 136.916L121.995 136.627C122.129 136.62 122.245 136.722 122.253 136.856C122.261 136.991 122.159 137.106 122.024 137.114L117.156 137.403C117.152 137.403 117.147 137.403 117.142 137.403ZM126.877 136.826C126.749 136.826 126.642 136.726 126.634 136.596C126.626 136.462 126.728 136.347 126.863 136.339L131.73 136.05C131.864 136.042 131.98 136.144 131.988 136.279C131.996 136.413 131.894 136.529 131.759 136.537L126.892 136.825C126.887 136.826 126.882 136.826 126.877 136.826ZM94.0502 135.298C94.0387 135.298 94.0271 135.297 94.0154 135.295C93.8821 135.276 93.7895 135.153 93.8085 135.019C93.831 134.862 93.8425 134.699 93.8425 134.536C93.8425 133.142 93.018 131.7 91.6416 131.728C91.6398 131.728 91.6379 131.728 91.6361 131.728C91.5039 131.728 91.3954 131.622 91.3924 131.49C91.3894 131.355 91.4962 131.243 91.6307 131.24C91.6475 131.24 91.6641 131.24 91.6807 131.24C93.3391 131.24 94.3301 132.916 94.3301 134.536C94.3301 134.722 94.317 134.908 94.2912 135.088C94.2739 135.21 94.1696 135.298 94.0502 135.298ZM65.1629 134.68C65.0996 134.68 65.0364 134.655 64.9886 134.606C64.48 134.087 63.8644 133.642 63.2084 133.32C62.491 132.969 61.6856 132.723 60.8147 132.589C60.6815 132.569 60.5902 132.445 60.6106 132.312C60.6309 132.178 60.7551 132.087 60.8884 132.107C61.8084 132.248 62.6612 132.509 63.423 132.882C64.1282 133.228 64.7901 133.706 65.3371 134.265C65.4312 134.361 65.4296 134.516 65.3334 134.61C65.286 134.656 65.2244 134.68 65.1629 134.68ZM46.41 134.198C46.4006 134.198 46.3911 134.197 46.3814 134.196C44.8356 134.015 43.2402 133.561 41.6394 132.847C41.5164 132.793 41.4612 132.648 41.5161 132.525C41.5709 132.402 41.7152 132.347 41.8381 132.402C43.3937 133.096 44.9414 133.537 46.4381 133.712C46.5718 133.727 46.6676 133.848 46.652 133.982C46.6374 134.106 46.5321 134.198 46.41 134.198ZM51.2545 133.911C51.141 133.911 51.0394 133.831 51.0158 133.715C50.9889 133.583 51.0741 133.455 51.2061 133.428C51.9645 133.273 52.7345 133.083 53.4792 132.899C54.2887 132.7 55.1258 132.493 55.9583 132.329C56.0905 132.303 56.2186 132.389 56.2447 132.521C56.2706 132.653 56.1846 132.782 56.0525 132.808C55.2313 132.969 54.4 133.174 53.596 133.373C52.8466 133.558 52.0717 133.749 51.3034 133.906C51.287 133.909 51.2706 133.911 51.2545 133.911ZM37.5319 130.418C37.4827 130.418 37.4332 130.403 37.3902 130.372C36.5928 129.802 35.7785 129.16 34.9699 128.465C34.5119 128.071 34.0546 127.661 33.6107 127.245C33.5124 127.153 33.5072 126.999 33.5992 126.901C33.6912 126.803 33.8455 126.797 33.9438 126.889C34.3827 127.3 34.835 127.705 35.2879 128.095C36.0854 128.781 36.8882 129.414 37.674 129.976C37.7835 130.054 37.8088 130.206 37.7304 130.316C37.6828 130.382 37.6079 130.418 37.5319 130.418ZM30.4071 123.791C30.3384 123.791 30.2702 123.762 30.222 123.706C29.1677 122.477 28.1623 121.171 27.2338 119.823C27.1575 119.712 27.1854 119.56 27.2963 119.484C27.4072 119.407 27.559 119.435 27.6354 119.546C28.5542 120.88 29.5489 122.172 30.5921 123.388C30.6798 123.49 30.668 123.644 30.5658 123.732C30.5198 123.771 30.4633 123.791 30.4071 123.791ZM24.8808 115.777C24.7946 115.777 24.711 115.731 24.6667 115.65C23.8878 114.225 23.1715 112.741 22.5376 111.238C22.4853 111.114 22.5434 110.971 22.6675 110.919C22.7916 110.867 22.9345 110.925 22.9869 111.049C23.6144 112.536 24.3235 114.006 25.0945 115.416C25.1591 115.534 25.1157 115.683 24.9975 115.747C24.9604 115.768 24.9204 115.777 24.8808 115.777ZM21.0958 106.807C20.9915 106.807 20.8951 106.74 20.8628 106.635C20.383 105.076 19.9779 103.479 19.659 101.886C19.6325 101.754 19.7181 101.626 19.8501 101.599C19.9824 101.573 20.1106 101.658 20.1371 101.79C20.4528 103.367 20.8538 104.949 21.3288 106.491C21.3684 106.62 21.2962 106.756 21.1676 106.796C21.1437 106.803 21.1195 106.807 21.0958 106.807ZM19.1866 97.2602C19.0623 97.2602 18.9562 97.1657 18.9442 97.0395C18.8053 95.578 18.7349 94.0998 18.7349 92.6456C18.7349 92.4784 18.7358 92.3113 18.7376 92.1442C18.7391 92.0095 18.8486 91.9007 18.9841 91.903C19.1188 91.9045 19.2267 92.0149 19.2252 92.1495C19.2234 92.3149 19.2225 92.4802 19.2225 92.6456C19.2225 94.0844 19.2921 95.5471 19.4296 96.9933C19.4423 97.1273 19.344 97.2463 19.21 97.2591C19.2022 97.2599 19.1944 97.2602 19.1866 97.2602ZM19.3001 87.5273C19.2903 87.5273 19.2804 87.5267 19.2705 87.5256C19.1368 87.5094 19.0416 87.3879 19.0578 87.2542C19.1391 86.5823 19.237 85.9053 19.3488 85.2418C19.3713 85.109 19.4971 85.0199 19.6298 85.0419C19.7626 85.0643 19.8521 85.1901 19.8297 85.3228C19.7191 85.9789 19.6222 86.6484 19.5419 87.3128C19.5269 87.4365 19.4216 87.5273 19.3001 87.5273Z" fill="white"/>
</g>
<g id="Group_8">
<g id="Group_9">
<g id="Group_10">
<g id="Group_11">
<path id="Vector_6" d="M20.3265 81.2133L15.9021 82.209C15.8607 82.2172 15.8301 82.1712 15.8537 82.1362L21.9672 73.5572C21.9907 73.5225 22.0444 73.5332 22.0527 73.5743L24.3984 84.1125C24.4074 84.1569 24.3548 84.1873 24.3209 84.1573L20.367 81.2243C20.3559 81.2145 20.341 81.2104 20.3265 81.2133Z" fill="white"/>
</g>
<g id="Group_12">
<path id="Vector_7" d="M23.3899 83.3922L21.8805 73.6541L24.3208 84.1572L23.3899 83.3922Z" fill="white"/>
</g>
</g>
</g>
</g>
<g id="Group_13">
<g id="Group_14">
<path id="Vector_8" d="M145.249 56.7374V55.5269C144.643 55.4506 144.151 55.3151 143.772 55.1201C143.394 54.925 143.066 54.6101 142.791 54.1752C142.515 53.7404 142.355 53.2092 142.31 52.5814L143.527 52.3528C143.621 53.0029 143.787 53.4804 144.025 53.7852C144.365 54.2156 144.773 54.4555 145.249 54.5048V50.6514C144.751 50.5573 144.242 50.3646 143.722 50.0731C143.336 49.8579 143.039 49.5598 142.831 49.1787C142.623 48.7977 142.518 48.365 142.518 47.8808C142.518 47.02 142.823 46.323 143.433 45.7894C143.841 45.4308 144.446 45.211 145.249 45.1303V44.552H145.961V45.1303C146.665 45.1976 147.223 45.4039 147.636 45.749C148.165 46.1885 148.483 46.7914 148.591 47.558L147.34 47.7463C147.268 47.2712 147.119 46.9068 146.893 46.6535C146.666 46.4003 146.356 46.2332 145.961 46.1525V49.6427C146.571 49.7952 146.975 49.914 147.172 49.9991C147.548 50.1651 147.855 50.3668 148.093 50.6044C148.331 50.8421 148.513 51.1245 148.641 51.4517C148.769 51.7791 148.833 52.1333 148.833 52.5143C148.833 53.3527 148.566 54.0521 148.033 54.6124C147.499 55.1729 146.809 55.4732 145.961 55.5135V56.7375H145.249V56.7374ZM145.249 46.139C144.778 46.2107 144.407 46.399 144.136 46.7038C143.864 47.0088 143.729 47.3696 143.729 47.7865C143.729 48.1991 143.844 48.5442 144.075 48.8222C144.306 49.1002 144.697 49.3222 145.249 49.4879L145.249 46.139ZM145.961 54.5047C146.432 54.4465 146.821 54.2424 147.128 53.8927C147.435 53.543 147.589 53.1105 147.589 52.5948C147.589 52.1555 147.48 51.8024 147.263 51.5357C147.045 51.269 146.611 51.0303 145.961 50.8195L145.961 54.5047Z" fill="white"/>
</g>
</g>
<g id="Group_15">
<path id="Vector_9" d="M75.9834 21.4547C79.9463 21.4547 83.1588 18.2422 83.1588 14.2793C83.1588 10.3165 79.9463 7.104 75.9834 7.104C72.0206 7.104 68.8081 10.3165 68.8081 14.2793C68.8081 18.2422 72.0206 21.4547 75.9834 21.4547Z" fill="white"/>
<g id="Group_16">
<path id="Vector_10" d="M76.1726 17.3103L81.0597 12.04L80.0749 11.1267L75.2582 16.321L71.8545 12.6387L70.8696 13.552L74.3422 17.3088L75.1821 18.2175L75.2509 18.292L75.2566 18.2866L75.2624 18.292L75.3327 18.2161L76.1726 17.3103Z" fill="#55BB78"/>
</g>
</g>
<g id="Group_17">
<path id="Vector_11" d="M179.348 117.956C181.898 115.406 181.898 111.272 179.348 108.722C176.799 106.172 172.665 106.172 170.115 108.722C167.565 111.272 167.565 115.406 170.115 117.956C172.664 120.505 176.799 120.505 179.348 117.956Z" fill="white"/>
<g id="Group_18">
<path id="Vector_12" d="M174.906 116.097L179.353 111.301L178.457 110.47L174.074 115.197L170.977 111.846L170.08 112.677L173.24 116.095L174.004 116.922L174.067 116.99L174.072 116.985L174.077 116.99L174.142 116.921L174.906 116.097Z" fill="#55BB78"/>
</g>
</g>
<g id="Group_19">
<path id="Vector_13" d="M156.572 66.3797C156.394 66.6253 156.449 66.9686 156.695 67.1462C156.941 67.3239 157.284 67.2688 157.462 67.0231C157.639 66.7774 157.584 66.4342 157.339 66.2566C157.093 66.0788 156.75 66.134 156.572 66.3797Z" fill="white"/>
<path id="Vector_14" d="M151.487 63.1801C151.786 63.132 151.99 62.8503 151.942 62.551C151.893 62.2516 151.612 62.0479 151.312 62.096C151.013 62.1441 150.809 62.4258 150.857 62.7251C150.906 63.0245 151.187 63.2282 151.487 63.1801Z" fill="white"/>
<g id="Group_20">
<path id="Vector_15" d="M153.029 66.8889C153.332 66.8741 153.565 66.6166 153.55 66.3137C153.535 66.0109 153.278 65.7774 152.975 65.7922C152.672 65.8071 152.439 66.0646 152.454 66.3674C152.468 66.6703 152.726 66.9037 153.029 66.8889Z" fill="white"/>
<path id="Vector_16" d="M155.452 63.5388C155.755 63.524 155.988 63.2665 155.973 62.9636C155.958 62.6608 155.701 62.4273 155.398 62.4421C155.095 62.457 154.862 62.7145 154.877 63.0173C154.891 63.3202 155.149 63.5536 155.452 63.5388Z" fill="white"/>
</g>
</g>
<g id="Group_21">
<path id="Vector_17" d="M94.977 12.5238C95.2764 12.4757 95.4801 12.1941 95.432 11.8947C95.3839 11.5954 95.1022 11.3917 94.8029 11.4398C94.5035 11.4879 94.2998 11.7695 94.3479 12.0689C94.396 12.3682 94.6777 12.5719 94.977 12.5238Z" fill="white"/>
<path id="Vector_18" d="M89.826 7.98085C89.8557 7.6791 89.6351 7.41047 89.3333 7.38085C89.0316 7.35122 88.7629 7.57183 88.7333 7.87357C88.7037 8.17532 88.9243 8.44394 89.226 8.47356C89.5278 8.50318 89.7964 8.28259 89.826 7.98085Z" fill="white"/>
<g id="Group_22">
<path id="Vector_19" d="M90.9604 12.1703C91.2598 12.1222 91.4635 11.8406 91.4154 11.5412C91.3673 11.2419 91.0856 11.0382 90.7863 11.0863C90.4869 11.1344 90.2832 11.416 90.3313 11.7154C90.3794 12.0147 90.6611 12.2184 90.9604 12.1703Z" fill="white"/>
<path id="Vector_20" d="M92.8559 7.95876C92.6782 8.20444 92.7333 8.54761 92.979 8.72533C93.2247 8.903 93.5678 8.8479 93.7456 8.60222C93.9232 8.35654 93.8681 8.01337 93.6225 7.83565C93.3768 7.65793 93.0336 7.71308 92.8559 7.95876Z" fill="white"/>
</g>
</g>
<g id="Group_23">
<path id="Vector_21" d="M175.436 99.6374C175.189 99.4622 174.846 99.5207 174.671 99.7681C174.496 100.016 174.554 100.358 174.802 100.533C175.049 100.709 175.392 100.65 175.567 100.403C175.742 100.155 175.684 99.8126 175.436 99.6374Z" fill="white"/>
<path id="Vector_22" d="M179.528 94.7883C179.727 94.5592 179.702 94.2124 179.473 94.0138C179.244 93.8152 178.897 93.84 178.699 94.0691C178.5 94.2982 178.525 94.6449 178.754 94.8435C178.983 95.0421 179.33 95.0174 179.528 94.7883Z" fill="white"/>
<g id="Group_24">
<path id="Vector_23" d="M175.75 95.6174C175.503 95.4421 175.16 95.5007 174.985 95.7481C174.81 95.9955 174.868 96.3382 175.116 96.5134C175.363 96.6886 175.706 96.6301 175.881 96.3827C176.056 96.1352 175.998 95.7926 175.75 95.6174Z" fill="white"/>
<path id="Vector_24" d="M179.124 98.0073C178.877 97.832 178.534 97.8906 178.359 98.138C178.184 98.3854 178.242 98.7281 178.49 98.9033C178.737 99.0785 179.08 99.02 179.255 98.7726C179.43 98.5251 179.372 98.1825 179.124 98.0073Z" fill="white"/>
</g>
</g>
<g id="Group_25">
<path id="Vector_25" d="M11.3194 73.8015C11.3602 73.5011 11.1498 73.2244 10.8494 73.1835C10.5489 73.1426 10.2722 73.3531 10.2314 73.6535C10.1905 73.954 10.4009 74.2306 10.7013 74.2715C11.0018 74.3124 11.2785 74.102 11.3194 73.8015Z" fill="white"/>
<path id="Vector_26" d="M15.1103 68.5098C15.35 68.3241 15.3937 67.9792 15.208 67.7396C15.0222 67.4999 14.6774 67.4562 14.4377 67.642C14.1981 67.8277 14.1544 68.1725 14.3401 68.4122C14.5258 68.6518 14.8707 68.6956 15.1103 68.5098Z" fill="white"/>
<g id="Group_26">
<path id="Vector_27" d="M11.4036 69.2565C11.1561 69.0813 10.8135 69.1398 10.6383 69.3873C10.463 69.6347 10.5215 69.9773 10.769 70.1526C11.0164 70.3278 11.359 70.2693 11.5343 70.0218C11.7095 69.7744 11.651 69.4318 11.4036 69.2565Z" fill="white"/>
<path id="Vector_28" d="M14.6764 72.6006C14.9545 72.4799 15.0821 72.1565 14.9614 71.8784C14.8407 71.6003 14.5173 71.4727 14.2392 71.5934C13.9611 71.7141 13.8335 72.0375 13.9542 72.3156C14.0749 72.5937 14.3983 72.7213 14.6764 72.6006Z" fill="white"/>
</g>
</g>
<g id="Group_27">
<path id="Vector_29" d="M30.844 33.5963C30.769 33.5963 30.694 33.5766 30.6256 33.5372C30.4889 33.4582 30.4072 33.3168 30.4072 33.1589V29.6528C30.4072 29.4949 30.4889 29.3535 30.6256 29.2745C30.7624 29.1956 30.9257 29.1956 31.0624 29.2745L34.0988 31.0276C34.2355 31.1065 34.3171 31.2479 34.3171 31.4058C34.3172 31.5637 34.2355 31.7051 34.0988 31.7841L31.0624 33.5371C30.994 33.5766 30.919 33.5963 30.844 33.5963ZM30.8944 29.7401V33.0716L33.7795 31.4058L30.8944 29.7401Z" fill="white"/>
</g>
<g id="Group_28">
<path id="Vector_30" d="M172.438 130.811C172.363 130.811 172.288 130.792 172.22 130.752C172.083 130.673 172.002 130.532 172.002 130.374V126.868C172.002 126.71 172.083 126.569 172.22 126.49C172.357 126.411 172.52 126.411 172.657 126.49L175.693 128.243C175.83 128.322 175.911 128.463 175.911 128.621C175.911 128.779 175.83 128.92 175.693 128.999L172.657 130.752C172.588 130.792 172.513 130.811 172.438 130.811ZM172.489 126.955V130.287L175.374 128.621L172.489 126.955Z" fill="white"/>
</g>
</g>
<g id="clock">
<g id="Group_29">
<path id="Vector_31" d="M58.9751 124.971C56.2371 122.233 56.2371 117.794 58.9751 115.056L64.5356 109.495C67.2736 106.757 71.7128 106.757 74.4508 109.495C77.1887 112.233 77.1887 116.673 74.4508 119.411L68.8903 124.971C66.1523 127.709 61.7131 127.709 58.9751 124.971Z" fill="#55BB78"/>
<path id="Vector_32" d="M74.9552 110.049C72.2013 107.791 68.1292 107.947 65.5581 110.518L59.997 116.079C57.4268 118.65 57.2697 122.72 59.5259 125.474C59.3483 125.329 59.1758 125.173 59.0101 125.007C56.2725 122.269 56.2725 117.83 59.0101 115.093L64.5712 109.531C67.3088 106.794 71.7481 106.794 74.4858 109.531C74.6522 109.698 74.8084 109.871 74.9552 110.049Z" fill="white"/>
<g id="Group_30">
<path id="Vector_33" d="M63.9326 127.265C62.0749 127.265 60.2171 126.558 58.8028 125.143C57.4326 123.773 56.678 121.951 56.678 120.013C56.678 118.076 57.4326 116.254 58.8028 114.884L64.3633 109.323C65.7336 107.953 67.5553 107.198 69.4931 107.198C71.4309 107.198 73.2527 107.953 74.6229 109.323C75.9932 110.693 76.7478 112.515 76.7478 114.453C76.7478 116.391 75.9932 118.212 74.6229 119.583L69.0625 125.143C67.6481 126.558 65.7904 127.265 63.9326 127.265ZM69.4931 107.685C67.6854 107.685 65.986 108.389 64.7078 109.668L59.1473 115.228C57.8691 116.506 57.1651 118.206 57.1651 120.013C57.1651 121.821 57.8691 123.521 59.1473 124.799C61.7859 127.437 66.0793 127.437 68.7179 124.799L74.2784 119.238C75.5566 117.96 76.2606 116.261 76.2606 114.453C76.2606 112.645 75.5566 110.946 74.2784 109.668C73.0002 108.389 71.3007 107.685 69.4931 107.685Z" fill="#016D26"/>
</g>
<path id="Vector_34" d="M121.432 125.037C118.694 127.775 114.255 127.775 111.517 125.037L105.956 119.476C103.218 116.738 103.218 112.299 105.956 109.561C108.694 106.823 113.133 106.823 115.871 109.561L121.432 115.122C124.17 117.86 124.17 122.299 121.432 125.037Z" fill="#55BB78"/>
<g id="Group_31">
<path id="Vector_35" d="M116.474 127.33C114.616 127.33 112.759 126.623 111.345 125.209L105.784 119.648C104.414 118.278 103.659 116.456 103.659 114.519C103.659 112.581 104.414 110.759 105.784 109.389C107.154 108.018 108.976 107.264 110.914 107.264C112.852 107.264 114.674 108.018 116.044 109.389L121.604 114.949C124.433 117.778 124.433 122.38 121.604 125.209C120.19 126.623 118.332 127.33 116.474 127.33ZM110.914 107.751C109.106 107.751 107.407 108.455 106.129 109.733C104.85 111.011 104.146 112.711 104.146 114.519C104.146 116.326 104.85 118.026 106.129 119.304L111.689 124.864C114.328 127.503 118.621 127.503 121.26 124.864C123.898 122.226 123.898 117.932 121.26 115.294L115.699 109.733C114.421 108.455 112.722 107.751 110.914 107.751Z" fill="#016D26"/>
</g>
<path id="Vector_36" d="M57.4805 34.8282L50.7045 41.6042L57.4805 48.3803L64.2566 41.6042L57.4805 34.8282Z" fill="#019935"/>
<path id="Vector_37" d="M127.122 39.9982L120.346 33.2222L113.57 39.9982L120.346 46.7743L127.122 39.9982Z" fill="#019935"/>
<path id="Vector_38" d="M88.9664 125.565C115.224 125.565 136.51 104.28 136.51 78.0221C136.51 51.7646 115.224 30.4788 88.9664 30.4788C62.709 30.4788 41.4231 51.7646 41.4231 78.0221C41.4231 104.28 62.709 125.565 88.9664 125.565Z" fill="#019935"/>
<path id="Vector_39" d="M88.9664 118.305C111.214 118.305 129.249 100.27 129.249 78.0222C129.249 55.7747 111.214 37.7395 88.9664 37.7395C66.7189 37.7395 48.6837 55.7747 48.6837 78.0222C48.6837 100.27 66.7189 118.305 88.9664 118.305Z" fill="white"/>
<path id="Vector_40" d="M124.748 46.9645C116.107 38.0419 103.998 32.4955 90.5953 32.4955C64.3375 32.4955 43.052 53.781 43.052 80.0389C43.052 91.9101 47.403 102.765 54.5972 111.096C46.308 102.54 41.2069 90.8769 41.2069 78.0221C41.2069 51.7643 62.4924 30.4788 88.7502 30.4788C103.137 30.4788 116.03 36.8679 124.748 46.9645Z" fill="white"/>
<path id="Vector_41" d="M88.9663 53.8072C88.249 53.8072 87.6675 53.2258 87.6675 52.5084V42.9026C87.6675 42.1853 88.249 41.6038 88.9663 41.6038C89.6837 41.6038 90.2652 42.1853 90.2652 42.9026V52.5084C90.2651 53.2258 89.6837 53.8072 88.9663 53.8072Z" fill="#019935"/>
<path id="Vector_42" d="M88.9663 115.298C88.249 115.298 87.6675 114.717 87.6675 114V104.394C87.6675 103.677 88.249 103.095 88.9663 103.095C89.6837 103.095 90.2652 103.676 90.2652 104.394V114C90.2651 114.717 89.6837 115.298 88.9663 115.298Z" fill="#019935"/>
<path id="Vector_43" d="M113.181 76.7232C113.181 76.0058 113.763 75.4243 114.48 75.4243H124.086C124.803 75.4243 125.385 76.0058 125.385 76.7232C125.385 77.4405 124.803 78.022 124.086 78.022H114.48C113.763 78.022 113.181 77.4405 113.181 76.7232Z" fill="#019935"/>
<path id="Vector_44" d="M52.5483 76.7232C52.5483 76.0058 53.1298 75.4243 53.8472 75.4243H63.453C64.1703 75.4243 64.7518 76.0058 64.7518 76.7232C64.7518 77.4405 64.1703 78.022 63.453 78.022H53.8472C53.1298 78.022 52.5483 77.4405 52.5483 76.7232Z" fill="#019935"/>
<g id="Group_32">
<path id="Vector_45" d="M88.5973 78.2441C87.7129 78.9952 86.387 78.8871 85.6359 78.0027L68.0277 57.2684C67.2766 56.3839 67.3847 55.0581 68.2691 54.307C69.1536 53.5559 70.4794 53.6639 71.2305 54.5484L88.8388 75.2827C89.5899 76.1672 89.4817 77.493 88.5973 78.2441Z" fill="#55BB78"/>
<path id="Vector_46" d="M72.3123 55.7717C71.897 55.2825 71.3057 55.0311 70.711 55.0311C70.2296 55.0311 69.7464 55.195 69.3508 55.5306C68.4668 56.2815 68.3587 57.6065 69.1087 58.4913L68.0703 57.2684C67.3194 56.3836 67.4275 55.0577 68.3124 54.3068C68.7071 53.9713 69.1903 53.8074 69.6708 53.8074C70.2664 53.8074 70.8577 54.0588 71.2731 54.548L72.3123 55.7717Z" fill="white"/>
<g id="Group_33">
<path id="Vector_47" d="M87.2393 78.9862C86.5744 78.9862 85.9135 78.7057 85.4504 78.1604L67.8422 57.4261C67.4368 56.9488 67.2416 56.3421 67.2925 55.7179C67.3434 55.0938 67.6343 54.5267 68.1117 54.1214C69.0971 53.2845 70.5796 53.4055 71.4164 54.3908L89.0246 75.1251C89.8615 76.1105 89.7405 77.593 88.7552 78.4298C88.3151 78.8035 87.7759 78.9862 87.2393 78.9862ZM69.6262 54.0509C69.1867 54.0509 68.7657 54.205 68.427 54.4926C68.0488 54.8138 67.8183 55.263 67.778 55.7575C67.7377 56.252 67.8924 56.7326 68.2135 57.1107L85.8218 77.845C86.4848 78.6256 87.6592 78.7214 88.4398 78.0585C89.2205 77.3956 89.3163 76.2211 88.6533 75.4404L71.045 54.7061C70.7239 54.328 70.2747 54.0975 69.7802 54.0572C69.7287 54.053 69.6773 54.0509 69.6262 54.0509Z" fill="#016D26"/>
</g>
</g>
<g id="Group_34">
<path id="Vector_48" d="M91.0618 76.3238C91.6704 77.3118 91.3629 78.606 90.3749 79.2146L67.2142 93.4813C66.2262 94.0899 64.932 93.7824 64.3234 92.7944C63.7149 91.8065 64.0224 90.5122 65.0103 89.9037L88.1711 75.6369C89.159 75.0283 90.4533 75.3359 91.0618 76.3238Z" fill="white"/>
<g id="Group_35">
<path id="Vector_49" d="M66.116 94.0366C65.3284 94.0366 64.5585 93.6406 64.1159 92.9222C63.4379 91.8215 63.7818 90.3744 64.8825 89.6963L88.0433 75.4295C89.1439 74.7515 90.5911 75.0954 91.2691 76.1961C91.5976 76.7293 91.6987 77.3585 91.5539 77.9678C91.4091 78.5771 91.0357 79.0935 90.5025 79.422L67.3418 93.6888C66.9595 93.9243 66.5352 94.0366 66.116 94.0366ZM89.2699 75.5689C88.9378 75.5689 88.6017 75.6578 88.2988 75.8444L65.138 90.1111C64.266 90.6483 63.9936 91.7947 64.5307 92.6667C65.0679 93.5388 66.2143 93.8111 67.0863 93.274L90.2471 79.0072C91.1191 78.4701 91.3915 77.3237 90.8544 76.4516C90.5039 75.8826 89.8937 75.5689 89.2699 75.5689Z" fill="#016D26"/>
</g>
</g>
<g id="Group_36">
<path id="Vector_50" d="M93.5875 82.6444C96.1404 80.0915 96.1404 75.9524 93.5875 73.3995C91.0346 70.8466 86.8956 70.8466 84.3427 73.3995C81.7898 75.9524 81.7897 80.0915 84.3427 82.6444C86.8956 85.1973 91.0346 85.1973 93.5875 82.6444Z" fill="#019935"/>
<path id="Vector_51" d="M83.6882 78.823C83.6882 80.8757 84.6339 82.7071 86.1143 83.9051C83.9328 82.8461 82.4292 80.6088 82.4292 78.0214C82.4292 74.411 85.3565 71.4846 88.9669 71.4846C90.5245 71.4846 91.955 72.0296 93.0775 72.9392C92.215 72.5204 91.247 72.2853 90.2249 72.2853C86.6146 72.2853 83.6882 75.2126 83.6882 78.823Z" fill="white"/>
<g id="Group_37">
<path id="Vector_52" d="M88.9664 84.8028C85.2275 84.8028 82.1857 81.761 82.1857 78.022C82.1857 74.283 85.2275 71.2412 88.9664 71.2412C92.7053 71.2412 95.7472 74.283 95.7472 78.022C95.7472 81.761 92.7053 84.8028 88.9664 84.8028ZM88.9664 71.7284C85.4961 71.7284 82.6728 74.5517 82.6728 78.022C82.6728 81.4923 85.4961 84.3157 88.9664 84.3157C92.4367 84.3157 95.26 81.4924 95.26 78.022C95.26 74.5517 92.4367 71.7284 88.9664 71.7284Z" fill="#016D26"/>
</g>
</g>
<g id="Group_38">
<path id="Vector_53" d="M139.646 38.0937C139.646 44.2211 136.543 49.6243 131.822 52.8159C125.915 42.8163 116.664 35.0266 105.608 30.9854C108.349 24.7155 114.606 20.3345 121.887 20.3345C131.695 20.3345 139.646 28.2856 139.646 38.0937Z" fill="#55BB78"/>
<path id="Vector_54" d="M135.402 26.5482C132.21 23.4819 127.875 21.5974 123.1 21.5974C116.093 21.5974 110.034 25.6557 107.145 31.5514C106.636 31.3463 106.124 31.1498 105.608 30.961C108.349 24.6911 114.606 20.3101 121.887 20.3101C127.299 20.3101 132.145 22.731 135.402 26.5482Z" fill="white"/>
</g>
<g id="Group_39">
<path id="Vector_55" d="M72.1717 31.1409C61.1244 35.2919 51.9143 43.1957 46.095 53.3008C46.0401 53.2639 45.9851 53.2262 45.9302 53.1884C41.3106 49.9814 38.2864 44.6384 38.2864 38.589C38.2864 28.7809 46.2374 20.8298 56.0456 20.8298C63.1651 20.8298 69.3071 25.0195 72.1382 31.068C72.1494 31.0919 72.1614 31.1168 72.1717 31.1409Z" fill="#55BB78"/>
<path id="Vector_56" d="M39.8225 39.7476C39.8225 45.1773 42.2589 50.038 46.0984 53.2948C46.0976 53.2966 46.0959 53.2991 46.095 53.3008C46.0401 53.2639 45.9852 53.2262 45.9303 53.1884C41.3106 49.9814 38.2864 44.6384 38.2864 38.589C38.2864 28.7809 46.2374 20.8298 56.0456 20.8298C60.4017 20.8298 64.3914 22.3986 67.4817 25.0014C64.6532 23.0988 61.247 21.9884 57.5817 21.9884C47.7736 21.9883 39.8225 29.9394 39.8225 39.7476Z" fill="white"/>
</g>
</g>
<g id="Group_40">
<g id="Group_41">
<path id="Vector_57" d="M137.711 103.339C137.678 103.339 137.644 103.332 137.612 103.318C137.489 103.263 137.434 103.119 137.489 102.996C141.635 93.657 142.764 86.0248 142.98 81.2668C143.215 76.1122 142.46 73.1271 142.453 73.0975C142.419 72.9674 142.497 72.8344 142.627 72.8007C142.758 72.7667 142.891 72.845 142.924 72.9751C142.956 73.0979 143.703 76.0426 143.468 81.2626C143.331 84.3216 142.88 87.5261 142.129 90.7872C141.192 94.8609 139.78 99.0351 137.934 103.194C137.893 103.285 137.804 103.339 137.711 103.339Z" fill="#016D26"/>
</g>
</g>
<g id="Group_42">
<path id="Vector_58" d="M143.618 127.539H46.0536C45.9191 127.539 45.8101 127.43 45.8101 127.296C45.8101 127.161 45.9191 127.052 46.0536 127.052H143.618C143.753 127.052 143.862 127.161 143.862 127.296C143.862 127.43 143.753 127.539 143.618 127.539Z" fill="#016D26"/>
</g>
</g>
<g id="person">
<g id="character_51_">
<path id="Vector_59" d="M165.016 128.258L166.618 138.325H166.247L159.636 138.221L157.327 129.529L165.016 128.258Z" fill="white"/>
<path id="Vector_60" d="M148.364 93.7932C148.364 93.7932 152.028 94.804 153.509 95.6388C154.99 96.4735 157.211 98.481 158.158 100.228C159.105 101.974 160.142 104.47 160.596 106.232C161.051 107.994 162.601 114.63 162.601 114.63L165.433 128.194L156.66 129.529L155.196 121.977L154.209 119.455L154.083 126.067L134.263 126.241L131.969 126.107C131.969 126.107 131.558 119.489 131.394 118.26C131.231 117.03 130.784 114.345 130.637 113.398C130.49 112.45 130.291 110.164 130.291 110.164L130.141 109.393C130.141 109.393 128.909 110.484 124.994 111.112C121.079 111.74 119.49 111.995 118.268 111.863C117.045 111.732 116.314 111.434 115.91 110.727C115.505 110.021 114.044 106.501 113.817 105.435C113.59 104.37 113.231 101.85 113.231 101.85L121.507 99.9553L121.734 101.739C121.734 101.739 125.779 99.3284 127.012 98.7002C128.246 98.072 130.457 96.6929 131.424 96.2094C132.392 95.7259 136.572 93.9582 138.592 94.1094C140.407 95.7588 140.422 95.9375 142.415 95.9375C144.407 95.9375 145.238 95.7459 146.541 95.1201C147.843 94.4942 148.364 93.7932 148.364 93.7932Z" fill="#55BB78"/>
<g id="Group_43">
<path id="Vector_61" d="M132.744 96.2263C131.776 96.7097 129.306 98.1787 128.146 98.934C126.394 100.075 121.834 102.432 121.834 102.432L121.753 101.719C122.135 101.492 125.905 99.502 127.074 98.9065C128.307 98.2783 130.442 96.693 131.41 96.2095C132.378 95.726 136.558 93.9583 138.578 94.1095C138.603 94.132 138.853 94.3796 138.877 94.4016C136.286 94.6181 133.554 95.8216 132.744 96.2263Z" fill="white"/>
<path id="Vector_62" d="M153.32 113.792C154.202 116.083 156.083 122.39 156.083 122.39L157.526 129.413L156.779 129.529L155.304 122.768L152.323 111.779C152.323 111.779 152.894 112.686 153.32 113.792Z" fill="white"/>
<path id="Vector_63" d="M113.962 101.705C114.855 107.167 116.112 110.04 116.779 110.782C117.323 111.388 118.186 111.766 119.408 111.898C119.443 111.901 119.479 111.905 119.515 111.908C119 111.942 118.581 111.939 118.199 111.898C116.976 111.766 116.245 111.468 115.84 110.761C115.436 110.055 114.174 106.37 113.947 105.305C113.72 104.24 113.162 101.885 113.162 101.885L113.962 101.705Z" fill="white"/>
<path id="Vector_64" d="M131.012 110.164C130.989 110.976 131.211 112.45 131.358 113.398C131.505 114.345 131.947 116.644 132.115 118.26C132.244 119.493 132.641 122.754 132.69 126.107C133.07 126.484 134.825 126.232 134.825 126.232L133.774 126.241L131.969 126.107C131.969 126.107 131.65 119.413 131.486 118.184C131.322 116.954 130.784 114.345 130.637 113.398C130.49 112.45 130.29 110.012 130.29 110.012C130.29 110.012 130.548 105.665 132.96 103.03C133.54 102.396 131.136 105.71 131.012 110.164Z" fill="white"/>
</g>
<path id="Vector_65" d="M152.292 83.0408C152.725 83.7058 153.176 84.9072 153.186 85.6597C153.196 86.4122 152.795 89.1414 153.052 90.1581C153.31 91.1749 153.486 91.618 153.867 91.85C154.248 92.082 154.64 92.5768 154.64 92.5768C154.64 92.5768 154.409 94.8419 152.225 94.8691C151.258 94.185 148.268 93.626 148.268 93.626C148.268 93.626 147.424 92.2573 147.351 91.783C147.279 91.3088 147.341 89.4842 147.351 89.2471C147.362 89.0101 147.408 88.5439 147.408 88.5439C147.408 88.5439 148.63 87.3728 149.104 86.505C149.578 85.6372 150.107 84.3696 150.124 84.2886C150.141 84.2075 150.341 83.5567 150.372 83.5567C150.403 83.5567 150.928 83.7741 151.377 83.6242C151.825 83.4743 152.292 83.0408 152.292 83.0408Z" fill="white"/>
<path id="Vector_66" d="M134.972 83.0408C134.539 83.7058 134.088 84.9072 134.078 85.6597C134.068 86.4122 134.47 89.1414 134.212 90.1581C133.954 91.1749 133.778 91.618 133.397 91.85C133.016 92.0821 132.625 92.5768 132.625 92.5768C132.625 92.5768 132.855 94.8419 135.039 94.8691C136.006 94.185 138.669 93.9531 138.669 93.9531C138.669 93.9531 139.841 92.2573 139.913 91.7831C139.985 91.3089 139.923 89.4842 139.913 89.2472C139.903 89.0101 139.882 88.822 139.882 88.822C139.882 88.822 138.319 87.7008 137.845 86.833C137.371 85.9652 136.93 84.5146 136.913 84.4335C136.896 84.3524 136.923 83.5567 136.892 83.5567C136.861 83.5567 136.336 83.7741 135.887 83.6242C135.439 83.4743 134.972 83.0408 134.972 83.0408Z" fill="white"/>
<g id="Group_44">
<path id="Vector_67" d="M133.287 91.7935C133.668 91.5616 133.815 91.3978 134.073 90.3811C134.331 89.3643 134.289 86.4124 134.299 85.6598C134.309 84.9073 134.539 83.9152 134.972 83.2502C134.972 83.2502 135.304 83.1439 135.47 83.2667C135.083 83.953 134.976 84.7994 134.888 85.6908C134.814 86.4398 135.103 89.1416 134.845 90.1583C134.588 91.175 134.357 91.592 134.084 91.9448C133.65 92.5067 133.115 92.9687 133.115 92.9687C133.115 92.9687 133.169 94.614 135.009 94.8751C134.995 94.8845 135.274 94.8596 135.26 94.8692C133.076 94.842 132.503 92.7763 132.503 92.7763C132.503 92.7763 132.906 92.0256 133.287 91.7935Z" fill="white"/>
</g>
<path id="Vector_68" d="M152.228 80.3567C153.987 72.7222 149.262 68.7061 142.985 68.8461C135.589 69.011 133.012 75.0726 134.929 80.3811L152.228 80.3567Z" fill="white"/>
<path id="Vector_69" d="M142.888 69.0384C144.623 68.9998 146.239 69.2792 147.632 69.8641C146.44 69.4864 145.115 69.3096 143.713 69.3408C136.458 69.5026 133.84 75.339 135.554 80.5724L134.833 80.5734C132.915 75.2649 135.492 69.2034 142.888 69.0384Z" fill="white"/>
<path id="Vector_70" d="M154.058 126.32L155.377 138.158L130.385 138.221L132.087 126.32H154.058Z" fill="#019935"/>
<path id="Vector_71" d="M132.657 126.32L131.274 138.219L130.4 138.221L132.101 126.32H132.657Z" fill="white"/>
<path id="Vector_72" d="M120.935 99.9554L118.631 90.3367C118.631 90.3367 119.253 88.3927 119.436 87.9318C119.618 87.4709 120.411 85.2928 119.951 84.1329C119.49 82.973 117.479 84.3757 117.479 84.3757C117.479 84.3757 110.269 86.5261 110.418 87.4019C110.423 87.4259 111.494 89.7523 111.938 90.7475C112.382 91.7427 112.254 92.0038 112.334 92.4281C112.807 94.9582 113.685 101.739 113.685 101.739L120.935 99.9554Z" fill="white"/>
<path id="Vector_73" d="M147.226 88.673C146.712 89.7875 147.524 92.5765 148.232 93.4786C148.064 93.859 146.854 94.9136 145.793 95.4392C145.201 95.733 142.207 96.3499 140.688 95.5234C139.179 94.7024 138.949 94.2917 138.793 94.0655C139.009 93.9278 139.831 91.2398 139.863 90.4203C139.878 90.0076 139.831 88.6927 139.831 88.6927C139.831 88.6927 137.854 87.2494 137.398 85.7174C137.15 84.8855 136.721 83.7835 136.721 83.7835C136.721 83.7835 135.09 83.5785 134.643 82.9633C134.195 82.348 133.984 81.7914 134.33 81.116C134.677 80.4406 135.011 80.3094 135.232 80.2584C135.452 80.2074 136.286 80.0804 136.286 80.0804C136.286 80.0804 140.073 78.5158 140.506 75.6912C142.091 76.8418 143.758 78.2848 148.085 78.6142C149.32 79.6187 150.547 80.0618 150.547 80.0618C150.547 80.0618 152.539 79.6018 152.68 81.4542C152.741 82.2551 152.465 83.1531 151.757 83.5043C151.048 83.8556 150.201 83.4353 150.201 83.4353C150.201 83.4353 149.756 85.5312 149.303 86.2005C148.851 86.8697 148.335 87.8029 148.213 87.9225C148.091 88.0421 147.356 88.3916 147.226 88.673Z" fill="white"/>
<g id="Group_45">
<path id="Vector_74" d="M138.763 94.2149C138.701 94.2149 138.638 94.1907 138.59 94.1426C138.496 94.047 138.496 93.8927 138.592 93.7981C139.972 92.4316 139.584 88.8852 139.58 88.8495C139.565 88.7159 139.66 88.5951 139.794 88.5798C139.927 88.5643 140.049 88.6603 140.064 88.7939C140.082 88.9491 140.483 92.6114 138.935 94.1444C138.887 94.1914 138.825 94.2149 138.763 94.2149Z" fill="#016D26"/>
</g>
<g id="Group_46">
<path id="Vector_75" d="M143.429 89.9912C139.915 89.9912 137.344 87.5641 136.553 83.4987C136.527 83.3666 136.613 83.2388 136.745 83.213C136.877 83.1875 137.005 83.2735 137.031 83.4056C137.775 87.2242 140.166 89.504 143.429 89.504C146.721 89.504 149.125 87.2781 150.027 83.397C150.057 83.266 150.188 83.1844 150.319 83.2149C150.45 83.2453 150.532 83.3762 150.501 83.5072C149.544 87.6278 146.966 89.9912 143.429 89.9912Z" fill="#016D26"/>
</g>
<g id="Group_47">
<path id="Vector_76" d="M151.028 83.8677C150.725 83.8677 150.432 83.8019 150.159 83.6722C150.038 83.6144 149.986 83.469 150.044 83.3476C150.102 83.2261 150.247 83.1745 150.369 83.2322C150.576 83.3306 150.798 83.3805 151.028 83.3805C151.876 83.3805 152.566 82.6908 152.566 81.843C152.566 80.9951 151.876 80.3053 151.028 80.3053C150.944 80.3053 150.859 80.3122 150.777 80.3258C150.644 80.3475 150.519 80.2576 150.497 80.1249C150.475 79.9921 150.565 79.8668 150.698 79.8451C150.807 79.8272 150.918 79.8181 151.028 79.8181C152.145 79.8181 153.053 80.7265 153.053 81.843C153.053 82.9594 152.145 83.8677 151.028 83.8677Z" fill="#016D26"/>
</g>
<g id="Group_48">
<path id="Vector_77" d="M151.98 81.9982C151.979 81.9982 151.978 81.9982 151.977 81.9982C151.843 81.9966 151.735 81.8863 151.737 81.7517C151.738 81.5986 151.709 81.3869 151.558 81.2479C151.424 81.1247 151.209 81.0737 150.936 81.0996C150.803 81.1135 150.683 81.0144 150.67 80.8805C150.658 80.7465 150.756 80.6276 150.89 80.6147C151.413 80.5641 151.721 80.7363 151.887 80.8892C152.112 81.0954 152.228 81.3957 152.224 81.7574C152.222 81.891 152.114 81.9982 151.98 81.9982Z" fill="#016D26"/>
</g>
<g id="Group_49">
<path id="Vector_78" d="M136.027 83.8677C134.911 83.8677 134.003 82.9594 134.003 81.843C134.003 80.7265 134.911 79.8181 136.027 79.8181C136.126 79.8181 136.224 79.8252 136.321 79.8393C136.454 79.8587 136.547 79.9823 136.527 80.1154C136.508 80.2485 136.384 80.3406 136.251 80.3214C136.177 80.3107 136.102 80.3053 136.027 80.3053C135.18 80.3053 134.49 80.9951 134.49 81.843C134.49 82.6908 135.18 83.3805 136.027 83.3805C136.258 83.3805 136.48 83.3306 136.687 83.2323C136.809 83.1744 136.954 83.2261 137.012 83.3475C137.07 83.469 137.018 83.6144 136.896 83.6721C136.624 83.8019 136.331 83.8677 136.027 83.8677Z" fill="#016D26"/>
</g>
<g id="Group_50">
<path id="Vector_79" d="M135.076 81.9982C134.942 81.9982 134.834 81.891 134.832 81.7575C134.828 81.3956 134.944 81.0955 135.169 80.8893C135.335 80.7363 135.643 80.564 136.166 80.6148C136.3 80.6276 136.398 80.7466 136.385 80.8805C136.373 81.0144 136.254 81.1136 136.12 81.0996C135.847 81.0736 135.632 81.1247 135.498 81.2479C135.347 81.3869 135.317 81.5986 135.319 81.7518C135.321 81.8863 135.213 81.9966 135.078 81.9982C135.077 81.9982 135.077 81.9982 135.076 81.9982Z" fill="#016D26"/>
</g>
<path id="Vector_80" d="M146.689 81.0947C146.928 81.0947 147.122 80.7642 147.122 80.3566C147.122 79.9489 146.928 79.6184 146.689 79.6184C146.45 79.6184 146.256 79.9489 146.256 80.3566C146.256 80.7642 146.45 81.0947 146.689 81.0947Z" fill="#016D26"/>
<path id="Vector_81" d="M140.193 81.0947C140.432 81.0947 140.626 80.7642 140.626 80.3566C140.626 79.9489 140.432 79.6184 140.193 79.6184C139.954 79.6184 139.76 79.9489 139.76 80.3566C139.76 80.7642 139.954 81.0947 140.193 81.0947Z" fill="#016D26"/>
<g id="Group_51">
<path id="Vector_82" d="M143.148 84.2214C143.137 84.2214 143.125 84.2205 143.113 84.2188C142.793 84.1719 142.043 84.0622 142.012 83.3133C141.994 82.9055 142.252 82.5891 142.524 82.2543C142.614 82.1435 142.707 82.029 142.791 81.9098C142.995 81.6197 143.336 81.134 143.279 80.0751C143.271 79.9407 143.374 79.8259 143.509 79.8186C143.643 79.8103 143.758 79.9142 143.765 80.0485C143.832 81.276 143.414 81.8705 143.19 82.1899C143.096 82.3231 142.998 82.4444 142.902 82.5617C142.68 82.8342 142.489 83.0696 142.498 83.2928C142.509 83.5514 142.682 83.6634 143.183 83.7368C143.316 83.7563 143.409 83.88 143.389 84.0131C143.371 84.1342 143.267 84.2214 143.148 84.2214Z" fill="#016D26"/>
</g>
<g id="Group_52">
<path id="Vector_83" d="M148.364 93.9235C148.329 93.9235 148.293 93.9158 148.259 93.8995C147.577 93.5726 147.157 92.5763 147.011 90.9384C146.906 89.7672 146.98 88.7004 146.983 88.6556C146.993 88.5215 147.109 88.42 147.243 88.4299C147.378 88.4394 147.479 88.5558 147.469 88.69C147.388 89.8443 147.408 92.9514 148.47 93.4602C148.591 93.5184 148.642 93.6638 148.584 93.7851C148.542 93.8725 148.455 93.9235 148.364 93.9235Z" fill="#016D26"/>
</g>
<g id="Group_53">
<path id="Vector_84" d="M138.622 78.8013C138.546 78.8013 138.471 78.7658 138.424 78.6992C138.346 78.5896 138.371 78.4376 138.481 78.3594C139.299 77.776 140.604 77.6067 141.729 77.938C141.858 77.976 141.931 78.1115 141.893 78.2405C141.855 78.3695 141.72 78.4436 141.591 78.4053C140.602 78.1141 139.466 78.255 138.764 78.756C138.721 78.7866 138.671 78.8013 138.622 78.8013Z" fill="#016D26"/>
</g>
<g id="Group_54">
<path id="Vector_85" d="M154.424 126.485H131.722L131.725 126.238C131.747 124.284 131.637 123.153 131.398 120.673C131.366 120.343 131.332 119.988 131.295 119.604C131.101 117.569 130.818 115.914 130.569 114.454C130.195 112.272 129.901 110.549 130.124 108.766C130.359 106.88 131.176 105.018 132.77 102.73C132.847 102.619 132.999 102.592 133.11 102.669C133.22 102.746 133.247 102.898 133.17 103.008C129.907 107.692 130.312 110.065 131.049 114.372C131.3 115.84 131.584 117.505 131.78 119.558C131.817 119.942 131.851 120.296 131.883 120.627C132.114 123.018 132.225 124.165 132.214 125.998H153.939L153.968 118.788C153.968 118.654 154.077 118.545 154.211 118.545C154.212 118.545 154.212 118.545 154.213 118.545C154.347 118.546 154.456 118.655 154.455 118.79L154.424 126.485Z" fill="#016D26"/>
</g>
<g id="Group_55">
<path id="Vector_86" d="M113.685 101.982C113.566 101.982 113.462 101.895 113.444 101.774L112.045 92.132C111.859 91.277 111.457 90.5274 111.068 89.8025C110.574 88.8837 110.109 88.0158 110.183 87.0754C110.193 86.9412 110.31 86.8409 110.444 86.8516C110.579 86.8621 110.679 86.9794 110.668 87.1135C110.606 87.9115 111.019 88.681 111.497 89.5721C111.884 90.2939 112.323 91.1119 112.523 92.0375L112.526 92.0538L113.926 101.704C113.945 101.837 113.853 101.96 113.72 101.98C113.708 101.981 113.696 101.982 113.685 101.982Z" fill="#016D26"/>
</g>
<g id="Group_56">
<path id="Vector_87" d="M115.259 88.633C115.188 88.633 115.118 88.6025 115.07 88.5437C114.724 88.1204 114.423 87.6299 114.567 86.9134C114.594 86.7815 114.722 86.696 114.854 86.7227C114.986 86.7492 115.071 86.8776 115.045 87.0095C114.946 87.5022 115.117 87.8321 115.447 88.2352C115.532 88.3393 115.517 88.4928 115.413 88.578C115.368 88.615 115.313 88.633 115.259 88.633Z" fill="#016D26"/>
</g>
<g id="Group_57">
<path id="Vector_88" d="M143.679 87.2531C144.453 87.1914 144.916 86.8539 145.177 86.3132C145.377 85.8999 145.4 85.6698 145.223 85.5412C145 85.3787 144.398 85.5214 143.49 85.6282C142.827 85.7062 141.875 85.5796 141.769 86.0573C141.678 86.4687 142.451 87.3511 143.679 87.2531Z" fill="#016D26"/>
<path id="Vector_89" d="M145.014 86.5322C144.573 86.0631 143.271 85.8912 142.985 87.0983C143.769 87.2788 144.814 86.8361 145.014 86.5322Z" fill="white"/>
<g id="Group_58">
<path id="Vector_90" d="M143.502 87.4291C142.836 87.4291 142.22 87.1694 141.824 86.7141C141.592 86.448 141.489 86.162 141.541 85.9295C141.66 85.3887 142.346 85.3642 142.95 85.3428C143.128 85.3364 143.313 85.3299 143.471 85.3113C143.683 85.2863 143.882 85.2589 144.057 85.2347C144.724 85.1428 145.126 85.0874 145.376 85.2692C145.782 85.5647 145.519 86.1108 145.406 86.344C145.092 86.9937 144.521 87.356 143.708 87.4209C143.639 87.4264 143.57 87.4291 143.502 87.4291ZM144.916 85.6354C144.718 85.6354 144.397 85.6796 144.124 85.7173C143.946 85.7419 143.745 85.7697 143.528 85.7952C143.35 85.8161 143.155 85.823 142.967 85.8297C142.604 85.8427 142.054 85.8622 142.016 86.0351C142.005 86.0838 142.043 86.2244 142.191 86.3943C142.45 86.6922 142.975 86.9905 143.669 86.9353C144.315 86.8838 144.728 86.6286 144.967 86.1323C145.114 85.8278 145.127 85.6904 145.09 85.6633C145.062 85.6434 145 85.6354 144.916 85.6354Z" fill="#016D26"/>
</g>
<g id="Group_59">
<path id="Vector_91" d="M143.184 87.1489L142.698 87.117C142.738 86.5107 143.069 86.0717 143.607 85.9124C144.189 85.7398 144.878 85.9439 145.209 86.3869L144.819 86.6784C144.611 86.3998 144.129 86.2658 143.745 86.3795C143.508 86.4499 143.218 86.6404 143.184 87.1489Z" fill="#016D26"/>
</g>
</g>
<g id="Group_60">
<path id="Vector_92" d="M159.553 138.569C159.444 138.569 159.345 138.495 159.317 138.385C159.305 138.338 158.129 133.66 156.968 129.644C156.931 129.514 157.006 129.379 157.135 129.342C157.264 129.305 157.399 129.379 157.436 129.508C158.6 133.533 159.778 138.219 159.79 138.266C159.822 138.397 159.743 138.529 159.613 138.562C159.593 138.567 159.573 138.569 159.553 138.569Z" fill="#016D26"/>
</g>
<g id="Group_61">
<path id="Vector_93" d="M155.509 138.464C155.386 138.464 155.281 138.372 155.267 138.248L153.939 126.268C153.925 126.134 154.021 126.014 154.155 125.999C154.289 125.984 154.409 126.081 154.424 126.214L155.751 138.194C155.766 138.328 155.669 138.448 155.536 138.463C155.527 138.464 155.518 138.464 155.509 138.464Z" fill="#016D26"/>
</g>
<g id="Group_62">
<path id="Vector_94" d="M130.29 138.464C130.279 138.464 130.268 138.463 130.256 138.462C130.123 138.443 130.03 138.32 130.049 138.187L131.727 126.207C131.745 126.074 131.868 125.982 132.002 126C132.135 126.019 132.228 126.142 132.209 126.275L130.531 138.254C130.514 138.376 130.41 138.464 130.29 138.464Z" fill="#016D26"/>
</g>
<path id="Vector_95" d="M116.295 82.9996L114.934 80.6947C114.054 80.1028 113.33 80.8182 113.395 81.6878L113.303 81.5026C111.85 81.6604 111.773 82.396 112.248 83.5108L111.8 82.7043C111.166 82.5014 110.886 82.802 110.569 83.3989C110.529 83.4743 110.311 83.3637 110.358 83.5227C110 83.5524 109.646 83.7694 109.551 84.2774C109.477 84.6733 109.677 85.4764 110.173 85.9855C110.669 86.4946 111.154 86.6473 111.454 86.4287C111.895 86.1083 111.902 86.276 111.788 86.0779L111.864 85.8036C112.129 85.9265 112.747 86.1724 112.947 86.0265C113.388 85.7062 113.245 85.2986 113.131 85.1005L113.131 85.0999C113.408 85.4359 113.662 85.5269 113.953 85.389C114.556 85.1042 114.772 84.6413 114.684 84.2804L114.684 84.2801C114.877 84.4636 115.072 84.5727 115.255 84.5616C115.944 84.5199 116.505 83.8835 116.295 82.9996Z" fill="white"/>
<g id="Group_63">
<path id="Vector_96" d="M115.228 84.806C114.831 84.806 114.413 84.4613 113.984 83.7804C113.656 83.2586 113.359 82.5895 113.208 82.0339C113.037 81.403 113.229 80.7593 113.685 80.4323C114.084 80.1468 114.589 80.1688 115.07 80.4925C115.181 80.5676 115.211 80.719 115.136 80.8306C115.061 80.9422 114.909 80.9719 114.797 80.8966C114.49 80.6899 114.196 80.6656 113.969 80.8283C113.682 81.0342 113.562 81.4775 113.678 81.9064C113.961 82.9501 114.773 84.3188 115.227 84.3188C115.231 84.3188 115.236 84.3187 115.24 84.3184C115.48 84.3039 115.685 84.1785 115.803 83.9743C115.99 83.6502 115.947 83.1763 115.68 82.6399C115.62 82.5194 115.669 82.3732 115.79 82.3133C115.91 82.2535 116.056 82.3025 116.116 82.4231C116.578 83.3506 116.382 83.946 116.225 84.2183C116.026 84.5613 115.669 84.7806 115.269 84.8047C115.256 84.8056 115.242 84.806 115.228 84.806Z" fill="#016D26"/>
</g>
<g id="Group_64">
<path id="Vector_97" d="M113.855 85.8783C113.213 85.8784 112.674 84.9685 112.183 83.9559C111.856 83.2814 111.564 82.5159 111.876 81.9523C112.09 81.5659 112.548 81.3396 113.276 81.2605C113.411 81.246 113.53 81.3427 113.545 81.4763C113.559 81.6101 113.463 81.7303 113.329 81.7448C112.778 81.8047 112.432 81.954 112.303 82.1883C112.145 82.4739 112.246 82.9681 112.622 83.7435C113.155 84.8448 113.564 85.3847 113.865 85.3848C113.902 85.3848 113.937 85.3768 113.97 85.3611C114.433 85.1423 114.585 84.8203 114.45 84.3475C114.413 84.2182 114.488 84.0834 114.617 84.0463C114.746 84.0093 114.881 84.084 114.918 84.2135C115.12 84.9167 114.857 85.4807 114.178 85.8015C114.068 85.8539 113.96 85.8782 113.855 85.8783Z" fill="#016D26"/>
</g>
<g id="Group_65">
<path id="Vector_98" d="M118.416 83.9636C124.008 78.3721 124.008 69.3066 118.416 63.7151C112.825 58.1236 103.759 58.1236 98.1678 63.7151C92.5764 69.3066 92.5764 78.3721 98.1678 83.9636C103.759 89.5551 112.825 89.5551 118.416 83.9636Z" fill="#55BB78"/>
<g id="Group_66">
<path id="Vector_99" d="M108.299 86.3082C107.565 86.3082 106.82 86.2428 106.073 86.1075C99.308 84.8829 94.8007 78.3832 96.0252 71.6185C97.2498 64.8538 103.75 60.3462 110.514 61.5711C117.279 62.7956 121.786 69.2954 120.562 76.0601C119.472 82.077 114.21 86.3082 108.299 86.3082ZM96.7377 71.7475C95.5843 78.1193 99.8298 84.2416 106.202 85.395C106.906 85.5224 107.607 85.5839 108.299 85.584C113.866 85.5845 118.823 81.5991 119.849 75.9311C121.003 69.5593 116.757 63.437 110.385 62.2836C104.014 61.1302 97.8912 65.3757 96.7377 71.7475Z" fill="white"/>
</g>
<g id="Group_67">
<path id="Vector_100" d="M108.324 88.4047C107.453 88.4047 106.576 88.3265 105.7 88.1679C101.872 87.4751 98.544 85.3333 96.3276 82.1371C94.1111 78.9409 93.2721 75.0728 93.9648 71.2455C94.6577 67.4182 96.7994 64.0897 99.9957 61.8733C103.192 59.6568 107.06 58.8177 110.887 59.5105C114.715 60.2033 118.043 62.3451 120.26 65.5414C122.476 68.7376 123.315 72.6057 122.622 76.433C121.929 80.2603 119.788 83.5888 116.591 85.8052C114.127 87.5145 111.262 88.4047 108.324 88.4047ZM94.4442 71.3322C93.0618 78.9687 98.15 86.3062 105.787 87.6885C109.486 88.3582 113.225 87.5472 116.314 85.4049C119.403 83.2626 121.473 80.0455 122.143 76.3462C123.525 68.7097 118.437 61.3722 110.801 59.9898C103.164 58.6077 95.8266 63.6957 94.4442 71.3322Z" fill="#016D26"/>
</g>
<g id="Group_68">
<path id="Vector_101" d="M112.015 77.1833C111.814 78.0436 111.333 78.6794 110.574 79.0901C109.815 79.5008 108.827 79.633 107.609 79.486L107.158 81.4175L105.974 81.1408L106.413 79.2628C104.947 78.8952 103.792 78.3874 102.949 77.7397L103.388 75.8617C103.84 76.2302 104.387 76.5788 105.03 76.9074C105.673 77.2359 106.264 77.4664 106.802 77.5984L107.58 74.2696L106.897 73.819C106.011 73.2177 105.405 72.6053 105.078 71.9813C104.751 71.3572 104.678 70.6627 104.857 69.8972C105.048 69.0784 105.524 68.4796 106.286 68.1004C107.047 67.7213 107.987 67.603 109.105 67.7455L109.454 66.2502L110.638 66.5269L110.295 67.9955C111.49 68.3184 112.575 68.8288 113.551 69.5262L112.52 71.0032C111.675 70.4175 110.801 69.9817 109.897 69.6955L109.14 72.9353L109.756 73.3515C110.782 74.048 111.456 74.6874 111.777 75.2692C112.098 75.851 112.177 76.4891 112.015 77.1833ZM106.952 70.3682C106.873 70.7065 106.913 71.0128 107.071 71.2876C107.229 71.5624 107.558 71.8741 108.058 72.2225L108.705 69.4544C108.214 69.4146 107.818 69.4755 107.518 69.6367C107.217 69.7979 107.029 70.042 106.952 70.3682ZM109.883 76.8259C109.963 76.4819 109.91 76.1704 109.721 75.8917C109.533 75.613 109.181 75.3041 108.666 74.9646L108.002 77.8038C109.084 77.8877 109.711 77.5616 109.883 76.8259Z" fill="white"/>
</g>
</g>
<path id="Vector_102" d="M120.124 85.0198C120.104 84.3189 119.894 81.3226 118.763 80.4778C117.731 79.7073 117.976 79.9395 117.511 80.0064C116.306 80.1794 117.795 83.4522 117.521 85.7353C117.382 86.9012 118.717 90.2774 118.717 90.2774C120.073 88.1299 120.163 86.36 120.124 85.0198Z" fill="white"/>
<g id="Group_69">
<path id="Vector_103" d="M120.934 100.199C120.824 100.199 120.723 100.123 120.697 100.011L118.403 90.1689C118.364 89.9936 118.39 89.812 118.476 89.6558C119.671 87.4989 119.899 86.2842 119.881 85.0236C119.864 83.8604 119.423 82.2688 119.017 81.3618C118.609 80.4512 118.089 80.0713 117.426 80.2009C117.287 80.2282 117.238 80.2835 117.214 80.3228C117.064 80.5642 117.237 81.1939 117.405 81.8029C117.481 82.0784 117.559 82.3633 117.623 82.6555C117.916 83.9933 117.701 85.4464 117.692 85.5076C117.671 85.6406 117.547 85.7322 117.414 85.7117C117.281 85.6916 117.19 85.5674 117.21 85.4344C117.212 85.4203 117.421 84.0074 117.147 82.7598C117.086 82.4802 117.009 82.2016 116.935 81.9321C116.722 81.1574 116.538 80.4884 116.8 80.0662C116.912 79.8856 117.091 79.77 117.333 79.7228C117.955 79.6011 118.83 79.752 119.461 81.1628C119.887 82.1142 120.35 83.7882 120.368 85.0165C120.387 86.3572 120.149 87.6403 118.902 89.8919C118.874 89.9434 118.865 90.003 118.878 90.06L121.172 99.9003C121.202 100.031 121.121 100.162 120.99 100.193C120.971 100.197 120.953 100.199 120.934 100.199Z" fill="#016D26"/>
</g>
<g id="Group_70">
<path id="Vector_104" d="M134.929 80.6247C134.83 80.6248 134.736 80.5631 134.7 80.4638C133.646 77.5455 133.943 74.4521 135.494 72.1893C136.234 71.1097 137.224 70.2536 138.437 69.6447C139.738 68.9914 141.266 68.6408 142.979 68.6026C146.433 68.5253 149.298 69.6629 151.042 71.8052C152.779 73.9382 153.271 76.9142 152.465 80.4115C152.435 80.5425 152.304 80.6242 152.173 80.5941C152.042 80.5639 151.96 80.4332 151.99 80.3021C152.761 76.9567 152.303 74.1249 150.665 72.1128C149.017 70.0896 146.292 69.0169 142.99 69.0896C138.978 69.1791 136.918 70.9744 135.896 72.4648C134.433 74.5986 134.158 77.527 135.159 80.2984C135.204 80.4249 135.139 80.5645 135.012 80.6102C134.985 80.6201 134.957 80.6247 134.929 80.6247Z" fill="#016D26"/>
</g>
<g id="Group_71">
<path id="Vector_105" d="M150.77 80.3239C150.74 80.3239 150.71 80.3185 150.681 80.3069C147.867 79.1994 146.356 77.7597 144.908 74.8051C144.849 74.6844 144.899 74.5384 145.02 74.4792C145.141 74.4201 145.286 74.47 145.346 74.5907C146.733 77.4199 148.175 78.7971 150.859 79.8536C150.984 79.9029 151.046 80.0443 150.997 80.1695C150.959 80.2654 150.867 80.3239 150.77 80.3239Z" fill="#016D26"/>
</g>
<g id="Group_72">
<path id="Vector_106" d="M148.085 78.8577C146.595 78.8577 144.845 78.4534 143.285 77.7484C142.023 77.1779 140.293 76.1433 139.225 74.4544C139.153 74.3407 139.187 74.1903 139.3 74.1183C139.414 74.0464 139.565 74.0803 139.636 74.1939C141.29 76.8082 145.231 78.3704 148.085 78.3704C148.219 78.3704 148.328 78.4795 148.328 78.614C148.328 78.7486 148.219 78.8577 148.085 78.8577Z" fill="#016D26"/>
</g>
<g id="Group_73">
<path id="Vector_107" d="M136.286 80.3241C136.198 80.3241 136.113 80.2761 136.07 80.1924C136.008 80.0729 136.055 79.9259 136.174 79.8641C136.238 79.8309 136.313 79.7939 136.396 79.7525C137.348 79.2793 139.576 78.1711 140.271 75.627C140.307 75.4972 140.441 75.4207 140.571 75.4562C140.7 75.4917 140.777 75.6257 140.741 75.7554C139.988 78.5101 137.623 79.6864 136.613 80.1887C136.532 80.2288 136.46 80.2647 136.398 80.2969C136.362 80.3153 136.324 80.3241 136.286 80.3241Z" fill="#016D26"/>
</g>
<g id="Group_74">
<path id="Vector_108" d="M152.551 95.2047C152.436 95.2047 152.334 95.1229 152.312 95.0059C152.287 94.8736 152.374 94.7464 152.506 94.7216C153.621 94.5129 154.252 93.8284 154.384 92.6858C152.522 91.1865 152.682 89.4749 152.799 88.219C152.816 88.0283 152.833 87.8483 152.843 87.6768C152.938 85.9815 152.946 84.6743 152.166 83.2878C152.1 83.1706 152.142 83.0221 152.259 82.9561C152.377 82.8902 152.525 82.9318 152.591 83.0491C153.434 84.5476 153.426 85.9832 153.329 87.7043C153.319 87.8846 153.302 88.0689 153.284 88.2641C153.163 89.5598 153.026 91.0284 154.788 92.3838L154.893 92.4645L154.882 92.5965C154.765 94.0419 153.975 94.9423 152.596 95.2004C152.581 95.2033 152.566 95.2047 152.551 95.2047Z" fill="#016D26"/>
</g>
<g id="Group_75">
<path id="Vector_109" d="M134.323 95.1347C134.301 95.1347 134.279 95.1317 134.257 95.1255C133.078 94.7915 132.399 93.917 132.292 92.5968L132.281 92.4647L132.386 92.384C134.148 91.0287 134.011 89.5601 133.891 88.2643C133.872 88.0691 133.855 87.8848 133.845 87.7045C133.751 86.0433 133.749 84.7379 134.577 83.0608C134.637 82.9403 134.783 82.8907 134.903 82.9503C135.024 83.0098 135.073 83.1559 135.014 83.2765C134.239 84.8467 134.242 86.0909 134.332 87.677C134.341 87.8484 134.358 88.0285 134.376 88.2192C134.493 89.4751 134.652 91.1867 132.79 92.686C132.911 93.7273 133.448 94.3901 134.39 94.6568C134.519 94.6935 134.594 94.8281 134.558 94.9576C134.527 95.0647 134.43 95.1347 134.323 95.1347Z" fill="#016D26"/>
</g>
<g id="Group_76">
<path id="Vector_110" d="M166.701 138.464C166.583 138.464 166.48 138.379 166.46 138.26C166.329 137.455 166.171 136.436 166.004 135.357C165.655 133.108 165.26 130.558 164.854 128.285C164.831 128.153 164.919 128.026 165.051 128.002C165.184 127.978 165.31 128.067 165.334 128.199C165.74 130.478 166.136 133.031 166.485 135.283C166.652 136.361 166.81 137.379 166.941 138.181C166.963 138.314 166.873 138.439 166.74 138.461C166.727 138.463 166.714 138.464 166.701 138.464Z" fill="#016D26"/>
</g>
<g id="Group_77">
<path id="Vector_111" d="M156.589 129.804L156.541 129.58C156.012 127.148 155.554 125.016 155.452 124.511C154.626 120.446 151.932 112.075 151.905 111.991C151.864 111.863 151.934 111.726 152.062 111.685C152.19 111.644 152.327 111.714 152.369 111.842C152.396 111.926 155.099 120.322 155.929 124.414C156.026 124.893 156.468 126.951 156.968 129.253L165.146 127.992C163.265 118.416 161.012 108.353 159.994 104.998C158.125 98.8357 154.462 95.3225 148.474 93.9544C147.748 94.9572 145.692 96.0595 143.418 96.192C141.988 96.2751 139.998 95.9945 138.56 94.2091C134.078 94.6816 131.055 96.5877 127.56 98.7915C125.828 99.8832 124.037 101.012 121.939 102.037L121.67 102.168L121.155 100.152L113.512 102.032C114.971 109.963 116.445 111.382 117.198 111.519C118.414 111.74 120.796 111.614 123.265 111.198C126.043 110.731 128.546 109.974 130.133 109.122C130.252 109.059 130.399 109.103 130.463 109.222C130.526 109.34 130.482 109.488 130.363 109.552C126.699 111.519 119.617 112.454 117.111 111.998C116.2 111.833 115.384 110.695 114.616 108.519C114.037 106.878 113.491 104.649 112.991 101.894L112.951 101.669L121.507 99.5637L121.993 101.467C123.954 100.489 125.654 99.4171 127.3 98.3793C130.733 96.215 133.975 94.1707 138.645 93.7108L138.78 93.6976L138.862 93.805C140.176 95.5176 142.048 95.7838 143.39 95.7057C145.548 95.58 147.596 94.4922 148.155 93.5553L148.245 93.4043L148.417 93.4421C154.691 94.8255 158.518 98.4523 160.46 104.856C161.61 108.649 164.014 119.677 165.672 128.147L165.721 128.396L156.589 129.804Z" fill="#016D26"/>
</g>
</g>
<g id="Group_78">
<path id="Vector_112" d="M169.392 138.569H121.81C121.675 138.569 121.566 138.46 121.566 138.325C121.566 138.191 121.675 138.082 121.81 138.082H169.392C169.526 138.082 169.636 138.191 169.636 138.325C169.636 138.46 169.526 138.569 169.392 138.569Z" fill="#016D26"/>
</g>
</g>
</g>
</svg>
