<svg width="168" height="150" viewBox="0 0 168 150" fill="none" xmlns="http://www.w3.org/2000/svg">
<g id="Group 12">
<g id="Group 11">
<path id="Vector" d="M14.3925 109.334C14.5229 109.431 14.6527 109.526 14.7816 109.619C17.9279 111.915 22.0822 111.551 25.1051 114.168C30.4708 118.809 30.7002 127.341 33.5498 133.604C40.4093 148.669 59.4311 154.493 72.5216 146.237C79.2139 142.015 84.8655 138.672 92.8096 141.95C101.413 145.503 110.576 146.767 119.382 143.299C127.589 140.067 134.251 137.216 138.056 128.599C140.296 123.523 139.504 117.822 141.306 112.712C144.526 103.576 155 100.473 159.945 92.538C162.969 87.6859 164.35 82.3384 166.375 77.0466C168.269 72.0929 166.293 67.0599 165.038 62.0755C163.753 56.9827 161.483 53.122 157.453 49.8215C154.291 47.2305 150.325 45.4882 147.844 42.1365C144.695 37.879 146.54 31.9569 144.475 27.1936C142.092 21.7001 135.736 16.6647 130.231 15.5494C124.283 14.3436 119.253 18.6231 113.498 18.3285C109.339 18.115 107.335 13.9362 104.728 10.9447C100.737 6.36298 95.931 2.29484 90.2382 0.769368C84.005 -0.898958 77.4603 0.24562 71.7776 3.23973C68.0438 5.20835 63.9303 7.81049 61.05 11.1002C58.8296 13.637 58.019 16.9531 55.2089 18.945C48.8028 23.4803 40.2509 20.6824 33.2358 19.6696C25.0682 18.4923 16.2578 26.0576 14.1923 34.5096C12.3457 42.068 15.2635 50.7052 11.2464 57.5849C8.09712 62.9729 3.92712 67.144 1.83376 73.3297C-1.55659 83.3433 0.380338 93.5918 6.44665 101.832C8.44004 104.539 11.6811 107.321 14.3925 109.334Z" fill="#B0DFC0"/>
<g id="&#195;&#145;&#195;&#171;&#195;&#174;&#195;&#169;_6">
<g id="Group">
<g id="Group_2">
<path id="Vector_2" d="M130.997 29.196C130.64 28.9596 130.173 28.8833 129.774 28.8698C128.919 28.8418 127.991 29.2039 127.632 29.9573C127.014 27.7943 126.531 25.9349 124.117 25.6493C123.769 25.6089 123.427 25.5994 123.093 25.6213C120.766 25.341 117.465 26.2625 118.571 29.1921C118.583 29.2247 118.604 29.2459 118.629 29.258C118.585 29.4265 118.548 29.5997 118.519 29.7781C118.2 29.4196 117.88 29.1134 117.552 28.8595C115.629 26.9827 111.404 27.3118 110.724 30.2069C110.363 30.7329 110.139 31.3038 110.156 31.8608C110.221 33.9453 113.245 33.4558 114.513 33.4963C117.976 33.6057 121.372 33.5947 124.812 33.5373C125.658 33.5228 126.507 33.4973 127.358 33.457C128.493 33.4028 129.566 33.5832 130.637 33.132C131.725 32.6737 132.411 31.2461 131.844 30.0146C131.642 29.5761 131.345 29.3201 130.997 29.196ZM113.801 28.0386C112.976 28.1846 111.903 28.8377 111.136 29.6876C111.758 28.3705 113.307 27.8154 114.803 27.9375C114.487 27.9422 114.154 27.9759 113.801 28.0386ZM118.721 28.9483C118.021 26.7669 120.047 25.8859 121.982 25.8118C120.468 26.2435 119.244 27.3499 118.721 28.9483ZM127.785 30.1429C128.068 29.4149 128.966 29.0979 129.733 29.1024C129.843 29.103 129.956 29.11 130.071 29.1246C129.245 29.236 128.355 29.7252 127.785 30.1429Z" fill="white"/>
</g>
</g>
<path id="Vector_3" d="M39.3887 33.6216C38.465 33.2168 37.2638 33.0822 35.9189 33.4478C35.7021 31.6039 35.0091 30.8416 34.111 30.714C34.1881 30.6977 34.2654 30.6808 34.3397 30.6672C35.6458 30.4206 37.7691 30.7169 36.9501 32.6969C36.8103 33.0329 37.2638 33.3273 37.4046 32.9885C37.7424 32.1737 37.8493 31.2204 37.1521 30.5929C36.4667 29.9737 35.4316 29.9562 34.5927 30.0514C33.3239 30.1954 31.6587 30.8162 30.7867 31.9979C29.9614 32.5929 29.202 33.283 28.6558 33.8287C28.3509 30.5793 24.4851 31.684 23.1499 33.4802C22.0424 34.9695 21.8941 35.9467 22.2988 36.5993C21.1761 35.4835 22.609 33.7245 23.605 32.8663C24.8421 31.8002 27.3451 30.3888 28.865 31.6451C29.1332 31.8673 29.5162 31.4729 29.2446 31.2484C26.0685 28.6217 18.5286 35.1806 22.4742 37.4152C22.6835 37.5339 22.877 37.3419 22.8788 37.1541C22.8881 37.1594 22.8967 37.1658 22.9055 37.1712C22.9034 37.2516 22.908 37.3347 22.9218 37.4241C23.113 38.6928 24.9195 39.2363 25.8496 39.3981C27.7971 39.7354 29.8559 39.7228 31.8195 39.6518C33.7775 39.5807 35.7559 39.3414 37.6414 38.7483C37.8449 38.685 37.8666 38.4447 37.777 38.2964C37.9027 38.2836 38.0296 38.2694 38.1555 38.2536C40.3547 37.9661 41.2611 36.9932 41.2662 35.9787C41.3351 36.2375 41.7543 36.2002 41.7848 35.8734C41.9314 34.2747 40.6313 33.4195 39.3887 33.6216ZM23.8563 37.7727C23.8435 37.8195 23.8372 37.8679 23.8404 37.9147C23.6944 37.783 23.5544 37.6222 23.48 37.4446C23.6027 37.4905 23.7335 37.5314 23.8668 37.5699C23.8456 37.6341 23.8401 37.7034 23.8563 37.7727ZM33.7633 38.9505C33.7395 38.7818 33.6215 38.6323 33.4047 38.6323C33.2587 38.6323 33.1114 38.6323 32.9658 38.6323C32.962 38.5623 32.9438 38.4945 32.9024 38.4385C33.3051 38.4529 33.7076 38.4609 34.1087 38.4647C34.1696 38.5316 34.2566 38.5764 34.3713 38.5764C34.9476 38.5762 35.5121 38.5515 36.0757 38.4312C36.3271 38.4197 36.5778 38.4061 36.8258 38.388C35.8212 38.6586 34.7965 38.838 33.7633 38.9505ZM41.2609 35.8304C41.2169 35.2918 40.9275 34.7523 40.4482 34.305C40.9559 34.5467 41.3145 35.0738 41.2609 35.8304Z" fill="white"/>
<g id="Group_3">
<path id="Vector_4" d="M87.3709 15.1931C85.5859 15.1931 84.6282 17.6896 86.1235 18.8019C86.5241 19.0999 86.9571 19.211 87.3717 19.1842C88.7923 19.0922 89.9931 17.3787 88.9139 16.0213C88.5464 15.5592 87.976 15.1931 87.3709 15.1931ZM86.7697 17.6202C86.4139 17.0571 86.6366 16.3286 87.3709 16.3286C87.84 16.3286 88.2221 16.7108 88.2221 17.1802C88.2223 17.9978 87.1741 18.2598 86.7697 17.6202Z" fill="white"/>
</g>
<g id="Group_4">
<path id="Vector_5" d="M65.4512 22.0041C65.3584 21.9883 65.281 22.0106 65.2153 22.0553C65.1844 22.0481 65.1508 22.0565 65.1233 22.0892C64.4946 22.8285 64.2209 23.845 64.2851 24.8046C64.2945 24.9453 64.5143 24.9463 64.5048 24.8046C64.4628 24.1759 64.5697 23.5144 64.8396 22.9357C64.3666 25.0684 64.3774 27.7045 65.1296 29.7625C65.6039 31.0604 66.0879 29.4036 66.1466 28.8548C66.3013 27.4013 66.2613 25.9044 66.1923 24.4484C66.1696 23.9786 66.0873 22.1125 65.4512 22.0041Z" fill="white"/>
<path id="Vector_6" d="M68.4885 25.4808C66.4919 24.9826 63.9929 24.981 62.0495 25.7463C61.3639 26.0161 61.5674 26.2893 61.9634 26.4851C61.9714 26.4947 61.9814 26.5037 61.9948 26.5111C62.5041 26.7948 63.0678 27.0293 63.662 26.9657C63.7353 26.958 63.7701 26.8936 63.7665 26.8365C63.9159 26.8451 64.0652 26.8525 64.2151 26.8575C64.2474 27.9405 64.5133 29.0018 64.9591 29.9887C65.0173 30.1176 65.2068 30.0058 65.149 29.8779C64.7204 28.9291 64.4676 27.9047 64.435 26.8639C65.1445 26.8802 65.8567 26.8606 66.5614 26.8286C66.5587 26.8372 66.5568 26.846 66.5559 26.8559C66.4782 27.9084 66.3454 28.9786 65.9114 29.9511C65.8543 30.0794 66.0437 30.1912 66.1016 30.062C66.5519 29.0517 66.6948 27.9499 66.7757 26.8559C66.777 26.8422 66.7751 26.8299 66.7719 26.8189C66.842 26.8154 66.9118 26.8121 66.9813 26.8086C67.417 26.7865 69.1491 26.704 69.2495 26.0681C69.3128 25.6661 68.737 25.5429 68.4885 25.4808Z" fill="white"/>
</g>
<path id="Vector_7" d="M28.1828 111.475C27.368 111.271 25.7713 111.177 24.0554 111.191C23.9908 109.054 23.8311 105.737 23.4007 105.67C23.0113 105.608 22.8924 106.166 22.8324 106.406C22.7968 106.55 22.7634 106.725 22.7328 106.925C22.7307 106.814 22.5671 106.742 22.5027 106.862C21.8874 108.006 21.87 109.325 21.9755 110.603C21.9596 110.561 21.9226 110.529 21.8643 110.529C21.138 110.533 20.1947 110.55 19.6219 111.062C19.5024 111.17 19.6788 111.345 19.7978 111.238C20.3139 110.776 21.2112 110.782 21.8644 110.777C21.933 110.777 21.972 110.732 21.9818 110.679C21.9986 110.873 22.0179 111.066 22.0382 111.258C20.3578 111.355 18.8115 111.558 18.0313 111.865C16.8652 112.324 18.3537 112.793 18.847 112.849C19.4637 112.92 20.9612 112.919 22.5085 112.892C22.5457 114.267 22.6376 115.584 22.792 116.556C22.4784 115.444 22.2944 114.305 22.4031 113.139C22.4177 112.98 22.1689 112.981 22.1542 113.139C22.0079 114.715 22.3881 116.252 22.9046 117.73C22.9369 117.822 23.0394 117.833 23.1018 117.793C23.5511 118.819 24.0004 117.386 24.0556 116.904C24.2058 115.597 24.1669 114.251 24.0998 112.942C24.099 112.924 24.098 112.894 24.0969 112.855C24.2589 112.85 24.4179 112.846 24.5732 112.841C24.5505 112.893 24.5577 112.959 24.6193 112.998C25.5071 113.567 26.5258 113.208 27.4491 112.928C27.5638 112.893 27.5558 112.749 27.4801 112.699C28.1048 112.622 28.8557 112.449 28.9198 112.043C28.9812 111.654 28.4233 111.535 28.1828 111.475ZM22.4896 111.234C22.4213 111.237 22.3532 111.241 22.2853 111.244C22.1326 109.822 22.0223 108.279 22.7175 106.988C22.7215 106.98 22.7243 106.973 22.7268 106.965C22.5798 107.955 22.496 109.552 22.4896 111.234ZM24.8278 112.833C25.6578 112.807 26.3508 112.779 26.7232 112.761C26.8354 112.755 27.0366 112.745 27.2729 112.722C26.4755 112.969 25.5993 113.268 24.8278 112.833Z" fill="white"/>
<path id="Vector_8" d="M86.5999 19.3416C85.5355 18.7857 85.1077 17.8172 85.3228 16.6475C85.352 16.4897 85.1111 16.4225 85.0816 16.581C84.8466 17.86 85.3049 18.9468 86.4737 19.5573C86.6162 19.6323 86.7427 19.4165 86.5999 19.3416Z" fill="white"/>
<path id="Vector_9" d="M87.6005 17.6737C87.289 17.5132 87.0553 17.2792 86.8952 16.9682C86.8207 16.8246 86.6051 16.9513 86.6788 17.0944C86.8573 17.4402 87.1284 17.7114 87.4742 17.8897C87.6175 17.9637 87.7437 17.7478 87.6005 17.6737Z" fill="white"/>
<path id="Vector_10" d="M120.438 116.811C120.066 116.616 119.623 116.502 119.108 116.502C118.284 116.502 117.647 116.784 117.194 117.223C117.142 117.183 117.072 117.175 117.001 117.228C114.741 118.946 116.449 123.76 119.458 122.582C119.613 122.521 119.617 122.332 119.532 122.244C121.431 122 122.172 120.13 121.783 118.589C121.836 118.671 121.887 118.754 121.935 118.838C122.057 119.054 122.389 118.86 122.267 118.644C121.84 117.889 121.217 117.186 120.438 116.811ZM116.37 118.949C116.176 120.521 117.104 122.271 119.108 122.271C119.134 122.271 119.16 122.27 119.187 122.269C117.312 122.849 116.042 120.665 116.37 118.949ZM118.558 120.796C117.063 120.184 117.443 117.869 119.107 117.869C121.502 117.869 120.676 121.662 118.558 120.796Z" fill="white"/>
<path id="Vector_11" d="M117.716 70.7004C117.294 69.8853 116.654 69.3484 115.742 69.1822C115.671 69.1694 115.612 69.1887 115.567 69.2246C115.554 69.2237 115.543 69.2212 115.531 69.2205C114.399 69.1592 113.437 69.7777 113.063 70.7599C113.034 70.5848 112.725 70.5377 112.64 70.7513C112.047 72.2274 112.882 73.7831 114.351 74.28C114.467 74.3192 114.553 74.2595 114.59 74.1732C114.839 74.2627 115.098 74.3164 115.357 74.3279C116.469 74.3778 117.571 73.6928 117.726 72.122C117.764 71.7379 117.726 71.3528 117.623 70.9926C117.717 70.94 117.78 70.824 117.716 70.7004ZM112.928 71.2802C112.91 71.3973 112.897 71.5162 112.895 71.64C112.891 71.8888 112.919 72.1201 112.967 72.3369C112.871 72.0029 112.854 71.6436 112.928 71.2802ZM115.882 72.5792C115.921 72.4912 115.905 72.3843 115.793 72.3282C115.499 72.1807 115.222 72.0249 114.984 71.7935C114.787 71.6019 114.485 71.9029 114.683 72.0948C114.947 72.3513 115.251 72.5324 115.578 72.6963C115.61 72.7122 115.642 72.7197 115.672 72.7203C115.496 72.7979 115.287 72.802 115.052 72.6928C114.154 72.2748 114.235 70.6928 115.338 70.6609C115.367 70.66 115.394 70.6604 115.421 70.6616C116.443 70.7098 116.435 72.0634 115.882 72.5792Z" fill="white"/>
<g id="Group_5">
<path id="Vector_12" d="M24.0559 75.6909C21.2956 75.6909 19.8144 79.5519 22.127 81.2718C22.7464 81.733 23.4164 81.9045 24.0571 81.8631C26.2544 81.7209 28.1111 79.0712 26.4424 76.9719C25.8745 76.2568 24.992 75.6909 24.0559 75.6909ZM23.1265 79.4441C22.5756 78.5735 22.9204 77.4465 24.0556 77.4465C24.7818 77.4468 25.3728 78.0375 25.3728 78.7637C25.3727 80.028 23.7517 80.4331 23.1265 79.4441Z" fill="white"/>
</g>
<g id="Group_6">
<path id="Vector_13" d="M135.634 43.7442C135.512 43.7235 135.411 43.7526 135.325 43.8115C135.284 43.8021 135.24 43.813 135.203 43.856C134.378 44.8265 134.019 46.1613 134.103 47.4209C134.115 47.6055 134.404 47.6068 134.391 47.4209C134.337 46.5955 134.477 45.7269 134.831 44.967C134.21 47.7671 134.225 51.2281 135.212 53.9298C135.835 55.6334 136.47 53.4588 136.547 52.7381C136.75 50.83 136.697 48.8646 136.606 46.9531C136.578 46.3364 136.469 43.8863 135.634 43.7442Z" fill="white"/>
<path id="Vector_14" d="M139.622 48.3092C137 47.6547 133.72 47.6527 131.169 48.6574C130.268 49.0119 130.535 49.3703 131.055 49.6276C131.066 49.6401 131.079 49.652 131.096 49.6616C131.765 50.0342 132.505 50.3419 133.285 50.2586C133.382 50.2484 133.427 50.1639 133.423 50.0889C133.619 50.1001 133.815 50.1099 134.012 50.1166C134.054 51.5382 134.403 52.9314 134.989 54.2271C135.065 54.3964 135.314 54.2496 135.238 54.0815C134.675 52.8362 134.343 51.4912 134.3 50.1249C135.232 50.146 136.167 50.1203 137.092 50.0784C137.089 50.0897 137.086 50.1014 137.085 50.1143C136.983 51.4958 136.808 52.901 136.239 54.1778C136.164 54.3462 136.413 54.4931 136.488 54.3234C137.08 52.997 137.267 51.5505 137.374 50.1143C137.375 50.0961 137.372 50.0801 137.368 50.0657C137.46 50.0611 137.552 50.0569 137.643 50.0522C138.215 50.023 140.489 49.9149 140.621 49.0799C140.704 48.552 139.948 48.3906 139.622 48.3092Z" fill="white"/>
</g>
<g id="Group_7">
<path id="Vector_15" d="M61.1724 129.755C60.6397 129.664 60.4773 130.486 60.395 130.841C59.7343 133.692 59.7322 137.26 60.7462 140.034C61.3746 141.753 62.0159 139.559 62.0933 138.831C62.2985 136.906 62.2453 134.922 62.1536 132.993C62.1243 132.371 62.0152 129.898 61.1724 129.755Z" fill="white"/>
<path id="Vector_16" d="M65.2861 134.596C65.3673 134.532 65.3919 134.4 65.2731 134.346C64.5551 134.015 63.7628 134.008 62.9924 133.905C62.8327 133.883 62.8022 134.078 62.8958 134.172C60.7616 133.96 58.4673 134.155 56.5716 134.901C56.0181 135.119 55.9026 135.339 56.0147 135.536C56.0141 135.572 56.0293 135.609 56.0669 135.641C56.9678 136.398 58.0632 136.811 59.1766 137.149C59.3711 137.208 59.4538 136.905 59.2602 136.846C59.1195 136.803 58.9791 136.759 58.839 136.713C58.8263 136.69 58.8054 136.668 58.7735 136.652C58.5259 136.529 58.2778 136.408 58.0305 136.284C58.4745 136.327 58.9212 136.355 59.3695 136.372C59.3076 137.486 59.7151 138.626 60.2357 139.593C60.3318 139.771 60.6032 139.613 60.5072 139.434C60.0135 138.518 59.6289 137.437 59.6834 136.381C60.827 136.409 61.9764 136.367 63.1058 136.309C63.683 136.28 65.9775 136.17 66.1105 135.327C66.1814 134.879 65.6514 134.693 65.2861 134.596Z" fill="white"/>
</g>
<path id="Vector_17" d="M119.505 120.018C118.96 119.778 118.293 119.39 118.438 118.696C118.489 118.454 118.118 118.351 118.067 118.593C117.883 119.478 118.578 120.027 119.31 120.35C119.535 120.449 119.731 120.117 119.505 120.018Z" fill="white"/>
<path id="Vector_18" d="M22.8636 82.1064C21.2177 81.2468 20.5561 79.7492 20.8891 77.9399C20.9341 77.6961 20.561 77.5916 20.516 77.8372C20.1522 79.8151 20.8605 81.4964 22.6684 82.4404C22.8894 82.5557 23.0849 82.222 22.8636 82.1064Z" fill="white"/>
<path id="Vector_19" d="M24.411 79.5269C23.9299 79.2786 23.5682 78.9171 23.3201 78.4355C23.2055 78.2136 22.8714 78.4094 22.986 78.6309C23.2617 79.1657 23.681 79.5852 24.2161 79.861C24.4375 79.9749 24.6332 79.6415 24.411 79.5269Z" fill="white"/>
<path id="Vector_20" d="M23.9268 74.8581C23.6771 74.8488 23.6782 75.2357 23.9268 75.2449C25.1336 75.2886 26.2091 76.1034 26.8546 77.0832C26.9912 77.2907 27.3264 77.0972 27.1887 76.8878C26.4659 75.79 25.2756 74.9066 23.9268 74.8581Z" fill="white"/>
<path id="Vector_21" d="M58.6722 130.523C58.1589 131.498 58.0283 132.554 58.0218 133.643C58.0205 133.845 58.335 133.845 58.3363 133.643C58.3427 132.61 58.4568 131.607 58.9438 130.682C59.038 130.503 58.7669 130.344 58.6722 130.523Z" fill="white"/>
<g id="Group_8">
<path id="Vector_22" d="M36.9972 50.1323C35.4192 50.1323 34.5722 52.3396 35.8945 53.3231C36.2487 53.5866 36.6316 53.6848 36.998 53.6611C38.2542 53.5798 39.3158 52.0647 38.3617 50.8647C38.0369 50.4563 37.5324 50.1323 36.9972 50.1323ZM36.4658 52.2781C36.151 51.7804 36.3481 51.1362 36.9971 51.1362C37.4123 51.1363 37.7501 51.4741 37.7501 51.8892C37.7501 52.6121 36.8234 52.8436 36.4658 52.2781Z" fill="white"/>
</g>
<path id="Vector_23" d="M36.3156 53.8002C35.3747 53.3087 34.9964 52.4525 35.1868 51.4183C35.2124 51.279 34.9993 51.2194 34.9734 51.3595C34.7654 52.4903 35.1703 53.4515 36.204 53.9913C36.3302 54.0572 36.442 53.8664 36.3156 53.8002Z" fill="white"/>
<path id="Vector_24" d="M37.2002 52.3254C36.9252 52.1836 36.7182 51.9767 36.5764 51.7016C36.511 51.5747 36.3201 51.6866 36.3853 51.8131C36.543 52.1188 36.7827 52.3586 37.0887 52.5166C37.2153 52.5815 37.3271 52.3908 37.2002 52.3254Z" fill="white"/>
<path id="Vector_25" d="M36.9233 49.6561C36.7806 49.6508 36.7811 49.872 36.9233 49.8773C37.6134 49.9023 38.2284 50.3681 38.5974 50.9283C38.6754 51.047 38.867 50.9361 38.7883 50.8168C38.375 50.189 37.6945 49.684 36.9233 49.6561Z" fill="white"/>
<g id="Group_9">
<g id="Group_10">
<path id="Vector_26" d="M140.849 109.685C139.219 109.685 138.344 112.09 139.71 113.161C140.076 113.449 140.471 113.555 140.85 113.53C142.147 113.441 143.244 111.79 142.259 110.483C141.923 110.037 141.402 109.685 140.849 109.685ZM140.3 112.023C139.975 111.481 140.178 110.778 140.849 110.779C141.278 110.779 141.627 111.147 141.627 111.599C141.627 112.386 140.67 112.639 140.3 112.023Z" fill="white"/>
</g>
<path id="Vector_27" d="M140.145 113.681C139.173 113.145 138.782 112.213 138.979 111.086C139.005 110.934 138.785 110.869 138.758 111.022C138.543 112.254 138.962 113.301 140.03 113.889C140.16 113.961 140.275 113.753 140.145 113.681Z" fill="white"/>
<path id="Vector_28" d="M141.059 112.075C140.775 111.92 140.561 111.695 140.414 111.395C140.347 111.257 140.15 111.379 140.217 111.517C140.38 111.85 140.628 112.111 140.944 112.283C141.074 112.354 141.19 112.146 141.059 112.075Z" fill="white"/>
<path id="Vector_29" d="M140.773 109.166C140.625 109.16 140.626 109.401 140.773 109.407C141.486 109.435 142.121 109.942 142.502 110.552C142.583 110.681 142.781 110.561 142.699 110.431C142.272 109.747 141.57 109.197 140.773 109.166Z" fill="white"/>
</g>
<g id="Group_11">
<path id="Vector_30" d="M98.8397 79.363C97.1371 79.363 96.2237 81.744 97.6502 82.8052C98.0324 83.0894 98.4455 83.1954 98.8404 83.1697C100.196 83.0818 101.341 81.4476 100.312 80.153C99.9614 79.712 99.4174 79.363 98.8397 79.363ZM98.2665 81.6778C97.9271 81.141 98.1395 80.4456 98.8395 80.4459C99.2876 80.4459 99.6523 80.8104 99.6523 81.2583C99.6521 82.038 98.6526 82.2877 98.2665 81.6778Z" fill="white"/>
</g>
<path id="Vector_31" d="M98.1042 83.3196C97.0891 82.7894 96.6812 81.8655 96.8864 80.75C96.9142 80.5994 96.6841 80.5352 96.6563 80.6864C96.4318 81.9064 96.8687 82.9432 97.9838 83.5256C98.1202 83.5967 98.2408 83.3911 98.1042 83.3196Z" fill="white"/>
<path id="Vector_32" d="M99.0589 81.729C98.7623 81.5759 98.5389 81.3527 98.3856 81.0558C98.3152 80.919 98.1094 81.0398 98.1795 81.1762C98.3499 81.506 98.6086 81.765 98.9382 81.9349C99.0749 82.0054 99.1957 81.7995 99.0589 81.729Z" fill="white"/>
<path id="Vector_33" d="M98.76 78.8492C98.606 78.8436 98.6065 79.0824 98.76 79.0881C99.5044 79.1153 100.168 79.6175 100.566 80.2222C100.65 80.35 100.857 80.2305 100.772 80.1018C100.326 79.4244 99.5921 78.8798 98.76 78.8492Z" fill="white"/>
<path id="Vector_34" d="M87.1606 124.173C86.7857 123.448 86.2167 122.971 85.406 122.823C85.3431 122.812 85.2903 122.829 85.2501 122.861C85.2393 122.86 85.2292 122.858 85.2179 122.857C84.2124 122.803 83.3572 123.353 83.0247 124.226C82.9991 124.07 82.7245 124.028 82.6484 124.218C82.1215 125.53 82.8636 126.913 84.1693 127.355C84.2724 127.389 84.3493 127.336 84.3824 127.26C84.603 127.339 84.8333 127.387 85.0632 127.397C86.052 127.442 87.0314 126.833 87.1695 125.437C87.203 125.095 87.1693 124.753 87.0776 124.433C87.1611 124.386 87.2173 124.283 87.1606 124.173ZM82.904 124.688C82.8885 124.792 82.8769 124.898 82.8753 125.008C82.8719 125.229 82.8964 125.435 82.9394 125.627C82.8544 125.33 82.8387 125.011 82.904 124.688ZM85.53 125.843C85.5646 125.764 85.5509 125.669 85.4511 125.62C85.1893 125.488 84.9435 125.35 84.732 125.144C84.5568 124.974 84.289 125.242 84.464 125.412C84.6988 125.64 84.9695 125.801 85.26 125.947C85.2887 125.961 85.3167 125.967 85.3435 125.968C85.1871 126.037 85.0011 126.041 84.7921 125.944C83.9941 125.572 84.0661 124.166 85.047 124.138C85.0723 124.137 85.0965 124.137 85.1207 124.138C86.0293 124.181 86.0222 125.384 85.53 125.843Z" fill="white"/>
</g>
</g>
<g id="Group 10">
<g id="Group_12">
<path id="Vector_35" d="M127.894 69.6713C127.894 73.544 126.689 77.1357 124.633 80.091C124.611 80.1238 124.588 80.1559 124.565 80.1887C124.543 80.2201 124.52 80.2523 124.497 80.2837C123.053 82.3041 121.207 84.018 119.076 85.3089C119.04 85.331 119.003 85.3537 118.965 85.3751C118.926 85.3992 118.886 85.4227 118.846 85.4461C118.464 85.6696 118.074 85.8797 117.675 86.0758C117.65 86.0885 117.625 86.1006 117.6 86.1126C117.573 86.1253 117.548 86.138 117.522 86.1501C115.131 87.2978 112.453 87.9409 109.624 87.9409C106.406 87.9409 103.381 87.1084 100.755 85.6475C100.714 85.6248 100.674 85.602 100.634 85.5793C100.597 85.5585 100.56 85.5371 100.523 85.5157C98.9076 84.5861 97.4474 83.4157 96.1919 82.0545C96.1712 82.0324 96.1511 82.0103 96.1303 81.9876C96.1109 81.9661 96.0909 81.9447 96.0714 81.9226C94.4359 80.1144 93.157 77.9776 92.3466 75.6226C92.3352 75.5905 92.3245 75.559 92.3131 75.5269C92.3024 75.4941 92.291 75.4607 92.2803 75.4279C91.68 73.6176 91.3548 71.6823 91.3548 69.6713C91.3548 59.8123 99.1652 51.7764 108.936 51.4143C109.164 51.4056 109.394 51.4016 109.624 51.4016C119.714 51.4016 127.894 59.5815 127.894 69.6713Z" fill="white"/>
</g>
<g id="Group_13">
<path id="Vector_36" d="M107.627 118.265H70.6608C68.6577 118.265 67.0339 116.642 67.0339 114.639V42.0621C67.0339 40.0591 68.6577 38.4353 70.6608 38.4353H107.627C109.63 38.4353 111.254 40.0591 111.254 42.0621V114.639C111.254 116.642 109.63 118.265 107.627 118.265Z" fill="white"/>
</g>
<g id="Group_14">
<path id="Vector_37" d="M107.627 118.366H70.6606C68.6054 118.366 66.9334 116.694 66.9334 114.639V42.0624C66.9334 40.0072 68.6054 38.3352 70.6606 38.3352H107.627C109.682 38.3352 111.354 40.0072 111.354 42.0624V114.639C111.354 116.694 109.682 118.366 107.627 118.366ZM70.6606 38.536C68.7161 38.536 67.1342 40.1179 67.1342 42.0624V114.639C67.1342 116.583 68.7161 118.165 70.6606 118.165H107.627C109.572 118.165 111.153 116.583 111.153 114.639V42.0624C111.153 40.1179 109.571 38.536 107.627 38.536H70.6606Z" fill="#404040"/>
</g>
<g id="Group_15">
<path id="Vector_38" d="M106.276 116.1H72.0119C70.5339 116.1 69.3315 114.898 69.3315 113.42V43.2812C69.3315 41.8032 70.5339 40.6008 72.0119 40.6008H106.276C107.754 40.6008 108.956 41.8032 108.956 43.2812V113.42C108.956 114.898 107.754 116.1 106.276 116.1ZM72.0119 40.8016C70.6446 40.8016 69.5322 41.914 69.5322 43.2812V113.42C69.5322 114.787 70.6446 115.899 72.0119 115.899H106.276C107.643 115.899 108.756 114.787 108.756 113.42V43.2812C108.756 41.9139 107.643 40.8016 106.276 40.8016H72.0119Z" fill="#404040"/>
</g>
<g id="Group_16">
<path id="Vector_39" d="M93.5899 43.2939H83.6666V43.4947H93.5899V43.2939Z" fill="#404040"/>
</g>
<g id="Group_17">
<path id="Vector_40" d="M104.321 77.2656C108.643 73.4461 110.599 68.598 108.689 66.4371C106.779 64.2761 101.727 65.6207 97.4055 69.4402C93.0836 73.2596 91.1282 78.1077 93.0379 80.2687C94.9477 82.4296 99.9994 81.0851 104.321 77.2656Z" fill="#019935"/>
</g>
<g id="Group_18">
<path id="Vector_41" d="M103.646 77.7011C103.643 77.7475 103.642 77.794 103.64 77.8405C103.676 77.8106 103.711 77.7816 103.747 77.7525C103.749 77.7052 103.75 77.6588 103.754 77.6123C103.718 77.6413 103.681 77.6712 103.646 77.7011ZM108.859 66.4716C108.836 66.4434 108.813 66.4152 108.789 66.3878C108.782 66.3795 108.775 66.3712 108.768 66.3638C108.753 66.3472 108.739 66.3306 108.724 66.3149C107.763 65.2795 106.064 65.0223 103.926 65.5914C101.78 66.163 99.4393 67.5005 97.3378 69.3581C96.2833 70.2898 95.3516 71.297 94.58 72.3291C93.8126 73.3555 93.2036 74.4066 92.7896 75.4337C91.9492 77.5179 92.0106 79.2576 92.9613 80.3337C93.5869 81.0414 94.5443 81.4023 95.744 81.4023C96.3687 81.4023 97.0598 81.3044 97.8033 81.107C98.3359 80.9651 98.8794 80.7759 99.4294 80.5445C100.833 79.9505 102.272 79.0734 103.636 77.9767C103.671 77.9476 103.707 77.9194 103.742 77.8904C103.778 77.8614 103.813 77.8323 103.849 77.8025C104.031 77.6523 104.212 77.498 104.392 77.3395C106.494 75.4819 108.109 73.3239 108.94 71.2639C109.753 69.2485 109.722 67.5543 108.859 66.4716ZM103.861 77.5219C103.825 77.5526 103.789 77.5824 103.754 77.6123C103.718 77.6413 103.681 77.6712 103.646 77.7011C102.203 78.8817 100.7 79.7876 99.28 80.3808C96.6359 81.4859 94.2755 81.5067 93.1173 80.1967C91.7293 78.6269 92.4502 75.5804 94.6621 72.5704C95.4287 71.5267 96.3754 70.4863 97.4755 69.5139C100.378 66.9486 103.615 65.5025 105.979 65.5025C107.067 65.5025 107.971 65.8087 108.57 66.4558C108.585 66.4707 108.598 66.4857 108.612 66.5015C108.62 66.5097 108.627 66.5189 108.634 66.528C108.659 66.5554 108.683 66.5836 108.704 66.6127C109.511 67.6348 109.527 69.251 108.746 71.1866C107.928 73.2169 106.332 75.3466 104.254 77.1834C104.124 77.2987 103.993 77.4115 103.861 77.5219Z" fill="#404040"/>
</g>
<g id="Group_19">
<path id="Vector_42" d="M125.969 85.5755C125.937 85.5913 125.906 85.607 125.873 85.6219C126.125 85.9712 126.388 86.2981 126.661 86.6026C126.678 86.5711 126.695 86.5379 126.713 86.5055C126.458 86.2192 126.21 85.9081 125.969 85.5755ZM125.198 67.9459C125.176 67.9185 125.154 67.892 125.131 67.8654C125.109 67.838 125.087 67.8115 125.064 67.7841C123.943 66.4475 122.611 65.3639 121.135 64.6115L121.07 64.5791C121.022 64.5542 120.974 64.5301 120.925 64.5069C120.925 64.5069 120.925 64.5077 120.924 64.5069C120.874 64.482 120.823 64.4579 120.772 64.4347C119.369 63.7817 117.845 63.4233 116.251 63.4233C114.558 63.4233 112.944 63.8274 111.47 64.5591C111.402 64.5931 111.334 64.628 111.267 64.6629C111.223 64.6861 111.179 64.7093 111.135 64.7325C111.114 64.7442 111.093 64.7558 111.072 64.7674C110.261 65.2104 109.496 65.7547 108.789 66.3877C108.763 66.4101 108.737 66.4341 108.711 66.4574C108.685 66.4807 108.659 66.5039 108.634 66.528C105.83 69.1157 103.963 73.0981 103.754 77.6123C103.75 77.6587 103.749 77.7052 103.747 77.7525C103.745 77.7981 103.744 77.8438 103.742 77.8902C103.736 78.0819 103.733 78.2752 103.733 78.4685C103.733 80.775 104.164 82.9603 104.937 84.9141C104.987 84.9424 105.036 84.9706 105.086 84.9988C108.343 86.81 112.093 87.842 116.083 87.842C119.589 87.842 122.91 87.0447 125.873 85.6218C126.126 85.9711 126.389 86.298 126.661 86.6025C126.67 86.6133 126.68 86.6249 126.69 86.6357C126.706 86.6531 126.721 86.6706 126.738 86.688C126.755 86.6556 126.773 86.6241 126.79 86.5917C126.79 86.5917 126.79 86.5917 126.79 86.5909C126.808 86.5586 126.825 86.5262 126.842 86.493C127.149 85.9081 127.424 85.2967 127.663 84.6611C128.373 82.772 128.769 80.6754 128.769 78.4685C128.769 74.3725 127.407 70.6589 125.198 67.9459Z" fill="#019935"/>
</g>
<g id="Group_20">
<path id="Vector_43" d="M108.711 66.4573C108.685 66.4806 108.659 66.5038 108.635 66.5279C108.659 66.5553 108.683 66.5835 108.704 66.6125C108.73 66.5884 108.756 66.5652 108.781 66.542C108.759 66.513 108.736 66.4847 108.711 66.4573ZM103.747 77.7524C103.745 77.798 103.744 77.8437 103.742 77.8901C103.778 77.8611 103.813 77.832 103.849 77.8022C103.851 77.7558 103.852 77.7093 103.855 77.6628C103.857 77.6155 103.859 77.569 103.861 77.5217C103.825 77.5524 103.789 77.5823 103.754 77.6121C103.75 77.6586 103.749 77.7051 103.747 77.7524ZM125.282 67.8952C125.26 67.8678 125.238 67.8404 125.215 67.8138C125.193 67.7865 125.171 67.7599 125.148 67.7333C124.024 66.391 122.691 65.2999 121.213 64.5392C121.188 64.5267 121.163 64.5135 121.138 64.501C121.118 64.4902 121.096 64.4803 121.075 64.4695C121.027 64.4455 120.978 64.4214 120.929 64.399C119.604 63.7618 118.169 63.3868 116.668 63.3279C116.53 63.3221 116.39 63.3196 116.251 63.3196C116.112 63.3196 115.972 63.3221 115.834 63.3279C114.211 63.3918 112.664 63.824 111.251 64.5591C111.211 64.5799 111.169 64.6014 111.129 64.6238C111.105 64.6363 111.08 64.6495 111.057 64.6628C110.993 64.6968 110.93 64.7317 110.868 64.7674C110.109 65.1988 109.391 65.7182 108.724 66.3147C108.699 66.3379 108.673 66.3611 108.647 66.3852C108.621 66.4076 108.596 66.4316 108.57 66.4557C105.726 69.0808 103.837 73.1271 103.646 77.701C103.643 77.7475 103.642 77.794 103.64 77.8404C103.638 77.886 103.637 77.9308 103.636 77.9765C103.632 78.1399 103.629 78.3042 103.629 78.4685C103.629 80.7409 104.048 82.8989 104.799 84.8353C104.845 84.8618 104.891 84.8883 104.937 84.9141C104.987 84.9424 105.036 84.9705 105.086 84.9988C104.286 83.025 103.837 80.809 103.837 78.4685C103.837 78.2453 103.841 78.0229 103.849 77.8022C103.851 77.7558 103.852 77.7094 103.855 77.6629C103.857 77.6156 103.859 77.569 103.861 77.5217C104.093 73.0839 105.941 69.1663 108.704 66.6125C108.73 66.5884 108.756 66.5652 108.781 66.542C108.807 66.518 108.834 66.4947 108.859 66.4715C109.568 65.8376 110.335 65.2917 111.147 64.8486C111.197 64.8212 111.248 64.7947 111.299 64.7673C111.367 64.7316 111.435 64.6968 111.504 64.6628C111.574 64.6271 111.645 64.593 111.716 64.559C113.121 63.8928 114.651 63.527 116.251 63.527C117.778 63.527 119.241 63.8605 120.593 64.4703C120.647 64.4943 120.701 64.5193 120.755 64.545C120.807 64.569 120.857 64.5931 120.908 64.618C120.983 64.6545 121.056 64.691 121.129 64.7292C122.57 65.4734 123.872 66.537 124.972 67.8454C124.995 67.8719 125.017 67.8984 125.04 67.9259C125.062 67.9524 125.084 67.9789 125.105 68.0055C127.306 70.7027 128.665 74.3981 128.665 78.4684C128.665 80.7102 128.253 82.8383 127.515 84.749C127.294 85.3223 127.042 85.8756 126.765 86.4066C126.748 86.4398 126.731 86.473 126.713 86.5053C126.696 86.5376 126.678 86.5708 126.661 86.6024C126.67 86.6132 126.68 86.6248 126.69 86.6356C126.706 86.653 126.721 86.6705 126.738 86.6879C126.761 86.7136 126.784 86.7393 126.809 86.765C126.826 86.7327 126.843 86.7003 126.861 86.668C126.878 86.6356 126.896 86.6033 126.912 86.5709C127.248 85.937 127.546 85.2716 127.801 84.5789C128.49 82.7088 128.874 80.6413 128.874 78.4684C128.873 74.3591 127.503 70.6272 125.282 67.8952Z" fill="#404040"/>
</g>
<g id="Group_21">
<path id="Vector_44" d="M116.082 87.9423C112.216 87.9423 108.396 86.9547 105.037 85.0863L104.887 85.0013C104.841 84.9755 104.794 84.9488 104.748 84.9219C101.784 83.1977 99.3799 80.6383 99.356 80.6126C99.3197 80.5733 99.2913 80.5424 99.279 80.5288L99.4272 80.3935L99.5031 80.476C99.5266 80.5011 101.912 83.0395 104.849 84.7483C104.895 84.7748 104.941 84.801 104.986 84.8265L105.135 84.9112C108.464 86.7627 112.25 87.7415 116.082 87.7415C119.496 87.7415 122.775 86.9978 125.83 85.5312C125.856 85.519 125.881 85.507 125.905 85.4948L125.925 85.4851C125.957 85.4699 125.988 85.4553 126.018 85.4398C126.506 85.1998 126.993 84.9384 127.464 84.6623C127.513 84.6335 127.562 84.6048 127.611 84.5753C127.645 84.5557 127.676 84.5367 127.707 84.5178L127.749 84.4927C130.39 82.8926 132.641 80.8058 134.439 78.2906C134.467 78.2514 134.495 78.2121 134.523 78.1734L134.557 78.1249C134.573 78.1013 134.59 78.0778 134.606 78.0539C137.24 74.2674 138.632 69.8203 138.632 65.1921C138.632 52.7583 128.516 42.6427 116.082 42.6427C115.791 42.6427 115.505 42.6479 115.232 42.6583C103.065 43.1092 93.533 53.0072 93.533 65.1921C93.533 67.6209 93.9173 70.0114 94.6753 72.2973L94.7158 72.4199L94.5254 72.4834L94.4847 72.3605C93.7199 70.0542 93.3322 67.6424 93.3322 65.1921C93.3322 59.2649 95.5993 53.653 99.716 49.3901C103.822 45.1381 109.33 42.6761 115.225 42.4577C115.5 42.4472 115.789 42.4419 116.082 42.4419C122.159 42.4419 127.872 44.8084 132.169 49.1054C136.466 53.4024 138.833 59.1155 138.833 65.1921C138.833 69.8615 137.428 74.3483 134.772 78.1673C134.756 78.1912 134.738 78.216 134.72 78.2409L134.687 78.2882C134.659 78.3281 134.631 78.3683 134.602 78.4077C132.789 80.9448 130.518 83.0501 127.853 84.6647L127.811 84.6896C127.779 84.7094 127.746 84.7292 127.713 84.7481C127.666 84.7769 127.615 84.8063 127.565 84.8357C127.09 85.114 126.599 85.3779 126.108 85.6197C126.076 85.6355 126.045 85.6508 126.012 85.666L125.994 85.6751C125.968 85.688 125.942 85.7008 125.915 85.7129C122.835 87.192 119.526 87.9423 116.082 87.9423Z" fill="#404040"/>
</g>
<g id="Group_22">
<path id="Vector_45" d="M111.852 51.2134H118.814V49.7624C118.814 48.5884 117.862 47.6367 116.688 47.6367H113.977C112.803 47.6367 111.852 48.5884 111.852 49.7624L111.852 51.2134Z" fill="#404040"/>
</g>
<g id="Group_23">
<path id="Vector_46" d="M114.499 49.8887H116.168V45.3583H114.499V49.8887Z" fill="#404040"/>
</g>
<g id="Group_24">
<path id="Vector_47" d="M115.678 45.7474C116.703 45.5053 117.338 44.4779 117.096 43.4526C116.854 42.4273 115.827 41.7925 114.801 42.0345C113.776 42.2766 113.141 43.304 113.383 44.3293C113.625 45.3546 114.653 45.9895 115.678 45.7474Z" fill="#019935"/>
</g>
<g id="Group_25">
<path id="Vector_48" d="M115.244 41.886C115.21 41.886 115.176 41.8868 115.141 41.8885C114.08 41.9424 113.233 42.8235 113.233 43.8971C113.233 44.7085 113.716 45.4096 114.41 45.7273C114.665 45.8443 114.947 45.909 115.244 45.909C115.542 45.909 115.824 45.8443 116.079 45.7273C116.773 45.4096 117.256 44.7085 117.256 43.8971C117.256 42.7887 116.354 41.886 115.244 41.886ZM116.079 45.495C115.829 45.6269 115.546 45.7007 115.244 45.7007C114.943 45.7007 114.66 45.6269 114.41 45.495C113.834 45.1939 113.441 44.5907 113.441 43.8971C113.441 42.9031 114.25 42.0942 115.244 42.0942C116.238 42.0942 117.048 42.9031 117.048 43.8971C117.048 44.5907 116.655 45.1939 116.079 45.495Z" fill="#404040"/>
</g>
<g id="Group_26">
<path id="Vector_49" d="M105.885 61.2772C107.137 61.2772 108.151 60.2631 108.151 59.0121V56.2461C108.151 54.9951 107.137 53.981 105.885 53.981C104.634 53.981 103.62 54.9951 103.62 56.2461V59.0121C103.62 60.2631 104.634 61.2772 105.885 61.2772Z" fill="#404040"/>
</g>
<g id="Group_27">
<path id="Vector_50" d="M114.674 68.0012H117.59C119.55 68.0012 121.139 66.4122 121.139 64.452V62.374H111.124V64.452C111.124 66.4122 112.713 68.0012 114.674 68.0012Z" fill="#404040"/>
</g>
<g id="Group_28">
<path id="Vector_51" d="M110.585 64.6631H119.58C122.811 64.6631 125.431 62.0435 125.431 58.8121V55.0153C125.431 51.7839 122.811 49.1643 119.58 49.1643H110.585C107.354 49.1643 104.734 51.7838 104.734 55.0153V58.8121C104.734 62.0435 107.354 64.6631 110.585 64.6631Z" fill="#019935"/>
</g>
<g id="Group_29">
<path id="Vector_52" d="M125.447 53.9941C124.961 51.1948 122.515 49.0601 119.58 49.0601H110.585C107.531 49.0601 105.008 51.3707 104.669 54.335C104.644 54.5582 104.63 54.7856 104.63 55.0154V58.8119C104.63 59.6375 104.799 60.4239 105.104 61.1391C106.011 63.2697 108.127 64.7672 110.585 64.7672H119.58C120.037 64.7672 120.48 64.7157 120.908 64.6178C120.962 64.6054 121.016 64.5921 121.07 64.5788C121.093 64.5722 121.115 64.5664 121.137 64.5598C121.163 64.5539 121.188 64.5465 121.213 64.539C122.934 64.0479 124.338 62.8008 125.043 61.1813C125.359 60.4546 125.535 59.6531 125.535 58.8118V55.0153C125.535 54.667 125.505 54.3259 125.447 53.9941ZM121.139 64.3441C121.07 64.364 121 64.3823 120.929 64.3989C120.877 64.4113 120.825 64.4238 120.772 64.4345C120.713 64.447 120.652 64.4594 120.592 64.4702C120.263 64.5283 119.925 64.559 119.58 64.559H110.585C108.274 64.559 106.277 63.1884 105.366 61.2163C105.027 60.4845 104.838 59.6698 104.838 58.8119V55.0154C104.838 54.7416 104.857 54.472 104.895 54.2081C105.288 51.4196 107.69 49.2683 110.585 49.2683H119.58C122.411 49.2683 124.771 51.3266 125.242 54.0255C125.298 54.3474 125.327 54.6776 125.327 55.0153V58.8118C125.327 59.6299 125.156 60.4081 124.846 61.1125C124.162 62.674 122.802 63.8745 121.139 64.3441Z" fill="#404040"/>
</g>
<g id="Group_30">
<path id="Vector_53" d="M125.693 61.2772C126.944 61.2772 127.958 60.2631 127.958 59.0121V56.2461C127.958 54.9951 126.944 53.981 125.693 53.981C124.442 53.981 123.428 54.9951 123.428 56.2461V59.0121C123.428 60.2631 124.442 61.2772 125.693 61.2772Z" fill="#404040"/>
</g>
<g id="Group_31">
<path id="Vector_54" d="M110.862 63.3276H117.586C120.259 63.3276 122.426 61.1605 122.426 58.4873C122.426 55.814 120.259 53.647 117.586 53.647H110.862C108.189 53.647 106.022 55.8141 106.022 58.4873C106.022 61.1605 108.189 63.3276 110.862 63.3276Z" fill="#DEEDFF"/>
</g>
<g id="Group_32">
<path id="Vector_55" d="M117.024 59.6295C117.511 59.428 117.742 58.87 117.54 58.3834C117.339 57.8967 116.781 57.6656 116.294 57.8672C115.807 58.0688 115.576 58.6267 115.778 59.1134C115.979 59.6 116.537 59.8311 117.024 59.6295Z" fill="#404040"/>
</g>
<g id="Group_33">
<path id="Vector_56" d="M108.909 58.976C109.03 58.4633 108.713 57.9496 108.2 57.8286C107.687 57.7075 107.174 58.025 107.052 58.5376C106.931 59.0502 107.249 59.5639 107.762 59.685C108.274 59.806 108.788 59.4886 108.909 58.976Z" fill="#404040"/>
</g>
<g id="Group_34">
<path id="Vector_57" d="M112.197 61.3726C113.027 61.3726 113.7 60.7001 113.7 59.8704V59.6082H110.695V59.8704C110.695 60.7001 111.368 61.3726 112.197 61.3726Z" fill="#019935"/>
</g>
<g id="Group_35">
<path id="Vector_58" d="M113.7 59.5039H110.695C110.638 59.5039 110.592 59.5503 110.592 59.6084V59.8706C110.592 60.7559 111.312 61.476 112.197 61.476C113.083 61.476 113.803 60.7559 113.803 59.8706V59.6084C113.803 59.5504 113.757 59.5039 113.7 59.5039ZM113.596 59.8706C113.596 60.6414 112.969 61.2686 112.197 61.2686C111.426 61.2686 110.799 60.6414 110.799 59.8706V59.7122H113.596V59.8706Z" fill="#404040"/>
</g>
<g id="Group_36">
<path id="Vector_59" d="M121.08 77.4554C121.08 81.7025 118.3 85.1456 114.869 85.1456C111.438 85.1456 108.657 81.7025 108.657 77.4554C108.657 74.5409 109.967 72.0054 111.898 70.7019C111.984 70.6439 112.071 70.5874 112.16 70.5344C112.979 70.0416 113.898 69.7661 114.869 69.7661C115.505 69.7661 116.119 69.8839 116.696 70.1046C116.854 70.1644 117.008 70.2316 117.16 70.307C119.457 71.4346 121.08 74.2098 121.08 77.4554Z" fill="#DEEDFF"/>
</g>
<g id="Group_37">
<path id="Vector_60" d="M117.16 70.307C117.006 71.8677 115.872 73.0789 114.498 73.0789C113.242 73.0789 112.187 72.0676 111.897 70.7019C111.984 70.6439 112.071 70.5874 112.16 70.5344C112.979 70.0416 113.898 69.7661 114.868 69.7661C115.505 69.7661 116.119 69.8839 116.696 70.1046C116.854 70.1644 117.008 70.2316 117.16 70.307Z" fill="white"/>
</g>
<g id="Group_38">
<path id="Vector_61" d="M131.48 88.6567C134.53 87.8694 135.778 82.4911 134.269 76.644C132.759 70.7969 129.063 66.6952 126.014 67.4826C122.964 68.2699 121.716 73.6482 123.225 79.4953C124.735 85.3424 128.431 89.4441 131.48 88.6567Z" fill="#019935"/>
</g>
<g id="Group_39">
<path id="Vector_62" d="M126.845 86.4972C126.844 86.4955 126.842 86.4947 126.841 86.493C126.816 86.4648 126.79 86.4358 126.764 86.4068C126.523 86.133 126.289 85.8401 126.063 85.5298C126.032 85.5456 126.001 85.5605 125.969 85.5755C126.21 85.9081 126.458 86.2192 126.713 86.5055C126.738 86.5346 126.764 86.5628 126.79 86.591C126.79 86.5918 126.79 86.5918 126.79 86.5918C126.813 86.6175 126.836 86.6433 126.86 86.6682C126.878 86.6358 126.895 86.6034 126.912 86.5711C126.89 86.547 126.867 86.5221 126.845 86.4972ZM134.689 78.1101C134.6 77.6165 134.49 77.1195 134.362 76.6217C133.627 73.7776 132.358 71.2521 130.788 69.509C129.202 67.7493 127.494 66.9951 125.98 67.3859C125.688 67.4614 125.41 67.5776 125.148 67.7336C125.12 67.7494 125.092 67.7668 125.064 67.7842C125.033 67.804 125.002 67.824 124.972 67.8455C123.964 68.5267 123.21 69.8093 122.801 71.5715C122.271 73.8564 122.383 76.6806 123.117 79.5239C123.719 81.856 124.68 83.9742 125.873 85.6219C126.126 85.9712 126.389 86.2981 126.661 86.6026C126.67 86.6133 126.68 86.625 126.69 86.6358C126.705 86.6532 126.721 86.6706 126.738 86.688C126.761 86.7137 126.784 86.7395 126.808 86.7652C128.087 88.1383 129.438 88.8609 130.699 88.8609C130.97 88.8609 131.237 88.8277 131.498 88.7597C133.013 88.3689 134.141 86.883 134.677 84.574C135.115 82.6891 135.115 80.4373 134.689 78.1101ZM126.912 86.5711C126.89 86.547 126.867 86.5221 126.845 86.4972C126.844 86.4956 126.842 86.4948 126.841 86.4931C126.816 86.4648 126.79 86.4359 126.764 86.4068C126.523 86.1331 126.289 85.8402 126.063 85.5299C124.876 83.8988 123.917 81.7939 123.318 79.4725C122.592 76.6608 122.481 73.8714 123.003 71.6181C123.402 69.8999 124.133 68.6545 125.105 68.0057C125.136 67.985 125.166 67.9651 125.198 67.946C125.225 67.9286 125.253 67.9111 125.282 67.8954C125.519 67.7585 125.769 67.6548 126.032 67.5867C126.275 67.5237 126.525 67.493 126.779 67.493C128.019 67.493 129.362 68.2372 130.634 69.6485C132.182 71.3667 133.434 73.8615 134.16 76.6732C134.305 77.2341 134.425 77.7941 134.521 78.3492C134.905 80.5768 134.893 82.724 134.474 84.5277C133.957 86.7562 132.881 88.1882 131.446 88.559C130.031 88.9232 128.424 88.2179 126.912 86.5711Z" fill="#404040"/>
</g>
<g id="Group_40">
<path id="Vector_63" d="M88.7203 66.3955L88.8032 74.2773L80.9276 70.3364L88.7203 66.3955Z" fill="#019935"/>
</g>
<g id="Group_41">
<path id="Vector_64" d="M67.9787 71.4979H80.2577C86.8101 71.4979 92.1219 66.1861 92.1219 59.6337C92.1219 53.0813 86.8101 47.7695 80.2577 47.7695H67.9787C61.4263 47.7695 56.1145 53.0813 56.1145 59.6337C56.1144 66.1861 61.4262 71.4979 67.9787 71.4979Z" fill="#019935"/>
</g>
<g id="Group_42">
<path id="Vector_65" d="M80.2577 71.5983C80.2023 71.5983 80.1573 71.5534 80.1573 71.498C80.1573 71.4425 80.2023 71.3976 80.2577 71.3976C84.3117 71.3976 88.0291 69.3505 90.2018 65.9216C90.2315 65.8747 90.2937 65.861 90.3403 65.8906C90.3871 65.9202 90.4011 65.9823 90.3714 66.0291C88.1617 69.5164 84.3809 71.5983 80.2577 71.5983Z" fill="#404040"/>
</g>
<g id="Group_43">
<path id="Vector_66" d="M83.5588 61.2767C84.466 60.3695 84.466 58.8986 83.5588 57.9914C82.6516 57.0842 81.1808 57.0842 80.2736 57.9914C79.3664 58.8986 79.3664 60.3695 80.2736 61.2767C81.1808 62.1839 82.6516 62.1839 83.5588 61.2767Z" fill="white"/>
</g>
<g id="Group_44">
<path id="Vector_67" d="M75.7602 61.2767C76.6674 60.3695 76.6674 58.8986 75.7602 57.9914C74.853 57.0842 73.3821 57.0842 72.4749 57.9914C71.5677 58.8986 71.5677 60.3695 72.4749 61.2767C73.3821 62.1839 74.853 62.1839 75.7602 61.2767Z" fill="white"/>
</g>
<g id="Group_45">
<path id="Vector_68" d="M68.3951 60.6684C68.9671 59.52 68.4998 58.1254 67.3514 57.5534C66.2029 56.9814 64.8083 57.4487 64.2364 58.5971C63.6644 59.7455 64.1317 61.1402 65.2801 61.7121C66.4285 62.2841 67.8231 61.8168 68.3951 60.6684Z" fill="white"/>
</g>
<g id="Group_46">
<path id="Vector_69" d="M95.7141 103.398H80.6972C76.2983 103.398 72.7324 99.8324 72.7324 95.4335C72.7324 91.0347 76.2983 87.4688 80.6972 87.4688H95.7141C100.113 87.4688 103.679 91.0347 103.679 95.4335C103.679 99.8324 100.113 103.398 95.7141 103.398Z" fill="#DEEDFF"/>
</g>
<g id="Group_47">
<path id="Vector_70" d="M98.5765 94.0404H77.8349C77.7794 94.0404 77.7345 93.9954 77.7345 93.94C77.7345 93.8846 77.7794 93.8396 77.8349 93.8396H98.5765C98.6319 93.8396 98.6769 93.8846 98.6769 93.94C98.6769 93.9954 98.6319 94.0404 98.5765 94.0404Z" fill="#019935"/>
</g>
<g id="Group_48">
<path id="Vector_71" d="M98.5765 97.5665H77.8349C77.7794 97.5665 77.7345 97.5215 77.7345 97.4661C77.7345 97.4107 77.7794 97.3657 77.8349 97.3657H98.5765C98.6319 97.3657 98.6769 97.4107 98.6769 97.4661C98.6769 97.5215 98.6319 97.5665 98.5765 97.5665Z" fill="#019935"/>
</g>
<g id="Group_49">
<path id="Vector_72" d="M42.1386 73.0498C41.3856 73.0498 40.773 72.4372 40.773 71.6842C40.773 70.9312 41.3856 70.3186 42.1386 70.3186C42.8916 70.3186 43.5042 70.9312 43.5042 71.6842C43.5042 72.4372 42.8916 73.0498 42.1386 73.0498ZM42.1386 70.5194C41.4963 70.5194 40.9738 71.042 40.9738 71.6842C40.9738 72.3265 41.4964 72.8491 42.1386 72.8491C42.7809 72.8491 43.3035 72.3265 43.3035 71.6842C43.3035 71.0419 42.7809 70.5194 42.1386 70.5194Z" fill="#404040"/>
</g>
<g id="Group_50">
<path id="Vector_73" d="M123.777 103.333C123.024 103.333 122.412 102.72 122.412 101.967C122.412 101.214 123.024 100.601 123.777 100.601C124.53 100.601 125.143 101.214 125.143 101.967C125.143 102.72 124.53 103.333 123.777 103.333ZM123.777 100.802C123.135 100.802 122.613 101.325 122.613 101.967C122.613 102.609 123.135 103.132 123.777 103.132C124.42 103.132 124.942 102.609 124.942 101.967C124.942 101.325 124.42 100.802 123.777 100.802Z" fill="#404040"/>
</g>
<g id="Group_51">
<path id="Vector_74" d="M48.9487 118.261H40.1035C40.0972 116.984 40.0908 115.707 40.0845 114.43C41.5015 114.436 42.9185 114.442 44.3355 114.449C44.9649 114.595 46.6672 115.053 47.848 116.269C48.1885 116.619 48.4855 117.031 48.7009 117.518C48.7993 117.74 48.8851 117.987 48.9487 118.261Z" fill="#404040"/>
</g>
<g id="Group_52">
<path id="Vector_75" d="M48.4853 117.199H40.0979C40.0425 117.199 39.9976 117.154 39.9976 117.099C39.9976 117.043 40.0425 116.998 40.0979 116.998H48.4853C48.5407 116.998 48.5856 117.043 48.5856 117.099C48.5856 117.154 48.5407 117.199 48.4853 117.199Z" fill="white"/>
</g>
<g id="Group_53">
<path id="Vector_76" d="M47.8483 116.269C47.4949 116.296 47.135 116.306 46.7949 116.298C45.5002 116.267 43.7235 115.941 43.5923 115.269C43.5713 115.162 43.5691 114.928 43.7067 114.735C43.8317 114.56 44.0239 114.485 44.1695 114.454C44.2248 114.452 44.2804 114.451 44.3357 114.449C44.9652 114.596 46.6675 115.054 47.8483 116.269Z" fill="#404040"/>
<path id="Vector_77" d="M47.0232 116.401C46.9453 116.401 46.8683 116.4 46.7923 116.398C45.7213 116.373 43.6537 116.108 43.4936 115.288C43.4632 115.134 43.4794 114.881 43.6247 114.677C43.7694 114.474 43.9891 114.39 44.148 114.355C44.1541 114.354 44.1604 114.353 44.1666 114.353L44.3327 114.349C44.3411 114.348 44.3499 114.349 44.3583 114.351C45.2107 114.549 46.8069 115.053 47.9201 116.199C47.9472 116.227 47.9557 116.268 47.9419 116.305C47.9282 116.341 47.8944 116.366 47.8555 116.369C47.5708 116.39 47.2918 116.401 47.0232 116.401ZM44.1817 114.554C44.0583 114.582 43.8931 114.646 43.7882 114.793C43.6724 114.956 43.6724 115.156 43.6907 115.249C43.798 115.799 45.3544 116.163 46.7971 116.198C47.06 116.204 47.3352 116.199 47.6177 116.183C46.5567 115.189 45.1191 114.735 44.3254 114.55L44.1817 114.554Z" fill="white"/>
</g>
<g id="Group_54">
<path id="Vector_78" d="M59.6241 118.261H50.7788C50.7725 116.984 50.7661 115.707 50.7598 114.43C52.1768 114.436 53.5938 114.442 55.0108 114.449C55.6403 114.595 57.3426 115.053 58.5234 116.269C58.8639 116.619 59.1609 117.031 59.3762 117.518C59.4746 117.74 59.5604 117.987 59.6241 118.261Z" fill="#404040"/>
</g>
<g id="Group_55">
<path id="Vector_79" d="M59.1604 117.199H50.7731C50.7176 117.199 50.6727 117.154 50.6727 117.099C50.6727 117.043 50.7176 116.998 50.7731 116.998H59.1605C59.216 116.998 59.2609 117.043 59.2609 117.099C59.2609 117.154 59.2159 117.199 59.1604 117.199Z" fill="white"/>
</g>
<g id="Group_56">
<path id="Vector_80" d="M58.5234 116.269C58.17 116.296 57.81 116.306 57.4699 116.298C56.1752 116.267 54.3985 115.941 54.2674 115.269C54.2465 115.162 54.2441 114.928 54.3818 114.735C54.5069 114.56 54.699 114.485 54.8446 114.454C54.8999 114.452 54.9556 114.451 55.0108 114.449C55.6403 114.596 57.3426 115.054 58.5234 116.269Z" fill="#404040"/>
<path id="Vector_81" d="M57.6984 116.401C57.6205 116.401 57.5435 116.4 57.4675 116.398C56.3965 116.373 54.3289 116.108 54.1688 115.288C54.1385 115.134 54.1546 114.881 54.2999 114.677C54.4446 114.474 54.6643 114.39 54.8231 114.355C54.8292 114.354 54.8355 114.353 54.8418 114.353L55.0078 114.349C55.0165 114.348 55.0251 114.349 55.0334 114.351C55.8859 114.549 57.4821 115.053 58.5952 116.199C58.6224 116.227 58.6309 116.268 58.6171 116.305C58.6032 116.341 58.5696 116.366 58.5307 116.369C58.2461 116.39 57.967 116.401 57.6984 116.401ZM54.8569 114.554C54.7335 114.582 54.5683 114.646 54.4634 114.793C54.3476 114.956 54.3476 115.156 54.3659 115.249C54.4732 115.799 56.0297 116.163 57.4723 116.198C57.7354 116.204 58.0105 116.199 58.2929 116.183C57.2319 115.189 55.7943 114.736 55.0006 114.55L54.8569 114.554Z" fill="white"/>
</g>
<g id="Group_57">
<path id="Vector_82" d="M48.3199 76.9519C50.7715 80.8467 53.9012 86.7901 55.8688 94.5661C57.9362 102.736 57.9206 109.769 57.5463 114.468C54.6996 114.493 51.8528 114.519 49.0061 114.544L49.0443 100.437C48.3453 98.8234 47.6463 97.2095 46.9473 95.5955L48.3199 76.9519Z" fill="white"/>
<path id="Vector_83" d="M49.006 114.644C48.9795 114.644 48.9541 114.634 48.9353 114.615C48.9162 114.596 48.9056 114.571 48.9056 114.544L48.9437 100.458L46.8551 95.6354C46.8331 95.5845 46.8564 95.5254 46.9073 95.5034C46.9582 95.4813 47.0172 95.5048 47.0393 95.5556L49.1363 100.398C49.1417 100.41 49.1446 100.424 49.1446 100.438L49.1067 114.443L57.4534 114.368C57.9735 107.712 57.4078 101.058 55.7714 94.5908C54.1957 88.3636 51.6601 82.4471 48.2348 77.0054C48.2053 76.9585 48.2194 76.8966 48.2663 76.867C48.3132 76.8374 48.3752 76.8517 48.4047 76.8985C51.8412 82.358 54.3852 88.2939 55.966 94.5416C57.6153 101.06 58.1807 107.767 57.6463 114.476C57.6421 114.528 57.5991 114.568 57.5472 114.568L49.007 114.645C49.0066 114.644 49.0063 114.644 49.006 114.644Z" fill="#404040"/>
</g>
<g id="Group_58">
<path id="Vector_84" d="M44.5833 56.2497C43.8502 55.7077 42.8112 55.4796 41.8382 55.7541C40.7194 56.0697 40.1388 56.9229 40.0082 57.1266C39.3202 58.1997 39.876 58.7864 39.2838 59.8336C38.6697 60.9195 37.8383 60.7021 36.8818 61.778C35.9487 62.8276 36.2181 63.6217 35.6618 64.9806C34.5383 67.7248 32.1577 67.6173 31.487 69.3841C30.5469 71.8606 33.5391 76.5109 37.3774 77.6765C44.1915 79.7457 52.0586 70.3422 50.9502 67.4206C50.6721 66.6873 49.8992 66.5494 49.1202 64.9424C48.5413 63.7484 48.522 62.9046 47.5952 61.9305C47.1554 61.4683 47.028 61.5198 46.7183 61.0917C46.1191 60.2634 46.3105 59.6756 45.9558 58.5373C45.7394 57.8428 45.4405 56.8834 44.5833 56.2497Z" fill="#404040"/>
</g>
<g id="Group_59">
<path id="Vector_85" d="M42.3149 76.3992H48.3201L50.5119 94.1658L44.5167 96.893L42.3149 76.3992Z" fill="white"/>
</g>
<g id="Group_60">
<path id="Vector_86" d="M40.7899 64.7324C41.0068 64.6422 41.3206 64.5182 41.7049 64.3893C42.4672 64.1336 43.5309 63.7851 44.8694 63.7412C45.4218 63.723 46.2129 63.7505 47.157 63.9699C47.6653 64.8595 48.1737 65.7491 48.682 66.6388L41.8575 66.7913C41.5016 66.105 41.1457 65.4187 40.7899 64.7324Z" fill="white"/>
</g>
<g id="Group_61">
<path id="Vector_87" d="M42.2958 76.7998C41.2885 78.9427 40.0121 82.1115 39.1695 86.1025C38.4187 89.6588 38.3128 92.4448 38.2545 95.3671C38.1615 100.032 38.1607 106.514 38.5469 114.544C41.5758 114.544 44.6046 114.544 47.6335 114.544C47.3412 104.708 47.049 94.8715 46.7566 85.035L42.2958 76.7998Z" fill="white"/>
<path id="Vector_88" d="M47.6334 114.645H38.5469C38.4934 114.645 38.4492 114.603 38.4467 114.549C38.13 107.966 38.0315 101.512 38.1541 95.3649C38.2136 92.3808 38.3237 89.6225 39.0713 86.0816C39.7474 82.8797 40.8017 79.7424 42.2051 76.7569C42.2286 76.7067 42.2884 76.6852 42.3386 76.7088C42.3888 76.7324 42.4104 76.7922 42.3868 76.8424C40.99 79.8139 39.9406 82.9364 39.2678 86.1231C38.5238 89.6469 38.4142 92.3952 38.3549 95.369C38.233 101.481 38.3298 107.898 38.6427 114.444H47.5301L46.6563 85.0379C46.6547 84.9825 46.6983 84.9362 46.7537 84.9346C46.81 84.9307 46.8553 84.9765 46.857 85.0319L47.7339 114.541C47.7347 114.568 47.7244 114.595 47.7056 114.614C47.6866 114.634 47.6606 114.645 47.6334 114.645Z" fill="#404040"/>
</g>
<g id="Group_62">
<path id="Vector_89" d="M38.7119 80.7268L39.6269 81.413L42.6388 82.9L40.7325 85.6832L37.3774 81.718L38.7119 80.7268Z" fill="white"/>
<path id="Vector_90" d="M40.7326 85.7834C40.7032 85.7834 40.6751 85.7705 40.656 85.7479L37.3009 81.7827C37.283 81.7616 37.2746 81.734 37.2778 81.7064C37.281 81.6789 37.2954 81.6539 37.3177 81.6373L38.6521 80.646C38.6879 80.6195 38.7367 80.6196 38.7722 80.6463L39.6798 81.327L42.6834 82.8098C42.7095 82.8226 42.7287 82.8463 42.736 82.8744C42.7434 82.9025 42.7382 82.9325 42.7217 82.9566L40.8154 85.7397C40.7977 85.7655 40.7689 85.7817 40.7377 85.7832C40.736 85.7833 40.7343 85.7834 40.7326 85.7834ZM37.5232 81.7347L40.7242 85.5177L42.4906 82.9386L39.5825 81.5029C39.5769 81.5001 39.5716 81.4969 39.5667 81.4932L38.7116 80.8519L37.5232 81.7347Z" fill="#404040"/>
</g>
<g id="Group_63">
<path id="Vector_91" d="M40.9043 64.6945C41.5215 65.7255 42.6391 66.3487 43.8209 66.3149C45.1138 66.2779 46.2777 65.4605 46.7757 64.2371C48.5358 65.8193 50.296 67.4015 52.0562 68.9838C51.0077 71.8114 49.9592 74.6391 48.9108 77.4668C47.8694 77.7762 46.5192 78.0741 44.9267 78.1721C43.5642 78.2559 42.3684 78.1721 41.4 78.0387C40.6819 76.9013 39.9639 75.7638 39.2459 74.6264C38.5723 75.3762 37.8988 76.1261 37.2252 76.8758C38.0259 77.9942 38.8265 79.1126 39.6272 80.2309C38.8774 81.3112 38.1276 82.3913 37.3777 83.4716C34.185 82.2816 33.0202 80.3679 32.6501 79.659C30.327 75.2087 33.663 68.9683 37.7781 66.1815C38.9659 65.3769 40.1003 64.9406 40.9043 64.6945Z" fill="#019935"/>
</g>
<g id="Group_64">
<path id="Vector_92" d="M43.8928 59.6525L41.4341 60.1914L42.3402 64.3252L44.7989 63.7863L43.8928 59.6525Z" fill="white"/>
</g>
<g id="Group_65">
<path id="Vector_93" d="M44.9429 62.0257C43.9639 62.4668 42.6931 61.766 42.1052 60.4606C41.5173 59.1547 41.8341 57.7391 42.8132 57.298C42.8547 57.2794 42.8967 57.2626 42.939 57.2481C43.7705 56.9614 44.774 57.4452 45.3935 58.3927C45.4892 58.5387 45.5758 58.6962 45.6509 58.8631C46.2388 60.1689 45.922 61.5845 44.9429 62.0257Z" fill="white"/>
</g>
<g id="Group_66">
<path id="Vector_94" d="M44.6775 57.6196C44.9445 57.82 45.1897 58.0814 45.3935 58.3929C45.4892 58.5389 45.5757 58.6964 45.6508 58.8634C46.2387 60.1692 45.9219 61.5848 44.9429 62.0259C44.267 62.3304 43.4523 62.0908 42.819 61.4838L44.6775 57.6196Z" fill="white"/>
<path id="Vector_95" d="M44.3186 62.2579C43.7884 62.2579 43.2278 62.0145 42.7495 61.5562C42.7095 61.5179 42.7082 61.4543 42.7465 61.4143C42.7849 61.3742 42.8484 61.3729 42.8885 61.4113C43.5145 62.0113 44.2859 62.2116 44.9016 61.9342C45.8284 61.5167 46.1235 60.1575 45.5593 58.9044C45.4876 58.745 45.4035 58.5913 45.3095 58.4478C45.1148 58.15 44.8819 57.8983 44.6173 57.6997C44.573 57.6664 44.5641 57.6035 44.5973 57.5592C44.6306 57.5148 44.6935 57.5059 44.7379 57.5392C45.0212 57.7518 45.2701 58.0205 45.4775 58.3379C45.5773 58.4901 45.6665 58.6531 45.7424 58.8221C46.3519 60.176 46.0118 61.6543 44.9841 62.1173C44.7743 62.2118 44.5493 62.2579 44.3186 62.2579Z" fill="#404040"/>
</g>
<g id="Group_67">
<path id="Vector_96" d="M45.3936 58.3926C45.1488 58.4216 44.8686 58.4223 44.5644 58.3656C43.546 58.1753 42.9818 57.4735 42.8487 57.2981C43.2764 56.9116 43.8816 56.793 44.4119 56.993C44.9869 57.21 45.3775 57.7652 45.3936 58.3926Z" fill="#404040"/>
</g>
<g id="Group_68">
<path id="Vector_97" d="M42.7724 56.5735C42.8452 56.7231 43.1639 57.4197 42.8868 58.2129C42.6284 58.9523 41.9513 59.4921 41.133 59.6235L42.7724 56.5735Z" fill="#404040"/>
</g>
<g id="Group_69">
<path id="Vector_98" d="M42.0071 60.4646C42.302 60.2412 42.2996 59.7415 42.0018 59.3483C41.704 58.9552 41.2235 58.8175 40.9286 59.0409C40.6338 59.2642 40.6361 59.764 40.9339 60.1572C41.2318 60.5503 41.7122 60.688 42.0071 60.4646Z" fill="white"/>
</g>
<g id="Group_70">
<path id="Vector_99" d="M51.0648 67.2299C50.9504 67.0773 49.1204 64.9804 49.1204 64.9804C48.7296 64.4051 48.1228 63.6033 47.2522 62.7691C46.5413 62.0879 45.3752 61.1175 45.1934 61.2822C45.1041 61.3631 45.222 61.7452 46.1847 63.1122C46.0645 63.2452 45.884 63.475 45.7653 63.7985C45.2484 65.2081 46.3609 67.159 47.1569 67.1345C47.2755 67.1308 47.3734 67.0838 47.4428 67.0392C48.1418 68.1067 48.8408 69.1743 49.5398 70.2418L51.0648 67.2299Z" fill="white"/>
</g>
<g id="Group_71">
<path id="Vector_100" d="M47.4426 67.0396C47.5639 67.2248 47.6852 67.41 47.8064 67.5952L47.4426 67.0396Z" fill="white"/>
<path id="Vector_101" d="M47.8067 67.6955C47.7739 67.6955 47.7418 67.6795 47.7226 67.6501L47.3588 67.0944C47.3284 67.0481 47.3414 66.9858 47.3878 66.9554C47.4342 66.9249 47.4964 66.938 47.5268 66.9844L47.8906 67.5401C47.921 67.5864 47.908 67.6487 47.8616 67.6791C47.8446 67.6902 47.8255 67.6955 47.8067 67.6955Z" fill="#404040"/>
</g>
<g id="Group_72">
<path id="Vector_102" d="M46.1847 63.1123C46.0316 63.2883 45.8767 63.5151 45.7653 63.7986C45.3142 64.9461 45.9492 66.0707 46.0703 66.2768L46.1847 63.1123Z" fill="white"/>
<path id="Vector_103" d="M46.0704 66.3772C46.036 66.3772 46.0025 66.3595 45.9838 66.3277C45.7982 66.0118 45.2271 64.8932 45.6719 63.7619C45.7732 63.5042 45.9203 63.2635 46.109 63.0464C46.1453 63.0046 46.2088 63.0003 46.2506 63.0366C46.2924 63.0729 46.2968 63.1364 46.2605 63.1782C46.0868 63.3779 45.9517 63.599 45.8588 63.8353C45.4472 64.8822 45.9829 65.9298 46.1569 66.226C46.1849 66.2737 46.169 66.3352 46.1212 66.3633C46.1052 66.3728 46.0877 66.3772 46.0704 66.3772Z" fill="#404040"/>
</g>
<g id="Group_73">
<path id="Vector_104" d="M50.2289 66.2543C49.7013 65.6459 49.1205 64.9804 49.1205 64.9804C48.7297 64.4051 48.1229 63.6033 47.2523 62.7691C46.6548 62.1966 45.3815 61.1126 45.1935 61.2822C45.1039 61.3631 45.2145 61.77 46.4898 63.5317L50.2289 66.2543Z" fill="white"/>
<path id="Vector_105" d="M50.2288 66.3546C50.2008 66.3546 50.1728 66.3429 50.153 66.32C49.6254 65.7117 49.0447 65.0464 49.0447 65.0464C49.042 65.0433 49.0396 65.0401 49.0374 65.0367C48.4978 64.2422 47.8738 63.5037 47.1828 62.8415C46.4068 62.098 45.4902 61.3932 45.2693 61.365C45.2752 61.4703 45.4202 61.883 46.5711 63.4728C46.6036 63.5177 46.5936 63.5805 46.5487 63.6129C46.5038 63.6454 46.441 63.6353 46.4085 63.5905C45.836 62.7996 45.4433 62.2051 45.2412 61.8236C45.058 61.4778 45.0247 61.2993 45.1263 61.2077C45.224 61.1196 45.4133 61.1145 46.1307 61.6679C46.5756 62.0112 47.0505 62.4367 47.3218 62.6967C48.0215 63.3672 48.6534 64.1148 49.2001 64.919C49.2521 64.9786 49.8025 65.6094 50.3047 66.1885C50.3411 66.2304 50.3365 66.2938 50.2947 66.3301C50.2756 66.3466 50.2522 66.3546 50.2288 66.3546Z" fill="#404040"/>
</g>
<g id="Group_74">
<path id="Vector_106" d="M48.5485 75.3888C50.6244 77.5146 52.9773 78.3522 54.4581 77.5619C55.3284 77.0974 55.6671 76.1934 55.7543 75.9606C57.162 72.2037 51.2321 66.9726 50.9123 66.696C49.8575 67.8017 48.8027 68.9073 47.7479 70.013C48.0148 71.8049 48.2816 73.5968 48.5485 75.3888Z" fill="#019935"/>
</g>
<g id="Group_75">
<path id="Vector_107" d="M40.2368 86.584C40.2175 86.584 40.198 86.5784 40.1808 86.5668C40.1348 86.5357 40.1227 86.4733 40.1537 86.4274L43.0894 82.0811C43.1205 82.0351 43.1828 82.023 43.2288 82.0541C43.2747 82.0852 43.2868 82.1476 43.2558 82.1935L40.3202 86.5398C40.3007 86.5685 40.2691 86.584 40.2368 86.584Z" fill="#404040"/>
</g>
<g id="Group_76">
<path id="Vector_108" d="M36.6341 77.6053C36.6096 77.6053 36.5851 77.5964 36.5657 77.5784C36.5252 77.5406 36.5229 77.4771 36.5607 77.4365L40.7164 72.9758C40.7541 72.9353 40.8177 72.933 40.8583 72.9708C40.8988 73.0086 40.9011 73.0721 40.8633 73.1126L36.7076 77.5734C36.6878 77.5946 36.661 77.6053 36.6341 77.6053Z" fill="#404040"/>
</g>
<g id="Group_77">
<path id="Vector_109" d="M50.1117 75.0697C50.081 75.0697 50.0506 75.0557 50.0309 75.0291C49.6042 74.4528 49.2045 73.8468 48.843 73.2281C48.2739 72.254 47.7839 71.2226 47.3869 70.1626C47.3727 70.1247 47.3826 70.0821 47.412 70.0544L49.3365 68.2385C49.3769 68.2005 49.4404 68.2023 49.4784 68.2426C49.5165 68.283 49.5146 68.3465 49.4743 68.3845L47.5984 70.1545C47.9872 71.182 48.4641 72.1816 49.0163 73.1268C49.3742 73.7392 49.7698 74.3391 50.1922 74.9096C50.2252 74.9542 50.2158 75.0171 50.1713 75.05C50.1534 75.0633 50.1325 75.0697 50.1117 75.0697Z" fill="#404040"/>
</g>
<g id="Group_78">
<path id="Vector_110" d="M49.1585 76.8239C49.1482 76.8239 49.1378 76.8223 49.1275 76.819C49.0748 76.8018 49.0459 76.7452 49.063 76.6925L49.7516 74.5723C49.7687 74.5195 49.8254 74.4908 49.8781 74.5078C49.9308 74.525 49.9597 74.5816 49.9425 74.6343L49.254 76.7545C49.2402 76.7969 49.2009 76.8239 49.1585 76.8239Z" fill="#404040"/>
</g>
<g id="Group_79">
<path id="Vector_111" d="M41.5906 60.0674C41.5601 60.0674 41.53 60.0535 41.5102 60.0272L41.1671 59.5698C41.1339 59.5254 41.1428 59.4625 41.1872 59.4292C41.2315 59.396 41.2945 59.405 41.3277 59.4493L41.6708 59.9068C41.7041 59.9511 41.6951 60.014 41.6508 60.0473C41.6327 60.0609 41.6115 60.0674 41.5906 60.0674Z" fill="#404040"/>
</g>
</g>
</g>
</svg>
