<svg width="451" height="360" viewBox="0 0 451 360" fill="none" xmlns="http://www.w3.org/2000/svg">
<path d="M408.385 200.659C406.197 181.033 400.99 161.788 393.978 145.216C378.019 107.502 349.025 74.7119 313.075 54.9332C275.635 34.335 231.22 16.9661 187.721 24.3658C146.973 31.2975 106.602 57.6103 79.582 96.3946C49.8699 139.043 39.5145 200.472 46.0961 251.443C48.6908 271.538 56.1216 291.614 70.4589 305.931C97.5928 333.025 143.611 337.705 179.917 337.865C208.03 337.99 237.551 340.43 265.478 336.564C286.285 333.683 301.916 340.373 322.653 336.836C358.045 330.8 386.085 304.054 399.952 271.829C409.12 250.525 411.131 225.291 408.385 200.659Z" fill="white"/>
<path d="M387.615 337.794C387.615 338.047 387.139 338.253 386.552 338.253H101.133C100.545 338.253 100.068 338.047 100.068 337.794V336.206C100.068 335.953 100.545 335.747 101.133 335.747H386.552C387.139 335.747 387.615 335.953 387.615 336.206V337.794Z" fill="white"/>
<path d="M308.304 358.703C308.304 359.002 308.179 359.243 308.025 359.243H233.123C232.969 359.243 232.844 359.002 232.844 358.703V356.833C232.844 356.534 232.969 356.292 233.123 356.292H308.025C308.179 356.292 308.304 356.534 308.304 356.833L308.304 358.703Z" fill="white"/>
<path d="M277.191 350.91C277.191 351.174 276.922 351.388 276.588 351.388H114.831C114.497 351.388 114.227 351.174 114.227 350.91V349.255C114.227 348.991 114.497 348.777 114.831 348.777H276.588C276.922 348.777 277.191 348.991 277.191 349.255V350.91Z" fill="white"/>
<path d="M212.865 49.9768C198.505 50.1408 185.96 58.4998 184.518 49.5437C183.076 40.5877 193.402 31.4764 207.581 29.1937C227.224 26.0312 250.078 38.423 245.051 48.7546C238.225 62.7857 226.162 49.8251 212.865 49.9768Z" fill="#B0DFC0"/>
<path d="M30.9196 223.628C31.7052 237.969 40.5996 250.139 31.7143 251.968C22.8293 253.796 13.2793 243.875 10.3848 229.808C6.37472 210.32 17.7652 186.951 28.3048 191.526C42.6182 197.738 30.1922 210.351 30.9196 223.628Z" fill="white"/>
<path d="M286.903 13.5976C288.498 16.867 287.492 20.639 284.656 22.023C281.819 23.407 278.227 21.8786 276.632 18.6094C275.037 15.3401 276.043 11.5678 278.88 10.1841C281.716 8.80001 285.308 10.3285 286.903 13.5976Z" fill="white"/>
<path d="M316.115 16.8271C322.153 20.8856 324.155 28.479 320.587 33.7873C317.019 39.0962 309.232 40.1099 303.194 36.0515C297.156 31.9929 295.153 24.3995 298.722 19.0908C302.29 13.7822 310.077 12.7687 316.115 16.8271Z" fill="white"/>
<path d="M335.437 39.8792C340.733 40.7483 344.612 43.9774 344.102 47.0915C343.59 50.206 338.883 52.0264 333.587 51.1575C328.291 50.2883 324.412 47.0593 324.923 43.945C325.434 40.8306 330.141 39.0103 335.437 39.8792Z" fill="white"/>
<path d="M110.268 46.4511C80.1417 68.5468 59.4518 95.3952 56.9294 91.956C54.407 88.5169 71.0074 56.0927 101.134 33.997C131.26 11.9012 163.505 8.50111 166.027 11.9403C168.549 15.3793 140.395 24.3553 110.268 46.4511Z" fill="white"/>
<path d="M272.938 84.7874C269.833 84.7044 257.197 77.1476 253.651 75.1863L224.822 95.6664C222.337 98.2352 219.354 100.536 217.088 101.708C195.917 112.657 165.401 124.629 178.989 135.783C193.147 147.405 192.175 150.521 204.174 154.542C213.766 157.757 216.019 160.916 232.689 166.833C251.073 173.359 269.011 153.939 279.135 142.575L364.291 110.555L344.485 57.884C344.485 57.884 292.041 85.2982 272.938 84.7874Z" fill="#019935"/>
<path d="M270.697 162.618C274.025 158.466 261.599 152.676 257.936 150.668C254.108 148.57 243.869 141.923 243.869 141.923C243.869 141.923 250.879 145.121 259.065 148.924C268.785 153.44 280.186 158.308 283.805 152.65C286.269 148.799 274.689 142.625 264.031 135.869C255.541 130.487 253.927 130.289 255.673 129.666C255.673 129.666 285.289 147.817 289.442 145.312C298.493 139.856 285.241 131.916 270.113 122.316C259.512 115.589 248.454 107.895 240.284 103.603C238.026 102.416 235.058 100.095 232.59 97.5105C232.59 97.5105 221.731 79.3581 212.067 79.4352C208.015 79.4675 187.651 86.2556 184.545 86.3185C165.44 86.705 113.175 58.9497 113.175 58.9497L93.0269 111.491L177.972 144.065C191.81 152.892 187.993 151.835 205.798 159.804C211.193 162.219 224.996 165.905 227.224 166.576C246.162 172.272 246.65 173.149 252.057 171.491C254.213 170.831 258.901 168.001 249.562 163.308C240.958 158.984 232.832 151.573 232.832 151.573C232.832 151.573 245.936 159.35 250.892 161.144C255.553 162.832 266.226 168.197 270.697 162.618Z" fill="#55BB78"/>
<path d="M216.95 96.9689C224.994 105.561 221.574 117.943 217.34 119.536C213.105 121.128 206.577 114.188 202.759 104.034C198.941 93.8809 199.279 84.3591 203.514 82.7668C204.878 82.2536 238.141 72.2825 244.045 72.5974C248.868 72.8548 270.787 77.3105 246.645 93.0552C241.269 96.5615 232.537 97.888 232.537 97.888C232.537 97.888 229.92 95.3319 228.73 93.4795C224.096 92.6852 218.062 96.0828 216.95 96.9689Z" fill="#019935"/>
<path d="M188.145 136.659C195.942 131.575 203.077 128.703 205.468 132.369C208.264 136.659 202.35 141.404 194.552 146.487C186.755 151.571 179.925 154.912 177.23 150.777C174.433 146.487 180.347 141.742 188.145 136.659Z" fill="#019935"/>
<path d="M198.157 147.045C205.683 139.429 212.949 134.407 216.374 137.791C220.382 141.751 214.864 148.502 207.339 156.118C199.813 163.734 196.465 165.508 192.603 161.692C188.595 157.732 190.632 154.661 198.157 147.045Z" fill="#019935"/>
<path d="M209.223 159.026C214.357 152.445 219.692 148.026 223.144 150.717C227.182 153.867 223.608 159.66 218.475 166.242C213.342 172.823 210.455 174.11 206.563 171.074C202.525 167.925 204.09 165.607 209.223 159.026Z" fill="#019935"/>
<path d="M222.312 166.447C226.847 161.858 231.582 159.185 234.695 162.261C238.338 165.861 234.745 168.988 230.21 173.577C225.676 178.166 223.442 181.222 219.931 177.754C216.288 174.154 217.778 171.036 222.312 166.447Z" fill="#019935"/>
<path d="M210.769 113.332C208.574 109.976 206.336 109.306 205.65 109.609C204.964 109.913 206.091 111.075 208.286 114.431C210.481 117.788 212.817 120.652 213.503 120.348C214.189 120.045 212.964 116.688 210.769 113.332Z" fill="#8AD0A2"/>
<path d="M203.193 138.996C201.071 140.824 198.234 141.01 196.856 139.412C195.479 137.813 196.081 135.034 198.203 133.206C200.325 131.378 203.162 131.192 204.539 132.791C205.917 134.39 205.314 137.168 203.193 138.996Z" fill="#8AD0A2"/>
<path d="M215.453 144.764C213.555 146.823 210.758 147.332 209.206 145.901C207.654 144.471 207.935 141.642 209.834 139.583C211.732 137.523 214.529 137.014 216.081 138.445C217.633 139.876 217.351 142.705 215.453 144.764Z" fill="#8AD0A2"/>
<path d="M222.033 157.766C220.134 159.825 217.337 160.334 215.786 158.904C214.234 157.473 214.515 154.644 216.413 152.585C218.312 150.526 221.109 150.017 222.661 151.447C224.212 152.878 223.931 155.707 222.033 157.766Z" fill="#8AD0A2"/>
<path d="M233.718 167.701C232.094 169.462 229.702 169.898 228.375 168.674C227.047 167.451 227.288 165.031 228.912 163.269C230.535 161.508 232.928 161.073 234.255 162.296C235.582 163.52 235.342 165.94 233.718 167.701Z" fill="#8AD0A2"/>
<path d="M154.295 148.914L109.025 123.224L126.035 65.8496L173.392 79.8893L154.295 148.914Z" fill="#B0DFC0"/>
<path d="M147.334 67.2418L129.025 113.795L129.025 113.796L121.791 132.188L79.814 116.79L98.7023 62.5924L98.7032 62.5899L101.788 53.7388L147.334 67.2418Z" fill="#55BB78"/>
<path d="M138.491 124.996L134.447 131.558L146.323 138.877L150.367 132.315L138.491 124.996Z" fill="#55BB78"/>
<path d="M97.5179 118.544C101.014 117.423 102.948 113.667 101.827 110.17C100.706 106.673 96.9494 104.74 93.4524 105.861C89.9556 106.982 88.0227 110.739 89.1437 114.235C90.2644 117.732 94.0209 119.665 97.5179 118.544Z" fill="#8AD0A2"/>
<path d="M115.888 126.811C119.385 125.69 121.318 121.933 120.197 118.437C119.076 114.94 115.32 113.007 111.823 114.128C108.326 115.249 106.393 119.005 107.514 122.502C108.635 125.999 112.391 127.932 115.888 126.811Z" fill="#8AD0A2"/>
<path d="M316.357 144.537L361.051 117.859L342.785 60.8716L295.748 75.9482L316.357 144.537Z" fill="#B0DFC0"/>
<path d="M321.521 62.7314L340.849 108.871L340.849 108.872L348.485 127.101L390.114 110.785L370.039 57.0148L370.039 57.0123L366.76 48.231L321.521 62.7314Z" fill="#55BB78"/>
<path d="M331.638 120.278L319.925 127.856L324.112 134.328L335.825 126.75L331.638 120.278Z" fill="#55BB78"/>
<path d="M376.743 113.033C380.24 111.912 382.173 108.156 381.052 104.659C379.931 101.162 376.175 99.2293 372.677 100.35C369.181 101.471 367.248 105.228 368.369 108.724C369.49 112.221 373.246 114.154 376.743 113.033Z" fill="#8AD0A2"/>
<path d="M358.373 121.3C361.87 120.179 363.803 116.422 362.682 112.925C361.561 109.429 357.805 107.496 354.308 108.617C350.811 109.737 348.878 113.494 349.999 116.991C351.12 120.487 354.876 122.42 358.373 121.3Z" fill="#8AD0A2"/>
<path d="M408.089 154.858C407.975 153.653 407.009 152.753 405.708 152.753C405.708 152.753 405.424 152.763 404.945 152.771H404.942C404.503 152.778 403.9 152.783 403.203 152.779H403.165C400.494 152.759 396.467 152.586 394.903 151.766C393.437 150.997 394.219 146 394.327 145.35C396.168 144.418 397.751 142.954 398.812 141.183C398.921 141 399.025 140.813 399.123 140.623C399.615 139.676 399.959 138.652 400.119 137.583C400.829 132.84 397.654 128.967 392.966 128.727H392.961C392.81 128.719 392.657 128.715 392.503 128.715C392.32 128.715 392.139 128.72 391.958 128.731C391.342 128.767 390.734 128.864 390.139 129.016C386.172 130.028 382.845 133.479 382.23 137.581C382.229 137.581 382.229 137.583 382.229 137.583C382.199 137.787 382.176 137.988 382.16 138.187C381.906 141.278 383.315 143.933 385.694 145.351C385.615 145.975 384.989 150.576 383.455 151.663C383.145 151.884 382.441 152.059 381.526 152.2C378.199 152.71 372.095 152.753 372.095 152.753C371.717 152.753 371.345 152.829 370.995 152.966C370.14 153.302 369.42 154.003 369.082 154.858C369.055 154.928 369.029 154.999 369.006 155.072C368.962 155.213 368.929 155.357 368.907 155.505L368.184 160.327C368.013 161.466 368.574 162.449 369.512 162.866C369.82 163.003 370.17 163.079 370.548 163.079H404.16C405.687 163.079 407.122 161.841 407.348 160.327L408.07 155.505C408.093 155.357 408.103 155.213 408.101 155.072C408.1 155 408.096 154.928 408.089 154.858ZM390.553 141.726C390.37 141.726 390.19 141.714 390.016 141.69C388.069 141.428 386.79 139.741 387.096 137.7C387.402 135.658 389.187 133.971 391.213 133.709C391.394 133.685 391.576 133.673 391.76 133.673C391.861 133.673 391.962 133.677 392.06 133.685C392.113 133.689 392.166 133.694 392.218 133.7C394.209 133.928 395.527 135.631 395.217 137.7C394.907 139.768 393.079 141.472 391.02 141.7C390.966 141.706 390.913 141.711 390.861 141.714C390.758 141.722 390.655 141.726 390.553 141.726Z" fill="#15878A"/>
<path d="M310.613 325.106C308.526 325.106 307.072 323.413 307.382 321.343L331.762 158.621C332.072 156.551 334.034 154.858 336.121 154.858H447.035C449.123 154.858 450.577 156.552 450.267 158.621L425.887 321.343C425.577 323.413 423.615 325.106 421.528 325.106L310.613 325.106Z" fill="#8AD0A2"/>
<path d="M306.544 325.106C304.456 325.106 303.002 323.413 303.312 321.343L327.692 158.621C328.002 156.551 329.964 154.858 332.051 154.858H442.966C445.053 154.858 446.507 156.552 446.197 158.621L421.817 321.343C421.507 323.413 419.546 325.106 417.458 325.106L306.544 325.106Z" fill="#EEF5F0"/>
<path d="M407.012 154.858C406.907 153.753 406.085 152.904 404.944 152.771H404.942C404.84 152.759 404.736 152.753 404.63 152.753C404.63 152.753 404.072 152.772 403.203 152.779H403.165C400.653 152.796 395.62 152.706 393.826 151.766C392.359 150.997 393.141 146 393.249 145.35C395.157 144.385 396.787 142.848 397.846 140.991C397.951 140.807 398.051 140.619 398.145 140.429C398.583 139.536 398.893 138.578 399.042 137.583C399.748 132.863 396.607 129.004 391.957 128.731C391.935 128.729 391.912 128.728 391.888 128.727H391.884C391.733 128.719 391.579 128.715 391.425 128.715C386.543 128.715 381.992 132.594 381.179 137.414C381.169 137.47 381.16 137.527 381.151 137.583C381.129 137.729 381.112 137.874 381.097 138.018C380.777 141.18 382.194 143.907 384.616 145.352C384.538 145.975 383.912 150.576 382.378 151.663C380.941 152.683 371.017 152.753 371.017 152.753C369.716 152.753 368.48 153.654 368.005 154.858C367.977 154.928 367.952 154.999 367.929 155.072C367.885 155.213 367.851 155.358 367.829 155.505L367.107 160.328C366.88 161.841 367.944 163.079 369.47 163.079H403.083C404.61 163.079 406.044 161.841 406.271 160.328L406.993 155.505C407.016 155.358 407.026 155.213 407.023 155.072C407.022 155 407.018 154.929 407.012 154.858ZM391.213 133.71C393.163 133.969 394.446 135.657 394.139 137.7C393.834 139.744 392.044 141.431 390.016 141.69C389.991 141.694 389.967 141.697 389.942 141.7C389.788 141.717 389.632 141.726 389.476 141.726C387.233 141.726 385.685 139.923 386.018 137.7C386.351 135.476 388.439 133.674 390.682 133.674C390.838 133.674 390.991 133.682 391.141 133.7C391.165 133.703 391.189 133.706 391.213 133.71Z" fill="#222221"/>
<path d="M406.806 155.072C406.804 155 406.799 154.929 406.791 154.858C406.665 153.771 405.786 152.966 404.605 152.966C404.598 152.967 403.783 152.994 402.609 152.994C400.022 152.994 395.423 152.86 393.702 151.958C392.153 151.146 392.874 146.308 393.034 145.347L393.055 145.224L393.173 145.164C395.063 144.207 396.62 142.709 397.634 140.949C397.74 140.765 397.84 140.577 397.934 140.387C398.375 139.498 398.681 138.553 398.826 137.583C399.517 132.973 396.45 129.176 391.841 128.94C391.694 128.933 391.544 128.929 391.394 128.929C390.972 128.929 390.553 128.959 390.139 129.016C385.867 129.608 382.1 133.154 381.389 137.447C381.381 137.493 381.374 137.538 381.367 137.583C381.344 137.74 381.324 137.896 381.31 138.052C381.027 141.02 382.318 143.715 384.748 145.165L384.848 145.224L384.832 145.347C384.721 146.23 384.087 150.696 382.488 151.831C382.292 151.97 381.958 152.092 381.526 152.2C378.754 152.888 371.917 152.96 370.995 152.966H370.986C369.8 152.966 368.678 153.771 368.226 154.858C368.197 154.928 368.171 154.999 368.147 155.072C368.102 155.213 368.067 155.358 368.045 155.505L367.323 160.328C367.113 161.727 368.091 162.866 369.502 162.866H403.115C404.526 162.866 405.846 161.727 406.056 160.328L406.778 155.505C406.8 155.358 406.809 155.213 406.806 155.072ZM390.715 133.46C390.879 133.46 391.041 133.47 391.197 133.487C391.501 133.522 391.79 133.589 392.06 133.685C393.675 134.257 394.632 135.851 394.355 137.7C394.079 139.548 392.645 141.141 390.86 141.714C390.561 141.81 390.251 141.878 389.935 141.913C389.773 141.93 389.607 141.94 389.444 141.94C387.086 141.94 385.452 140.038 385.803 137.7C386.153 135.362 388.356 133.46 390.715 133.46Z" fill="#BFE2E2"/>
<path d="M410.951 187.626C410.88 188.094 410.376 188.473 409.825 188.473H343.415C342.864 188.473 342.474 188.094 342.545 187.626L342.574 187.434C342.645 186.966 343.149 186.587 343.7 186.587H410.11C410.661 186.587 411.051 186.966 410.98 187.434L410.951 187.626Z" fill="#34AD5D"/>
<path d="M420.479 191.439C420.408 191.907 419.838 192.287 419.205 192.287H343.013C342.381 192.287 341.925 191.907 341.996 191.439L342.025 191.247C342.096 190.779 342.666 190.4 343.298 190.4H419.49C420.122 190.4 420.578 190.779 420.507 191.247L420.479 191.439Z" fill="#34AD5D"/>
<path d="M418.195 202.449C418.124 202.917 417.554 203.297 416.921 203.297H340.729C340.097 203.297 339.641 202.917 339.712 202.449L339.741 202.258C339.811 201.789 340.382 201.41 341.014 201.41H417.206C417.839 201.41 418.294 201.789 418.224 202.258L418.195 202.449Z" fill="#34AD5D"/>
<path d="M413.037 206.263C412.967 206.731 412.426 207.11 411.831 207.11H340.114C339.518 207.11 339.093 206.731 339.163 206.263L339.192 206.071C339.263 205.603 339.803 205.224 340.398 205.224H412.116C412.711 205.224 413.137 205.603 413.066 206.071L413.037 206.263Z" fill="#34AD5D"/>
<path d="M407.021 210.076C406.95 210.544 406.446 210.924 405.894 210.924H339.485C338.934 210.924 338.544 210.544 338.615 210.076L338.644 209.885C338.714 209.417 339.219 209.037 339.77 209.037H406.179C406.731 209.037 407.12 209.417 407.05 209.885L407.021 210.076Z" fill="#34AD5D"/>
<path d="M416.548 213.89C416.478 214.358 415.908 214.737 415.275 214.737H339.083C338.451 214.737 337.995 214.358 338.066 213.89L338.095 213.698C338.165 213.23 338.736 212.851 339.368 212.851H415.56C416.192 212.851 416.648 213.23 416.577 213.698L416.548 213.89Z" fill="#34AD5D"/>
<path d="M414.264 224.9C414.193 225.368 413.623 225.747 412.991 225.747H336.799C336.166 225.747 335.71 225.368 335.781 224.9L335.81 224.708C335.881 224.24 336.451 223.861 337.083 223.861H413.275C413.908 223.861 414.363 224.24 414.293 224.708L414.264 224.9Z" fill="#34AD5D"/>
<path d="M409.106 228.713C409.036 229.181 408.496 229.561 407.9 229.561H336.183C335.587 229.561 335.162 229.181 335.232 228.713L335.261 228.522C335.332 228.054 335.872 227.674 336.467 227.674H408.185C408.78 227.674 409.206 228.054 409.135 228.522L409.106 228.713Z" fill="#34AD5D"/>
<path d="M403.09 232.527C403.019 232.995 402.515 233.374 401.964 233.374H335.554C335.003 233.374 334.613 232.995 334.684 232.527L334.713 232.335C334.784 231.867 335.288 231.488 335.839 231.488H402.249C402.8 231.488 403.189 231.867 403.119 232.335L403.09 232.527Z" fill="#34AD5D"/>
<path d="M412.617 236.34C412.547 236.808 411.977 237.188 411.344 237.188H335.152C334.52 237.188 334.064 236.808 334.135 236.34L334.164 236.149C334.234 235.68 334.804 235.301 335.437 235.301H411.629C412.262 235.301 412.717 235.68 412.646 236.149L412.617 236.34Z" fill="#34AD5D"/>
<path d="M410.333 247.35C410.262 247.818 409.692 248.198 409.06 248.198H332.868C332.235 248.198 331.78 247.818 331.85 247.35L331.879 247.158C331.95 246.691 332.52 246.311 333.153 246.311H409.345C409.977 246.311 410.433 246.691 410.362 247.158L410.333 247.35Z" fill="#34AD5D"/>
<path d="M405.176 251.164C405.105 251.632 404.565 252.011 403.97 252.011H332.252C331.657 252.011 331.231 251.632 331.302 251.164L331.331 250.972C331.402 250.504 331.942 250.125 332.537 250.125H404.255C404.85 250.125 405.275 250.504 405.205 250.972L405.176 251.164Z" fill="#34AD5D"/>
<path d="M399.159 254.977C399.088 255.445 398.584 255.825 398.032 255.825H331.623C331.072 255.825 330.682 255.445 330.753 254.977L330.782 254.785C330.853 254.318 331.357 253.938 331.908 253.938H398.317C398.869 253.938 399.258 254.318 399.188 254.785L399.159 254.977Z" fill="#34AD5D"/>
<path d="M408.687 258.791C408.617 259.259 408.046 259.638 407.414 259.638H331.222C330.589 259.638 330.134 259.259 330.205 258.791L330.233 258.599C330.304 258.131 330.874 257.751 331.507 257.751H407.699C408.331 257.751 408.787 258.131 408.716 258.599L408.687 258.791Z" fill="#34AD5D"/>
<path d="M406.402 269.801C406.332 270.269 405.762 270.648 405.129 270.648H328.937C328.305 270.648 327.849 270.269 327.92 269.801L327.949 269.609C328.02 269.141 328.59 268.762 329.222 268.762H405.414C406.047 268.762 406.502 269.141 406.431 269.609L406.402 269.801Z" fill="#34AD5D"/>
<path d="M401.245 273.614C401.175 274.082 400.634 274.462 400.039 274.462H328.322C327.726 274.462 327.301 274.082 327.371 273.614L327.4 273.423C327.471 272.955 328.011 272.575 328.606 272.575H400.324C400.919 272.575 401.345 272.955 401.274 273.423L401.245 273.614Z" fill="#34AD5D"/>
<path d="M395.228 277.428C395.157 277.896 394.653 278.275 394.102 278.275H327.693C327.141 278.275 326.752 277.896 326.822 277.428L326.851 277.236C326.922 276.768 327.426 276.388 327.978 276.388H394.387C394.938 276.388 395.328 276.768 395.257 277.236L395.228 277.428Z" fill="#34AD5D"/>
<path d="M404.756 281.241C404.685 281.709 404.115 282.089 403.483 282.089H327.291C326.658 282.089 326.203 281.709 326.273 281.241L326.302 281.05C326.373 280.581 326.943 280.202 327.576 280.202H403.768C404.4 280.202 404.855 280.581 404.785 281.05L404.756 281.241Z" fill="#34AD5D"/>
<path d="M403.646 298.217C403.575 298.685 403.322 299.064 403.08 299.064H373.936C373.695 299.064 373.556 298.685 373.626 298.217L373.655 298.025C373.726 297.556 373.979 297.177 374.221 297.177H403.364C403.606 297.177 403.745 297.556 403.674 298.025L403.646 298.217Z" fill="#34AD5D"/>
<path d="M346.791 180.787C344.977 180.787 343.511 180.198 342.553 179.084C341.569 177.94 341.203 176.313 341.495 174.377C341.781 172.484 342.645 170.861 343.994 169.682C345.343 168.503 347.05 167.88 348.929 167.88C350.63 167.88 351.525 168.284 351.831 168.458L352.193 168.664L351.278 170.716L350.845 170.489C350.538 170.328 349.863 170.058 348.79 170.058C346.204 170.058 344.411 171.705 343.994 174.462C343.793 175.799 344.012 176.884 344.628 177.6C345.196 178.26 346.117 178.609 347.291 178.609C348.125 178.609 349.017 178.44 349.618 178.167L350.196 177.905L350.431 180.053L350.132 180.192C349.515 180.479 348.313 180.787 346.791 180.787Z" fill="#55BB78"/>
<path d="M355.893 180.804C354.367 180.804 353.096 180.264 352.217 179.243C351.21 178.072 350.818 176.344 351.115 174.377C351.693 170.552 354.474 167.881 357.878 167.881C359.42 167.881 360.696 168.416 361.568 169.43C362.569 170.592 362.956 172.319 362.658 174.29C362.357 176.287 361.521 177.959 360.241 179.123C359.05 180.207 357.506 180.804 355.893 180.804ZM357.624 170.024C355.329 170.024 353.964 172.262 353.629 174.48C353.418 175.875 353.672 177.11 354.325 177.869C354.777 178.394 355.396 178.661 356.164 178.661C358.459 178.661 359.822 176.432 360.156 174.222C360.366 172.834 360.104 171.556 359.457 170.804C359.011 170.286 358.395 170.024 357.624 170.024Z" fill="#55BB78"/>
<path d="M370.155 180.614L367.239 174.452C366.861 173.656 366.544 172.942 366.278 172.287C366.171 173.169 366.04 174.117 365.868 175.256L365.059 180.614H362.719L364.613 168.07H366.932L369.886 174.212C370.204 174.875 370.487 175.513 370.737 176.137C370.838 175.229 370.966 174.317 371.116 173.325L371.909 168.07H374.25L372.355 180.614L370.155 180.614Z" fill="#55BB78"/>
<path d="M376.245 180.614L377.808 170.266H374.28L374.611 168.071H384.128L383.796 170.266H380.251L378.688 180.614H376.245Z" fill="#55BB78"/>
<path d="M388.831 180.614L388.712 180.335C388.562 179.983 388.452 179.163 388.322 177.412C388.225 175.893 387.77 175.617 386.789 175.578H385.782L385.021 180.614H382.595L384.455 168.298L384.772 168.235C385.56 168.078 386.681 167.984 387.771 167.984C389.505 167.984 390.598 168.321 391.317 169.075C391.925 169.696 392.175 170.619 392.017 171.668C391.821 172.967 391.033 174.045 389.857 174.671C390.358 175.158 390.65 175.914 390.729 176.929C390.847 178.367 390.958 179.592 391.112 179.99L391.354 180.614H388.831ZM387.09 173.521C388.439 173.521 389.419 172.808 389.585 171.704C389.658 171.224 389.584 170.851 389.366 170.595C389.075 170.253 388.498 170.068 387.697 170.058C387.232 170.059 386.861 170.089 386.605 170.125L386.093 173.521H387.09Z" fill="#55BB78"/>
<path d="M399.32 180.614L398.633 176.958H395.19L393.433 180.614H390.859L397.005 168.071H399.479L401.856 180.614H399.32ZM398.328 174.866L397.8 172.064C397.768 171.896 397.74 171.732 397.714 171.57C397.625 171.773 397.536 171.967 397.448 172.157L396.124 174.866L398.328 174.866Z" fill="#55BB78"/>
<path d="M407.763 180.787C405.948 180.787 404.483 180.198 403.524 179.084C402.54 177.94 402.174 176.313 402.466 174.377C402.752 172.484 403.617 170.861 404.966 169.682C406.315 168.504 408.021 167.881 409.9 167.881C411.601 167.881 412.496 168.284 412.802 168.458L413.165 168.664L412.249 170.716L411.816 170.489C411.509 170.328 410.834 170.058 409.761 170.058C407.175 170.058 405.382 171.705 404.966 174.463C404.764 175.799 404.983 176.884 405.599 177.6C406.167 178.26 407.088 178.609 408.263 178.609C409.097 178.609 409.988 178.44 410.59 178.167L411.167 177.905L411.402 180.053L411.103 180.192C410.486 180.479 409.285 180.787 407.763 180.787Z" fill="#55BB78"/>
<path d="M414.879 180.614L416.442 170.266H412.914L413.246 168.071H422.761L422.43 170.266H418.885L417.322 180.614H414.879Z" fill="#55BB78"/>
<path d="M348.322 299.725C347.156 307.451 339.961 313.714 332.253 313.714C324.544 313.714 319.241 307.451 320.407 299.725C321.574 291.999 328.769 285.736 336.477 285.736C344.186 285.736 349.489 291.999 348.322 299.725Z" fill="#00C0C4"/>
<path d="M332.359 313.014C325.048 313.014 320 307.052 321.107 299.725C322.213 292.398 329.061 286.436 336.372 286.436C343.683 286.436 348.73 292.398 347.624 299.725C346.517 307.052 339.669 313.014 332.359 313.014Z" fill="#F6F6F6"/>
<path d="M332.464 312.313C325.539 312.313 320.758 306.666 321.806 299.725C322.854 292.784 329.341 287.137 336.266 287.137C343.192 287.137 347.973 292.784 346.925 299.725C345.877 306.666 339.39 312.313 332.464 312.313Z" fill="#00C0C4"/>
<path d="M332.57 311.613C326.03 311.613 321.515 306.28 322.504 299.725C323.494 293.17 329.62 287.837 336.16 287.837C342.7 287.837 347.216 293.17 346.226 299.725C345.236 306.28 339.11 311.613 332.57 311.613Z" fill="#F6F6F6"/>
<path d="M333.088 308.181C328.436 308.181 325.225 304.388 325.929 299.725C326.633 295.063 330.99 291.27 335.642 291.27C340.294 291.27 343.505 295.063 342.801 299.725C342.097 304.388 337.74 308.181 333.088 308.181Z" fill="#00C0C4"/>
<path d="M376.154 297.399C376.037 297.399 375.92 297.389 375.803 297.367C375.181 297.251 374.542 296.724 374.174 296.024C373.825 295.359 373.759 294.637 373.988 293.991C374.569 292.354 375.744 291.145 376.981 290.91C377.844 290.746 378.574 291.111 378.985 291.912C379.043 292.025 378.989 292.177 378.866 292.252C378.742 292.327 378.595 292.296 378.537 292.184C378.21 291.547 377.665 291.265 377.002 291.391C376.152 291.552 375.035 292.449 374.453 294.089C374.27 294.604 374.33 295.194 374.621 295.749C374.934 296.345 375.46 296.791 375.962 296.885C377.291 297.131 378.698 295.401 379.272 294.252C379.331 294.135 379.463 294.067 379.579 294.093C379.696 294.119 379.761 294.231 379.731 294.354C379.558 295.075 379.721 295.812 380.155 296.33C380.401 296.002 380.52 295.526 380.604 295.191L380.623 295.113C380.652 294.999 380.753 294.909 380.868 294.894C380.983 294.88 381.081 294.945 381.105 295.051C381.152 295.263 381.231 295.392 381.339 295.434C381.567 295.523 382.015 295.292 382.448 295.07C383.003 294.785 383.632 294.462 384.145 294.622C384.294 294.668 384.423 294.753 384.532 294.874C384.568 294.808 384.606 294.742 384.643 294.677C384.761 294.471 384.883 294.258 384.936 294.092C384.969 293.991 385.059 293.911 385.163 293.892C385.266 293.873 385.361 293.919 385.4 294.007C385.588 294.428 385.702 294.47 385.723 294.474C385.761 294.482 385.872 294.404 385.962 294.341C386.181 294.189 386.512 293.959 386.953 294.031C387.833 294.175 388.189 294.975 388.532 295.749C388.638 295.986 388.739 296.214 388.852 296.417C390.346 294.915 391.681 293.795 393.562 293.795C393.573 293.795 393.584 293.795 393.595 293.795C393.98 293.798 394.366 293.812 394.741 293.826C396.133 293.878 397.448 293.926 398.515 293.394C398.829 293.237 399.137 293.088 399.435 292.943C400.718 292.321 401.93 291.734 403.212 290.742C403.327 290.653 403.479 290.664 403.553 290.766C403.627 290.868 403.593 291.023 403.478 291.112C402.147 292.141 400.907 292.742 399.595 293.378C399.299 293.522 398.992 293.67 398.682 293.825C397.489 294.421 396.109 294.37 394.649 294.316C394.278 294.302 393.895 294.288 393.517 294.285C393.508 294.285 393.498 294.285 393.488 294.285C391.719 294.285 390.49 295.396 388.95 296.964C388.895 297.019 388.822 297.052 388.75 297.052C388.679 297.05 388.614 297.021 388.576 296.966C388.378 296.683 388.223 296.336 388.074 296C387.76 295.292 387.463 294.623 386.803 294.515C386.566 294.477 386.398 294.594 386.203 294.729C386.018 294.858 385.807 295.004 385.56 294.956C385.417 294.928 385.293 294.841 385.173 294.677C385.138 294.741 385.101 294.804 385.065 294.868C384.946 295.076 384.823 295.291 384.781 295.443C384.751 295.549 384.658 295.634 384.55 295.653C384.442 295.672 384.344 295.621 384.309 295.526C384.218 295.284 384.096 295.142 383.934 295.092C383.61 294.991 383.108 295.249 382.621 295.499C382.083 295.775 381.527 296.061 381.101 295.894C381.038 295.87 380.98 295.836 380.928 295.794C380.802 296.174 380.609 296.581 380.272 296.864C380.169 296.95 380.029 296.956 379.945 296.877C379.512 296.469 379.249 295.904 379.185 295.292C378.449 296.35 377.327 297.399 376.154 297.399Z" fill="#019935"/>
<path d="M420.646 264.427C420.631 265.104 420.616 265.776 420.6 266.446C420.55 268.485 420.491 270.491 420.423 272.456C419.633 295.433 417.689 312.92 415.795 312.88C413.899 312.839 412.698 295.239 412.889 272.204C412.904 270.297 412.93 268.352 412.965 266.377C412.977 265.677 412.991 264.973 413.006 264.265C413.575 237.461 415.747 215.768 417.857 215.813C419.966 215.858 421.215 237.623 420.646 264.427Z" fill="#55BB78"/>
<path d="M423.087 236.895C423.818 247.352 423.743 255.792 422.943 255.931C421.847 256.122 421.551 254.729 421.532 252.296C421.529 251.912 422.756 251.415 422.765 250.98C422.836 247.468 422.003 242.484 421.62 236.998C421.212 231.16 420.594 225.957 420.269 222.49C420.204 221.792 419.656 223.328 419.114 220.686C418.452 217.456 420.029 218.083 420.296 218.064C421.107 218.007 422.356 226.438 423.087 236.895Z" fill="#34AD5D"/>
<path d="M420.6 266.446C420.55 268.485 420.491 270.491 420.423 272.456C419.349 272.579 418.18 272.634 416.959 272.608C415.498 272.577 414.118 272.433 412.889 272.204C412.905 270.297 412.93 268.352 412.965 266.377C414.215 266.195 415.617 266.108 417.096 266.14C418.336 266.166 419.519 266.274 420.6 266.446Z" fill="#B0DFC0"/>
<path d="M413.668 321.384C415.099 324.09 415.401 330.94 415.442 328.988C415.464 327.95 415.57 322.949 415.657 318.852L415.803 318.856C415.716 322.952 415.61 327.953 415.588 328.992C415.546 330.943 416.138 324.112 417.683 321.469C418.824 319.519 417.322 315.953 416.457 314.22L416.825 311.223L414.848 311.241L415.085 314.406C414.135 316.167 412.654 319.467 413.668 321.384Z" fill="#004016"/>
<path d="M413.691 263.929C413.211 286.54 414.2 304.899 414.608 304.908C415.017 304.917 414.69 286.572 415.17 263.961C415.65 241.35 416.756 223.035 416.347 223.027C415.939 223.018 414.171 241.319 413.691 263.929Z" fill="white"/>
<path d="M279.538 335.271L279.154 301.124L325.664 301.856L328.098 335.336L279.538 335.271Z" fill="#033D3B"/>
<path d="M116.117 336.853V303.51L166.403 302.359L165.713 335.336L116.117 336.853Z" fill="#033D3B"/>
<path d="M181.212 307.594C181.212 307.594 199.078 283.385 208.291 281.876C224.59 279.206 258.764 279.687 265.481 291.023C272.198 302.359 272.427 311.468 272.427 311.468C272.427 311.468 183.3 311.582 182.405 312.937C181.51 314.292 181.212 307.594 181.212 307.594Z" fill="black"/>
<path d="M182.371 312.25C182.149 311.411 181.944 309.495 181.858 307.791C182.644 306.74 186.777 301.271 191.775 295.719C199.025 287.666 204.772 283.096 208.394 282.503C213.58 281.654 220.398 281.167 227.101 281.167C233.257 281.167 242.291 281.563 250.375 283.453C254.003 284.302 257.062 285.373 259.466 286.636C262.045 287.991 263.885 289.576 264.934 291.347C268.352 297.116 270.034 302.283 270.844 305.601C271.447 308.073 271.668 309.915 271.747 310.833C267.84 310.84 247.721 310.882 227.746 311.058C214.741 311.173 204.341 311.321 196.833 311.499C192.372 311.605 188.894 311.723 186.497 311.849C183.946 311.983 182.869 312.106 182.371 312.25Z" fill="white"/>
<path d="M285.94 277.234C279.974 279.621 283.156 294.375 283.156 294.375L306.224 289.373L310.201 281.609V280.019C310.201 280.019 291.906 274.847 285.94 277.234Z" fill="black"/>
<path d="M283.656 293.616C283.434 292.406 282.981 289.605 282.946 286.675C282.906 283.243 283.433 278.922 286.176 277.824C287.145 277.437 288.563 277.241 290.394 277.241C297.099 277.241 307.283 279.887 309.565 280.504V281.456L305.795 288.815L283.656 293.616Z" fill="#55BB78"/>
<path d="M270.968 286.849C270.968 298.948 268.36 308.757 265.143 308.757C261.926 308.757 259.318 298.948 259.318 286.849C259.318 274.749 261.926 269.31 265.143 269.31C268.36 269.31 270.968 274.749 270.968 286.849Z" fill="black"/>
<path d="M265.143 308.121C264.213 308.121 262.804 306.559 261.639 302.177C260.553 298.09 259.954 292.647 259.954 286.848C259.954 281.258 260.531 276.732 261.621 273.761C262.26 272.02 263.39 269.945 265.143 269.945C266.897 269.945 268.026 272.02 268.665 273.761C269.756 276.732 270.333 281.258 270.333 286.848C270.333 292.647 269.734 298.09 268.648 302.177C267.482 306.559 266.073 308.121 265.143 308.121Z" fill="#55BB78"/>
<path d="M361.903 330.527C353.666 331.221 340.907 334.956 329.992 335.311C329.353 335.331 328.723 335.341 328.097 335.337C328.006 326.063 323.147 316.942 315.727 312.137C312.346 309.948 308.432 308.655 304.193 308.655C290.716 308.655 279.766 321.85 279.539 335.271C278.951 335.27 278.364 335.27 277.776 335.269C276.523 335.266 275.265 335.265 274.005 335.262C264.186 335.249 254.106 335.241 243.916 335.24C220.578 335.237 196.661 335.266 173.968 335.318C173.106 335.32 172.248 335.321 171.391 335.324C170.955 335.324 170.52 335.325 170.118 335.327C169.838 335.327 169.559 335.328 169.281 335.328C169.108 335.328 168.952 335.329 168.818 335.329C167.779 335.332 166.746 335.333 165.714 335.337C165.764 334.819 165.63 322.522 158.867 313.98C156.878 311.466 154.313 309.278 151.009 307.81C148.27 306.592 145.022 305.869 141.172 305.869C130.15 305.869 120.817 313.102 117.66 323.08C117.608 323.244 117.558 323.409 117.508 323.574C116.862 325.78 116.535 327.232 116.315 330.527C116.258 331.397 116.027 336.004 116.116 336.853C114.987 336.931 113.902 337.004 112.858 337.073C111.791 337.142 110.767 337.205 109.779 337.263C101.343 337.756 95.6433 337.818 89.8297 337.162C84.6763 336.581 79.4315 335.436 72.1126 333.531C71.8352 333.459 71.5558 333.386 71.2744 333.313C68.7271 332.644 68.0668 330.84 68.904 327.92C69.3872 326.235 70.3686 324.178 71.7755 321.753C71.9952 321.373 72.2268 320.984 72.4675 320.584C73.7929 318.396 77.1048 316.814 80.6743 314.921C80.8375 314.834 81.0014 314.746 81.1675 314.657C81.6686 314.389 82.1737 314.113 82.6768 313.827C82.6966 313.816 82.7175 313.805 82.7374 313.794C85.6288 312.152 88.4685 310.198 90.3646 307.46C91.6024 305.674 94.9054 303.965 99.5249 302.359C121.639 294.675 173.905 289.372 173.905 289.372C174.006 289.286 174.109 289.198 174.215 289.106C180.322 283.854 195.049 271.476 205.126 265.388C205.258 265.309 205.479 265.209 205.768 265.096C208.298 264.103 216.05 262.041 214.351 263.315C206.85 268.941 197.546 279.798 192.271 286.288H192.27C192.27 286.288 192.267 286.292 192.262 286.298C191.495 287.242 190.812 288.096 190.233 288.824C190.233 288.824 190.378 288.817 190.659 288.806C195.2 288.624 235.146 287.039 262.872 286.779C266.768 286.743 272.439 287.259 278.256 287.06C285.77 286.804 293.525 285.353 298.008 279.974C303.655 273.198 329.668 281.177 343.46 287.096C344.697 287.626 345.832 288.139 346.848 288.624C348.209 289.273 349.546 290.053 350.859 290.925C351.138 291.11 351.415 291.298 351.692 291.492C355.211 293.948 358.549 297.015 361.66 299.924C362.36 300.579 363.048 301.227 363.725 301.856C363.743 301.872 363.76 301.889 363.778 301.906C367.731 305.745 374.345 329.481 361.903 330.527Z" fill="#34AD5D"/>
<path d="M98.9832 337.008C95.6726 337.008 92.7866 336.856 89.9007 336.53C85.1528 335.995 80.2103 334.982 72.2724 332.915C72.1298 332.879 71.988 332.842 71.8458 332.805C71.7086 332.769 71.571 332.733 71.433 332.698C70.4841 332.448 69.8567 332.037 69.5179 331.442C69.0933 330.696 69.0924 329.57 69.515 328.096C69.965 326.526 70.8843 324.556 72.3252 322.072C72.5159 321.742 72.7276 321.385 73.0121 320.912C74.1173 319.088 76.8191 317.667 79.9474 316.023C80.2855 315.845 80.6276 315.666 80.972 315.483C81.1167 315.405 81.4666 315.219 81.4666 315.219C82.0233 314.921 82.5214 314.647 82.9903 314.381L82.9848 314.384L82.9983 314.376C83.0182 314.366 83.0381 314.355 83.0576 314.343C85.6021 312.898 88.7896 310.851 90.8871 307.822C91.9699 306.26 94.9463 304.624 99.7334 302.96C108.737 299.831 124.422 296.6 145.093 293.614C160.731 291.356 173.838 290.018 173.969 290.005L174.168 289.985L174.32 289.854L174.441 289.75C174.504 289.697 174.567 289.642 174.632 289.586C180.544 284.502 195.387 272.015 205.455 265.933C205.51 265.899 205.653 265.824 206 265.688C207.558 265.076 210.735 264.174 212.737 263.764C205.419 269.638 196.75 279.782 191.969 285.652H191.945L191.766 285.9C191.093 286.728 190.41 287.579 189.735 288.429L188.863 289.527L190.263 289.46C190.265 289.459 190.408 289.453 190.683 289.442C198.031 289.148 236.043 287.667 262.878 287.415C263.007 287.414 263.139 287.413 263.272 287.413C264.73 287.413 266.449 287.482 268.269 287.555C270.45 287.643 272.921 287.742 275.439 287.742C276.441 287.742 277.37 287.727 278.277 287.696C288.195 287.357 294.619 285.033 298.497 280.381C299.804 278.813 302.485 278.017 306.466 278.017C311.096 278.017 317.481 279.13 324.931 281.234C330.987 282.945 337.649 285.295 343.209 287.681C344.418 288.199 345.55 288.709 346.574 289.199C347.848 289.806 349.135 290.544 350.507 291.455C350.811 291.657 351.079 291.839 351.326 292.013C354.754 294.404 357.965 297.34 361.226 300.389C361.491 300.637 361.754 300.884 362.016 301.129C362.446 301.532 362.871 301.931 363.292 302.322L363.304 302.333L363.336 302.363C364.522 303.516 366.327 307.226 367.484 312.089C368.058 314.504 368.396 316.914 368.462 319.059C368.536 321.5 368.27 323.586 367.671 325.262C366.658 328.096 364.699 329.654 361.849 329.894C358.379 330.186 354.101 331.016 349.572 331.893C343.342 333.101 336.281 334.47 329.971 334.675C329.532 334.689 329.12 334.698 328.72 334.701C328.418 325.427 323.502 316.414 316.073 311.604C312.452 309.259 308.343 308.02 304.192 308.02C291.157 308.02 279.489 320.385 278.92 334.635C278.827 334.635 278.064 334.634 277.776 334.633C277.131 334.632 276.483 334.631 275.834 334.63C275.226 334.629 274.616 334.628 274.006 334.626C263.704 334.613 253.58 334.606 243.915 334.605L240.608 334.604C219.037 334.604 196.615 334.631 173.966 334.682L173.11 334.684C172.535 334.685 171.961 334.686 171.388 334.688C170.954 334.688 170.517 334.689 170.114 334.691C169.977 334.691 169.419 334.692 169.28 334.692C169.188 334.692 169.1 334.692 169.017 334.693C168.946 334.693 166.755 334.698 166.349 334.699C166.319 333.479 166.149 330.82 165.468 327.539C164.667 323.678 162.958 318.124 159.365 313.586C157.133 310.763 154.408 308.624 151.267 307.229C148.289 305.905 144.892 305.234 141.172 305.234C130.087 305.234 120.394 312.329 117.053 322.889C117 323.056 116.95 323.224 116.899 323.391C116.218 325.716 115.899 327.213 115.681 330.485C115.641 331.078 115.456 334.631 115.461 336.261C114.642 336.317 113.787 336.375 112.816 336.439C111.881 336.5 110.903 336.56 109.741 336.629C105.249 336.891 101.931 337.008 98.9832 337.008Z" fill="#8AD0A2"/>
<path d="M173.495 335.318C176.259 326.734 176.505 320.164 176.722 314.501C176.921 309.299 177.093 304.807 179.304 300.276C180.827 297.155 184.128 294.27 186.781 291.951C188.188 290.72 189.425 289.639 190.04 288.829C190.114 288.73 278.755 287.01 278.763 287.042C280.401 294.001 276.892 302.734 268.333 313C261.113 321.66 251.603 329.808 244.719 335.24C244.604 335.331 211.048 335.234 190.041 335.227C180.464 335.224 173.495 335.318 173.495 335.318Z" fill="black"/>
<path d="M276.815 298.836C271.365 312.08 255.015 326.53 243.916 335.24C220.578 335.237 196.661 335.267 173.968 335.317C179.353 318.596 175.266 309.685 179.751 300.495C180.021 299.94 180.353 299.391 180.728 298.851C183.673 294.609 189.379 290.885 190.659 288.806C195.201 288.624 235.146 287.039 262.873 286.779C266.769 286.743 272.44 287.259 278.257 287.061C279.148 290.731 278.507 294.726 276.815 298.836Z" fill="black"/>
<path d="M174.836 334.679C177.402 326.364 177.641 320.096 177.854 314.544C178.056 309.262 178.216 305.09 180.322 300.773C180.566 300.274 180.878 299.749 181.25 299.214C182.879 296.866 185.456 294.613 187.527 292.803C189.077 291.448 190.333 290.35 191.005 289.428C199.074 289.106 236.393 287.663 262.879 287.415C263.011 287.414 263.146 287.413 263.282 287.413C264.739 287.413 266.459 287.482 268.279 287.556C270.458 287.643 272.927 287.742 275.444 287.742C276.251 287.742 277.01 287.732 277.75 287.712C278.395 290.914 277.883 294.571 276.227 298.594C273.834 304.408 269.057 311.037 262.027 318.296C256.92 323.569 250.753 329.055 243.696 334.604L240.768 334.604C219.809 334.604 197.63 334.629 174.836 334.679Z" fill="#8AD0A2"/>
<path d="M271.33 295.967C269.939 299.149 267.769 299.746 263.376 299.746C258.983 299.746 255.422 301.236 255.422 299.149C255.422 297.062 260.199 295.22 264.569 294.774C270.639 294.156 272.167 294.056 271.33 295.967Z" fill="black"/>
<path d="M205.768 265.095V267.279L185.518 288.238L173.905 289.373C180.013 284.121 195.05 271.476 205.127 265.388C205.258 265.308 205.479 265.209 205.768 265.095Z" fill="black"/>
<path d="M175.852 288.544C182.53 282.851 195.859 271.801 205.133 266.129V267.022L185.223 287.628L175.852 288.544Z" fill="white"/>
<path d="M362.599 300.804C360.071 302.062 357.239 303.291 354.118 304.48C348.617 306.578 342.209 308.565 335.07 310.386C328.475 312.068 322.456 313.298 318.315 314.074L317.819 313.66C321.958 312.892 328.147 311.639 334.951 309.904C343.249 307.787 353.747 304.611 362.208 300.437L362.599 300.804Z" fill="black"/>
<path d="M93.3041 314.074C87.4726 317.877 84.3128 315.904 82.7378 313.794C85.6281 312.152 88.4688 310.199 90.365 307.461C91.6018 305.674 94.9059 303.965 99.5253 302.359C99.8336 305.534 99.0858 310.303 93.3041 314.074Z" fill="black"/>
<path d="M87.3793 315.592C85.9441 315.592 84.7122 315.046 83.7085 313.968C86.129 312.548 88.9677 310.596 90.8876 307.823C91.9084 306.348 94.6167 304.808 98.9434 303.24C99.0272 306.281 97.9466 310.287 92.9565 313.541C90.8703 314.902 88.9938 315.592 87.3793 315.592Z" fill="#BEE0E1"/>
<path d="M367.813 310.797C358.906 310.153 351.692 307.256 351.692 307.256L363.725 301.856H363.726C363.744 301.872 363.76 301.889 363.778 301.906C363.779 301.907 363.781 301.909 363.782 301.91C365.099 303.193 366.71 306.679 367.813 310.797Z" fill="black"/>
<path d="M366.955 310.089C360.956 309.546 355.802 308.009 353.389 307.192L363.577 302.62C364.693 303.912 365.988 306.78 366.955 310.089Z" fill="#BEE0E1"/>
<path opacity="0.1" d="M291.965 307.459C289.111 309.233 287.024 310.81 285.216 312.451C279.659 317.491 277.629 326.878 277.776 335.269C276.524 335.267 275.266 335.265 274.004 335.263C264.186 335.249 254.105 335.242 243.916 335.24C220.578 335.237 196.661 335.267 173.968 335.317C173.385 335.319 172.386 335.321 171.39 335.323C170.955 335.323 170.519 335.324 170.117 335.326C169.954 335.326 169.791 335.327 169.628 335.327C169.506 335.327 169.39 335.327 169.28 335.327C169.107 335.327 168.952 335.328 168.818 335.328C168.818 335.328 169.481 309.293 152.777 303.701C146.446 301.581 161.962 299.939 180.727 298.851C198.015 297.849 218.058 297.318 226.313 297.318C247.234 297.318 241.666 296.145 275.014 298.7C275.496 298.737 276.103 298.783 276.815 298.836C282.586 299.275 295.141 300.291 301.454 302.11C304.699 303.045 297.984 303.717 291.965 307.459Z" fill="black"/>
<path opacity="0.1" d="M116.685 314.34C113.381 319.214 112.166 328.713 112.859 337.072C111.792 337.142 110.767 337.205 109.779 337.263C101.344 337.756 95.6437 337.818 89.8291 337.162C84.4242 336.463 78.8702 335.284 72.113 333.532C71.8356 333.46 71.5562 333.386 71.2749 333.313C68.7275 332.645 68.0673 330.84 68.9045 327.92C69.3876 326.235 70.3691 324.177 71.7759 321.752C71.9957 321.373 72.2274 320.984 72.468 320.585C73.7924 318.397 77.1053 316.814 80.6739 314.921C80.8378 314.833 81.002 314.746 81.167 314.657C81.6692 314.389 82.1732 314.112 82.6773 313.827C87.974 319.783 91.4778 320.604 95.606 320.604C99.5841 320.604 101.897 318.427 105.833 316.188C114.275 311.385 117.974 308.413 122.538 307.067C124.841 306.388 119.233 310.58 116.685 314.34Z" fill="black"/>
<path opacity="0.1" d="M361.903 330.527C353.666 331.221 340.907 334.956 329.992 335.311C329.97 332.772 329.772 328.482 328.845 324.063C327.451 317.411 325.095 312.716 321.738 309.933C317.809 306.675 313.585 305.148 310.2 303.702C304.139 301.109 326.645 303.895 336.719 300.918C342.552 299.195 344.672 297.55 347.258 295.151C348.446 294.049 349.703 292.507 350.859 290.925C351.138 291.11 351.415 291.298 351.692 291.492C355.211 293.948 358.549 297.015 361.66 299.924C362.36 300.579 363.047 301.226 363.724 301.856H363.725C363.743 301.872 363.76 301.889 363.778 301.906C363.779 301.907 363.781 301.909 363.782 301.91C365.099 303.193 366.709 306.679 367.813 310.797C370.023 319.045 370.199 329.83 361.903 330.527Z" fill="black"/>
<path d="M141.104 308.695C129.029 308.695 119.241 318.484 119.241 330.558C119.241 342.633 129.029 352.421 141.104 352.421C153.178 352.421 162.967 342.633 162.967 330.558C162.967 318.484 153.178 308.695 141.104 308.695ZM154.14 330.558C154.14 332.322 153.797 334.028 153.119 335.63C152.691 336.642 152.142 337.588 151.479 338.456C151.479 338.456 149.608 334.031 149.959 332.546C150.304 331.088 153.896 328.025 153.896 328.025C154.059 328.852 154.14 329.699 154.14 330.558ZM141.104 343.595C139.567 343.595 138.075 343.334 136.657 342.819C136.657 342.819 140.303 339.659 141.83 339.534C143.359 339.409 147.476 341.936 147.476 341.936C147.056 342.172 146.622 342.385 146.175 342.574C144.574 343.251 142.867 343.595 141.104 343.595ZM128.073 330.16C128.073 330.16 132.097 332.586 132.672 333.962C133.259 335.365 132.137 340.021 132.137 340.021C132.052 339.941 131.968 339.859 131.886 339.777C130.685 338.577 129.744 337.181 129.088 335.63C128.411 334.028 128.067 332.322 128.067 330.558C128.067 330.425 128.069 330.292 128.073 330.16ZM137.296 318.084C137.296 318.084 136.252 322.576 135.141 323.531C134.019 324.495 129.375 324.857 129.375 324.857C130.007 323.556 130.85 322.376 131.885 321.34C133.086 320.14 134.481 319.199 136.032 318.543C136.447 318.367 136.868 318.214 137.296 318.084ZM142.812 317.632C143.971 317.782 145.097 318.087 146.175 318.543C147.727 319.199 149.121 320.14 150.322 321.34C150.847 321.866 151.323 322.429 151.748 323.026C151.748 323.026 147.093 323.426 145.825 322.655C144.574 321.894 142.812 317.632 142.812 317.632Z" fill="black"/>
<path d="M141.104 351.785C135.434 351.785 130.103 349.577 126.094 345.568C122.085 341.559 119.877 336.228 119.877 330.558C119.877 324.888 122.085 319.558 126.094 315.548C130.103 311.539 135.434 309.331 141.104 309.331C146.774 309.331 152.105 311.539 156.114 315.548C160.123 319.558 162.331 324.888 162.331 330.558C162.331 336.228 160.123 341.559 156.114 345.568C152.105 349.577 146.774 351.785 141.104 351.785ZM141.946 338.893C141.889 338.893 141.832 338.896 141.779 338.9C140.128 339.036 136.876 341.788 136.241 342.338L135.423 343.047L136.44 343.417C137.926 343.957 139.495 344.231 141.104 344.231C142.953 344.231 144.743 343.87 146.423 343.159C146.889 342.962 147.348 342.738 147.787 342.491L148.732 341.961L147.809 341.394C147.392 341.138 143.685 338.893 141.946 338.893ZM127.438 330.139C127.434 330.266 127.432 330.403 127.432 330.558C127.432 332.408 127.792 334.198 128.503 335.878C129.191 337.505 130.178 338.968 131.436 340.226C131.526 340.316 131.615 340.402 131.7 340.483L132.498 341.24L132.756 340.17C132.951 339.359 133.894 335.235 133.26 333.717C132.636 332.224 129.104 330.038 128.402 329.615L127.475 329.056L127.438 330.139ZM153.484 327.541C152.858 328.075 149.715 330.819 149.341 332.399C148.961 334.005 150.567 337.933 150.893 338.704L151.32 339.713L151.985 338.842C152.679 337.933 153.258 336.936 153.705 335.878C154.416 334.197 154.776 332.408 154.776 330.558C154.776 329.658 154.69 328.764 154.52 327.902L154.31 326.837L153.484 327.541ZM137.111 317.476C136.665 317.612 136.219 317.773 135.785 317.957C134.159 318.645 132.696 319.632 131.436 320.89C130.352 321.975 129.466 323.215 128.803 324.579L128.318 325.577L129.424 325.491C130.235 325.428 134.338 325.06 135.556 324.013C136.763 322.975 137.734 319.012 137.916 318.228L138.165 317.155L137.111 317.476ZM142.225 317.875C142.533 318.619 144.135 322.371 145.495 323.198C146.123 323.58 147.33 323.766 149.188 323.766C150.552 323.766 151.752 323.664 151.803 323.66L152.911 323.564L152.266 322.658C151.823 322.033 151.32 321.439 150.772 320.891C149.513 319.632 148.05 318.645 146.423 317.957C145.295 317.48 144.108 317.158 142.894 317.001L141.806 316.86L142.225 317.875Z" fill="#026060"/>
<path d="M155.732 325.917C155.59 325.468 155.426 325.025 155.242 324.589C155.041 324.114 154.818 323.652 154.572 323.203C153.873 321.925 152.996 320.755 151.952 319.711C150.541 318.3 148.899 317.193 147.074 316.421C145.266 315.656 143.347 315.252 141.366 315.22C141.279 315.218 141.191 315.217 141.104 315.217C140.165 315.217 139.239 315.3 138.332 315.466C137.236 315.665 136.167 315.984 135.134 316.421C133.309 317.193 131.667 318.3 130.256 319.711C128.845 321.122 127.738 322.763 126.966 324.589C126.84 324.886 126.724 325.188 126.618 325.491C126.289 326.428 126.055 327.392 125.916 328.376C125.814 329.094 125.763 329.822 125.763 330.558C125.763 332.632 126.168 334.641 126.966 336.528C127.739 338.354 128.846 339.995 130.257 341.406C130.771 341.921 131.316 342.395 131.89 342.826C132.646 343.397 133.452 343.894 134.302 344.315C134.576 344.45 134.853 344.577 135.135 344.697C137.022 345.494 139.03 345.899 141.104 345.899C143.178 345.899 145.186 345.494 147.073 344.697C148.128 344.25 149.121 343.692 150.044 343.029C150.719 342.544 151.356 342.002 151.952 341.406C152.028 341.329 152.104 341.252 152.178 341.175C153.482 339.817 154.512 338.255 155.242 336.528C156.04 334.641 156.445 332.632 156.445 330.558C156.445 328.964 156.206 327.408 155.732 325.917ZM146.175 318.543C147.727 319.199 149.122 320.14 150.322 321.34C150.848 321.866 151.324 322.429 151.748 323.026C151.748 323.026 151.748 323.027 151.747 323.027C151.654 323.039 146.95 323.68 145.695 322.916C144.444 322.155 142.813 317.632 142.813 317.632C143.972 317.782 145.097 318.087 146.175 318.543ZM131.885 321.34C133.086 320.14 134.481 319.199 136.032 318.543C136.447 318.367 136.868 318.214 137.296 318.084C137.296 318.084 136.339 322.793 135.228 323.748C134.106 324.712 129.375 324.857 129.375 324.857C130.008 323.556 130.85 322.376 131.885 321.34ZM132.137 340.022C132.052 339.941 131.969 339.859 131.886 339.777C130.685 338.577 129.745 337.181 129.088 335.63C128.411 334.029 128.067 332.322 128.067 330.558C128.067 330.425 128.069 330.292 128.073 330.16C128.073 330.16 132.402 332.586 132.977 333.962C133.559 335.357 132.156 339.962 132.138 340.021C132.137 340.021 132.137 340.022 132.137 340.022ZM146.175 342.574C144.574 343.251 142.868 343.595 141.104 343.595C139.568 343.595 138.075 343.334 136.657 342.819C136.657 342.819 140.304 339.311 141.83 339.186C143.359 339.061 147.476 341.936 147.476 341.936C147.056 342.172 146.623 342.385 146.175 342.574ZM153.12 335.63C152.691 336.642 152.142 337.588 151.479 338.456C151.479 338.456 151.463 338.425 151.435 338.366C151.13 337.73 149.333 333.905 149.655 332.546C150.001 331.087 153.896 328.025 153.896 328.025C154.059 328.852 154.14 329.699 154.14 330.558C154.14 332.322 153.797 334.029 153.12 335.63Z" fill="black"/>
<path d="M141.104 345.263C139.116 345.263 137.191 344.876 135.382 344.111C135.115 343.998 134.846 343.874 134.584 343.745C133.771 343.342 132.993 342.862 132.272 342.319C131.725 341.907 131.198 341.449 130.706 340.956C129.353 339.603 128.292 338.03 127.551 336.28C126.787 334.472 126.399 332.547 126.399 330.558C126.399 329.856 126.448 329.152 126.546 328.466C126.678 327.526 126.904 326.596 127.218 325.702C127.32 325.41 127.432 325.119 127.551 324.837C128.292 323.086 129.353 321.513 130.706 320.16C132.059 318.807 133.632 317.746 135.382 317.006C136.367 316.589 137.398 316.282 138.446 316.091C139.313 315.933 140.208 315.853 141.104 315.853C141.187 315.853 141.27 315.854 141.352 315.856C143.254 315.886 145.094 316.273 146.826 317.006C148.575 317.746 150.149 318.807 151.502 320.16C152.5 321.159 153.345 322.285 154.014 323.508C154.247 323.933 154.463 324.38 154.656 324.837C154.832 325.252 154.99 325.68 155.126 326.109C155.579 327.536 155.809 329.033 155.809 330.558C155.809 332.547 155.421 334.472 154.656 336.28C153.956 337.935 152.968 339.434 151.719 340.734C151.654 340.802 151.586 340.872 151.502 340.956C150.932 341.526 150.317 342.049 149.672 342.512C148.789 343.148 147.831 343.685 146.825 344.111C145.016 344.876 143.091 345.263 141.104 345.263ZM141.931 338.546C141.879 338.546 141.828 338.548 141.779 338.552C140.111 338.689 136.853 341.749 136.216 342.361L135.481 343.068L136.44 343.417C137.926 343.957 139.495 344.231 141.104 344.231C142.954 344.231 144.743 343.87 146.423 343.16C146.889 342.962 147.348 342.737 147.787 342.491L148.671 341.995L147.84 341.415C147.42 341.121 143.682 338.546 141.931 338.546ZM127.438 330.139C127.434 330.272 127.432 330.413 127.432 330.558C127.432 332.408 127.792 334.197 128.503 335.878C129.191 337.506 130.178 338.969 131.436 340.226C131.522 340.312 131.611 340.398 131.7 340.483L132.167 340.925L132.704 340.345L132.747 340.203C133.095 339.051 134.178 335.188 133.564 333.717C132.936 332.214 129.139 330.028 128.384 329.605L127.472 329.094L127.438 330.139ZM153.503 327.525C152.823 328.059 149.414 330.805 149.037 332.399C148.687 333.876 150.197 337.256 150.862 338.641C150.892 338.704 150.91 338.74 150.91 338.74L151.365 339.652L151.984 338.842C152.678 337.934 153.257 336.936 153.705 335.878C154.416 334.197 154.776 332.408 154.776 330.558C154.776 329.658 154.69 328.764 154.52 327.902L154.319 326.884L153.503 327.525ZM137.111 317.476C136.663 317.612 136.217 317.774 135.785 317.957C134.158 318.645 132.695 319.632 131.436 320.89C130.352 321.975 129.466 323.216 128.803 324.579L128.343 325.525L129.394 325.493C130.222 325.467 134.413 325.288 135.643 324.231C136.857 323.186 137.752 319.033 137.919 318.211L138.132 317.164L137.111 317.476ZM142.214 317.848C142.5 318.638 143.992 322.624 145.365 323.459C145.888 323.777 146.761 323.926 148.113 323.926C149.713 323.926 151.448 323.708 151.789 323.662H152.023L152.212 323.461L152.568 323.081L152.266 322.657C151.822 322.033 151.319 321.438 150.772 320.89C149.513 319.632 148.05 318.645 146.423 317.957C145.294 317.48 144.107 317.158 142.894 317.001L141.861 316.867L142.214 317.848Z" fill="#BEE0E1"/>
<path d="M144.691 330.558C144.691 332.539 143.085 334.145 141.104 334.145C139.123 334.145 137.517 332.539 137.517 330.558C137.517 328.577 139.123 326.971 141.104 326.971C143.085 326.971 144.691 328.577 144.691 330.558Z" fill="white"/>
<path d="M141.104 332.884C139.821 332.884 138.778 331.841 138.778 330.558C138.778 329.275 139.821 328.232 141.104 328.232C142.387 328.232 143.43 329.276 143.43 330.558C143.43 331.841 142.387 332.884 141.104 332.884Z" fill="#033D3B"/>
<path d="M141.774 325.502C141.774 326.15 141.248 326.676 140.6 326.676C139.951 326.676 139.426 326.15 139.426 325.502C139.426 324.854 139.951 324.328 140.6 324.328C141.248 324.328 141.774 324.854 141.774 325.502Z" fill="#2C2B2C"/>
<path d="M147.013 328.232C147.013 328.881 146.488 329.406 145.839 329.406C145.191 329.406 144.666 328.881 144.666 328.232C144.666 327.584 145.191 327.058 145.839 327.058C146.488 327.058 147.013 327.584 147.013 328.232Z" fill="#2C2B2C"/>
<path d="M145.535 334.589C145.535 335.237 145.009 335.763 144.361 335.763C143.713 335.763 143.187 335.237 143.187 334.589C143.187 333.941 143.713 333.415 144.361 333.415C145.009 333.415 145.535 333.941 145.535 334.589Z" fill="#2C2B2C"/>
<path d="M139.3 334.893C139.3 335.541 138.774 336.067 138.126 336.067C137.477 336.067 136.952 335.541 136.952 334.893C136.952 334.245 137.477 333.719 138.126 333.719C138.774 333.719 139.3 334.245 139.3 334.893Z" fill="#2C2B2C"/>
<path d="M137.213 329.406C137.213 330.054 136.687 330.58 136.039 330.58C135.39 330.58 134.865 330.054 134.865 329.406C134.865 328.758 135.39 328.232 136.039 328.232C136.687 328.232 137.213 328.758 137.213 329.406Z" fill="#2C2B2C"/>
<path opacity="0.3" d="M147.476 341.936C147.476 341.936 143.359 339.061 141.83 339.186C140.304 339.311 136.657 342.819 136.657 342.819C136.657 342.819 140.339 334.35 143.6 337.415C146.861 340.48 147.476 341.936 147.476 341.936Z" fill="black"/>
<path opacity="0.5" d="M151.435 338.366L151.426 338.405C151.426 338.405 144.444 332.361 148.343 330.165C152.242 327.968 153.896 328.025 153.896 328.025C153.896 328.025 150 331.087 149.655 332.546C149.333 333.905 151.13 337.73 151.435 338.366Z" fill="black"/>
<path opacity="0.5" d="M151.747 323.027C151.631 323.096 143.934 327.672 143.097 323.31C142.253 318.915 142.813 317.632 142.813 317.632C142.813 317.632 144.444 322.155 145.695 322.916C146.95 323.68 151.654 323.039 151.747 323.027Z" fill="black"/>
<path opacity="0.2" d="M134.945 326.204C130.499 325.685 129.375 324.857 129.375 324.857C129.375 324.857 134.106 324.713 135.228 323.749C136.339 322.794 137.296 318.084 137.296 318.084C137.296 318.084 139.389 326.723 134.945 326.204Z" fill="black"/>
<path opacity="0.2" d="M135.265 335.014C133.401 339.043 132.157 340.007 132.138 340.021C132.156 339.962 133.559 335.357 132.977 333.963C132.402 332.586 128.074 330.16 128.074 330.16C128.074 330.16 137.146 330.952 135.265 335.014Z" fill="black"/>
<path d="M303.801 306.162C291.726 306.162 281.938 315.951 281.938 328.025C281.938 340.1 291.726 349.888 303.801 349.888C315.876 349.888 325.664 340.1 325.664 328.025C325.664 315.951 315.876 306.162 303.801 306.162ZM316.837 328.025C316.837 329.789 316.494 331.495 315.816 333.097C315.388 334.109 314.839 335.055 314.176 335.923C314.176 335.923 312.305 331.497 312.657 330.013C313.002 328.554 316.593 325.492 316.593 325.492C316.756 326.319 316.837 327.166 316.837 328.025ZM303.801 341.062C302.265 341.062 300.772 340.801 299.354 340.286C299.354 340.286 303.001 337.126 304.527 337.001C306.056 336.876 310.173 339.403 310.173 339.403C309.753 339.639 309.319 339.851 308.873 340.041C307.271 340.718 305.565 341.062 303.801 341.062ZM290.771 327.627C290.771 327.627 294.794 330.053 295.37 331.429C295.956 332.832 294.834 337.488 294.834 337.488C294.75 337.408 294.666 337.326 294.583 337.244C293.382 336.043 292.442 334.648 291.785 333.097C291.108 331.495 290.765 329.789 290.765 328.025C290.765 327.892 290.766 327.759 290.771 327.627ZM299.993 315.551C299.993 315.551 298.949 320.043 297.838 320.998C296.717 321.962 292.072 322.324 292.072 322.324C292.705 321.023 293.547 319.842 294.583 318.807C295.783 317.607 297.178 316.666 298.729 316.01C299.144 315.834 299.565 315.681 299.993 315.551ZM305.51 315.099C306.669 315.249 307.794 315.553 308.873 316.01C310.424 316.666 311.819 317.607 313.019 318.807C313.545 319.333 314.021 319.896 314.445 320.493C314.445 320.493 309.79 320.893 308.523 320.122C307.272 319.361 305.51 315.099 305.51 315.099Z" fill="black"/>
<path d="M323.545 319.685C322.466 317.133 320.921 314.841 318.953 312.873C316.984 310.905 314.693 309.36 312.141 308.281C309.5 307.163 306.693 306.597 303.801 306.597C300.908 306.597 298.102 307.163 295.46 308.281C292.908 309.36 290.617 310.905 288.649 312.873C286.68 314.841 285.136 317.133 284.056 319.685C282.939 322.326 282.373 325.133 282.373 328.025C282.373 330.918 282.939 333.725 284.056 336.366C285.136 338.918 286.68 341.209 288.649 343.177C290.617 345.145 292.908 346.691 295.46 347.77C298.102 348.887 300.908 349.453 303.801 349.453C306.693 349.453 309.5 348.887 312.141 347.77C314.693 346.691 316.984 345.145 318.953 343.177C320.921 341.21 322.466 338.918 323.545 336.366C324.663 333.725 325.229 330.918 325.229 328.025C325.229 325.132 324.663 322.326 323.545 319.685ZM316.837 328.025C316.837 329.789 316.494 331.495 315.816 333.097C315.388 334.109 314.839 335.055 314.176 335.923C314.176 335.923 312.305 331.497 312.656 330.013C313.002 328.554 316.593 325.492 316.593 325.492C316.756 326.319 316.837 327.166 316.837 328.025ZM303.801 341.062C302.265 341.062 300.772 340.801 299.354 340.286C299.354 340.286 303 337.126 304.527 337.001C306.056 336.876 310.173 339.403 310.173 339.403C309.753 339.639 309.319 339.851 308.872 340.041C307.271 340.718 305.564 341.062 303.801 341.062ZM291.785 333.097C291.108 331.495 290.764 329.789 290.764 328.025C290.764 327.892 290.766 327.759 290.771 327.627C290.771 327.627 294.794 330.053 295.369 331.429C295.956 332.832 294.834 337.488 294.834 337.488C294.749 337.408 294.665 337.326 294.583 337.244C293.382 336.043 292.441 334.648 291.785 333.097ZM308.872 316.01C310.424 316.666 311.819 317.607 313.019 318.807C313.545 319.333 314.021 319.896 314.445 320.493C314.445 320.493 309.79 320.893 308.522 320.122C307.271 319.361 305.51 315.099 305.51 315.099C306.668 315.249 307.794 315.553 308.872 316.01ZM299.993 315.551C299.993 315.551 298.949 320.043 297.838 320.998C296.717 321.962 292.072 322.324 292.072 322.324C292.704 321.023 293.547 319.842 294.582 318.807C295.783 317.607 297.178 316.666 298.729 316.01C299.144 315.834 299.565 315.681 299.993 315.551Z" fill="#026060"/>
<path d="M318.429 323.384C318.287 322.935 318.123 322.492 317.939 322.056C317.738 321.581 317.515 321.119 317.269 320.67C316.57 319.392 315.692 318.221 314.649 317.178C313.238 315.767 311.596 314.66 309.77 313.887C307.963 313.122 306.044 312.719 304.063 312.687C303.976 312.685 303.888 312.684 303.801 312.684C302.862 312.684 301.936 312.767 301.029 312.932C299.933 313.131 298.864 313.45 297.831 313.887C296.006 314.659 294.364 315.767 292.953 317.178C291.542 318.588 290.435 320.23 289.663 322.055C289.537 322.353 289.42 322.655 289.314 322.958C288.986 323.895 288.752 324.859 288.613 325.843C288.511 326.56 288.46 327.288 288.46 328.025C288.46 330.099 288.865 332.107 289.663 333.994C290.435 335.821 291.542 337.462 292.953 338.873C293.468 339.388 294.013 339.861 294.586 340.293C295.343 340.863 296.149 341.361 296.999 341.781C297.272 341.917 297.55 342.044 297.831 342.163C299.718 342.961 301.727 343.366 303.801 343.366C305.875 343.366 307.883 342.961 309.77 342.163C310.825 341.717 311.818 341.159 312.74 340.495C313.415 340.01 314.053 339.469 314.649 338.873C314.725 338.796 314.801 338.719 314.874 338.641C316.179 337.283 317.208 335.721 317.939 333.994C318.737 332.107 319.142 330.099 319.142 328.025C319.142 326.431 318.903 324.875 318.429 323.384ZM308.872 316.01C310.424 316.666 311.819 317.607 313.019 318.807C313.545 319.333 314.02 319.896 314.445 320.493C314.445 320.493 314.445 320.494 314.444 320.494C314.351 320.506 309.647 321.147 308.392 320.383C307.141 319.622 305.509 315.099 305.509 315.099C306.668 315.249 307.794 315.554 308.872 316.01ZM294.582 318.807C295.783 317.607 297.178 316.666 298.729 316.01C299.143 315.835 299.565 315.682 299.993 315.551C299.993 315.551 299.036 320.26 297.925 321.215C296.803 322.179 292.072 322.324 292.072 322.324C292.704 321.023 293.547 319.843 294.582 318.807ZM294.834 337.488C294.749 337.408 294.665 337.326 294.583 337.244C293.382 336.044 292.442 334.648 291.785 333.097C291.108 331.495 290.764 329.789 290.764 328.025C290.764 327.892 290.766 327.759 290.77 327.627C290.77 327.627 295.098 330.053 295.674 331.429C296.256 332.823 294.852 337.429 294.835 337.488C294.834 337.488 294.834 337.488 294.834 337.488ZM308.872 340.041C307.271 340.718 305.564 341.062 303.801 341.062C302.265 341.062 300.772 340.801 299.354 340.286C299.354 340.286 303.001 336.778 304.527 336.653C306.056 336.528 310.173 339.403 310.173 339.403C309.753 339.639 309.319 339.852 308.872 340.041ZM315.816 333.097C315.388 334.109 314.839 335.055 314.176 335.923C314.176 335.923 314.16 335.892 314.132 335.833C313.827 335.197 312.03 331.372 312.352 330.013C312.698 328.554 316.593 325.492 316.593 325.492C316.756 326.319 316.837 327.166 316.837 328.025C316.837 329.789 316.494 331.495 315.816 333.097Z" fill="black"/>
<path d="M303.801 342.73C301.813 342.73 299.888 342.343 298.079 341.578C297.811 341.465 297.543 341.342 297.281 341.212C296.468 340.809 295.69 340.33 294.969 339.786C294.422 339.374 293.895 338.916 293.403 338.423C292.05 337.07 290.988 335.497 290.248 333.747C289.484 331.939 289.096 330.014 289.096 328.025C289.096 327.323 289.145 326.619 289.242 325.933C289.375 324.993 289.601 324.063 289.914 323.169C290.016 322.879 290.128 322.588 290.248 322.304C290.989 320.554 292.05 318.98 293.403 317.628C294.756 316.275 296.329 315.214 298.079 314.473C299.064 314.057 300.095 313.749 301.142 313.559C302.01 313.401 302.904 313.321 303.801 313.321C303.884 313.321 303.967 313.321 304.05 313.323C305.951 313.354 307.791 313.741 309.522 314.473C311.273 315.214 312.846 316.275 314.199 317.628C315.197 318.626 316.042 319.752 316.711 320.975C316.944 321.401 317.16 321.848 317.353 322.304C317.529 322.72 317.687 323.148 317.823 323.576C318.276 325.003 318.506 326.5 318.506 328.026C318.506 330.015 318.118 331.94 317.353 333.747C316.653 335.403 315.664 336.901 314.416 338.201C314.343 338.278 314.271 338.351 314.199 338.424C313.629 338.993 313.014 339.516 312.369 339.979C311.486 340.615 310.528 341.153 309.522 341.578C307.713 342.343 305.788 342.73 303.801 342.73ZM304.628 336.013C304.576 336.013 304.525 336.015 304.475 336.019C302.808 336.156 299.549 339.216 298.913 339.828L298.178 340.535L299.137 340.884C300.622 341.424 302.192 341.698 303.801 341.698C305.65 341.698 307.44 341.337 309.12 340.627C309.586 340.429 310.045 340.204 310.484 339.958L311.368 339.462L310.537 338.882C310.116 338.589 306.379 336.013 304.628 336.013ZM290.135 327.607C290.13 327.74 290.128 327.877 290.128 328.025C290.128 329.875 290.489 331.665 291.199 333.345C291.888 334.973 292.875 336.436 294.133 337.693C294.217 337.778 294.306 337.865 294.397 337.951L294.85 338.378L295.398 337.822L295.444 337.67C295.791 336.519 296.875 332.656 296.26 331.184C295.632 329.681 291.836 327.495 291.081 327.072L290.168 326.561L290.135 327.607ZM316.2 324.992C315.52 325.527 312.111 328.273 311.733 329.866C311.384 331.342 312.894 334.723 313.559 336.108C313.589 336.171 313.606 336.206 313.606 336.206L314.061 337.12L314.681 336.309C315.375 335.401 315.954 334.404 316.402 333.345C317.113 331.665 317.473 329.875 317.473 328.025C317.473 327.125 317.387 326.232 317.217 325.369L317.016 324.351L316.2 324.992ZM299.807 314.943C299.36 315.079 298.914 315.241 298.481 315.424C296.855 316.112 295.392 317.099 294.133 318.358C293.048 319.442 292.163 320.683 291.5 322.046L291.04 322.992L292.091 322.96C292.919 322.935 297.11 322.755 298.34 321.698C299.554 320.654 300.449 316.5 300.616 315.678L300.829 314.631L299.807 314.943ZM304.911 315.315C305.196 316.105 306.688 320.091 308.061 320.926C308.584 321.245 309.458 321.393 310.81 321.393C312.415 321.393 314.142 321.175 314.486 321.13H314.705L314.892 320.945L315.276 320.565L314.963 320.125C314.518 319.499 314.015 318.905 313.468 318.358C312.21 317.099 310.747 316.112 309.12 315.424C307.992 314.947 306.804 314.625 305.591 314.468L304.558 314.334L304.911 315.315Z" fill="#BEE0E1"/>
<path d="M307.388 328.025C307.388 330.006 305.782 331.612 303.801 331.612C301.82 331.612 300.214 330.006 300.214 328.025C300.214 326.044 301.82 324.438 303.801 324.438C305.782 324.438 307.388 326.044 307.388 328.025Z" fill="#E1E3E1"/>
<path d="M303.801 330.351C302.518 330.351 301.475 329.308 301.475 328.025C301.475 326.742 302.519 325.699 303.801 325.699C305.084 325.699 306.127 326.742 306.127 328.025C306.127 329.308 305.084 330.351 303.801 330.351Z" fill="#033D3B"/>
<path d="M304.471 322.969C304.471 323.617 303.945 324.143 303.297 324.143C302.648 324.143 302.123 323.617 302.123 322.969C302.123 322.32 302.648 321.795 303.297 321.795C303.945 321.795 304.471 322.321 304.471 322.969Z" fill="#2C2B2C"/>
<path d="M309.71 325.699C309.71 326.347 309.184 326.873 308.536 326.873C307.888 326.873 307.362 326.347 307.362 325.699C307.362 325.051 307.888 324.525 308.536 324.525C309.184 324.525 309.71 325.051 309.71 325.699Z" fill="#2C2B2C"/>
<path d="M308.232 332.056C308.232 332.704 307.707 333.23 307.058 333.23C306.41 333.23 305.884 332.704 305.884 332.056C305.884 331.408 306.41 330.882 307.058 330.882C307.707 330.882 308.232 331.408 308.232 332.056Z" fill="#2C2B2C"/>
<path d="M301.997 332.36C301.997 333.009 301.471 333.534 300.823 333.534C300.175 333.534 299.649 333.009 299.649 332.36C299.649 331.712 300.175 331.186 300.823 331.186C301.471 331.186 301.997 331.712 301.997 332.36Z" fill="#2C2B2C"/>
<path d="M299.909 326.873C299.909 327.521 299.384 328.047 298.736 328.047C298.087 328.047 297.562 327.521 297.562 326.873C297.562 326.225 298.087 325.699 298.736 325.699C299.384 325.699 299.909 326.225 299.909 326.873Z" fill="#2C2B2C"/>
<path opacity="0.3" d="M310.173 339.403C310.173 339.403 306.056 336.528 304.528 336.653C303.001 336.778 299.354 340.286 299.354 340.286C299.354 340.286 303.036 331.817 306.297 334.882C309.558 337.947 310.173 339.403 310.173 339.403Z" fill="black"/>
<path opacity="0.5" d="M314.132 335.833L314.123 335.872C314.123 335.872 307.14 329.828 311.04 327.632C314.939 325.435 316.593 325.492 316.593 325.492C316.593 325.492 312.697 328.555 312.352 330.013C312.03 331.372 313.827 335.197 314.132 335.833Z" fill="black"/>
<path opacity="0.5" d="M314.444 320.494C314.328 320.563 306.631 325.139 305.794 320.777C304.95 316.382 305.509 315.099 305.509 315.099C305.509 315.099 307.141 319.622 308.392 320.383C309.647 321.147 314.351 320.506 314.444 320.494Z" fill="black"/>
<path opacity="0.2" d="M297.641 323.671C293.196 323.152 292.072 322.324 292.072 322.324C292.072 322.324 296.803 322.179 297.925 321.215C299.036 320.26 299.993 315.551 299.993 315.551C299.993 315.551 302.086 324.189 297.641 323.671Z" fill="black"/>
<path opacity="0.2" d="M297.962 332.48C296.097 336.51 294.854 337.474 294.835 337.488C294.853 337.429 296.256 332.823 295.674 331.429C295.099 330.053 290.771 327.627 290.771 327.627C290.771 327.627 299.842 328.419 297.962 332.48Z" fill="black"/>
<path d="M188.758 254.485C188.155 254.775 187.447 254.759 186.863 254.443C186.796 254.408 186.732 254.369 186.673 254.329L181.114 250.565L167.714 222.674C165.249 222.779 162.817 222.193 160.654 220.967C158.304 219.635 156.443 217.638 155.275 215.19C153.776 212.052 153.601 208.487 154.779 205.15C155.957 201.817 158.329 199.153 161.459 197.649C161.509 197.625 161.56 197.601 161.611 197.577C164.767 196.111 168.311 195.95 171.591 197.123C174.873 198.297 177.512 200.675 179.021 203.817C180.193 206.256 180.584 208.952 180.153 211.613C179.745 214.128 178.637 216.444 176.942 218.327L176.859 222.006L179.892 223.861L180.375 229.853C180.45 230.78 180.984 231.596 181.804 232.035L184.464 233.46L184.648 238.185C184.685 239.12 185.171 239.986 185.95 240.502L187.97 241.846L190.442 247.249L189.939 252.769C189.877 253.518 189.435 254.159 188.758 254.485C188.758 254.485 188.758 254.485 188.758 254.485ZM163.823 202.516C162.275 203.26 161.621 205.125 162.364 206.673C163.108 208.221 164.973 208.875 166.521 208.131C168.069 207.388 168.723 205.523 167.98 203.975C167.236 202.427 165.371 201.772 163.823 202.516Z" fill="black"/>
<path d="M161.892 198.181C155.653 201.079 152.911 208.695 155.876 214.903C158.168 219.704 163.121 222.369 168.121 221.983L181.637 250.114L187.051 253.78C187.092 253.808 187.134 253.833 187.177 253.856C188.066 254.339 189.192 253.752 189.276 252.711L189.763 247.365L187.444 242.295L185.582 241.057C184.623 240.421 184.029 239.362 183.984 238.211L183.815 233.867L181.49 232.622C180.475 232.077 179.805 231.054 179.713 229.907L179.257 224.252L176.186 222.374L176.283 218.062C179.702 214.407 180.72 208.889 178.422 204.105C175.457 197.933 168.084 195.304 161.892 198.181ZM166.809 208.731C164.927 209.636 162.669 208.843 161.765 206.961C160.861 205.079 161.653 202.82 163.535 201.916C165.417 201.012 167.676 201.805 168.58 203.687C169.484 205.569 168.692 207.827 166.809 208.731Z" fill="white"/>
<path d="M186.867 254.445C186.799 254.409 186.734 254.37 186.673 254.329L181.114 250.565L167.418 222.058C167.418 222.058 169.26 221.565 169.844 221.341C170.361 221.142 171.913 220.547 171.913 220.547L188.294 254.644L186.867 254.445Z" fill="black"/>
<path d="M171.586 221.404L187.177 253.856C187.134 253.833 187.091 253.808 187.051 253.78L181.636 250.114L168.323 222.403C168.323 222.403 169.601 222.141 169.998 221.993C170.395 221.846 171.586 221.404 171.586 221.404Z" fill="#7EBCBB"/>
<path d="M162.996 262.03C162.327 262.03 161.696 261.709 161.306 261.172C161.261 261.111 161.22 261.049 161.185 260.987L157.804 255.187V224.244C155.535 223.271 153.598 221.689 152.179 219.649C150.637 217.43 149.825 214.824 149.832 212.111C149.84 208.634 151.225 205.344 153.733 202.847C156.237 200.352 159.529 198.979 163.002 198.979C163.058 198.979 163.114 198.979 163.171 198.98C166.65 199.025 169.915 200.414 172.362 202.892C174.812 205.372 176.162 208.657 176.162 212.143C176.162 214.849 175.347 217.449 173.805 219.661C172.349 221.751 170.347 223.359 168.004 224.322L166.336 227.603L168.267 230.587L166.107 236.198C165.773 237.066 165.901 238.032 166.45 238.783L168.231 241.22L166.35 245.559C165.979 246.417 166.042 247.408 166.52 248.211L167.759 250.297L167.648 256.237L164.804 260.995C164.423 261.643 163.748 262.03 162.996 262.03C162.996 262.03 162.996 262.03 162.996 262.03ZM163.025 204.389C161.308 204.389 159.911 205.787 159.911 207.504C159.911 209.222 161.308 210.619 163.025 210.619C164.743 210.619 166.14 209.222 166.14 207.504C166.14 205.787 164.743 204.389 163.025 204.389Z" fill="black"/>
<path d="M163.162 199.645C156.283 199.556 150.513 205.233 150.497 212.113C150.484 217.433 153.795 221.98 158.469 223.797V255.007L161.762 260.656C161.787 260.698 161.814 260.739 161.843 260.779C162.435 261.599 163.704 261.558 164.231 260.656L166.985 256.048L167.09 250.473L165.948 248.551C165.359 247.562 165.282 246.35 165.739 245.294L167.468 241.305L165.912 239.176C165.232 238.245 165.072 237.033 165.486 235.959L167.524 230.664L165.569 227.642L167.524 223.797C172.188 221.983 175.496 217.45 175.496 212.143C175.496 205.296 169.988 199.734 163.162 199.645ZM163.025 211.285C160.937 211.285 159.245 209.592 159.245 207.504C159.245 205.416 160.937 203.724 163.025 203.724C165.113 203.724 166.806 205.416 166.806 207.504C166.806 209.592 165.113 211.285 163.025 211.285Z" fill="white"/>
<path d="M161.309 261.176C161.263 261.114 161.221 261.05 161.184 260.987L157.803 255.187V223.561C157.803 223.561 159.676 223.914 160.301 223.965C160.853 224.01 162.509 224.145 162.509 224.145V261.973L161.309 261.176Z" fill="black"/>
<path d="M161.843 224.776V260.779C161.813 260.739 161.786 260.698 161.762 260.656L158.469 255.007V224.263C158.469 224.263 159.734 224.58 160.156 224.619C160.577 224.659 161.843 224.776 161.843 224.776Z" fill="#7EBCBB"/>
<path d="M164.293 204.66L164.574 204.836C164.584 204.828 164.594 204.819 164.604 204.81C164.42 204.706 164.293 204.66 164.293 204.66Z" fill="black"/>
<path d="M166.01 206.614C165.98 206.484 165.94 206.361 165.895 206.246C165.878 206.26 165.862 206.274 165.845 206.287L166.01 206.614Z" fill="black"/>
<path d="M165.152 205.2L165.517 205.637L165.845 206.288C165.862 206.274 165.878 206.26 165.895 206.246C165.715 205.788 165.431 205.447 165.152 205.2Z" fill="black"/>
<path d="M164.573 204.836L165.152 205.2C164.954 205.024 164.758 204.897 164.604 204.81C164.594 204.819 164.584 204.828 164.573 204.836Z" fill="black"/>
<path d="M157.224 209.417C160.501 209.417 163.508 208.24 165.845 206.288L165.517 205.637L165.152 205.2L164.574 204.836C162.576 206.491 160.014 207.486 157.224 207.486C153.89 207.486 150.882 206.064 148.774 203.795L147.373 205.122C149.833 207.762 153.339 209.417 157.224 209.417Z" fill="black"/>
<path d="M157.224 208.751C155.419 208.751 153.673 208.381 152.035 207.652C150.653 207.036 149.406 206.193 148.322 205.14L148.757 204.728C151.024 206.912 154.073 208.152 157.224 208.152C159.893 208.152 162.5 207.267 164.619 205.651L164.708 205.707L164.957 206.005L165.008 206.106C162.78 207.815 160.036 208.751 157.224 208.751Z" fill="#BFE2E2"/>
<path d="M147.731 196.404L134.094 191.271L123.329 192.5C121.272 192.735 119.457 193.956 118.46 195.771L103.961 222.23C103.347 223.352 102.983 224.593 102.897 225.867L101.538 245.87L96.7706 260.803C96.3412 262.145 96.4095 263.598 96.9628 264.894L99.7987 271.544C100.478 273.138 102.655 273.341 103.616 271.901L108.761 264.196C108.09 263.976 107.439 263.663 106.824 263.252C103.165 260.81 102.176 255.846 104.619 252.188C107.062 248.529 112.026 247.54 115.684 249.983C116.3 250.394 116.838 250.875 117.299 251.41L138.462 219.714C137.792 219.494 137.141 219.181 136.525 218.771C132.867 216.328 131.877 211.364 134.32 207.706C136.763 204.047 141.727 203.058 145.385 205.5C146 205.912 146.539 206.393 147 206.928L149.777 202.767C151.303 200.483 150.303 197.372 147.731 196.404ZM141.1 199.601C141.205 197.848 142.713 196.512 144.467 196.617C146.22 196.722 147.556 198.23 147.451 199.983C147.346 201.737 145.838 203.074 144.085 202.968C142.331 202.863 140.995 201.355 141.1 199.601Z" fill="#55BB78"/>
<path d="M112.635 263.559C116.472 262.795 118.963 259.064 118.198 255.227C117.434 251.39 113.703 248.9 109.866 249.664C106.029 250.429 103.539 254.159 104.303 257.996C105.068 261.833 108.798 264.324 112.635 263.559Z" fill="#55BB78"/>
<path d="M116.302 257.27C116.566 254.481 114.519 252.005 111.729 251.741C108.94 251.476 106.464 253.524 106.2 256.313C105.935 259.103 107.983 261.578 110.772 261.843C113.562 262.107 116.037 260.06 116.302 257.27Z" fill="#8AD0A2"/>
<path d="M142.027 219.471C145.864 218.706 148.355 214.976 147.59 211.139C146.826 207.302 143.096 204.811 139.259 205.576C135.422 206.34 132.931 210.071 133.695 213.908C134.46 217.745 138.19 220.235 142.027 219.471Z" fill="#55BB78"/>
<path d="M145.694 213.182C145.958 210.392 143.911 207.917 141.121 207.653C138.332 207.388 135.856 209.436 135.592 212.225C135.327 215.015 137.375 217.49 140.164 217.755C142.954 218.019 145.429 215.972 145.694 213.182Z" fill="#8AD0A2"/>
<path d="M102.973 242.569C103.136 241.746 103.645 226.222 104.572 224.778C105.499 223.333 118.439 197.265 120.463 195.779C122.487 194.293 133.127 193.158 133.127 193.158C133.127 193.158 128.14 202.024 121.034 213.872C114.952 224.013 102.973 242.569 102.973 242.569Z" fill="#B0DFC0"/>
<path d="M157.224 182.479C149.797 182.479 143.755 188.521 143.755 195.948C143.755 198.043 144.734 200.963 145.592 202.733C146.248 202.52 146.844 202.063 147.134 201.469C146.539 200.078 145.685 197.553 145.685 195.947C145.685 189.585 150.862 184.409 157.224 184.409C163.586 184.409 168.763 189.585 168.763 195.947C168.763 196.119 168.758 196.29 168.75 196.459C169.171 196.529 169.987 196.673 170.663 196.839C170.682 196.544 170.693 196.247 170.693 195.947C170.693 188.521 164.651 182.479 157.224 182.479Z" fill="black"/>
<path d="M145.919 201.844C145.255 200.274 144.42 197.673 144.42 195.947C144.42 188.888 150.164 183.144 157.224 183.144C164.284 183.144 170.027 188.888 170.027 195.947C170.027 195.97 170.027 195.994 170.027 196.017C169.818 195.974 169.614 195.936 169.428 195.902C169.403 189.193 163.938 183.743 157.224 183.743C150.494 183.743 145.019 189.218 145.019 195.947C145.019 197.472 145.819 199.965 146.39 201.411C146.267 201.573 146.106 201.721 145.919 201.844Z" fill="#BFE2E2"/>
</svg>
