<svg width="451" height="338" viewBox="0 0 451 338" fill="none" xmlns="http://www.w3.org/2000/svg">
<path d="M432.871 202.239C423.975 185.412 423.257 170.976 427.857 152.602C432.938 132.311 437.845 106.397 425.687 87.9413C414.972 71.6773 399.098 54.8611 381.056 50.616C358.152 45.2275 334.833 39.9402 316.467 54.4199C291.258 74.2951 262.272 60.4028 231.21 51.6095C204.074 43.9265 172.59 67.7258 143.99 62.766C124.267 59.3455 94.8621 64.7933 88.5171 88.735C86.8533 95.0132 86.9185 101.856 84.2236 107.706C77.9879 121.242 62.1895 119.953 50.3608 121.175C37.5681 122.497 24.1648 129.062 14.2606 137.768C7.67651 143.555 2.35747 151.407 0.753335 160.389C-1.13066 170.937 3.0275 182.851 12.0309 188.123C25.345 195.918 39.7668 193.281 43.4428 212.502C47.3617 232.994 45.5414 253.573 51.786 273.958C67.7178 325.967 119.127 344.762 166.516 334.863C203.701 327.096 239.596 333.218 277.421 327.754C292.945 325.512 309.307 320.344 323.552 327.754C337.172 334.84 344.524 322.808 359.47 326.889C368.625 329.388 378.268 328.218 387.617 326.766C404.256 324.183 421.931 320.116 433.579 307.078C441.965 297.692 446.075 284.817 448.584 272.082C454.154 243.813 445.518 226.162 432.871 202.239Z" fill="white"/>
<path d="M230.943 115.782C230.765 115.782 230.597 115.676 230.526 115.502C230.432 115.272 230.542 115.009 230.772 114.915C231.334 114.685 231.908 114.468 232.476 114.269C232.711 114.188 232.967 114.311 233.049 114.545C233.131 114.78 233.007 115.036 232.773 115.118C232.219 115.312 231.66 115.524 231.113 115.748C231.057 115.77 230.999 115.782 230.943 115.782Z" fill="#8AD0A2"/>
<path d="M277.737 157.859C277.695 157.859 277.653 157.853 277.611 157.841C277.372 157.772 277.235 157.522 277.304 157.284C277.636 156.137 277.911 154.96 278.122 153.783C278.165 153.538 278.396 153.374 278.644 153.419C278.889 153.463 279.052 153.696 279.008 153.941C278.792 155.149 278.509 156.358 278.168 157.534C278.111 157.731 277.932 157.859 277.737 157.859ZM279.108 148.422C279.107 148.422 279.106 148.422 279.105 148.422C278.857 148.42 278.657 148.217 278.659 147.969L278.66 147.699C278.66 147.305 278.653 146.909 278.639 146.512C278.615 145.799 278.569 145.08 278.502 144.375C278.478 144.128 278.66 143.908 278.907 143.885C279.153 143.861 279.374 144.042 279.398 144.29C279.466 145.013 279.514 145.75 279.539 146.481C279.552 146.889 279.559 147.295 279.559 147.699L279.558 147.975C279.557 148.223 279.355 148.422 279.108 148.422ZM277.895 138.965C277.696 138.965 277.515 138.833 277.461 138.633C277.149 137.48 276.772 136.331 276.34 135.218C276.251 134.986 276.366 134.725 276.597 134.636C276.83 134.547 277.09 134.661 277.179 134.893C277.622 136.036 278.009 137.215 278.329 138.398C278.394 138.638 278.252 138.885 278.012 138.95C277.973 138.96 277.934 138.965 277.895 138.965ZM274.164 130.195C274.011 130.195 273.862 130.117 273.778 129.977C273.165 128.953 272.49 127.949 271.772 126.994C271.623 126.795 271.664 126.513 271.862 126.364C272.061 126.214 272.343 126.255 272.492 126.454C273.228 127.434 273.92 128.464 274.55 129.514C274.677 129.727 274.608 130.003 274.395 130.131C274.323 130.175 274.243 130.195 274.164 130.195ZM268.196 122.761C268.085 122.761 267.974 122.72 267.887 122.638C267.02 121.816 266.099 121.031 265.152 120.304C264.955 120.152 264.918 119.87 265.069 119.673C265.221 119.476 265.502 119.439 265.7 119.59C266.672 120.336 267.616 121.141 268.506 121.984C268.686 122.155 268.694 122.44 268.523 122.62C268.434 122.714 268.315 122.761 268.196 122.761ZM260.447 117.205C260.376 117.205 260.304 117.188 260.237 117.153C259.18 116.595 258.082 116.088 256.974 115.644C256.743 115.552 256.631 115.29 256.723 115.059C256.816 114.829 257.076 114.716 257.308 114.809C258.446 115.264 259.572 115.785 260.657 116.357C260.877 116.473 260.961 116.745 260.845 116.965C260.764 117.118 260.608 117.205 260.447 117.205ZM251.482 113.954C251.451 113.954 251.419 113.951 251.387 113.944C250.22 113.695 249.026 113.506 247.838 113.381C247.591 113.354 247.412 113.133 247.438 112.886C247.463 112.639 247.68 112.462 247.932 112.486C249.151 112.614 250.377 112.809 251.575 113.064C251.818 113.116 251.973 113.355 251.921 113.598C251.876 113.809 251.69 113.954 251.482 113.954ZM238.354 113.673C238.138 113.673 237.947 113.518 237.91 113.298C237.869 113.053 238.035 112.821 238.28 112.78C239.485 112.578 240.718 112.436 241.944 112.36C242.193 112.344 242.406 112.532 242.422 112.78C242.437 113.029 242.249 113.242 242.001 113.258C240.805 113.332 239.603 113.47 238.428 113.667C238.403 113.671 238.378 113.673 238.354 113.673Z" fill="#8AD0A2"/>
<path d="M274.771 164.999C274.697 164.999 274.622 164.981 274.553 164.942C274.336 164.822 274.257 164.549 274.377 164.331C274.662 163.817 274.937 163.287 275.196 162.756C275.305 162.532 275.573 162.439 275.797 162.549C276.021 162.657 276.114 162.927 276.005 163.15C275.739 163.695 275.457 164.239 275.165 164.767C275.083 164.915 274.929 164.999 274.771 164.999Z" fill="#8AD0A2"/>
<path d="M252.892 181.966C252.691 181.966 252.508 181.831 252.456 181.628C252.394 181.387 252.539 181.142 252.78 181.08C253.349 180.934 253.924 180.771 254.488 180.594C254.725 180.521 254.978 180.652 255.052 180.889C255.126 181.126 254.994 181.379 254.756 181.453C254.178 181.634 253.588 181.802 253.004 181.952C252.966 181.962 252.928 181.966 252.892 181.966Z" fill="#8AD0A2"/>
<path d="M244.151 183.064C243.955 183.064 243.76 183.063 243.565 183.059C243.316 183.055 243.118 182.85 243.122 182.602C243.127 182.353 243.322 182.153 243.58 182.159C244.163 182.169 244.748 182.164 245.338 182.144C245.931 182.124 246.529 182.089 247.116 182.039C247.362 182.018 247.581 182.201 247.602 182.449C247.623 182.697 247.439 182.914 247.192 182.935C246.59 182.986 245.976 183.023 245.368 183.043C244.961 183.057 244.555 183.064 244.151 183.064ZM237.785 182.482C237.757 182.482 237.73 182.48 237.702 182.475C236.515 182.256 235.328 181.971 234.172 181.631C233.933 181.561 233.797 181.311 233.867 181.072C233.937 180.834 234.189 180.698 234.426 180.768C235.552 181.1 236.71 181.376 237.866 181.59C238.11 181.635 238.272 181.87 238.226 182.114C238.186 182.331 237.997 182.482 237.785 182.482ZM228.873 179.544C228.807 179.544 228.74 179.529 228.676 179.498C227.593 178.97 226.525 178.378 225.501 177.741C225.29 177.609 225.225 177.332 225.356 177.121C225.488 176.91 225.766 176.846 225.976 176.977C226.975 177.599 228.016 178.175 229.071 178.689C229.294 178.798 229.387 179.068 229.278 179.291C229.2 179.451 229.04 179.544 228.873 179.544ZM221.07 174.335C220.964 174.335 220.858 174.298 220.773 174.222C219.868 173.424 218.994 172.571 218.177 171.687C218.008 171.504 218.019 171.22 218.202 171.051C218.384 170.882 218.669 170.893 218.838 171.076C219.634 171.938 220.486 172.77 221.368 173.548C221.554 173.712 221.572 173.996 221.408 174.183C221.319 174.284 221.195 174.335 221.07 174.335ZM214.927 167.247C214.78 167.247 214.636 167.176 214.55 167.044C213.889 166.035 213.273 164.98 212.72 163.911C212.606 163.69 212.692 163.419 212.913 163.305C213.134 163.19 213.405 163.277 213.519 163.498C214.058 164.54 214.658 165.567 215.302 166.551C215.439 166.759 215.38 167.038 215.173 167.174C215.097 167.223 215.011 167.247 214.927 167.247ZM210.89 158.781C210.7 158.781 210.523 158.659 210.462 158.468C210.096 157.321 209.784 156.14 209.537 154.959C209.486 154.716 209.642 154.477 209.885 154.426C210.128 154.377 210.367 154.531 210.418 154.775C210.659 155.926 210.962 157.076 211.319 158.194C211.395 158.431 211.264 158.684 211.027 158.76C210.982 158.774 210.936 158.781 210.89 158.781ZM209.264 149.543C209.023 149.543 208.824 149.353 208.815 149.111L208.806 148.872C208.792 148.465 208.785 148.06 208.785 147.656C208.785 146.933 208.808 146.202 208.852 145.482C208.867 145.234 209.083 145.041 209.328 145.06C209.576 145.075 209.765 145.288 209.75 145.536C209.707 146.238 209.685 146.951 209.685 147.656C209.685 148.05 209.692 148.445 209.705 148.842L209.714 149.075C209.724 149.324 209.53 149.533 209.282 149.543C209.276 149.543 209.27 149.543 209.264 149.543ZM210.139 140.2C210.105 140.2 210.071 140.197 210.036 140.189C209.794 140.132 209.644 139.89 209.7 139.649C209.973 138.474 210.31 137.301 210.703 136.16C210.783 135.925 211.038 135.8 211.275 135.881C211.509 135.962 211.634 136.218 211.554 136.453C211.171 137.564 210.842 138.708 210.577 139.852C210.528 140.06 210.343 140.2 210.139 140.2Z" fill="#8AD0A2"/>
<path d="M213.487 131.411C213.414 131.411 213.341 131.394 213.272 131.357C213.054 131.237 212.974 130.964 213.093 130.746C213.381 130.218 213.688 129.688 214.006 129.17C214.136 128.958 214.414 128.893 214.625 129.023C214.837 129.153 214.903 129.43 214.773 129.641C214.463 130.146 214.163 130.663 213.882 131.177C213.801 131.327 213.646 131.411 213.487 131.411Z" fill="#8AD0A2"/>
<path d="M223.247 130.87C223.121 130.997 223.089 131.19 223.167 131.35L225.411 135.934C224.159 137.962 223.22 140.204 222.665 142.593L217.847 144.265C217.677 144.323 217.564 144.483 217.565 144.662L217.576 150.783C217.577 150.962 217.69 151.121 217.86 151.179L222.684 152.833C223.248 155.22 224.195 157.458 225.456 159.481L223.229 164.073C223.151 164.234 223.184 164.427 223.311 164.553L227.648 168.874C227.774 169 227.967 169.032 228.128 168.953L232.712 166.709C234.739 167.962 236.981 168.901 239.37 169.455L241.042 174.274C241.101 174.443 241.26 174.556 241.439 174.556L247.561 174.544C247.74 174.544 247.899 174.43 247.957 174.261L249.61 169.436C251.997 168.872 254.236 167.925 256.259 166.665L260.851 168.891C261.012 168.969 261.205 168.937 261.331 168.81L265.651 164.473C265.778 164.346 265.81 164.153 265.731 163.993L263.487 159.409C264.74 157.381 265.678 155.139 266.233 152.75L271.052 151.078C271.221 151.02 271.334 150.86 271.334 150.681L271.322 144.559C271.322 144.381 271.208 144.222 271.039 144.164L266.214 142.51C265.65 140.123 264.703 137.884 263.443 135.862L265.669 131.269C265.747 131.108 265.714 130.915 265.588 130.789L261.251 126.469C261.124 126.343 260.931 126.311 260.771 126.389L256.187 128.633C254.159 127.381 251.917 126.442 249.528 125.887L247.856 121.069C247.798 120.9 247.638 120.787 247.459 120.787L241.338 120.799C241.159 120.799 241 120.913 240.942 121.082L239.288 125.907C236.901 126.471 234.663 127.418 232.64 128.678L228.048 126.452C227.887 126.374 227.694 126.406 227.568 126.533L223.247 130.87Z" fill="#8AD0A2"/>
<path d="M244.45 153.558C241.822 153.558 239.422 151.783 238.745 149.123C237.945 145.978 239.853 142.768 242.998 141.968C244.522 141.58 246.105 141.809 247.456 142.612C248.808 143.415 249.765 144.697 250.153 146.22C250.953 149.365 249.046 152.575 245.9 153.376C245.416 153.499 244.929 153.558 244.45 153.558ZM244.458 142.684C244.045 142.684 243.63 142.735 243.219 142.84C240.555 143.518 238.939 146.237 239.617 148.901C240.295 151.566 243.013 153.181 245.678 152.504C248.343 151.826 249.959 149.107 249.281 146.443C248.952 145.152 248.141 144.066 246.996 143.386C246.215 142.922 245.343 142.684 244.458 142.684Z" fill="#019935"/>
<path d="M244.548 162.977C240.493 162.977 236.679 161.402 233.806 158.539C230.925 155.67 229.335 151.85 229.327 147.784C229.327 147.776 229.327 147.767 229.327 147.759C229.327 146.756 229.425 145.754 229.618 144.778C229.633 144.706 229.648 144.634 229.663 144.562C229.715 144.318 229.952 144.163 230.197 144.216C230.408 144.261 230.553 144.447 230.553 144.655C230.553 144.686 230.55 144.718 230.543 144.75C230.333 145.733 230.227 146.745 230.227 147.759C230.227 147.767 230.227 147.775 230.227 147.783C230.234 151.609 231.731 155.202 234.441 157.902C237.145 160.595 240.733 162.078 244.548 162.078C244.557 162.078 244.567 162.078 244.576 162.078C252.463 162.062 258.87 155.641 258.87 147.758C258.87 147.748 258.87 147.739 258.87 147.729C258.855 139.841 252.433 133.435 244.549 133.435C244.54 133.435 244.531 133.435 244.522 133.435C241.925 133.439 239.384 134.146 237.172 135.478C236.959 135.607 236.683 135.537 236.555 135.325C236.511 135.252 236.49 135.172 236.49 135.092C236.49 134.94 236.568 134.791 236.708 134.707C239.059 133.291 241.761 132.54 244.52 132.535C244.529 132.535 244.54 132.535 244.549 132.535C252.93 132.535 259.754 139.344 259.77 147.727C259.77 147.737 259.77 147.748 259.77 147.758C259.769 156.137 252.96 162.961 244.578 162.977C244.567 162.977 244.557 162.977 244.548 162.977Z" fill="#019935"/>
<path d="M379.102 98.2093L380.558 100.67C379.949 101.858 379.524 103.152 379.32 104.511L376.703 105.659C376.612 105.699 376.555 105.793 376.564 105.893L376.842 109.311C376.85 109.411 376.92 109.495 377.018 109.52L379.786 110.229C380.207 111.537 380.835 112.745 381.629 113.819L380.589 116.483C380.553 116.576 380.58 116.682 380.656 116.747L383.27 118.968C383.347 119.033 383.456 119.042 383.542 118.991L386.003 117.534C387.191 118.144 388.484 118.569 389.844 118.772L390.991 121.389C391.032 121.481 391.126 121.537 391.225 121.529L394.644 121.251C394.744 121.243 394.828 121.172 394.853 121.075L395.562 118.307C396.87 117.886 398.078 117.258 399.152 116.464L401.816 117.503C401.909 117.54 402.015 117.513 402.08 117.437L404.301 114.822C404.366 114.746 404.375 114.637 404.324 114.551L402.867 112.09C403.477 110.902 403.901 109.608 404.105 108.249L406.722 107.101C406.814 107.061 406.87 106.967 406.862 106.867L406.583 103.449C406.576 103.349 406.505 103.265 406.408 103.24L403.639 102.531C403.218 101.222 402.59 100.014 401.796 98.9404L402.836 96.2767C402.872 96.1834 402.846 96.077 402.769 96.0122L400.155 93.7917C400.079 93.7269 399.97 93.7175 399.883 93.7686L397.423 95.2253C396.235 94.6155 394.941 94.1911 393.582 93.9873L392.434 91.3704C392.394 91.2785 392.3 91.2223 392.2 91.2305L388.781 91.5087C388.681 91.517 388.598 91.5875 388.573 91.6847L387.864 94.453C386.556 94.8739 385.347 95.5021 384.274 96.2959L381.61 95.2562C381.516 95.2198 381.41 95.2466 381.345 95.3231L379.125 97.9372C379.06 98.0139 379.051 98.1231 379.102 98.2093Z" fill="#8AD0A2"/>
<path d="M391.716 109.876C390.261 109.876 388.899 108.96 388.404 107.508H388.404C387.782 105.684 388.761 103.693 390.585 103.072C392.41 102.449 394.4 103.428 395.021 105.252C395.643 107.077 394.665 109.067 392.841 109.689C392.468 109.815 392.089 109.876 391.716 109.876ZM389.256 107.217C389.718 108.572 391.196 109.298 392.55 108.837C393.905 108.375 394.631 106.897 394.17 105.542C393.708 104.187 392.229 103.461 390.875 103.923C389.521 104.385 388.794 105.863 389.256 107.217Z" fill="#019935"/>
<path d="M380.109 92.5647C379.979 92.5647 379.849 92.5081 379.76 92.3986C379.604 92.2059 379.633 91.9225 379.825 91.7657C380.301 91.3786 380.801 91.0116 381.31 90.6743C381.518 90.5369 381.797 90.5937 381.934 90.8012C382.071 91.0083 382.014 91.2875 381.807 91.4247C381.322 91.7456 380.846 92.0951 380.393 92.4638C380.31 92.5316 380.209 92.5647 380.109 92.5647Z" fill="#8AD0A2"/>
<path d="M409.763 103.297C409.552 103.297 409.364 103.149 409.322 102.934C409.167 102.147 408.956 101.36 408.695 100.594C408.594 100.299 408.487 100.009 408.373 99.7219C408.28 99.491 408.393 99.2294 408.624 99.1376C408.854 99.0445 409.116 99.1581 409.208 99.3889C409.328 99.6891 409.441 99.9939 409.546 100.303C409.82 101.108 410.042 101.934 410.204 102.76C410.253 103.004 410.094 103.241 409.85 103.289C409.82 103.294 409.791 103.297 409.763 103.297ZM405.972 95.2096C405.841 95.2096 405.712 95.1533 405.623 95.044C404.919 94.1812 404.129 93.3791 403.274 92.6605C403.084 92.5006 403.059 92.2168 403.219 92.0266C403.379 91.8363 403.663 91.8121 403.853 91.9716C404.751 92.7263 405.581 93.5688 406.32 94.4754C406.477 94.6679 406.448 94.9513 406.256 95.1083C406.172 95.1764 406.072 95.2096 405.972 95.2096ZM398.813 89.8687C398.755 89.8687 398.696 89.8572 398.64 89.8336C397.61 89.4022 396.535 89.0654 395.444 88.8329C395.201 88.781 395.046 88.5419 395.098 88.299C395.15 88.0558 395.39 87.9 395.632 87.9527C396.777 88.1969 397.906 88.5505 398.988 89.0037C399.217 89.0996 399.325 89.3633 399.229 89.5923C399.156 89.7649 398.989 89.8687 398.813 89.8687ZM386.612 89.1666C386.417 89.1666 386.237 89.0385 386.18 88.8417C386.111 88.603 386.248 88.3535 386.487 88.2844C387.616 87.9572 388.778 87.7349 389.94 87.624C390.19 87.5996 390.408 87.7817 390.431 88.0291C390.455 88.2764 390.274 88.4962 390.026 88.52C388.919 88.6256 387.813 88.8372 386.737 89.1486C386.695 89.1607 386.653 89.1666 386.612 89.1666Z" fill="#8AD0A2"/>
<path d="M409.706 110.65C409.675 110.65 409.643 110.647 409.612 110.64C409.369 110.588 409.214 110.349 409.266 110.106C409.387 109.536 409.482 108.954 409.547 108.375C409.575 108.128 409.799 107.948 410.045 107.978C410.291 108.006 410.469 108.228 410.441 108.475C410.373 109.083 410.273 109.695 410.146 110.294C410.1 110.505 409.914 110.65 409.706 110.65Z" fill="#8AD0A2"/>
<path d="M400.542 122.965C400.383 122.965 400.228 122.88 400.147 122.731C400.028 122.513 400.108 122.239 400.326 122.12C400.838 121.841 401.342 121.533 401.824 121.206C402.029 121.066 402.309 121.119 402.449 121.324C402.588 121.53 402.535 121.81 402.33 121.949C401.824 122.294 401.295 122.617 400.757 122.91C400.689 122.948 400.615 122.965 400.542 122.965Z" fill="#8AD0A2"/>
<path d="M392.047 125.22C391.802 125.22 391.602 125.024 391.597 124.778C391.593 124.53 391.79 124.325 392.039 124.32C393.134 124.3 394.234 124.178 395.31 123.956C395.552 123.906 395.792 124.063 395.842 124.306C395.892 124.55 395.735 124.788 395.492 124.838C394.362 125.071 393.205 125.199 392.055 125.22C392.052 125.22 392.05 125.22 392.047 125.22ZM386.624 124.501C386.583 124.501 386.54 124.495 386.499 124.482C385.393 124.163 384.31 123.739 383.279 123.223C383.057 123.112 382.967 122.842 383.079 122.62C383.19 122.398 383.461 122.307 383.682 122.419C384.664 122.911 385.695 123.314 386.749 123.619C386.987 123.687 387.125 123.937 387.056 124.176C386.999 124.372 386.819 124.501 386.624 124.501ZM379.007 120.123C378.895 120.123 378.783 120.082 378.696 119.999C377.863 119.204 377.1 118.327 376.427 117.393C376.282 117.191 376.328 116.91 376.529 116.765C376.731 116.619 377.012 116.666 377.157 116.867C377.797 117.756 378.524 118.591 379.317 119.348C379.497 119.52 379.503 119.805 379.332 119.984C379.244 120.077 379.125 120.123 379.007 120.123ZM374.295 112.713C374.107 112.713 373.932 112.595 373.869 112.407C373.499 111.312 373.229 110.181 373.065 109.045C373.03 108.799 373.2 108.571 373.446 108.535C373.691 108.501 373.92 108.67 373.956 108.917C374.112 109.998 374.369 111.076 374.722 112.119C374.801 112.354 374.675 112.61 374.439 112.689C374.391 112.705 374.343 112.713 374.295 112.713Z" fill="#8AD0A2"/>
<path d="M373.554 103.943C373.531 103.943 373.507 103.941 373.483 103.937C373.237 103.898 373.07 103.667 373.11 103.422C373.207 102.816 373.334 102.21 373.489 101.619C373.552 101.379 373.798 101.235 374.039 101.298C374.279 101.361 374.423 101.607 374.36 101.847C374.212 102.41 374.09 102.988 373.998 103.564C373.963 103.785 373.772 103.943 373.554 103.943Z" fill="#8AD0A2"/>
<path d="M391.766 115.149C387.272 115.149 383.446 111.687 383.075 107.131C383.056 106.893 383.046 106.655 383.046 106.417C383.046 106.068 383.066 105.719 383.108 105.374C383.112 105.341 383.116 105.307 383.121 105.274C383.153 105.027 383.381 104.855 383.625 104.887C383.852 104.917 384.016 105.11 384.016 105.332C384.016 105.352 384.015 105.371 384.012 105.391C383.968 105.729 383.946 106.071 383.946 106.414C383.945 106.629 383.954 106.844 383.971 107.058C383.985 107.219 384.003 107.38 384.026 107.539C384.026 107.54 384.026 107.541 384.026 107.542C384.297 109.434 385.237 111.14 386.705 112.388C388.299 113.741 390.326 114.391 392.407 114.223C396.493 113.891 399.599 110.459 399.599 106.429C399.599 106.217 399.591 106.003 399.573 105.787C399.223 101.486 395.44 98.2716 391.137 98.622C389.723 98.737 388.369 99.2321 387.222 100.053C387.019 100.198 386.738 100.151 386.594 99.9493C386.538 99.87 386.51 99.7785 386.51 99.6879C386.51 99.5479 386.575 99.4097 386.698 99.3217C387.978 98.4055 389.488 97.8535 391.064 97.7252C395.86 97.3309 400.079 100.919 400.47 105.714C400.489 105.954 400.499 106.193 400.499 106.43C400.498 110.923 397.036 114.749 392.48 115.12C392.241 115.139 392.002 115.149 391.766 115.149Z" fill="#019935"/>
<path d="M317.304 151.242C333.873 151.242 347.304 137.81 347.304 121.242C347.304 104.673 333.873 91.2415 317.304 91.2415C300.735 91.2415 287.304 104.673 287.304 121.242C287.304 137.81 300.735 151.242 317.304 151.242Z" fill="#8AD0A2"/>
<path d="M347.25 119.633H317.304H287.304C287.304 119.633 284.915 136.285 311.69 181.894C312.858 183.884 314.993 185.073 317.3 185.074C319.608 185.075 321.746 183.906 322.914 181.916C349.686 136.303 347.25 119.633 347.25 119.633Z" fill="#8AD0A2"/>
<path d="M317.29 186.047V186.216H317.3C314.688 186.216 312.251 184.779 310.939 182.544C295.288 155.884 289.553 139.028 287.499 129.595C286.913 127.425 286.577 125.298 286.471 123.117C286.289 120.886 286.428 119.947 286.444 119.847L286.523 119.367C287.732 103.252 301.144 90.7107 317.304 90.7107C333.676 90.7107 347.209 103.43 348.124 119.673C348.147 119.886 348.191 120.425 348.174 121.327L348.175 121.438C348.175 124.384 347.759 127.303 346.938 130.113C344.813 139.537 339.043 156.227 323.659 182.438C322.338 184.688 319.99 186.047 317.29 186.047ZM288.122 120.983C288.115 121.433 288.129 122.075 288.208 123.043L288.21 123.039C288.309 125.105 288.629 127.095 289.186 129.154L289.196 129.188C291.22 138.493 296.895 155.139 312.441 181.62C313.442 183.325 315.297 184.382 317.294 184.383L317.29 185.252V184.381C319.09 184.381 321.147 183.313 322.156 181.594C337.442 155.552 343.148 139.001 345.241 129.703L345.257 129.649C346.036 126.991 346.258 124.228 346.258 121.438L346.083 121.315V121.305C346.083 120.437 346.23 119.967 346.216 119.844L346.299 119.794C345.447 104.461 332.716 92.4514 317.26 92.4514C301.834 92.4514 289.082 104.631 288.203 120.098L288.178 120.983H288.122V120.983Z" fill="#55BB78"/>
<path d="M317.4 138.468C326.968 138.468 334.723 130.712 334.723 121.145C334.723 111.578 326.968 103.822 317.4 103.822C307.833 103.822 300.078 111.578 300.078 121.145C300.078 130.712 307.833 138.468 317.4 138.468Z" fill="#E6F5EB"/>
<path d="M317.4 139.436C307.315 139.436 299.11 131.23 299.11 121.145C299.11 111.059 307.315 102.854 317.4 102.854C327.486 102.854 335.691 111.059 335.691 121.145C335.691 131.23 327.486 139.436 317.4 139.436ZM317.4 104.79C308.382 104.79 301.045 112.127 301.045 121.145C301.045 130.163 308.382 137.5 317.4 137.5C326.419 137.5 333.755 130.163 333.755 121.145C333.755 112.127 326.419 104.79 317.4 104.79Z" fill="#E6F5EB"/>
<path d="M300.968 103.109C300.887 103.109 300.805 103.075 300.748 103.008C300.643 102.886 300.657 102.703 300.779 102.599C305.645 98.4196 311.863 96.1179 318.286 96.1179C318.446 96.1179 318.576 96.2479 318.576 96.4082C318.576 96.5686 318.446 96.6986 318.286 96.6986C312.001 96.6986 305.918 98.9506 301.157 103.039C301.102 103.086 301.035 103.109 300.968 103.109Z" fill="#E6F5EB"/>
<path d="M291.692 123.292C291.532 123.292 291.402 123.162 291.402 123.002C291.402 117.985 292.793 113.092 295.424 108.85C295.508 108.714 295.687 108.672 295.823 108.757C295.96 108.841 296.002 109.02 295.917 109.156C293.343 113.306 291.983 118.094 291.983 123.002C291.983 123.162 291.853 123.292 291.692 123.292Z" fill="#E6F5EB"/>
<path d="M110.147 285.19C191.857 285.19 273.567 285.19 355.278 285.19C355.75 285.19 356.166 284.792 356.296 284.337C356.426 283.883 356.24 283.355 355.839 283.105C350.023 279.473 344.208 275.888 338.392 272.257C338.224 272.152 338.029 272.143 337.832 272.143C267.752 272.143 197.672 272.143 127.592 272.143C127.393 272.143 127.201 272.13 127.032 272.235C121.216 275.867 115.401 279.464 109.585 283.096C109.184 283.346 108.999 283.901 109.129 284.355C109.26 284.808 109.675 285.19 110.147 285.19Z" fill="#55BB78"/>
<path d="M70.9539 309.934C178.793 309.934 286.632 309.934 394.471 309.934C394.943 309.934 395.359 309.399 395.489 308.945C395.619 308.491 395.433 307.895 395.032 307.645C389.217 304.013 383.401 300.53 377.585 296.899C377.417 296.794 377.223 296.887 377.025 296.887C280.817 296.887 184.608 296.887 88.3999 296.887C88.2012 296.887 88.0087 296.738 87.8402 296.843C82.0244 300.475 76.2085 304.004 70.3927 307.636C69.9923 307.886 69.8068 308.543 69.9369 308.996C70.0667 309.45 70.4817 309.934 70.9539 309.934Z" fill="#34AD5D"/>
<path d="M434.225 332.006C428.409 328.375 422.593 324.858 416.777 321.226C416.609 321.121 416.415 321.181 416.217 321.181C293.881 321.181 171.544 321.181 49.2068 321.181C49.0081 321.181 48.8156 321.121 48.6471 321.226C42.8313 324.858 37.0154 328.432 31.1994 332.063C30.799 332.313 30.6137 332.903 30.7439 333.357C30.874 333.811 31.289 334.227 31.7612 334.227C165.729 334.227 299.696 334.227 433.663 334.227C434.136 334.227 434.551 333.783 434.682 333.329C434.812 332.875 434.625 332.257 434.225 332.006Z" fill="#019935"/>
<path d="M157.654 147.169C157.618 147.169 157.582 147.159 157.55 147.137C157.466 147.08 157.445 146.965 157.502 146.881C157.674 146.629 157.84 146.374 158 146.115C158.053 146.028 158.168 146.002 158.253 146.055C158.34 146.109 158.367 146.223 158.313 146.309C158.151 146.572 157.982 146.832 157.807 147.089C157.771 147.141 157.713 147.169 157.654 147.169Z" fill="#8AD0A2"/>
<path d="M140.72 156.121C140.15 156.121 139.574 156.098 139.007 156.051C138.905 156.042 138.83 155.954 138.838 155.852C138.846 155.75 138.934 155.676 139.037 155.683C139.595 155.729 140.16 155.753 140.718 155.753L140.822 155.752C140.924 155.752 141.007 155.835 141.007 155.937C141.007 156.039 140.924 156.121 140.822 156.121L140.72 156.121ZM142.622 156.033C142.528 156.033 142.447 155.961 142.438 155.865C142.429 155.764 142.503 155.674 142.605 155.665C143.195 155.61 143.79 155.528 144.374 155.422C144.474 155.407 144.57 155.47 144.588 155.57C144.607 155.67 144.54 155.766 144.44 155.785C143.846 155.893 143.24 155.976 142.639 156.032C142.633 156.032 142.628 156.033 142.622 156.033ZM137.234 155.825C137.224 155.825 137.213 155.824 137.203 155.822C136.607 155.72 136.009 155.59 135.426 155.437C135.328 155.411 135.269 155.31 135.295 155.212C135.321 155.113 135.421 155.054 135.52 155.081C136.092 155.231 136.68 155.358 137.265 155.458C137.366 155.476 137.433 155.571 137.416 155.672C137.4 155.762 137.322 155.825 137.234 155.825ZM146.163 155.386C146.083 155.386 146.008 155.333 145.986 155.251C145.959 155.153 146.016 155.051 146.115 155.024C146.685 154.867 147.257 154.681 147.813 154.474C147.909 154.438 148.015 154.487 148.05 154.582C148.086 154.678 148.038 154.784 147.942 154.82C147.376 155.031 146.794 155.219 146.213 155.38C146.196 155.384 146.18 155.386 146.163 155.386ZM133.753 154.91C133.732 154.91 133.711 154.906 133.691 154.899C133.122 154.695 132.556 154.463 132.009 154.21C131.916 154.167 131.876 154.058 131.918 153.965C131.961 153.873 132.071 153.833 132.163 153.875C132.701 154.124 133.257 154.351 133.815 154.552C133.911 154.586 133.961 154.692 133.927 154.788C133.899 154.863 133.829 154.91 133.753 154.91ZM149.536 154.126C149.467 154.126 149.401 154.088 149.37 154.022C149.326 153.93 149.365 153.82 149.457 153.776C149.991 153.52 150.522 153.237 151.032 152.935C151.12 152.883 151.233 152.912 151.285 152.999C151.336 153.087 151.308 153.2 151.22 153.252C150.7 153.559 150.161 153.848 149.616 154.108C149.59 154.121 149.563 154.126 149.536 154.126ZM130.486 153.4C130.455 153.4 130.423 153.392 130.394 153.376C129.871 153.076 129.355 152.748 128.86 152.403C128.776 152.344 128.756 152.23 128.814 152.146C128.873 152.062 128.987 152.042 129.071 152.1C129.557 152.44 130.064 152.761 130.578 153.056C130.666 153.107 130.697 153.219 130.646 153.308C130.612 153.367 130.55 153.4 130.486 153.4ZM152.636 152.293C152.578 152.293 152.522 152.266 152.486 152.216C152.426 152.133 152.445 152.018 152.528 151.959C152.758 151.794 152.985 151.624 153.21 151.449C153.457 151.257 153.698 151.059 153.934 150.858C154.011 150.791 154.127 150.801 154.194 150.878C154.26 150.955 154.251 151.072 154.174 151.138C153.934 151.343 153.688 151.544 153.437 151.74C153.208 151.918 152.977 152.091 152.743 152.259C152.71 152.282 152.673 152.293 152.636 152.293ZM127.536 151.341C127.494 151.341 127.452 151.327 127.418 151.298C126.957 150.911 126.506 150.498 126.078 150.07C126.006 149.998 126.006 149.881 126.078 149.809C126.15 149.737 126.266 149.737 126.338 149.809C126.759 150.23 127.202 150.636 127.655 151.015C127.732 151.08 127.743 151.197 127.677 151.275C127.641 151.319 127.589 151.341 127.536 151.341ZM155.37 149.952C155.324 149.952 155.277 149.934 155.241 149.899C155.168 149.828 155.167 149.711 155.239 149.638C155.655 149.213 156.056 148.766 156.431 148.309C156.496 148.231 156.612 148.219 156.691 148.284C156.77 148.349 156.781 148.465 156.716 148.544C156.335 149.009 155.926 149.464 155.502 149.896C155.466 149.933 155.418 149.952 155.37 149.952ZM124.992 148.794C124.939 148.794 124.887 148.772 124.851 148.728C124.694 148.541 124.54 148.351 124.388 148.157C124.167 147.873 123.95 147.58 123.744 147.286C123.686 147.203 123.706 147.088 123.789 147.03C123.873 146.971 123.987 146.991 124.046 147.074C124.248 147.363 124.461 147.651 124.679 147.93C124.828 148.12 124.979 148.308 125.133 148.491C125.199 148.57 125.188 148.686 125.11 148.751C125.076 148.78 125.034 148.794 124.992 148.794ZM122.926 145.845C122.863 145.845 122.801 145.812 122.766 145.753C122.464 145.229 122.182 144.687 121.927 144.14C121.884 144.048 121.924 143.938 122.017 143.895C122.11 143.851 122.219 143.892 122.262 143.985C122.512 144.521 122.789 145.055 123.086 145.569C123.137 145.657 123.107 145.769 123.018 145.82C122.989 145.837 122.958 145.845 122.926 145.845ZM121.408 142.58C121.332 142.58 121.261 142.534 121.234 142.459C121.029 141.891 120.847 141.306 120.692 140.723C120.666 140.624 120.725 140.523 120.823 140.497C120.921 140.471 121.023 140.53 121.049 140.629C121.2 141.202 121.379 141.775 121.581 142.333C121.616 142.429 121.566 142.535 121.47 142.569C121.45 142.577 121.428 142.58 121.408 142.58Z" fill="#8AD0A2"/>
<path d="M120.483 139.077C120.395 139.077 120.317 139.014 120.302 138.924C120.249 138.618 120.204 138.311 120.166 138.004C120.153 137.903 120.225 137.811 120.326 137.798C120.428 137.784 120.519 137.857 120.532 137.959C120.569 138.26 120.614 138.561 120.665 138.862C120.682 138.962 120.615 139.058 120.515 139.075C120.504 139.076 120.494 139.077 120.483 139.077Z" fill="#8AD0A2"/>
<path d="M124.225 123.384C124.187 123.384 124.149 123.373 124.115 123.348C124.034 123.287 124.017 123.172 124.078 123.09C124.262 122.842 124.453 122.597 124.649 122.356C124.713 122.278 124.829 122.266 124.908 122.33C124.987 122.394 124.999 122.51 124.935 122.59C124.742 122.826 124.555 123.067 124.374 123.31C124.338 123.359 124.282 123.384 124.225 123.384Z" fill="#8AD0A2"/>
<path d="M160.736 131.174C160.651 131.174 160.575 131.115 160.556 131.029C160.42 130.414 160.254 129.798 160.061 129.197C160.029 129.101 160.083 128.996 160.18 128.965C160.277 128.934 160.381 128.987 160.412 129.084C160.608 129.696 160.778 130.323 160.916 130.95C160.938 131.049 160.875 131.148 160.776 131.17C160.762 131.172 160.749 131.174 160.736 131.174ZM159.564 127.532C159.493 127.532 159.425 127.49 159.395 127.42C159.146 126.841 158.868 126.267 158.566 125.714C158.517 125.625 158.55 125.513 158.64 125.464C158.729 125.415 158.841 125.448 158.89 125.537C159.197 126.101 159.481 126.685 159.734 127.275C159.774 127.369 159.731 127.477 159.637 127.517C159.613 127.527 159.589 127.532 159.564 127.532ZM157.734 124.174C157.675 124.174 157.617 124.145 157.581 124.093C157.314 123.695 157.027 123.3 156.729 122.918C156.637 122.801 156.544 122.684 156.45 122.568C156.386 122.489 156.397 122.373 156.476 122.309C156.555 122.244 156.671 122.256 156.736 122.335C156.831 122.452 156.926 122.571 157.02 122.691C157.323 123.079 157.615 123.482 157.887 123.886C157.944 123.971 157.922 124.085 157.837 124.142C157.806 124.164 157.77 124.174 157.734 124.174ZM126.07 121.231C126.024 121.231 125.977 121.214 125.941 121.178C125.869 121.107 125.868 120.99 125.939 120.918C126.388 120.462 126.865 120.021 127.357 119.606C127.435 119.54 127.551 119.55 127.617 119.628C127.682 119.706 127.672 119.822 127.595 119.888C127.111 120.295 126.643 120.729 126.202 121.176C126.166 121.213 126.118 121.231 126.07 121.231ZM155.316 121.21C155.268 121.21 155.221 121.191 155.185 121.155C154.743 120.705 154.275 120.271 153.793 119.865C153.715 119.8 153.705 119.683 153.771 119.606C153.836 119.527 153.952 119.518 154.031 119.584C154.521 119.997 154.997 120.439 155.448 120.896C155.519 120.969 155.518 121.085 155.445 121.157C155.41 121.192 155.363 121.21 155.316 121.21ZM128.996 118.766C128.937 118.766 128.88 118.738 128.844 118.687C128.786 118.603 128.807 118.488 128.89 118.43C129.417 118.063 129.967 117.717 130.525 117.4C130.614 117.35 130.726 117.381 130.777 117.47C130.827 117.559 130.796 117.671 130.707 117.721C130.159 118.032 129.618 118.372 129.101 118.733C129.069 118.755 129.032 118.766 128.996 118.766ZM152.392 118.745C152.356 118.745 152.319 118.735 152.288 118.713C151.77 118.354 151.229 118.015 150.68 117.706C150.592 117.657 150.56 117.544 150.61 117.455C150.66 117.366 150.772 117.334 150.861 117.385C151.42 117.7 151.971 118.044 152.498 118.409C152.581 118.467 152.602 118.582 152.544 118.666C152.508 118.718 152.451 118.745 152.392 118.745ZM132.325 116.881C132.254 116.881 132.187 116.84 132.157 116.772C132.115 116.679 132.156 116.57 132.249 116.528C132.835 116.265 133.44 116.028 134.048 115.821C134.145 115.79 134.249 115.84 134.282 115.936C134.314 116.033 134.263 116.138 134.166 116.17C133.569 116.373 132.975 116.606 132.4 116.864C132.376 116.876 132.35 116.881 132.325 116.881ZM149.06 116.871C149.035 116.871 149.01 116.866 148.985 116.855C148.41 116.599 147.816 116.367 147.218 116.166C147.122 116.133 147.07 116.029 147.102 115.932C147.135 115.836 147.239 115.784 147.336 115.816C147.944 116.021 148.55 116.258 149.135 116.518C149.228 116.559 149.27 116.669 149.229 116.761C149.198 116.83 149.131 116.871 149.06 116.871ZM135.947 115.651C135.863 115.651 135.788 115.594 135.768 115.509C135.744 115.41 135.805 115.31 135.904 115.287C136.527 115.139 137.165 115.018 137.803 114.928C137.904 114.915 137.997 114.985 138.011 115.085C138.025 115.186 137.955 115.279 137.854 115.294C137.228 115.382 136.601 115.5 135.99 115.645C135.975 115.649 135.961 115.651 135.947 115.651ZM145.437 115.649C145.423 115.649 145.409 115.647 145.395 115.644C144.779 115.498 144.151 115.381 143.53 115.293C143.429 115.279 143.359 115.186 143.373 115.085C143.387 114.984 143.479 114.914 143.581 114.928C144.214 115.017 144.853 115.137 145.479 115.285C145.578 115.308 145.64 115.407 145.616 115.506C145.597 115.591 145.521 115.649 145.437 115.649ZM141.65 115.117C141.647 115.117 141.644 115.117 141.641 115.117C141.01 115.088 140.377 115.088 139.743 115.117C139.645 115.124 139.556 115.043 139.551 114.941C139.546 114.839 139.625 114.753 139.726 114.749C140.37 114.718 141.016 114.719 141.658 114.749C141.759 114.754 141.838 114.84 141.833 114.942C141.829 115.04 141.747 115.117 141.65 115.117Z" fill="#8AD0A2"/>
<path d="M161.155 133.997C161.059 133.997 160.979 133.923 160.971 133.827C160.948 133.524 160.917 133.221 160.88 132.919C160.868 132.817 160.939 132.725 161.041 132.713C161.139 132.698 161.234 132.772 161.246 132.873C161.284 133.181 161.315 133.49 161.339 133.798C161.347 133.899 161.271 133.988 161.169 133.996C161.164 133.997 161.16 133.997 161.155 133.997Z" fill="#8AD0A2"/>
<path d="M136.568 142.337C137.337 141.693 140.254 136.8 144.923 142.335C145.428 142.599 146.734 141.86 146.568 141.343C141.105 133.374 134.3 140.853 134.968 141.673C135.635 142.493 135.673 143.085 136.568 142.337Z" fill="#8AD0A2"/>
<path d="M149.864 139.018C150.882 138.899 151.841 138.204 151.554 137.312C151.272 136.434 141.547 125.074 130.716 137.88C130.583 138.037 130.518 138.241 130.536 138.446C130.554 138.651 130.653 138.841 130.811 138.972C131.304 139.383 131.724 139.659 132.269 139.592C142.181 128.353 148.845 139.138 149.864 139.018Z" fill="#8AD0A2"/>
<path d="M154.926 135.624C155.649 135.769 157.129 135.225 156.747 134.036C139.63 115.412 124.386 134.932 124.945 135.719C125.504 136.507 126.638 136.536 127.094 136.271C140.723 118.789 154.202 135.479 154.926 135.624Z" fill="#8AD0A2"/>
<path d="M140.951 147.428C142.194 147.275 143.077 146.143 142.924 144.901C142.771 143.658 141.64 142.774 140.397 142.927C139.154 143.08 138.271 144.212 138.424 145.455C138.577 146.698 139.708 147.581 140.951 147.428Z" fill="#8AD0A2"/>
<path d="M40.9728 157.103C47.5897 157.103 52.9538 151.739 52.9538 145.122C52.9538 138.505 47.5897 133.141 40.9728 133.141C34.3559 133.141 28.9918 138.505 28.9918 145.122C28.9918 151.739 34.3559 157.103 40.9728 157.103Z" fill="#018B30"/>
<path d="M40.9729 156.705C47.3698 156.705 52.5555 151.519 52.5555 145.122C52.5555 138.725 47.3698 133.54 40.9729 133.54C34.576 133.54 29.3903 138.725 29.3903 145.122C29.3903 151.519 34.576 156.705 40.9729 156.705Z" fill="#34AD5D"/>
<path opacity="0.66" d="M31.4216 140.761C31.3536 140.761 31.2845 140.745 31.2193 140.712C30.9974 140.6 30.9085 140.33 31.0204 140.108C32.928 136.328 36.7415 133.98 40.9727 133.98C41.6486 133.98 42.3246 134.041 42.9821 134.161C43.2265 134.205 43.3887 134.439 43.3442 134.684C43.2999 134.929 43.0664 135.09 42.821 135.046C42.2164 134.936 41.5945 134.88 40.9727 134.88C37.0831 134.88 33.5773 137.039 31.8235 140.514C31.7446 140.67 31.5861 140.761 31.4216 140.761Z" fill="white"/>
<path opacity="0.66" d="M44.9802 154.434C49.9824 152.361 52.3578 146.627 50.2858 141.624C48.2138 136.622 42.4789 134.247 37.4767 136.319C32.4744 138.391 30.099 144.126 32.1711 149.128C34.2431 154.13 39.978 156.506 44.9802 154.434Z" fill="white"/>
<path d="M40.2634 152.663V151.596C39.1515 151.551 38.0517 151.289 37.2708 150.947C36.9917 150.825 36.8496 150.512 36.9298 150.218L37.2009 149.225C37.3003 148.86 37.6966 148.672 38.045 148.818C38.8198 149.143 39.7764 149.4 40.8081 149.4C41.879 149.4 42.6776 149.036 42.6776 148.292C42.6776 147.621 42.0604 147.221 40.5721 146.822C38.4482 146.241 36.9237 145.316 36.9237 143.446C36.9237 141.758 38.1579 140.469 40.2999 140.124V139.058C40.2999 138.715 40.5781 138.436 40.9213 138.436H41.5481C41.8913 138.436 42.1695 138.715 42.1695 139.058V140.015C43.1983 140.057 43.9473 140.233 44.5415 140.441C44.8459 140.548 45.0124 140.876 44.9279 141.188L44.6788 142.106C44.5827 142.461 44.204 142.655 43.8608 142.525C43.3135 142.318 42.54 142.103 41.5343 142.103C40.2638 142.103 39.9009 142.629 39.9009 143.101C39.9009 143.682 40.6632 144.081 42.3149 144.589C44.6745 145.297 45.6546 146.277 45.6546 148.038C45.6546 149.653 44.4566 151.106 42.1332 151.468V152.662C42.1332 153.005 41.855 153.284 41.5118 153.284H40.885C40.5416 153.284 40.2634 153.006 40.2634 152.663Z" fill="#55BB78"/>
<path d="M76.7775 144.793C88.2965 144.793 97.6345 135.455 97.6345 123.936C97.6345 112.417 88.2965 103.079 76.7775 103.079C65.2584 103.079 55.9204 112.417 55.9204 123.936C55.9204 135.455 65.2584 144.793 76.7775 144.793Z" fill="#34AD5D"/>
<path d="M76.7776 144.099C87.9136 144.099 96.941 135.072 96.941 123.936C96.941 112.8 87.9136 103.772 76.7776 103.772C65.6416 103.772 56.6141 112.8 56.6141 123.936C56.6141 135.072 65.6416 144.099 76.7776 144.099Z" fill="#34AD5D"/>
<path opacity="0.66" d="M60.1508 116.01C60.0827 116.01 60.0134 115.994 59.9484 115.961C59.7266 115.849 59.6376 115.579 59.7495 115.357C63.0138 108.89 69.5388 104.872 76.7777 104.872C77.9322 104.872 79.0894 104.976 80.2162 105.182C80.4608 105.226 80.6228 105.461 80.5783 105.705C80.534 105.949 80.3005 106.11 80.0551 106.067C78.9811 105.871 77.8787 105.772 76.7779 105.772C69.8802 105.772 63.6633 109.6 60.5528 115.762C60.4737 115.919 60.3152 116.01 60.1508 116.01Z" fill="white"/>
<path opacity="0.66" d="M77.217 141.441C86.6422 141.441 94.2829 133.8 94.2829 124.375C94.2829 114.95 86.6422 107.309 77.217 107.309C67.7918 107.309 60.1511 114.95 60.1511 124.375C60.1511 133.8 67.7918 141.441 77.217 141.441Z" fill="white"/>
<path d="M75.5422 137.062V135.205C73.6068 135.128 71.6922 134.671 70.3325 134.076C69.847 133.863 69.5995 133.318 69.7389 132.807L70.2107 131.078C70.3837 130.443 71.0736 130.115 71.6801 130.369C73.029 130.935 74.6944 131.382 76.4903 131.382C78.3546 131.382 79.7449 130.75 79.7449 129.455C79.7449 128.286 78.6705 127.591 76.0796 126.895C72.3825 125.884 69.7283 124.273 69.7283 121.018C69.7283 118.079 71.8769 115.836 75.6054 115.236V113.379C75.6054 112.781 76.0899 112.297 76.6873 112.297H77.7783C78.3757 112.297 78.86 112.781 78.86 113.379V115.046C80.6509 115.117 81.9547 115.424 82.9892 115.787C83.5194 115.973 83.8089 116.544 83.6619 117.087L83.2281 118.686C83.0608 119.303 82.4016 119.641 81.8038 119.415C80.8512 119.055 79.5044 118.679 77.7539 118.679C75.542 118.679 74.9101 119.596 74.9101 120.417C74.9101 121.428 76.2373 122.123 79.1126 123.008C83.2203 124.241 84.9265 125.947 84.9265 129.012C84.9265 131.824 82.8412 134.352 78.7966 134.984V137.062C78.7966 137.659 78.3124 138.143 77.7147 138.143H76.6237C76.0265 138.144 75.5422 137.659 75.5422 137.062Z" fill="#55BB78"/>
<path d="M72.6519 185.935C82.0507 185.935 89.6699 178.315 89.6699 168.917C89.6699 159.518 82.0507 151.899 72.6519 151.899C63.2532 151.899 55.634 159.518 55.634 168.917C55.634 178.315 63.2532 185.935 72.6519 185.935Z" fill="#34AD5D"/>
<path d="M72.6519 185.369C81.7381 185.369 89.1039 178.003 89.1039 168.917C89.1039 159.83 81.7381 152.465 72.6519 152.465C63.5657 152.465 56.1998 159.83 56.1998 168.917C56.1998 178.003 63.5657 185.369 72.6519 185.369Z" fill="#34AD5D"/>
<path opacity="0.66" d="M59.0854 162.439C59.0315 162.439 58.9766 162.427 58.9249 162.401C58.749 162.312 58.6785 162.098 58.7672 161.922C61.4289 156.649 66.7492 153.373 72.6519 153.373C73.5938 153.373 74.5372 153.458 75.4557 153.625C75.6496 153.66 75.778 153.846 75.7427 154.04C75.7075 154.234 75.5227 154.361 75.3277 154.327C74.4512 154.168 73.551 154.087 72.6517 154.087C67.0198 154.087 61.9437 157.212 59.4039 162.243C59.3413 162.368 59.2158 162.439 59.0854 162.439Z" fill="white"/>
<path opacity="0.66" d="M86.8907 170.426C87.5252 162.762 81.8264 156.034 74.1622 155.4C66.498 154.765 59.7705 160.464 59.1361 168.128C58.5016 175.793 64.2004 182.52 71.8646 183.154C79.5289 183.789 86.2563 178.09 86.8907 170.426Z" fill="white"/>
<path d="M71.6441 179.627V178.112C70.0647 178.049 68.5028 177.676 67.3932 177.191C66.9971 177.017 66.7952 176.572 66.9089 176.155L67.2938 174.744C67.4351 174.226 67.9981 173.959 68.4928 174.166C69.5934 174.628 70.9523 174.993 72.4176 174.993C73.9387 174.993 75.0732 174.477 75.0732 173.42C75.0732 172.466 74.1967 171.899 72.0824 171.332C69.066 170.507 66.9003 169.192 66.9003 166.536C66.9003 164.139 68.6537 162.308 71.6957 161.818V160.303C71.6957 159.815 72.091 159.42 72.5784 159.42H73.4684C73.956 159.42 74.351 159.815 74.351 160.303V161.663C75.8125 161.722 76.8762 161.972 77.7205 162.268C78.1529 162.42 78.3893 162.886 78.2693 163.329L77.9152 164.634C77.7789 165.137 77.2409 165.413 76.7531 165.228C75.9759 164.934 74.8769 164.629 73.4487 164.629C71.6439 164.629 71.1284 165.376 71.1284 166.046C71.1284 166.872 72.2112 167.439 74.5573 168.161C77.9089 169.166 79.301 170.558 79.301 173.059C79.301 175.354 77.5995 177.416 74.2994 177.932V179.627C74.2994 180.115 73.9043 180.51 73.4167 180.51H72.5265C72.0391 180.51 71.6441 180.114 71.6441 179.627Z" fill="#55BB78"/>
<path d="M58.516 146.026L57.4843 147.508C57.3526 147.697 57.3992 147.957 57.5882 148.089C57.7775 148.221 58.0374 148.174 58.1691 147.985L58.1723 147.98L59.1983 146.509L59.2018 146.504C59.3338 146.314 59.2873 146.054 59.098 145.922C58.9088 145.79 58.6482 145.837 58.5162 146.026L58.516 146.026Z" fill="#8AD0A2"/>
<path d="M55.7325 150.138L54.7637 151.663C54.6407 151.856 54.6979 152.113 54.8914 152.236C55.085 152.359 55.3415 152.302 55.4647 152.108L55.468 152.103L56.431 150.591L56.4345 150.585C56.5579 150.391 56.5007 150.134 56.3069 150.011C56.1132 149.887 55.8561 149.944 55.7327 150.138L55.7325 150.138Z" fill="#8AD0A2"/>
<path d="M50.726 158.717L49.9071 160.328C49.8042 160.53 49.885 160.778 50.0874 160.881C50.2897 160.984 50.5374 160.903 50.6403 160.701L50.6438 160.694L51.457 159.098L51.4604 159.091C51.5638 158.888 51.483 158.64 51.2804 158.537C51.0777 158.434 50.8296 158.514 50.7264 158.717L50.726 158.717Z" fill="#8AD0A2"/>
<path d="M48.5497 163.184L47.819 164.836C47.7276 165.043 47.8211 165.285 48.0279 165.376C48.2346 165.467 48.4763 165.374 48.5676 165.167L48.5709 165.16L49.296 163.523L49.2993 163.516C49.391 163.309 49.2977 163.066 49.0906 162.975C48.8835 162.883 48.6414 162.977 48.5497 163.184Z" fill="#8AD0A2"/>
<path d="M46.6238 167.764L45.9907 169.456C45.9118 169.667 46.0188 169.902 46.2294 169.981C46.4401 170.059 46.6747 169.952 46.7534 169.742L46.7565 169.733L47.3847 168.059L47.3878 168.05C47.4669 167.839 47.3601 167.604 47.1491 167.525C46.9381 167.446 46.703 167.553 46.6238 167.764V167.764Z" fill="#8AD0A2"/>
<path d="M43.6226 177.239L43.2103 179C43.1596 179.217 43.2941 179.434 43.511 179.485C43.728 179.535 43.9447 179.401 43.9955 179.184L43.9978 179.175L44.4068 177.433L44.4091 177.423C44.4601 177.206 44.3254 176.988 44.1081 176.937C43.8909 176.886 43.6734 177.021 43.6226 177.238V177.239Z" fill="#8AD0A2"/>
<path d="M41.9079 187.035L41.7455 188.838C41.7257 189.057 41.8876 189.251 42.1072 189.271C42.3268 189.291 42.521 189.129 42.5406 188.909L42.5415 188.899L42.7034 187.118L42.7045 187.107C42.7246 186.887 42.5624 186.693 42.3424 186.673C42.1224 186.653 41.9278 186.815 41.9079 187.035Z" fill="#8AD0A2"/>
<path d="M41.6015 196.977L41.6999 198.782C41.7118 199 41.8982 199.167 42.1161 199.155C42.3341 199.143 42.5012 198.957 42.4893 198.739L42.4887 198.729L42.3929 196.944L42.3923 196.934C42.3806 196.716 42.1941 196.548 41.9757 196.56C41.7573 196.572 41.5898 196.758 41.6015 196.977Z" fill="#8AD0A2"/>
<path d="M42.7156 206.854L43.0647 208.63C43.1063 208.842 43.312 208.98 43.524 208.938C43.736 208.896 43.8742 208.69 43.8323 208.478L43.8305 208.469L43.4865 206.713L43.4846 206.703C43.443 206.491 43.2371 206.352 43.0245 206.394C42.8121 206.436 42.6735 206.642 42.7151 206.854L42.7156 206.854Z" fill="#8AD0A2"/>
<path d="M51.3216 230.058L52.2473 231.611C52.3551 231.792 52.5892 231.851 52.7699 231.743C52.9507 231.635 53.01 231.401 52.9021 231.22L52.8978 231.213L51.9824 229.675L51.9778 229.667C51.87 229.486 51.6355 229.427 51.4542 229.535C51.273 229.642 51.2135 229.877 51.3213 230.058L51.3216 230.058Z" fill="#8AD0A2"/>
<path d="M56.8357 238.321L57.9424 239.75C58.0699 239.914 58.307 239.944 58.4718 239.817C58.6364 239.689 58.6666 239.452 58.5391 239.288L58.5343 239.282L57.4385 237.865L57.4337 237.859C57.306 237.693 57.0686 237.663 56.9033 237.791C56.7381 237.919 56.7079 238.156 56.8357 238.321Z" fill="#8AD0A2"/>
<path d="M66.7729 249.409L68.0876 250.644C68.237 250.785 68.472 250.777 68.6124 250.628C68.7529 250.478 68.7455 250.243 68.596 250.103L68.5915 250.098L67.2871 248.871L67.2824 248.867C67.1327 248.726 66.8974 248.733 66.7565 248.883C66.6157 249.032 66.6228 249.268 66.7725 249.409L66.7729 249.409Z" fill="#8AD0A2"/>
<path d="M70.4412 252.753L71.8128 253.927C71.9678 254.06 72.2009 254.042 72.3336 253.887C72.4662 253.732 72.4482 253.499 72.2932 253.366L72.2889 253.363L70.9273 252.195L70.9228 252.191C70.7676 252.058 70.5341 252.076 70.401 252.231C70.2679 252.386 70.286 252.62 70.4412 252.753Z" fill="#8AD0A2"/>
<path d="M78.2058 258.936L79.6712 259.99C79.835 260.108 80.0634 260.071 80.1811 259.907C80.2988 259.743 80.2614 259.515 80.0976 259.397L80.0935 259.394L78.6376 258.345L78.6333 258.342C78.4693 258.224 78.2405 258.261 78.1224 258.425C78.0043 258.589 78.0414 258.818 78.2054 258.936L78.2058 258.936Z" fill="#8AD0A2"/>
<path d="M124.247 82.2932L125.13 88.7834L129.146 85.3949L124.247 82.2932Z" fill="#34AD5D"/>
<path d="M152.924 74.5959L137.49 92.3552C137.195 92.6952 136.774 92.9004 136.324 92.9234C135.874 92.9463 135.434 92.7854 135.105 92.4772L117.858 76.3092C117.661 76.124 117.595 75.8376 117.693 75.585C117.79 75.3324 118.031 75.1643 118.302 75.16L152.924 74.5959Z" fill="#8AD0A2"/>
<path d="M124.249 82.2939L152.925 74.5959L127.024 84.9117L127.193 86.7219L124.249 82.2939Z" fill="#34AD5D"/>
<path d="M128.682 86.4514L125.13 88.7834L127.025 84.9116L128.682 86.4514Z" fill="#34AD5D"/>
<path d="M263.304 286.39C263.304 280.51 258.537 275.743 252.657 275.743H247.858C241.978 275.743 237.211 280.51 237.211 286.39V315.033C237.211 320.913 241.978 325.68 247.858 325.68H252.657C258.537 325.68 263.304 320.913 263.304 315.033V286.39Z" fill="#018B30"/>
<path d="M409.517 286.39C409.517 280.51 404.75 275.743 398.869 275.743H394.071C388.19 275.743 383.423 280.51 383.423 286.39V315.033C383.423 320.913 388.19 325.68 394.071 325.68H398.869C404.75 325.68 409.517 320.913 409.517 315.033V286.39Z" fill="#018B30"/>
<path d="M250.916 233.213C250.597 233.142 250.258 232.859 250.258 232.532V230.344C250.258 228.236 249.183 226.307 247.3 225.358C244.871 224.134 242.071 224.091 239.607 225.242L234.988 227.36C232.828 228.37 231.363 230.539 231.363 232.923V234.592C231.363 237.663 233.744 240.261 236.787 240.676L255.488 243.214L257.765 234.722L250.916 233.213Z" fill="#55BB78"/>
<path d="M396.12 233.213C396.439 233.142 396.47 232.859 396.47 232.532V230.344C396.47 228.236 397.854 226.307 399.737 225.358C402.166 224.134 405.12 224.091 407.585 225.242L411.971 227.36C414.132 228.37 415.365 230.539 415.365 232.923V234.592C415.365 237.663 413.293 240.261 410.25 240.676L391.704 243.214L389.349 234.722L396.12 233.213Z" fill="#55BB78"/>
<path d="M409.939 251.987C407.239 242.876 393.293 234.575 393.293 234.575C393.293 234.575 381.596 198.813 368.999 198.813C358.885 198.813 334.596 198.813 325.416 198.813C325.416 198.813 324.069 198.813 321.817 198.813C312.627 198.813 288.295 198.813 278.178 198.813C265.582 198.813 253.885 234.575 253.885 234.575C253.885 234.575 239.938 242.938 237.239 252.049C235.265 258.71 239.544 284.392 241.988 297.612C242.849 302.273 247.247 305.885 252.383 305.885H321.817H325.416H394.794C399.93 305.885 404.328 302.241 405.19 297.58C407.634 284.361 411.912 258.648 409.939 251.987Z" fill="#34AD5D"/>
<path d="M408.187 290.507C407.402 289.609 406.205 289.24 404.938 289.24H242.24C240.981 289.24 239.79 289.603 239.005 290.491C238.219 291.38 237.925 292.466 238.203 293.574L240.866 304.239C241.294 305.941 242.97 307.235 244.903 307.235H402.142C404.058 307.235 405.724 305.923 406.168 304.24L408.964 293.676C409.258 292.563 408.972 291.405 408.187 290.507Z" fill="#8AD0A2"/>
<path d="M279.647 273.844C279.647 273.844 275.598 261.697 270.499 260.647C265.401 259.598 243.806 255.099 243.356 258.848C242.906 262.597 238.558 275.494 251.454 276.693C264.351 277.893 281.725 278.88 279.647 273.844Z" fill="#8AD0A2"/>
<path d="M367.531 273.844C367.531 273.844 371.579 261.697 376.678 260.647C381.777 259.598 403.371 255.099 403.821 258.848C404.271 262.597 408.62 275.494 395.723 276.693C382.827 277.893 365.453 278.88 367.531 273.844Z" fill="#8AD0A2"/>
<path d="M364.622 263.606C364.204 262.961 363.486 262.696 362.717 262.696H284.461C283.664 262.696 282.925 262.989 282.514 263.672C282.103 264.355 282.08 265.141 282.454 265.845L286.857 274.241C288.491 277.322 291.692 279.342 295.18 279.342H352.68C356.399 279.342 359.769 277.03 361.284 273.633L364.792 265.768C365.105 265.065 365.042 264.252 364.622 263.606Z" fill="#B0DFC0"/>
<path d="M385.932 237.486C385.424 238.26 384.56 238.852 383.629 238.852H263.546C262.606 238.852 261.728 238.246 261.224 237.45C260.72 236.654 260.657 235.593 261.062 234.738C263.789 228.993 268.904 218.327 271.77 212.375C271.9 212.105 272.044 211.957 272.206 211.71C273.592 209.51 276.026 208.26 278.667 208.26H369.475C372.143 208.26 374.586 209.521 375.967 211.739C376.161 212.054 376.336 212.32 376.485 212.662L386.148 234.85C386.522 235.7 386.441 236.708 385.932 237.486Z" fill="#8AD0A2"/>
<path d="M375.967 211.739C369.606 212.994 350.913 216.059 322.719 216.059C294.291 216.059 277.609 212.963 272.206 211.725C273.592 209.526 276.026 208.26 278.666 208.26H369.475C372.143 208.26 374.586 209.521 375.967 211.739Z" fill="#8AD0A2"/>
<path d="M277.712 257.32C277.601 257.32 277.49 257.279 277.403 257.197L261.838 242.468C261.657 242.297 261.65 242.012 261.82 241.832C261.992 241.651 262.276 241.644 262.456 241.814L278.021 256.543C278.202 256.714 278.209 256.999 278.039 257.179C277.95 257.273 277.831 257.32 277.712 257.32Z" fill="#8AD0A2"/>
<path d="M368.32 257.32C368.2 257.32 368.082 257.273 367.993 257.179C367.822 256.999 367.83 256.714 368.01 256.543L383.575 241.814C383.756 241.644 384.04 241.651 384.211 241.832C384.382 242.012 384.374 242.297 384.194 242.468L368.629 257.197C368.542 257.279 368.431 257.32 368.32 257.32Z" fill="#8AD0A2"/>
<path d="M252.659 29.6831C255.547 31.8954 256.332 35.7195 254.413 38.225C252.493 40.7304 248.597 40.968 245.709 38.7558C242.821 36.5437 242.036 32.7192 243.956 30.214C245.875 27.7086 249.771 27.471 252.659 29.6831Z" fill="white"/>
<path d="M280.236 19.521C287.451 20.4544 292.635 26.3534 291.814 32.6964C290.994 39.0402 284.48 43.4262 277.265 42.493C270.05 41.5597 264.866 35.6609 265.686 29.3172C266.507 22.9738 273.021 18.5879 280.236 19.521Z" fill="white"/>
<path d="M307.822 31.5123C312.948 29.9237 317.861 31.0795 318.795 34.0937C319.729 37.1085 316.331 40.8403 311.205 42.429C306.078 44.0176 301.166 42.8618 300.231 39.8474C299.297 36.8327 302.695 33.101 307.822 31.5123Z" fill="white"/>
<path d="M107.172 55.4631C71.9329 67.874 44.3468 87.5697 42.93 83.5468C41.5132 79.5241 66.8022 53.3064 102.041 40.8954C137.28 28.4845 169.125 34.58 170.542 38.6028C171.959 42.6255 142.411 43.0521 107.172 55.4631Z" fill="white"/>
</svg>
