<svg width="448" height="405" viewBox="0 0 448 405" fill="none" xmlns="http://www.w3.org/2000/svg">
<path d="M22.5902 143.973C22.5902 148.111 19.2342 151.467 15.0965 151.467C10.9693 151.467 7.61328 148.111 7.61328 143.973C7.61328 139.835 10.9693 136.49 15.0965 136.49C19.2342 136.49 22.5902 139.835 22.5902 143.973Z" fill="white"/>
<path d="M437.8 187.151C437.8 191.288 434.444 194.644 430.306 194.644C426.179 194.644 422.823 191.288 422.823 187.151C422.823 183.013 426.179 179.667 430.306 179.667C434.444 179.667 437.8 183.013 437.8 187.151Z" fill="white"/>
<path d="M14.7052 239.996C14.7052 243.915 11.5265 247.094 7.60767 247.094C3.68886 247.094 0.520508 243.915 0.520508 239.996C0.520508 236.087 3.68886 232.909 7.60767 232.909C11.5265 232.909 14.7052 236.087 14.7052 239.996Z" fill="white"/>
<path d="M424.416 61.2526C428.779 61.2526 432.316 57.7156 432.316 53.3525C432.316 48.9894 428.779 45.4524 424.416 45.4524C420.053 45.4524 416.516 48.9894 416.516 53.3525C416.516 57.7156 420.053 61.2526 424.416 61.2526Z" fill="white"/>
<path d="M75.0028 372.487C75.0028 375.03 72.9495 377.094 70.4065 377.094C67.8634 377.094 65.7998 375.03 65.7998 372.487C65.7998 369.944 67.8634 367.891 70.4065 367.891C72.9495 367.891 75.0028 369.944 75.0028 372.487Z" fill="white"/>
<path d="M185.365 75.9064C188.168 75.9064 190.441 73.6339 190.441 70.8308C190.441 68.0276 188.168 65.7551 185.365 65.7551C182.562 65.7551 180.29 68.0276 180.29 70.8308C180.29 73.6339 182.562 75.9064 185.365 75.9064Z" fill="white"/>
<path d="M37.9702 47.758C40.7734 47.758 43.0458 45.4855 43.0458 42.6823C43.0458 39.8791 40.7734 37.6067 37.9702 37.6067C35.167 37.6067 32.8945 39.8791 32.8945 42.6823C32.8945 45.4855 35.167 47.758 37.9702 47.758Z" fill="white"/>
<path d="M444.283 324.184C444.283 327.769 441.385 330.667 437.8 330.667C434.225 330.667 431.317 327.769 431.317 324.184C431.317 320.609 434.225 317.712 437.8 317.712C441.385 317.712 444.283 320.609 444.283 324.184Z" fill="white"/>
<path d="M22.5902 143.973C22.5902 148.111 19.2342 151.467 15.0965 151.467C10.9693 151.467 7.61328 148.111 7.61328 143.973C7.61328 139.835 10.9693 136.49 15.0965 136.49C19.2342 136.49 22.5902 139.835 22.5902 143.973Z" stroke="black" stroke-width="0.866667" stroke-miterlimit="10"/>
<path d="M437.8 187.151C437.8 191.288 434.444 194.644 430.306 194.644C426.179 194.644 422.823 191.288 422.823 187.151C422.823 183.013 426.179 179.667 430.306 179.667C434.444 179.667 437.8 183.013 437.8 187.151Z" stroke="black" stroke-width="0.866667" stroke-miterlimit="10"/>
<path d="M14.7052 239.996C14.7052 243.915 11.5265 247.094 7.60767 247.094C3.68886 247.094 0.520508 243.915 0.520508 239.996C0.520508 236.087 3.68886 232.909 7.60767 232.909C11.5265 232.909 14.7052 236.087 14.7052 239.996Z" stroke="black" stroke-width="0.866667" stroke-miterlimit="10"/>
<path d="M424.416 61.2526C428.779 61.2526 432.316 57.7156 432.316 53.3525C432.316 48.9894 428.779 45.4524 424.416 45.4524C420.053 45.4524 416.516 48.9894 416.516 53.3525C416.516 57.7156 420.053 61.2526 424.416 61.2526Z" stroke="black" stroke-width="0.866667" stroke-miterlimit="10"/>
<path d="M75.0028 372.487C75.0028 375.03 72.9495 377.094 70.4065 377.094C67.8634 377.094 65.7998 375.03 65.7998 372.487C65.7998 369.944 67.8634 367.891 70.4065 367.891C72.9495 367.891 75.0028 369.944 75.0028 372.487Z" stroke="black" stroke-width="0.866667" stroke-miterlimit="10"/>
<path d="M68.5433 265.285C68.5433 267.829 66.4901 269.892 63.947 269.892C61.404 269.892 59.3403 267.829 59.3403 265.285C59.3403 262.742 61.404 260.689 63.947 260.689C66.4901 260.689 68.5433 262.742 68.5433 265.285Z" fill="white"/>
<path d="M68.5433 265.285C68.5433 267.829 66.4901 269.892 63.947 269.892C61.404 269.892 59.3403 267.829 59.3403 265.285C59.3403 262.742 61.404 260.689 63.947 260.689C66.4901 260.689 68.5433 262.742 68.5433 265.285Z" stroke="black" stroke-width="0.866667" stroke-miterlimit="10"/>
<path d="M312.137 124.168C312.612 127.279 309.983 129.923 306.871 129.447C304.929 129.151 303.342 127.564 303.046 125.622C302.57 122.51 305.214 119.881 308.325 120.356C310.26 120.651 311.842 122.233 312.137 124.168Z" fill="white"/>
<path d="M312.137 124.168C312.612 127.279 309.983 129.923 306.871 129.447C304.929 129.151 303.342 127.564 303.046 125.622C302.57 122.51 305.214 119.881 308.325 120.356C310.26 120.651 311.842 122.233 312.137 124.168Z" stroke="black" stroke-width="0.866667" stroke-miterlimit="10"/>
<path d="M185.365 75.9064C188.168 75.9064 190.441 73.6339 190.441 70.8308C190.441 68.0276 188.168 65.7551 185.365 65.7551C182.562 65.7551 180.29 68.0276 180.29 70.8308C180.29 73.6339 182.562 75.9064 185.365 75.9064Z" stroke="black" stroke-width="0.866667" stroke-miterlimit="10"/>
<path d="M37.9702 47.758C40.7734 47.758 43.0458 45.4855 43.0458 42.6823C43.0458 39.8791 40.7734 37.6067 37.9702 37.6067C35.167 37.6067 32.8945 39.8791 32.8945 42.6823C32.8945 45.4855 35.167 47.758 37.9702 47.758Z" stroke="black" stroke-width="0.866667" stroke-miterlimit="10"/>
<path d="M444.283 324.184C444.283 327.769 441.385 330.667 437.8 330.667C434.225 330.667 431.317 327.769 431.317 324.184C431.317 320.609 434.225 317.712 437.8 317.712C441.385 317.712 444.283 320.609 444.283 324.184Z" stroke="black" stroke-width="0.866667" stroke-miterlimit="10"/>
<path d="M394.835 394.759C394.835 399.975 377.124 404.214 355.259 404.214C333.395 404.214 315.671 399.975 315.671 394.759C315.671 389.889 331.047 385.885 350.81 385.353V386.997C342.937 387.467 337.115 389.185 337.115 391.212C337.115 393.597 345.236 395.538 355.259 395.538C365.283 395.538 373.391 393.597 373.391 391.212C373.391 389.296 368.225 387.665 361.044 387.084V385.39C380.164 386.058 394.835 390 394.835 394.759Z" fill="white"/>
<path d="M229.524 377.444C229.524 377.444 227.851 381.063 228.428 386.044C229.004 391.025 230.251 396.711 221.689 398.203C213.127 399.694 188.354 405.919 177.042 400.175C165.731 394.432 178.359 388.783 184.715 388.242C191.071 387.701 207.927 383.369 207.927 383.369L209.594 377.444" fill="white"/>
<path d="M192.622 360.313C192.622 360.313 189.584 366.177 189.736 371.189C189.888 376.201 190.647 381.972 181.99 382.732C173.333 383.491 148.121 387.592 137.337 380.909C126.554 374.226 139.615 369.67 145.994 369.67C152.373 369.67 169.536 366.784 169.536 366.784L171.966 360.313" fill="white"/>
<path d="M257.801 34.011V331.128C257.801 339.735 251.523 347.381 243.701 348.222L99.467 363.732C90.0241 364.747 82.2871 357.807 82.2871 348.211V16.9286C82.2871 7.33284 90.024 0.392311 99.467 1.4077L243.701 16.9177C251.523 17.7588 257.801 25.4049 257.801 34.011Z" stroke="black" stroke-width="0.866667" stroke-miterlimit="10"/>
<path d="M257.801 34.011V331.128C257.801 339.735 251.523 347.381 243.701 348.222L99.467 363.732C90.0241 364.747 82.2871 357.807 82.2871 348.211V16.9286C82.2871 7.33284 90.024 0.392312 99.467 1.4077L243.701 16.9177C251.523 17.7588 257.801 25.4049 257.801 34.011Z" fill="black"/>
<path d="M252.018 33.4552V331.682C252.018 336.764 248.3 341.268 243.688 341.745L99.4635 356.647C93.9377 357.218 89.4243 353.115 89.4243 347.506V17.631C89.4243 12.0216 93.9377 7.93096 99.4635 8.50192L141.465 12.8417L144.021 18.187C145.406 21.0917 148.157 23.0962 151.151 23.388L197.808 27.936C200.612 28.2093 203.181 26.7847 204.468 24.2452L206.842 19.5966L243.688 23.4036C248.3 23.8801 252.018 28.3728 252.018 33.4552Z" fill="white"/>
<path d="M183.112 342.877C183.112 343.321 183.1 343.754 183.078 344.189C183.067 344.418 183.055 344.647 183.033 344.878C183.033 345.13 183.01 345.396 182.976 345.652C182.942 346.028 182.908 346.403 182.852 346.781C182.807 347.146 182.75 347.512 182.682 347.879C182.682 347.939 182.671 347.989 182.66 348.05L130.018 353.489C130.006 353.428 129.994 353.38 129.994 353.318C129.922 352.953 129.861 352.588 129.813 352.22C129.753 351.842 129.717 351.461 129.68 351.08C129.644 350.823 129.62 350.553 129.62 350.292C129.596 350.059 129.584 349.824 129.572 349.59C129.548 349.146 129.536 348.7 129.536 348.241C129.536 332.521 141.832 318.759 156.753 317.522C171.416 316.306 183.112 327.666 183.112 342.877Z" fill="white"/>
<path d="M252.015 33.4497V331.681C252.015 336.759 248.303 341.267 243.696 341.743L99.4564 356.647C93.9484 357.216 89.4302 353.121 89.4302 347.504V17.6257C89.4302 12.0215 93.9483 7.92606 99.4564 8.4952L141.464 12.8356L144.028 18.1923C145.413 21.096 148.154 23.0958 151.144 23.3872L197.805 27.9357C200.617 28.2097 203.187 26.7887 204.474 24.2503L206.835 19.5902L243.696 23.3989C248.303 23.875 252.015 28.3716 252.015 33.4497Z" stroke="black" stroke-width="0.866667" stroke-miterlimit="10"/>
<path d="M197.265 20.6826C197.265 21.8305 196.4 22.6709 195.317 22.5619L161.953 19.202C160.834 19.0892 159.928 18.0486 159.928 16.8738C159.928 15.6989 160.834 14.843 161.953 14.9587L195.317 18.4059C196.4 18.5177 197.265 19.5347 197.265 20.6826Z" fill="white"/>
<path d="M155.806 16.4532C155.806 17.6311 154.895 18.4912 153.766 18.3775C152.635 18.2636 151.721 17.2172 151.721 16.0364C151.721 14.8556 152.635 13.9959 153.766 14.1127C154.895 14.2293 155.806 15.2753 155.806 16.4532Z" fill="white"/>
<path d="M239.535 65.3961V165.736L104.434 164.263V55.1475L239.535 65.3961Z" stroke="black" stroke-width="0.866667" stroke-miterlimit="10"/>
<path d="M239.535 117.682L136.296 113.345L142.751 123.898L134.146 164.587" stroke="black" stroke-width="0.866667" stroke-miterlimit="10"/>
<path d="M104.434 85.6658L149.085 88.2417L181.497 61.1309" stroke="black" stroke-width="0.866667" stroke-miterlimit="10"/>
<path d="M119.912 86.5586L142.751 123.898" stroke="black" stroke-width="0.866667" stroke-miterlimit="10"/>
<path d="M239.535 141.709L206.842 140.844L174.88 165.031L104.434 164.263" stroke="black" stroke-width="0.866667" stroke-miterlimit="10"/>
<path d="M206.876 116.31V165.38" stroke="black" stroke-width="0.866667" stroke-miterlimit="10"/>
<path d="M193.497 150.944L180.754 115.213" stroke="black" stroke-width="0.866667" stroke-miterlimit="10"/>
<path d="M239.535 65.396L174.817 114.963L118.928 56.3896" stroke="black" stroke-width="0.866667" stroke-miterlimit="10"/>
<path d="M162.358 268.387L177.296 248.932L155.152 249.847L147.222 244.074L182.049 242.765L162.358 268.387Z" fill="white"/>
<path d="M126.657 266.372L147.221 244.071L155.148 249.85L140.685 265.663" stroke="black" stroke-width="0.866667" stroke-miterlimit="10"/>
<path d="M162.352 268.382L182.046 242.762L147.221 244.071L155.148 249.85L177.301 248.935" stroke="black" stroke-width="0.866667" stroke-miterlimit="10"/>
<path d="M183.112 342.877C183.112 343.321 183.1 343.754 183.078 344.189C183.067 344.418 183.055 344.648 183.033 344.878C183.033 345.13 183.01 345.397 182.976 345.652C182.942 346.028 182.908 346.403 182.852 346.781C182.807 347.146 182.75 347.512 182.682 347.88C182.682 347.94 182.671 347.989 182.66 348.05L130.018 353.489C130.006 353.429 129.994 353.38 129.994 353.318C129.922 352.954 129.861 352.588 129.813 352.221C129.753 351.842 129.717 351.461 129.68 351.08C129.644 350.824 129.62 350.553 129.62 350.292C129.596 350.059 129.584 349.825 129.572 349.59C129.548 349.146 129.536 348.7 129.536 348.241C129.536 332.521 141.832 318.759 156.753 317.522C171.416 316.306 183.112 327.666 183.112 342.877Z" stroke="black" stroke-width="0.866667" stroke-miterlimit="10"/>
<path d="M167.038 344.486C167.038 346.366 166.577 348.172 165.781 349.794L147.635 351.669C146.82 350.194 146.348 348.462 146.348 346.558C146.348 340.553 151.026 335.239 156.764 334.703C162.451 334.171 167.038 338.557 167.038 344.486Z" stroke="black" stroke-width="0.866667" stroke-miterlimit="10"/>
<path d="M167.038 344.486C167.038 346.366 166.577 348.172 165.781 349.794L147.635 351.669C146.82 350.194 146.348 348.462 146.348 346.558C146.348 340.553 151.026 335.239 156.764 334.703C162.451 334.171 167.038 338.557 167.038 344.486Z" fill="black"/>
<path d="M150.858 182.955V243.934L101.728 252.057V189.243L150.858 182.955Z" stroke="black" stroke-width="0.866667" stroke-miterlimit="10"/>
<path d="M142.238 193.105V220.458L110.776 225.173V197.308L142.238 193.105Z" stroke="black" stroke-width="0.866667" stroke-miterlimit="10"/>
<path d="M142.238 193.105V220.458L110.776 225.173V197.308L142.238 193.105Z" fill="black"/>
<path d="M150.857 182.955V243.934L223.906 241.19V182.938L150.857 182.955Z" stroke="black" stroke-width="0.866667" stroke-miterlimit="10"/>
<path d="M89.8818 269.805C89.8818 269.805 154.217 254.142 182.046 273.244C208.94 291.704 201.991 314.818 201.991 314.818L89.8818 324.189V269.805Z" fill="white"/>
<path d="M89.8818 269.805C89.8818 269.805 154.217 254.142 182.046 273.244C208.94 291.704 201.991 314.818 201.991 314.818L89.8818 324.189V269.805Z" stroke="black" stroke-width="0.866667" stroke-miterlimit="10"/>
<path d="M201.995 314.818L189.741 315.842C189.741 315.842 196.795 290.656 169.481 270.323C166.783 268.321 163.775 266.657 160.525 265.291C168.667 266.706 176.145 269.194 182.047 273.245C208.941 291.7 201.995 314.818 201.995 314.818Z" stroke="black" stroke-width="0.866667" stroke-miterlimit="10"/>
<path d="M165.44 317.874L157.125 318.569C161.683 273.67 106.074 273.258 89.8818 269.805C134.319 272.413 170.987 275.678 165.44 317.874Z" stroke="black" stroke-width="0.866667" stroke-miterlimit="10"/>
<path d="M201.995 314.818L189.741 315.842C189.741 315.842 196.795 290.656 169.481 270.323C166.783 268.321 163.775 266.657 160.525 265.291C168.667 266.706 176.145 269.194 182.047 273.245C208.941 291.7 201.995 314.818 201.995 314.818Z" fill="black"/>
<path d="M165.44 317.874L157.125 318.569C161.683 273.67 106.074 273.258 89.8818 269.805C134.319 272.413 170.987 275.678 165.44 317.874Z" fill="black"/>
<path d="M131.737 287.869V291.458L105.178 293.208V289.561L131.737 287.869Z" stroke="black" stroke-width="0.866667" stroke-miterlimit="10"/>
<path d="M131.737 294.17V297.76L105.178 299.611V295.964L131.737 294.17Z" stroke="black" stroke-width="0.866667" stroke-miterlimit="10"/>
<path d="M131.737 300.472V304.062L105.178 306.015V302.367L131.737 300.472Z" stroke="black" stroke-width="0.866667" stroke-miterlimit="10"/>
<path d="M124.466 112.846C120.207 112.667 116.735 116.072 116.735 120.448C116.735 124.812 124.466 136.965 124.466 136.965C124.466 136.965 132.113 125.344 132.113 121.021C132.113 116.685 128.703 113.024 124.466 112.846ZM124.466 124.731C122.302 124.655 120.548 122.798 120.548 120.59C120.548 118.369 122.302 116.643 124.466 116.729C126.611 116.814 128.352 118.671 128.352 120.881C128.352 123.078 126.611 124.806 124.466 124.731Z" stroke="black" stroke-width="0.866667" stroke-miterlimit="10"/>
<path d="M176.932 79.5084C172.939 79.2523 169.684 82.4817 169.684 86.719C169.684 90.944 176.932 102.865 176.932 102.865C176.932 102.865 184.105 91.7625 184.105 87.5751C184.105 83.3758 180.895 79.7625 176.932 79.5084ZM176.932 91.0181C174.904 90.9025 173.259 89.0694 173.259 86.9313C173.259 84.7812 174.904 83.1434 176.932 83.2687C178.945 83.3931 180.578 85.2254 180.578 87.3658C180.578 89.4941 178.945 91.1326 176.932 91.0181Z" stroke="black" stroke-width="0.866667" stroke-miterlimit="10"/>
<path d="M124.466 112.846C120.207 112.667 116.735 116.072 116.735 120.448C116.735 124.812 124.466 136.965 124.466 136.965C124.466 136.965 132.113 125.344 132.113 121.021C132.113 116.685 128.703 113.024 124.466 112.846ZM124.466 124.731C122.302 124.655 120.548 122.798 120.548 120.59C120.548 118.369 122.302 116.643 124.466 116.729C126.611 116.814 128.352 118.671 128.352 120.881C128.352 123.078 126.611 124.806 124.466 124.731Z" fill="black"/>
<path d="M176.932 79.5084C172.939 79.2523 169.684 82.4817 169.684 86.719C169.684 90.944 176.932 102.865 176.932 102.865C176.932 102.865 184.105 91.7625 184.105 87.5751C184.105 83.3758 180.895 79.7625 176.932 79.5084ZM176.932 91.0181C174.904 90.9025 173.259 89.0694 173.259 86.9313C173.259 84.7812 174.904 83.1434 176.932 83.2687C178.945 83.3931 180.578 85.2254 180.578 87.3658C180.578 89.4941 178.945 91.1326 176.932 91.0181Z" fill="black"/>
<path d="M410.786 215.67C424.681 218.192 436.583 228.488 442.402 241.355C448.222 254.222 448.273 269.299 443.942 282.74C439.61 296.182 431.132 308.049 420.824 317.701C408.122 329.593 392.435 338.381 375.51 342.42C358.586 346.459 340.453 345.667 324.142 339.609C315.255 336.309 306.824 331.388 300.46 324.362C294.096 317.336 289.939 308.069 290.127 298.591C290.444 282.687 304.604 269.262 316.203 258.376C327.802 247.491 341.562 239.116 355.916 232.261C373.912 223.668 391.217 219.508 410.786 215.67Z" fill="white"/>
<path d="M443.937 282.737C439.607 296.186 431.136 308.047 420.82 317.703C408.12 329.597 392.433 338.38 375.515 342.42C358.586 346.459 340.449 345.665 324.146 339.611C315.251 336.31 306.826 331.387 300.459 324.361C297.27 320.836 294.629 316.741 292.817 312.343C291.082 308.136 290.109 303.65 290.12 299.107V299.096C290.12 298.928 290.131 298.771 290.131 298.592C290.445 282.692 304.599 269.265 316.202 258.378C327.805 247.491 341.556 239.111 355.912 232.263C373.915 223.67 391.214 219.508 410.783 215.67C424.68 218.187 436.585 228.492 442.404 241.36C448.222 254.227 448.278 269.299 443.937 282.737Z" stroke="black" stroke-width="0.866667" stroke-miterlimit="10"/>
<path d="M388.557 198.674C392.258 212.244 387.817 228.528 387.817 228.528L321.448 226.801L319.227 249.993C319.227 249.993 382.882 260.602 404.347 254.927C425.812 249.253 416.93 202.375 415.203 179.183" fill="black"/>
<path d="M385.121 256.402C385.121 256.402 388.667 315.507 352.68 311.456C316.693 307.404 253.536 288.576 253.536 288.576L203.487 360.313H164.164C164.164 360.313 212.782 256.597 235.185 249.014C251.56 243.472 311.219 245.486 311.219 245.486L385.121 256.402Z" fill="white"/>
<path d="M292.817 312.343L258.03 315.767L237.274 377.441H201.693L211.942 348.204L253.543 288.578C253.543 288.578 269.51 293.333 289.964 298.592L290.12 299.095V299.107C290.109 303.649 291.083 308.136 292.817 312.343Z" fill="white"/>
<path d="M388.557 198.674C392.258 212.244 387.817 228.528 387.817 228.528L321.448 226.801L319.227 249.993C319.227 249.993 382.882 260.602 404.347 254.927C425.812 249.253 416.93 202.375 415.203 179.183C413.476 155.991 368.858 159.938 368.858 159.938C368.858 159.938 345.873 161.172 339.212 169.561C332.55 177.949 315.773 204.596 315.773 204.596L289.373 148.342L268.402 156.731C268.402 156.731 284.87 237.654 312.319 245.305C339.768 252.957 358.21 252.46 358.21 252.46" stroke="black" stroke-width="0.866667" stroke-miterlimit="10"/>
<path d="M415.203 179.183C413.476 155.99 368.858 159.938 368.858 159.938C368.858 159.938 345.873 161.172 339.212 169.56C332.55 177.949 315.773 204.595 315.773 204.595L289.373 148.342L268.402 156.731C268.402 156.731 284.87 237.653 312.319 245.305C339.768 252.956 358.21 252.46 358.21 252.46" stroke="black" stroke-width="0.866667" stroke-miterlimit="10"/>
<path d="M388.557 198.674C392.258 212.244 387.817 228.528 387.817 228.528L321.448 226.801L319.227 249.993C319.227 249.993 382.882 260.602 404.347 254.927C425.812 249.253 416.93 202.375 415.203 179.183C413.476 155.991 368.858 159.938 368.858 159.938C368.858 159.938 345.873 161.172 339.212 169.561C332.55 177.949 315.773 204.596 315.773 204.596L289.373 148.342L268.402 156.731C268.402 156.731 284.87 237.654 312.319 245.305C339.768 252.957 358.21 252.46 358.21 252.46" fill="black"/>
<path d="M415.203 179.183C413.476 155.99 368.858 159.938 368.858 159.938C368.858 159.938 345.873 161.172 339.212 169.56C332.55 177.949 315.773 204.595 315.773 204.595L289.373 148.342L268.402 156.731C268.402 156.731 284.87 237.653 312.319 245.305C339.768 252.956 362.952 253.394 362.952 253.394" fill="black"/>
<path d="M372.512 141.688C370.691 148.019 373.12 155.573 378.14 159.839C377.564 163.778 373.981 167.063 370.007 167.296C366.033 167.528 362.091 164.682 361.06 160.837C361.015 161.016 361.245 160.741 361.2 160.92C361.166 156.736 360.412 152.56 358.982 148.628" fill="white"/>
<path d="M299.709 229.721C295.142 230.201 283.931 233.967 283.13 238.08L283.198 238.267C282.189 238.62 281.187 238.995 280.202 239.412C278.864 239.978 277.328 240.968 277.478 242.413C277.589 243.471 278.655 244.223 279.713 244.344C280.77 244.465 281.818 244.107 282.822 243.755C283.526 243.508 284.231 243.261 284.935 243.013L285.71 245.129H321.042V231.041C321.042 231.041 304.276 229.242 299.709 229.721Z" fill="white"/>
<path d="M344.759 197.045C337.722 205.182 335.982 217.516 340.492 227.283" stroke="black" stroke-width="0.866667" stroke-miterlimit="10"/>
<path d="M398.359 256.597C398.359 340.223 253.536 288.576 253.536 288.576L203.487 360.313H164.164C164.164 360.313 212.782 256.597 235.185 249.014C251.56 243.472 311.219 245.486 311.219 245.486L385.121 256.402" stroke="black" stroke-width="0.866667" stroke-miterlimit="10"/>
<path d="M289.964 298.592L290.12 299.095V299.107C290.109 303.649 291.083 308.136 292.817 312.343L258.03 315.767L237.274 377.441H201.693L211.942 348.204L253.543 288.578" stroke="black" stroke-width="0.866667" stroke-miterlimit="10"/>
<path d="M192.622 360.313C192.622 360.313 189.584 366.177 189.736 371.189C189.888 376.201 190.647 381.972 181.99 382.732C173.333 383.491 148.121 387.592 137.337 380.909C126.554 374.226 139.615 369.67 145.994 369.67C152.373 369.67 169.536 366.784 169.536 366.784L171.966 360.313" stroke="black" stroke-width="0.866667" stroke-miterlimit="10"/>
<path d="M167.483 367.07C168.818 372.567 168.196 379.176 165.858 384.328" stroke="black" stroke-width="0.866667" stroke-miterlimit="10"/>
<path d="M162.183 367.768C162.728 373.305 162.447 378.923 161.353 384.378" stroke="black" stroke-width="0.866667" stroke-miterlimit="10"/>
<path d="M159.119 368.555C159.289 373.996 158.651 379.461 157.232 384.716" stroke="black" stroke-width="0.866667" stroke-miterlimit="10"/>
<path d="M192.606 384.724C192.557 385.478 191.951 386.108 191.247 386.392C190.554 386.689 189.776 386.714 189.022 386.739C186.006 386.825 182.978 386.912 179.962 386.998C168.517 387.332 156.986 387.653 145.664 385.923C142.611 385.453 139.484 384.798 136.938 383.043C134.38 381.3 132.526 378.21 133.082 375.17C133.169 375.17 133.255 375.157 133.341 375.157C132.847 376.789 133.824 378.729 137.334 380.905C148.124 387.591 173.338 383.488 181.989 382.734C183.509 382.598 184.733 382.314 185.734 381.894C185.734 381.894 185.734 381.894 185.747 381.894C186.822 382.66 188.317 382.437 189.64 382.499C191.024 382.549 192.693 383.352 192.606 384.724Z" fill="black"/>
<path d="M229.524 377.444C229.524 377.444 227.851 381.063 228.428 386.044C229.004 391.025 230.251 396.711 221.689 398.203C213.127 399.694 188.354 405.919 177.042 400.175C165.731 394.432 178.359 388.783 184.715 388.242C191.071 387.701 207.927 383.369 207.927 383.369L209.594 377.444" stroke="black" stroke-width="0.866667" stroke-miterlimit="10"/>
<path d="M205.905 383.829C207.702 389.192 207.643 395.83 205.751 401.161" stroke="black" stroke-width="0.866667" stroke-miterlimit="10"/>
<path d="M200.683 384.974C201.696 390.445 201.893 396.066 201.265 401.595" stroke="black" stroke-width="0.866667" stroke-miterlimit="10"/>
<path d="M197.697 386.018C198.328 391.425 198.156 396.924 197.188 402.281" stroke="black" stroke-width="0.866667" stroke-miterlimit="10"/>
<path d="M232.436 399.287C232.451 400.043 231.901 400.722 231.223 401.065C230.558 401.419 229.784 401.51 229.035 401.599C226.038 401.941 223.028 402.284 220.03 402.626C208.655 403.93 197.192 405.228 185.765 404.465C182.683 404.256 179.512 403.868 176.826 402.336C174.129 400.816 172.019 397.895 172.315 394.818C172.402 394.811 172.487 394.791 172.573 394.784C172.219 396.451 173.356 398.302 177.039 400.171C188.357 405.918 213.131 399.691 221.688 398.205C223.191 397.941 224.386 397.554 225.348 397.05C225.348 397.05 225.348 397.05 225.361 397.049C226.497 397.721 227.968 397.373 229.291 397.322C230.675 397.254 232.405 397.913 232.436 399.287Z" fill="black"/>
<path d="M410.041 226.903C419.941 232.353 424.407 245.906 419.686 256.173C417.429 261.08 413.489 265.041 411.082 269.874C407.749 276.564 407.603 284.361 405.413 291.507C402.125 302.242 394.179 311.218 384.534 316.966C374.889 322.713 363.647 325.412 352.438 326.058C343.429 326.578 334.158 325.769 325.923 322.079C317.687 318.388 310.327 310.608 307.85 301.93" stroke="black" stroke-width="0.866667" stroke-miterlimit="10"/>
<path d="M394.835 394.759C394.835 399.975 377.124 404.214 355.259 404.214C333.395 404.214 315.671 399.975 315.671 394.759C315.671 389.889 331.047 385.885 350.81 385.353V386.997C342.937 387.467 337.115 389.185 337.115 391.212C337.115 393.597 345.236 395.538 355.259 395.538C365.283 395.538 373.391 393.597 373.391 391.212C373.391 389.296 368.225 387.665 361.044 387.084V385.39C380.164 386.058 394.835 390 394.835 394.759Z" stroke="black" stroke-width="0.866667" stroke-miterlimit="10"/>
<path d="M373.391 391.212C373.391 393.597 365.283 395.538 355.259 395.538C345.236 395.538 337.115 393.597 337.115 391.212C337.115 389.185 342.937 387.467 350.81 386.997V344.926H361.044V387.084C368.224 387.664 373.391 389.296 373.391 391.212Z" stroke="black" stroke-width="0.866667" stroke-miterlimit="10"/>
<path d="M373.391 391.212C373.391 393.597 365.283 395.538 355.259 395.538C345.236 395.538 337.115 393.597 337.115 391.212C337.115 389.185 342.937 387.467 350.81 386.997V344.926H361.044V387.084C368.224 387.664 373.391 389.296 373.391 391.212Z" fill="black"/>
<path d="M75.405 77.918C75.405 90.8782 64.8979 101.386 51.9471 101.386C38.9869 101.386 28.4795 90.8782 28.4795 77.918C28.4795 64.9674 38.9869 54.4602 51.9471 54.4602C64.8978 54.4602 75.405 64.9674 75.405 77.918Z" fill="black"/>
<path d="M70.4011 77.9189C70.4011 88.1152 62.1348 96.3816 51.9461 96.3816C41.7499 96.3816 33.4834 88.1152 33.4834 77.9189C33.4834 67.7302 41.7499 59.4639 51.9461 59.4639C62.1349 59.4639 70.4011 67.7302 70.4011 77.9189Z" fill="white"/>
<path d="M75.405 77.918C75.405 90.8782 64.8979 101.386 51.9471 101.386C38.9869 101.386 28.4795 90.8782 28.4795 77.918C28.4795 64.9674 38.9869 54.4602 51.9471 54.4602C64.8978 54.4602 75.405 64.9674 75.405 77.918Z" stroke="black" stroke-width="0.866667" stroke-miterlimit="10"/>
<path d="M47.1039 81.7806V87.3147H46.1962V84.894H43.5924V87.3147H42.6846V81.7806H43.5924V84.1535H46.1962V81.7806H47.1039ZM50.202 87.3864C49.788 87.3864 49.4137 87.2935 49.0793 87.1077C48.7449 86.9166 48.4821 86.6511 48.291 86.3114C48.0999 85.9663 48.0043 85.5682 48.0043 85.117C48.0043 84.6711 48.1025 84.2756 48.2989 83.9305C48.4954 83.5855 48.7634 83.3201 49.1032 83.1343C49.4429 82.9485 49.8225 82.8556 50.2418 82.8556C50.6612 82.8556 51.0408 82.9485 51.3805 83.1343C51.7203 83.3201 51.9883 83.5855 52.1847 83.9305C52.3812 84.2756 52.4794 84.6711 52.4794 85.117C52.4794 85.5629 52.3785 85.9584 52.1768 86.3034C51.9751 86.6485 51.699 86.9166 51.3487 87.1077C51.0036 87.2935 50.6214 87.3864 50.202 87.3864ZM50.202 86.5981C50.4356 86.5981 50.6533 86.5423 50.855 86.4308C51.062 86.3194 51.2292 86.1521 51.3566 85.9292C51.484 85.7062 51.5477 85.4355 51.5477 85.117C51.5477 84.7985 51.4867 84.5304 51.3646 84.3128C51.2425 84.0898 51.0806 83.9226 50.8789 83.8111C50.6771 83.6996 50.4595 83.6439 50.2259 83.6439C49.9923 83.6439 49.7747 83.6996 49.573 83.8111C49.3766 83.9226 49.22 84.0898 49.1032 84.3128C48.9864 84.5304 48.928 84.7985 48.928 85.117C48.928 85.5894 49.0474 85.9557 49.2863 86.2158C49.5305 86.4706 49.8357 86.5981 50.202 86.5981ZM57.3501 82.9272V87.3147H56.4424V86.7971C56.299 86.9776 56.1106 87.1209 55.877 87.2271C55.6488 87.328 55.4046 87.3784 55.1445 87.3784C54.7994 87.3784 54.4889 87.3067 54.2128 87.1634C53.9421 87.0201 53.7271 86.8077 53.5678 86.5264C53.4139 86.245 53.3369 85.9053 53.3369 85.5072V82.9272H54.2367V85.3718C54.2367 85.7646 54.3349 86.0672 54.5313 86.2795C54.7277 86.4866 54.9958 86.5901 55.3356 86.5901C55.6753 86.5901 55.9434 86.4866 56.1398 86.2795C56.3415 86.0672 56.4424 85.7646 56.4424 85.3718V82.9272H57.3501ZM59.4556 83.5643C59.5883 83.3413 59.7635 83.1688 59.9811 83.0467C60.2041 82.9193 60.4668 82.8556 60.7694 82.8556V83.7952H60.5385C60.1828 83.7952 59.9121 83.8854 59.7263 84.0659C59.5458 84.2464 59.4556 84.5596 59.4556 85.0055V87.3147H58.5478V82.9272H59.4556V83.5643ZM63.1964 87.3864C62.8513 87.3864 62.5408 87.3253 62.2647 87.2032C61.994 87.0758 61.779 86.9059 61.6198 86.6936C61.4605 86.476 61.3756 86.2344 61.365 85.969H62.3046C62.3205 86.1548 62.4081 86.3114 62.5673 86.4388C62.7319 86.5609 62.9363 86.6219 63.1805 86.6219C63.4353 86.6219 63.6317 86.5742 63.7697 86.4786C63.913 86.3778 63.9847 86.2503 63.9847 86.0964C63.9847 85.9318 63.9051 85.8097 63.7458 85.7301C63.5919 85.6505 63.345 85.5629 63.0053 85.4673C62.6761 85.3771 62.4081 85.2895 62.201 85.2046C61.994 85.1196 61.8135 84.9896 61.6596 84.8144C61.5109 84.6392 61.4366 84.4083 61.4366 84.1216C61.4366 83.8881 61.5056 83.6757 61.6436 83.4846C61.7817 83.2882 61.9781 83.1343 62.2329 83.0228C62.493 82.9113 62.7903 82.8556 63.1247 82.8556C63.6237 82.8556 64.0245 82.983 64.3271 83.2378C64.635 83.4873 64.7995 83.8297 64.8208 84.265H63.913C63.8971 84.0686 63.8175 83.912 63.6741 83.7952C63.5308 83.6784 63.3371 83.62 63.0929 83.62C62.854 83.62 62.6708 83.6651 62.5434 83.7554C62.416 83.8456 62.3523 83.965 62.3523 84.1137C62.3523 84.2305 62.3948 84.3287 62.4797 84.4083C62.5647 84.4879 62.6682 84.5516 62.7903 84.5994C62.9124 84.6419 63.0929 84.6976 63.3317 84.7666C63.6503 84.8516 63.9104 84.9392 64.1121 85.0294C64.3191 85.1143 64.497 85.2417 64.6456 85.4116C64.7942 85.5815 64.8712 85.8071 64.8765 86.0884C64.8765 86.3379 64.8075 86.5609 64.6695 86.7573C64.5315 86.9537 64.335 87.1077 64.0802 87.2191C63.8307 87.3306 63.5361 87.3864 63.1964 87.3864Z" fill="black"/>
<path d="M45.6543 78.0771C46.6861 77.1851 47.4975 76.4542 48.0886 75.8846C48.6905 75.3042 49.1903 74.7024 49.5879 74.079C49.9856 73.4557 50.1844 72.8323 50.1844 72.2089C50.1844 71.5641 50.0286 71.059 49.7169 70.6935C49.416 70.3281 48.9377 70.1454 48.2821 70.1454C47.648 70.1454 47.1536 70.3496 46.7989 70.758C46.455 71.1557 46.2723 71.6931 46.2508 72.3702H44.4775C44.5097 71.1449 44.8751 70.2099 45.5737 69.565C46.283 68.9094 47.1805 68.5816 48.266 68.5816C49.4375 68.5816 50.351 68.9041 51.0066 69.5489C51.6729 70.1938 52.0061 71.0536 52.0061 72.1283C52.0061 72.9022 51.8073 73.6491 51.4096 74.3692C51.0227 75.0785 50.5552 75.718 50.0071 76.2877C49.4697 76.8465 48.7819 77.4968 47.9435 78.2383L47.2181 78.8832H52.3285V80.4147H44.4936V79.0766L45.6543 78.0771ZM53.7174 78.1255V76.739L59.1341 68.9686H61.3589V76.5295H62.8582V78.1255H61.3589V80.5759H59.5533V78.1255H53.7174ZM59.6339 70.8386L55.8293 76.5295H59.6339V70.8386Z" fill="black"/>
<path d="M283.13 238.08C283.931 233.967 295.142 230.201 299.709 229.721C304.276 229.242 321.042 231.041 321.042 231.041V245.129H285.709L283.13 238.08Z" stroke="black" stroke-width="0.866667" stroke-miterlimit="10"/>
<path d="M295.562 235.633C290.285 236.069 285.079 237.35 280.202 239.412C278.864 239.978 277.328 240.968 277.478 242.413C277.589 243.471 278.655 244.223 279.713 244.344C280.77 244.465 281.818 244.107 282.822 243.755C288.197 241.869 293.573 239.983 298.948 238.097" fill="white"/>
<path d="M295.562 235.633C290.285 236.069 285.079 237.35 280.202 239.412C278.864 239.978 277.328 240.968 277.478 242.413C277.589 243.471 278.655 244.223 279.713 244.344C280.77 244.465 281.818 244.107 282.822 243.755C288.197 241.869 293.573 239.983 298.948 238.097" stroke="black" stroke-width="0.866667" stroke-miterlimit="10"/>
<path d="M289.572 244.927C293.193 242.398 297.687 241.144 302.094 241.435C301.96 241.428 301.826 241.42 301.692 241.413" stroke="black" stroke-width="0.866667" stroke-miterlimit="10"/>
<path d="M349.562 128.007C346.069 125.42 345.391 121.741 346.213 117.473C347.034 113.204 349.998 109.512 353.743 107.305C359.096 104.15 366.014 103.957 371.653 106.568C377.291 109.178 381.566 114.45 383.221 120.439C384.282 124.278 384.31 128.413 383.186 132.234C382.432 134.801 381.131 137.26 379.138 139.044C377.145 140.829 375.159 142.078 372.512 141.688" fill="black"/>
<path d="M369.506 105.729C368.171 101.831 367.294 98.7706 369.047 95.0417C370.311 92.3547 373.065 90.5265 375.991 90.0205C380.01 89.3256 384.354 91.0913 386.748 94.3932C389.143 97.695 389.472 102.373 387.562 105.977C385.653 109.581 382.649 111.942 378.572 111.816" fill="black"/>
<path d="M349.562 128.006C351.07 129.132 351.201 131.292 351.343 133.169C351.569 136.143 352.163 139.089 353.108 141.918C353.928 144.374 355.122 146.874 357.294 148.284C359.927 149.994 363.506 149.68 366.263 148.177C369.019 146.674 370.77 144.3 372.512 141.688C373.93 140.932 375.21 139.828 375.908 138.381C376.606 136.934 376.644 135.117 375.763 133.773C375.198 132.911 374.316 132.303 373.691 131.482C373.065 130.661 373.096 129.413 373.772 128.633C370.119 129.384 366.233 128 363.435 125.534C360.638 123.068 359.015 119.515 357.932 115.947C357.447 118.505 355.721 120.797 353.396 121.971C351.072 123.144 348.202 123.171 345.856 122.043C346.27 124.392 347.485 126.389 349.562 128.006Z" fill="white"/>
<path d="M372.512 141.688C370.691 148.019 373.12 155.573 378.14 159.839C377.564 163.778 373.981 167.064 370.007 167.296C366.033 167.528 362.091 164.682 361.06 160.837C361.015 161.016 361.245 160.741 361.2 160.92C361.166 156.736 360.412 152.56 358.982 148.628" stroke="black" stroke-width="0.866667" stroke-miterlimit="10"/>
<path d="M369.506 105.729C368.171 101.831 367.294 98.7706 369.047 95.0417C370.311 92.3547 373.065 90.5265 375.991 90.0205C380.01 89.3256 384.354 91.0913 386.748 94.3932C389.143 97.695 389.472 102.373 387.562 105.977C385.653 109.581 382.649 111.942 378.572 111.816" stroke="black" stroke-width="0.866667" stroke-miterlimit="10"/>
<path d="M349.562 128.007C346.069 125.42 345.391 121.741 346.213 117.473C347.034 113.204 349.998 109.512 353.743 107.305C359.096 104.15 366.014 103.957 371.653 106.568C377.291 109.178 381.566 114.45 383.221 120.439C384.282 124.278 384.31 128.413 383.186 132.234C382.432 134.801 381.131 137.26 379.138 139.044C377.145 140.829 375.159 142.078 372.512 141.688" stroke="black" stroke-width="0.866667" stroke-miterlimit="10"/>
<path d="M369.58 135.536C370.482 133.888 372.341 132.811 374.219 132.85C374.628 132.858 375.127 132.992 375.217 133.391" stroke="black" stroke-width="0.866667" stroke-miterlimit="10"/>
<path d="M370.007 139.401C370.698 139.863 371.416 140.313 372.221 140.522C373.025 140.732 373.94 140.668 374.604 140.169" stroke="black" stroke-width="0.866667" stroke-miterlimit="10"/>
<path d="M356.344 142.475C357.414 143.042 358.684 143.223 359.87 142.976C361.055 142.729 362.148 142.057 362.903 141.109C363.331 141.826 363.583 142.784 363.574 143.619C363.564 144.453 363.241 145.301 362.616 145.854C361.541 146.806 359.803 146.671 358.618 145.86C357.433 145.049 356.842 143.822 356.344 142.475Z" fill="black"/>
<path d="M357.407 136.025C357.822 136.418 357.605 137.135 357.217 137.554C356.83 137.973 356.299 138.271 356.022 138.769C355.61 139.51 355.948 140.537 356.674 140.974C357.4 141.411 358.392 141.276 359.047 140.738" stroke="black" stroke-width="0.866667" stroke-miterlimit="10"/>
<path d="M363.131 134.441C363.131 135.319 362.426 136.023 361.549 136.023C360.671 136.023 359.955 135.319 359.955 134.441C359.955 133.564 360.671 132.847 361.549 132.847C362.426 132.847 363.131 133.564 363.131 134.441Z" fill="black"/>
<path d="M360.461 128.727C361.381 129.538 362.438 130.194 363.574 130.657" stroke="black" stroke-width="0.866667" stroke-miterlimit="10"/>
<path d="M353.168 132.61C353.168 133.488 353.873 134.193 354.75 134.193C355.627 134.193 356.344 133.488 356.344 132.61C356.344 131.733 355.627 131.016 354.75 131.016C353.873 131.016 353.168 131.733 353.168 132.61Z" fill="black"/>
<path d="M355.838 126.896C354.918 127.707 353.86 128.363 352.725 128.827" stroke="black" stroke-width="0.866667" stroke-miterlimit="10"/>
<path d="M349.562 128.006C351.07 129.132 351.201 131.292 351.343 133.169C351.569 136.143 352.163 139.089 353.108 141.918C353.928 144.374 355.122 146.874 357.294 148.284C359.927 149.994 363.506 149.68 366.263 148.177C369.019 146.674 370.77 144.3 372.512 141.688C373.93 140.932 375.21 139.828 375.908 138.381C376.607 136.934 376.644 135.117 375.763 133.773C375.198 132.911 374.316 132.303 373.691 131.482C373.065 130.661 373.096 129.413 373.772 128.633C370.119 129.384 366.233 128 363.435 125.534C360.638 123.068 359.015 119.515 357.932 115.947C357.447 118.505 355.721 120.797 353.397 121.971C351.072 123.144 348.353 123.24 346.006 122.111C346.469 124.53 347.523 126.467 349.562 128.006Z" stroke="black" stroke-width="0.866667" stroke-miterlimit="10" stroke-linecap="round" stroke-linejoin="round"/>
<path d="M287.226 149.207L271.606 155.45C271.606 155.45 270.375 151.747 263.796 149.207C257.217 146.656 253.569 142.986 258.918 141.688C264.132 140.423 272.3 142.919 272.714 143.042C272.423 142.762 263.035 133.587 254.867 132.602C246.565 131.618 245.312 127.97 250.481 126.896C252.954 126.381 258.146 126.582 263.662 127.657C254.106 121.033 255.058 116.098 258.157 115.942C261.29 115.796 270.689 123.629 276.171 129.693C277.346 131.002 278.532 132.647 279.662 134.426L279.673 134.437C283.802 140.927 287.226 149.207 287.226 149.207Z" fill="white"/>
<path d="M287.222 149.203C287.222 149.203 281.66 135.761 276.175 129.692C270.691 123.623 261.289 115.791 258.156 115.947C255.022 116.102 254.082 121.131 263.953 127.861" stroke="black" stroke-width="0.866667" stroke-miterlimit="10"/>
<path d="M271.61 155.448C271.61 155.448 270.377 151.75 263.796 149.203C257.215 146.657 253.573 142.987 258.92 141.688C264.266 140.389 272.728 143.053 272.728 143.053C272.728 143.053 263.169 133.594 254.865 132.604C246.56 131.615 245.306 127.975 250.477 126.896C255.648 125.817 272.667 127.854 279.67 134.435" stroke="black" stroke-width="0.866667" stroke-miterlimit="10"/>
<path d="M75.9985 323.692C75.9985 340.541 62.3318 354.207 45.5144 354.207C28.665 354.207 14.999 340.541 14.999 323.692C14.999 306.874 28.665 293.208 45.5144 293.208C62.3318 293.208 75.9985 306.874 75.9985 323.692Z" fill="white"/>
<path d="M75.9985 323.692C75.9985 340.541 62.3318 354.207 45.5144 354.207C28.665 354.207 14.999 340.541 14.999 323.692C14.999 306.874 28.665 293.208 45.5144 293.208C62.3318 293.208 75.9985 306.874 75.9985 323.692Z" stroke="black" stroke-width="0.866667" stroke-miterlimit="10" stroke-linejoin="round"/>
<path d="M59.3403 317.496C59.3403 325.142 45.5059 343.754 45.5059 343.754C45.5059 343.754 31.6572 325.142 31.6572 317.496C31.6572 309.863 37.8592 303.661 45.5059 303.661C53.138 303.661 59.3403 309.863 59.3403 317.496Z" stroke="black" stroke-width="0.866667" stroke-miterlimit="10" stroke-linejoin="round"/>
<path d="M51.9427 317.5C51.9427 321.059 49.0553 323.946 45.5024 323.946C41.9428 323.946 39.0557 321.059 39.0557 317.5C39.0557 313.947 41.9428 311.059 45.5024 311.059C49.0553 311.059 51.9427 313.947 51.9427 317.5Z" stroke="black" stroke-width="0.866667" stroke-miterlimit="10" stroke-linejoin="round"/>
<path d="M45.5007 303.656C37.8556 303.656 31.6558 309.856 31.6558 317.501C31.6558 325.146 45.5007 343.76 45.5007 343.76C45.5007 343.76 59.3452 325.146 59.3452 317.501C59.3452 309.856 53.1312 303.656 45.5007 303.656ZM45.5007 323.94C41.9377 323.94 39.0621 321.064 39.0621 317.501C39.0621 313.952 41.9377 311.063 45.5007 311.063C49.0492 311.063 51.9389 313.952 51.9389 317.501C51.9389 321.064 49.0491 323.94 45.5007 323.94Z" fill="black"/>
<path d="M334.895 57.9605C334.895 65.1045 332.437 71.6679 328.291 76.8538C322.74 83.8357 314.178 88.3058 304.563 88.3058C295.028 88.3058 286.534 83.9167 280.97 77.0429C276.756 71.83 274.217 65.1991 274.217 57.9606C274.217 41.2011 287.803 27.6152 304.563 27.6152C321.309 27.6151 334.895 41.201 334.895 57.9605Z" fill="black"/>
<path d="M328.291 76.854C322.74 83.8359 314.178 88.306 304.563 88.306C295.028 88.306 286.534 83.917 280.97 77.0431C283.657 71.074 288.559 66.3068 294.623 63.7814C291.774 61.2019 289.923 57.5421 289.707 53.4502V53.4367C287.925 53.2206 286.534 51.6811 286.534 49.8174C286.534 48.8045 286.979 47.8727 287.641 47.1974C288.303 46.5357 289.235 46.1035 290.248 46.1035H291.112V46.3061C293.516 41.2148 298.688 37.7036 304.671 37.7036C310.653 37.7036 315.826 41.2148 318.23 46.3061V46.1035H319.094C321.12 46.1035 322.808 47.7647 322.808 49.8174C322.808 50.8302 322.362 51.7621 321.7 52.4238C321.16 52.964 320.444 53.3556 319.634 53.4502C319.418 57.5421 317.568 61.2019 314.718 63.7814C320.714 66.2796 325.576 70.9794 328.291 76.854Z" fill="white"/>
<path d="M315.255 63.2675C321.102 57.4197 321.102 47.9387 315.255 42.0909C309.407 36.2431 299.926 36.2431 294.078 42.0909C288.23 47.9386 288.23 57.4197 294.078 63.2675C299.926 69.1153 309.407 69.1152 315.255 63.2675Z" stroke="black" stroke-width="0.866667" stroke-miterlimit="10"/>
<path d="M328.291 76.854C322.74 83.8359 314.178 88.306 304.563 88.306C295.028 88.306 286.534 83.9169 280.97 77.0431C283.657 71.074 288.559 66.3067 294.623 63.7813L294.637 63.7678C295.298 64.3755 296.014 64.9157 296.77 65.3884C296.96 65.5099 297.148 65.618 297.338 65.7261C297.54 65.8476 297.743 65.9556 297.945 66.0502C298.148 66.1583 298.35 66.2528 298.567 66.3474C298.769 66.4418 298.972 66.5364 299.188 66.6174C300.201 67.0227 301.268 67.3061 302.388 67.4817C302.631 67.5223 302.888 67.5492 303.145 67.5763C303.644 67.6303 304.158 67.6573 304.671 67.6573C305.184 67.6573 305.697 67.6303 306.197 67.5763C306.453 67.5492 306.71 67.5223 306.953 67.4817C308.074 67.3061 309.141 67.0227 310.154 66.6174C310.37 66.5364 310.572 66.4418 310.775 66.3474C310.991 66.2528 311.194 66.1583 311.396 66.0502C311.599 65.9556 311.801 65.8476 312.004 65.7261C312.193 65.618 312.382 65.5099 312.571 65.3884C313.327 64.9157 314.043 64.3755 314.705 63.7678L314.718 63.7813C320.714 66.2796 325.576 70.9793 328.291 76.854Z" stroke="black" stroke-width="0.866667" stroke-miterlimit="10"/>
<path d="M322.803 49.8119C322.803 50.8262 322.368 51.7576 321.706 52.42C321.147 52.9789 320.422 53.3722 319.595 53.455C319.636 53.2066 319.636 52.9375 319.636 52.6684C319.636 50.4123 319.139 48.2803 318.229 46.376V46.1069H319.098C321.126 46.1069 322.803 47.7628 322.803 49.8119Z" stroke="black" stroke-width="0.866667" stroke-miterlimit="10"/>
<path d="M291.113 46.3763C290.202 48.2805 289.706 50.4125 289.706 52.6686C289.706 52.9377 289.706 53.2068 289.747 53.4552C287.946 53.2482 286.539 51.6959 286.539 49.8122C286.539 48.798 286.973 47.8665 287.636 47.2041C288.298 46.5419 289.23 46.1072 290.244 46.1072H291.113V46.3763Z" stroke="black" stroke-width="0.866667" stroke-miterlimit="10"/>
<path d="M319.594 53.4553L309.423 58.4527" stroke="black" stroke-width="0.866667" stroke-miterlimit="10"/>
<path d="M309.599 58.7381C310.041 59.568 309.507 60.7089 308.396 61.3013C307.284 61.8937 306.025 61.7085 305.582 60.8786C305.14 60.0487 305.689 58.9 306.8 58.3076C307.912 57.7153 309.156 57.9083 309.599 58.7381Z" stroke="black" stroke-width="0.866667" stroke-miterlimit="10"/>
<path d="M289.988 49.7812C289.988 49.7812 293.906 52.457 303.075 46.1072C303.075 46.1072 308.963 52.3389 319.46 50.3409" stroke="black" stroke-width="0.866667" stroke-miterlimit="10"/>
<path d="M334.895 57.9605C334.895 65.1045 332.437 71.6679 328.291 76.8538C322.74 83.8357 314.178 88.3058 304.563 88.3058C295.028 88.3058 286.534 83.9167 280.97 77.0429C276.756 71.83 274.217 65.1991 274.217 57.9606C274.217 41.2011 287.803 27.6152 304.563 27.6152C321.309 27.6151 334.895 41.201 334.895 57.9605Z" stroke="black" stroke-width="0.866667" stroke-miterlimit="10"/>
</svg>
