<svg width="521" height="516" viewBox="0 0 521 516" fill="none" xmlns="http://www.w3.org/2000/svg">
<path d="M217.354 438.581H482.865C490.169 438.581 496.089 432.685 496.089 425.411L496.073 56.9638C495.881 47.0951 491.108 41.4844 482.864 41.4844H217.347C214.339 41.4844 211.534 42.4864 209.277 44.1962C205.952 46.7151 204.139 50.7331 204.139 54.8782L204.13 425.412C204.13 432.685 210.05 438.581 217.354 438.581Z" fill="white"/>
<path d="M291.707 72.7851H415.201C418.392 72.7851 420.98 70.1978 420.98 67.0062V38.1541C420.98 34.9626 418.392 32.3752 415.201 32.3752H291.707C288.516 32.3752 285.928 34.9626 285.928 38.1541V67.0062C285.929 70.1978 288.516 72.7851 291.707 72.7851Z" fill="white"/>
<path d="M415.201 73.4108H291.708C288.177 73.4108 285.303 70.5376 285.303 67.0066V38.1542C285.303 34.6232 288.177 31.75 291.708 31.75H415.201C418.732 31.75 421.605 34.6232 421.605 38.1542V67.0066C421.605 70.5376 418.732 73.4108 415.201 73.4108ZM291.708 33.001C288.866 33.001 286.554 35.3128 286.554 38.1542V67.0066C286.554 69.848 288.866 72.1598 291.708 72.1598H415.201C418.043 72.1598 420.354 69.848 420.354 67.0066V38.1542C420.354 35.3128 418.043 33.001 415.201 33.001H291.708Z" fill="black"/>
<path d="M352.973 0.625732C340.203 0.625732 329.902 11.0395 329.902 23.8857V58.7471C329.902 61.8809 332.427 64.4212 335.542 64.4212H370.405C373.52 64.4212 376.045 61.8809 376.045 58.7471V23.8857C376.045 11.0395 365.743 0.625732 352.973 0.625732ZM354.263 32.484C348.119 33.2632 342.951 28.0646 343.726 21.8835C344.254 17.6722 347.635 14.2714 351.821 13.7409C357.966 12.9623 363.132 18.1601 362.358 24.3409C361.83 28.5525 358.45 31.9533 354.263 32.484Z" fill="white"/>
<path d="M370.405 65.0467H335.543C332.087 65.0467 329.276 62.2205 329.276 58.747V23.8853C329.276 10.7146 339.907 0 352.974 0C366.04 0 376.671 10.7146 376.671 23.8853V58.7467C376.671 62.2205 373.86 65.0467 370.405 65.0467ZM352.973 1.25099C340.597 1.25099 330.527 11.4051 330.527 23.8853V58.7467C330.527 61.5307 332.777 63.7957 335.542 63.7957H370.404C373.17 63.7957 375.419 61.531 375.419 58.7467V23.8853C375.42 11.4048 365.35 1.25099 352.973 1.25099ZM353.047 33.1867C350.399 33.1867 347.879 32.1552 345.983 30.2611C343.759 28.0403 342.711 24.9589 343.106 21.8059C343.666 17.3361 347.299 13.6839 351.743 13.1208C354.85 12.7262 357.897 13.7628 360.101 15.9637C362.325 18.1839 363.374 21.2659 362.979 24.4189C362.419 28.8887 358.786 32.5414 354.342 33.1051C353.908 33.1597 353.476 33.1867 353.047 33.1867ZM353.035 14.2896C352.659 14.2896 352.28 14.3135 351.9 14.3617C348.014 14.8541 344.837 18.0496 344.347 21.9606C344 24.7276 344.919 27.4304 346.866 29.3758C348.795 31.3017 351.465 32.2098 354.185 31.8636C358.071 31.3707 361.248 28.1744 361.738 24.2634C362.084 21.4963 361.165 18.7935 359.217 16.8487C357.558 15.1918 355.352 14.2896 353.035 14.2896Z" fill="black"/>
<path d="M463.772 141.14C463.772 142.249 462.539 144.837 460.568 144.837C458.596 144.837 447.875 144.837 445.903 144.837C443.931 144.837 441.959 143.482 439.187 143.482C436.414 143.482 376.77 143.482 371.902 143.482C367.034 143.482 359.764 143.482 358.008 143.482C356.252 143.482 352.062 142.373 350.213 141.14C348.364 139.908 348.18 139.6 348.18 138.799C348.18 137.998 348.18 134.671 348.18 133.931C348.18 133.192 350.398 132.391 350.398 131.097C350.398 129.803 350.398 125.798 350.398 123.95C350.398 122.101 367.035 110.271 372.333 108.977C377.632 107.683 400.862 107.56 407.085 108.114C413.308 108.669 426.679 115.262 435.12 121.485C444.178 121.485 453.913 123.76 458.164 126.32C462.416 128.879 463.772 133.254 463.772 135.102C463.772 136.951 463.772 141.14 463.772 141.14Z" fill="white"/>
<path d="M378.796 144.108H358.007C357.614 144.108 357.107 144.057 356.5 143.956C356.238 143.913 356.031 143.707 355.986 143.445C355.87 142.769 355.811 142.087 355.811 141.417C355.811 134.855 361.149 129.517 367.712 129.517C374.274 129.517 379.613 134.855 379.613 141.417C379.613 142.138 379.545 142.871 379.411 143.595C379.356 143.892 379.098 144.108 378.796 144.108ZM357.152 142.789C357.49 142.833 357.781 142.857 358.007 142.857H378.263C378.329 142.375 378.362 141.893 378.362 141.417C378.362 135.545 373.585 130.768 367.712 130.768C361.84 130.768 357.062 135.545 357.062 141.417C357.062 141.87 357.092 142.33 357.152 142.789Z" fill="black"/>
<path d="M451.289 145.463H445.903C444.904 145.463 443.947 145.162 442.932 144.842C441.783 144.481 440.595 144.107 439.187 144.107H429.459C429.157 144.107 428.899 143.892 428.844 143.595C428.709 142.871 428.641 142.138 428.641 141.417C428.641 134.855 433.98 129.517 440.543 129.517C447.105 129.517 452.444 134.855 452.444 141.417C452.444 142.646 452.255 143.861 451.885 145.027C451.803 145.286 451.561 145.463 451.289 145.463ZM429.991 142.857H439.186C440.787 142.857 442.126 143.277 443.308 143.65C444.267 143.951 445.097 144.212 445.903 144.212H450.821C451.068 143.303 451.192 142.365 451.192 141.418C451.192 135.546 446.414 130.768 440.542 130.768C434.669 130.768 429.892 135.546 429.892 141.418C429.892 141.893 429.925 142.375 429.991 142.857Z" fill="black"/>
<path d="M456.84 128.767C457.467 128.939 458.016 129.321 458.395 129.85C458.687 130.257 458.994 130.726 459.097 131.035C459.312 131.682 459.097 132.422 458.203 132.422C457.31 132.422 453.797 132.422 452.966 132.422C452.134 132.422 450.594 131.159 449.731 130.142C448.868 129.126 447.574 127.462 447.944 127.246C448.289 127.045 452.475 127.568 456.84 128.767Z" fill="black"/>
<path d="M457.852 139.384C458.161 138.772 458.907 138.275 459.52 138.275H463.772C463.772 139.784 463.772 141.14 463.772 141.14C463.772 141.446 463.674 141.866 463.497 142.311H457.487C456.874 142.311 456.628 141.815 456.936 141.202L457.852 139.384Z" fill="black"/>
<path d="M425.668 121.024C426.207 121.445 426.808 122.595 425.668 122.657C424.528 122.718 402.346 121.856 401.298 121.84C400.251 121.825 399.943 121.208 399.758 120.5C399.573 119.792 398.279 113.322 398.218 112.767C398.156 112.213 398.156 111.689 399.111 111.689C400.066 111.689 407.429 111.966 411.557 113.291C415.686 114.616 421.17 117.512 425.668 121.024Z" fill="black"/>
<path d="M395.476 112.829C395.476 112.829 395.753 120.161 395.753 120.531C395.753 120.9 395.568 121.517 394.86 121.517C394.151 121.517 371.723 120.993 370.798 120.962C369.874 120.931 369.443 120.623 369.597 119.976C369.751 119.329 374.773 113.229 378.901 112.151C383.029 111.073 393.782 111.689 394.305 111.689C394.829 111.689 395.441 111.909 395.476 112.829Z" fill="black"/>
<path d="M366.856 111.624C368.157 111.997 369.748 114.326 368.379 115.104C367.359 115.683 364.097 118.431 362.803 119.632C361.509 120.834 360.646 121.204 359.722 121.204C359.172 121.204 355.064 121.204 353.348 121.204C356.478 118.66 362.769 114.041 366.856 111.624Z" fill="black"/>
<path d="M350.398 131.097C350.398 129.92 350.398 126.504 350.398 124.504C351.703 124.504 355.049 124.504 355.666 124.504C356.436 124.504 356.837 124.796 356.436 125.898C356.036 126.999 354.064 129.957 353.509 130.388C352.955 130.82 352.462 131.159 351.753 131.159C351.44 131.159 350.898 131.159 350.391 131.159C350.393 131.138 350.398 131.118 350.398 131.097Z" fill="black"/>
<path d="M445.902 145.463C444.905 145.463 443.941 145.16 442.932 144.842C441.783 144.481 440.594 144.107 439.187 144.107H358.007C356.055 144.107 351.756 142.921 349.866 141.661C348.019 140.428 347.554 139.963 347.554 138.799V133.931C347.554 133.313 348.095 132.879 348.668 132.419C349.16 132.025 349.773 131.534 349.773 131.097V123.949C349.773 121.352 367.501 109.513 372.185 108.369C377.508 107.07 400.823 106.929 407.14 107.491C412.309 107.952 421.567 112.274 428.447 116.355C432.938 119.018 437.88 120.713 443.136 121.394C449.469 122.215 455.351 123.897 458.487 125.784C462.793 128.376 464.397 132.875 464.397 135.102V141.14C464.397 142.15 463.677 143.814 462.514 144.741C461.741 145.357 460.861 145.584 459.97 145.402L446.681 145.397C446.419 145.443 446.159 145.463 445.902 145.463ZM348.805 133.981V138.799C348.805 139.286 348.805 139.45 350.56 140.62C352.224 141.73 356.295 142.857 358.007 142.857H439.187C440.787 142.857 442.126 143.277 443.308 143.65C444.492 144.022 445.516 144.343 446.511 144.157C446.549 144.15 446.588 144.147 446.626 144.147L460.037 144.151C460.084 144.151 460.131 144.156 460.176 144.167C460.72 144.29 461.243 144.155 461.735 143.763C462.61 143.066 463.147 141.766 463.147 141.14V135.102C463.147 133.453 461.85 129.268 457.842 126.855C454.845 125.052 449.148 123.434 442.976 122.635C437.55 121.932 432.447 120.181 427.81 117.431C419.687 112.615 411.336 109.121 407.029 108.737C400.769 108.179 377.716 108.306 372.482 109.584C367.269 110.858 351.532 122.197 351.018 124.002L351.024 131.098C351.024 132.134 350.152 132.834 349.451 133.396C349.224 133.577 348.888 133.847 348.805 133.981Z" fill="black"/>
<path d="M442.108 150.99C447.398 150.132 450.991 145.147 450.132 139.856C449.274 134.566 444.289 130.973 438.999 131.832C433.708 132.69 430.115 137.675 430.974 142.966C431.832 148.256 436.817 151.849 442.108 150.99Z" fill="black"/>
<path d="M446.9 144.038C448.351 140.534 446.687 136.518 443.184 135.066C439.68 133.615 435.663 135.279 434.212 138.783C432.76 142.286 434.424 146.303 437.928 147.754C441.432 149.206 445.448 147.542 446.9 144.038Z" fill="white"/>
<path d="M369.931 150.829C375.147 149.597 378.377 144.37 377.145 139.154C375.913 133.938 370.687 130.708 365.471 131.94C360.255 133.171 357.025 138.398 358.256 143.614C359.488 148.83 364.715 152.06 369.931 150.829Z" fill="black"/>
<path d="M374.068 144.04C375.52 140.536 373.856 136.519 370.352 135.068C366.849 133.617 362.832 135.281 361.38 138.784C359.929 142.288 361.593 146.305 365.097 147.756C368.6 149.207 372.617 147.543 374.068 144.04Z" fill="white"/>
<path d="M464.927 165.547H347.024C342.822 165.547 339.404 162.129 339.404 157.927V100.997C339.404 96.795 342.822 93.377 347.024 93.377H464.927C469.129 93.377 472.548 96.795 472.548 100.997V157.927C472.548 162.129 469.129 165.547 464.927 165.547ZM347.024 94.6279C343.512 94.6279 340.655 97.4854 340.655 100.997V157.927C340.655 161.439 343.512 164.297 347.024 164.297H464.928C468.44 164.297 471.297 161.439 471.297 157.927V100.997C471.297 97.4851 468.44 94.6279 464.928 94.6279H347.024Z" fill="black"/>
<path d="M303.385 193.611H260.563C257.673 193.611 255.322 191.26 255.322 188.369C255.322 185.479 257.673 183.128 260.563 183.128H301.681C302.027 183.128 302.307 183.407 302.307 183.753C302.307 184.099 302.027 184.378 301.681 184.378H260.563C258.363 184.378 256.573 186.169 256.573 188.369C256.573 190.57 258.363 192.36 260.563 192.36H303.385C303.73 192.36 304.01 192.64 304.01 192.985C304.01 193.331 303.73 193.611 303.385 193.611Z" fill="black"/>
<path d="M420.007 193.611H348.631C348.286 193.611 348.006 193.331 348.006 192.986C348.006 192.64 348.286 192.361 348.631 192.361H420.007C422.208 192.361 423.998 190.57 423.998 188.37C423.998 186.17 422.208 184.379 420.007 184.379H349.163C348.817 184.379 348.538 184.099 348.538 183.754C348.538 183.408 348.817 183.128 349.163 183.128H420.007C422.898 183.128 425.249 185.479 425.249 188.37C425.249 191.259 422.898 193.611 420.007 193.611Z" fill="black"/>
<path d="M420.008 215.34H386.672C383.782 215.34 381.43 212.989 381.43 210.098C381.43 207.208 383.782 204.856 386.672 204.856H420.008C422.898 204.856 425.249 207.208 425.249 210.098C425.249 212.989 422.898 215.34 420.008 215.34ZM386.672 206.107C384.472 206.107 382.681 207.898 382.681 210.098C382.681 212.298 384.472 214.089 386.672 214.089H420.008C422.208 214.089 423.998 212.299 423.998 210.098C423.998 207.898 422.208 206.107 420.008 206.107H386.672Z" fill="black"/>
<path d="M420.008 238.771H260.563C257.673 238.771 255.322 236.42 255.322 233.529C255.322 230.639 257.673 228.288 260.563 228.288H420.008C422.898 228.288 425.249 230.639 425.249 233.529C425.249 236.42 422.898 238.771 420.008 238.771ZM260.563 229.539C258.363 229.539 256.573 231.329 256.573 233.53C256.573 235.73 258.363 237.521 260.563 237.521H420.008C422.208 237.521 423.998 235.73 423.998 233.53C423.998 231.33 422.208 229.539 420.008 229.539H260.563Z" fill="black"/>
<path d="M420.008 260.5H403.382C400.491 260.5 398.14 258.149 398.14 255.258C398.14 252.368 400.491 250.017 403.382 250.017H420.008C422.898 250.017 425.249 252.368 425.249 255.258C425.249 258.149 422.898 260.5 420.008 260.5ZM403.381 251.268C401.181 251.268 399.39 253.058 399.39 255.258C399.39 257.459 401.181 259.249 403.381 259.249H420.007C422.207 259.249 423.998 257.459 423.998 255.258C423.998 253.058 422.208 251.268 420.007 251.268H403.381Z" fill="black"/>
<path d="M420.008 282.76H391.022C388.132 282.76 385.78 280.409 385.78 277.519C385.78 274.629 388.132 272.277 391.022 272.277H420.008C422.898 272.277 425.249 274.629 425.249 277.519C425.249 280.409 422.898 282.76 420.008 282.76ZM391.022 273.528C388.821 273.528 387.031 275.319 387.031 277.519C387.031 279.719 388.821 281.51 391.022 281.51H420.008C422.208 281.51 423.998 279.72 423.998 277.519C423.998 275.319 422.208 273.528 420.008 273.528H391.022Z" fill="black"/>
<path d="M320.741 102.986H262.212C259.321 102.986 256.97 100.635 256.97 97.7444C256.97 94.854 259.321 92.5024 262.212 92.5024H320.741C323.631 92.5024 325.983 94.854 325.983 97.7444C325.983 100.635 323.631 102.986 320.741 102.986ZM262.211 93.7537C260.011 93.7537 258.22 95.5439 258.22 97.7447C258.22 99.9447 260.011 101.735 262.211 101.735H320.741C322.942 101.735 324.732 99.945 324.732 97.7447C324.732 95.5439 322.942 93.7537 320.741 93.7537H262.211Z" fill="black"/>
<path d="M320.741 122.548H262.212C259.321 122.548 256.97 120.197 256.97 117.306C256.97 114.416 259.321 112.065 262.212 112.065H320.741C323.631 112.065 325.983 114.416 325.983 117.306C325.983 120.197 323.631 122.548 320.741 122.548ZM262.211 113.316C260.011 113.316 258.22 115.106 258.22 117.306C258.22 119.507 260.011 121.297 262.211 121.297H320.741C322.942 121.297 324.732 119.507 324.732 117.306C324.732 115.106 322.942 113.316 320.741 113.316H262.211Z" fill="black"/>
<path d="M294.299 142.11H262.211C259.321 142.11 256.969 139.759 256.969 136.868C256.969 133.978 259.321 131.626 262.211 131.626H294.299C297.189 131.626 299.541 133.978 299.541 136.868C299.541 139.759 297.189 142.11 294.299 142.11ZM262.211 132.877C260.01 132.877 258.22 134.668 258.22 136.868C258.22 139.068 260.01 140.859 262.211 140.859H294.299C296.5 140.859 298.29 139.069 298.29 136.868C298.29 134.668 296.5 132.877 294.299 132.877H262.211Z" fill="black"/>
<path d="M465.923 214.58H447.72C444.067 214.58 441.095 211.609 441.095 207.956V189.752C441.095 186.099 444.067 183.128 447.72 183.128H465.923C469.577 183.128 472.548 186.099 472.548 189.752V207.956C472.548 211.609 469.576 214.58 465.923 214.58ZM447.72 184.379C444.757 184.379 442.346 186.789 442.346 189.752V207.956C442.346 210.919 444.757 213.329 447.72 213.329H465.923C468.887 213.329 471.297 210.919 471.297 207.956V189.752C471.297 186.789 468.887 184.379 465.923 184.379H447.72Z" fill="black"/>
<path d="M454.33 205.66C454.238 205.66 454.146 205.652 454.054 205.634C453.517 205.534 453.079 205.149 452.909 204.631L450.071 197.23C449.947 196.907 450.109 196.545 450.431 196.422C450.755 196.299 451.115 196.459 451.239 196.782L454.087 204.212C454.137 204.36 454.232 204.394 454.285 204.405C454.333 204.414 454.423 204.417 454.499 204.341L462.339 191.825C462.524 191.532 462.91 191.444 463.202 191.627C463.494 191.81 463.583 192.196 463.4 192.49L455.532 205.049C455.518 205.072 455.502 205.094 455.485 205.114C455.198 205.463 454.772 205.66 454.33 205.66Z" fill="black"/>
<path d="M465.923 259.424H447.72C444.067 259.424 441.095 256.452 441.095 252.799V234.595C441.095 230.942 444.067 227.971 447.72 227.971H465.923C469.577 227.971 472.548 230.942 472.548 234.595V252.799C472.548 256.452 469.576 259.424 465.923 259.424ZM447.72 229.222C444.757 229.222 442.346 231.632 442.346 234.595V252.799C442.346 255.762 444.757 258.173 447.72 258.173H465.923C468.887 258.173 471.297 255.762 471.297 252.799V234.595C471.297 231.632 468.887 229.222 465.923 229.222H447.72Z" fill="black"/>
<path d="M454.235 250.99C454.14 250.99 454.044 250.982 453.948 250.963C453.392 250.859 452.936 250.459 452.759 249.921L449.732 242.027C449.608 241.704 449.769 241.342 450.092 241.219C450.415 241.096 450.777 241.257 450.9 241.579L453.938 249.502C453.998 249.684 454.126 249.724 454.18 249.734C454.227 249.744 454.349 249.752 454.448 249.651L462.811 236.3C462.996 236.008 463.382 235.919 463.674 236.102C463.967 236.286 464.055 236.671 463.872 236.965L455.482 250.358C455.467 250.381 455.452 250.403 455.435 250.424C455.137 250.786 454.694 250.99 454.235 250.99Z" fill="black"/>
<path d="M465.923 304.268H447.72C444.067 304.268 441.095 301.296 441.095 297.643V279.439C441.095 275.786 444.067 272.815 447.72 272.815H465.923C469.577 272.815 472.548 275.786 472.548 279.439V297.643C472.548 301.296 469.576 304.268 465.923 304.268ZM447.72 274.066C444.757 274.066 442.346 276.476 442.346 279.439V297.643C442.346 300.606 444.757 303.017 447.72 303.017H465.923C468.887 303.017 471.297 300.606 471.297 297.643V279.439C471.297 276.476 468.887 274.066 465.923 274.066H447.72Z" fill="black"/>
<path d="M454.214 295.943C454.118 295.943 454.021 295.934 453.924 295.916C453.363 295.81 452.903 295.408 452.726 294.865L449.656 286.86C449.532 286.538 449.693 286.175 450.016 286.052C450.339 285.929 450.7 286.089 450.824 286.412L453.904 294.445C453.967 294.635 454.1 294.676 454.155 294.686C454.208 294.697 454.333 294.705 454.437 294.599L462.917 281.061C463.101 280.77 463.487 280.681 463.779 280.863C464.072 281.047 464.161 281.433 463.977 281.726L455.47 295.306C455.456 295.329 455.44 295.35 455.423 295.371C455.123 295.737 454.677 295.943 454.214 295.943Z" fill="black"/>
<path d="M212.828 131.699L215.271 142.203C215.44 142.93 215.9 143.556 216.544 143.934L221.296 146.725C221.939 147.103 222.399 147.729 222.568 148.456L223.825 153.857C224.001 154.613 223.845 155.409 223.396 156.044L220.41 160.271C219.961 160.906 219.805 161.702 219.981 162.458L220.834 166.126C221.175 167.59 222.638 168.501 224.102 168.161C225.566 167.82 227.03 168.731 227.37 170.195L228.141 173.507C228.481 174.971 227.57 176.434 226.106 176.775C224.642 177.115 223.731 178.578 224.071 180.043L224.883 183.534C225.063 184.309 225.573 184.966 226.278 185.332L230.704 187.636C231.409 188.003 231.919 188.66 232.099 189.434L233.434 195.173C233.607 195.918 233.459 196.701 233.026 197.331L230.019 201.708C229.586 202.338 229.438 203.121 229.612 203.866L230.77 208.847C230.994 209.81 231.723 210.576 232.674 210.848L241.569 213.389C242.477 213.648 243.454 213.419 244.151 212.783L250.925 206.606C251.652 205.942 251.965 204.937 251.742 203.978L233.798 126.821L212.828 131.699Z" fill="white"/>
<path d="M242.326 214.123C242.017 214.123 241.705 214.079 241.398 213.992L232.502 211.451C231.333 211.117 230.436 210.174 230.161 208.99L229.003 204.009C228.79 203.095 228.972 202.128 229.504 201.354L232.511 196.978C232.843 196.494 232.957 195.887 232.824 195.316L231.49 189.576C231.351 188.978 230.959 188.474 230.415 188.192L225.989 185.887C225.121 185.436 224.495 184.631 224.274 183.677L223.462 180.185C223.259 179.314 223.408 178.417 223.88 177.657C224.353 176.898 225.093 176.369 225.964 176.166C227.09 175.904 227.793 174.775 227.531 173.649L226.761 170.337C226.634 169.792 226.302 169.328 225.827 169.032C225.351 168.736 224.79 168.643 224.244 168.77C223.373 168.973 222.475 168.824 221.716 168.351C220.957 167.878 220.428 167.139 220.225 166.268L219.372 162.6C219.156 161.671 219.348 160.691 219.899 159.911L222.885 155.683C223.23 155.195 223.35 154.581 223.215 153.998L221.959 148.598C221.829 148.041 221.472 147.554 220.979 147.265L216.226 144.474C215.439 144.011 214.869 143.236 214.662 142.345L212.219 131.841C212.14 131.504 212.349 131.169 212.686 131.09C213.021 131.009 213.358 131.221 213.437 131.558L215.88 142.062C216.01 142.619 216.367 143.105 216.861 143.395L221.613 146.186C222.4 146.648 222.97 147.424 223.177 148.314L224.433 153.715C224.65 154.645 224.458 155.626 223.907 156.405L220.92 160.633C220.575 161.121 220.455 161.735 220.59 162.317L221.443 165.985C221.57 166.53 221.902 166.994 222.377 167.29C222.852 167.585 223.414 167.678 223.96 167.552C224.833 167.349 225.729 167.498 226.488 167.971C227.247 168.443 227.777 169.183 227.979 170.054L228.749 173.366C229.167 175.163 228.045 176.966 226.247 177.385C225.702 177.512 225.238 177.843 224.943 178.318C224.646 178.794 224.553 179.356 224.68 179.902L225.492 183.393C225.631 183.991 226.023 184.495 226.566 184.778L230.993 187.082C231.861 187.533 232.486 188.338 232.708 189.292L234.043 195.032C234.255 195.945 234.072 196.913 233.542 197.685L230.535 202.063C230.202 202.547 230.088 203.153 230.221 203.725L231.379 208.707C231.552 209.448 232.114 210.039 232.845 210.247L241.741 212.789C242.444 212.99 243.188 212.816 243.73 212.322L250.503 206.144C251.063 205.634 251.304 204.859 251.133 204.12L233.188 126.964C233.11 126.627 233.319 126.291 233.656 126.213C233.991 126.131 234.328 126.344 234.406 126.68L252.351 203.837C252.625 205.016 252.239 206.254 251.346 207.069L244.573 213.246C243.945 213.818 243.147 214.123 242.326 214.123Z" fill="black"/>
<path d="M225.956 137.608L240.728 201.123C241.022 202.388 242.285 203.174 243.55 202.88C244.814 202.586 245.601 201.322 245.307 200.058L230.536 136.543C230.242 135.278 228.978 134.492 227.713 134.786C226.449 135.08 225.662 136.344 225.956 137.608Z" fill="black"/>
<path d="M217.974 76.69L204.906 79.7292C192.84 82.5354 185 94.372 187.806 106.438L192.538 126.787C193.654 131.582 198.774 134.765 203.569 133.649L242.966 124.487C247.762 123.372 250.538 118.353 249.423 113.557L244.69 93.2089C241.884 81.1424 230.04 73.8838 217.974 76.69ZM225.68 93.4004C225.974 94.6646 225.425 96.0449 224.161 96.3387L208.024 100.092C206.76 100.386 205.245 99.4852 204.951 98.2213L204.569 96.5813C203.83 93.4004 206.072 90.383 209.252 89.6432L218.449 87.5044C221.63 86.7647 224.559 88.5796 225.298 91.7604L225.68 93.4004Z" fill="white"/>
<path d="M201.63 134.494C199.806 134.494 197.958 133.969 196.344 132.965C194.107 131.575 192.498 129.374 191.929 126.928L187.197 106.58C184.353 94.3524 192.234 82.0339 204.765 79.1203L217.832 76.0809C223.836 74.6834 229.982 75.6637 235.133 78.8398C240.296 82.0231 243.906 87.0758 245.299 93.0671L250.032 113.415C251.256 118.683 248.151 123.923 243.108 125.096L203.711 134.257C203.031 134.416 202.333 134.494 201.63 134.494ZM218.115 77.2986L205.049 80.3381C199.337 81.6665 194.456 85.0803 191.304 89.9508C188.131 94.8555 187.105 100.661 188.415 106.296L193.148 126.645C193.642 128.77 195.048 130.686 197.004 131.903C198.961 133.119 201.302 133.532 203.428 133.039L242.825 123.877C247.196 122.861 249.882 118.294 248.814 113.699L244.082 93.3505C242.764 87.6865 239.354 82.9113 234.476 79.9043C229.608 76.9029 223.798 75.9789 218.115 77.2986ZM207.528 100.773C206.944 100.773 206.34 100.602 205.8 100.276C205.051 99.8231 204.519 99.1262 204.342 98.3629L203.961 96.7229C203.568 95.0347 203.911 93.3006 204.927 91.8395C205.908 90.4296 207.394 89.433 209.111 89.0341L218.307 86.8958C221.824 86.0741 225.091 88.1082 225.907 91.6192L226.289 93.2592C226.469 94.0336 226.391 94.8307 226.069 95.5034C225.71 96.2541 225.083 96.7671 224.304 96.9479L208.166 100.701C207.959 100.749 207.745 100.773 207.528 100.773ZM219.877 87.9629C219.459 87.9629 219.028 88.0125 218.591 88.1139L209.394 90.2522C208 90.5764 206.746 91.4158 205.954 92.5544C205.142 93.7209 204.868 95.1009 205.178 96.4398L205.56 98.0798C205.661 98.5164 205.985 98.9263 206.447 99.206C206.911 99.4863 207.435 99.5876 207.883 99.4831L224.02 95.7299C224.536 95.6096 224.805 95.2468 224.941 94.964C225.138 94.5524 225.185 94.0344 225.071 93.5426L224.69 91.9026C224.125 89.477 222.197 87.9629 219.877 87.9629Z" fill="black"/>
<path d="M196.353 83.6797C191.332 78.2515 188.479 71.009 188.479 63.5995C188.479 46.7042 202.857 33.1042 220.02 34.3924C234.341 35.4673 245.902 47.029 246.977 61.3502C248.266 78.513 234.665 92.891 217.77 92.891C214.275 92.891 210.855 92.2814 207.605 91.0789C207.605 91.0789 207.416 90.2625 209.252 89.6434L218.141 87.5763L221.982 86.5727C233.837 84.4146 242.217 73.5366 241.017 61.2547C239.914 49.9682 230.639 41.0164 219.323 40.2809C205.742 39.3981 194.409 50.1961 194.409 63.5913C194.409 69.9792 197.131 76.2713 201.724 80.7135L201.524 80.7924C199.679 81.5186 197.94 82.4901 196.353 83.6797Z" fill="white"/>
<path d="M222.282 87.1411C221.989 87.1411 221.727 86.934 221.669 86.6355C221.603 86.2966 221.824 85.9678 222.163 85.9019C232.791 83.8245 240.506 74.4414 240.506 63.5912C240.506 51.0546 230.307 40.8555 217.77 40.8555C205.234 40.8555 195.035 51.0546 195.035 63.5912C195.035 68.6315 196.636 73.391 199.666 77.3538C199.876 77.6281 199.823 78.0208 199.549 78.2304C199.275 78.4405 198.882 78.3887 198.673 78.1138C195.474 73.931 193.784 68.909 193.784 63.5912C193.784 50.3651 204.544 39.6045 217.77 39.6045C230.997 39.6045 241.757 50.3651 241.757 63.5912C241.757 75.0388 233.617 84.938 222.403 87.1295C222.362 87.1374 222.322 87.1411 222.282 87.1411Z" fill="black"/>
<path d="M217.77 93.5166C215.6 93.5166 213.437 93.284 211.342 92.824C211.004 92.7502 210.791 92.4166 210.865 92.0794C210.939 91.7411 211.271 91.5279 211.609 91.6026C213.617 92.0428 215.689 92.2659 217.77 92.2659C233.576 92.2659 246.436 79.4062 246.436 63.5997C246.436 47.7933 233.576 34.9336 217.77 34.9336C201.963 34.9336 189.104 47.7933 189.104 63.5997C189.104 69.9552 191.136 75.9696 194.981 80.9935C195.191 81.2679 195.138 81.66 194.864 81.8701C194.591 82.0803 194.198 82.0285 193.988 81.7535C189.974 76.5099 187.853 70.2327 187.853 63.6C187.853 47.1034 201.273 33.6829 217.77 33.6829C234.267 33.6829 247.687 47.1034 247.687 63.6C247.687 80.0961 234.267 93.5166 217.77 93.5166Z" fill="black"/>
<path d="M516.791 417.923L514.698 422.946C511.763 429.99 505.936 435.429 498.706 437.87L469.221 447.826H40.6959L14.8391 439.897C7.87512 437.762 2.90273 431.616 2.26808 424.36L1.17991 411.915C1.02752 409.977 1.39456 408.033 2.24357 406.283C3.29089 404.125 3.66329 401.702 3.3123 399.329L1.01315 383.786C0.552028 380.67 2.1785 377.617 5.02244 376.26L10.9224 373.447C43.3723 357.972 78.1185 347.866 113.806 343.521L128.804 341.696L145.888 332.509C241.291 281.206 354.291 273.934 455.483 312.586L518.053 336.487L514.657 366.226L518.613 386.633C519.325 390.307 519.683 394.042 519.683 397.784V403.46C519.683 408.425 518.7 413.34 516.791 417.923Z" fill="white"/>
<path d="M452.312 326.215C453.476 325.604 453.372 323.904 452.144 323.436L436.56 317.488C347.091 283.343 225.968 284.662 140.205 350.419L349.28 343.179C373.551 342.338 397.762 340.249 421.818 336.921C434.01 335.228 446.727 329.144 452.312 326.215Z" fill="white"/>
<path d="M140.205 351.045C139.942 351.045 139.705 350.88 139.616 350.631C139.525 350.375 139.609 350.088 139.825 349.923C179.941 319.164 230.814 300.472 286.942 295.867C337.213 291.746 390.43 299.214 436.783 316.904L452.366 322.851C453.168 323.157 453.699 323.88 453.749 324.737C453.8 325.593 453.361 326.371 452.603 326.768C446.299 330.075 433.928 335.871 421.904 337.54C397.926 340.858 373.499 342.965 349.301 343.803L140.227 351.044C140.22 351.045 140.212 351.045 140.205 351.045ZM313.256 295.891C255.697 295.891 194.292 310.389 142.15 349.726L349.259 342.553C373.413 341.716 397.797 339.613 421.733 336.301C434.009 334.596 447.004 328.292 452.022 325.66C452.344 325.492 452.522 325.174 452.5 324.811C452.479 324.446 452.262 324.151 451.921 324.02L436.337 318.073C402.085 305.001 358.878 295.891 313.256 295.891Z" fill="black"/>
<path d="M480.181 361.774C480.181 361.774 472.336 368.858 514.642 366.391L518.057 336.44C518.057 336.44 495.476 348.832 480.181 361.774Z" fill="white"/>
<path d="M498.935 367.54C486.83 367.54 480.189 366.275 479.136 363.757C478.685 362.679 479.317 361.712 479.763 361.31C479.767 361.306 479.773 361.301 479.778 361.297C494.945 348.463 517.53 336.017 517.756 335.892C517.962 335.78 518.213 335.791 518.406 335.921C518.6 336.052 518.705 336.279 518.678 336.512L515.263 366.462C515.229 366.764 514.982 366.998 514.678 367.015C508.683 367.365 503.431 367.54 498.935 367.54ZM480.598 362.241C480.535 362.302 480.075 362.774 480.293 363.281C480.73 364.302 484.468 367.485 514.08 365.797L517.298 337.582C512.655 340.201 493.792 351.08 480.598 362.241Z" fill="black"/>
<path d="M482.711 365.435C486.722 366.678 495.604 367.502 514.642 366.391L515.711 357.017C515.711 357.017 517.624 344.736 506.834 349.367C494.873 354.501 482.711 365.435 482.711 365.435Z" fill="black"/>
<path d="M457.75 448.443H46.7844C42.6836 448.443 38.6148 447.833 34.6917 446.632L14.6557 440.491C9.48781 438.906 5.28471 435.162 3.12499 430.219C3.03513 430.014 3.06217 429.777 3.19457 429.597C3.32724 429.418 3.54387 429.324 3.76809 429.347L43.3602 433.806L430.274 426.447L517.094 416.366C517.309 416.336 517.527 416.431 517.661 416.604C517.795 416.777 517.828 417.008 517.75 417.212C517.627 417.531 517.5 417.848 517.368 418.164L515.275 423.188C512.273 430.394 506.306 435.96 498.906 438.459L480.29 444.742C473.013 447.198 465.43 448.443 457.75 448.443ZM4.74527 430.716C6.86612 434.829 10.5577 437.926 15.0219 439.295L35.0579 445.435C38.8619 446.601 42.8072 447.192 46.7841 447.192H457.749C465.293 447.192 472.742 445.969 479.89 443.556L498.506 437.274C505.565 434.89 511.257 429.58 514.121 422.706L516.194 417.729L430.357 427.693L43.3424 435.057C43.3185 435.057 43.2881 435.057 43.2605 435.054L4.74527 430.716Z" fill="black"/>
<path d="M55.3468 370.616C55.8011 370.284 55.6192 369.566 55.0609 369.494C52.071 369.11 45.0555 368.411 37.4259 369.074C29.6076 369.754 17.844 375.535 12.8989 378.129C11.5753 378.823 10.9992 380.409 11.564 381.793L11.8961 382.606C12.5569 384.226 14.1324 385.285 15.882 385.285H26.429C32.1837 385.285 37.789 383.454 42.4341 380.058L55.3468 370.616Z" fill="white"/>
<path d="M13.0024 378.074C18.0064 375.455 29.6616 369.749 37.4255 369.074C40.5286 368.804 43.5303 368.76 46.2007 368.828L36.8258 375.43C33.1748 378.002 28.9517 379.644 24.523 380.216L17.7424 381.091C16.476 381.254 15.2143 380.755 14.4016 379.77L13.0024 378.074Z" fill="black"/>
<path d="M26.429 385.911H15.8817C13.869 385.911 12.0777 384.706 11.3172 382.843L10.9831 382.024C10.2935 380.334 10.9924 378.422 12.609 377.574L12.7129 377.52C17.4834 375.023 29.4355 369.14 37.3715 368.451C45.1417 367.776 52.3509 368.517 55.0895 368.867C55.6081 368.933 56.027 369.303 56.1577 369.809C56.2878 370.314 56.0997 370.84 55.6783 371.148L42.8031 380.563C38.0177 384.061 32.3555 385.911 26.429 385.911ZM13.2929 378.628L13.189 378.682C12.147 379.229 11.6963 380.462 12.1408 381.551L12.4749 382.37C13.0422 383.761 14.3794 384.66 15.8814 384.66H26.4287C32.0884 384.66 37.4952 382.894 42.0653 379.552L54.9402 370.138C52.2312 369.763 45.1278 369.032 37.48 369.697C29.7693 370.368 17.9969 376.166 13.2929 378.628Z" fill="black"/>
<path d="M261.25 359.26L299.422 358.077C303.478 357.951 307.423 356.713 310.824 354.498L313.02 353.069L274.67 354.218C269.761 354.365 265.041 356.139 261.25 359.26Z" fill="white"/>
<path d="M261.25 359.886C260.99 359.886 260.756 359.725 260.665 359.481C260.57 359.23 260.646 358.947 260.852 358.778C264.73 355.584 269.63 353.743 274.65 353.592L313.001 352.443C313.298 352.441 313.533 352.614 313.617 352.881C313.7 353.149 313.596 353.44 313.361 353.592L311.166 355.022C307.667 357.3 303.612 358.573 299.441 358.702L261.27 359.885C261.263 359.886 261.256 359.886 261.25 359.886ZM310.811 353.761L274.688 354.843C270.594 354.966 266.585 356.278 263.208 358.574L299.402 357.452C303.345 357.329 307.176 356.127 310.482 353.974L310.811 353.761Z" fill="black"/>
<path d="M161.345 344.677L169.675 334.639C170.847 333.227 172.587 332.41 174.422 332.41H181.837C184.982 332.41 187.623 334.776 187.969 337.902L188.522 342.918C188.672 344.276 188.367 345.646 187.654 346.812C186.55 348.619 184.595 349.734 182.477 349.763C174.528 349.873 155.449 350.072 155.862 349.451C156.274 348.833 159.177 346.546 160.384 345.607C160.738 345.332 161.059 345.021 161.345 344.677Z" fill="white"/>
<path d="M188.522 342.919L187.968 337.902C187.623 334.776 184.982 332.41 181.837 332.41H174.422C172.586 332.41 170.847 333.228 169.675 334.64L161.344 344.677C161.344 344.677 176.921 342.692 188.522 342.919Z" fill="white"/>
<path d="M161.344 345.303C161.118 345.303 160.907 345.18 160.796 344.978C160.672 344.754 160.699 344.476 160.863 344.278L169.194 334.241C170.488 332.68 172.394 331.785 174.421 331.785H181.837C185.306 331.785 188.21 334.385 188.59 337.834L189.144 342.85C189.164 343.029 189.106 343.208 188.984 343.341C188.863 343.474 188.683 343.538 188.51 343.544C177.095 343.323 161.579 345.278 161.423 345.298C161.397 345.301 161.37 345.303 161.344 345.303ZM174.421 333.036C172.767 333.036 171.212 333.766 170.156 335.039L162.827 343.87C166.97 343.393 178.545 342.178 187.823 342.282L187.347 337.971C187.036 335.157 184.667 333.036 181.836 333.036H174.421Z" fill="black"/>
<path d="M161.345 344.677L169.675 334.639C170.847 333.227 172.587 332.41 174.422 332.41H181.837C184.982 332.41 187.623 334.776 187.969 337.902L188.522 342.918C188.672 344.276 188.367 345.646 187.654 346.812C186.55 348.619 184.595 349.734 182.477 349.763C174.528 349.873 155.449 350.072 155.862 349.451C156.274 348.833 159.177 346.546 160.384 345.607C160.738 345.332 161.059 345.021 161.345 344.677Z" fill="white"/>
<path d="M167.342 350.517C155.707 350.517 155.507 350.146 155.31 349.785C155.2 349.581 155.213 349.298 155.342 349.105C155.681 348.596 157.248 347.253 160 345.114C160.316 344.867 160.607 344.587 160.863 344.277L169.194 334.24C170.488 332.68 172.394 331.785 174.422 331.785H181.837C185.306 331.785 188.21 334.385 188.591 337.833L189.145 342.85C189.308 344.338 188.969 345.861 188.189 347.138C186.964 349.141 184.832 350.357 182.486 350.389C176.004 350.478 171.082 350.517 167.342 350.517ZM157.114 349.075C160.096 349.292 169.374 349.318 182.468 349.138C184.383 349.112 186.122 348.12 187.121 346.486C187.758 345.444 188.034 344.201 187.901 342.987L187.347 337.97C187.036 335.157 184.667 333.035 181.836 333.035H174.421C172.767 333.035 171.212 333.765 170.156 335.039L161.825 345.076C161.511 345.455 161.155 345.799 160.767 346.101C158.964 347.504 157.793 348.473 157.114 349.075Z" fill="black"/>
<path d="M458.088 448.452H47.3824C42.8839 448.452 38.4219 447.783 34.1202 446.464L14.6557 440.495C7.41232 438.275 2.30528 431.962 1.64499 424.414L0.556549 411.969C0.395422 409.916 0.784429 407.857 1.68105 406.011C2.6771 403.957 3.02725 401.678 2.69317 399.421L0.394006 383.879C-0.1105 380.468 1.64134 377.18 4.7526 375.697L10.6523 372.883C43.2269 357.349 77.9069 347.261 113.729 342.902L128.611 341.09L145.592 331.959C241.231 280.529 354.265 273.256 455.706 312.003L514.211 334.35C516.871 335.367 518.504 338.052 518.181 340.882L515.289 366.202L519.226 386.515C519.944 390.22 520.308 394.011 520.308 397.785V403.461C520.308 408.534 519.319 413.481 517.368 418.164L515.275 423.188C512.272 430.397 506.305 435.964 498.906 438.463L479.97 444.857C472.905 447.242 465.543 448.452 458.088 448.452ZM322.428 288.644C261.609 288.644 201.029 303.567 146.184 333.06L129.1 342.247C129.032 342.283 128.956 342.307 128.88 342.316L113.881 344.143C78.1928 348.486 43.6436 358.535 11.1912 374.011L5.29147 376.824C2.67852 378.07 1.20781 380.831 1.63147 383.695L3.93063 399.237C4.3019 401.744 3.91288 404.275 2.80612 406.556C2.00669 408.203 1.65964 410.039 1.80302 411.865L2.89091 424.305C3.50668 431.342 8.26837 437.228 15.0219 439.299L34.4864 445.267C38.6692 446.55 43.0084 447.2 47.3822 447.2H458.088C465.407 447.2 472.634 446.013 479.569 443.671L498.505 437.277C505.564 434.894 511.255 429.582 514.121 422.705L516.214 417.682C518.1 413.152 519.057 408.367 519.057 403.459V397.784C519.057 394.09 518.701 390.378 517.998 386.751L514.043 366.345C514.031 366.282 514.029 366.218 514.036 366.155L516.939 340.739C517.196 338.477 515.891 336.33 513.765 335.518L455.26 313.171C412.329 296.773 367.313 288.644 322.428 288.644Z" fill="black"/>
<path d="M453.613 459.924C472.681 440.856 472.681 409.941 453.613 390.873C434.545 371.805 403.629 371.805 384.561 390.873C365.493 409.941 365.493 440.856 384.561 459.924C403.629 478.992 434.545 478.992 453.613 459.924Z" fill="black"/>
<path d="M442.309 448.62C455.133 435.795 455.133 415.002 442.309 402.177C429.484 389.352 408.691 389.352 395.866 402.177C383.041 415.002 383.041 435.795 395.866 448.62C408.691 461.445 429.484 461.445 442.309 448.62Z" fill="white"/>
<path d="M419.094 458.864C400.641 458.864 385.628 443.851 385.628 425.398C385.628 406.945 400.641 391.933 419.094 391.933C437.547 391.933 452.56 406.946 452.56 425.398C452.56 443.851 437.547 458.864 419.094 458.864ZM419.094 393.184C401.331 393.184 386.879 407.636 386.879 425.398C386.879 443.162 401.331 457.613 419.094 457.613C436.858 457.613 451.309 443.162 451.309 425.398C451.309 407.636 436.858 393.184 419.094 393.184Z" fill="black"/>
<path d="M419.094 451.753C433.649 451.753 445.448 439.953 445.448 425.399C445.448 410.844 433.649 399.044 419.094 399.044C404.539 399.044 392.74 410.844 392.74 425.399C392.74 439.953 404.539 451.753 419.094 451.753Z" fill="white"/>
<path d="M419.094 452.378C404.218 452.378 392.115 440.275 392.115 425.398C392.115 410.522 404.218 398.419 419.094 398.419C433.971 398.419 446.074 410.522 446.074 425.398C446.074 440.275 433.971 452.378 419.094 452.378ZM419.094 399.67C404.907 399.67 393.365 411.212 393.365 425.398C393.365 439.585 404.907 451.127 419.094 451.127C433.281 451.127 444.823 439.585 444.823 425.398C444.823 411.212 433.281 399.67 419.094 399.67Z" fill="black"/>
<path d="M124.372 459.922C143.44 440.854 143.44 409.939 124.372 390.87C105.304 371.802 74.3883 371.802 55.3202 390.87C36.2521 409.939 36.2522 440.854 55.3202 459.922C74.3883 478.99 105.304 478.99 124.372 459.922Z" fill="black"/>
<path d="M113.067 448.618C125.892 435.793 125.892 415 113.067 402.175C100.243 389.35 79.4495 389.35 66.6247 402.175C53.7999 415 53.7999 435.793 66.6247 448.618C79.4495 461.442 100.243 461.442 113.067 448.618Z" fill="white"/>
<path d="M89.8504 458.864C71.3975 458.864 56.3845 443.851 56.3845 425.398C56.3845 406.945 71.3975 391.933 89.8504 391.933C108.303 391.933 123.316 406.946 123.316 425.398C123.316 443.851 108.303 458.864 89.8504 458.864ZM89.8504 393.184C72.0871 393.184 57.6355 407.636 57.6355 425.398C57.6355 443.162 72.0871 457.613 89.8504 457.613C107.614 457.613 122.065 443.162 122.065 425.398C122.065 407.636 107.614 393.184 89.8504 393.184Z" fill="black"/>
<path d="M89.8507 451.753C104.406 451.753 116.205 439.953 116.205 425.399C116.205 410.844 104.406 399.044 89.8507 399.044C75.2957 399.044 63.4966 410.844 63.4966 425.399C63.4966 439.953 75.2957 451.753 89.8507 451.753Z" fill="white"/>
<path d="M89.8505 452.378C74.9744 452.378 62.8713 440.275 62.8713 425.398C62.8713 410.522 74.9744 398.419 89.8505 398.419C104.727 398.419 116.83 410.522 116.83 425.398C116.83 440.275 104.727 452.378 89.8505 452.378ZM89.8505 399.67C75.664 399.67 64.1223 411.212 64.1223 425.398C64.1223 439.585 75.664 451.127 89.8505 451.127C104.038 451.127 115.579 439.585 115.579 425.398C115.579 411.212 104.038 399.67 89.8505 399.67Z" fill="black"/>
<path d="M374.856 474.933L374.094 488.98L364.702 490.564L363.867 473.997L374.856 474.933Z" fill="white"/>
<path d="M364.702 491.19C364.561 491.19 364.423 491.141 364.311 491.052C364.172 490.94 364.087 490.774 364.078 490.596L363.242 474.029C363.233 473.848 363.303 473.673 363.433 473.547C363.562 473.422 363.74 473.356 363.92 473.374L374.91 474.311C375.246 474.339 375.499 474.63 375.481 474.967L374.718 489.014C374.703 489.307 374.487 489.548 374.198 489.597L364.807 491.181C364.772 491.187 364.737 491.19 364.702 491.19ZM364.528 474.681L365.292 489.83L373.497 488.446L374.199 475.505L364.528 474.681Z" fill="black"/>
<path d="M364.441 514.317C368.407 514.672 374.891 515.481 382.421 514.049C384.882 513.58 386.406 511.088 385.685 508.688C383.674 501.989 380.15 489.263 374.912 483.548L373.778 486.345L372.002 483.884C371.75 483.478 371.319 483.218 370.842 483.181L367.11 482.898C366.33 482.839 365.635 483.389 365.513 484.161L365.408 485.845L362.904 483.415L362.266 498.265C362.142 501.16 361.813 503.394 361.281 506.242L360.624 509.769C360.437 512.075 362.136 514.11 364.441 514.317Z" fill="white"/>
<path d="M373.376 515.493C370.271 515.493 367.569 515.239 365.442 515.038L364.386 514.94C361.754 514.704 359.787 512.362 360 509.718C360.002 509.696 360.005 509.675 360.008 509.653L360.666 506.127C361.189 503.326 361.516 501.136 361.641 498.238L362.279 483.388C362.289 483.142 362.444 482.925 362.672 482.834C362.901 482.743 363.162 482.794 363.339 482.966L364.868 484.45L364.889 484.121C365.067 482.977 366.048 482.184 367.157 482.275L370.889 482.558C371.562 482.608 372.177 482.98 372.533 483.553L373.623 485.062L374.333 483.313C374.413 483.114 374.591 482.97 374.802 482.932C375.013 482.894 375.229 482.968 375.374 483.125C380.351 488.557 383.795 500.14 385.853 507.061L386.284 508.508C386.677 509.818 386.495 511.24 385.785 512.41C385.071 513.585 383.888 514.406 382.537 514.663C379.244 515.29 376.149 515.493 373.376 515.493ZM361.245 509.85C361.104 511.799 362.557 513.52 364.497 513.694L365.559 513.792C369.517 514.166 375.499 514.729 382.304 513.434C383.307 513.243 384.186 512.633 384.715 511.761C385.242 510.893 385.378 509.838 385.086 508.867L384.654 507.417C382.721 500.915 379.546 490.236 375.106 484.733L374.358 486.579C374.272 486.79 374.079 486.938 373.853 486.965C373.624 486.994 373.403 486.894 373.27 486.71L371.495 484.249C371.326 483.979 371.072 483.825 370.795 483.805L367.063 483.522C366.611 483.491 366.202 483.811 366.131 484.258L366.032 485.884C366.017 486.128 365.861 486.34 365.633 486.428C365.406 486.515 365.147 486.464 364.973 486.294L363.469 484.835L362.891 498.292C362.763 501.251 362.416 503.572 361.897 506.357L361.245 509.85Z" fill="black"/>
<path d="M372.982 511.208C367.727 511.208 363.76 510.31 363.502 510.25C363.165 510.172 362.956 509.836 363.034 509.499C363.111 509.163 363.451 508.953 363.784 509.031C363.882 509.054 373.693 511.272 382.82 508.702C383.151 508.61 383.498 508.802 383.592 509.135C383.685 509.467 383.491 509.812 383.159 509.906C379.649 510.894 376.089 511.208 372.982 511.208Z" fill="black"/>
<path d="M368.051 500.804C367.71 500.804 367.431 500.531 367.425 500.19C367.419 499.844 367.695 499.56 368.04 499.553L376.91 499.399C377.247 499.387 377.54 499.668 377.546 500.013C377.552 500.359 377.277 500.644 376.932 500.65L368.062 500.804C368.058 500.804 368.054 500.804 368.051 500.804Z" fill="black"/>
<path d="M330.229 469.726L329.842 490.188L318.473 490.761L316.917 470.397L330.229 469.726Z" fill="white"/>
<path d="M318.473 491.386C318.148 491.386 317.875 491.136 317.85 490.808L316.293 470.444C316.28 470.276 316.335 470.11 316.447 469.983C316.559 469.857 316.717 469.78 316.884 469.772L330.197 469.101C330.376 469.089 330.54 469.156 330.665 469.277C330.789 469.397 330.858 469.564 330.855 469.737L330.467 490.199C330.46 490.528 330.201 490.796 329.873 490.812L318.505 491.386C318.494 491.386 318.484 491.386 318.473 491.386ZM317.589 470.989L319.051 490.105L329.227 489.592L329.591 470.384L317.589 470.989Z" fill="black"/>
<path d="M333.392 501.549C333.518 503.476 332.286 505.236 330.428 505.768C323.969 507.619 309.418 511.748 305.25 512.585C299.84 513.672 293.057 512.34 290.016 509.297C286.976 506.254 295.921 498.171 300.208 495.178C306.578 490.733 312.486 482.282 315.117 481.782C317.749 481.283 323.082 488.72 323.082 488.72L330.995 484.917C330.995 484.917 332.754 491.773 333.392 501.549Z" fill="white"/>
<path d="M301.33 513.586C296.66 513.586 291.968 512.134 289.575 509.739C288.97 509.134 288.706 508.354 288.788 507.421C289.146 503.367 296.396 497.076 299.851 494.665C302.975 492.484 305.959 489.353 308.592 486.59C311.432 483.609 313.484 481.455 315.001 481.167C317.641 480.665 321.876 486.033 323.28 487.93L330.724 484.353C330.895 484.273 331.09 484.271 331.259 484.35C331.429 484.428 331.555 484.58 331.601 484.761C331.619 484.83 333.382 491.786 334.016 501.507C334.16 503.716 332.724 505.76 330.601 506.369C324.418 508.141 309.582 512.353 305.373 513.198C304.066 513.461 302.699 513.586 301.33 513.586ZM315.402 482.381C315.344 482.381 315.287 482.386 315.234 482.396C314.113 482.61 311.871 484.962 309.498 487.453C306.824 490.258 303.795 493.438 300.566 495.691C296.328 498.649 290.31 504.41 290.034 507.531C289.985 508.086 290.124 508.519 290.459 508.855C293.288 511.686 299.732 513.056 305.126 511.972C309.29 511.136 324.088 506.934 330.256 505.167C331.817 504.719 332.874 503.215 332.768 501.59C332.26 493.814 331.026 487.841 330.566 485.817L323.353 489.283C323.077 489.414 322.75 489.33 322.573 489.084C320.529 486.234 317.03 482.381 315.402 482.381Z" fill="black"/>
<path d="M300.972 508.341C298.128 508.341 295.657 507.936 293.923 506.921C293.625 506.746 293.526 506.363 293.7 506.065C293.874 505.767 294.257 505.666 294.556 505.841C302.452 510.466 328.505 500.944 328.768 500.847C329.089 500.727 329.451 500.894 329.571 501.218C329.69 501.542 329.524 501.902 329.2 502.021C328.333 502.341 311.911 508.341 300.972 508.341Z" fill="black"/>
<path d="M314.311 496.825C314.172 496.825 314.032 496.779 313.916 496.684L307.871 491.76C307.603 491.542 307.563 491.148 307.781 490.88C307.999 490.613 308.393 490.571 308.661 490.79L314.706 495.714C314.974 495.932 315.014 496.326 314.796 496.594C314.673 496.746 314.493 496.825 314.311 496.825Z" fill="black"/>
<path d="M371.002 334.402C371.002 334.402 377.739 397.968 380.692 419.88C383.645 441.792 379.275 477.473 379.275 477.473L361.68 477.436C361.68 477.436 359.195 445.772 357.285 429.302C356.817 425.263 355.699 421.332 354.003 417.637C351.338 411.832 347.161 401.832 345.249 392.467C342.324 378.138 333.691 355.707 333.691 355.707C333.691 355.707 333.354 469.853 333.22 478.826C333.22 478.826 319.49 480.133 314.4 477.278C314.4 477.278 303.566 436.209 303.682 413.562C303.798 390.914 299.59 334.872 299.59 334.872L371.002 334.402Z" fill="white"/>
<path d="M326.267 479.756C322.007 479.756 316.876 479.384 314.094 477.824C313.946 477.74 313.839 477.601 313.795 477.438C313.687 477.027 302.941 436.029 303.056 413.559C303.172 391.195 299.008 335.479 298.966 334.919C298.953 334.746 299.013 334.576 299.13 334.448C299.247 334.321 299.413 334.248 299.586 334.247L370.998 333.777C370.999 333.777 371.001 333.777 371.002 333.777C371.321 333.777 371.59 334.018 371.623 334.337C371.691 334.972 378.394 398.144 381.312 419.796C384.242 441.536 379.939 477.192 379.895 477.55C379.856 477.863 379.59 478.099 379.274 478.099C379.274 478.099 379.274 478.099 379.273 478.099L361.679 478.062C361.353 478.061 361.082 477.81 361.056 477.485C361.031 477.169 358.55 445.645 356.663 429.374C356.207 425.433 355.12 421.572 353.434 417.898C350.991 412.575 346.599 402.21 344.636 392.593C342.407 381.677 336.781 365.85 334.306 359.135C334.248 378.238 333.965 470.842 333.845 478.836C333.84 479.155 333.596 479.42 333.278 479.45C333.014 479.475 329.97 479.756 326.267 479.756ZM314.936 476.855C319.382 479.118 330.041 478.451 332.601 478.251C332.739 465.983 333.062 356.827 333.065 355.706C333.066 355.405 333.282 355.147 333.577 355.093C333.874 355.035 334.166 355.202 334.275 355.483C334.361 355.708 342.96 378.127 345.862 392.342C347.8 401.837 352.151 412.102 354.571 417.376C356.313 421.17 357.434 425.159 357.906 429.23C359.654 444.305 361.911 472.439 362.258 476.812L378.718 476.847C379.249 472.25 382.782 440.067 380.072 419.964C377.299 399.391 371.116 341.393 370.44 335.032L300.263 335.494C300.736 341.905 304.416 392.486 304.307 413.565C304.198 434.929 314.013 473.297 314.936 476.855Z" fill="black"/>
<path d="M364.901 423.552C363.895 423.552 362.886 423.382 361.923 423.034C361.599 422.917 361.43 422.559 361.548 422.234C361.664 421.909 362.023 421.739 362.349 421.858C364.561 422.657 367.061 422.367 369.033 421.085C369.322 420.897 369.71 420.979 369.899 421.269C370.087 421.558 370.005 421.946 369.715 422.134C368.274 423.07 366.591 423.552 364.901 423.552Z" fill="black"/>
<path d="M368.957 353.391C368.935 353.391 368.913 353.39 368.891 353.388C365.646 353.048 361.791 350.773 360.708 345.407C360.64 345.068 360.859 344.738 361.197 344.67C361.539 344.602 361.866 344.821 361.935 345.159C362.884 349.861 366.218 351.85 369.022 352.144C369.365 352.179 369.614 352.487 369.578 352.831C369.544 353.152 369.273 353.391 368.957 353.391Z" fill="black"/>
<path d="M323.094 458.107C322.768 458.107 322.493 457.855 322.47 457.524C321.769 447.328 309.045 428.721 308.916 428.534C308.72 428.25 308.792 427.86 309.077 427.664C309.362 427.469 309.751 427.541 309.947 427.826C310.479 428.599 322.993 446.903 323.719 457.438C323.742 457.783 323.482 458.082 323.137 458.106C323.123 458.106 323.109 458.107 323.094 458.107Z" fill="black"/>
<path d="M305.762 243.726C301.91 232.63 296.234 234.148 292.149 237.376C289.212 239.696 287.237 243.038 286.576 246.722C286.03 249.762 284.907 254.191 282.638 258.323C278.393 266.055 262.697 269.166 257.222 269.145C254.833 269.136 248.426 261.47 244.313 262.768C241.358 263.702 246.868 268.392 246.178 268.729C243.621 269.98 241.192 269.711 238.873 269.701C235.111 269.685 231.751 268.667 230.343 268.659C228.56 268.649 227.962 270.475 228.7 272.098C229.756 274.419 232.06 277.935 235.869 279.162C242.677 281.356 254.321 279.302 258.383 278.513C261.477 277.912 297.938 280.175 302.58 264.961C303.546 261.797 307.383 248.395 305.762 243.726Z" fill="white"/>
<path d="M243.679 280.764C240.75 280.764 237.947 280.489 235.676 279.757C231.255 278.332 228.926 274.107 228.13 272.357C227.618 271.231 227.648 269.993 228.209 269.128C228.666 268.422 229.418 268.034 230.327 268.034C230.334 268.034 230.34 268.034 230.346 268.034C230.934 268.037 231.762 268.188 232.809 268.378C234.406 268.669 236.593 269.066 238.876 269.075C239.214 269.076 239.555 269.084 239.898 269.091C241.688 269.127 243.537 269.164 245.423 268.383C245.257 268.147 245.022 267.845 244.83 267.598C243.785 266.251 242.485 264.575 242.885 263.293C243 262.924 243.309 262.429 244.125 262.172C246.938 261.278 250.495 263.97 253.35 266.131C254.9 267.304 256.503 268.516 257.225 268.519C257.243 268.519 257.262 268.519 257.281 268.519C262.753 268.519 278.026 265.424 282.09 258.022C284.326 253.949 285.429 249.569 285.96 246.611C286.656 242.745 288.715 239.291 291.761 236.885C294.513 234.71 297.087 233.952 299.416 234.633C302.26 235.462 304.594 238.453 306.353 243.52C308.087 248.516 304.013 262.409 303.179 265.144C299.147 278.36 272.285 278.815 262.172 278.986C260.369 279.016 258.943 279.041 258.503 279.127C254.774 279.851 249.016 280.764 243.679 280.764ZM230.328 269.285C229.843 269.285 229.484 269.461 229.259 269.808C228.933 270.311 228.937 271.108 229.269 271.838C229.997 273.438 232.114 277.294 236.06 278.566C242.201 280.544 252.608 278.997 258.264 277.899C258.812 277.792 260.14 277.769 262.151 277.736C272.014 277.568 298.215 277.124 301.983 264.779C302.481 263.143 306.812 248.658 305.171 243.931C303.552 239.267 301.498 236.543 299.065 235.833C297.149 235.272 294.952 235.957 292.537 237.865C289.731 240.083 287.832 243.267 287.192 246.832C286.644 249.882 285.505 254.403 283.187 258.624C278.813 266.589 263.161 269.77 257.282 269.77C257.262 269.77 257.241 269.77 257.22 269.77C256.08 269.766 254.542 268.602 252.595 267.128C249.97 265.141 246.703 262.669 244.501 263.364C244.137 263.48 244.093 263.62 244.079 263.666C243.873 264.325 245.139 265.955 245.818 266.831C246.579 267.81 246.96 268.302 246.844 268.799C246.795 269.014 246.652 269.193 246.453 269.29C244.13 270.427 241.968 270.384 239.872 270.341C239.536 270.334 239.202 270.327 238.871 270.326C236.478 270.315 234.228 269.907 232.586 269.608C231.637 269.436 230.818 269.287 230.339 269.284C230.336 269.285 230.331 269.285 230.328 269.285Z" fill="black"/>
<path d="M381.648 259.852C381.648 259.852 384.094 222.358 361.815 214.207C340.367 206.361 312.003 206.192 296.69 216.338C289.13 221.347 282.243 251.979 282.243 251.979L294.274 265.585C294.274 265.585 293.576 332.969 297.701 350.541C297.701 350.541 317.703 351.858 325.97 348.111C334.237 344.364 361.734 338.311 375.298 343.733L368.6 258.802L381.648 259.852Z" fill="black"/>
<path d="M356.14 327.752C356.115 327.752 356.089 327.75 356.062 327.747C323.498 323.671 312.922 301.671 312.819 301.449C312.674 301.136 312.81 300.764 313.123 300.618C313.437 300.473 313.808 300.609 313.953 300.921C314.054 301.137 324.373 322.52 356.218 326.506C356.56 326.549 356.803 326.861 356.761 327.204C356.721 327.521 356.451 327.752 356.14 327.752Z" fill="white"/>
<path d="M295.616 288.874L329.534 289.961C330.622 289.996 331.411 288.935 331.065 287.904L317.164 246.481C316.957 245.862 316.386 245.438 315.734 245.417L281.816 244.33C280.728 244.295 279.939 245.356 280.285 246.388L294.186 287.81C294.393 288.429 294.964 288.854 295.616 288.874Z" fill="white"/>
<path d="M329.584 290.587C329.561 290.587 329.537 290.587 329.513 290.586L295.596 289.499C294.687 289.47 293.882 288.872 293.592 288.009L279.692 246.587C279.464 245.908 279.583 245.16 280.011 244.585C280.438 244.011 281.11 243.668 281.836 243.705L315.754 244.791C316.664 244.821 317.469 245.42 317.757 246.282L331.657 287.704C331.885 288.383 331.766 289.131 331.338 289.705C330.926 290.261 330.274 290.587 329.584 290.587ZM281.764 244.955C281.466 244.955 281.194 245.091 281.014 245.332C280.828 245.582 280.779 245.894 280.878 246.189L294.778 287.611C294.902 287.981 295.247 288.237 295.636 288.25L329.553 289.336C329.867 289.349 330.149 289.208 330.335 288.959C330.52 288.71 330.57 288.398 330.471 288.103L316.571 246.681C316.448 246.311 316.102 246.055 315.713 246.042L281.795 244.955C281.785 244.955 281.775 244.955 281.764 244.955Z" fill="black"/>
<path d="M377.845 257.95L359.777 257.135C359.777 257.135 359.641 272.349 358.011 272.621C352.203 273.589 340.041 273.637 332.125 272.682C329.368 272.349 327.185 270.24 326.667 267.512C326.275 265.452 325.16 263.032 322.33 261.29C319.595 259.607 322.292 264.903 319.735 268.314C318.361 270.146 314.01 269.334 308.078 267.96C302.145 266.585 300.639 272.925 307.288 276.756C314.495 280.91 319.075 280.444 321.374 280.93C325.952 281.899 366.434 288.244 372.683 284.847C377.51 282.224 377.845 257.95 377.845 257.95Z" fill="white"/>
<path d="M364.834 286.471C350.389 286.471 323.534 282.026 321.244 281.542C320.785 281.445 320.199 281.386 319.52 281.317C316.827 281.044 312.758 280.631 306.975 277.298C302.785 274.883 301.75 271.563 302.563 269.5C303.167 267.967 304.969 266.598 308.219 267.35C313.559 268.588 318.074 269.484 319.234 267.939C320.37 266.424 320.353 264.42 320.341 262.956C320.33 261.734 320.323 260.851 320.991 260.475C321.555 260.155 322.213 260.483 322.658 260.758C325.15 262.291 326.748 264.586 327.281 267.395C327.756 269.889 329.732 271.763 332.2 272.061C339.995 273.001 351.918 272.981 357.809 272.021C358.566 271.052 359.094 263.608 359.152 257.129C359.154 256.959 359.224 256.798 359.347 256.681C359.47 256.564 359.637 256.493 359.805 256.51L377.874 257.325C378.211 257.34 378.476 257.621 378.471 257.959C378.436 260.481 377.987 282.677 372.982 285.397C371.571 286.163 368.631 286.471 364.834 286.471ZM306.517 268.396C305.146 268.396 304.126 268.947 303.727 269.958C303.105 271.538 304.051 274.17 307.599 276.215C313.15 279.413 317.059 279.81 319.646 280.072C320.361 280.144 320.979 280.207 321.503 280.318C326.167 281.304 366.396 287.551 372.384 284.297C375.972 282.348 377.064 265.604 377.209 258.547L360.393 257.789C360.372 259.043 360.308 261.933 360.129 264.815C359.662 272.356 358.877 273.111 358.113 273.238C352.163 274.231 339.985 274.26 332.049 273.303C329.038 272.94 326.628 270.659 326.052 267.629C325.58 265.14 324.217 263.186 322.002 261.823C321.834 261.72 321.716 261.663 321.637 261.632C321.583 261.915 321.588 262.498 321.591 262.946C321.604 264.495 321.624 266.836 320.234 268.689C318.617 270.849 314.116 270.001 307.936 268.569C307.433 268.453 306.958 268.396 306.517 268.396Z" fill="black"/>
<path d="M326.272 199.125C328.124 200.656 331.683 202.46 334.322 200.96C336.287 199.843 337.28 197.156 337.059 194.146C337.996 194.175 339.217 194.048 340.051 193.232C341.336 191.976 340.974 189.802 340.849 188.368C340.272 181.748 344.073 180.536 342.904 176.083C341.984 172.583 339.1 170.616 338.56 170.248C335.837 168.391 334.093 169.123 329.625 168.19C322.106 166.62 321.708 163.434 316.818 163.665C316.535 163.679 309.886 164.088 307.859 168.798C306.211 172.63 308.585 177.065 310.924 179.341C313.952 182.287 315.937 180.656 318.95 183.103C324.24 187.399 320.771 194.577 326.272 199.125Z" fill="black"/>
<path d="M311.043 186.575C312.511 185.173 314.065 182.4 314.543 180.427C316.292 173.224 322.833 171.895 323.51 178.902C323.69 180.768 330.517 180.327 329.805 182.331C327.95 187.556 327.834 186.181 330.912 187.917C331.25 187.914 331.589 187.971 331.913 188.103C333.479 188.739 334.125 190.788 333.356 192.68C332.89 193.829 332.008 194.648 331.038 194.978L331.446 203.065C331.599 206.097 333.57 208.736 336.435 209.741L339.221 210.72C339.221 210.72 326.906 219.673 313.522 211.2L315.208 210.339C318.177 208.823 320.021 205.746 319.958 202.413L319.892 200.831C319.027 200.952 318.182 200.936 317.394 200.749C313.725 199.88 312.315 195.775 312.668 190.566L311.073 189.115C310.328 188.437 310.314 187.27 311.043 186.575Z" fill="white"/>
<path d="M325.662 215.444C321.858 215.444 317.57 214.502 313.187 211.728C312.998 211.608 312.887 211.395 312.897 211.171C312.908 210.946 313.038 210.745 313.238 210.643L314.923 209.782C317.66 208.385 319.391 205.497 319.333 202.425L319.295 201.52C318.573 201.56 317.888 201.509 317.25 201.357C313.597 200.492 311.702 196.662 312.026 190.827L310.652 189.578C310.17 189.139 309.888 188.513 309.88 187.86C309.872 187.207 310.138 186.573 310.61 186.123C310.61 186.122 310.61 186.122 310.61 186.122C311.955 184.839 313.478 182.163 313.935 180.28C315.042 175.722 317.939 173.504 320.255 173.666C322.385 173.818 323.834 175.752 324.133 178.841C324.176 179.285 325.961 179.69 326.92 179.907C328.491 180.263 329.849 180.571 330.322 181.43C330.508 181.767 330.533 182.151 330.395 182.541C330.124 183.302 329.891 183.924 329.698 184.436C329.362 185.33 329.073 186.102 329.118 186.29C329.171 186.355 329.521 186.52 329.831 186.666C330.166 186.824 330.576 187.018 331.08 187.295C331.454 187.311 331.814 187.387 332.149 187.524C334.031 188.289 334.833 190.707 333.936 192.916C333.483 194.033 332.676 194.912 331.686 195.388L332.071 203.034C332.212 205.824 334.007 208.225 336.642 209.151L339.429 210.129C339.648 210.206 339.807 210.399 339.841 210.629C339.874 210.859 339.778 211.089 339.59 211.225C339.504 211.287 333.651 215.443 325.662 215.444ZM314.809 211.245C325.111 217.143 334.673 212.685 337.792 210.88L336.228 210.331C333.111 209.238 330.988 206.398 330.821 203.098L330.414 195.01C330.4 194.731 330.573 194.476 330.837 194.386C331.674 194.101 332.4 193.375 332.777 192.445C333.415 190.876 332.921 189.188 331.678 188.683C331.444 188.588 331.182 188.552 330.917 188.543C330.814 188.54 330.7 188.516 330.605 188.463C330.077 188.165 329.645 187.961 329.298 187.798C327.43 186.918 327.641 186.357 328.528 183.996C328.718 183.49 328.949 182.875 329.216 182.122C329.24 182.056 329.231 182.04 329.227 182.033C329.025 181.667 327.592 181.342 326.644 181.127C324.862 180.723 323.018 180.305 322.889 178.962C322.653 176.531 321.636 175.018 320.167 174.914C318.41 174.788 316.084 176.733 315.152 180.575C314.639 182.687 312.989 185.581 311.475 187.026C311.249 187.242 311.128 187.532 311.131 187.844C311.135 188.156 311.265 188.442 311.495 188.652L313.09 190.102C313.231 190.231 313.307 190.417 313.294 190.607C312.931 195.94 314.478 199.415 317.539 200.14C318.223 200.302 318.986 200.327 319.806 200.212C319.98 200.185 320.158 200.238 320.293 200.351C320.429 200.464 320.51 200.629 320.518 200.805L320.583 202.387C320.651 205.948 318.653 209.283 315.493 210.896L314.809 211.245Z" fill="black"/>
<path d="M319.892 201.457C319.601 201.457 319.34 201.253 319.28 200.957C319.21 200.619 319.428 200.288 319.766 200.219C324.374 199.273 326.349 195.533 326.369 195.495C326.528 195.189 326.902 195.067 327.211 195.225C327.518 195.382 327.64 195.757 327.483 196.064C327.393 196.24 325.232 200.373 320.018 201.444C319.976 201.453 319.933 201.457 319.892 201.457Z" fill="black"/>
<path d="M142.382 464.145L147.969 485.327C149.085 489.561 149.38 493.97 148.837 498.315L147.718 507.264L175.933 502.659L172.287 499.974C165.957 495.31 161.485 488.553 159.668 480.903L154.813 460.468L142.382 464.145Z" fill="white"/>
<path d="M147.719 507.89C147.558 507.89 147.402 507.828 147.285 507.715C147.143 507.578 147.074 507.382 147.098 507.187L148.216 498.238C148.752 493.952 148.465 489.662 147.364 485.488L141.778 464.305C141.692 463.978 141.881 463.642 142.205 463.546L154.635 459.868C154.802 459.819 154.979 459.841 155.126 459.927C155.275 460.013 155.382 460.156 155.421 460.323L160.276 480.759C162.057 488.254 166.455 494.9 172.658 499.471L176.304 502.157C176.507 502.306 176.6 502.562 176.541 502.807C176.482 503.052 176.283 503.237 176.034 503.278L147.819 507.882C147.786 507.887 147.752 507.89 147.719 507.89ZM143.142 464.573L148.574 485.168C149.716 489.498 150.013 493.947 149.458 498.393L148.443 506.512L174.366 502.282L171.917 500.477C165.474 495.731 160.909 488.831 159.06 481.048L154.358 461.255L143.142 464.573Z" fill="black"/>
<path d="M144.972 511.639C144.759 507.9 144.708 500.454 147.146 495.784C147.58 494.953 148.582 494.595 149.452 494.944L155.908 497.527C156.91 497.928 158.001 497.19 158.001 496.11V495.67C158.001 495.044 158.491 494.528 159.115 494.495L164.677 494.204C166.752 494.096 168.821 494.487 170.717 495.337C176.468 497.916 188.682 504.005 191.601 510.37C192.265 511.818 191.187 513.471 189.596 513.542C184.554 513.769 171.798 514.168 147.408 513.961C146.111 513.95 145.045 512.934 144.972 511.639Z" fill="white"/>
<path d="M160.508 514.645C156.571 514.645 152.214 514.627 147.403 514.586C145.781 514.572 144.439 513.294 144.347 511.674C144.119 507.673 144.109 500.249 146.592 495.494C147.175 494.377 148.505 493.891 149.685 494.363L156.14 496.945C156.422 497.058 156.728 497.025 156.979 496.856C157.231 496.685 157.375 496.413 157.375 496.11V495.669C157.375 494.711 158.125 493.921 159.082 493.87L164.644 493.579C166.799 493.469 168.989 493.877 170.973 494.767C177.63 497.751 189.236 503.713 192.169 510.109C192.565 510.971 192.504 511.937 192.003 512.758C191.491 513.596 190.601 514.123 189.624 514.167C185.273 514.363 176.261 514.645 160.508 514.645ZM145.596 511.604C145.651 512.566 146.449 513.327 147.414 513.335C171.451 513.54 184.142 513.161 189.568 512.917C190.13 512.892 190.641 512.589 190.935 512.106C191.216 511.646 191.252 511.109 191.032 510.631C188.167 504.382 175.692 498.253 170.461 495.907C168.658 495.099 166.666 494.721 164.71 494.829L159.148 495.12C158.856 495.135 158.626 495.376 158.626 495.669V496.109C158.626 496.824 158.273 497.49 157.681 497.891C157.089 498.291 156.339 498.371 155.675 498.107L149.22 495.524C148.636 495.291 147.985 495.528 147.701 496.073C145.357 500.562 145.376 507.731 145.596 511.604Z" fill="black"/>
<path d="M167.651 510.351C162.586 510.351 156.375 510.232 148.97 509.894C148.625 509.878 148.358 509.585 148.374 509.24C148.39 508.895 148.678 508.624 149.028 508.644C173.405 509.757 184.756 508.481 184.868 508.468C185.224 508.422 185.522 508.674 185.562 509.017C185.602 509.36 185.356 509.67 185.013 509.711C184.935 509.72 179.345 510.351 167.651 510.351Z" fill="black"/>
<path d="M173.995 504.354C173.877 504.354 173.758 504.321 173.652 504.251L164.052 497.955C163.763 497.766 163.683 497.378 163.872 497.089C164.061 496.802 164.449 496.72 164.738 496.91L174.339 503.206C174.627 503.395 174.708 503.783 174.518 504.072C174.398 504.254 174.199 504.354 173.995 504.354Z" fill="black"/>
<path d="M85.2021 467.724L81.79 491.677H73.1545L73.9942 468.119L85.2021 467.724Z" fill="white"/>
<path d="M81.7902 492.302H73.1548C72.9849 492.302 72.8224 492.233 72.7046 492.111C72.5869 491.989 72.5238 491.824 72.53 491.655L73.3691 468.097C73.3807 467.769 73.644 467.506 73.9719 467.495L85.1801 467.099C85.3609 467.086 85.5435 467.168 85.6674 467.306C85.7908 467.444 85.8477 467.629 85.8212 467.812L82.4094 491.765C82.3655 492.073 82.1018 492.302 81.7902 492.302ZM73.8026 491.051H81.2477L84.4776 468.375L74.5978 468.724L73.8026 491.051Z" fill="black"/>
<path d="M81.4594 513.967C77.9261 514.346 72.9704 515.248 65.405 514.039C63.1918 513.685 61.7968 511.458 62.4036 509.3C64.0033 503.613 67.3515 493.113 71.5909 487.611C71.8982 487.213 72.5264 487.322 72.6892 487.798L72.8399 488.787C72.9304 489.38 73.734 489.498 73.9904 488.955L74.9242 486.978C75.1436 486.612 75.5242 486.373 75.9487 486.334L79.2275 486.208C79.9225 486.143 80.5509 486.622 80.672 487.31L80.785 488.869C80.8289 489.475 81.6357 489.649 81.9253 489.115L83.3385 487.664C83.6247 487.275 84.2416 487.487 84.2284 487.97L84.0602 494.194C83.9388 498.69 84.265 503.188 85.0343 507.62L85.4211 509.849C85.6233 511.904 83.5129 513.747 81.4594 513.967Z" fill="white"/>
<path d="M72.8473 515.273C70.6605 515.273 68.1662 515.114 65.3056 514.657C64.0853 514.462 63.0017 513.75 62.3324 512.703C61.6543 511.643 61.4614 510.341 61.8017 509.131C63.4296 503.344 66.8017 492.802 71.0957 487.229C71.3774 486.864 71.8329 486.685 72.2929 486.758C72.7524 486.835 73.1309 487.155 73.2811 487.596C73.2932 487.631 73.3019 487.668 73.3073 487.704L73.4583 488.693L74.3586 486.711C74.7093 486.122 75.2712 485.768 75.8909 485.71L79.2039 485.583C80.1853 485.492 81.1121 486.201 81.2887 487.201C81.2923 487.222 81.2949 487.244 81.296 487.264L81.4084 488.824C81.436 488.773 81.4371 488.72 81.4769 488.679L82.8664 487.252C83.1619 486.886 83.6507 486.746 84.0983 486.898C84.5631 487.057 84.8667 487.494 84.8538 487.986L84.6859 494.211C84.5656 498.657 84.8904 503.132 85.6509 507.513L86.0374 509.742C86.2842 512.232 83.8569 514.338 81.5262 514.589C81.0797 514.637 80.6098 514.693 80.1152 514.753C78.1532 514.988 75.7766 515.273 72.8473 515.273ZM72.0887 488.011C67.9163 493.413 64.6081 503.773 63.0062 509.47C62.762 510.337 62.9005 511.27 63.3862 512.029C63.8707 512.786 64.6225 513.281 65.5039 513.422C72.0205 514.463 76.6132 513.913 79.9664 513.51C80.4667 513.451 80.9414 513.394 81.3932 513.345C83.1064 513.162 84.967 511.62 84.7991 509.91L84.4186 507.727C83.6442 503.265 83.3129 498.706 83.4352 494.176L83.594 488.298L82.4236 489.5C82.145 489.927 81.6411 490.142 81.1312 490.03C80.5912 489.914 80.2011 489.465 80.1614 488.914L80.0515 487.391C79.9763 487.042 79.6532 486.791 79.2861 486.83L75.9732 486.958C75.7819 486.977 75.5774 487.106 75.4608 487.3L74.5569 489.222C74.3236 489.716 73.8 489.992 73.2625 489.915C72.7225 489.836 72.3042 489.42 72.2222 488.881L72.0887 488.011Z" fill="black"/>
<path d="M74.1015 510.82C71.9449 510.82 69.3685 510.566 66.4854 509.808C66.1514 509.721 65.9516 509.379 66.0395 509.045C66.1268 508.711 66.4688 508.511 66.8029 508.599C74.9418 510.738 80.593 508.642 80.6491 508.619C80.9705 508.496 81.333 508.658 81.4567 508.981C81.5795 509.303 81.4181 509.665 81.095 509.788C80.9333 509.85 78.3204 510.82 74.1015 510.82Z" fill="black"/>
<path d="M78.0088 502.062H70.0899C69.7443 502.062 69.4646 501.783 69.4646 501.437C69.4646 501.091 69.7443 500.812 70.0899 500.812H78.0088C78.3544 500.812 78.6342 501.091 78.6342 501.437C78.6342 501.783 78.3544 502.062 78.0088 502.062Z" fill="black"/>
<path d="M140.968 310.126C140.968 310.126 152.292 383.263 152.742 400.729C153.192 418.194 160.458 471.043 160.458 471.043C160.458 471.043 151.123 474.507 140.465 472.085C140.465 472.085 105.79 378.495 103.292 349.803C100.794 321.111 110.397 307.977 110.397 307.977L140.968 310.126Z" fill="white"/>
<path d="M129.892 305.573C129.892 305.573 91.5118 422.772 90.884 470.413C90.884 470.413 82.4259 472.399 70.2668 470.413C70.2668 470.413 62.4704 339.615 84.942 302.971L129.892 305.573Z" fill="white"/>
<path d="M148.39 473.578C145.897 473.578 143.163 473.339 140.326 472.695C140.12 472.648 139.952 472.5 139.879 472.302C139.672 471.744 119.454 417.057 108.907 378.864C97.6047 421.195 91.7526 451.989 91.5095 470.421C91.5059 470.708 91.3067 470.955 91.027 471.021C90.6771 471.104 82.3084 473.014 70.1662 471.03C69.8771 470.982 69.66 470.742 69.6428 470.449C69.5791 469.384 63.467 363.351 78.58 316.043C78.685 315.715 79.0352 315.53 79.3662 315.638C79.6949 315.743 79.8769 316.095 79.7712 316.424C65.2622 361.842 70.4222 461.882 70.8633 469.874C80.8946 471.434 88.3602 470.262 90.2667 469.9C90.616 450.94 96.709 419.355 108.379 376.004C108.467 375.678 108.799 375.481 109.127 375.558C109.456 375.635 109.663 375.961 109.595 376.292L109.555 376.492C119.507 413.196 139.22 466.899 140.934 471.548C149.811 473.468 157.783 471.248 159.769 470.614C159.019 465.105 152.54 417.124 152.117 400.744C151.836 389.846 147.374 357.563 143.681 332.401C143.631 332.059 143.868 331.741 144.209 331.691C144.557 331.635 144.869 331.877 144.919 332.219C148.617 357.415 153.085 389.751 153.368 400.712C153.812 417.944 161.006 470.429 161.078 470.957C161.118 471.248 160.951 471.527 160.676 471.629C160.39 471.735 155.317 473.578 148.39 473.578Z" fill="black"/>
<path d="M108.912 377.138C108.861 377.138 108.81 377.132 108.759 377.119C108.424 377.035 108.221 376.694 108.305 376.36L113.696 354.961C113.781 354.625 114.121 354.422 114.456 354.507C114.791 354.591 114.994 354.932 114.909 355.266L109.518 376.665C109.446 376.949 109.192 377.138 108.912 377.138Z" fill="black"/>
<path d="M118.975 205.221C116.558 219.103 102.462 234.007 88.2825 232.039C85.9678 231.718 79.7244 230.402 73.163 222.802C64.1177 229.274 52.5909 227.56 46.3749 220.05C38.7788 210.871 39.8154 193.886 50.8791 185.168C42.1138 185.095 39.7577 181.723 39.0614 180.395C34.9571 172.567 45.7954 154.255 55.9104 154.227C59.6439 154.216 64.5974 158.83 74.3526 168.058C84.4275 177.589 84.8565 179.436 87.9058 179.767C96.8698 180.738 99.5501 165.462 111.442 163.772C119.583 162.615 128.675 168.304 129.363 173.676C129.953 178.286 124.002 179.912 120.651 189.12C118.155 195.977 120.086 198.841 118.975 205.221Z" fill="black"/>
<path d="M107.183 158.606C107.876 160.73 107.186 166.747 103.992 167.789C100.799 168.831 96.3123 164.504 95.6191 162.38C94.9258 160.255 96.9526 157.688 100.146 156.646C103.339 155.604 106.489 156.481 107.183 158.606Z" fill="black"/>
<path d="M145.724 311.029C145.724 311.029 149.28 334.771 144.931 339.323C144.931 339.323 130.717 323.753 130.043 312.507L145.724 311.029Z" fill="white"/>
<path d="M144.931 339.948C144.928 339.948 144.926 339.948 144.924 339.948C144.751 339.947 144.586 339.873 144.469 339.744C143.883 339.102 130.098 323.881 129.419 312.545C129.398 312.208 129.648 311.916 129.984 311.885L145.665 310.406C145.99 310.369 146.293 310.607 146.342 310.936C146.489 311.918 149.892 335.035 145.383 339.755C145.265 339.879 145.102 339.948 144.931 339.948ZM130.716 313.073C131.703 322.726 142.445 335.531 144.898 338.341C147.632 333.938 146.134 318.327 145.19 311.707L130.716 313.073Z" fill="black"/>
<path d="M126.006 311.27C126.006 311.27 121.579 330.426 116.326 335.203C111.073 339.98 96.7279 318.62 88.7428 318.162C80.7577 317.705 71.9707 336.971 71.9707 336.971C71.9707 336.971 74.1963 312.91 80.7699 307.813L126.006 311.27Z" fill="white"/>
<path d="M71.971 337.597C71.9177 337.597 71.8634 337.59 71.8104 337.576C71.5155 337.497 71.32 337.217 71.3482 336.914C71.4403 335.92 73.6766 312.522 80.3873 307.319C80.5101 307.224 80.6639 307.18 80.818 307.189L126.054 310.646C126.236 310.661 126.402 310.753 126.51 310.9C126.618 311.046 126.657 311.234 126.616 311.411C126.433 312.201 122.083 330.813 116.747 335.666C113.48 338.637 107.819 333.424 101.827 327.903C97.067 323.518 92.1459 318.984 88.707 318.786C81.2527 318.388 72.6259 337.042 72.5403 337.231C72.4363 337.458 72.211 337.597 71.971 337.597ZM88.4673 317.529C88.5712 317.529 88.6743 317.532 88.7789 317.538C92.6636 317.761 97.7527 322.449 102.674 326.983C107.99 331.88 113.488 336.942 115.905 334.74C120.394 330.658 124.368 315.327 125.226 311.838L80.9707 308.456C76.2938 312.401 73.8969 326.746 73.009 333.486C75.9062 328.008 82.2617 317.529 88.4673 317.529Z" fill="black"/>
<path d="M197.067 196.836L204.374 189.218C205.615 187.925 207.706 189.379 206.925 190.992L204.676 195.635C204.676 195.635 206.212 196.348 206.972 196.397C208.638 196.503 210.251 195.788 211.406 194.581C212.74 193.187 214.898 190.966 215.629 190.42C216.714 189.609 218.113 188.354 219.664 188.228L219.711 188.225C221.33 188.106 222.388 189.891 221.506 191.254L218.451 195.978C216.235 199.406 212.981 202.035 209.165 203.483L202.897 205.861C200.714 206.689 199.249 208.754 199.188 211.088L198.555 235.394L185.728 225.591L191.488 206.965C192.639 203.243 194.537 199.797 197.067 196.836Z" fill="white"/>
<path d="M198.555 236.019C198.42 236.019 198.286 235.976 198.175 235.891L185.347 226.088C185.139 225.928 185.052 225.656 185.13 225.406L190.89 206.779C192.073 202.954 193.992 199.472 196.591 196.429C196.599 196.42 196.607 196.411 196.616 196.402L203.923 188.784C204.689 187.986 205.859 187.87 206.765 188.501C207.673 189.133 207.97 190.269 207.488 191.264L205.524 195.32C206.057 195.535 206.681 195.751 207.012 195.772C208.442 195.865 209.878 195.273 210.953 194.149C212.508 192.524 214.516 190.471 215.255 189.919C215.402 189.808 215.556 189.69 215.716 189.566C216.774 188.747 218.092 187.728 219.613 187.604C220.653 187.537 221.579 188.012 222.084 188.864C222.589 189.716 222.568 190.762 222.031 191.593L218.977 196.317C216.671 199.882 213.355 202.562 209.386 204.067L203.118 206.445C201.164 207.186 199.866 209.015 199.813 211.104L199.18 235.41C199.174 235.645 199.036 235.857 198.824 235.958C198.738 235.999 198.646 236.019 198.555 236.019ZM186.453 225.359L197.961 234.153L198.562 211.072C198.629 208.474 200.244 206.199 202.675 205.276L208.943 202.899C212.66 201.488 215.767 198.978 217.926 195.639L220.98 190.915C221.263 190.478 221.273 189.95 221.008 189.502C220.743 189.056 220.278 188.816 219.756 188.849C218.564 188.945 217.409 189.839 216.481 190.556C216.316 190.684 216.157 190.807 216.003 190.921C215.488 191.306 213.977 192.798 211.857 195.014C210.525 196.405 208.737 197.136 206.931 197.021C206.079 196.966 204.58 196.281 204.413 196.203C204.26 196.132 204.143 196.004 204.087 195.846C204.03 195.687 204.04 195.514 204.113 195.363L206.362 190.72C206.622 190.182 206.371 189.752 206.051 189.529C205.729 189.306 205.239 189.22 204.825 189.651L197.531 197.255C195.048 200.165 193.216 203.494 192.085 207.15L186.453 225.359Z" fill="black"/>
<path d="M183.119 219.643L215.117 245L200.854 259.788L173.712 237.177L183.119 219.643Z" fill="white"/>
<path d="M200.855 260.413C200.713 260.413 200.571 260.365 200.455 260.268L173.312 237.657C173.083 237.468 173.02 237.143 173.161 236.881L182.568 219.347C182.655 219.184 182.81 219.068 182.992 219.03C183.174 218.994 183.361 219.038 183.507 219.153L215.505 244.51C215.643 244.619 215.729 244.783 215.741 244.959C215.753 245.135 215.69 245.307 215.567 245.434L201.305 260.222C201.183 260.348 201.019 260.413 200.855 260.413ZM174.504 237.023L200.808 258.935L214.188 245.062L183.317 220.598L174.504 237.023Z" fill="black"/>
<path d="M211.777 256.341L175.03 227.99C175.03 227.99 171.009 234.107 164.42 234.767C158.818 235.329 149.263 223.738 141.722 218.718C132.008 212.327 120.501 210.005 109.304 210.956C109.304 210.956 109.251 210.958 109.148 210.97C107.137 211.146 105.019 211.445 102.791 211.896C87.3256 214.486 49.1383 223.047 41.9011 245.252C37.0192 260.233 42.7268 280.318 43.6775 283.456C43.7454 283.679 43.9952 283.785 44.2056 283.683L78.1493 267.293L75.5293 259.412C73.9589 255.621 75.5189 251.256 79.1369 249.319L84.4005 246.501C85.6124 253.131 86.609 260.105 85.4806 266.018C81.3082 287.885 76.5217 295.039 74.1338 312.97C74.1338 312.97 82.4042 311.027 88.4099 311.416L145 313.58C148.777 313.725 152.053 310.946 152.475 307.19C153.067 301.935 153.08 292.629 150.908 276.3C150.626 274.18 150.448 270.814 150.241 266.697C161.805 273.658 182.919 279.061 211.777 256.341Z" fill="white"/>
<path d="M145.279 314.212C145.178 314.212 145.078 314.21 144.976 314.205L88.3862 312.041C82.5257 311.665 74.3586 313.561 74.2766 313.58C74.0786 313.627 73.8668 313.573 73.7135 313.435C73.5614 313.297 73.4871 313.093 73.5138 312.888C74.7826 303.361 76.6845 296.996 78.887 289.626C80.7707 283.322 82.9056 276.178 84.8662 265.901C85.9175 260.396 85.0738 253.819 83.9383 247.459L79.4324 249.871C76.0828 251.664 74.6535 255.663 76.1071 259.173L78.7434 267.096C78.8423 267.394 78.7048 267.72 78.4214 267.857L44.4775 284.246C44.2124 284.376 43.904 284.381 43.6352 284.263C43.3671 284.146 43.1643 283.918 43.0795 283.637C41.9251 279.829 36.4144 260.069 41.3062 245.058C48.6195 222.621 86.6685 213.961 102.688 211.279C104.825 210.847 106.988 210.532 109.094 210.347L109.237 210.33C109.265 210.327 109.296 210.327 109.32 210.326C121.385 209.317 132.705 212.036 142.066 218.195C144.792 220.01 147.793 222.685 150.696 225.272C155.774 229.798 161.022 234.499 164.358 234.144C170.563 233.523 174.47 227.704 174.509 227.645C174.604 227.5 174.757 227.401 174.928 227.372C175.102 227.344 175.275 227.388 175.413 227.494L212.159 255.846C212.311 255.964 212.401 256.145 212.402 256.338C212.403 256.531 212.315 256.713 212.163 256.833C199.221 267.023 186.57 272.554 174.561 273.274C166.142 273.78 158.191 271.945 150.924 267.822C151.115 271.547 151.28 274.361 151.528 276.218C153.348 289.9 153.875 300.345 153.097 307.261C152.652 311.212 149.248 314.211 145.279 314.212ZM86.7051 310.739C87.3 310.739 87.884 310.756 88.4501 310.792L145.024 312.956C148.466 313.088 151.47 310.525 151.853 307.121C152.381 302.435 152.538 293.299 150.288 276.383C150.009 274.291 149.834 271.063 149.616 266.729C149.605 266.498 149.721 266.28 149.92 266.161C150.119 266.042 150.366 266.043 150.564 266.162C162.81 273.533 183.162 277.764 210.757 256.344L175.161 228.88C173.973 230.445 170.178 234.818 164.482 235.389C160.606 235.784 155.386 231.13 149.863 226.206C146.993 223.648 144.026 221.003 141.375 219.238C132.237 213.225 121.16 210.579 109.358 211.579C109.341 211.58 109.325 211.581 109.308 211.581L109.219 211.592C107.143 211.774 105.028 212.082 102.915 212.51C87.0997 215.158 49.5966 223.66 42.4961 245.446C37.8285 259.768 42.8998 278.647 44.193 282.995L77.3825 266.969L74.9358 259.61C73.2507 255.545 74.9231 250.866 78.8426 248.768L84.1059 245.951C84.2811 245.856 84.4918 245.852 84.6727 245.939C84.8524 246.026 84.98 246.193 85.0161 246.39C86.2482 253.129 87.2316 260.185 86.0955 266.136C84.1225 276.475 81.978 283.652 80.0859 289.984C77.9682 297.071 76.1304 303.223 74.8758 312.167C76.9203 311.734 82.1127 310.739 86.7051 310.739Z" fill="black"/>
<path d="M75.6991 277.285L85.8912 293.15L90.4568 290.055C93.2495 288.161 96.672 287.435 99.9932 288.031C99.9932 288.031 104.903 288.683 106.998 290.374C112.053 294.453 107.572 296.991 106.604 297.503C105.046 298.328 102.883 299.095 100.577 298.765C99.2304 298.573 95.6836 299.032 92.4797 300.772C90.056 302.088 87.2236 304.777 83.376 303.734C80.0884 302.843 78.6419 300.903 78.6419 300.903L65.4746 284.484L75.6991 277.285Z" fill="white"/>
<path d="M85.1067 304.594C84.5014 304.595 83.8704 304.517 83.2121 304.337C79.7563 303.4 78.2048 301.364 78.14 301.277L64.9864 284.876C64.8783 284.741 64.8307 284.567 64.8552 284.396C64.8797 284.225 64.9729 284.072 65.1141 283.973L75.3388 276.774C75.4788 276.675 75.6515 276.639 75.8194 276.671C75.9867 276.704 76.1335 276.804 76.2256 276.948L86.0704 292.273L90.1053 289.537C93.0507 287.54 96.6019 286.786 100.104 287.415C100.283 287.439 105.184 288.106 107.391 289.887C109.245 291.384 110.113 292.888 109.971 294.359C109.836 295.766 108.744 297.079 106.896 298.057C105.373 298.862 103.026 299.746 100.488 299.385C99.3456 299.22 95.9104 299.621 92.7783 301.322C92.3062 301.579 91.8107 301.893 91.2867 302.227C89.5918 303.304 87.5645 304.594 85.1067 304.594ZM66.3788 284.612L79.1293 300.512C79.1543 300.545 80.5245 302.313 83.5391 303.131C86.3439 303.89 88.6118 302.446 90.6152 301.171C91.1583 300.826 91.6707 300.5 92.1805 300.223C95.4893 298.426 99.1346 297.926 100.665 298.147C102.868 298.462 104.951 297.671 106.311 296.951C107.159 296.502 108.599 295.554 108.726 294.239C108.825 293.213 108.112 292.077 106.605 290.861C104.668 289.298 99.9577 288.657 99.9101 288.651C96.7047 288.075 93.4802 288.76 90.8073 290.573L86.2416 293.669C86.1011 293.763 85.9295 293.797 85.7653 293.764C85.5997 293.73 85.4557 293.631 85.3639 293.489L75.525 278.172L66.3788 284.612Z" fill="black"/>
<path d="M75.542 268.668L79.7403 276.417L54.9268 296.208C54.9268 296.208 50.4096 287.521 49.0198 281.415L75.542 268.668Z" fill="white"/>
<path d="M54.9265 296.833C54.8831 296.833 54.8398 296.829 54.797 296.82C54.6136 296.781 54.4581 296.662 54.3713 296.496C54.1857 296.139 49.802 287.668 48.4099 281.554C48.3446 281.27 48.4857 280.978 48.7482 280.852L75.271 268.104C75.5716 267.958 75.9338 268.077 76.0919 268.37L80.2899 276.119C80.4347 276.385 80.3668 276.717 80.1305 276.906L55.3161 296.697C55.2051 296.786 55.0671 296.833 54.9265 296.833ZM49.7451 281.761C50.9727 286.69 54.0953 293.154 55.1372 295.24L78.9406 276.255L75.2758 269.49L49.7451 281.761Z" fill="black"/>
<path d="M150.285 267.918C149.959 267.918 149.684 267.665 149.662 267.335C149.552 265.732 149.43 263.982 149.303 262.167C148.948 257.098 148.545 251.352 148.312 247.054C148.294 246.709 148.559 246.415 148.904 246.396C149.241 246.375 149.543 246.642 149.562 246.987C149.794 251.275 150.196 257.015 150.55 262.08C150.678 263.896 150.801 265.647 150.91 267.25C150.933 267.595 150.673 267.893 150.328 267.917C150.314 267.917 150.299 267.918 150.285 267.918Z" fill="black"/>
<path d="M125.713 195.806L123.516 214.07L133.678 218.589C133.678 218.589 118.64 228.81 98.8376 217.481L109.527 212.915L115.038 191.719L125.713 195.806Z" fill="white"/>
<path d="M117.676 223.409C112.194 223.41 105.647 222.097 98.5265 218.024C98.3206 217.906 98.1992 217.682 98.2133 217.445C98.2268 217.208 98.3733 216.999 98.5919 216.905L108.998 212.46L114.433 191.562C114.477 191.39 114.594 191.245 114.752 191.164C114.911 191.082 115.096 191.072 115.262 191.136L125.937 195.222C126.205 195.324 126.368 195.596 126.334 195.88L124.192 213.687L133.932 218.018C134.14 218.11 134.281 218.308 134.301 218.534C134.321 218.76 134.217 218.979 134.03 219.107C133.931 219.174 127.523 223.409 117.676 223.409ZM100.259 217.554C116.101 226.043 128.734 220.589 132.31 218.666L123.261 214.642C123.01 214.53 122.862 214.268 122.894 213.996L125.034 196.216L115.468 192.554L110.132 213.072C110.083 213.26 109.95 213.414 109.772 213.49L100.259 217.554Z" fill="black"/>
<path d="M114.793 196.836C114.793 196.836 110.714 198.375 109.638 194.83C108.562 191.286 112.079 191.509 112.079 191.509C112.079 191.509 108.335 183.74 114.157 182.983C119.979 182.227 124.23 180.074 124.23 180.074C124.23 180.074 128.462 187.485 129.822 193.697C130.641 197.443 130.416 200.754 127.588 201.74C119.845 204.439 114.793 196.836 114.793 196.836Z" fill="white"/>
<path d="M124.302 202.941C119.113 202.941 115.546 198.85 114.552 197.564C113.799 197.764 112.259 198.034 110.937 197.382C110.017 196.928 109.379 196.131 109.039 195.012C108.65 193.728 108.751 192.7 109.339 191.957C109.837 191.329 110.574 191.065 111.165 190.955C110.603 189.502 109.678 186.457 110.804 184.376C111.418 183.243 112.519 182.566 114.076 182.363C119.714 181.631 123.907 179.537 123.948 179.516C124.245 179.367 124.608 179.474 124.773 179.764C124.948 180.069 129.069 187.329 130.432 193.563C131.492 198.402 130.603 201.351 127.794 202.33C126.564 202.759 125.396 202.941 124.302 202.941ZM114.792 196.211C114.996 196.211 115.195 196.311 115.314 196.489C115.51 196.782 120.197 203.651 127.382 201.149C129.496 200.412 130.111 197.95 129.21 193.831C128.089 188.705 124.927 182.655 123.967 180.89C122.626 181.495 118.959 182.991 114.237 183.603C113.085 183.753 112.321 184.201 111.904 184.972C110.914 186.801 112.102 190.114 112.643 191.237C112.739 191.437 112.723 191.674 112.598 191.858C112.474 192.042 112.274 192.142 112.04 192.133C111.716 192.112 110.75 192.186 110.318 192.737C110.002 193.14 109.974 193.783 110.237 194.649C110.475 195.433 110.883 195.959 111.485 196.257C112.787 196.9 114.556 196.256 114.574 196.25C114.645 196.224 114.718 196.211 114.792 196.211Z" fill="black"/>
<path d="M123.737 70.1372C123.576 70.1372 123.415 70.0755 123.292 69.9516L121.48 68.1186C121.237 67.873 121.24 67.4766 121.485 67.2341C121.731 66.9916 122.127 66.9927 122.37 67.2389L124.182 69.0719C124.425 69.3175 124.422 69.7138 124.177 69.9563C124.055 70.0766 123.896 70.1372 123.737 70.1372Z" fill="black"/>
<path d="M132.417 78.9182C132.256 78.9182 132.094 78.8559 131.972 78.7326L130.16 76.899C129.917 76.6534 129.919 76.2571 130.165 76.0145C130.411 75.7709 130.807 75.7745 131.049 76.0193L132.861 77.8528C133.104 78.0985 133.102 78.4948 132.856 78.7374C132.734 78.8582 132.576 78.9182 132.417 78.9182Z" fill="black"/>
<path d="M121.925 78.9182C121.766 78.9182 121.607 78.8584 121.485 78.7373C121.24 78.4948 121.238 78.0984 121.481 77.8528L123.293 76.0193C123.535 75.7742 123.931 75.7706 124.177 76.0145C124.423 76.257 124.425 76.6534 124.182 76.899L122.37 78.7325C122.248 78.8559 122.086 78.9182 121.925 78.9182Z" fill="black"/>
<path d="M130.605 70.1372C130.446 70.1372 130.287 70.0775 130.165 69.9564C129.919 69.7139 129.917 69.3175 130.16 69.0719L131.972 67.2389C132.215 66.9927 132.611 66.9902 132.857 67.2342C133.102 67.4767 133.105 67.873 132.862 68.1187L131.049 69.9516C130.927 70.0756 130.766 70.1372 130.605 70.1372Z" fill="black"/>
<path d="M166.876 133.732C166.875 133.732 166.873 133.732 166.872 133.732C166.527 133.73 166.249 133.449 166.25 133.103L166.265 130.526C166.267 130.182 166.547 129.904 166.891 129.904C166.892 129.904 166.893 129.904 166.894 129.904C167.239 129.906 167.518 130.188 167.516 130.533L167.501 133.111C167.499 133.455 167.22 133.732 166.876 133.732Z" fill="black"/>
<path d="M166.804 146.079C166.803 146.079 166.802 146.079 166.801 146.079C166.456 146.078 166.177 145.796 166.179 145.45L166.194 142.872C166.195 142.528 166.475 142.25 166.819 142.25C166.82 142.25 166.821 142.25 166.823 142.25C167.168 142.252 167.446 142.534 167.444 142.879L167.43 145.458C167.428 145.802 167.148 146.079 166.804 146.079Z" fill="black"/>
<path d="M159.385 138.66C159.041 138.66 158.761 138.382 158.76 138.038C158.758 137.693 159.036 137.411 159.381 137.409L161.96 137.395C161.961 137.395 161.962 137.395 161.963 137.395C162.307 137.395 162.587 137.673 162.589 138.016C162.59 138.362 162.312 138.644 161.967 138.645L159.389 138.66C159.387 138.66 159.386 138.66 159.385 138.66Z" fill="black"/>
<path d="M171.732 138.589C171.388 138.589 171.108 138.311 171.106 137.967C171.104 137.621 171.383 137.34 171.728 137.338L174.306 137.323C174.648 137.341 174.933 137.6 174.935 137.945C174.937 138.291 174.658 138.572 174.313 138.574L171.735 138.589C171.734 138.589 171.733 138.589 171.732 138.589Z" fill="black"/>
<path d="M89.0157 88.9436C86.4723 88.9436 84.4036 86.8749 84.4036 84.3315C84.4036 81.7887 86.4723 79.72 89.0157 79.72C91.5585 79.72 93.6272 81.7887 93.6272 84.3315C93.6272 86.8749 91.5585 88.9436 89.0157 88.9436ZM89.0157 80.9707C87.1624 80.9707 85.6545 82.4783 85.6545 84.3312C85.6545 86.1845 87.1627 87.6924 89.0157 87.6924C90.8689 87.6924 92.3762 86.1842 92.3762 84.3312C92.3765 82.4783 90.8689 80.9707 89.0157 80.9707Z" fill="black"/>
</svg>
