<svg width="17" height="18" viewBox="0 0 17 18" fill="none" xmlns="http://www.w3.org/2000/svg">
<g clip-path="url(#clip0_319_3787)">
<path d="M8.50356 4.95732C6.23213 4.95732 4.39999 6.76084 4.39999 8.99677C4.39999 11.2327 6.23213 13.0362 8.50356 13.0362C10.775 13.0362 12.6071 11.2327 12.6071 8.99677C12.6071 6.76084 10.775 4.95732 8.50356 4.95732ZM8.50356 11.6229C7.0357 11.6229 5.8357 10.4452 5.8357 8.99677C5.8357 7.54834 7.03213 6.3706 8.50356 6.3706C9.97499 6.3706 11.1714 7.54834 11.1714 8.99677C11.1714 10.4452 9.97142 11.6229 8.50356 11.6229ZM13.7321 4.79209C13.7321 5.31592 13.3036 5.73428 12.775 5.73428C12.2428 5.73428 11.8178 5.3124 11.8178 4.79209C11.8178 4.27178 12.2464 3.8499 12.775 3.8499C13.3036 3.8499 13.7321 4.27178 13.7321 4.79209ZM16.45 5.74834C16.3893 4.48623 16.0964 3.36826 15.1571 2.44717C14.2214 1.52607 13.0857 1.23779 11.8036 1.17451C10.4821 1.10068 6.52142 1.10068 5.19999 1.17451C3.92142 1.23428 2.78571 1.52256 1.84642 2.44365C0.907136 3.36474 0.61785 4.48271 0.553564 5.74482C0.478564 7.0456 0.478564 10.9444 0.553564 12.2452C0.614279 13.5073 0.907136 14.6253 1.84642 15.5464C2.78571 16.4675 3.91785 16.7558 5.19999 16.819C6.52142 16.8929 10.4821 16.8929 11.8036 16.819C13.0857 16.7593 14.2214 16.471 15.1571 15.5464C16.0928 14.6253 16.3857 13.5073 16.45 12.2452C16.525 10.9444 16.525 7.04912 16.45 5.74834ZM14.7428 13.6409C14.4643 14.33 13.925 14.8608 13.2214 15.1386C12.1678 15.5499 9.66784 15.455 8.50356 15.455C7.33927 15.455 4.8357 15.5464 3.7857 15.1386C3.08571 14.8643 2.54642 14.3335 2.26428 13.6409C1.84642 12.6038 1.94285 10.1429 1.94285 8.99677C1.94285 7.85068 1.84999 5.38623 2.26428 4.35263C2.54285 3.66357 3.08213 3.13271 3.7857 2.85498C4.83928 2.44365 7.33927 2.53857 8.50356 2.53857C9.66784 2.53857 12.1714 2.44717 13.2214 2.85498C13.9214 3.1292 14.4607 3.66006 14.7428 4.35263C15.1607 5.38974 15.0643 7.85068 15.0643 8.99677C15.0643 10.1429 15.1607 12.6073 14.7428 13.6409Z" fill="#019935"/>
</g>
<defs>
<clipPath id="clip0_319_3787">
<rect width="16" height="18" fill="white" transform="translate(0.5)"/>
</clipPath>
</defs>
</svg>
