<svg width="21" height="20" viewBox="0 0 21 20" fill="none" xmlns="http://www.w3.org/2000/svg">
<path d="M3.5 4.66506C3.5 4.18242 3.66892 3.78426 4.00676 3.47056C4.34459 3.15685 4.78379 3 5.32432 3C5.85522 3 6.28474 3.15443 6.61293 3.46332C6.95077 3.78185 7.11969 4.1969 7.11969 4.70849C7.11969 5.17181 6.9556 5.55791 6.62741 5.8668C6.28958 6.18533 5.84556 6.34459 5.29537 6.34459H5.28089C4.75 6.34459 4.32047 6.18533 3.99228 5.8668C3.66409 5.54826 3.5 5.14768 3.5 4.66506ZM3.68822 17.334V7.66216H6.90251V17.334H3.68822ZM8.6834 17.334H11.8977V11.9334C11.8977 11.5956 11.9363 11.3349 12.0135 11.1515C12.1486 10.8234 12.3538 10.5458 12.6289 10.319C12.904 10.0922 13.249 9.97876 13.6641 9.97876C14.7452 9.97876 15.2857 10.7075 15.2857 12.1651V17.334H18.5V11.7886C18.5 10.36 18.1622 9.27654 17.4865 8.53813C16.8108 7.79971 15.918 7.4305 14.8079 7.4305C13.5627 7.4305 12.5927 7.96622 11.8977 9.03764V9.0666H11.8832L11.8977 9.03764V7.66216H8.6834C8.7027 7.97104 8.71236 8.93146 8.71236 10.5434C8.71236 12.1554 8.7027 14.4189 8.6834 17.334Z" fill="#019935"/>
</svg>
