<svg width="19" height="14" viewBox="0 0 19 14" fill="none" xmlns="http://www.w3.org/2000/svg">
<g clip-path="url(#clip0_319_3780)">
<path d="M18.4998 1.70441C17.8257 1.98888 17.1108 2.17561 16.3787 2.25838C17.1412 1.82297 17.7267 1.13349 18.0024 0.311979C17.2776 0.721787 16.4845 1.01052 15.6574 1.16571C14.9838 0.481989 14.0241 0.0546875 12.9619 0.0546875C10.9224 0.0546875 9.26885 1.62992 9.26885 3.57277C9.26885 3.84855 9.30155 4.11703 9.36447 4.37459C6.29533 4.22782 3.57424 2.82722 1.75279 0.698687C1.43498 1.21829 1.25287 1.82271 1.25287 2.46738C1.25287 3.68799 1.90488 4.76478 2.89572 5.39572C2.30928 5.37822 1.73574 5.22732 1.22299 4.95562C1.22278 4.97036 1.22278 4.9851 1.22278 4.9999C1.22278 6.70448 2.49572 8.12645 4.18504 8.44966C3.64124 8.59056 3.07082 8.61118 2.51737 8.50995C2.98727 9.90767 4.35112 10.9248 5.96705 10.9532C4.70318 11.8968 3.11081 12.4593 1.3807 12.4593C1.08258 12.4593 0.78867 12.4426 0.499756 12.4101C2.13403 13.4083 4.07515 13.9908 6.16062 13.9908C12.9533 13.9908 16.6677 8.62985 16.6677 3.98078C16.6677 3.82819 16.6642 3.67647 16.657 3.52561C17.38 3.0277 18.004 2.41098 18.4998 1.70441Z" fill="#019935"/>
</g>
<defs>
<clipPath id="clip0_319_3780">
<rect width="18" height="14" fill="white" transform="translate(0.499756)"/>
</clipPath>
</defs>
</svg>
